<svg xmlns="http://www.w3.org/2000/svg" viewBox="0 0 168.6 170.3"><style type="text/css">
	.st0{fill:#A7A9AC;}
	.st1{clip-path:url(#SVGID_2_);fill:#eeeeee;}
	.st2{fill:none;stroke:#FFFFFF;stroke-width:7.6739;stroke-miterlimit:3.8637;}
	.st3{fill:#FFFFFF;}
	.st4{fill:#eeeeee;}
	.st5{clip-path:url(#SVGID_4_);fill:#FFFFFF;}
	.st6{fill-rule:evenodd;clip-rule:evenodd;fill:#FFFFFF;}
</style><polygon class="st0" points="59.6 60.2 109.2 60.2 109.2 109.8 59.6 109.8 59.6 60.2 59.6 60.2 "/><defs><polygon points="59.6 60.2 109.2 60.2 109.2 109.8 59.6 109.8 59.6 60.2 59.6 60.2 59.6 60.2 "/></defs><polygon class="st1" points="58.4 58.9 83.1 58.9 83.1 85.3 58.4 85.3 58.4 58.9 58.4 58.9 "/><polygon class="st1" points="86 58.9 110.7 58.9 110.7 85.3 86 85.3 86 58.9 86 58.9 "/><polygon class="st1" points="58.4 86.4 83.1 86.4 83.1 112.7 58.4 112.7 58.4 86.4 58.4 86.4 "/><polygon class="st1" points="86 86.4 110.7 86.4 110.7 112.7 86 112.7 86 86.4 86 86.4 "/><path class="st2" d="M58.3 84.9h52.2M84.3 112V59.8"/><path class="st3" d="M62.5 84.9c0-12 9.8-21.8 21.8-21.8s21.8 9.8 21.8 21.8c0 12-9.8 21.8-21.8 21.8S62.5 97 62.5 84.9L62.5 84.9 62.5 84.9z"/><polygon class="st4" points="119 60.3 168.6 60.3 168.6 109.9 119 109.9 119 60.3 119 60.3 "/><path class="st3" d="M139.4 78.5c0.8-1 1.7-0.9 2.7 0.2C141.1 79.2 140.2 79.2 139.4 78.5L139.4 78.5 139.4 78.5z"/><path class="st3" d="M144.6 78.9c0.8 0.6 1.6 0.5 2.4-0.1L144.6 78.9 144.6 78.9 144.6 78.9zM139.8 76.2c0.2-1.5 1.4-2.6 3.4-3.4 1 1.3 2.2 2.5 3.7 3.6 0.8 0.7 1.2 1.5 1.2 2.4 0.2 3.1-0.2 5.3-1.3 6.6 -1.2 1.1-2.5 1.8-3.8 2.2l-0.1-8.9C143.2 77.3 142.2 76.5 139.8 76.2L139.8 76.2 139.8 76.2z"/><path class="st3" d="M138.8 79.5l3.5 0.4 -0.1 5.2C139.9 83.9 138.8 82.1 138.8 79.5L138.8 79.5 138.8 79.5z"/><path class="st3" d="M135.7 76.3c1.7-1.7 3.6-2.9 5.5-3.6 2-0.6 3.1-1.6 3.5-3.2C141.2 68.1 137.6 70.5 135.7 76.3L135.7 76.3 135.7 76.3z"/><path class="st3" d="M144.2 72.4c0.6-1.6 1.1-2.3 1.6-2 1.8 1 3 3 3.5 5.9C147.2 75.7 145.5 74.4 144.2 72.4L144.2 72.4 144.2 72.4z"/><path class="st3" d="M135.3 78.9l2.4-1.9 0.3 4.6 1.3 4.2c-2.1 0-3.4-1.4-4.1-4.3L135.3 78.9 135.3 78.9 135.3 78.9z"/><path class="st3" d="M149.2 78.9c0.5 0.4 0.6 1.6 0.4 3.5h-0.8l-0.3-0.9C148.6 80.2 148.8 79.3 149.2 78.9L149.2 78.9 149.2 78.9z"/><path class="st3" d="M147.8 88.5l1.2-3.8c0.4-0.9 0.8-0.8 1 0.2 1.9 5.9 4.1 10.8 6.6 14.7 0.9 1.2 0.7 1.6-0.4 1.2 -2.4-0.4-4.5-1.3-6.4-2.5C148.5 94.8 147.8 91.6 147.8 88.5L147.8 88.5 147.8 88.5z"/><path class="st3" d="M134.1 84.2c4.6 4.8 8.7 7.2 12.3 7.2l0.8 5.5c-4.6-1.5-8.8-3.9-12.5-7.3L134.1 84.2 134.1 84.2 134.1 84.2z"/><path class="st3" d="M131.9 91.5l1.3-2c4.9 4.5 9.9 7.6 15.1 9.2l-0.2 1.6 -6.4 2.5 -4.5-3.3L131.9 91.5 131.9 91.5 131.9 91.5z"/><path class="st3" d="M131.1 92.6c2.1 4.4 4.5 8.2 7.2 11.2l-1.8 0.9 -6.3-1.3 -4.4-2.2 -0.1-1.4C127 95.8 128.8 93.4 131.1 92.6L131.1 92.6 131.1 92.6z"/><path class="st3" d="M123.9 102.7l6.7 3.1c-2 2-4.8 3-8.3 2.9C122.4 105.7 122.9 103.7 123.9 102.7L123.9 102.7 123.9 102.7z"/><path class="st3" d="M151.1 100.8c3.4 1.8 6.7 3.1 10 3.9 2.1 1.1 3.7 2.8 4.8 5.2h-6.3c-2.9-0.4-5.1-1.3-6.6-2.9L151.1 100.8 151.1 100.8 151.1 100.8z"/><path class="st3" d="M125.7 109.8c13.4-4.8 21.1-7.8 23.2-9l0.2 2.1c-4.1 2.2-10.2 4.5-18.5 7L125.7 109.8 125.7 109.8 125.7 109.8z"/><path class="st3" d="M133.1 64.8l3.5-2.2 2.5 4.9c-1.2 0.4-2 1-2.4 1.7L133.1 64.8 133.1 64.8 133.1 64.8z"/><path class="st3" d="M139 62.2l1.1 4.8 3.1-0.3 1-5.4C140.9 60.9 139.2 61.2 139 62.2L139 62.2 139 62.2z"/><path class="st3" d="M145.4 61.5l-0.6 5.1 1.8 0.5 1.8-5.1C147.1 61.2 146.1 61 145.4 61.5L145.4 61.5 145.4 61.5z"/><path class="st3" d="M147.8 67.6l2.2-4.4c2.6 1.2 4.5 3 5.7 5.4l-4.6 2.9C150 69.4 148.9 68.1 147.8 67.6L147.8 67.6 147.8 67.6z"/><polygon class="st3" points="151.6 72.5 157 70.3 157.9 73.5 151.5 74 151.6 72.5 151.6 72.5 "/><polygon class="st3" points="152.5 74.9 158.3 75 157.9 78.3 151.9 77.4 152.5 74.9 152.5 74.9 "/><path class="st3" d="M152.8 79.4h4.4l-1.1 1.9C154 80.9 152.9 80.2 152.8 79.4L152.8 79.4 152.8 79.4z"/><path class="st3" d="M152.9 81.3l2.6 0.9c-0.2 0.8-0.8 1.7-1.8 2.6L152.9 81.3 152.9 81.3 152.9 81.3z"/><path class="st3" d="M131.5 66.2l4.4 3.9c-1 1-1.8 2.3-2.2 3.8l-4.7-0.7C129.3 70.2 130.1 67.9 131.5 66.2L131.5 66.2 131.5 66.2z"/><path class="st3" d="M129.1 74.6c1.6-0.1 3 0 4.3 0.4v2.5l-4.2 0.2C128.8 76.2 128.8 75.2 129.1 74.6L129.1 74.6 129.1 74.6z"/><path class="st3" d="M130.1 79.3c0.8 2 1.7 3.2 2.9 3.6l0.3-4.6L130.1 79.3 130.1 79.3 130.1 79.3z"/><path class="st3" d="M126 69.8l2 0.7c-1.2 6.8 0.5 11.6 5.3 14.5l-1 2.5C126.3 83 124.2 77.1 126 69.8L126 69.8 126 69.8z"/><path class="st3" d="M129 68c1.1-3 4.1-5.5 9-7.6l-3.8-0.2c-3.7 2.2-6 4.5-6.9 7L129 68 129 68 129 68z"/><path class="st3" d="M152.7 60.4l-0.7 1.4c3.7 3.6 6.1 7.3 7 10.9l1.8-0.1C159.7 67.3 157 63.2 152.7 60.4L152.7 60.4 152.7 60.4z"/><path class="st3" d="M159.4 74l1.5-0.1c0 6.3-1.8 10.6-5.6 12.8l-1.1-1.5C157.8 81.6 159.5 77.9 159.4 74L159.4 74 159.4 74z"/><polygon class="st4" points="0 60.2 49.6 60.2 49.6 109.8 0 109.8 0 60.2 0 60.2 "/><path class="st3" d="M22.4 65.3c-0.5-1.3-1.3-2.5-2.4-3.6 -2.9 2.6-4.5 4.7-5.6 7.5 0.5 0.6 1.1 1 2.2 1.1C19.5 68.1 21.2 66.9 22.4 65.3L22.4 65.3 22.4 65.3z"/><path class="st3" d="M28.6 60.2c0.1 4.5-0.8 7.8-1.6 11.2 -4.5 1.5-8.1 2.7-11.3 3.4l-1.8-3.2c1.5 0.4 2.5 0.5 3.1 0.3 5.2-4.7 8.6-8.6 10.5-11.7H28.6L28.6 60.2 28.6 60.2z"/><path class="st3" d="M26.8 73.1l-0.5 3.2c-4.6 0.4-8 1.3-10.6 2.1l0.3-2L26.8 73.1 26.8 73.1 26.8 73.1z"/><path class="st3" d="M33 76.3l-0.8-1.8c-0.3 1.7-0.7 2.5-0.9 3 0.9 0.3 1.2 0.7 1.4 1.2L33 76.3 33 76.3 33 76.3z"/><path class="st3" d="M27.5 76.8c1.1 0 2.1 0.2 2.9 0.4 0.1-0.4 0.4-1.6 0.8-3.5l0.7-10c-0.8-1.9-1.6-2.9-2.3-3.1C29.4 67 28.7 72.4 27.5 76.8L27.5 76.8 27.5 76.8z"/><path class="st3" d="M33.5 74.8l-1.2-1.9 0.7-7.4c1 1.9 1.6 3.7 1.8 5.3L33.5 74.8 33.5 74.8 33.5 74.8z"/><path class="st3" d="M23.5 77.8c1.1-0.1 1.2 0.1 0.4 0.7 -1.7 1.4-2.9 3.6-3.6 6.8 -0.2 1-0.9 0.9-2.1-0.1L17 83.7c0.2-0.9 0.5-2.1 1.5-2.9C19.6 79.5 21.1 78.3 23.5 77.8L23.5 77.8 23.5 77.8z"/><path class="st3" d="M19.2 78.2c1 0 1.6-0.1 0 0.7 -2.1 1.4-3.2 2.9-3.2 4.5 0.1 0.7-0.1 0.9-0.8 0.5 -1.6-1.2-1.5-2.8 0.4-4.9C17.2 78.6 18.4 78.3 19.2 78.2L19.2 78.2 19.2 78.2z"/><path class="st3" d="M20.1 88.1c2.5 5.3 5.3 7.9 8.5 7.9 1.4-1.5 2-2.7 1.9-5.1L28.7 92c-3.7-1.3-6.3-3.7-7.6-5.7L20.1 88.1 20.1 88.1 20.1 88.1z"/><path class="st3" d="M26 97.4C21.3 94 18.2 89.5 15.5 85c-1 0.7-1.4 1.8-1.1 3.5 3.4 4.4 6.5 7.2 9.4 8.5L26 97.4 26 97.4 26 97.4z"/><path class="st3" d="M15.8 92.3l-2.3-2.9c-0.3-1.3-0.5-2.6-0.4-3.9 -1.3 1.1-3.5 4.4-3.8 6.1L15.8 92.3 15.8 92.3 15.8 92.3z"/><path class="st3" d="M27.9 80.9c-0.5-0.7-1.4-0.9-2.8-0.8 0.5-0.4 1-0.6 1.4-0.7 0.5-0.1 1 0 1.4 0.1 0.4 0.3 0.6 0.6 0.6 0.9v0.5c-0.3 0.4-0.8 0.7-1.4 0.7 -0.6 0-1.1-0.1-1.4-0.3L27.9 80.9 27.9 80.9 27.9 80.9zM32.4 79.4c-0.6-1.2-2.2-1.7-5.8-1.6 -2.2 0.8-3.9 3.1-5.1 6.9 1.2 2.7 3.7 4.5 7.4 5.6 1.1-0.3 0.8-4.2 0.8-4.2l1.5-0.4 -0.6-4.4C30.7 80.1 31.5 79.4 32.4 79.4L32.4 79.4 32.4 79.4z"/><path class="st3" d="M32.8 81.5c-0.2-1.2-0.8-1.3-1.8-0.1L32.8 81.5 32.8 81.5 32.8 81.5z"/><path class="st3" d="M32.7 82.3l-1.2 0.2 -0.1 1.9C32.5 83.7 33 83 32.7 82.3L32.7 82.3 32.7 82.3z"/><polygon class="st3" points="18.4 95.5 7.6 95.8 9.8 92.8 17.1 93.9 18.4 95.5 18.4 95.5 "/><polygon class="st3" points="31.3 108.6 14.4 101.8 13.3 102.9 16 109.8 32.2 109.9 31.3 108.6 31.3 108.6 "/><path class="st3" d="M38.3 108.6c-1-0.9-4.2-0.9-5.1 0.2v1l4.8-0.1L38.3 108.6 38.3 108.6 38.3 108.6z"/><path class="st3" d="M48.4 100.7l-0.9-1.2 -7.4 8 -0.8 2.4h6.1C46.2 107.5 47.5 104.3 48.4 100.7L48.4 100.7 48.4 100.7z"/><path class="st3" d="M46.1 99.7l-7.4 6.6c-0.9-0.5-1.7-0.8-2.7-0.8 0.2-1.7 3.1-4.3 5.5-5 2.2-1.1 2.7-1.8 3.2-2.3L46.1 99.7 46.1 99.7 46.1 99.7z"/><path class="st3" d="M33.8 105.7l-2.5 0.8 -15-4.7 1.9-1.5c2.8 1.3 5.3 1.9 8.8 2.5C31.9 102.9 33.1 104.6 33.8 105.7L33.8 105.7 33.8 105.7z"/><path class="st3" d="M29.6 101.9l-0.2-3c1.2-1.1 1.5-3.4 1.8-4.4 2.7 1.5 4.8 3.6 5.6 6.1l-3.1 1.3H29.6L29.6 101.9 29.6 101.9z"/><polygon class="st3" points="27.4 99 28.4 101.9 23.5 100.6 23.6 98.6 27.4 99 27.4 99 "/><path class="st3" d="M21.3 97.3l0.5 2.4 -5.5-0.5c-3.8 1.9-8.2 3.2-13.1 4 0.5-1.9 1.8-4.1 4-6.5C14.5 96.5 19.2 96.7 21.3 97.3L21.3 97.3 21.3 97.3z"/><path class="st3" d="M8.8 103.4l5.3 6.4H3.7c-1.2-1.4-1.2-3.4-0.7-5.3L8.8 103.4 8.8 103.4 8.8 103.4z"/><path class="st3" d="M44.5 75.9l-4.9 23.8 -0.7 0.2 0.6-5.8L38 90.6c1.4-6.3 4-13 5.2-14.1L44.5 75.9 44.5 75.9 44.5 75.9z"/><path class="st3" d="M44.6 81c0.4 5.9-1 11.5-2.9 12L44.6 81 44.6 81 44.6 81z"/><path class="st3" d="M41.8 95.3c2.6 0 3.2 0.7 1.8 2.3 -1.3 1.4-2.2 1.8-2.9 1.1L41.8 95.3 41.8 95.3 41.8 95.3z"/><path class="st3" d="M38.7 95.5C37 93.8 36 94.2 36 96.7c0.6 2.1 1.3 2.8 2.4 2L38.7 95.5 38.7 95.5 38.7 95.5z"/><polygon class="st4" points="59.5 1.1 109.2 1.1 109.2 50.7 59.5 50.7 59.5 1.1 59.5 1.1 "/><defs><polygon points="59.5 1.1 109.2 1.1 109.2 50.7 59.5 50.7 59.5 1.1 59.5 1.1 59.5 1.1 "/></defs><path class="st5" d="M74.2 11L74.2 11c-4.5-1.8-6.5-3.2-7.3-6 1-0.4 2.1-0.6 3.1-0.8C71.5 4 73.9 6 75 7.2l4.5 7.2c-0.2 0.3-0.4 0.8-0.7 0.9 -0.6 0.1-1.6-0.8-3.1-2.4L74.2 11 74.2 11 74.2 11zM67.3 18.8l2 6.6c-0.5 0.3-1.1 0.2-1.5-0.2 0 0-1.5-2.9-2.9-6.5C65.7 18.8 66.5 18.8 67.3 18.8L67.3 18.8 67.3 18.8zM70.8 18.5l2.1 8c0 0.2-1.5 0.6-1.6 0.3l-3.1-8C69 18.8 69.9 18.7 70.8 18.5L70.8 18.5 70.8 18.5zM73.6 17.7l3 7.8c0.1 0.5-1.3 1.4-1.6 1.1l-3.7-8.2C72.1 18.2 72.8 18 73.6 17.7L73.6 17.7 73.6 17.7zM76.4 16.2l2.8 7.4c-0.1 0.5-1.2 1.1-1.2 1l-3.7-7.2C75 17 75.7 16.6 76.4 16.2L76.4 16.2 76.4 16.2zM67.6 13.5c0.2 0.9 1.1 1.5 1.9 1.3 0.8-0.2 1.3-1.1 1-2 -0.2-0.9-1.3-2.1-2.1-2C67.6 11 67.4 12.6 67.6 13.5L67.6 13.5 67.6 13.5zM63.2 7.8C64 6.7 65 5.9 66.1 5.4c1.2 3.7 4.2 6.3 9.2 8l0.4 0.9 0.5 1.3c-2.1 1.5-6.3 2.3-9.4 1.4 -1.2-0.4-2.3-1-3.1-1.9C62.8 12.1 62.4 9.4 63.2 7.8L63.2 7.8 63.2 7.8z"/><path class="st5" d="M63.3-21.4l6.4 24.2c-2.8 0.5-5 1.9-6.8 3.8l-9.5-20.6L63.3-21.4 63.3-21.4 63.3-21.4z"/><path class="st5" d="M81.5 41c-2.4-2.9-4.3-5.7-4.3-5.7 -0.2-0.6 0.1-1.1 0.5-1.5l4.8 4.9 0-0.1c0.1-0.2 0.2-0.4 0.4-0.6l-5.5-6.6c-0.2-0.2 0.9-1.4 1.1-1.3l6 5.7c-0.6 0.7-1.1 1.4-1.6 2.2 -0.1 0.2-0.2 0.4-0.4 0.6l0 0.1C82.2 39.5 81.8 40.3 81.5 41L81.5 41 81.5 41zM87.2 33.5l-4.5-6.8c-0.1-0.1 1-0.7 1.5-0.5l5.2 6C88.5 32.6 87.8 33 87.2 33.5L87.2 33.5 87.2 33.5zM84.9 35.6l-5.4-7.2c-0.1-0.4 1.4-1.2 1.8-0.8l5.4 6.4C86 34.4 85.4 35 84.9 35.6L84.9 35.6 84.9 35.6zM96.7 43.5c-0.7 0.8-1.4 1.6-2.2 2.3 -2.1-2-2.3-4.5-1.8-9.3l0.1 0 -0.9-2.2c-0.6-2.1-0.9-3.4-0.6-3.9 0.2-0.3 0.7-0.1 1.1-0.2l4.1 7.4C97 39.3 97.6 42.3 96.7 43.5L96.7 43.5 96.7 43.5zM90.6 33.7l0.6 0.8c-0.9 5.2-0.1 9.1 2.5 11.9 -1 0.7-2.1 1.2-3.5 1.3 -1.8 0-4-1.7-6.1-3.9 -0.4-1.1-0.4-2.4-0.2-3.6 0.7-3.2 3.4-6.5 5.8-7.6L90.6 33.7 90.6 33.7 90.6 33.7z"/><path class="st5" d="M115.9 61.8L97.7 44.5c-1.9 2.2-4.1 3.5-6.6 4.1l13.4 18.3L115.9 61.8 115.9 61.8 115.9 61.8z"/><path class="st5" d="M92.5 25.5c-1-0.8-2.2-1.4-3.5-1.8 -1.4-1.4-2.7-2-3.7-2.6 -0.2-0.1 0.3-1.4 0.8-1.1l3.1 1.9 3.8 1.4C92.8 24 92.6 24.8 92.5 25.5L92.5 25.5 92.5 25.5zM92.8 28.2c-1-0.6-2.1-1-3.3-1.3 -1.7-1.4-3.2-2.1-3.2-2.1 -0.5-0.4-0.5-0.9-0.3-1.3l3.3 1.7 3.2 0.9C92.6 26.7 92.7 27.5 92.8 28.2L92.8 28.2 92.8 28.2zM94.3 20.4c-0.6-0.8-1.6-1.3-2.8-1.9 -0.7-1.3-1.6-1.9-2.6-2.8 -0.1 0 0.4-0.7 0.9-0.8l2.9 2.2 2.9 1.6C95.2 19.2 94.7 19.8 94.3 20.4L94.3 20.4 94.3 20.4zM93.1 22.9c-0.9-0.8-2.2-1.4-3.7-2 -0.9-1.4-2.1-2-3-2.8 -0.3-0.3 0.3-1.4 0.8-1.2l3.1 2.3 3.7 1.7C93.7 21.6 93.4 22.2 93.1 22.9L93.1 22.9 93.1 22.9zM107.2 25.8c-0.3 0.9-0.6 1.8-1 2.6 -2.8-1-3.9-3-5.5-7.1l0 0 -0.8-1.9c-1.5-0.9-2.5-1.9-2.4-2.4 0-0.3 0.1-0.7 0.5-0.9 0.9 0.7 2.3 1.4 3.4 1.8 0.9 1 1.5 2 3.2 3.1C105.6 22.2 107.4 24.5 107.2 25.8L107.2 25.8 107.2 25.8zM98.8 20.2c0.3 4.8 3.4 7.3 6.9 8.9 -0.6 0.9-1.4 1.6-2.6 2.2 -1.6 0.5-4.2-1.1-7.3-1.9 -1.1-0.7-1.3-1.2-1.5-2.3 -0.7-2.9 0.3-6.4 2-8L98.8 20.2 98.8 20.2 98.8 20.2z"/><path class="st5" d="M132.1 34.9c-14.7-3.9-22.1-6.4-23.8-7.9 -0.7 2.4-1.6 4-3.6 5.2 8.1 4.1 11.2 7.3 18.9 12.1L132.1 34.9 132.1 34.9 132.1 34.9z"/><path class="st5" d="M68.8 40.2l0.3-5.7c0-0.2 1.2-0.4 1.2-0.2l0.4 5.4C70.1 39.9 69.4 40 68.8 40.2L68.8 40.2 68.8 40.2zM66.6 41.3c0-2.9 0.1-4.3 0.1-4.3 0.2-0.5 0.5-0.7 0.9-0.6l0.5 4.1C67.6 40.7 67.1 41 66.6 41.3L66.6 41.3 66.6 41.3zM73.3 39.8l1.4-4.7c0-0.1 0.8 0.2 1 0.5L75 40.3C74.5 40 73.9 39.9 73.3 39.8L73.3 39.8 73.3 39.8zM71.1 39.8l0.9-5.9c0.1-0.3 1.3 0.1 1.3 0.5l-0.5 5.4C72.2 39.7 71.7 39.7 71.1 39.8L71.1 39.8 71.1 39.8zM73.6 48c-0.8 0.1-1.5 0.1-2.3 0.1 0-2.2 1-2.9 3.7-5.2l0 0 0.7-1.7c0.8-1.5 1-1.3 1.5-1.4 0.2 0 0.4 0.3 0.6 0.5l-1.5 5.2C76 46.5 75.9 47.6 73.6 48L73.6 48 73.6 48zM75 41.4l0 0.3c-3.1 2.3-4.4 3.6-4.6 6.5 -0.8-0.2-1.8-0.3-2.5-0.9 -0.9-0.6-2.2-2.2-1.2-4.3 0.4-0.8 0.9-1 1.7-1.6 2-1.3 4.9-0.9 6.6-0.2L75 41.4 75 41.4 75 41.4z"/><path class="st5" d="M74.1 53.6l0.5-4.8c-2.1 0.6-5.6 0.4-7.2-0.6L66.9 52 74.1 53.6 74.1 53.6 74.1 53.6z"/><path class="st3" d="M82.9 44.7c-1.5 0.9-3.5 1.5-5.3 1.5 0.2-0.5 0.3-0.7 0.3-1.3 0-0.3 0-1-0.1-1.3 1.2 0 2.8 0.2 4.2-0.1C82.3 43.8 82.4 43.9 82.9 44.7L82.9 44.7 82.9 44.7zM99.7 32c-0.5 1.3-1 2.5-2 3.7 -0.5-0.8-1.1-1.4-1.7-2 0.9-0.9 1.5-1 2-1.9C98.5 31.6 99.6 31.7 99.7 32L99.7 32 99.7 32zM58.6 37.2c1.8 1.7 4.1 2.6 6.3 3.7l-0.4 1.3 0.1 1.5c-2.1-0.9-4-2.1-5.7-3.4L58.6 37.2 58.6 37.2 58.6 37.2zM96.4 0c1.3 1.4 2 2.5 3 4.2 2.1 3.7 3.9 8.4 4.2 12.9l-1.4-0.7 -1.4-0.3c-0.2-2.6-0.7-5.4-1.7-7.7 -1.4-3.4-3.7-6-6.4-8.4H96.4L96.4 0 96.4 0zM59.5 0c-0.2 0.2-0.4 0.4-0.7 0.6V0H59.5L59.5 0 59.5 0z"/><polyline class="st4" points="109.1 119.1 109.1 168.2 59.5 168.2 59.5 119.1 59.5 119.1 59.5 119.1 "/><path class="st6" d="M72.8 147.3L84 136.9l12.6 8.7 1.7 18.1 -17.1 3.4L72.8 147.3 72.8 147.3 72.8 147.3zM77.3 170.3L69 150.7l-4.7 2 -3.1-0.7 21.7-21 28.4 17.9 -3.5 2.5 -5.5-2.8 -0.5 17.2L77.3 170.3 77.3 170.3 77.3 170.3z"/><path class="st3" d="M82.8 165.3c-2.8-3.6-4.1-5.9-5.6-10.2 -0.3-0.8-0.4-1.3-0.7-2.1 -0.5-0.9 0-2 0.9-2.3 0.9-0.3 1.8 0.2 2.1 1.1l1.3 3.6 -0.4-7.2c-0.2-1.3-0.4-2.4 0.7-2.9 1.2-0.5 2.1 0.9 2.3 2.5l0.8 6.2 0.6-8.9c0-1.2 3.1-1.4 3.2-0.2 0 0.1 0 0.2 0 0.4l-0.4 8.5 2-8.5c0.5-0.9 1.9-1.1 2.6-0.4 0.4 0.4 0.5 0.8 0.5 1.3l-1.6 7.8 2.7-6.8c0.6-0.6 1.8-0.4 2.2 0.4 0.1 0.3 0.1 0.5 0.1 0.7l-1.9 7.2c-0.7 4.2-2.3 9.3-3.4 9.8C88.1 166.5 85.6 166.8 82.8 165.3L82.8 165.3 82.8 165.3z"/><polygon class="st3" points="83.1 134.6 81.4 126.8 78.1 128 76.8 124.8 80.9 123.6 80.9 118.3 84 118.4 83.9 122.8 88.2 122 89.2 123.8 84 125.8 84.7 134.7 83.1 134.6 83.1 134.6 "/></svg>
