<svg id="Layer_1" data-name="Layer 1" xmlns="http://www.w3.org/2000/svg" viewBox="0 0 1488.93 180.61"><defs><style>.cls-1{font-size:120px;}.cls-1,.cls-26,.cls-5{fill:#fff;}.cls-1,.cls-22,.cls-23,.cls-24,.cls-25{font-family:Raleway-Bold, Raleway;font-weight:700;}.cls-2{letter-spacing:-0.03em;}.cls-3{letter-spacing:0em;}.cls-4{letter-spacing:0em;}.cls-5{font-size:32px;font-family:Raleway-Medium, Raleway;}.cls-6{letter-spacing:-0.03em;}.cls-7{letter-spacing:-0.01em;}.cls-8{letter-spacing:-0.03em;}.cls-9{letter-spacing:-0.01em;}.cls-10{letter-spacing:-0.02em;}.cls-11{letter-spacing:-0.03em;}.cls-12{letter-spacing:-0.01em;}.cls-13{letter-spacing:-0.01em;}.cls-14{letter-spacing:0em;}.cls-15{letter-spacing:-0.03em;}.cls-16{letter-spacing:-0.02em;}.cls-17{letter-spacing:-0.02em;}.cls-18{letter-spacing:0em;}.cls-19{letter-spacing:-0.03em;}.cls-20{letter-spacing:-0.01em;}.cls-21{letter-spacing:0em;}.cls-22{letter-spacing:-0.01em;}.cls-23{letter-spacing:0em;}.cls-24{letter-spacing:-0.02em;}</style></defs><title>cc_website_logo_text</title><text class="cls-1" transform="translate(0 102.6)">Corpus Christi <tspan class="cls-2" x="837.1" y="0">F</tspan><tspan x="901.9" y="0">ound</tspan><tspan class="cls-3" x="1198.66" y="0">a</tspan><tspan class="cls-4" x="1267.06" y="0">tion</tspan></text><text class="cls-5" transform="translate(291 173.28)"><tspan class="cls-6">A</tspan><tspan x="20.67" y="0" xml:space="preserve"> n</tspan><tspan class="cls-7" x="47.65" y="0">e</tspan><tspan class="cls-8" x="66.11" y="0">w </tspan><tspan class="cls-9" x="98.69" y="0">w</tspan><tspan class="cls-10" x="124.54" y="0">a</tspan><tspan class="cls-11" x="141.73" y="0">y</tspan><tspan x="158.3" y="0"> </tspan><tspan class="cls-12" x="166.4" y="0">t</tspan><tspan x="177.44" y="0">o ensu</tspan><tspan class="cls-13" x="277.53" y="0">r</tspan><tspan x="288.77" y="0">e th</tspan><tspan class="cls-14" x="345.92" y="0">a</tspan><tspan x="363.52" y="0">t</tspan><tspan class="cls-15" x="374.78" y="0"> </tspan><tspan class="cls-16" x="382.01" y="0">y</tspan><tspan x="398.84" y="0">ou</tspan><tspan class="cls-17" x="437.24" y="0">r</tspan><tspan x="448.12" y="0" xml:space="preserve"> gift</tspan><tspan class="cls-8" x="505.79" y="0"> </tspan><tspan class="cls-18" x="512.99" y="0">wil</tspan><tspan class="cls-19" x="555.77" y="0">l</tspan><tspan x="563.96" y="0" xml:space="preserve"> last... a li</tspan><tspan class="cls-20" x="695.83" y="0">f</tspan><tspan class="cls-21" x="706.42" y="0">e</tspan><tspan x="725.17" y="0" xml:space="preserve">time   |   </tspan><tspan class="cls-22" x="848.53" y="0">H</tspan><tspan class="cls-23" x="872.15" y="0">olland</tspan><tspan x="970.16" y="0" xml:space="preserve">      </tspan><tspan class="cls-24" x="1018.73" y="0">Z</tspan><tspan class="cls-25" x="1038.22" y="0">eeland, MI</tspan></text><rect class="cls-26" x="1278.33" y="155.87" width="14" height="14"/></svg>