<?xml version="1.0" encoding="utf-8"?>
<!-- Generator: Adobe Illustrator 21.0.0, SVG Export Plug-In . SVG Version: 6.00 Build 0)  -->
<svg version="1.1" id="Layer_1" xmlns="http://www.w3.org/2000/svg" xmlns:xlink="http://www.w3.org/1999/xlink" x="0px" y="0px"
	 viewBox="0 0 522 522" style="enable-background:new 0 0 522 522;" xml:space="preserve">
<style type="text/css">
	.st0{fill:#FFFFFF;}
	.st1{clip-path:url(#SVGID_2_);}
	.st2{fill:#B73536;}
	.st3{fill:#007AC2;}
	.st4{fill:#006351;}
	.st5{fill:#342A7A;}
	.st6{clip-path:url(#SVGID_4_);}
	.st7{clip-path:url(#SVGID_4_);fill:#B73536;stroke:#B73536;stroke-miterlimit:10;}
	.st8{clip-path:url(#SVGID_6_);}
	.st9{clip-path:url(#SVGID_8_);}
	.st10{clip-path:url(#SVGID_8_);fill:#006351;stroke:#006351;stroke-miterlimit:10;}
	.st11{clip-path:url(#SVGID_10_);}
	.st12{fill:#A7A9AC;}
	.st13{clip-path:url(#SVGID_12_);}
	.st14{fill:none;stroke:#FFFFFF;stroke-width:13.21;stroke-miterlimit:3.86;}
	.st15{fill:#231F20;}
	.st16{clip-path:url(#SVGID_14_);}
	.st17{clip-path:url(#SVGID_16_);}
	.st18{clip-path:url(#SVGID_18_);}
	.st19{font-family:'OpenSans-Bold';}
	.st20{font-size:4.99px;}
	.st21{fill:#006351;stroke:#006351;stroke-miterlimit:10;}
	.st22{fill:#342A7A;stroke:#342A7A;stroke-miterlimit:10;}
	.st23{fill:#007AC2;stroke:#007AC2;stroke-miterlimit:10;}
	.st24{fill:#B73536;stroke:#B73536;stroke-miterlimit:10;}
</style>
<title>cc_website_logo_icon</title>
<g>
	<rect class="st0" width="522" height="522"/>
	<g>
		<defs>
			<rect id="SVGID_1_" x="45" y="45" width="432" height="432"/>
		</defs>
		<clipPath id="SVGID_2_">
			<use xlink:href="#SVGID_1_"  style="overflow:visible;"/>
		</clipPath>
		<g class="st1">
			<polyline class="st2" points="486,486 486,260.1 260.2,260.1 260.2,486 486,486 			"/>
			<polyline class="st3" points="486,261.2 486,36 260.2,36 260.2,261.2 486,261.2 			"/>
			<polyline class="st4" points="261.3,486 261.3,260.1 36,260.1 36,486 261.3,486 			"/>
			<polyline class="st5" points="261.3,261.2 261.3,36 36,36 36,261.2 261.3,261.2 			"/>
		</g>
	</g>
	<g>
		<defs>
			<polyline id="SVGID_3_" points="438.5,435.5 263.3,435.5 263.3,262.2 438.5,262.2 438.5,435.5 			"/>
		</defs>
		<use xlink:href="#SVGID_3_"  style="overflow:visible;fill:#B73536;"/>
		<clipPath id="SVGID_4_">
			<use xlink:href="#SVGID_3_"  style="overflow:visible;"/>
		</clipPath>
		<g class="st6">
			
				<image style="overflow:visible;enable-background:new    ;" width="369" height="365" xlink:href="83BC858F.jpg"  transform="matrix(0.4774 0 0 0.4774 262.74 261.74)">
			</image>
		</g>
		<rect x="262.7" y="434" class="st7" width="176.2" height="2"/>
		<use xlink:href="#SVGID_3_"  style="overflow:visible;fill:none;stroke:#B73536;stroke-miterlimit:10;"/>
	</g>
	<g>
		<defs>
			<polyline id="SVGID_5_" points="438.5,260.2 263.3,260.2 263.3,86.5 438.5,86.5 438.5,260.2 			"/>
		</defs>
		<use xlink:href="#SVGID_5_"  style="overflow:visible;fill:#007AC2;"/>
		<clipPath id="SVGID_6_">
			<use xlink:href="#SVGID_5_"  style="overflow:visible;"/>
		</clipPath>
		<g class="st8">
			
				<image style="overflow:visible;enable-background:new    ;" width="369" height="365" xlink:href="83BC858D.jpg"  transform="matrix(0.4774 0 0 0.4787 262.74 85.98)">
			</image>
		</g>
		<use xlink:href="#SVGID_5_"  style="overflow:visible;fill:none;stroke:#007AC2;stroke-miterlimit:10;"/>
	</g>
	<g>
		<defs>
			<polyline id="SVGID_7_" points="259.3,435.5 84.1,435.5 84.1,262.2 259.3,262.2 259.3,435.5 			"/>
		</defs>
		<use xlink:href="#SVGID_7_"  style="overflow:visible;fill:#006351;"/>
		<clipPath id="SVGID_8_">
			<use xlink:href="#SVGID_7_"  style="overflow:visible;"/>
		</clipPath>
		<g class="st9">
			
				<image style="overflow:visible;enable-background:new    ;" width="369" height="365" xlink:href="83BC8593.jpg"  transform="matrix(0.4774 0 0 0.4774 83.54 261.74)">
			</image>
		</g>
		<rect x="81.7" y="434" class="st10" width="179.7" height="3.3"/>
		<rect x="82.5" y="260.7" class="st10" width="1" height="175.3"/>
		<use xlink:href="#SVGID_7_"  style="overflow:visible;fill:none;stroke:#006351;stroke-miterlimit:10;"/>
	</g>
	<g>
		<defs>
			<polyline id="SVGID_9_" points="258.3,260.2 258.3,260.2 83.1,260.2 83.1,86.5 258.3,86.5 258.3,260.2 			"/>
		</defs>
		<use xlink:href="#SVGID_9_"  style="overflow:visible;fill:#342A7A;"/>
		<clipPath id="SVGID_10_">
			<use xlink:href="#SVGID_9_"  style="overflow:visible;"/>
		</clipPath>
		<g class="st11">
			
				<image style="overflow:visible;enable-background:new    ;" width="369" height="365" xlink:href="83BC8595.jpg"  transform="matrix(0.4774 0 0 0.4787 82.54 85.98)">
			</image>
		</g>
		<use xlink:href="#SVGID_9_"  style="overflow:visible;fill:none;stroke:#342A7A;stroke-miterlimit:10;"/>
	</g>
	<polygon class="st0" points="320.5,203.2 320.5,102.4 202,102.4 202,202.6 101.1,202.6 101.1,320.9 202.7,320.9 202.7,419.9 
		319.5,419.9 319.5,321.3 421.6,321.3 421.6,203.2 320.5,203.2 	"/>
	<rect x="219.1" y="219.4" class="st12" width="85.4" height="85.4"/>
	<rect x="219.1" y="219.4" class="st12" width="85.4" height="85.4"/>
	<g>
		<defs>
			<rect id="SVGID_11_" x="219.1" y="219.4" width="85.4" height="85.4"/>
		</defs>
		<clipPath id="SVGID_12_">
			<use xlink:href="#SVGID_11_"  style="overflow:visible;"/>
		</clipPath>
		<g class="st13">
			<rect x="217.1" y="217.3" class="st12" width="42.5" height="45.3"/>
			<rect x="264.6" y="217.3" class="st12" width="42.5" height="45.3"/>
			<rect x="217.1" y="264.5" class="st12" width="42.5" height="45.3"/>
			<rect x="264.6" y="264.5" class="st12" width="42.5" height="45.3"/>
		</g>
	</g>
	<path class="st14" d="M261.6,308.8v-89.9 M216.8,262h89.9"/>
	<path class="st0" d="M224.1,262c0-20.7,16.8-37.5,37.5-37.5c20.7,0,37.5,16.8,37.5,37.5c0,20.7-16.8,37.5-37.5,37.5l0,0
		C240.9,299.5,224.1,282.7,224.1,262"/>
	<path class="st15" d="M237.9,285.2c-0.3-0.2-0.6-0.4-0.8-0.7c-0.6-0.7-0.5-1.7,0.1-2.2c0,0,0.1-0.1,0.1-0.1c0.6-0.6,1.6-0.6,2.3,0
		c0,0,0.1,0.1,0.1,0.1c0.3,0.3,0.4,0.6,0.5,1l0.7-0.5c-0.1-0.4-0.3-0.7-0.6-1c-0.7-1.1-2.2-1.4-3.3-0.7c-0.1,0.1-0.3,0.2-0.4,0.3
		c-1.3,1-1.1,2.4-0.1,3.6c0.2,0.3,0.5,0.5,0.8,0.7L237.9,285.2z"/>
	<path class="st15" d="M241.6,286.6c0.5-0.7,1.4-1.1,2.1-0.6c0.6,0.6,0.6,1.5,0.1,2.1c0,0-0.1,0.1-0.1,0.1c-0.5,0.7-1.3,1.2-2.1,0.6
		S241,287.3,241.6,286.6 M240.8,286c-0.7,1.1-0.5,2.6,0.6,3.3c1.1,0.7,2.6,0.5,3.3-0.6c0.7-1,0.5-2.5-0.5-3.2
		c-0.9-0.8-2.4-0.7-3.2,0.3C240.9,285.8,240.8,285.9,240.8,286"/>
	<polygon class="st15" points="246,292.6 246.8,293 248.4,289.3 248.4,289.3 248,293.5 248.9,293.9 251.7,290.8 251.7,290.8 
		250.1,294.4 250.9,294.8 252.9,290.4 251.4,289.8 248.9,292.6 248.9,292.6 249.3,288.8 247.9,288.2 	"/>
	<polygon class="st15" points="254.7,295.8 255.6,296 256.2,292 256.2,292 256.9,296.1 257.8,296.3 259.7,292.5 259.7,292.5 
		259.1,296.5 260.1,296.6 260.7,291.8 259.2,291.6 257.5,295 257.5,295 256.9,291.3 255.4,291 	"/>
	<path class="st15" d="M263.6,294.8c0.2,1.3,1,1.7,2.2,1.6s1.9-0.8,1.7-2l-0.4-3.1l-1,0.1l0.3,2.8c0.1,0.8-0.1,1.4-0.8,1.5
		s-1.1-0.4-1.2-1.2l-0.3-2.8l-1,0.1L263.6,294.8z"/>
	<polygon class="st15" points="271.1,295.4 271.9,295.1 270.8,291.7 270.8,291.7 273.7,294.5 274.8,294.2 273.3,289.6 272.5,289.9 
		273.6,293.3 273.6,293.3 270.7,290.4 269.6,290.8 	"/>
	<rect x="276.5" y="288" transform="matrix(0.883 -0.4693 0.4693 0.883 -103.9046 163.9741)" class="st15" width="1" height="4.8"/>
	<polygon class="st15" points="281.9,290.2 282.7,289.6 280.3,286.4 281.4,285.5 281,284.9 278,287.1 278.4,287.7 279.5,286.9 	"/>
	<polygon class="st15" points="286.8,285.9 287.5,285.2 286.1,283.9 285.1,280.7 284.5,281.4 285.1,283.6 282.9,283.1 282.1,283.9 
		285.5,284.6 	"/>
	<polygon class="st15" points="234.3,273.7 234,272.8 232,273.4 231.4,271.6 233.4,270.9 233.1,270 228.5,271.5 228.8,272.4 
		230.7,271.8 231.3,273.6 229.4,274.2 229.7,275.1 	"/>
	<path class="st15" d="M230,266.8c-0.9,0.1-1.8-0.2-1.8-1.2s0.8-1.4,1.6-1.5s1.8,0.2,1.9,1.2S230.9,266.7,230,266.8 M230.1,267.8
		c1.3-0.2,2.2-1.4,2-2.7c-0.2-1.3-1.4-2.2-2.7-2c-1.3,0.2-2.2,1.3-2,2.6c0,1.2,1.1,2.2,2.3,2.2C229.9,267.8,230,267.8,230.1,267.8"
		/>
	<polygon class="st15" points="232.2,260.4 232.6,257.6 231.8,257.5 231.6,259.4 227.6,258.9 227.4,259.9 	"/>
	<polygon class="st15" points="233,255.6 233.7,252.9 233,252.7 232.5,254.5 228.6,253.4 228.3,254.4 	"/>
	<path class="st15" d="M234.2,251.3l0.4-0.9l-0.8-0.9l0.9-1.8l1.2,0.1l0.5-1l-5.2-0.4l-0.5,1L234.2,251.3z M233.9,247.7l-0.6,1.3
		l-1.5-1.5l0,0L233.9,247.7z"/>
	<polygon class="st15" points="237.6,245.2 238.2,244.4 235.4,242.2 235.4,242.2 239.4,243 240.1,242.1 236.4,239.1 235.8,239.8 
		238.6,242 238.6,242.1 234.6,241.2 233.9,242.1 	"/>
	<path class="st15" d="M240.2,236.5l0.4-0.3c0.7-0.6,1.8-0.5,2.3,0.2c0.6,0.7,0.5,1.8-0.2,2.3l-0.4,0.3L240.2,236.5z M242,240.3
		l1-0.8c1.1-0.9,1.9-2.1,0.6-3.6s-2.5-1.1-3.7-0.1l-1,0.8L242,240.3z"/>
	<path class="st15" d="M249.8,235.1l0.9-0.3v-1.2l1.9-0.6l0.8,0.9l1-0.4l-3.4-3.9l-1,0.4L249.8,235.1z M252.1,232.3l-1.3,0.5v-2.1
		l0,0L252.1,232.3z"/>
	<path class="st15" d="M256.4,233l1-0.1l-0.3-2h0.3c0.4-0.1,0.5,0.1,0.7,0.4l0.8,1.4l1.1-0.1l-1-1.8c-0.1-0.2-0.3-0.4-0.6-0.4l0,0
		c0.6-0.1,0.9-0.7,0.8-1.3c-0.2-1.3-1.4-1.1-2.4-1l-1,0.1L256.4,233z M256.8,228.8h0.3c0.5-0.1,1-0.1,1.1,0.5s-0.5,0.7-0.9,0.8H257
		L256.8,228.8z"/>
	<polygon class="st15" points="262.2,232.5 265,232.6 265.1,231.8 263.2,231.8 263.2,230.4 265,230.5 265,229.7 263.3,229.7 
		263.3,228.5 265.2,228.5 265.2,227.8 262.4,227.7 	"/>
	<path class="st15" d="M267.1,232.9l1,0.2l0.7-1l1.9,0.5l0.1,1.2l1,0.3l-0.7-5.1l-1.1-0.3L267.1,232.9z M270.5,231.8l-1.4-0.3
		l1.2-1.8l0,0L270.5,231.8z"/>
	<path class="st15" d="M280.2,237.4c-0.4-0.1-0.7-0.2-1-0.4c-0.8-0.4-1-1.4-0.6-2.2c0-0.1,0.1-0.1,0.1-0.2c0.4-0.8,1.4-1.1,2.2-0.7
		c0,0,0.1,0,0.1,0.1c0.3,0.2,0.6,0.4,0.8,0.8l0.5-0.6c-0.2-0.3-0.5-0.5-0.8-0.8c-1-0.8-2.5-0.6-3.4,0.4c-0.1,0.1-0.2,0.3-0.3,0.4
		c-0.9,1.4-0.4,2.6,1,3.4c0.3,0.2,0.7,0.3,1,0.4L280.2,237.4z"/>
	<path class="st15" d="M281.2,239.2l0.7,0.7l1.1-0.5l1.4,1.4l-0.5,1.1l0.8,0.8l2-4.8l-0.8-0.8L281.2,239.2z M284.7,240.1l-1-1
		l1.9-0.9l0,0L284.7,240.1z"/>
	<polygon class="st15" points="286.1,244.6 286.7,245.4 290,243 290.8,244.1 291.4,243.6 289.2,240.6 288.6,241.1 289.4,242.2 	"/>
	<polygon class="st15" points="288.6,248.3 289,249.2 290.9,248.3 291.7,250.1 289.8,251 290.2,251.9 294.6,249.8 294.2,248.9 
		292.4,249.8 291.6,248 293.4,247.2 293,246.3 	"/>
	<path class="st15" d="M293.6,254.7c0.8-0.2,1.8,0.1,2,1c0.2,0.9-0.6,1.5-1.4,1.7s-1.8,0-2-1S292.7,254.9,293.6,254.7 M293.4,253.7
		c-1.3,0.3-2,1.6-1.7,2.9c0.3,1.3,1.6,2,2.9,1.7c1.2-0.3,2-1.5,1.8-2.8c-0.2-1.2-1.3-2.1-2.5-1.9
		C293.6,253.7,293.5,253.7,293.4,253.7"/>
	<polygon class="st15" points="292,261.2 292.1,264.1 292.9,264.1 292.8,262.2 296.9,262.1 296.9,261.1 	"/>
	
		<rect x="293.7" y="264.5" transform="matrix(0.1383 -0.9904 0.9904 0.1383 -10.8322 521.278)" class="st15" width="1" height="4.8"/>
	<g>
		<defs>
			<rect id="SVGID_13_" x="116.5" y="115.8" width="289.7" height="293.3"/>
		</defs>
		<clipPath id="SVGID_14_">
			<use xlink:href="#SVGID_13_"  style="overflow:visible;"/>
		</clipPath>
		<g class="st16">
			<path class="st15" d="M291.1,273.1c0-0.4,0-0.7,0.1-1.1c0.2-0.8,1.1-1.3,2-1.1c0.1,0,0.1,0,0.2,0.1c0.9,0.2,1.4,1,1.2,1.9
				c0,0.1,0,0.1,0,0.2c-0.1,0.4-0.3,0.7-0.5,0.9l0.8,0.3c0.2-0.3,0.4-0.6,0.5-1c0.5-1.2,0-2.6-1.2-3.1c-0.1-0.1-0.3-0.1-0.5-0.1
				c-1.6-0.5-2.6,0.3-3.1,1.8c-0.1,0.4-0.2,0.7-0.2,1.1L291.1,273.1z"/>
			<rect x="321.3" y="219.6" class="st3" width="85.4" height="85.4"/>
		</g>
	</g>
	<path class="st0" d="M356.6,251.1c1.3-1.7,2.9-1.6,4.7,0.3C359.8,252.3,357.9,252.2,356.6,251.1"/>
	<path class="st0" d="M357.2,247c0.4-2.5,2.4-4.5,5.9-5.9c1.8,2.4,4,4.5,6.4,6.2c1.3,1,2,2.6,2,4.2c0.4,5.3-0.4,9.1-2.2,11.3
		c-1.9,1.8-4.1,3-6.5,3.7l-0.2-15.3C363,249,361.2,247.5,357.2,247 M365.5,251.7c1.2,1,3,0.9,4.2-0.2L365.5,251.7z"/>
	<path class="st0" d="M355.5,252.6l6.1,0.8l-0.2,8.9C357.6,260.7,355.2,256.8,355.5,252.6"/>
	<path class="st0" d="M350.2,247.2c2.7-2.7,5.9-4.8,9.5-6.2c3.4-1,5.4-2.8,6-5.4C359.7,233.1,353.5,237.2,350.2,247.2"/>
	<path class="st0" d="M364.9,240.5c1.1-2.8,1.9-4,2.8-3.4c3.2,1.8,5.2,5.1,6.1,10.1C370,246.2,366.8,243.8,364.9,240.5"/>
	<path class="st0" d="M349.5,251.7l4.2-3.3l0.5,7.9l2.2,7.2c-3.6,0-5.9-2.5-7.1-7.5L349.5,251.7z"/>
	<path class="st0" d="M373.4,251.7c0.8,0.8,1,2.8,0.6,6.1h-1.4l-0.4-1.5C372.3,253.9,372.8,252.4,373.4,251.7"/>
	<path class="st0" d="M370.9,268.2l2-6.5c0.7-1.5,1.3-1.4,1.7,0.3c2.7,8.9,6.5,17.4,11.3,25.4c1.5,2,1.3,2.7-0.8,2
		c-3.9-0.7-7.7-2.2-11.1-4.3C372.2,279.6,371.1,274,370.9,268.2"/>
	<path class="st0" d="M347.4,260.7c7.9,8.2,15,12.4,21.2,12.5l1.4,9.5c-8-2.6-15.3-6.9-21.5-12.6L347.4,260.7z"/>
	<path class="st0" d="M343.7,273.4l2.2-3.4c8.4,7.8,17.1,13.1,26,15.9l-0.3,2.7l-11.1,4.3l-7.8-5.6L343.7,273.4z"/>
	<path class="st0" d="M342.3,275.2c3.2,7,7.4,13.5,12.5,19.3l-3.1,1.5l-10.9-2.2l-7.6-3.7l-0.2-2.5
		C335.1,280.8,338.3,276.7,342.3,275.2"/>
	<path class="st0" d="M329.8,292.7l11.5,5.3c-3.5,3.5-8.3,5.2-14.4,5C327.2,297.9,328.1,294.5,329.8,292.7"/>
	<path class="st0" d="M376.7,289.4c5.4,3,11.2,5.2,17.1,6.7c3.7,2,6.6,5.1,8.2,8.9h-10.9c-4.9-0.7-8.7-2.3-11.4-5L376.7,289.4z"/>
	<path class="st0" d="M332.9,304.9c23-8.3,36.4-13.4,40-15.5l0.3,3.6c-7,3.7-17.6,7.7-31.8,12L332.9,304.9z"/>
	<path class="st0" d="M345.7,227.4l6.1-3.9l4.3,8.4c-1.7,0.5-3.2,1.5-4.2,3L345.7,227.4z"/>
	<path class="st0" d="M355.8,222.9l1.9,8.2l5.3-0.5l1.7-9.3C359.1,220.7,356.2,221.2,355.8,222.9"/>
	<path class="st0" d="M366.9,221.8l-1.1,8.7l3.1,0.9l3.1-8.7C369.9,221.3,368.1,220.9,366.9,221.8"/>
	<path class="st0" d="M370.9,232.2l3.7-7.6c4.3,1.8,7.8,5.1,9.8,9.3l-8,5C374.7,235.3,372.8,233.1,370.9,232.2"/>
	<polygon class="st0" points="377.5,240.6 386.8,236.9 388.4,242.4 377.3,243.3 	"/>
	<polygon class="st0" points="379,244.9 389.1,245 388.4,250.6 378.1,249.1 	"/>
	<path class="st0" d="M379.6,252.5h7.6l-1.9,3.3C381.6,255.1,379.7,254,379.6,252.5"/>
	<path class="st0" d="M379.8,255.8l4.5,1.5c-0.6,1.8-1.7,3.3-3.1,4.5L379.8,255.8z"/>
	<path class="st0" d="M342.9,229.8l7.6,6.7c-1.8,1.8-3.1,4.1-3.7,6.5l-8.1-1.3C339.2,236.7,340.6,232.7,342.9,229.8"/>
	<path class="st0" d="M338.9,244.2c2.5-0.2,4.9,0,7.3,0.6v4.4l-7.2,0.3C338.3,247,338.3,245.3,338.9,244.2"/>
	<path class="st0" d="M340.5,252.3c1.3,3.5,3,5.5,5,6.2l0.5-8L340.5,252.3z"/>
	<path class="st0" d="M333.4,236l3.4,1.2c-2.1,11.7,0.9,20.1,9.1,25l-1.7,4.3C333.9,258.8,330.3,248.6,333.4,236"/>
	<path class="st0" d="M338.7,232.9c1.9-5.1,7-9.4,15.4-13.1l-6.5-0.3c-6.4,3.8-10.4,7.8-11.8,12L338.7,232.9z"/>
	<path class="st0" d="M379.5,219.8l-1.2,2.5c6.4,6.3,10.4,12.5,12,18.8l3.1-0.2C391.5,231.7,386.9,224.6,379.5,219.8"/>
	<path class="st0" d="M390.9,243.3l2.6-0.1c0,10.9-3.2,18.2-9.7,22l-1.9-2.7C388.2,256.4,391.2,250,390.9,243.3"/>
	<path class="st15" d="M312.8,220.3c0.6,0,1.3,0.3,1.3,0.9s-0.6,0.9-1.3,0.9s-1.3-0.2-1.3-0.9S312.2,220.3,312.8,220.3 M312.8,219.6
		c-1.1,0-1.8,0.5-1.8,1.6s0.8,1.6,1.8,1.6s1.8-0.6,1.8-1.6S313.9,219.6,312.8,219.6"/>
	<path class="st15" d="M312.3,223.9c-0.7,0-1.3,0.6-1.3,1.3c0,0.7,0.6,1.3,1.3,1.3h2.2v-0.6h-2c-0.6,0-1-0.2-1-0.7s0.4-0.7,1-0.7h2
		v-0.6L312.3,223.9z"/>
	<path class="st15" d="M311.1,227.9v0.6h1.5v0.2c0,0.3-0.1,0.4-0.4,0.4l-1.1,0.4v0.7l1.4-0.5c0.1-0.1,0.4-0.2,0.4-0.3l0,0
		c0.1,0.4,0.4,0.7,0.8,0.6c1,0,1-0.8,1-1.5v-0.7L311.1,227.9z M314.1,228.5v0.2c0,0.3,0,0.7-0.5,0.7s-0.5-0.4-0.5-0.7v-0.2H314.1z"
		/>
	<polygon class="st15" points="311.1,233.3 311.1,235.1 311.6,235.1 311.6,233.9 314.6,233.9 314.6,233.3 	"/>
	<path class="st15" d="M311.1,235.9v0.7l0.8,0.3v1.3l-0.8,0.3v0.7l3.5-1.2v-0.7L311.1,235.9z M312.4,237.9V237l1.5,0.5l0,0
		L312.4,237.9z"/>
	<path class="st15" d="M314,240.8v0.4c-0.1,0.7-0.7,1.1-1.4,1c-0.5-0.1-1-0.5-1-1v-0.4H314z M311,240.1v0.9c0,1,0.4,1.8,1.8,1.8
		s1.8-0.9,1.8-1.8v-0.9L311,240.1z"/>
	<polygon class="st15" points="311.1,244.9 311.1,245.6 312.5,245.6 314.6,246.7 314.6,246 313.1,245.3 314.6,244.5 314.6,243.8 
		312.5,244.9 	"/>
	<path class="st15" d="M312.8,250.2c0.6,0,1.3,0.3,1.3,0.9s-0.6,0.9-1.3,0.9s-1.3-0.2-1.3-0.9S312.2,250.2,312.8,250.2 M312.8,249.6
		c-1.1,0-1.8,0.5-1.8,1.6s0.8,1.6,1.8,1.6s1.8-0.6,1.8-1.6S313.9,249.6,312.8,249.6"/>
	<polygon class="st15" points="311.1,253.9 311.1,254.5 312.6,254.5 312.6,255.6 313.2,255.6 313.2,254.5 314,254.5 314,255.7 
		314.6,255.7 314.6,253.9 	"/>
	<polygon class="st15" points="311.1,259.4 311.1,260 314,260 314,260.9 314.6,260.9 314.6,258.4 314,258.4 314,259.4 	"/>
	<polygon class="st15" points="311.1,262 311.1,262.6 312.6,262.6 312.6,263.9 311.1,263.9 311.1,264.5 314.6,264.5 314.6,263.9 
		313.2,263.9 313.2,262.6 314.6,262.6 314.6,262 	"/>
	<polygon class="st15" points="311.1,265.9 311.1,267.8 311.6,267.8 311.6,266.5 312.6,266.5 312.6,267.7 313.2,267.7 313.2,266.5 
		314,266.5 314,267.8 314.6,267.8 314.6,265.9 	"/>
	<polygon class="st15" points="311.1,271 311.1,272.9 311.6,272.9 311.6,271.7 314.6,271.7 314.6,271 	"/>
	<path class="st15" d="M311.1,273.6v0.7l0.8,0.3v1.3l-0.8,0.3v0.7l3.5-1.2v-0.7L311.1,273.6z M312.4,275.6v-0.9l1.5,0.5l0,0
		L312.4,275.6z"/>
	<polygon class="st15" points="311.1,277.9 311.1,278.5 312.7,278.5 312.7,278.5 311.1,279.7 311.1,280.5 312.9,279.2 314.6,280.5 
		314.6,279.7 313.1,278.5 314.6,278.5 314.6,277.9 	"/>
	<polygon class="st15" points="311.1,281.6 311.1,283.5 311.6,283.5 311.6,282.2 312.6,282.2 312.6,283.4 313.2,283.4 313.2,282.2 
		314,282.2 314,283.5 314.6,283.5 314.6,281.6 	"/>
	<path class="st15" d="M311.1,286.7v0.6h1.3v0.3c0,0.7,0.3,1.2,1.1,1.2s1.1-0.6,1.1-1.3v-0.8L311.1,286.7z M314.1,287.3v0.2
		c0,0.3-0.1,0.6-0.5,0.6s-0.5-0.3-0.5-0.6v-0.2H314.1z"/>
	<path class="st15" d="M311.1,289.2v0.7l0.8,0.3v1.3l-0.8,0.3v0.7l3.5-1.2v-0.7L311.1,289.2z M312.4,291.2v-0.9l1.5,0.5l0,0
		L312.4,291.2z"/>
	<path class="st15" d="M311.1,293.5v0.6h1.5v0.2c0,0.3-0.1,0.4-0.4,0.4l-1.1,0.4v0.7l1.4-0.5c0.1-0.1,0.4-0.2,0.4-0.3l0,0
		c0.1,0.4,0.4,0.7,0.8,0.6c1,0,1-0.8,1-1.5v-0.7H311.1z M314.1,294.1v0.2c0,0.3,0,0.7-0.5,0.7s-0.5-0.4-0.5-0.7v-0.2H314.1z"/>
	<rect x="311.1" y="296.9" class="st15" width="3.5" height="0.6"/>
	<path class="st15" d="M314.5,300.6c0.1-0.2,0.1-0.5,0.1-0.8c0.1-0.5-0.3-1-0.9-1.1c-0.1,0-0.1,0-0.2,0c-1.2,0-0.9,1.4-1.5,1.4
		c-0.3,0-0.5-0.3-0.5-0.6c0-0.3,0.1-0.5,0.2-0.7l-0.6-0.1c-0.1,0.3-0.1,0.5-0.1,0.8c0,0.6,0.3,1.2,1.1,1.2c1.2,0,0.9-1.4,1.5-1.4
		c0.3,0,0.5,0.2,0.5,0.4c0,0,0,0,0,0.1c0,0.2-0.1,0.4-0.1,0.6L314.5,300.6z"/>
	<polygon class="st15" points="311.1,302.1 311.1,302.7 312.6,302.7 312.6,304 311.1,304 311.1,304.6 314.6,304.6 314.6,304 
		313.2,304 313.2,302.7 314.6,302.7 314.6,302.1 	"/>
	<path class="st15" d="M209,303.4c-0.1,0.2-0.1,0.5-0.1,0.8c-0.1,0.5,0.3,1,0.9,1.1c0.1,0,0.1,0,0.2,0c1.2,0,0.9-1.4,1.6-1.4
		c0.3,0,0.4,0.3,0.4,0.6c0,0.3-0.1,0.5-0.2,0.7l0.6,0.1c0.1-0.3,0.1-0.5,0.1-0.8c0-0.6-0.3-1.2-1.1-1.2c-1.2,0-0.9,1.4-1.5,1.4
		c-0.3,0-0.5-0.2-0.5-0.4c0,0,0,0,0-0.1c0-0.2,0.1-0.4,0.1-0.6L209,303.4z"/>
	<polygon class="st15" points="212.4,301.2 212.4,300.5 209.5,300.5 209.5,299.6 208.9,299.6 208.9,302.1 209.5,302.1 209.5,301.2 	
		"/>
	<rect x="211.7" y="298.3" class="st15" width="0.7" height="0.6"/>
	<polygon class="st15" points="212.4,294.6 212.4,294 210.9,294 210.9,292.9 210.3,292.9 210.3,294 209.5,294 209.5,292.9 
		208.9,292.9 208.9,294.6 	"/>
	<path class="st15" d="M212.4,291.5v-0.6H211v-0.2c0-0.3,0.1-0.4,0.4-0.4l1.1-0.4v-0.7l-1.4,0.5c-0.2,0.1-0.4,0.2-0.4,0.3l0,0
		c-0.1-0.4-0.4-0.7-0.8-0.6c-1,0-0.9,0.8-0.9,1.5v0.7L212.4,291.5z M209.4,290.9v-0.2c0-0.3,0-0.7,0.5-0.7s0.5,0.4,0.5,0.7v0.2
		H209.4z"/>
	<path class="st15" d="M212.4,288.2v-0.7l-0.8-0.3V286l0.8-0.3V285l-3.5,1.2v0.8L212.4,288.2z M211.1,286.2v0.9l-1.4-0.5l0,0
		L211.1,286.2z"/>
	<polygon class="st15" points="212.4,283.8 212.4,283.1 209.8,283.1 209.8,283.1 212.4,281.9 212.4,281.2 208.9,281.2 208.9,281.8 
		211.5,281.8 211.5,281.8 208.9,283 208.9,283.8 	"/>
	<path class="st15" d="M211.8,277.3c0.1,0.2,0.2,0.5,0.1,0.7c0,0.6-0.5,1.1-1.1,1.1c0,0-0.1,0-0.1,0c-0.7,0-1.3-0.4-1.3-1.1
		c0-0.2,0.1-0.5,0.2-0.7H209c-0.1,0.2-0.1,0.5-0.1,0.7c0,0.9,0.7,1.7,1.6,1.7c0.1,0,0.2,0,0.3,0c0.9,0.1,1.7-0.5,1.7-1.4
		c0-0.1,0-0.2,0-0.3c0-0.2,0-0.5-0.1-0.7L211.8,277.3z"/>
	<rect x="208.9" y="275.4" class="st15" width="3.5" height="0.6"/>
	<path class="st15" d="M209,272.1c-0.1,0.2-0.1,0.5-0.1,0.8c-0.1,0.5,0.3,1,0.9,1.1c0.1,0,0.1,0,0.2,0c1.2,0,0.9-1.4,1.6-1.4
		c0.3,0,0.4,0.3,0.4,0.6c0,0.3-0.1,0.5-0.2,0.7l0.6,0.1c0.1-0.3,0.1-0.5,0.1-0.8c0-0.6-0.3-1.2-1.1-1.2c-1.2,0-0.9,1.4-1.5,1.4
		c-0.3,0-0.5-0.2-0.5-0.4c0,0,0,0,0-0.1c0-0.2,0.1-0.4,0.1-0.6L209,272.1z"/>
	<path class="st15" d="M209.5,267.7v-0.4c0.1-0.7,0.7-1.1,1.4-1c0.5,0.1,1,0.5,1,1v0.4H209.5z M212.5,268.3v-0.9
		c0-1-0.4-1.8-1.8-1.8s-1.8,0.9-1.8,1.8v0.9H212.5z"/>
	<polygon class="st15" points="212.4,264.2 212.4,262.3 211.9,262.3 211.9,263.6 210.9,263.6 210.9,262.4 210.3,262.4 210.3,263.6 
		209.5,263.6 209.5,262.3 208.9,262.3 208.9,264.2 	"/>
	<path class="st15" d="M209,256.9c-0.1,0.2-0.1,0.5-0.1,0.8c-0.1,0.5,0.3,1,0.9,1.1c0.1,0,0.1,0,0.2,0c1.2,0,0.9-1.4,1.6-1.4
		c0.3,0,0.4,0.3,0.4,0.6c0,0.3-0.1,0.5-0.2,0.7l0.6,0.1c0.1-0.3,0.1-0.5,0.1-0.8c0-0.6-0.3-1.2-1.1-1.2c-1.2,0-0.9,1.4-1.5,1.4
		c-0.3,0-0.5-0.2-0.5-0.4c0,0,0,0,0-0.1c0-0.2,0.1-0.4,0.1-0.6L209,256.9z"/>
	<path class="st15" d="M212.4,255.6V255l-0.8-0.3v-1.3l0.8-0.3v-0.7l-3.5,1.2v0.7L212.4,255.6z M211.1,253.6v0.9l-1.4-0.5l0,0
		L211.1,253.6z"/>
	<polygon class="st15" points="212.4,251.2 212.4,249.3 211.9,249.3 211.9,250.5 208.9,250.5 208.9,251.2 	"/>
	<polygon class="st15" points="212.4,248 212.4,246.2 211.9,246.2 211.9,247.4 210.9,247.4 210.9,246.3 210.3,246.3 210.3,247.4 
		209.5,247.4 209.5,246.2 208.9,246.2 208.9,248 	"/>
	<path class="st15" d="M209,242.9c-0.1,0.2-0.1,0.5-0.1,0.8c-0.1,0.5,0.3,1,0.9,1.1c0.1,0,0.1,0,0.2,0c1.2,0,0.9-1.4,1.6-1.4
		c0.3,0,0.4,0.3,0.4,0.6c0,0.3-0.1,0.5-0.2,0.7l0.6,0.1c0.1-0.3,0.1-0.5,0.1-0.8c0-0.6-0.3-1.2-1.1-1.2c-1.2,0-0.9,1.4-1.5,1.4
		c-0.3,0-0.5-0.2-0.5-0.4c0,0,0,0,0-0.1c0-0.2,0.1-0.4,0.1-0.6L209,242.9z"/>
	<path class="st15" d="M212.4,239.2v-0.6h-1.3v-0.3c0-0.7-0.3-1.2-1.1-1.2s-1.1,0.6-1.1,1.3v0.8H212.4z M209.4,238.6v-0.2
		c0-0.3,0.1-0.6,0.6-0.6s0.5,0.3,0.5,0.6v0.2H209.4z"/>
	<path class="st15" d="M212.4,236.4v-0.7l-0.8-0.3v-1.3l0.8-0.3v-0.7l-3.5,1.2v0.7L212.4,236.4z M211.1,234.4v0.9l-1.4-0.5l0,0
		L211.1,234.4z"/>
	<path class="st15" d="M212.4,232v-0.6H211v-0.2c0-0.3,0.1-0.4,0.4-0.4l1.1-0.4v-0.7l-1.4,0.5c-0.2,0.1-0.4,0.2-0.4,0.3l0,0
		c-0.1-0.4-0.4-0.7-0.8-0.6c-1,0-0.9,0.8-0.9,1.5v0.7H212.4z M209.4,231.4v-0.2c0-0.3,0-0.7,0.5-0.7s0.5,0.4,0.5,0.7v0.2H209.4z"/>
	<rect x="208.9" y="227.8" class="st15" width="3.5" height="0.6"/>
	<path class="st15" d="M209,224.5c-0.1,0.2-0.1,0.5-0.1,0.8c-0.1,0.5,0.3,1,0.9,1.1c0.1,0,0.1,0,0.2,0c1.2,0,0.9-1.4,1.6-1.4
		c0.3,0,0.4,0.3,0.4,0.6c0,0.3-0.1,0.5-0.2,0.7l0.6,0.1c0.1-0.3,0.1-0.5,0.1-0.8c0-0.6-0.3-1.2-1.1-1.2c-1.2,0-0.9,1.4-1.5,1.4
		c-0.3,0-0.5-0.2-0.5-0.4c0,0,0,0,0-0.1c0-0.2,0.1-0.4,0.1-0.6L209,224.5z"/>
	<polygon class="st15" points="212.4,222.8 212.4,222.2 210.9,222.2 210.9,220.9 212.4,220.9 212.4,220.3 208.9,220.3 208.9,220.9 
		210.3,220.9 210.3,222.2 208.9,222.2 208.9,222.8 	"/>
	<path class="st15" d="M221.3,212.1c-0.2,0.1-0.5,0.2-0.7,0.1c-0.6,0-1.1-0.5-1.1-1.1c0,0,0-0.1,0-0.1c-0.1-0.6,0.3-1.2,1-1.3
		c0,0,0.1,0,0.1,0c0.2,0,0.5,0.1,0.7,0.2v-0.6c-0.2-0.1-0.5-0.1-0.7-0.1c-0.9-0.1-1.7,0.6-1.7,1.6c0,0.1,0,0.2,0,0.3
		c-0.1,0.9,0.5,1.7,1.4,1.7c0.1,0,0.2,0,0.3,0c0.2,0,0.5,0,0.7-0.1L221.3,212.1z"/>
	<path class="st15" d="M222.6,211c0-0.6,0.3-1.3,0.9-1.3s0.9,0.6,0.9,1.3s-0.2,1.3-0.9,1.3S222.6,211.6,222.6,211 M222,211
		c0,1.1,0.5,1.8,1.5,1.8s1.5-0.8,1.5-1.8s-0.6-1.8-1.5-1.8S222,209.9,222,211"/>
	<path class="st15" d="M226,212.8h0.6v-1.4h0.2c0.3,0,0.4,0.1,0.4,0.4l0.4,1.1h0.7l-0.5-1.4c-0.1-0.1-0.2-0.4-0.3-0.4l0,0
		c0.4-0.1,0.7-0.4,0.6-0.8c0-1-0.8-0.9-1.5-0.9H226V212.8z M226.6,209.8h0.2c0.3,0,0.7,0,0.7,0.5s-0.4,0.5-0.7,0.5h-0.2V209.8z"/>
	<path class="st15" d="M229.1,212.8h0.6v-1.3h0.3c0.7,0,1.2-0.3,1.2-1.1s-0.6-1.1-1.3-1.1h-0.8L229.1,212.8z M229.8,209.8h0.3
		c0.3,0,0.6,0.1,0.6,0.6s-0.3,0.5-0.6,0.5h-0.2L229.8,209.8z"/>
	<path class="st15" d="M232,211.5c-0.1,0.7,0.5,1.3,1.2,1.4c0.7,0.1,1.3-0.5,1.4-1.2c0-0.1,0-0.2,0-0.2v-2.2H234v2
		c0,0.6-0.2,1-0.6,1s-0.6-0.4-0.6-1v-2H232V211.5z"/>
	<path class="st15" d="M237.5,209.3c-0.2-0.1-0.5-0.1-0.8-0.1c-0.5-0.1-1,0.3-1.1,0.9c0,0.1,0,0.1,0,0.2c0,1.2,1.4,0.9,1.4,1.6
		c0,0.3-0.3,0.4-0.6,0.4c-0.3,0-0.5-0.1-0.7-0.2l-0.1,0.6c0.3,0.1,0.5,0.1,0.8,0.1c0.6,0,1.2-0.3,1.2-1.1c0-1.2-1.4-0.9-1.4-1.5
		c0-0.3,0.2-0.5,0.4-0.5c0,0,0,0,0.1,0c0.2,0,0.4,0.1,0.6,0.1L237.5,209.3z"/>
	<path class="st15" d="M242.5,212.1c-0.2,0.1-0.5,0.2-0.7,0.1c-0.6,0-1.1-0.5-1.1-1.1c0,0,0-0.1,0-0.1c-0.1-0.6,0.3-1.2,1-1.3
		c0,0,0.1,0,0.1,0c0.2,0,0.5,0.1,0.7,0.2v-0.6c-0.2-0.1-0.5-0.1-0.7-0.1c-0.9-0.1-1.7,0.6-1.7,1.6c0,0.1,0,0.2,0,0.3
		c-0.1,0.9,0.5,1.7,1.4,1.7c0.1,0,0.2,0,0.3,0c0.2,0,0.5,0,0.7-0.1L242.5,212.1z"/>
	<polygon class="st15" points="243.4,212.8 244,212.8 244,211.2 245.3,211.2 245.3,212.8 245.9,212.8 245.9,209.3 245.3,209.3 
		245.3,210.7 244,210.7 244,209.3 243.4,209.3 	"/>
	<path class="st15" d="M247,212.8h0.6v-1.4h0.2c0.3,0,0.4,0.1,0.4,0.4l0.4,1.1h0.7l-0.5-1.4c-0.1-0.1-0.2-0.4-0.3-0.4l0,0
		c0.4-0.1,0.7-0.4,0.6-0.8c0-1-0.8-0.9-1.5-0.9H247V212.8z M247.6,209.8h0.2c0.3,0,0.7,0,0.7,0.5s-0.4,0.5-0.7,0.5h-0.2V209.8z"/>
	<rect x="250.1" y="209.3" class="st15" width="0.6" height="3.5"/>
	<path class="st15" d="M253.5,209.3c-0.2-0.1-0.5-0.1-0.8-0.1c-0.5-0.1-1,0.3-1.1,0.9c0,0.1,0,0.1,0,0.2c0,1.2,1.4,0.9,1.4,1.6
		c0,0.3-0.3,0.4-0.6,0.4c-0.3,0-0.5-0.1-0.7-0.2l-0.1,0.6c0.3,0.1,0.5,0.1,0.8,0.1c0.6,0,1.2-0.3,1.2-1.1c0-1.2-1.4-0.9-1.4-1.5
		c0-0.3,0.2-0.5,0.4-0.5c0,0,0,0,0.1,0c0.2,0,0.4,0.1,0.6,0.1L253.5,209.3z"/>
	<polygon class="st15" points="255.2,212.8 255.9,212.8 255.9,209.8 256.8,209.8 256.8,209.3 254.3,209.3 254.3,209.8 255.2,209.8 	
		"/>
	<rect x="257.5" y="209.3" class="st15" width="0.6" height="3.5"/>
	<path class="st15" d="M263.1,212.1c-0.2,0.1-0.5,0.2-0.7,0.1c-0.6,0-1.1-0.5-1.1-1.1c0,0,0-0.1,0-0.1c-0.1-0.6,0.4-1.2,1-1.3
		c0,0,0.1,0,0.1,0c0.2,0,0.5,0.1,0.7,0.2v-0.6c-0.2-0.1-0.5-0.1-0.7-0.1c-0.9-0.1-1.7,0.6-1.7,1.6c0,0.1,0,0.2,0,0.3
		c-0.1,0.9,0.5,1.7,1.4,1.7c0.1,0,0.2,0,0.3,0c0.2,0,0.5,0,0.7-0.1L263.1,212.1z"/>
	<path class="st15" d="M263.6,212.8h0.7l0.3-0.8h1.3l0.3,0.8h0.7l-1.2-3.5h-0.7L263.6,212.8z M265.6,211.4h-0.9l0.5-1.4l0,0
		L265.6,211.4z"/>
	<polygon class="st15" points="267.8,212.8 268.4,212.8 268.4,209.8 269.3,209.8 269.3,209.3 266.9,209.3 266.9,209.8 267.8,209.8 	
		"/>
	<polygon class="st15" points="270.1,212.8 270.8,212.8 270.8,211.2 272,211.2 272,212.8 272.6,212.8 272.6,209.3 272,209.3 
		272,210.7 270.8,210.7 270.8,209.3 270.1,209.3 	"/>
	<path class="st15" d="M274.3,211c0-0.6,0.3-1.3,0.9-1.3s0.9,0.6,0.9,1.3s-0.2,1.3-0.9,1.3S274.3,211.6,274.3,211 M273.6,211
		c0,1.1,0.5,1.8,1.5,1.8s1.5-0.8,1.5-1.8s-0.6-1.8-1.5-1.8S273.6,209.9,273.6,211"/>
	<polygon class="st15" points="277.7,212.8 279.5,212.8 279.5,212.2 278.3,212.2 278.3,209.3 277.7,209.3 	"/>
	<rect x="280.2" y="209.3" class="st15" width="0.6" height="3.5"/>
	<path class="st15" d="M284.2,212.1c-0.2,0.1-0.5,0.2-0.7,0.1c-0.6,0-1.1-0.5-1.1-1.1c0,0,0-0.1,0-0.1c-0.1-0.6,0.3-1.2,1-1.3
		c0,0,0.1,0,0.1,0c0.2,0,0.5,0.1,0.7,0.2v-0.6c-0.2-0.1-0.5-0.1-0.7-0.1c-0.9-0.1-1.7,0.6-1.7,1.6c0,0.1,0,0.2,0,0.3
		c-0.1,0.9,0.5,1.7,1.4,1.7c0.1,0,0.2,0,0.3,0c0.2,0,0.5,0,0.7-0.1L284.2,212.1z"/>
	<path class="st15" d="M289,212.1c-0.2,0.1-0.5,0.2-0.7,0.1c-0.6,0-1.1-0.5-1.1-1.1c0-0.1,0-0.1,0-0.2c-0.1-0.6,0.3-1.2,1-1.3
		c0,0,0.1,0,0.1,0c0.2,0,0.5,0.1,0.7,0.2v-0.6c-0.2-0.1-0.5-0.1-0.7-0.1c-0.9-0.1-1.7,0.6-1.7,1.6c0,0.1,0,0.2,0,0.3
		c-0.1,0.9,0.5,1.7,1.4,1.7c0.1,0,0.2,0,0.3,0c0.2,0,0.5,0,0.7-0.1L289,212.1z"/>
	<polygon class="st15" points="289.8,212.8 291.7,212.8 291.7,212.2 290.5,212.2 290.5,211.2 291.6,211.2 291.6,210.7 290.5,210.7 
		290.5,209.8 291.7,209.8 291.7,209.3 289.8,209.3 	"/>
	<polygon class="st15" points="292.7,212.8 293.3,212.8 293.3,210.1 293.3,210.1 294.5,212.8 295.3,212.8 295.3,209.3 294.7,209.3 
		294.7,211.9 294.7,211.9 293.5,209.3 292.7,209.3 	"/>
	<polygon class="st15" points="296.9,212.8 297.6,212.8 297.6,209.8 298.5,209.8 298.5,209.3 296,209.3 296,209.8 296.9,209.8 	"/>
	<polygon class="st15" points="299.3,212.8 301.1,212.8 301.1,212.2 299.9,212.2 299.9,211.2 301,211.2 301,210.7 299.9,210.7 
		299.9,209.8 301.1,209.8 301.1,209.3 299.3,209.3 	"/>
	<path class="st15" d="M302.1,212.8h0.6v-1.4h0.2c0.3,0,0.4,0.1,0.4,0.4l0.4,1.1h0.7l-0.5-1.4c-0.1-0.1-0.2-0.4-0.3-0.4l0,0
		c0.4-0.1,0.7-0.4,0.6-0.8c0-1-0.8-0.9-1.5-0.9h-0.7L302.1,212.8z M302.7,209.8h0.2c0.3,0,0.7,0,0.7,0.5s-0.4,0.5-0.7,0.5h-0.2
		V209.8z"/>
	<rect x="116.5" y="219.6" class="st4" width="85.4" height="85.4"/>
	<path class="st0" d="M155.1,228.2c-1-2.3-2.4-4.4-4.1-6.1c-4.9,4.5-7.8,8-9.7,12.9c0.9,1.2,2.3,1.9,3.8,1.9
		C150,233.2,153,231.1,155.1,228.2"/>
	<path class="st0" d="M165.8,219.4c0.1,7.8-1.4,13.5-2.8,19.3c-7.7,2.6-14,4.7-19.5,5.9l-3.1-5.6c2.6,0.7,4.4,0.8,5.3,0.5
		c8.9-8.1,14.9-14.8,18-20.1L165.8,219.4z"/>
	<path class="st0" d="M162.7,241.7l-0.8,5.5c-6.2,0.5-12.4,1.7-18.3,3.6l0.4-3.5L162.7,241.7z"/>
	<path class="st0" d="M173.3,247.3l-1.4-3.2c-0.6,2.9-1.3,4.2-1.5,5.1c1.1,0.3,2,1.1,2.4,2.1L173.3,247.3z"/>
	<path class="st0" d="M163.8,248.1c1.7,0,3.4,0.2,5,0.6c0.2-0.7,0.6-2.7,1.4-6.1l1.2-17.2c-1.3-3.2-2.7-5-4-5.4
		C167.2,231.2,166,240.5,163.8,248.1"/>
	<path class="st0" d="M174.1,244.6l-2-3.3l1.2-12.8c1.6,2.8,2.7,5.9,3.1,9.2L174.1,244.6z"/>
	<path class="st0" d="M157,249.9c1.9-0.2,2.1,0.2,0.8,1.3c-3,2.4-5.1,6.3-6.2,11.7c-0.4,1.7-1.6,1.6-3.6-0.3l-2.2-2.6
		c0.4-1.6,0.8-3.7,2.6-4.9C150.5,252.3,153.6,250.5,157,249.9"/>
	<path class="st0" d="M149.6,250.5c1.7,0,2.8-0.1,0,1.3c-3.6,2.4-5.5,5-5.5,7.8c0.2,1.2-0.3,1.5-1.4,0.9c-2.8-2-2.6-4.8,0.6-8.4
		C145.3,251.4,147.5,250.9,149.6,250.5"/>
	<path class="st0" d="M151.1,267.6c4.3,9.1,9.2,13.6,14.6,13.6c2.3-2.5,3.5-4.6,3.3-8.8l-3,1.9c-5.3-1.9-9.8-5.3-13.1-9.8
		L151.1,267.6z"/>
	<path class="st0" d="M161.3,283.5c-8-5.9-13.4-13.5-18-21.3c-1.7,1.2-2.3,3-2,6c5.8,7.6,11.2,12.5,16.2,14.6L161.3,283.5z"/>
	<path class="st0" d="M143.7,274.7l-4-5c-0.6-2.2-0.8-4.4-0.6-6.6c-2.3,2-6.1,7.6-6.5,10.4L143.7,274.7z"/>
	<path class="st0" d="M172.2,252.6c-1-2.1-3.7-2.9-10.1-2.8c-3.8,1.4-6.8,5.4-8.8,12c2.1,4.6,6.3,7.8,12.7,9.6
		c1.9-0.5,1.3-7.1,1.3-7.1l2.6-0.7l-1-7.7C169.3,253.8,170.7,252.6,172.2,252.6 M164.6,255.2c-0.8-1.1-2.4-1.6-4.8-1.4
		c0.7-0.5,1.5-0.9,2.4-1.1c0.8-0.1,1.7-0.1,2.5,0.2c0.6,0.4,0.9,0.9,1,1.6v0.8c-0.6,0.8-1.5,1.2-2.5,1.2c-0.9,0-1.7-0.2-2.5-0.6
		L164.6,255.2z"/>
	<path class="st0" d="M172.9,256.1c-0.3-2.1-1.4-2.2-3.1-0.1L172.9,256.1z"/>
	<path class="st0" d="M172.8,257.5l-2,0.4l-0.2,3.3C172.6,260,173.3,258.8,172.8,257.5"/>
	<polygon class="st0" points="148.2,280.2 129.7,280.8 133.4,275.6 146,277.5 	"/>
	<polygon class="st0" points="170.5,302.9 141.3,291.1 139.4,293.1 144.1,305 171.9,305.1 	"/>
	<path class="st0" d="M182.5,302.9c-1.8-1.6-7.2-1.6-8.8,0.4v1.7l8.2-0.1L182.5,302.9z"/>
	<path class="st0" d="M199.9,289.2l-1.5-2.1l-12.8,13.8l-1.4,4.1h10.4C196.6,299.8,198.4,294.6,199.9,289.2"/>
	<path class="st0" d="M195.8,287.6l-12.7,11.4c-1.4-0.9-3-1.4-4.6-1.4c0.3-3,5.3-7.4,9.5-8.6c2.1-0.9,4-2.3,5.5-4L195.8,287.6z"/>
	<path class="st0" d="M174.8,297.8l-4.3,1.4l-25.8-8.1l3.3-2.7c4.8,2.2,9.9,3.6,15.1,4.3C171.5,293,173.4,296,174.8,297.8"/>
	<path class="st0" d="M167.4,291.3l-0.4-5.1c2-1.9,2.6-5.8,3.1-7.6c4.7,2.7,8.2,6.3,9.6,10.4l-5.3,2.3H167.4z"/>
	<polygon class="st0" points="163.7,286.3 165.5,291.3 157,289 157.2,285.5 	"/>
	<path class="st0" d="M153.2,283.4l0.9,4.2l-9.5-0.9c-7.2,3.4-14.8,5.7-22.6,6.9c0.9-3.3,3.2-7.1,6.9-11.3
		C141.5,282,149.6,282.4,153.2,283.4"/>
	<path class="st0" d="M131.6,293.9l9.1,11h-17.9c-2-2.5-2.1-5.9-1.2-9.2L131.6,293.9z"/>
	<path class="st0" d="M193.2,246.5l-8.4,40.9l-1.2,0.4l1-10l-2.7-5.9c2.3-10.8,7-22.4,9-24.3L193.2,246.5z"/>
	<path class="st0" d="M193.4,255.3c0.7,10.1-1.8,19.8-4.9,20.7L193.4,255.3z"/>
	<path class="st0" d="M188.5,280c4.5,0,5.5,1.3,3.1,3.9c-2.2,2.5-3.9,3.1-4.9,1.8L188.5,280z"/>
	<path class="st0" d="M183.1,280.2c-3-2.9-4.6-2.2-4.7,2c0.9,3.6,2.3,4.8,4.1,3.5L183.1,280.2z"/>
	<rect x="219" y="117.8" class="st5" width="85.5" height="85.3"/>
	<g>
		<defs>
			<rect id="SVGID_15_" x="219" y="117.8" width="85.5" height="85.3"/>
		</defs>
		<clipPath id="SVGID_16_">
			<use xlink:href="#SVGID_15_"  style="overflow:visible;"/>
		</clipPath>
		<g class="st17">
			<path class="st0" d="M225.4,129.3c1.3-1.8,3-3.2,5-4.2c2.1,6.3,7.2,10.8,15.8,13.7l0.7,1.5l0.9,2.3c-3.6,2.6-10.8,3.9-16.2,2.3
				c-2.1-0.5-3.9-1.7-5.4-3.3C224.7,136.7,223.9,132,225.4,129.3 M232.9,139.1c0.2,1.4,1.5,2.4,2.9,2.2s2.4-1.5,2.2-2.9
				c0-0.2-0.1-0.4-0.1-0.5c-0.4-1.6-2.2-3.7-3.6-3.4S232.6,137.4,232.9,139.1 M248.1,143.7l4.8,12.8c-0.4,0.8-1.1,1.4-2,1.7
				l-6.4-12.4C245.7,145.2,246.9,144.5,248.1,143.7 M243.3,146.3l5.1,13.5c0.2,0.8-2.2,2.5-2.7,2l-6.3-14.2
				C240.7,147.2,242,146.8,243.3,146.3 M238.5,147.7l3.5,13.7c0.1,0.4-2.6,1-2.8,0.5l-5.4-13.7c1.5-0.1,3.1-0.2,4.6-0.5
				 M232.4,148.3l3.6,11.3c-0.9,0.5-2,0.3-2.6-0.4c0,0-2.6-5.1-5-11.2C229.7,148.2,231.1,148.3,232.4,148.3 M244.4,134.8v0.2
				c-7.7-3.3-11.2-5.6-12.5-10.5c1.7-0.6,3.5-1.1,5.4-1.4c2.5-0.3,6.6,3.2,8.5,5.3l7.8,12.4c-0.4,0.6-0.6,1.4-1.2,1.5
				c-1,0.1-2.7-1.4-5.3-4.1L244.4,134.8z"/>
			<path class="st0" d="M225.5,79.1l11,41.7c-4.5,0.8-8.6,3.1-11.6,6.5l-16.3-35.5L225.5,79.1z"/>
			<path class="st0" d="M272.6,173.9l1,1.3c-1.6,8.9-0.1,15.6,4.4,20.5c-1.8,1.2-3.9,2-6.1,2.3c-3,0-6.9-3-10.5-6.7
				c-0.7-2-0.8-4.2-0.3-6.3c1.3-5.5,5.9-11.1,9.9-13L272.6,173.9z M283,190.8c-1.2,1.4-2.5,2.8-3.9,4c-3.6-3.5-4-7.7-3.1-16h0.1
				l-1.5-3.8c-1.1-3.6-1.6-5.8-1-6.6c0.3-0.4,1.2-0.2,1.9-0.3l7.1,12.8C283.5,183.5,284.6,188.7,283,190.8 M262.6,177.1l-9.4-12.4
				c-0.2-0.7,2.4-2.1,3-1.4l9.3,11C264.5,175.2,263.5,176.1,262.6,177.1 M266.6,173.5l-7.7-11.6c0.7-0.6,1.6-1,2.5-0.9l8.9,10.3
				C269,171.9,267.8,172.7,266.6,173.5 M256.9,186.5c-4.2-5-7.3-9.8-7.3-9.8c-0.3-0.9,0.1-2,0.9-2.5l8.2,8.5l0.1-0.1
				c0.2-0.4,0.4-0.7,0.6-1l-9.4-11.4c-0.3-0.4,1.6-2.4,1.8-2.2l10.2,9.7c-1,1.2-1.9,2.4-2.7,3.7c-0.2,0.3-0.4,0.7-0.6,1l-0.1,0.1
				c-0.7,1.2-1.3,2.5-1.8,3.8"/>
			<path class="st0" d="M316,222.3l-31.2-29.9c-2.9,3.5-6.9,6-11.4,7l23.1,31.5L316,222.3z"/>
			<path class="st0" d="M286.6,150.6c0.6,8.2,5.8,12.6,11.9,15.3c-1.1,1.6-2.7,2.9-4.5,3.8c-2.7,0.9-7.2-1.9-12.5-3.3
				c-2-1.2-2.2-2.1-2.7-4c-1.2-5,0.5-11,3.4-13.8L286.6,150.6z M301,160.2c-0.4,1.6-1,3.1-1.8,4.5c-4.8-1.8-6.7-5.1-9.4-12.3l0,0
				l-1.4-3.2c-2.6-1.5-4.2-3.2-4.1-4.1c0-0.6,0.3-1.2,0.8-1.5c1.8,1.3,3.8,2.4,5.8,3.2c1.5,1.7,2.5,3.5,5.4,5.3
				C298.3,154,301.5,158,301,160.2 M276.9,155.2c-1.9-1.5-4.1-2.7-6.4-3.4c-1.6-2.4-3.6-3.4-5.1-4.8c-0.5-0.5,0.5-2.4,1.4-2.1l5.4,4
				l6.3,3C277.8,152.9,277.3,154,276.9,155.2 M278.9,150.9c-1-1.4-2.7-2.2-4.8-3.3c-1.2-2.1-2.8-3.4-4.4-4.8
				c-0.2-0.1,0.7-1.3,1.5-1.3l5,3.8l5,2.7C280.4,148.9,279.6,149.9,278.9,150.9 M276.3,164.3c-1.7-1.1-3.6-1.8-5.6-2.2
				c-1.7-1.4-3.6-2.6-5.5-3.6c-0.7-0.5-1-1.5-0.5-2.3l5.7,2.9l5.5,1.6C275.9,161.9,276,163.1,276.3,164.3 M275.8,159.8
				c-1.8-1.4-3.8-2.5-6-3.1c-1.9-1.8-4.1-3.3-6.4-4.5c-0.4-0.3,0.5-2.4,1.4-1.9l5.4,3.3l6.5,2.4
				C276.2,157.2,275.9,158.5,275.8,159.8"/>
			<path class="st0" d="M344,176c-25.3-6.7-38.1-11-41-13.6c-1.3,4.1-2.8,6.8-6.2,9c13.9,7,19.3,12.6,32.5,20.9L344,176z"/>
			<path class="st0" d="M245.6,187v0.4c-5.4,4-7.6,6.3-7.9,11.2c-1.6-0.1-3.1-0.6-4.4-1.5c-2.5-1.6-3.4-4.8-2.1-7.4
				c0.6-1.4,1.5-1.8,2.9-2.7c3.5-2.3,8.4-1.5,11.4-0.4L245.6,187z M243.2,198.5c-1.3,0.2-2.7,0.2-4,0.1c0-3.8,1.7-5,6.4-9v0.1
				l1.2-2.9c1.3-2.5,1.8-2.3,2.5-2.5c0.4-0.1,0.7,0.5,1.1,0.8l-2.7,9C247.3,195.9,247.2,197.8,243.2,198.5 M238.8,184.3l1.6-10.1
				c0.2-0.5,2.3,0.2,2.3,0.8l-0.9,9.3C240.8,184.3,239.8,184.3,238.8,184.3 M242.7,184.3l2.4-8c0.7,0.1,1.3,0.4,1.7,0.9l-1.1,8
				C244.6,184.9,243.7,184.6,242.7,184.3 M231.2,187c-0.1-2.5,0-4.9,0.3-7.4c0.2-0.7,0.9-1.2,1.6-1.1l0.8,7
				C233,185.9,232.1,186.4,231.2,187 M235,185.1l0.5-9.8c0-0.4,2-0.6,2-0.4l0.7,9.4C237.1,184.4,236,184.7,235,185.1"/>
			<path class="st0" d="M244.1,208.1l0.9-8.3c-3.7,1.1-9.7,0.7-12.3-1l-1,6.6L244.1,208.1z"/>
		</g>
	</g>
	<g>
		<defs>
			<rect id="SVGID_17_" x="116.5" y="115.8" width="289.7" height="293.3"/>
		</defs>
		<clipPath id="SVGID_18_">
			<use xlink:href="#SVGID_17_"  style="overflow:visible;"/>
		</clipPath>
		<g class="st18">
			<path class="st0" d="M219,115.8c-0.4,0.3-0.8,0.7-1.1,1v-1H219z M282.5,115.8c2,2.2,3.8,4.6,5.2,7.2c3.7,6.3,6.8,14.5,7.2,22.2
				l-2.4-1.1l-2.4-0.5c-0.3-4.5-1.2-9-2.9-13.3c-2.4-5.8-6.4-10.4-11-14.5H282.5z M217.4,179.8c3.1,2.9,7,4.5,10.8,6.4l-0.7,2.2
				l0.1,2.5c-3.5-1.6-6.8-3.5-9.8-5.9L217.4,179.8z M288.1,170.9c-0.8,2.3-1.9,4.5-3.4,6.4c-0.8-1.3-1.8-2.5-3-3.5
				c1.5-1.5,2.6-1.8,3.5-3.3C286.1,170.2,288,170.5,288.1,170.9 M259.1,192.7c-2.8,1.6-5.9,2.5-9.1,2.5c0.4-0.7,0.5-1.5,0.5-2.2
				c0-0.8,0-1.5-0.1-2.3c2.4,0.3,4.9,0.2,7.3-0.2C258.2,191.3,258.6,192,259.1,192.7"/>
		</g>
	</g>
	<polyline class="st2" points="304.4,320.9 304.4,405.4 219,405.4 219,320.9 	"/>
	<path class="st0" d="M249.6,409.1l-14.4-33.8l-8.1,3.4l-5.3-1.3l37.4-36.2L308,372l-6,4.3l-9.4-4.9l-0.9,29.6L249.6,409.1z
		 M241.8,369.4l19.2-17.8l21.7,15l2.9,31.2l-29.4,5.9L241.8,369.4z"/>
	<path class="st0" d="M259.1,400.4c-4.3-5.2-7.6-11.2-9.7-17.6c-0.5-1.4-0.8-2.2-1.1-3.7c-0.7-1.4-0.2-3.1,1.3-3.8
		c0.1-0.1,0.2-0.1,0.4-0.2c1.5-0.5,3.1,0.4,3.5,1.9c0,0,0,0,0,0l2.3,6.3l-0.6-12.5c-0.3-2.2-0.7-4.2,1.1-5c2.1-0.9,3.6,1.6,4,4.3
		l1.4,10.7l1-15.3c0-2.1,5.3-2.4,5.5-0.3c0,0.2,0,0.4,0,0.6l-0.6,14.7l3.4-14.7c0.9-1.4,2.7-1.8,4.1-0.9c0.1,0.1,0.3,0.2,0.4,0.3
		c0.6,0.6,0.9,1.4,0.8,2.2l-2.8,13.4l4.7-11.6c1-0.9,2.5-0.8,3.4,0.2c0.1,0.1,0.2,0.3,0.3,0.4c0.2,0.4,0.2,0.8,0.2,1.3l-3.2,12.3
		c-1.3,7.2-4,16-5.8,16.8C268.1,402.5,263.8,403,259.1,400.4"/>
	<polygon class="st0" points="259.6,347.6 256.7,334.1 251,336.3 248.7,330.7 255.8,328.7 255.8,319.5 261.1,319.8 261,327.2 
		268.3,325.9 270.1,329 261.1,332.4 262.4,347.8 	"/>
	<text transform="matrix(0.97 0 0 1 219.29 314.8398)" class="st15 st19 st20">CORPUS CHRISTI CATHOLIC SCHOOL</text>
	<rect x="81" y="262.7" class="st21" width="4.8" height="190.6"/>
	<rect x="81.5" y="63.3" class="st22" width="3.6" height="196.1"/>
	<rect x="437" y="57.8" class="st23" width="4" height="201.9"/>
	<rect x="435.7" y="262.6" class="st24" width="7" height="176.7"/>
</g>
</svg>
