<svg xmlns="http://www.w3.org/2000/svg" xmlns:xlink="http://www.w3.org/1999/xlink" viewBox="0 0 432 432"><defs><clipPath id="clip-path"><rect width="432" height="432" style="fill:none"/></clipPath><clipPath id="clip-path-2"><rect x="175.07" y="169.45" width="85.4" height="85.4" style="fill:none"/></clipPath><clipPath id="clip-path-3"><rect x="72.51" y="65.84" width="289.74" height="293.28" style="fill:none"/></clipPath><clipPath id="clip-path-4"><rect x="174.97" y="67.78" width="85.51" height="85.3" style="fill:none"/></clipPath></defs><title>ccfzh-website-logo-2017</title><g style="clip-path:url(#clip-path)"><polyline points="441 441 441 215.07 215.18 215.07 215.18 441 441 441" style="fill:#b73536"/><polyline points="441 216.21 441 -9 215.18 -9 215.18 216.21 441 216.21" style="fill:#007ac2"/><polyline points="216.31 441 216.31 215.07 -9 215.07 -9 441 216.31 441" style="fill:#006351"/><polyline points="216.31 216.21 216.31 -9 -9 -9 -9 216.21 216.31 216.21" style="fill:#342a7a"/></g><polygon points="276.48 153.24 276.48 52.4 158.03 52.4 158.03 152.6 57.11 152.6 57.11 270.86 158.67 270.86 158.67 369.85 275.46 369.85 275.46 271.3 377.57 271.3 377.57 153.24 276.48 153.24 276.48 153.24" style="fill:#fff"/><rect x="175.07" y="169.45" width="85.4" height="85.4" style="fill:#a7a9ac"/><rect x="175.07" y="169.45" width="85.4" height="85.4" style="fill:#a7a9ac"/><g style="clip-path:url(#clip-path-2)"><rect x="173.1" y="167.32" width="42.47" height="45.3" style="fill:#a7a9ac"/><rect x="220.6" y="167.32" width="42.47" height="45.3" style="fill:#a7a9ac"/><rect x="173.1" y="214.52" width="42.47" height="45.3" style="fill:#a7a9ac"/><rect x="220.6" y="214.52" width="42.47" height="45.3" style="fill:#a7a9ac"/></g><path d="M217.59,258.75V168.83m-44.78,43.22h89.91" style="fill:none;stroke:#fff;stroke-miterlimit:3.864;stroke-width:13.212900000000001px"/><path d="M180.08,212a37.54,37.54,0,1,1,37.54,37.54A37.54,37.54,0,0,1,180.08,212" style="fill:#fff"/><path d="M193.85,235.18a2.68,2.68,0,0,1-.83-.68,1.59,1.59,0,0,1,.26-2.36,1.61,1.61,0,0,1,2.38.12,2,2,0,0,1,.48,1l.67-.47a3.19,3.19,0,0,0-.55-1,2.39,2.39,0,0,0-3.67-.37c-1.25,1-1.15,2.38-.15,3.58a4.87,4.87,0,0,0,.82.74Z" style="fill:#231f20"/><path d="M197.58,236.58c.51-.68,1.35-1.14,2.12-.56a1.49,1.49,0,0,1,0,2.19c-.52.7-1.34,1.18-2.13.58s-.55-1.52,0-2.21m-.81-.61a2.37,2.37,0,1,0,3.38-.56,2.25,2.25,0,0,0-3.38.56" style="fill:#231f20"/><polygon points="201.96 242.59 202.81 242.97 204.42 239.34 204.44 239.33 204 243.5 204.85 243.88 207.66 240.77 207.67 240.77 206.05 244.41 206.9 244.78 208.86 240.38 207.44 239.75 204.91 242.62 204.9 242.62 205.33 238.81 203.92 238.18 201.96 242.59" style="fill:#231f20"/><polygon points="210.7 245.83 211.62 245.96 212.17 242.03 212.19 242.02 212.92 246.14 213.84 246.27 215.68 242.51 215.69 242.51 215.14 246.45 216.06 246.58 216.73 241.8 215.19 241.59 213.55 245.05 213.53 245.05 212.91 241.27 211.38 241.05 210.7 245.83" style="fill:#231f20"/><path d="M219.65,244.82c.16,1.28.95,1.72,2.18,1.57s1.89-.77,1.73-2l-.37-3.06-1,.12.34,2.76c.1.82-.09,1.38-.83,1.47s-1.06-.41-1.16-1.23l-.34-2.77-1,.12Z" style="fill:#231f20"/><polygon points="227.06 245.39 227.94 245.11 226.82 241.68 226.84 241.67 229.7 244.53 230.83 244.17 229.34 239.58 228.46 239.87 229.57 243.29 229.56 243.3 226.69 240.44 225.56 240.81 227.06 245.39" style="fill:#231f20"/><rect x="232.53" y="237.99" width="0.97" height="4.82" transform="translate(-85.58 137.51) rotate(-28)" style="fill:#231f20"/><polygon points="237.9 240.22 238.69 239.65 236.3 236.36 237.41 235.55 236.97 234.93 233.95 237.13 234.4 237.74 235.51 236.93 237.9 240.22" style="fill:#231f20"/><polygon points="242.84 235.92 243.5 235.21 242.11 233.91 241.16 230.66 240.46 231.41 241.15 233.64 238.89 233.09 238.12 233.92 241.45 234.62 242.84 235.92" style="fill:#231f20"/><polygon points="190.29 223.66 190 222.75 187.99 223.4 187.39 221.56 189.4 220.91 189.1 219.98 184.51 221.47 184.81 222.4 186.66 221.79 187.26 223.63 185.41 224.24 185.71 225.15 190.29 223.66" style="fill:#231f20"/><path d="M186,216.79c-.85.07-1.75-.24-1.83-1.2s.75-1.42,1.6-1.5,1.77.21,1.86,1.2-.76,1.43-1.62,1.5m.09,1a2.37,2.37,0,1,0-2.68-2.14,2.25,2.25,0,0,0,2.68,2.14" style="fill:#231f20"/><polygon points="188.24 210.44 188.58 207.62 187.83 207.53 187.6 209.39 183.57 208.89 183.45 209.85 188.24 210.44" style="fill:#231f20"/><polygon points="188.97 205.6 189.7 202.85 188.97 202.66 188.49 204.47 184.56 203.42 184.31 204.35 188.97 205.6" style="fill:#231f20"/><path d="M190.24,201.3l.44-.9-.81-.86.86-1.76,1.18.11.47-1-5.16-.41-.48,1Zm-.31-3.61-.62,1.27-1.48-1.5h0Z" style="fill:#231f20"/><polygon points="193.62 195.16 194.21 194.45 191.4 192.18 191.41 192.16 195.38 193 196.12 192.08 192.37 189.05 191.79 189.77 194.59 192.04 194.58 192.05 190.62 191.21 189.87 192.13 193.62 195.16" style="fill:#231f20"/><path d="M196.18,186.48l.42-.34a1.65,1.65,0,0,1,2.08,2.57l-.42.34Zm1.81,3.77,1-.83c1.15-.93,1.85-2.14.65-3.63s-2.53-1.05-3.68-.12l-1,.83Z" style="fill:#231f20"/><path d="M205.81,185.05l.95-.33,0-1.18,1.85-.64.75.91,1-.35L207,179.52l-1,.36Zm2.33-2.78-1.33.46v-2.11h0Z" style="fill:#231f20"/><path d="M212.42,183l1-.13-.28-2,.31,0c.41-.06.55.06.73.4l.78,1.41,1.07-.15-1-1.76c-.13-.2-.31-.44-.58-.42h0a1.11,1.11,0,0,0,.83-1.25c-.19-1.33-1.41-1.12-2.43-1l-1,.15Zm.39-4.16.31,0c.48-.07,1-.09,1.1.48s-.45.74-.92.81l-.31,0Z" style="fill:#231f20"/><polygon points="218.19 182.5 221.05 182.6 221.08 181.84 219.19 181.78 219.23 180.42 220.95 180.48 220.98 179.72 219.26 179.66 219.3 178.48 221.18 178.54 221.21 177.78 218.36 177.68 218.19 182.5" style="fill:#231f20"/><path d="M223.08,182.85l1,.24.68-1,1.9.47.13,1.17,1,.26-.67-5.14-1.06-.26Zm3.47-1.06-1.37-.34,1.16-1.76h0Z" style="fill:#231f20"/><path d="M236.19,187.41a2.68,2.68,0,0,1-1-.39,1.59,1.59,0,0,1-.47-2.33,1.61,1.61,0,0,1,2.3-.62,2,2,0,0,1,.75.77l.49-.66a3.27,3.27,0,0,0-.82-.75,2.39,2.39,0,0,0-3.61.79c-.86,1.38-.36,2.62,1,3.45a4.94,4.94,0,0,0,1,.45Z" style="fill:#231f20"/><path d="M237.18,189.23l.72.7,1.07-.5,1.41,1.36-.47,1.08.77.75,2-4.78-.78-.76Zm3.53.82-1-1,1.89-.94h0Z" style="fill:#231f20"/><polygon points="242.14 194.58 242.71 195.36 245.99 192.97 246.81 194.09 247.42 193.65 245.23 190.63 244.61 191.07 245.42 192.19 242.14 194.58" style="fill:#231f20"/><polygon points="244.58 198.34 244.99 199.22 246.9 198.32 247.72 200.08 245.8 200.97 246.21 201.85 250.58 199.81 250.17 198.93 248.41 199.75 247.59 198 249.36 197.18 248.95 196.3 244.58 198.34" style="fill:#231f20"/><path d="M249.6,204.73c.83-.16,1.76.06,1.95,1s-.6,1.5-1.43,1.66-1.79,0-2-1,.6-1.5,1.46-1.66m-.19-1a2.37,2.37,0,1,0,2.89,1.85,2.25,2.25,0,0,0-2.89-1.85" style="fill:#231f20"/><polygon points="248.04 211.23 248.09 214.07 248.85 214.06 248.82 212.19 252.88 212.11 252.87 211.15 248.04 211.23" style="fill:#231f20"/><rect x="249.68" y="214.47" width="0.97" height="4.82" transform="matrix(0.14, -0.99, 0.99, 0.14, 0.75, 434.62)" style="fill:#231f20"/><g style="clip-path:url(#clip-path-3)"><path d="M247.09,223.06a2.72,2.72,0,0,1,.12-1.07,1.59,1.59,0,0,1,2.12-1.06,1.61,1.61,0,0,1,1.2,2.06,2,2,0,0,1-.55.92l.76.31a3.19,3.19,0,0,0,.51-1,2.39,2.39,0,0,0-1.69-3.29c-1.56-.48-2.62.33-3.08,1.83a4.91,4.91,0,0,0-.18,1.1Z" style="fill:#231f20"/><rect x="277.34" y="169.59" width="85.4" height="85.4" style="fill:#007ac2"/></g><path d="M312.59,201.08q2-2.57,4.69.32a4,4,0,0,1-4.69-.32" style="fill:#fff"/><path d="M313.22,197q.63-3.77,5.91-5.91a31.64,31.64,0,0,0,6.39,6.23,5.37,5.37,0,0,1,2,4.22q.55,7.92-2.2,11.35a15.92,15.92,0,0,1-6.55,3.75l-.16-15.26q.65-3.57-5.44-4.37m8.28,4.69a3.23,3.23,0,0,0,4.18-.16Z" style="fill:#fff"/><path d="M311.53,202.65l6.07.75-.16,8.91a9.71,9.71,0,0,1-5.91-9.66" style="fill:#fff"/><path d="M306.21,197.18a27.14,27.14,0,0,1,9.5-6.23q5.06-1.51,5.95-5.44c-6-2.4-12.18,1.7-15.45,11.67" style="fill:#fff"/><path d="M320.87,190.47c1.11-2.82,1.93-4,2.8-3.43q4.75,2.65,6.07,10.13a14.07,14.07,0,0,1-8.87-6.7" style="fill:#fff"/><path d="M305.46,201.71l4.18-3.27.47,7.92,2.17,7.18q-5.34,0-7.14-7.46Z" style="fill:#fff"/><path d="M329.43,201.71q1.19,1.14.63,6.07h-1.42l-.44-1.54q.22-3.55,1.22-4.53" style="fill:#fff"/><path d="M326.94,218.23l2-6.54q1.09-2.26,1.73.31A110.83,110.83,0,0,0,342,237.38q2.27,3-.75,2a30.12,30.12,0,0,1-11.08-4.34,54.44,54.44,0,0,1-3.27-16.83" style="fill:#fff"/><path d="M303.41,210.74q11.84,12.34,21.2,12.46l1.38,9.5a58.6,58.6,0,0,1-21.48-12.61Z" style="fill:#fff"/><path d="M299.66,223.35l2.2-3.43q12.58,11.72,26,15.89l-.32,2.68-11.07,4.34-7.77-5.6Z" style="fill:#fff"/><path d="M298.28,225.24a79.16,79.16,0,0,0,12.46,19.32l-3.11,1.54-10.92-2.17-7.61-3.74-.16-2.49q3.32-10.32,9.34-12.46" style="fill:#fff"/><path d="M285.82,242.67,297.34,248q-5.22,5.28-14.35,5,.3-7.64,2.84-10.29" style="fill:#fff"/><path d="M332.7,239.39a72.49,72.49,0,0,0,17.15,6.7,18.55,18.55,0,0,1,8.24,8.91H347.2q-7.41-1-11.39-5Z" style="fill:#fff"/><path d="M288.94,254.85q34.56-12.4,40-15.45l.31,3.59q-10.54,5.56-31.77,12Z" style="fill:#fff"/><path d="M301.71,177.39l6.07-3.87,4.34,8.4a7.36,7.36,0,0,0-4.18,3Z" style="fill:#fff"/><path d="M311.84,172.89l1.86,8.24,5.28-.47,1.73-9.34q-8.4-1-8.87,1.57" style="fill:#fff"/><path d="M322.88,171.79l-1.07,8.71,3.11.94,3.11-8.71q-3.26-2.2-5.16-.95" style="fill:#fff"/><path d="M326.94,182.23l3.75-7.65a19.2,19.2,0,0,1,9.81,9.34l-8,5q-2.67-5.4-5.6-6.7" style="fill:#fff"/><polygon points="333.49 190.63 342.83 186.89 344.4 192.37 333.33 193.28 333.49 190.63" style="fill:#fff"/><polygon points="335.02 194.85 345.15 195.01 344.4 200.6 334.12 199.06 335.02 194.85" style="fill:#fff"/><path d="M335.65,202.5h7.65l-1.85,3.27q-5.72-1-5.79-3.27" style="fill:#fff"/><path d="M335.81,205.77l4.53,1.54a9.78,9.78,0,0,1-3.12,4.53Z" style="fill:#fff"/><path d="M298.91,179.75l7.61,6.7a14.78,14.78,0,0,0-3.74,6.54l-8.08-1.26q.75-7.6,4.22-12" style="fill:#fff"/><path d="M294.85,194.22a20.29,20.29,0,0,1,7.33.63v4.37l-7.17.32q-1-3.77-.16-5.32" style="fill:#fff"/><path d="M296.55,202.34q2,5.2,5,6.23l.47-8Z" style="fill:#fff"/><path d="M289.38,186l3.43,1.22q-3.14,17.58,9.06,25l-1.73,4.34Q284.82,204.95,289.38,186" style="fill:#fff"/><path d="M294.7,182.86q2.84-7.62,15.42-13.09l-6.55-.31q-9.66,5.69-11.83,12Z" style="fill:#fff"/><path d="M335.5,169.78l-1.23,2.49q9.64,9.38,12,18.84l3.11-.16q-2.84-13.87-13.87-21.17" style="fill:#fff"/><path d="M346.89,193.28l2.64-.12q.05,16.36-9.66,22L338,212.47q9.33-9.08,8.87-19.19" style="fill:#fff"/><path d="M268.84,170.27c.62,0,1.25.26,1.25.89s-.64.89-1.25.89-1.27-.24-1.27-.89.64-.89,1.27-.89m0-.66c-1.08,0-1.83.53-1.83,1.55s.76,1.55,1.83,1.55,1.81-.56,1.81-1.55-.73-1.55-1.81-1.55" style="fill:#231f20"/><path d="M268.34,173.94a1.29,1.29,0,1,0,0,2.58h2.24v-.63h-2c-.6,0-1-.17-1-.66s.39-.66,1-.66h2v-.63Z" style="fill:#231f20"/><path d="M267.08,177.85v.63h1.46v.21c0,.27-.1.35-.36.44l-1.1.38v.71l1.37-.51c.15-.06.35-.16.36-.33h0a.78.78,0,0,0,.81.65c1,0,.95-.81.95-1.49v-.68Zm3,.63v.21c0,.31,0,.67-.46.67s-.49-.36-.49-.67v-.21Z" style="fill:#231f20"/><polygon points="267.07 183.27 267.07 185.13 267.63 185.13 267.63 183.9 270.58 183.9 270.58 183.27 267.07 183.27" style="fill:#231f20"/><path d="M267.08,185.88v.66l.81.28v1.28l-.81.27v.7l3.51-1.24v-.72Zm1.36,2V187l1.45.46h0Z" style="fill:#231f20"/><path d="M270,190.78v.35a1.21,1.21,0,0,1-2.41,0v-.35Zm-3-.63V191c0,1,.36,1.82,1.76,1.82s1.75-.86,1.75-1.82v-.86Z" style="fill:#231f20"/><polygon points="267.07 194.93 267.07 195.56 268.46 195.56 270.58 196.69 270.58 196.02 269.11 195.26 270.58 194.51 270.58 193.77 268.46 194.93 267.07 194.93" style="fill:#231f20"/><path d="M268.84,200.22c.62,0,1.25.26,1.25.89s-.64.89-1.25.89-1.27-.24-1.27-.89.64-.89,1.27-.89m0-.66c-1.08,0-1.83.53-1.83,1.55s.76,1.55,1.83,1.55,1.81-.56,1.81-1.55-.73-1.55-1.81-1.55" style="fill:#231f20"/><polygon points="267.07 203.91 267.07 204.54 268.61 204.54 268.61 205.61 269.17 205.61 269.17 204.54 270.03 204.54 270.03 205.66 270.58 205.66 270.58 203.91 267.07 203.91" style="fill:#231f20"/><polygon points="267.07 209.35 267.07 209.98 270.03 209.98 270.03 210.89 270.58 210.89 270.58 208.44 270.03 208.44 270.03 209.35 267.07 209.35" style="fill:#231f20"/><polygon points="267.07 211.96 267.07 212.6 268.61 212.6 268.61 213.86 267.07 213.86 267.07 214.5 270.58 214.5 270.58 213.86 269.17 213.86 269.17 212.6 270.58 212.6 270.58 211.96 267.07 211.96" style="fill:#231f20"/><polygon points="267.07 215.91 267.07 217.78 267.63 217.78 267.63 216.54 268.61 216.54 268.61 217.67 269.17 217.67 269.17 216.54 270.03 216.54 270.03 217.77 270.58 217.77 270.58 215.91 267.07 215.91" style="fill:#231f20"/><polygon points="267.07 221.02 267.07 222.88 267.63 222.88 267.63 221.66 270.58 221.66 270.58 221.02 267.07 221.02" style="fill:#231f20"/><path d="M267.08,223.64v.66l.81.28v1.28l-.81.27v.7l3.51-1.24v-.72Zm1.36,2v-.93l1.45.46h0Z" style="fill:#231f20"/><polygon points="267.07 227.9 267.07 228.54 268.7 228.54 268.7 228.54 267.07 229.68 267.07 230.51 268.93 229.16 270.58 230.46 270.58 229.68 269.08 228.54 270.58 228.54 270.58 227.9 267.07 227.9" style="fill:#231f20"/><polygon points="267.07 231.59 267.07 233.47 267.63 233.47 267.63 232.23 268.61 232.23 268.61 233.36 269.17 233.36 269.17 232.23 270.03 232.23 270.03 233.46 270.58 233.46 270.58 231.59 267.07 231.59" style="fill:#231f20"/><path d="M267.08,236.66v.63h1.33v.26c0,.68.3,1.22,1.12,1.22s1.06-.63,1.06-1.32v-.8Zm3,.63v.22c0,.33-.14.6-.55.6s-.52-.29-.52-.6v-.22Z" style="fill:#231f20"/><path d="M267.08,239.24v.66l.81.28v1.28l-.81.27v.7l3.51-1.24v-.72Zm1.36,2v-.93l1.45.46h0Z" style="fill:#231f20"/><path d="M267.08,243.46v.63h1.46v.21c0,.27-.1.35-.36.44l-1.1.38v.71l1.37-.51c.15-.06.35-.16.36-.34h0a.78.78,0,0,0,.81.65c1,0,.95-.81.95-1.49v-.68Zm3,.63v.21c0,.32,0,.67-.46.67s-.49-.36-.49-.67v-.21Z" style="fill:#231f20"/><rect x="267.08" y="246.89" width="3.51" height="0.63" style="fill:#231f20"/><path d="M270.52,250.64a2.15,2.15,0,0,0,.13-.75,1,1,0,0,0-1.07-1.11c-1.16,0-.89,1.39-1.56,1.39-.32,0-.45-.32-.45-.56a1.41,1.41,0,0,1,.22-.72l-.63-.06a2.54,2.54,0,0,0-.14.81c0,.64.29,1.19,1.06,1.19,1.18,0,.92-1.38,1.53-1.38a.46.46,0,0,1,.49.5,1.47,1.47,0,0,1-.15.64Z" style="fill:#231f20"/><polygon points="267.07 252.07 267.07 252.7 268.61 252.7 268.61 253.97 267.07 253.97 267.07 254.6 270.58 254.6 270.58 253.97 269.17 253.97 269.17 252.7 270.58 252.7 270.58 252.07 267.07 252.07" style="fill:#231f20"/><path d="M165,253.37a2.17,2.17,0,0,0-.13.76,1,1,0,0,0,1.07,1.1c1.16,0,.89-1.38,1.56-1.38.32,0,.45.32.45.56a1.43,1.43,0,0,1-.22.72l.63.06a2.58,2.58,0,0,0,.14-.81c0-.64-.29-1.19-1.06-1.19-1.18,0-.92,1.38-1.53,1.38a.46.46,0,0,1-.49-.5,1.51,1.51,0,0,1,.15-.64Z" style="fill:#231f20"/><polygon points="168.43 251.17 168.43 250.54 165.47 250.54 165.47 249.63 164.92 249.63 164.92 252.08 165.47 252.08 165.47 251.17 168.43 251.17" style="fill:#231f20"/><rect x="167.72" y="248.29" width="0.7" height="0.63" style="fill:#231f20"/><polygon points="168.43 244.62 168.43 243.99 166.89 243.99 166.89 242.92 166.34 242.92 166.34 243.99 165.47 243.99 165.47 242.86 164.92 242.86 164.92 244.62 168.43 244.62" style="fill:#231f20"/><path d="M168.43,241.55v-.63H167v-.2c0-.27.1-.35.36-.44l1.1-.38v-.71l-1.37.51c-.16.06-.35.16-.36.34h0a.78.78,0,0,0-.81-.65c-1,0-.95.81-.95,1.49v.68Zm-3-.63v-.21c0-.32,0-.67.46-.67s.49.36.49.67v.21Z" style="fill:#231f20"/><path d="M168.43,238.19v-.66l-.8-.28V236l.8-.27V235l-3.51,1.24V237Zm-1.36-2v.93l-1.45-.46h0Z" style="fill:#231f20"/><polygon points="168.43 233.76 168.43 233.15 165.8 233.15 165.8 233.14 168.43 231.93 168.43 231.16 164.92 231.16 164.92 231.77 167.54 231.77 167.54 231.78 164.92 232.98 164.92 233.76 168.43 233.76" style="fill:#231f20"/><path d="M167.79,227.32a1.61,1.61,0,0,1,.15.69,1.11,1.11,0,0,1-1.25,1.07c-.72,0-1.27-.41-1.27-1.06a1.2,1.2,0,0,1,.19-.68l-.59,0a1.91,1.91,0,0,0-.15.72,1.66,1.66,0,0,0,1.88,1.74,1.59,1.59,0,0,0,1.75-1.74,2.89,2.89,0,0,0-.11-.72Z" style="fill:#231f20"/><rect x="164.92" y="225.38" width="3.51" height="0.63" style="fill:#231f20"/><path d="M165,222.08a2.18,2.18,0,0,0-.13.76,1,1,0,0,0,1.07,1.1c1.16,0,.89-1.38,1.56-1.38.32,0,.45.32.45.56a1.43,1.43,0,0,1-.22.72l.63.06a2.58,2.58,0,0,0,.14-.81c0-.64-.29-1.19-1.06-1.19-1.18,0-.92,1.38-1.53,1.38a.46.46,0,0,1-.49-.5,1.51,1.51,0,0,1,.15-.64Z" style="fill:#231f20"/><path d="M165.47,217.7v-.35a1.21,1.21,0,0,1,2.4,0v.35Zm3,.63v-.86c0-1-.36-1.82-1.76-1.82s-1.75.86-1.75,1.82v.86Z" style="fill:#231f20"/><polygon points="168.43 214.2 168.43 212.32 167.88 212.32 167.88 213.56 166.89 213.56 166.89 212.44 166.34 212.44 166.34 213.56 165.47 213.56 165.47 212.33 164.92 212.33 164.92 214.2 168.43 214.2" style="fill:#231f20"/><path d="M165,206.94a2.17,2.17,0,0,0-.13.75,1,1,0,0,0,1.07,1.11c1.16,0,.89-1.39,1.56-1.39.32,0,.45.32.45.56a1.43,1.43,0,0,1-.22.72l.63.06a2.56,2.56,0,0,0,.14-.81c0-.64-.29-1.19-1.06-1.19-1.18,0-.92,1.38-1.53,1.38a.46.46,0,0,1-.49-.5,1.5,1.5,0,0,1,.15-.64Z" style="fill:#231f20"/><path d="M168.43,205.64V205l-.8-.28v-1.28l.8-.27v-.7l-3.51,1.24v.72Zm-1.36-2v.92l-1.45-.46h0Z" style="fill:#231f20"/><polygon points="168.43 201.18 168.43 199.31 167.88 199.31 167.88 200.54 164.92 200.54 164.92 201.18 168.43 201.18" style="fill:#231f20"/><polygon points="168.43 198.04 168.43 196.17 167.88 196.17 167.88 197.41 166.89 197.41 166.89 196.28 166.34 196.28 166.34 197.41 165.47 197.41 165.47 196.18 164.92 196.18 164.92 198.04 168.43 198.04" style="fill:#231f20"/><path d="M165,192.91a2.18,2.18,0,0,0-.13.76,1,1,0,0,0,1.07,1.1c1.16,0,.89-1.39,1.56-1.39.32,0,.45.32.45.56a1.43,1.43,0,0,1-.22.72l.63.06a2.58,2.58,0,0,0,.14-.81c0-.64-.29-1.19-1.06-1.19-1.18,0-.92,1.38-1.53,1.38a.46.46,0,0,1-.49-.5,1.51,1.51,0,0,1,.15-.64Z" style="fill:#231f20"/><path d="M168.43,189.21v-.63H167.1v-.27c0-.68-.3-1.22-1.12-1.22s-1.06.63-1.06,1.31v.8Zm-3-.63v-.22c0-.32.14-.6.55-.6s.52.29.52.6v.22Z" style="fill:#231f20"/><path d="M168.43,186.44v-.66l-.8-.28v-1.28l.8-.27v-.7l-3.51,1.24v.72Zm-1.36-2v.92l-1.45-.46h0Z" style="fill:#231f20"/><path d="M168.43,182v-.63H167v-.2c0-.27.1-.35.36-.44l1.1-.38v-.71l-1.37.51c-.16.06-.35.16-.36.33h0a.78.78,0,0,0-.81-.65c-1,0-.95.81-.95,1.49V182Zm-3-.63v-.21c0-.32,0-.67.46-.67s.49.36.49.67v.21Z" style="fill:#231f20"/><rect x="164.92" y="177.76" width="3.51" height="0.63" style="fill:#231f20"/><path d="M165,174.46a2.19,2.19,0,0,0-.13.76,1,1,0,0,0,1.07,1.1c1.16,0,.89-1.39,1.56-1.39.32,0,.45.32.45.56a1.43,1.43,0,0,1-.22.72l.63.06a2.57,2.57,0,0,0,.14-.81c0-.64-.29-1.19-1.06-1.19-1.18,0-.92,1.39-1.53,1.39a.46.46,0,0,1-.49-.5,1.51,1.51,0,0,1,.15-.64Z" style="fill:#231f20"/><polygon points="168.43 172.84 168.43 172.2 166.89 172.2 166.89 170.94 168.43 170.94 168.43 170.3 164.92 170.3 164.92 170.94 166.34 170.94 166.34 172.2 164.92 172.2 164.92 172.84 168.43 172.84" style="fill:#231f20"/><path d="M177.27,162.11a1.61,1.61,0,0,1-.69.15,1.11,1.11,0,0,1-1.07-1.25,1.12,1.12,0,0,1,1.06-1.27,1.2,1.2,0,0,1,.68.19l0-.59a1.93,1.93,0,0,0-.71-.15,1.65,1.65,0,0,0-1.73,1.87,1.59,1.59,0,0,0,1.73,1.75,2.88,2.88,0,0,0,.72-.11Z" style="fill:#231f20"/><path d="M178.65,161c0-.62.26-1.25.88-1.25s.88.63.88,1.25-.24,1.27-.88,1.27-.88-.64-.88-1.27m-.66,0c0,1.08.53,1.82,1.54,1.82s1.54-.76,1.54-1.82-.55-1.8-1.54-1.8-1.54.73-1.54,1.8" style="fill:#231f20"/><path d="M182,162.75h.63v-1.45h.2c.27,0,.35.1.44.36l.38,1.09h.71l-.51-1.37c-.06-.16-.16-.35-.33-.36h0a.78.78,0,0,0,.65-.81c0-1-.81-.95-1.49-.95H182Zm.63-3h.21c.31,0,.67,0,.67.46s-.36.49-.67.49h-.21Z" style="fill:#231f20"/><path d="M185.12,162.75h.63v-1.33H186c.68,0,1.22-.3,1.22-1.11s-.63-1.06-1.32-1.06h-.8Zm.63-3H186c.33,0,.6.14.6.55s-.28.52-.6.52h-.22Z" style="fill:#231f20"/><path d="M188,161.48a1.29,1.29,0,1,0,2.57,0v-2.24H190v2c0,.6-.17,1-.65,1s-.65-.39-.65-1v-2H188Z" style="fill:#231f20"/><path d="M193.46,159.31a2.19,2.19,0,0,0-.75-.13,1,1,0,0,0-1.1,1.07c0,1.16,1.38.88,1.38,1.55,0,.31-.32.45-.56.45a1.4,1.4,0,0,1-.71-.22l-.06.63a2.55,2.55,0,0,0,.81.14c.64,0,1.19-.29,1.19-1.06,0-1.18-1.38-.92-1.38-1.53a.46.46,0,0,1,.5-.49,1.5,1.5,0,0,1,.64.15Z" style="fill:#231f20"/><path d="M198.49,162.11a1.61,1.61,0,0,1-.69.15,1.11,1.11,0,0,1-1.07-1.25,1.12,1.12,0,0,1,1.06-1.27,1.21,1.21,0,0,1,.68.19l0-.59a1.93,1.93,0,0,0-.71-.15,1.65,1.65,0,0,0-1.73,1.87,1.59,1.59,0,0,0,1.73,1.75,2.86,2.86,0,0,0,.72-.11Z" style="fill:#231f20"/><polygon points="199.37 162.75 200 162.75 200 161.21 201.26 161.21 201.26 162.75 201.89 162.75 201.89 159.25 201.26 159.25 201.26 160.66 200 160.66 200 159.25 199.37 159.25 199.37 162.75" style="fill:#231f20"/><path d="M203,162.75h.63v-1.45h.2c.27,0,.35.1.44.36l.38,1.09h.7l-.51-1.37c-.06-.16-.16-.35-.33-.36h0a.78.78,0,0,0,.65-.81c0-1-.81-.95-1.49-.95H203Zm.63-3h.21c.31,0,.67,0,.67.46s-.36.49-.67.49h-.21Z" style="fill:#231f20"/><rect x="206.09" y="159.25" width="0.63" height="3.5" style="fill:#231f20"/><path d="M209.53,159.31a2.2,2.2,0,0,0-.75-.13,1,1,0,0,0-1.1,1.07c0,1.16,1.38.88,1.38,1.55,0,.31-.32.45-.56.45a1.39,1.39,0,0,1-.71-.22l-.06.63a2.56,2.56,0,0,0,.81.14c.64,0,1.18-.29,1.18-1.06,0-1.18-1.38-.92-1.38-1.53a.46.46,0,0,1,.5-.49,1.5,1.5,0,0,1,.64.15Z" style="fill:#231f20"/><polygon points="211.24 162.75 211.87 162.75 211.87 159.8 212.78 159.8 212.78 159.25 210.34 159.25 210.34 159.8 211.24 159.8 211.24 162.75" style="fill:#231f20"/><rect x="213.5" y="159.25" width="0.63" height="3.5" style="fill:#231f20"/><path d="M219.08,162.11a1.61,1.61,0,0,1-.69.15,1.11,1.11,0,0,1-1.07-1.25,1.13,1.13,0,0,1,1.06-1.27,1.2,1.2,0,0,1,.68.19l0-.59a1.93,1.93,0,0,0-.71-.15,1.65,1.65,0,0,0-1.73,1.87,1.59,1.59,0,0,0,1.73,1.75,2.86,2.86,0,0,0,.72-.11Z" style="fill:#231f20"/><path d="M219.63,162.75h.66l.28-.8h1.28l.27.8h.7l-1.24-3.5h-.71Zm2-1.36h-.92l.45-1.44h0Z" style="fill:#231f20"/><polygon points="223.81 162.75 224.44 162.75 224.44 159.8 225.34 159.8 225.34 159.25 222.91 159.25 222.91 159.8 223.81 159.8 223.81 162.75" style="fill:#231f20"/><polygon points="226.12 162.75 226.76 162.75 226.76 161.21 228.02 161.21 228.02 162.75 228.65 162.75 228.65 159.25 228.02 159.25 228.02 160.66 226.76 160.66 226.76 159.25 226.12 159.25 226.12 162.75" style="fill:#231f20"/><path d="M230.27,161c0-.62.26-1.25.89-1.25s.88.63.88,1.25-.24,1.27-.88,1.27-.89-.64-.89-1.27m-.66,0c0,1.08.53,1.82,1.55,1.82s1.54-.76,1.54-1.82-.56-1.8-1.54-1.8-1.55.73-1.55,1.8" style="fill:#231f20"/><polygon points="233.66 162.75 235.52 162.75 235.52 162.2 234.29 162.2 234.29 159.25 233.66 159.25 233.66 162.75" style="fill:#231f20"/><rect x="236.25" y="159.25" width="0.63" height="3.5" style="fill:#231f20"/><path d="M240.2,162.11a1.61,1.61,0,0,1-.69.15,1.11,1.11,0,0,1-1.07-1.25,1.12,1.12,0,0,1,1.06-1.27,1.2,1.2,0,0,1,.68.19l0-.59a1.93,1.93,0,0,0-.71-.15,1.65,1.65,0,0,0-1.73,1.87,1.59,1.59,0,0,0,1.73,1.75,2.87,2.87,0,0,0,.72-.11Z" style="fill:#231f20"/><path d="M245,162.11a1.61,1.61,0,0,1-.69.15A1.11,1.11,0,0,1,243.2,161a1.12,1.12,0,0,1,1.06-1.27,1.21,1.21,0,0,1,.68.19l0-.59a1.92,1.92,0,0,0-.71-.15,1.65,1.65,0,0,0-1.73,1.87,1.59,1.59,0,0,0,1.73,1.75,2.87,2.87,0,0,0,.72-.11Z" style="fill:#231f20"/><polygon points="245.84 162.75 247.71 162.75 247.71 162.2 246.47 162.2 246.47 161.21 247.59 161.21 247.59 160.66 246.47 160.66 246.47 159.8 247.7 159.8 247.7 159.25 245.84 159.25 245.84 162.75" style="fill:#231f20"/><polygon points="248.69 162.75 249.3 162.75 249.3 160.13 249.31 160.13 250.51 162.75 251.29 162.75 251.29 159.25 250.68 159.25 250.68 161.87 250.67 161.87 249.47 159.25 248.69 159.25 248.69 162.75" style="fill:#231f20"/><polygon points="252.94 162.75 253.57 162.75 253.57 159.8 254.48 159.8 254.48 159.25 252.04 159.25 252.04 159.8 252.94 159.8 252.94 162.75" style="fill:#231f20"/><polygon points="255.26 162.75 257.13 162.75 257.13 162.2 255.89 162.2 255.89 161.21 257.02 161.21 257.02 160.66 255.89 160.66 255.89 159.8 257.12 159.8 257.12 159.25 255.26 159.25 255.26 162.75" style="fill:#231f20"/><path d="M258.09,162.75h.63v-1.45h.2c.27,0,.35.1.44.36l.38,1.09h.71l-.51-1.37c-.06-.16-.16-.35-.33-.36h0a.78.78,0,0,0,.65-.81c0-1-.81-.95-1.49-.95h-.68Zm.63-3h.21c.31,0,.67,0,.67.46s-.36.49-.67.49h-.21Z" style="fill:#231f20"/><rect x="72.51" y="169.57" width="85.4" height="85.4" style="fill:#006351"/><path d="M111.13,178.21a18.77,18.77,0,0,0-4.15-6.14c-4.92,4.5-7.78,8-9.66,12.85a4.73,4.73,0,0,0,3.77,1.87c4.93-3.62,7.92-5.73,10-8.58" style="fill:#fff"/><path d="M121.82,169.42c.14,7.79-1.42,13.48-2.81,19.28-7.7,2.57-14,4.69-19.53,5.93l-3.05-5.58q3.92,1,5.27.5,13.33-12.17,18-20.13Z" style="fill:#fff"/><path d="M118.69,191.66l-.82,5.52a78,78,0,0,0-18.28,3.64l.43-3.49Z" style="fill:#fff"/><path d="M129.33,197.29l-1.43-3.17c-.59,2.86-1.29,4.22-1.47,5.1a3.39,3.39,0,0,1,2.44,2.14Z" style="fill:#fff"/><path d="M119.82,198.09a24.37,24.37,0,0,1,5,.6q.24-1.06,1.37-6.06l1.18-17.17q-2-4.8-4-5.42-.29,16.69-3.52,28" style="fill:#fff"/><path d="M130.13,194.57l-2-3.32,1.16-12.77a24.59,24.59,0,0,1,3.15,9.17Z" style="fill:#fff"/><path d="M113,199.87q2.78-.36.75,1.25-4.52,3.53-6.17,11.71-.53,2.57-3.65-.25l-2.23-2.6c.41-1.61.82-3.67,2.65-4.92a14,14,0,0,1,8.65-5.19" style="fill:#fff"/><path d="M105.58,200.49c1.7,0,2.77-.13,0,1.27q-5.42,3.6-5.52,7.79.32,1.86-1.4.87-4.24-3,.62-8.42a55.5,55.5,0,0,1,6.3-1.52" style="fill:#fff"/><path d="M107.11,217.6q6.48,13.6,14.59,13.61c2.32-2.54,3.52-4.63,3.29-8.81l-3,1.88a27.38,27.38,0,0,1-13.11-9.83Z" style="fill:#fff"/><path d="M117.26,233.48c-8-5.87-13.43-13.55-18-21.27-1.74,1.23-2.33,3-2,6q8.71,11.41,16.24,14.59Z" style="fill:#fff"/><path d="M99.68,224.69l-4-5a19.57,19.57,0,0,1-.61-6.65c-2.3,1.95-6.06,7.6-6.54,10.43Z" style="fill:#fff"/><path d="M128.24,202.56c-1-2.09-3.74-2.88-10.07-2.81q-5.77,2.14-8.82,12,3.14,6.92,12.71,9.57c1.86-.45,1.34-7.15,1.34-7.15l2.55-.68-1-7.66c.36-2,1.71-3.27,3.28-3.23m-7.64,2.61q-1.24-1.69-4.8-1.44a6.73,6.73,0,0,1,2.4-1.12,5.77,5.77,0,0,1,2.48.16,2.23,2.23,0,0,1,1,1.6v.8a3,3,0,0,1-2.48,1.2,5,5,0,0,1-2.48-.56Z" style="fill:#fff"/><path d="M128.91,206.15q-.5-3.21-3.12-.1Z" style="fill:#fff"/><path d="M128.82,207.52l-2,.41-.16,3.27q2.86-1.81,2.2-3.68" style="fill:#fff"/><polygon points="104.17 230.21 85.67 230.82 89.35 225.61 102.03 227.55 104.17 230.21" style="fill:#fff"/><polygon points="126.46 252.91 97.33 241.15 95.38 243.09 100.08 254.95 127.9 255.06 126.46 252.91" style="fill:#fff"/><path d="M138.53,252.91c-1.79-1.63-7.18-1.56-8.79.41v1.74l8.18-.1Z" style="fill:#fff"/><path d="M155.91,239.21l-1.53-2.14-12.78,13.8L140.17,255h10.43a154.63,154.63,0,0,0,5.32-15.75" style="fill:#fff"/><path d="M151.82,237.57l-12.68,11.35a9.52,9.52,0,0,0-4.6-1.43c.31-3,5.32-7.36,9.51-8.59a16.55,16.55,0,0,0,5.52-4Z" style="fill:#fff"/><path d="M130.76,247.8l-4.29,1.43-25.77-8.08,3.27-2.66a53,53,0,0,0,15.13,4.29c8.39.25,10.33,3.17,11.66,5" style="fill:#fff"/><path d="M123.4,241.25l-.41-5.11c2-1.91,2.58-5.8,3.07-7.57,4.7,2.66,8.19,6.25,9.61,10.43l-5.32,2.25Z" style="fill:#fff"/><polygon points="119.72 236.34 121.45 241.25 112.97 239 113.17 235.53 119.72 236.34" style="fill:#fff"/><path d="M109.18,233.38l.92,4.2-9.51-.92A81,81,0,0,1,78,243.5q1.35-5,6.85-11.25,19-.33,24.33,1.12" style="fill:#fff"/><path d="M87.61,243.91l9.1,11H78.82c-2-2.45-2.14-5.9-1.23-9.2Z" style="fill:#fff"/><path d="M149.16,196.47l-8.39,40.9-1.23.41,1-10-2.66-5.93c2.33-10.78,7-22.44,9-24.33Z" style="fill:#fff"/><path d="M149.37,205.26c.67,10.11-1.78,19.85-4.91,20.65Z" style="fill:#fff"/><path d="M144.46,230q6.74,0,3.07,3.88-3.33,3.73-4.91,1.84Z" style="fill:#fff"/><path d="M139.14,230.21q-4.49-4.31-4.7,2,1.42,5.46,4.09,3.48Z" style="fill:#fff"/><rect x="174.97" y="67.78" width="85.51" height="85.3" style="fill:#342a7a"/><g style="clip-path:url(#clip-path-4)"><path d="M181.36,79.3a13.51,13.51,0,0,1,5-4.17c2.06,6.3,7.23,10.83,15.83,13.74l.69,1.5.85,2.28c-3.64,2.62-10.76,3.9-16.22,2.34a10.67,10.67,0,0,1-5.36-3.26c-1.48-5-2.21-9.78-.76-12.44m7.55,9.76a2.59,2.59,0,1,0,5-1.24c-.39-1.55-2.23-3.7-3.61-3.36s-1.78,3-1.39,4.6m15.17,4.61,4.75,12.78a3.49,3.49,0,0,1-2,1.73l-6.45-12.4a25.52,25.52,0,0,0,3.73-2.11m-4.87,2.6,5.11,13.46c.24.83-2.24,2.5-2.74,2l-6.33-14.18a26.78,26.78,0,0,0,4-1.25m-4.8,1.43L198,111.43c.06.35-2.61,1-2.84.52l-5.38-13.72a29.28,29.28,0,0,0,4.59-.54m-5.94.56,3.5,11.28a2.15,2.15,0,0,1-2.65-.43s-2.65-5.06-5-11.15a31.44,31.44,0,0,0,4.18.3m11.82-13.42V85c-7.71-3.26-11.17-5.56-12.5-10.46A31.66,31.66,0,0,1,193.15,73c2.54-.31,6.62,3.2,8.5,5.27l7.79,12.36c-.42.57-.65,1.44-1.19,1.49-1,.1-2.69-1.4-5.34-4.11Z" style="fill:#fff"/><path d="M181.55,29.06l11,41.7a20.71,20.71,0,0,0-11.64,6.53L164.56,41.83Z" style="fill:#fff"/><path d="M228.56,123.94l1,1.33c-1.61,8.91-.15,15.62,4.38,20.48a13.55,13.55,0,0,1-6.06,2.31c-3,0-6.89-3-10.54-6.69a10.61,10.61,0,0,1-.26-6.25c1.27-5.52,5.85-11.12,9.92-13ZM239,140.8a31.58,31.58,0,0,1-3.87,4c-3.65-3.53-4-7.66-3.11-16l.1,0L230.63,125c-1.1-3.63-1.6-5.8-1-6.65.31-.45,1.17-.23,1.88-.32l7.06,12.79c.9,2.64,2,7.9.49,10m-20.44-13.69-9.37-12.4c-.22-.69,2.44-2.05,3.05-1.44l9.32,11a26.8,26.8,0,0,0-3,2.85m4-3.61-7.74-11.64a3.48,3.48,0,0,1,2.5-.94l8.9,10.34a25.51,25.51,0,0,0-3.66,2.23m-9.7,13c-4.19-5-7.34-9.8-7.34-9.8a2.14,2.14,0,0,1,.91-2.52l8.2,8.52.07-.13c.19-.35.39-.7.6-1l-9.41-11.35c-.27-.41,1.56-2.45,1.84-2.22L218,127.76a29.14,29.14,0,0,0-2.7,3.74c-.21.34-.41.69-.6,1l-.07.13a31.42,31.42,0,0,0-1.76,3.79" style="fill:#fff"/><path d="M272,172.25,240.78,142.4a20.72,20.72,0,0,1-11.37,7l23.15,31.49Z" style="fill:#fff"/><path d="M242.61,100.6c.58,8.19,5.78,12.64,11.91,15.25a11.42,11.42,0,0,1-4.47,3.79c-2.74.92-7.24-1.88-12.53-3.33-2-1.16-2.19-2.08-2.66-4-1.19-5,.55-11,3.4-13.83ZM257,110.18a23.61,23.61,0,0,1-1.79,4.49c-4.78-1.79-6.7-5.12-9.43-12.25l0,0-1.37-3.19c-2.64-1.48-4.24-3.23-4.13-4.12a2,2,0,0,1,.8-1.54,26,26,0,0,0,5.84,3.17c1.49,1.66,2.52,3.52,5.44,5.33,1.93,1.91,5.14,5.91,4.67,8.09m-24.18-5a22.52,22.52,0,0,0-6.41-3.44c-1.6-2.37-3.59-3.45-5.15-4.78-.49-.5.55-2.37,1.36-2.05l5.41,4,6.3,3a20.31,20.31,0,0,0-1.5,3.28m2.07-4.22c-1.05-1.41-2.72-2.24-4.75-3.31-1.21-2.15-2.81-3.35-4.41-4.83-.17-.05.67-1.26,1.53-1.33l5,3.81,5,2.68a20.15,20.15,0,0,0-2.35,3m-2.66,13.35a15.6,15.6,0,0,0-5.61-2.18,37.33,37.33,0,0,0-5.48-3.62,1.75,1.75,0,0,1-.5-2.32l5.69,2.85,5.48,1.61a24.3,24.3,0,0,0,.41,3.66m-.49-4.5a17.59,17.59,0,0,0-6-3.14,25.45,25.45,0,0,0-6.41-4.49c-.42-.25.52-2.35,1.35-1.93l5.42,3.25,6.47,2.39a21.92,21.92,0,0,0-.84,3.92" style="fill:#fff"/><path d="M300,126c-25.31-6.69-38.06-11-41-13.56-1.26,4.14-2.83,6.83-6.24,9,13.93,7,19.33,12.56,32.49,20.9Z" style="fill:#fff"/><path d="M201.64,137l0,.44c-5.36,4-7.61,6.25-7.85,11.24a9,9,0,0,1-4.37-1.53,5.77,5.77,0,0,1-2.09-7.45c.61-1.43,1.54-1.81,2.9-2.71,3.46-2.31,8.43-1.47,11.43-.36Zm-2.46,11.48a21.17,21.17,0,0,1-4,.12c0-3.82,1.73-5,6.41-9l0,.08,1.2-2.88c1.31-2.53,1.81-2.32,2.53-2.47.38-.08.7.49,1.1.82l-2.67,9c-.44,1.77-.59,3.64-4.65,4.37m-4.27-14.22,1.6-10.08c.24-.49,2.26.17,2.25.83l-.89,9.3a18,18,0,0,0-3,0m3.88,0,2.36-8a2.37,2.37,0,0,1,1.68.9l-1.12,8a17.15,17.15,0,0,0-2.91-.88M187.21,137a55.78,55.78,0,0,1,.25-7.41,1.57,1.57,0,0,1,1.63-1.09l.79,7a22.58,22.58,0,0,0-2.68,1.47m3.81-1.88.52-9.8c0-.37,2-.65,2-.38l.66,9.35a20.2,20.2,0,0,0-3.21.84" style="fill:#fff"/><path d="M200.15,158.08l.93-8.27c-3.66,1.09-9.68.73-12.31-1l-1,6.56Z" style="fill:#fff"/></g><path d="M175,65.84q-.58.51-1.13,1v-1Zm63.53,0A36.29,36.29,0,0,1,243.8,73c3.69,6.3,6.79,14.51,7.22,22.22l-2.44-1.13-2.41-.51a45.46,45.46,0,0,0-2.85-13.26c-2.44-5.8-6.42-10.4-11-14.52Zm-65.1,64c3.05,2.91,7,4.46,10.78,6.37l-.67,2.18.16,2.5a46.7,46.7,0,0,1-9.83-5.9Zm70.72-8.91a23.63,23.63,0,0,1-3.39,6.44,15.16,15.16,0,0,0-3-3.48c1.55-1.49,2.58-1.76,3.46-3.26.92-.46,2.81-.15,2.92.31m-29,21.79a18.06,18.06,0,0,1-9.1,2.51,4.69,4.69,0,0,0,.51-2.23,15.25,15.25,0,0,0-.12-2.29,26.07,26.07,0,0,0,7.29-.24,25.48,25.48,0,0,0,1.42,2.26" style="fill:#fff"/><polyline points="260.37 270.86 260.37 355.43 174.97 355.43 174.97 270.86" style="fill:#b73536"/><path d="M205.62,359.12l-14.35-33.79-8.14,3.41-5.28-1.27,37.36-36.24L264,322l-6,4.28-9.41-4.86L247.74,351Zm-7.77-39.69,19.22-17.82,21.68,15,2.86,31.19-29.36,5.87Z" style="fill:#fff;fill-rule:evenodd"/><path d="M215.14,350.37a51.72,51.72,0,0,1-9.68-17.59c-.5-1.42-.75-2.23-1.15-3.68a2.86,2.86,0,0,1,1.63-4,2.83,2.83,0,0,1,3.53,1.91l2.27,6.25-.64-12.48c-.32-2.23-.72-4.18,1.12-5,2.13-.9,3.56,1.59,4,4.32l1.44,10.7,1-15.34c0-2.13,5.26-2.44,5.51-.32a2.34,2.34,0,0,1,0,.64l-.64,14.7,3.37-14.7a3,3,0,0,1,4.52-.64,2.54,2.54,0,0,1,.83,2.23l-2.75,13.43,4.68-11.65a2.41,2.41,0,0,1,3.72.64,2,2,0,0,1,.16,1.27l-3.24,12.32c-1.28,7.21-4,16-5.8,16.8-4.9,2.28-9.17,2.79-13.88.15" style="fill:#fff"/><polygon points="215.6 297.57 212.69 284.13 206.99 286.27 204.72 280.73 211.84 278.7 211.84 269.54 217.12 269.75 217.01 277.22 224.31 275.92 226.15 279.01 217.12 282.42 218.4 297.78 215.6 297.57" style="fill:#fff"/><path d="M177.19,261.86a.73.73,0,0,0-.64.32,1.53,1.53,0,0,0-.23.89q0,1.19.86,1.19a2.65,2.65,0,0,0,.88-.19v.63a2.36,2.36,0,0,1-.95.18,1.42,1.42,0,0,1-1.15-.47,2,2,0,0,1-.4-1.35,2.28,2.28,0,0,1,.2-1,1.44,1.44,0,0,1,.56-.64,1.61,1.61,0,0,1,.86-.22,2.24,2.24,0,0,1,1,.25l-.24.61-.39-.17A1.13,1.13,0,0,0,177.19,261.86Z" style="fill:#231f20"/><path d="M181.91,263.06a2,2,0,0,1-.42,1.36,1.79,1.79,0,0,1-2.43,0,2,2,0,0,1-.42-1.37,2,2,0,0,1,.42-1.36,1.56,1.56,0,0,1,1.22-.47,1.54,1.54,0,0,1,1.21.47A2,2,0,0,1,181.91,263.06Zm-2.51,0a1.53,1.53,0,0,0,.22.9.75.75,0,0,0,.65.3q.87,0,.87-1.2t-.87-1.2a.76.76,0,0,0-.66.3A1.52,1.52,0,0,0,179.4,263.06Z" style="fill:#231f20"/><path d="M183.34,263.48v1.37h-.73v-3.56h1a1.67,1.67,0,0,1,1,.26,1.08,1.08,0,0,1,.17,1.36,1.11,1.11,0,0,1-.47.38l1,1.55h-.81l-.82-1.37Zm0-.61h.24a.87.87,0,0,0,.51-.12.43.43,0,0,0,.16-.38.39.39,0,0,0-.17-.36,1,1,0,0,0-.52-.11h-.22Z" style="fill:#231f20"/><path d="M188.15,262.39a1.11,1.11,0,0,1-.35.88,1.45,1.45,0,0,1-1,.3h-.31v1.27h-.73v-3.56h1.1a1.42,1.42,0,0,1,1,.28A1,1,0,0,1,188.15,262.39Zm-1.65.57h.24a.78.78,0,0,0,.5-.14.49.49,0,0,0,.17-.4.51.51,0,0,0-.14-.39.64.64,0,0,0-.44-.13h-.33Z" style="fill:#231f20"/><path d="M191.58,261.28v2.31a1.37,1.37,0,0,1-.17.69,1.13,1.13,0,0,1-.49.46,1.71,1.71,0,0,1-.76.16,1.43,1.43,0,0,1-1-.35,1.27,1.27,0,0,1-.37-1v-2.3h.73v2.18a.94.94,0,0,0,.16.61.65.65,0,0,0,.53.19.64.64,0,0,0,.52-.19.94.94,0,0,0,.16-.61v-2.18Z" style="fill:#231f20"/><path d="M194.44,263.85a.93.93,0,0,1-.34.76,1.42,1.42,0,0,1-.93.28,2.12,2.12,0,0,1-1-.21V264a3.91,3.91,0,0,0,.59.23,1.68,1.68,0,0,0,.44.07.61.61,0,0,0,.37-.1.33.33,0,0,0,.13-.28.32.32,0,0,0-.06-.19.63.63,0,0,0-.17-.16,4.16,4.16,0,0,0-.45-.24,2.12,2.12,0,0,1-.47-.3,1.11,1.11,0,0,1-.25-.33,1,1,0,0,1-.09-.44.94.94,0,0,1,.31-.74,1.26,1.26,0,0,1,.86-.27,2,2,0,0,1,.51.07,3.41,3.41,0,0,1,.51.19l-.24.59a3.54,3.54,0,0,0-.46-.16,1.45,1.45,0,0,0-.35,0,.46.46,0,0,0-.32.1.36.36,0,0,0-.07.44.51.51,0,0,0,.14.14,4.39,4.39,0,0,0,.46.25,1.86,1.86,0,0,1,.66.48A1,1,0,0,1,194.44,263.85Z" style="fill:#231f20"/><path d="M197.75,261.86a.73.73,0,0,0-.64.32,1.53,1.53,0,0,0-.23.89q0,1.19.86,1.19a2.65,2.65,0,0,0,.88-.19v.63a2.36,2.36,0,0,1-.95.18,1.42,1.42,0,0,1-1.15-.47,2,2,0,0,1-.4-1.35,2.28,2.28,0,0,1,.2-1,1.44,1.44,0,0,1,.56-.64,1.61,1.61,0,0,1,.86-.22,2.24,2.24,0,0,1,1,.25l-.24.61-.39-.17A1.13,1.13,0,0,0,197.75,261.86Z" style="fill:#231f20"/><path d="M202.16,264.84h-.73v-1.54h-1.36v1.54h-.73v-3.56h.73v1.4h1.36v-1.4h.73Z" style="fill:#231f20"/><path d="M203.75,263.48v1.37H203v-3.56h1a1.67,1.67,0,0,1,1,.26,1.08,1.08,0,0,1,.17,1.36,1.11,1.11,0,0,1-.47.38l1,1.55H205l-.82-1.37Zm0-.61H204a.87.87,0,0,0,.51-.12.43.43,0,0,0,.16-.38.39.39,0,0,0-.17-.36,1,1,0,0,0-.52-.11h-.22Z" style="fill:#231f20"/><path d="M206.18,264.84v-3.56h.73v3.56Z" style="fill:#231f20"/><path d="M209.79,263.85a.93.93,0,0,1-.34.76,1.42,1.42,0,0,1-.93.28,2.12,2.12,0,0,1-1-.21V264a3.91,3.91,0,0,0,.59.23,1.68,1.68,0,0,0,.44.07.61.61,0,0,0,.37-.1.33.33,0,0,0,.13-.28.32.32,0,0,0-.06-.19.63.63,0,0,0-.17-.16,4.14,4.14,0,0,0-.45-.24,2.12,2.12,0,0,1-.47-.3,1.11,1.11,0,0,1-.25-.33,1,1,0,0,1-.09-.44.93.93,0,0,1,.31-.74,1.26,1.26,0,0,1,.86-.27,2,2,0,0,1,.51.07,3.41,3.41,0,0,1,.51.19l-.24.59a3.55,3.55,0,0,0-.46-.16,1.45,1.45,0,0,0-.35,0,.46.46,0,0,0-.32.1.36.36,0,0,0-.07.44.51.51,0,0,0,.14.14,4.37,4.37,0,0,0,.46.25,1.86,1.86,0,0,1,.66.48A1,1,0,0,1,209.79,263.85Z" style="fill:#231f20"/><path d="M211.73,264.84H211v-2.94h-.93v-.63h2.6v.63h-.93Z" style="fill:#231f20"/><path d="M213.18,264.84v-3.56h.73v3.56Z" style="fill:#231f20"/><path d="M217.46,261.86a.73.73,0,0,0-.64.32,1.53,1.53,0,0,0-.23.89q0,1.19.86,1.19a2.65,2.65,0,0,0,.88-.19v.63a2.36,2.36,0,0,1-.95.18,1.42,1.42,0,0,1-1.15-.47,2,2,0,0,1-.4-1.35,2.28,2.28,0,0,1,.2-1,1.44,1.44,0,0,1,.56-.64,1.62,1.62,0,0,1,.86-.22,2.24,2.24,0,0,1,1,.25l-.24.61-.39-.17A1.13,1.13,0,0,0,217.46,261.86Z" style="fill:#231f20"/><path d="M221.16,264.84l-.25-.85h-1.25l-.25.85h-.79l1.21-3.58h.89l1.22,3.58Zm-.42-1.48-.39-1.3c0-.1,0-.18-.06-.24q-.08.31-.44,1.54Z" style="fill:#231f20"/><path d="M223.69,264.84H223v-2.94H222v-.63h2.6v.63h-.93Z" style="fill:#231f20"/><path d="M228,264.84h-.73v-1.54h-1.36v1.54h-.73v-3.56h.73v1.4h1.36v-1.4H228Z" style="fill:#231f20"/><path d="M231.93,263.06a2,2,0,0,1-.42,1.36,1.79,1.79,0,0,1-2.43,0,2,2,0,0,1-.42-1.37,2,2,0,0,1,.42-1.36,1.56,1.56,0,0,1,1.22-.47,1.53,1.53,0,0,1,1.21.47A2,2,0,0,1,231.93,263.06Zm-2.51,0a1.52,1.52,0,0,0,.22.9.75.75,0,0,0,.65.3q.87,0,.87-1.2t-.87-1.2a.76.76,0,0,0-.66.3A1.52,1.52,0,0,0,229.42,263.06Z" style="fill:#231f20"/><path d="M232.63,264.84v-3.56h.73v2.94h1.4v.62Z" style="fill:#231f20"/><path d="M235.34,264.84v-3.56h.73v3.56Z" style="fill:#231f20"/><path d="M238.38,261.86a.73.73,0,0,0-.64.32,1.53,1.53,0,0,0-.23.89q0,1.19.86,1.19a2.65,2.65,0,0,0,.88-.19v.63a2.36,2.36,0,0,1-.95.18,1.42,1.42,0,0,1-1.15-.47,2,2,0,0,1-.4-1.35,2.27,2.27,0,0,1,.2-1,1.44,1.44,0,0,1,.56-.64,1.62,1.62,0,0,1,.86-.22,2.24,2.24,0,0,1,1,.25l-.24.61-.39-.17A1.13,1.13,0,0,0,238.38,261.86Z" style="fill:#231f20"/><path d="M243.24,263.85a.93.93,0,0,1-.34.76,1.42,1.42,0,0,1-.93.28,2.12,2.12,0,0,1-1-.21V264a3.91,3.91,0,0,0,.59.23,1.69,1.69,0,0,0,.44.07.61.61,0,0,0,.37-.1.33.33,0,0,0,.13-.28.32.32,0,0,0-.06-.19.62.62,0,0,0-.17-.16,4.09,4.09,0,0,0-.45-.24,2.11,2.11,0,0,1-.47-.3,1.1,1.1,0,0,1-.25-.33,1,1,0,0,1-.09-.44.94.94,0,0,1,.31-.74,1.25,1.25,0,0,1,.86-.27,2,2,0,0,1,.51.07,3.43,3.43,0,0,1,.51.19l-.24.59a3.55,3.55,0,0,0-.46-.16,1.43,1.43,0,0,0-.35,0,.46.46,0,0,0-.32.1.33.33,0,0,0-.11.26.34.34,0,0,0,0,.17.51.51,0,0,0,.14.14,4.41,4.41,0,0,0,.46.25,1.85,1.85,0,0,1,.66.48A1,1,0,0,1,243.24,263.85Z" style="fill:#231f20"/><path d="M245.31,261.86a.73.73,0,0,0-.64.32,1.53,1.53,0,0,0-.23.89q0,1.19.86,1.19a2.65,2.65,0,0,0,.88-.19v.63a2.36,2.36,0,0,1-.95.18,1.42,1.42,0,0,1-1.15-.47,2,2,0,0,1-.4-1.35,2.27,2.27,0,0,1,.2-1,1.44,1.44,0,0,1,.56-.64,1.62,1.62,0,0,1,.86-.22,2.24,2.24,0,0,1,1,.25l-.24.61-.39-.17A1.13,1.13,0,0,0,245.31,261.86Z" style="fill:#231f20"/><path d="M249.73,264.84H249v-1.54h-1.36v1.54h-.73v-3.56h.73v1.4H249v-1.4h.73Z" style="fill:#231f20"/><path d="M253.7,263.06a2,2,0,0,1-.42,1.36,1.79,1.79,0,0,1-2.43,0,2,2,0,0,1-.42-1.37,2,2,0,0,1,.42-1.36,1.56,1.56,0,0,1,1.22-.47,1.53,1.53,0,0,1,1.21.47A2,2,0,0,1,253.7,263.06Zm-2.51,0a1.52,1.52,0,0,0,.22.9.75.75,0,0,0,.65.3q.87,0,.87-1.2t-.87-1.2a.76.76,0,0,0-.66.3A1.52,1.52,0,0,0,251.19,263.06Z" style="fill:#231f20"/><path d="M257.52,263.06a2,2,0,0,1-.42,1.36,1.79,1.79,0,0,1-2.43,0,2,2,0,0,1-.42-1.37,2,2,0,0,1,.42-1.36,1.56,1.56,0,0,1,1.22-.47,1.53,1.53,0,0,1,1.21.47A2,2,0,0,1,257.52,263.06Zm-2.51,0a1.52,1.52,0,0,0,.22.9.75.75,0,0,0,.65.3q.87,0,.87-1.2t-.87-1.2a.76.76,0,0,0-.66.3A1.52,1.52,0,0,0,255,263.06Z" style="fill:#231f20"/><path d="M258.22,264.84v-3.56H259v2.94h1.4v.62Z" style="fill:#231f20"/></svg>