<svg data-name="Layer 1" xmlns="http://www.w3.org/2000/svg" viewBox="0 0 75.1 85.54"><defs><style>.cls-1{fill:#404040;}</style></defs><title>logo-saint-2</title><path class="cls-1" d="M29.6,31.62q2-2.57,4.69.32a4,4,0,0,1-4.69-.32"/><path class="cls-1" d="M30.23,27.56q.63-3.77,5.91-5.91a31.64,31.64,0,0,0,6.39,6.23,5.37,5.37,0,0,1,2,4.22q.55,7.92-2.2,11.35a15.92,15.92,0,0,1-6.55,3.74l-.16-15.26q.65-3.57-5.44-4.37m8.28,4.69a3.23,3.23,0,0,0,4.18-.16Z"/><path class="cls-1" d="M28.54,33.19l6.07.75-.16,8.9a9.71,9.71,0,0,1-5.91-9.66"/><path class="cls-1" d="M23.22,27.72a27.14,27.14,0,0,1,9.5-6.23Q37.78,20,38.67,16c-6-2.4-12.18,1.7-15.45,11.67"/><path class="cls-1" d="M37.88,21c1.11-2.82,1.93-4,2.8-3.43q4.75,2.65,6.07,10.13A14.07,14.07,0,0,1,37.88,21"/><path class="cls-1" d="M22.47,32.25,26.65,29l.47,7.93,2.17,7.18q-5.34,0-7.14-7.46Z"/><path class="cls-1" d="M46.44,32.25q1.19,1.14.63,6.07H45.65l-.44-1.54q.22-3.55,1.22-4.53"/><path class="cls-1" d="M44,48.76l2-6.54q1.09-2.26,1.73.32A110.83,110.83,0,0,0,59,67.92q2.27,3-.75,2A30.12,30.12,0,0,1,47.22,65.6,54.44,54.44,0,0,1,44,48.76"/><path class="cls-1" d="M20.42,41.27Q32.26,53.61,41.62,53.73L43,63.23A58.61,58.61,0,0,1,21.52,50.62Z"/><path class="cls-1" d="M16.67,53.89l2.2-3.43q12.58,11.72,26,15.89L44.58,69,33.51,73.36l-7.77-5.6Z"/><path class="cls-1" d="M15.29,55.78A79.16,79.16,0,0,0,27.75,75.1l-3.12,1.54L13.72,74.47,6.11,70.72l-.16-2.49q3.32-10.32,9.34-12.46"/><path class="cls-1" d="M2.83,73.21l11.51,5.32Q9.13,83.81,0,83.5q.3-7.64,2.83-10.29"/><path class="cls-1" d="M49.71,69.93a72.49,72.49,0,0,0,17.15,6.7,18.55,18.55,0,0,1,8.24,8.91H64.21q-7.41-1-11.39-5Z"/><path class="cls-1" d="M5.95,85.38Q40.51,73,46,69.93l.32,3.59q-10.54,5.56-31.77,12Z"/><path class="cls-1" d="M18.72,7.93l6.07-3.86,4.34,8.4a7.36,7.36,0,0,0-4.18,3Z"/><path class="cls-1" d="M28.85,3.43l1.86,8.24L36,11.2l1.73-9.34q-8.4-1-8.87,1.57"/><path class="cls-1" d="M39.89,2.33,38.82,11l3.11.94,3.11-8.71q-3.26-2.2-5.16-.95"/><path class="cls-1" d="M44,12.77,47.7,5.13a19.2,19.2,0,0,1,9.81,9.34l-8,5q-2.67-5.4-5.6-6.7"/><polygon class="cls-1" points="50.5 21.17 59.84 17.43 61.41 22.9 50.34 23.81 50.5 21.17"/><polygon class="cls-1" points="52.03 25.39 62.17 25.55 61.41 31.14 51.13 29.6 52.03 25.39"/><path class="cls-1" d="M52.66,33h7.65l-1.85,3.27q-5.72-1-5.79-3.27"/><path class="cls-1" d="M52.82,36.31l4.53,1.54a9.78,9.78,0,0,1-3.11,4.53Z"/><path class="cls-1" d="M15.92,10.29,23.53,17a14.78,14.78,0,0,0-3.74,6.54l-8.08-1.26q.75-7.6,4.22-12"/><path class="cls-1" d="M11.86,24.76a20.29,20.29,0,0,1,7.33.63v4.37L12,30.08q-1-3.77-.16-5.32"/><path class="cls-1" d="M13.56,32.88q2,5.2,5,6.23l.47-8Z"/><path class="cls-1" d="M6.39,16.52l3.43,1.23q-3.14,17.58,9.06,25L17.15,47Q1.83,35.49,6.39,16.52"/><path class="cls-1" d="M11.71,13.4Q14.54,5.78,27.12.32L20.58,0Q10.91,5.69,8.75,12Z"/><path class="cls-1" d="M52.51.32,51.28,2.8q9.64,9.38,12,18.84l3.11-.16Q63.54,7.62,52.51.32"/><path class="cls-1" d="M63.9,23.81l2.64-.12q.05,16.36-9.66,22L55,43q9.33-9.08,8.87-19.19"/></svg>
