<svg data-name="Layer 1" xmlns="http://www.w3.org/2000/svg" viewBox="0 0 86.17 89.58"><defs><style>.cls-1,.cls-2{fill:#404040;}.cls-1{fill-rule:evenodd;}</style></defs><title>logo-hand</title><path class="cls-1" d="M27.77,89.58,13.42,55.8,5.28,59.2,0,57.93,37.36,21.69l48.81,30.8-6,4.28-9.41-4.86L69.9,81.48ZM20,49.89,39.22,32.07l21.68,15,2.86,31.19L34.4,84.11Z"/><path class="cls-2" d="M37.29,80.84a51.72,51.72,0,0,1-9.68-17.59c-.5-1.42-.75-2.23-1.15-3.68a2.86,2.86,0,0,1,1.63-4,2.83,2.83,0,0,1,3.53,1.91l2.27,6.26-.64-12.48c-.32-2.23-.72-4.18,1.12-5,2.13-.9,3.56,1.59,4,4.32l1.44,10.7,1-15.34c0-2.13,5.26-2.44,5.51-.32a2.34,2.34,0,0,1,0,.64L45.69,61l3.37-14.7a3,3,0,0,1,4.52-.64,2.54,2.54,0,0,1,.83,2.23L51.65,61.32l4.68-11.65a2.41,2.41,0,0,1,3.72.64,2,2,0,0,1,.16,1.27L57,63.88c-1.28,7.21-4,16-5.8,16.8-4.9,2.28-9.17,2.79-13.89.15"/><polygon class="cls-2" points="37.75 28.03 34.84 14.6 29.14 16.73 26.88 11.19 33.99 9.16 33.99 0 39.27 0.21 39.16 7.68 46.47 6.39 48.31 9.48 39.27 12.88 40.55 28.25 37.75 28.03"/></svg>
