<svg data-name="Layer 1" xmlns="http://www.w3.org/2000/svg" viewBox="0 0 78.87 85.63"><defs><style>.cls-1{fill:#404040;}</style></defs><title>logo-saint-1</title><path class="cls-1" d="M34.09,8.79a18.77,18.77,0,0,0-4.15-6.14c-4.92,4.5-7.78,8-9.66,12.85a4.73,4.73,0,0,0,3.77,1.87c4.93-3.62,7.92-5.73,10-8.58"/><path class="cls-1" d="M44.78,0c.14,7.79-1.42,13.48-2.82,19.28-7.7,2.57-14,4.69-19.53,5.93l-3.05-5.58q3.92,1,5.27.5Q38,8,42.66,0Z"/><path class="cls-1" d="M41.66,22.24l-.82,5.52a78,78,0,0,0-18.28,3.64L23,27.92Z"/><path class="cls-1" d="M52.29,27.87,50.86,24.7c-.59,2.86-1.29,4.22-1.47,5.1a3.39,3.39,0,0,1,2.44,2.14Z"/><path class="cls-1" d="M42.78,28.67a24.37,24.37,0,0,1,5,.6q.24-1.06,1.37-6.06L50.32,6q-2-4.8-4-5.42-.29,16.69-3.52,28"/><path class="cls-1" d="M53.1,25.15l-2-3.32L52.22,9.07a24.59,24.59,0,0,1,3.15,9.17Z"/><path class="cls-1" d="M36,30.45q2.78-.36.75,1.25-4.52,3.53-6.17,11.71Q30,46,26.92,43.16l-2.23-2.6c.41-1.61.82-3.67,2.65-4.92A14,14,0,0,1,36,30.45"/><path class="cls-1" d="M28.55,31.07c1.7,0,2.77-.13,0,1.27q-5.42,3.6-5.52,7.79.32,1.86-1.4.87-4.24-3,.62-8.42a55.5,55.5,0,0,1,6.3-1.52"/><path class="cls-1" d="M30.07,48.18q6.48,13.6,14.59,13.61C47,59.25,48.18,57.16,47.95,53l-3,1.88A27.38,27.38,0,0,1,31.82,45Z"/><path class="cls-1" d="M40.22,64.06c-8-5.87-13.43-13.55-18-21.27-1.74,1.23-2.33,3-2,6Q29,60.24,36.49,63.41Z"/><path class="cls-1" d="M22.64,55.27l-4-5A19.57,19.57,0,0,1,18,43.61C15.74,45.56,12,51.21,11.49,54Z"/><path class="cls-1" d="M51.2,33.14c-1-2.09-3.74-2.88-10.07-2.81q-5.77,2.14-8.82,12Q35.45,49.2,45,51.85c1.86-.45,1.34-7.15,1.34-7.15L48.92,44l-1-7.66c.36-2,1.71-3.27,3.28-3.23m-7.64,2.61q-1.24-1.69-4.8-1.44a6.73,6.73,0,0,1,2.4-1.12,5.77,5.77,0,0,1,2.48.16,2.23,2.23,0,0,1,1,1.6v.8a3,3,0,0,1-2.48,1.2,5,5,0,0,1-2.48-.56Z"/><path class="cls-1" d="M51.87,36.73q-.5-3.21-3.12-.1Z"/><path class="cls-1" d="M51.79,38.1l-2,.41-.16,3.27q2.86-1.81,2.2-3.68"/><polygon class="cls-1" points="27.14 60.79 8.63 61.4 12.31 56.19 24.99 58.13 27.14 60.79"/><polygon class="cls-1" points="49.43 83.49 20.29 71.73 18.34 73.67 23.05 85.53 50.86 85.64 49.43 83.49"/><path class="cls-1" d="M61.49,83.49c-1.8-1.63-7.18-1.57-8.79.41v1.74l8.18-.1Z"/><path class="cls-1" d="M78.87,69.79l-1.53-2.14L64.56,81.44l-1.43,4.09H73.56a154.62,154.62,0,0,0,5.32-15.75"/><path class="cls-1" d="M74.78,68.15,62.1,79.5a9.52,9.52,0,0,0-4.6-1.43c.31-3,5.32-7.36,9.51-8.59a16.55,16.55,0,0,0,5.52-4Z"/><path class="cls-1" d="M53.72,78.38l-4.29,1.43L23.66,71.73l3.27-2.66a53,53,0,0,0,15.13,4.29c8.39.25,10.33,3.17,11.66,5"/><path class="cls-1" d="M46.36,71.83,46,66.72c2-1.91,2.58-5.8,3.07-7.57,4.7,2.66,8.19,6.25,9.61,10.43l-5.32,2.25Z"/><polygon class="cls-1" points="42.68 66.92 44.42 71.83 35.93 69.58 36.13 66.11 42.68 66.92"/><path class="cls-1" d="M32.15,64l.92,4.19-9.51-.92A81,81,0,0,1,1,74.08q1.35-5,6.85-11.25,19-.33,24.33,1.12"/><path class="cls-1" d="M10.57,74.49l9.1,11H1.78c-2-2.45-2.14-5.9-1.23-9.2Z"/><path class="cls-1" d="M72.13,27l-8.38,40.9-1.23.41,1-10-2.66-5.93c2.33-10.78,7-22.44,9-24.33Z"/><path class="cls-1" d="M72.33,35.84C73,45.95,70.55,55.7,67.42,56.5Z"/><path class="cls-1" d="M67.42,60.59q6.74,0,3.07,3.88-3.33,3.73-4.91,1.84Z"/><path class="cls-1" d="M62.1,60.79q-4.49-4.31-4.7,2,1.42,5.46,4.09,3.48Z"/></svg>
