<svg xmlns="http://www.w3.org/2000/svg" viewBox="0 0 935.42 408.43"><title>ctr-logo-white</title><path d="M935.42,113.46c-1.66.06-3.32.17-5,.18-9.18.06-18.36,0-27.54.17-9.47.13-17.48,3.41-23.44,11.1-5.08,6.56-11.66,11.17-19,14.92-8.85,4.5-17.38,9.64-26.2,14.2-5.14,2.66-6.22,7.17-6.42,12.16a70.18,70.18,0,0,0,.41,10.41,70.1,70.1,0,0,1-1.35,23.4c-.54,2.37.09,5,.35,7.54s.88,5,1,7.55.25,2.91,2.92,3.23c3.53.42,4.07,1.32,3.49,4.83-.78,4.74-.31,9.32,2.89,13.19,1.68,2,1.77,4,.64,6.33-.66,1.38-.57,3.1-1,4.63s-.67,3.84-1.43,4c-1.36.32-3-.67-4.57-1.19a6.52,6.52,0,0,1-1.4-1.08,7.8,7.8,0,0,0-1.21,2c-.71,3.31-1.17,6.67-1.95,10-1.7,7.22-3.38,14.46-5.39,21.6-1,3.39-1.33,6.4,0,9.88a22,22,0,0,1-.05,15.84c-3.76,10.06-5.07,20.7-6,31.37a2.69,2.69,0,0,0,1.75,3.12c2,.78,2.54,2.23,2.44,4.27a43.44,43.44,0,0,0,.33,5.62,15.73,15.73,0,0,1-1.92,9.25A32.94,32.94,0,0,0,814,377.87c-.17,9.24,0,18.49,0,27.74v2.82H800c0-4.62.07-9.19,0-13.75-.14-8.05-.2-16.11-.67-24.15-.14-2.47-1.34-4.93-2.32-7.29-2.25-5.44-3.74-11-2.16-16.83a7.81,7.81,0,0,1,2.65-4.29c4.23-2.8,4.75-6.75,3.74-11a150.25,150.25,0,0,0-4.69-16.4,44.76,44.76,0,0,1-3-18.16,47.39,47.39,0,0,0-3.6-21.18,50.38,50.38,0,0,1-2.78-10.44c-1.42-8.27-1.16-16.63-.7-25a2.85,2.85,0,0,1,.29-1.21c2.33-4.18,2.93-8.71,3.33-13.41.24-2.77,1.54-5.45,2.41-8.16a69.19,69.19,0,0,1,2.39-6.88c2.18-4.9,1.84-9.14-.79-14.13-2.9-5.49-4.08-11.89-6-17.9-1.39-4.43-2.61-8.93-4.1-13.33-1.37-4.06-4.26-6.74-8-8.95-10.45-6.21-20.73-12.72-31.06-19.13-8.61-5.34-14.86-12.86-19.77-21.58a3,3,0,0,0-2.95-1.74c-11.12-.08-22.24-.26-33.36-.3-4.91,0-5.32-.23-5.76-5-.3-3.31-.48-6.63-.72-10.15,2,0,3.89,0,5.74,0,7,.11,13.9.32,20.86.32A23.55,23.55,0,0,0,720.09,96a12.73,12.73,0,0,1,9.56-.71c5.57,1.57,11.24,1.69,17,1.67,17.74-.09,35.47-.1,53.21-.18,3.87,0,4-.1,4.15-3.95.11-2.36,0-4.72-.05-7.09,0-1.22-.4-1.88-1.79-2-2.07-.14-4.11-.54-6.17-.83V68.14l8.11-.63V52h11.17c0,2.31,0,4.64,0,7s.11,4.46,0,6.68c-.06,1.5.55,1.92,1.94,1.93,2.06,0,4.13.2,6,.31,0,4.75,0,9.26-.06,13.77,0,.45-.86,1.13-1.43,1.27-1.62.39-3.3.48-4.92.84a1.71,1.71,0,0,0-1.13,1.11c-.3,3.87-.49,7.74-.75,12.24,2.45-.11,4.52-.29,6.59-.29,10.56,0,21.12,0,31.68.22,9.24.17,18.49,1.06,27.67-.65a15.81,15.81,0,0,0,4.37-1.32,12.12,12.12,0,0,1,9.3-.63c6,1.67,12,2.94,18.3,2.37a45.9,45.9,0,0,0,5-.52,33.59,33.59,0,0,1,14.68.17,21.87,21.87,0,0,0,2.9.31Zm-53.85-1.13H815.37V147a17.57,17.57,0,0,0,2.9-1.8c2.79-2.68,6.19-3.61,9.91-3.65A37.85,37.85,0,0,0,847.37,136c6.6-3.94,12.88-8.43,19.35-12.61,4.37-2.82,8.75-5.64,13.29-8.17A2.61,2.61,0,0,0,881.56,112.33Zm-78.5,1.31-69.92-1.18-.34.72a54.1,54.1,0,0,0,5.26,4.85c6,4.27,11.91,8.62,17.06,14,4.25,4.4,9.84,6.79,15.35,9.64a9.94,9.94,0,0,0,.85-2.59,15.37,15.37,0,0,1,3.87-9.79c3.41-4.21,7.5-6.67,13-6.9a4.05,4.05,0,0,1,4,1.78,23.81,23.81,0,0,0,10.86,8.55Z" style="fill:#000067;fill-rule:evenodd"/><text transform="translate(0 190.69)" style="font-size:224.34808349609375px;fill:#000067;font-family:Cinzel-Bold, Cinzel;font-weight:700">C</text><text transform="translate(168.76 194.03)" style="font-size:117.5px;fill:#000067;font-family:Cinzel-Bold, Cinzel;font-weight:700">H<tspan x="101.17" y="0" style="letter-spacing:-0.011993018617021277em">R</tspan><tspan x="187.53" y="0" style="letter-spacing:-0.000004155585106382979em">IST</tspan></text><text transform="translate(151 257.96)" style="font-size:74.07190704345703px;fill:#000067;font-family:Cinzel-Bold, Cinzel;font-weight:700">THE <tspan x="178.36" y="0" style="letter-spacing:-0.01199082930629711em">R</tspan><tspan x="232.81" y="0" style="letter-spacing:-0.004001337761914429em">E</tspan><tspan x="279.25" y="0" style="letter-spacing:-0.01998691284040288em">D</tspan><tspan x="339.1" y="0" style="letter-spacing:-0.003994745772191341em">E</tspan><tspan x="385.54" y="0">EM</tspan><tspan x="502.87" y="0" style="letter-spacing:-0.003994745772191341em">E</tspan><tspan x="549.31" y="0">R</tspan></text><text transform="translate(127 307.38)" style="font-size:41.750701904296875px;fill:#000067;font-family:SourceSansPro-Semibold, Source Sans Pro;font-weight:700;letter-spacing:-0.02499256260749499em">C<tspan x="23" y="0" style="letter-spacing:-0.06500171407227756em">A</tspan><tspan x="43.59" y="0">THOLIC CHURCH</tspan></text><text transform="translate(514 307.38)" style="font-size:39.6374397277832px;fill:#000067;font-family:SourceSansPro-Semibold, Source Sans Pro;font-weight:700;letter-spacing:-0.02500693647993685em">“We A<tspan x="96.2" y="0" style="letter-spacing:-0.03498507369606929em">r</tspan><tspan x="109.6" y="0">e </tspan><tspan x="135.83" y="0" style="letter-spacing:-0.06097750520969823em">F</tspan><tspan x="153.63" y="0">amily”</tspan></text></svg>