<svg xmlns="http://www.w3.org/2000/svg" viewBox="0 0 55 55"><style>.a{fill:#fff;}</style><path d="M51.4 45.3C46.7 40.7 44.4 35.2 44.4 29v-9c0-6.9-4.6-11.4-8.5-13.2 -1.1-0.5-2.3-0.9-3.5-1.2V5c0-2.8-2.2-5-5-5s-5 2.2-5 5v0.7c-1.1 0.3-2.1 0.7-3.1 1.1C14.8 8.8 10.4 13.7 10.3 20v9c0 6.4-2.3 11.9-6.7 16.3 -0.3 0.3-0.4 0.7-0.2 1s0.4 0.6 0.8 0.7l9.5 1.6c1.8 0.3 3.4 0.6 4.9 0.8C20.3 52.8 23.8 55 27.5 55c3.7 0 7.2-2.2 8.9-5.6 1.5-0.2 3.2-0.5 4.9-0.8l9.5-1.6c0.4-0.1 0.7-0.3 0.8-0.7C51.7 45.9 51.6 45.6 51.4 45.3ZM24.3 5c0-1.7 1.3-3 3-3s3 1.3 3 3v0.2c-2-0.3-4-0.3-6 0V5ZM27.5 53c-2.5 0-4.9-1.3-6.4-3.3 2.2 0.2 4.3 0.3 6.4 0.3 2.1 0 4.2-0.1 6.4-0.3C32.4 51.7 30 53 27.5 53ZM41 46.7c-1.9 0.3-3.7 0.6-5.3 0.8 0 0 0 0 0 0 -0.7 0.1-1.4 0.2-2.1 0.2 0 0 0 0 0 0 -0.6 0.1-1.3 0.1-1.9 0.2 -0.1 0-0.2 0-0.3 0 -0.5 0-1.1 0.1-1.6 0.1 -0.1 0-0.2 0-0.3 0 -1.2 0-2.5 0-3.7 0 -0.1 0-0.2 0-0.3 0 -0.5 0-1 0-1.6-0.1 -0.1 0-0.2 0-0.4 0 -0.6 0-1.2-0.1-1.8-0.2 0 0 0 0-0.1 0 -0.7-0.1-1.4-0.1-2.1-0.2 0 0 0 0 0 0 -1.7-0.2-3.4-0.5-5.4-0.8L6.3 45.3c4-4.6 6-10 6-16.3v-9c0-5.4 3.9-9.6 7.7-11.4 1.1-0.5 2.3-0.9 3.5-1.2 0 0 0 0 0 0 2.5-0.6 5.1-0.6 7.6-0.1 0 0 0 0 0 0 1.3 0.3 2.6 0.7 3.8 1.2 3.7 1.7 7.4 5.9 7.4 11.4v9c0 6 2.2 11.6 6.3 16.3L41 46.7Z" class="a"/><path d="M33.7 11.3c-3.9-1.8-8.6-1.8-12.5 0 -2.2 1-5.9 4-5.9 8.7 0 0.6 0.4 1 1 1 0 0 0 0 0 0 0.5 0 1-0.4 1-1 0-3.7 3-6 4.8-6.8 3.3-1.5 7.4-1.5 10.8 0 0.5 0.2 1.1 0 1.3-0.5C34.5 12.2 34.2 11.6 33.7 11.3Z" class="a"/></svg>
