<svg xmlns="http://www.w3.org/2000/svg" viewBox="0 0 58 58"><style>.a{fill:#FFF;}</style><path d="M25.1 47H33V26h8v-8h-8v-8h-8v8h-8v8h8L25.1 47zM19 20h8v-8h4v8h8v4h-8v21h-4l0-21H19V20z" class="a"/><path d="M50 7c0-0.1 0-0.2-0.1-0.3 0 0 0-0.1-0.1-0.1 0-0.1-0.1-0.1-0.1-0.2 0 0-0.1-0.1-0.1-0.1C49.6 6.2 49.6 6.2 49.6 6.2c-0.7-0.5-1.1-1.3-1.1-2.2s0.4-1.7 1.1-2.2c0.3-0.3 0.5-0.7 0.3-1.1C49.8 0.3 49.4 0 49 0H12C9.8 0 8 1.8 8 4c0 0.2 0 0.4 0.1 0.7C8 4.8 8 4.9 8 5v40.8C8 48.7 10.3 51 13.2 51H15v6c0 0.4 0.2 0.8 0.6 0.9 0.4 0.2 0.8 0.1 1.1-0.2l3-3c0.1-0.1 0.4-0.1 0.5 0l3 3C23.5 57.9 23.7 58 24 58c0.1 0 0.3 0 0.4-0.1C24.8 57.8 25 57.4 25 57v-6h24c0.6 0 1-0.4 1-1V7C50 7 50 7 50 7zM12 2h34.9c-0.1 0.3-0.3 0.7-0.3 1H40c-0.6 0-1 0.4-1 1s0.4 1 1 1h6.6c0.1 0.3 0.2 0.7 0.3 1H12c-0.1 0-0.3 0-0.4 0 -0.1 0-0.1 0-0.2-0.1 -0.1 0-0.1 0-0.2 0 -0.1 0-0.2-0.1-0.3-0.1 0 0 0 0 0 0 -0.1-0.1-0.2-0.1-0.3-0.2 0 0 0 0 0 0 -0.1 0-0.1-0.1-0.2-0.2C10.2 5 10 4.5 10 4 10 2.9 10.9 2 12 2zM23 54.6l-1.3-1.3c-0.5-0.5-1.1-0.7-1.7-0.7s-1.2 0.2-1.7 0.7L17 54.6V51h6V54.6zM48 49H24h-8 -2.8C11.4 49 10 47.6 10 45.8V7.5c0.1 0.1 0.3 0.2 0.4 0.2 0 0 0 0 0 0 0.2 0.1 0.5 0.2 0.7 0.2 0 0 0.1 0 0.1 0C11.5 8 11.7 8 12 8h36V49z" class="a"/></svg>
