<svg xmlns="http://www.w3.org/2000/svg" viewBox="0 0 108.46 116.8"><defs><style>.cls-1{fill:#fff;}.cls-2{fill:#505150;}</style></defs><title>calendar</title><rect class="cls-1" x="6" y="36" width="97.33" height="76.33"/><path class="cls-2" d="M106,19.16a8,8,0,0,0-5.86-2.48H91.77V10.43a10,10,0,0,0-3.06-7.37A10.06,10.06,0,0,0,81.34,0H77.17a10.05,10.05,0,0,0-7.36,3.06,10,10,0,0,0-3.07,7.37v6.26h-25V10.43a10,10,0,0,0-3.06-7.37A10.06,10.06,0,0,0,31.29,0H27.11a10.05,10.05,0,0,0-7.36,3.06,10,10,0,0,0-3.06,7.37v6.26H8.34a8,8,0,0,0-5.87,2.48A8,8,0,0,0,0,25v83.43a8,8,0,0,0,2.48,5.87,8,8,0,0,0,5.87,2.47h91.77a8.45,8.45,0,0,0,8.34-8.34V25A8,8,0,0,0,106,19.16ZM75.09,10.43a2,2,0,0,1,2.09-2.09h4.17a2,2,0,0,1,2.09,2.09V29.2a2,2,0,0,1-2.09,2.09H77.17a2,2,0,0,1-2.09-2.09ZM25,10.43a2,2,0,0,1,2.08-2.09h4.17a2,2,0,0,1,2.09,2.09V29.2a2,2,0,0,1-2.09,2.09H27.11A2,2,0,0,1,25,29.2Zm75.08,98H8.34V41.72h91.77Zm0,0"/></svg>
