<svg xmlns="http://www.w3.org/2000/svg" viewBox="0 0 187.58 363.86"><defs><style>.cls-1{fill:#fff;}</style></defs><title>chalice</title><path class="cls-1" d="M41.71,150.3a4.48,4.48,0,0,0,4.46,4.15,2.14,2.14,0,0,0,.33,0,4.48,4.48,0,0,0,4.13-4.78A112.24,112.24,0,0,0,46.78,127a4.48,4.48,0,0,0-8.62,2.42,101.69,101.69,0,0,1,3.55,20.89Zm0,0"/><path class="cls-1" d="M51.06,164.58a4.47,4.47,0,0,0-4.46-4.48h0a4.48,4.48,0,0,0-4.48,4.45c0,4.15-.1,8.41-.2,12.92-.13,5.8-.26,11.79-.26,18.58,0,18.19,8.49,29.78,15.59,36.27a4.44,4.44,0,0,0,6.3-.27,4.44,4.44,0,0,0-.27-6.29c-5.79-5.31-12.68-14.75-12.68-29.7,0-6.67.13-12.64.24-18.39.11-4.54.2-8.85.22-13.08Zm0,0"/><path class="cls-1" d="M183.11,103.6H4.47a4.48,4.48,0,0,0,0,9H9.08C22.71,136.27,22.39,151,21.83,177c-.13,5.63-.27,12-.27,19,0,19.9,7.85,38,22.11,51.11A72.77,72.77,0,0,0,78.5,264.78c-.07,5.35-.18,10.12-.3,13.59a26.53,26.53,0,0,0-4.39,39c-5.06,22-12.79,24.11-21.7,26.53-6.53,1.82-14,3.86-19.49,13.22a4.47,4.47,0,0,0,3.83,6.74H151.11A4.5,4.5,0,0,0,155,361.6a4.45,4.45,0,0,0,0-4.48c-5.55-9.36-13-11.4-19.51-13.22-8.89-2.42-16.62-4.57-21.68-26.53a26.52,26.52,0,0,0-4.38-39c-.12-3.47-.22-8.24-.32-13.59a72.82,72.82,0,0,0,34.83-17.61C158.16,234.1,166,216,166,196.06c0-7-.13-13.39-.26-19-.57-26-.89-40.77,12.73-64.47h4.63a4.48,4.48,0,0,0,0-9ZM100.54,281a4.52,4.52,0,0,0,2.2,3.67,17.69,17.69,0,0,1,8.69,15.19,17.44,17.44,0,0,1-5.58,12.87s0,0,0,0a17.51,17.51,0,0,1-12,4.74,4.47,4.47,0,0,0,0,8.93,26.26,26.26,0,0,0,12.33-3c6.51,23.51,17.79,26.58,27,29.12a40.76,40.76,0,0,1,7.07,2.41H47.43a40.65,40.65,0,0,1,7.07-2.41c10-2.74,22.41-6.18,28.54-35.61a4.43,4.43,0,0,0-1.31-4.18,17.41,17.41,0,0,1-5.58-12.87,17.67,17.67,0,0,1,8.68-15.19A4.46,4.46,0,0,0,87,281c.2-4.21.33-10.32.41-15q3.16.26,6.36.26c2.14,0,4.27-.09,6.36-.26.08,4.67.2,10.78.4,15Zm56.28-103.78c.11,5.58.25,11.91.25,18.81,0,38.38-32.16,61.34-63.28,61.34s-63.29-23-63.29-61.34c0-6.91.14-13.23.27-18.81.54-25.22.9-41.29-11.47-64.67h149c-12.37,23.38-12,39.45-11.46,64.67Zm0,0"/><path class="cls-1" d="M95.26,92.89a46.44,46.44,0,1,1,46.42-46.45A46.51,46.51,0,0,1,95.26,92.89Zm0-84.27a37.81,37.81,0,1,0,37.8,37.81A37.88,37.88,0,0,0,95.26,8.62Z"/><path class="cls-1" d="M108.62,43.09h-10v-10c0-4.32-6.7-4.32-6.7,0v10h-10c-4.32,0-4.32,6.7,0,6.7h10v10c0,4.32,6.7,4.32,6.7,0v-10h10C112.94,49.79,112.94,43.09,108.62,43.09Z"/></svg>
