<svg xmlns="http://www.w3.org/2000/svg" viewBox="0 0 409.61 409.6"><defs><style>.cls-1{fill:#fff;}</style></defs><title>donation</title><path class="cls-1" d="M332.27,42.91A34.46,34.46,0,0,1,353,63.7a6.83,6.83,0,1,0,12.87-4.56A47.6,47.6,0,0,0,336.84,30a6.83,6.83,0,0,0-4.57,12.87Zm0,0"/><path class="cls-1" d="M269.8,231.27a6.84,6.84,0,0,0,6.54,0C354,188.89,395.95,119.17,395.95,75.09A75.1,75.1,0,0,0,252.76,43.4a6.83,6.83,0,1,0,12.37,5.77A61.45,61.45,0,0,1,382.29,75.09c0,40.08-40.77,103.77-109.23,142.37-68.45-38.61-109.23-102.3-109.23-142.37a61.48,61.48,0,0,1,86-56.32,6.83,6.83,0,1,0,5.47-12.51A75.13,75.13,0,0,0,150.19,75.09c0,44.08,41.92,113.8,119.61,156.18Zm0,0"/><path class="cls-1" d="M88.75,259.41h54.61c8,0,21.5,10.16,33.45,19.11,15,11.24,29.12,21.85,41.64,21.85h41c10.36,0,15.52,4.7,15.65,4.82a6.83,6.83,0,1,0,9.65-9.65c-.91-.9-9.29-8.83-25.3-8.83h-41c-8,0-21.5-10.16-33.45-19.11-15-11.24-29.13-21.84-41.64-21.84H88.75a6.83,6.83,0,0,0,0,13.65Zm0,0"/><path class="cls-1" d="M34.13,365.23A10.24,10.24,0,1,0,23.9,375.47a10.25,10.25,0,0,0,10.24-10.24Zm0,0"/><path class="cls-1" d="M405.94,286.72A27.12,27.12,0,0,0,389.36,274a26.69,26.69,0,0,0-20.3,2.5l-78.57,38.24c-12.21,6.11-24.54,6.11-51.55,6.11-26.42,0-66.75-6.67-67.15-6.73a6.83,6.83,0,1,0-2.25,13.46c1.7.29,41.84,6.92,69.39,6.92,28.34,0,42.57,0,57.59-7.52l78.94-38.44a13.65,13.65,0,1,1,13.46,23.76l-92.3,57.45c-.2.12-19.89,12.53-64.52,12.53-38.7,0-98.49-32.95-99.35-33.41-.62-.31-15.42-7.54-44-7.54a6.83,6.83,0,1,0,0,13.65c24.83,0,37.61,6,37.64,6,2.58,1.43,63.48,35,105.72,35,49.28,0,71.15-14.2,71.87-14.68l92-57.24a27.32,27.32,0,0,0,10-37.3Zm0,0"/><path class="cls-1" d="M47.79,218.45h-41a6.83,6.83,0,1,0,0,13.65h41a6.84,6.84,0,0,1,6.83,6.83V389.12a6.84,6.84,0,0,1-6.83,6.82h-41a6.83,6.83,0,1,0,0,13.65h41a20.5,20.5,0,0,0,20.48-20.48V238.93a20.5,20.5,0,0,0-20.48-20.48Zm0,0"/></svg>
