<svg xmlns="http://www.w3.org/2000/svg" viewBox="0 0 372 304.6"><defs><style>.cls-1{fill:#fff;}</style></defs><title>open-book</title><path class="cls-1" d="M192,251.16V72a6,6,0,0,0-12,0V251.16a6,6,0,0,0,12,0Zm0,0"/><path class="cls-1" d="M366,26.93c-12.68,0-28.49-5.47-45.23-11.27C299.58,8.32,275.56,0,250.64,0c-28.83,0-46.42,12.63-56.09,23.23A73.28,73.28,0,0,0,186,34.69a72.82,72.82,0,0,0-8.55-11.46C167.77,12.63,150.19,0,121.36,0,96.44,0,72.42,8.32,51.23,15.66,34.49,21.45,18.68,26.93,6,26.93a6,6,0,0,0-6,6V274.6a6,6,0,0,0,6,6c14.7,0,31.44-5.79,49.15-11.93,20.3-7,43.31-15,66.2-15,19.63,0,35.52,6.5,47.23,19.32a6,6,0,0,0,8.86-8.09c-9.68-10.6-27.27-23.23-56.09-23.23-24.91,0-48.93,8.32-70.13,15.66C37,262.24,23.52,266.93,12,268.24V38.63C25.19,37.37,39.81,32.31,55.15,27c20.3-7,43.31-15,66.2-15,46.31,0,58.42,36.77,58.91,38.32a6,6,0,0,0,11.47,0C191.85,49.93,204,12,250.64,12c22.89,0,45.9,8,66.2,15,15.35,5.32,30,10.37,43.15,11.63V268.24c-11.52-1.31-25-6-39.23-10.91-21.2-7.34-45.21-15.66-70.13-15.66-28.83,0-46.42,12.63-56.09,23.23a6,6,0,1,0,8.86,8.09c11.71-12.82,27.6-19.32,47.23-19.32,22.89,0,45.9,8,66.2,15C334.56,274.8,351.3,280.6,366,280.6a6,6,0,0,0,6-6V32.93a6,6,0,0,0-6-6Zm0,0"/><path class="cls-1" d="M366,292.6c-12.68,0-28.49-5.47-45.23-11.27-21.2-7.34-45.21-15.66-70.13-15.66-27.07,0-44.23,11.14-54.24,21.28H175.59c-10-10.13-27.16-21.28-54.24-21.28-24.91,0-48.93,8.32-70.13,15.66C34.49,287.13,18.68,292.6,6,292.6a6,6,0,1,0,0,12c14.7,0,31.44-5.79,49.15-11.93,20.3-7,43.31-15,66.2-15,19.63,0,35.52,6.5,47.23,19.32a6,6,0,0,0,4.43,2h26a6,6,0,0,0,4.43-2c11.71-12.82,27.6-19.32,47.23-19.32,22.9,0,45.91,8,66.21,15C334.56,298.8,351.3,304.6,366,304.6a6,6,0,1,0,0-12Zm0,0"/></svg>
