<svg xmlns="http://www.w3.org/2000/svg" viewBox="0 0 822.1 822.1"><title>  commandments-circle</title><circle cx="411" cy="411" r="411" fill="#fff"/><path d="M540 182.9c-58.4 0-108.5 36.4-128.9 87.6-20.4-51.2-70.5-87.6-129-87.6-76.6 0-138.8 62.3-138.8 138.8V639.2H678.8V321.8c0-76.5-62.3-138.8-138.8-138.8ZM361.5 569.7H202.8a9.9 9.9 0 1 1 0-19.8H361.5a9.9 9.9 0 0 1 0 19.8Zm0-39.7H202.8a9.9 9.9 0 1 1 0-19.8H361.5a9.9 9.9 0 0 1 0 19.8Zm0-39.7H202.8a9.9 9.9 0 1 1 0-19.8H361.5a9.9 9.9 0 0 1 0 19.9Zm0-39.7H202.8a9.9 9.9 0 1 1 0-19.8H361.5a9.9 9.9 0 0 1 0 19.9Zm0-39.7H202.8a9.9 9.9 0 1 1 0-19.8H361.5a9.9 9.9 0 0 1 0 19.8Zm0-39.7H202.8a9.9 9.9 0 1 1 0-19.8H361.5a9.9 9.9 0 0 1 0 19.8Zm0-39.7H202.8a9.9 9.9 0 1 1 0-19.8H361.5a9.9 9.9 0 0 1 0 19.8Zm257.8 238H460.7a9.9 9.9 0 1 1 0-19.8H619.3a9.9 9.9 0 1 1 0 19.8Zm0-39.7H460.7a9.9 9.9 0 1 1 0-19.8H619.3a9.9 9.9 0 1 1 0 19.8Zm0-39.7H460.7a9.9 9.9 0 1 1 0-19.8H619.3a9.9 9.9 0 1 1 0 19.9Zm0-39.7H460.7a9.9 9.9 0 1 1 0-19.8H619.3a9.9 9.9 0 1 1 0 19.9Zm0-39.7H460.7a9.9 9.9 0 1 1 0-19.8H619.3a9.9 9.9 0 1 1 0 19.8Zm0-39.7H460.7a9.9 9.9 0 1 1 0-19.8H619.3a9.9 9.9 0 1 1 0 19.8Zm0-39.7H460.7a9.9 9.9 0 1 1 0-19.8H619.3a9.9 9.9 0 1 1 0 19.8Zm0 0" fill="#222060"/></svg>