<svg xmlns="http://www.w3.org/2000/svg" viewBox="0 0 822.1 822.1"><circle cx="411" cy="411" r="411" fill="#fff"/><path d="M562.9 315.8H358.6c0 0-10.9-1.5-10.5-10.6 0.2-5.1 3-10.5 10.5-10.5h204.7c0 0 14.4-1.2 14.2 10.5C577.5 309.6 577.2 315.8 562.9 315.8L562.9 315.8zM562.9 369H358.6c0 0-10.9-1.5-10.5-10.6 0.2-5.1 3-10.5 10.5-10.5h204.7c0 0 14.4-1.1 14.2 10.5C577.5 362.7 577.2 369 562.9 369L562.9 369zM561.1 422.4H356.8c0 0-10.9-1.5-10.5-10.6 0.2-5.1 3-10.5 10.5-10.5h204.8c0 0 14.4-1.2 14.2 10.5C575.8 416.1 575.4 422.4 561.1 422.4L561.1 422.4zM561.1 473.8H356.8c0 0-10.9-1.5-10.5-10.5 0.2-5.1 3-10.5 10.5-10.5h204.8c0 0 14.4-1.2 14.2 10.5C575.8 467.5 575.4 473.8 561.1 473.8L561.1 473.8zM561.1 527.4H356.8c0 0-10.9-1.5-10.5-10.5 0.2-5.1 3-10.5 10.5-10.5h204.8c0 0 14.4-1.1 14.2 10.5C575.8 521.1 575.4 527.4 561.1 527.4L561.1 527.4zM624.9 182.9H299c-19 0-34.4 15.5-34.4 34.4V248h0.2v277.6c0 0 2 15.2-5.5 31.6 -0.8 1.8-1.8 3.5-2.8 5.3 -0.1 0.2-0.2 0.4-0.3 0.6 0 0-0.1 0-0.1 0.1 -4.6 7.6-11.9 14.8-23.3 19.3 8.1-18.2 8.3-33 8.3-54.4 -0.1-15.8-0.1-172.6-0.1-254.5 -10.4-0.1-22.8-0.1-36.7-0.2 -33.9-0.2-40.3 28.2-41.4 41.3v246.2c0 0 0.2 12.8 2.5 21.9 3.2 11.1 8.5 21.8 16.5 33.4 12.6 18.5 36.5 22.3 42.4 23h406.6c3.6-0.2 8-0.8 11.5-2.5 10.2-5.9 17.1-16.9 17.1-29.6V217.3C659.3 198.4 643.9 182.9 624.9 182.9L624.9 182.9zM624.9 182.9" fill="#000067"/></svg>