<svg xmlns="http://www.w3.org/2000/svg" viewBox="-475.2 -15.1 822.1 822.1"><circle cx="-64.1" cy="395.9" r="411" fill="#222060"/><path d="M141.4 591.7H68V376.4h44c8.1 0 14.7-6.6 14.7-14.7v-44h14.7c8.1 0 14.7-6.6 14.7-14.7 0-8.1-6.6-14.7-14.7-14.7 -25.2 0-32.6 0-34.4 0 -0.4 0-0.5 0-0.6 0 -1 0-3.4 0-9.1 0v-44c0-5.6-3.1-10.6-8.1-13.1l-51.1-25.5c-2.2-19.5-18.6-34.7-38.7-34.7 -21.6 0-39.1 17.6-39.1 39.2 0 21.6 17.6 39.2 39.1 39.2 12.4 0 23.3-5.9 30.5-14.8l38.1 19v35h-264.3v-35l38.1-19c7.2 9 18.1 14.9 30.5 14.9 21.6 0 39.2-17.6 39.2-39.2 0-21.6-17.6-39.1-39.2-39.1 -20.1 0-36.5 15.3-38.7 34.7l-51.1 25.5c-5 2.5-8.1 7.6-8.1 13.1v44c-5.7 0-8.1 0-9.1 0 -0.4 0-0.6 0-0.6 0 -1.8 0-9.2 0-34.4 0 -8.1 0-14.7 6.6-14.7 14.7 0 8.1 6.6 14.7 14.7 14.7h14.7v44c0 8.1 6.6 14.7 14.7 14.7h44v215.3h-73.4c-8.1 0-14.7 6.6-14.7 14.7 0 8.1 6.6 14.7 14.7 14.7h411.1c8.1 0 14.7-6.6 14.7-14.7C156.1 598.3 149.5 591.7 141.4 591.7zM-225.6 347v-29.4h323V347H-225.6L-225.6 347zM-34.8 464.5h-14.7v73.4c0 8.1-6.6 14.7-14.7 14.7 -8.1 0-14.7-6.6-14.7-14.7v-73.4h-14.7c-8.1 0-14.7-6.6-14.7-14.7 0-8.1 6.6-14.7 14.7-14.7h14.7v-14.7c0-8.1 6.6-14.7 14.7-14.7 8.1 0 14.7 6.6 14.7 14.7v14.7h14.7c8.1 0 14.7 6.6 14.7 14.7C-20.1 457.9-26.6 464.5-34.8 464.5z" fill="#F2F2F2"/></svg>