<svg xmlns="http://www.w3.org/2000/svg" viewBox="0 0 236.8 236.8"><path d="M118.4 0C53 0 0 53 0 118.4c0 65.4 53 118.4 118.4 118.4 65.4 0 118.5-53 118.5-118.4C236.8 53 183.8 0 118.4 0L118.4 0zM177.3 91.8l0.1 3.8c0 38.5-29.3 82.9-83 82.9 -16.5 0-31.8-4.8-44.7-13.2 2.2 0.3 4.6 0.5 6.9 0.5 13.7 0 26.2-4.7 36.2-12.5 -12.8-0.2-23.5-8.7-27.2-20.3 1.8 0.4 3.6 0.5 5.5 0.5 2.7 0 5.3-0.4 7.7-1 -13.3-2.7-23.3-14.5-23.3-28.5v-0.4c3.9 2.2 8.4 3.5 13.2 3.6 -7.8-5.2-12.9-14.2-12.9-24.2 0-5.3 1.4-10.4 4-14.7C74 86.1 95.5 97.6 119.8 98.9c-0.5-2.1-0.7-4.3-0.7-6.7 0-16 13-29.1 29.1-29.1 8.4 0 16 3.5 21.3 9.2 6.6-1.3 12.9-3.7 18.5-7 -2.2 6.8-6.8 12.5-12.9 16.1 5.9-0.7 11.6-2.3 16.8-4.6C188 82.6 183 87.7 177.3 91.8L177.3 91.8zM177.3 91.8" fill="#fff"/></svg>