<svg id="Layer_1" data-name="Layer 1" xmlns="http://www.w3.org/2000/svg" viewBox="0 0 1216.38 627.39"><defs><style>.cls-1{fill:#8b1d1e;}</style></defs><title>footer-logo</title><path class="cls-1" d="M49.39,453.69h59.46q0,6.47,7.63,20.48t8.35,17.06q-16-17.78-31-25.42t-37.63-7.63q-16.71,0-24.7,6.83a21.71,21.71,0,0,0-8,17.24q0,18.32,27.84,25T106.16,520q29.1,11.14,29.1,39.34,0,22.27-14.19,37.81t-47.6,15.54a156.24,156.24,0,0,1-34.76-3.59A54.5,54.5,0,0,1,11.5,593.79Q0,582.12,0,559.49a51.26,51.26,0,0,1,2-15.26,17,17,0,0,1,8.44-9.88,15.32,15.32,0,0,0-3.68,7.27,50.89,50.89,0,0,0-.81,9.79q0,21.56,22,35.3t56,13.74q21.19,0,31-7.54t9.79-23.17q0-23-28.38-31.62L43.47,525.9Q14.91,516,14.91,489.79a35.39,35.39,0,0,1,10.24-25.51Q35.38,453.69,49.39,453.69Z"/><path class="cls-1" d="M167.22,493.56H182q-2.33,5.2-6.56,6.36a37,37,0,0,1-8.17,1.34v54.28q0,3.94,3.06,3.94,2.51,0,6.37-2.38a64.65,64.65,0,0,0,9.25-7.32,56.36,56.36,0,0,1-11.86,15.59q-6.82,6.15-13.83,6.14-5.39,0-7.45-4.38t-2.07-15.68V501.32H140.1q.54-4.12,9.61-9.23t17.51-26.59Z"/><path class="cls-1" d="M210.33,553.56q3.23,0,8.08,4.1a43.32,43.32,0,0,1,8.26,9.26l-14.91,14.79a95.53,95.53,0,0,0-8.17-7.13,99.79,99.79,0,0,0-8.35-5.52,62.94,62.94,0,0,1,7.09-9Q207.82,553.93,210.33,553.56Z"/><path class="cls-1" d="M349.9,451q12.39,0,19.39,9.07a61.12,61.12,0,0,1,10.42,21.83q3.41,12.76,6.38,23.35t5.48,17.6q3.4-11.5,7-23.17,7.36-20.3,18.77-34.49T445.64,451q7.91,0,12.67,3.05a18.92,18.92,0,0,1,7.09,8.09,22.51,22.51,0,0,0-8.26-5.84,26.21,26.21,0,0,0-9.88-1.88q-11.14,0-17.42,10.44a43.49,43.49,0,0,0-6.29,22.86q0,15.31,8.72,41.41a191.09,191.09,0,0,0,25,49.33q16.26,23.22,38,32H478.51q-31.61,0-47.24-25.77t-20.83-60.36q-1.26-15.13-2.52-30.27-4.85,9.52-11.49,32.87t-9.52,36.46a138.64,138.64,0,0,1-8.71-19.31q-4.77-12.48-10.78-30.18t-8.53-24.88q0,15.63-6.82,45.17t-19.76,52.9q-12.93,23.35-30.54,23.35-11,0-18.86-10.24T275,576a37.64,37.64,0,0,0,12.12,9.61,34.37,34.37,0,0,0,16.08,3.86q18.85,0,30.27-19.76a140.45,140.45,0,0,0,16.07-44q4.67-24.25,4.67-38.08,0-17.42-3.59-24.43t-15.81-7q-22.09,0-35,11.32t-12.93,30.72q0,14.37,5.57,25.15,6.11,8.44,12.4,16.71,0,2.34-3.86,4.13A16.21,16.21,0,0,1,294.4,546a57.5,57.5,0,0,1-11-12.57q-5.48-8.08-5.48-26.4,0-27.66,18.77-41.85T349.9,451Z"/><path class="cls-1" d="M520.72,493.75V560.2q.18,2.34,2.33,2.34a8.68,8.68,0,0,0,3.86-1.17q2.25-1.17,7.28-4a30,30,0,0,1-7.82,9.52q-5.49,4.67-10.51,4.67-2.88,0-7.45-4a13.29,13.29,0,0,1-4.58-10.6v-9.7q-11,11-18.5,17.61t-13.11,6.64q-6.1,0-10.87-7.18t-4.76-19.22q0-24.43,13.47-37.9t35-13.47Zm-46.88,37.72q0,8.8,2.87,12.93a9.12,9.12,0,0,0,7.91,4.13,20,20,0,0,0,9.25-2.61,50.68,50.68,0,0,0,10-7.09V498.77q-13.47,0-21.73,10A34.62,34.62,0,0,0,473.84,531.47Z"/><path class="cls-1" d="M553.46,492.85a6,6,0,0,1,6.34,4.76q1.34,4.76,1.34,16.62v8.08q6.85-9.52,13.89-19,8.84-10.42,17.5-10.42a9.27,9.27,0,0,1,7.67,3.5,13.26,13.26,0,0,1,2.8,8.54q0,6.11-6.82,13.56t-13.47,13.92a31.31,31.31,0,0,0,1.76-6,35.28,35.28,0,0,0,.93-7.45,13.67,13.67,0,0,0-1.35-6.47,4.78,4.78,0,0,0-4.58-2.51q-3.41,0-8.53,6.2t-9.79,12.48V562a70,70,0,0,1-7.11,5.81,20.38,20.38,0,0,1-9.41,3.66V512.24q0-3.76-3.59-3.76a8.14,8.14,0,0,0-3.77,1.17,22.21,22.21,0,0,0-4.85,3.86q2.85-5.93,10.17-13.29T553.46,492.85Z"/><path class="cls-1" d="M628.31,522.31a281.18,281.18,0,0,1,20.3-20.66q9-8.08,17.24-8.09h16.53a110.15,110.15,0,0,0-24.7,11.17,128.9,128.9,0,0,0-20.93,15.12q12.58,2.35,20.66,21.07t16.7,18.73a11.12,11.12,0,0,0,4.22-1,32,32,0,0,0,6-3.64,34.11,34.11,0,0,1-8.53,11.08q-6,5.44-11.95,5.44-8.62,0-17-19.3t-18.59-20.39v22a17.56,17.56,0,0,1-5,12.27,16.26,16.26,0,0,1-12.4,5.41V481.93q0-12.95,7-22a22.05,22.05,0,0,1,18.32-9.08h16.17q-5.75,10.42-14.91,11t-9.16,3.32Z"/><path class="cls-1" d="M812.6,449.92v3.23c1.32-.12,2.45-.18,3.41-.18a108.66,108.66,0,0,1,25.15,3.32q13.83,3.32,25.33,14.28T878,502.73q0,19-10.6,28.56t-26.77,9.52q-10.06,0-16.08-3.87t-6-8q8.09,6.1,10.51,7.09t8,1q9.88,0,16.89-8.53t7-27.22q0-25.69-15.45-34.31a67.45,67.45,0,0,0-33.41-8.62v98.25q0,11,12.12,17.87t12.12,13.92a15,15,0,0,1-.18,2.69A18.09,18.09,0,0,0,825,581.31q-7.37-2.25-19-2.25-22.82,0-36.1,11.36t-13.29,23.26q0,4.33,1.35,6.4t8.71,7.12q-2,.18-3.06.18a23.57,23.57,0,0,1-10.87-2.52q-4.94-2.52-4.94-9.71,0-9.35,10.78-20.49,10.06-9.36,20.12-18.52,11-11,11-19.42V500.44q0-8.1,3.41-21.84t11.67-20.24q-38.8,0-52.45,10.06t-13.65,25.86q0,18.33,9.7,31t28.91,21.28q-23.17,0-35.38-11.86t-12.21-32.87q0-25.14,21.1-36.91T809,453.15Z"/><path class="cls-1" d="M948.93,493.75V560.2c.12,1.56.9,2.34,2.33,2.34a8.71,8.71,0,0,0,3.87-1.17q2.24-1.17,7.28-4a30,30,0,0,1-7.81,9.52q-5.49,4.67-10.51,4.67-2.88,0-7.45-4A13.28,13.28,0,0,1,932,557v-9.7q-11,11-18.5,17.61t-13.11,6.64q-6.11,0-10.87-7.18t-4.76-19.22q0-24.43,13.47-37.9t35-13.47ZM902,531.47q0,8.8,2.88,12.93a9.12,9.12,0,0,0,7.9,4.13,20,20,0,0,0,9.25-2.61,50.66,50.66,0,0,0,10-7.09V498.77q-13.47,0-21.73,10A34.6,34.6,0,0,0,902,531.47Z"/><path class="cls-1" d="M981.67,492.85a6,6,0,0,1,6.34,4.76q1.33,4.76,1.33,16.62v8.08q6.86-9.52,13.89-19,8.84-10.42,17.5-10.42a9.27,9.27,0,0,1,7.67,3.5,13.27,13.27,0,0,1,2.8,8.54q0,6.11-6.82,13.56t-13.47,13.92a31.35,31.35,0,0,0,1.77-6,35.29,35.29,0,0,0,.93-7.45,13.65,13.65,0,0,0-1.35-6.47,4.77,4.77,0,0,0-4.58-2.51q-3.41,0-8.53,6.2t-9.79,12.48V562a70.67,70.67,0,0,1-7.11,5.81,20.41,20.41,0,0,1-9.42,3.66V512.24q0-3.76-3.59-3.76a8.15,8.15,0,0,0-3.77,1.17,22.16,22.16,0,0,0-4.85,3.86q2.86-5.93,10.17-13.29T981.67,492.85Z"/><path class="cls-1" d="M1057.24,492.85q5.57,0,7.82,4.31a21.94,21.94,0,0,1,2.24,10.24v50.47q.72,5,3.77,5,2.16,0,5-2.33l3.77-3.05q-4.31,7.33-8.71,10.67a16.07,16.07,0,0,1-10,3.34,8.9,8.9,0,0,1-7.54-3.94,15.39,15.39,0,0,1-2.87-9.32V505.41c0-2.27-.84-3.4-2.51-3.4q-3.42,0-10.6,6.11.9-3.41,7.37-9.34T1057.24,492.85Zm2.34-39.16a10,10,0,0,1,7.54,3.23q3.05,3.23,3.05,8.8a11.27,11.27,0,0,1-5.39,9.88q-5.39,3.6-9.7,3.6-3.77,0-5.66-4a22.08,22.08,0,0,1-1.89-9.43q0-6.83,3.23-9.43T1059.58,453.69Z"/><path class="cls-1" d="M1137,492.27a39.14,39.14,0,0,0-4.49,9.72q-1.44,4.86-2.51,8.82-5.75-6.51-10.78-9.12a25,25,0,0,0-11.68-2.6q-6.65,0-9.34,2.34a8,8,0,0,0-2.69,6.32q0,4.52,13.47,10.21t21.28,11.29q7.81,5.6,7.82,17.88,0,14.46-8.89,19.15t-22.54,4.7q-13.83,0-17.6-5.12t-3.77-25.05a45.11,45.11,0,0,0,11.13,16.88,25.54,25.54,0,0,0,18.5,7.55q12.39,0,12.39-11.2,0-5.42-13.11-11.38T1093.7,531.1q-7.36-5.6-7.36-18.78,0-11.38,7-15.71t18.68-4.34a39.06,39.06,0,0,1,8.44,1.28,50.09,50.09,0,0,0,6.28,1.28,21.73,21.73,0,0,0,4.85-.46A27.81,27.81,0,0,0,1137,492.27Z"/><path class="cls-1" d="M1204,510.09v50.28q.18,2.35,2.16,2.35,2.69,0,10.24-5.39a29.73,29.73,0,0,1-7.45,9.83,16.26,16.26,0,0,1-11.05,4.36q-6.1,0-8.62-3.87a17,17,0,0,1-2.51-9.46V519.28a18.68,18.68,0,0,0-.72-5.86q-.72-2.07-4.49-2.07-5.92,0-12.39,8.8t-6.47,12.4v21.29a17.55,17.55,0,0,1-5,12.27,16.25,16.25,0,0,1-12.39,5.41V481.93q0-12.95,7-22a22.05,22.05,0,0,1,18.32-9.08h16.17q-5.75,10.42-14.91,11t-9.16,3.32v58q8.95-15.09,17.08-22.45t13.68-7.36q6.44,0,8.5,3.59T1204,510.09Z"/><polygon class="cls-1" points="588.02 218.91 593.57 224.46 601.13 224.46 601.13 216.89 595.59 211.34 602.98 203.95 610.38 211.34 604.83 216.89 604.83 224.46 612.4 224.46 617.95 218.91 625.34 226.31 617.95 233.7 612.4 228.15 604.83 228.15 604.83 235.72 610.38 241.27 602.98 293.48 595.59 241.27 601.13 235.72 601.13 228.15 593.57 228.15 588.02 233.7 580.62 226.31 588.02 218.91"/><path class="cls-1" d="M427,0V88c0,191,83.16,269.48,176,297.33C695.82,357.48,779,279,779,88V0ZM637.52,60.21c.47-1.25,1.69-2.09,2.41-2,1.66.23,2.32,1.69,2.17,3.88L640.44,60c-.2.55-.22,1-.45,1.15a22.11,22.11,0,0,1-2.07,1.16C637.76,61.56,637.35,60.67,637.52,60.21Zm-12.44,14.2c1-.81,2.1-1.41,3.07-2.21a7.07,7.07,0,0,0,1.57-1.8c.89-1.48,1.66-3,2.75-5-.64-1.6.22-3.31,3.07-4.44-.82,1.89-.12,2.56,1.71,2.21,3.38-.65,6.2.13,8.3,3.54.33-2.15,1.28-1.17,2.18-.41.2-1.92-.55-2.74-1.91-3.14-.57-.17-1.4-.15-1.66-.53a8,8,0,0,1-1.33-3.05c0-.27,1.32-1.07,2.07-1.12a15,15,0,0,1,3.34.48,3.35,3.35,0,0,1-1.49,1c2.36,1.08,4.68,2,6.88,3.19,2,1.08,4,2.39,6.06,3.68.11,3.69.72,4.44,4.85,5.4l-1,2c1.21-.22,2.38-.09,2.79-.59a4,4,0,0,0,1-2.92c-1-4.32-2.19-8.58-3.36-13h1.41c0-.58.1-1.21.16-1.85.32-3.46,1.81-6.07,5.22-7.36a52.39,52.39,0,0,1,7.74-.89c2.14.58,4.26,1.24,6.41,1.74,7.86,1.81,15.69.8,23.5-.41.29,0,.84-.25,1.5-.4a15,15,0,0,1-1.65,2.3c3.28-.42,7.14-1,10.31-1.38.16.33-1.29,1.67-2.3,2.15l20.68,2.5a29.55,29.55,0,0,0-4.14,3l5.93.35c0,.3-3.37,2.36-5,3.09v6.6L729.23,64A29.53,29.53,0,0,0,732,68.66h-7.25l.7,2.56c-4.92-2.16-10.54-1.6-14-6.35,3,4.56,6.11,5.84,10.19,7.18-3.56,1.4-6.62.11-9.63-1.54a20.29,20.29,0,0,0,3.91,3c-1.61,2.1-3.74,1.57-5.64,1.17-1.31-.27-2.36-.75-3.77,0-.65.35-2-.29-2.85-.72a17.45,17.45,0,0,1-2.5-1.76c-.18.16,1,2.45,2,3.69-3.72.65-6.17-1.06-8.2-3.84-.19.2,1.1,2.87,2,4.15-2.52.81-4.42-.67-6.63-1.61l.7,2.74A35.38,35.38,0,0,0,687.47,76a24.12,24.12,0,0,0-5.38-1c-3.22,0-3.75.77-2.87,3.91a5.14,5.14,0,0,0-1.43.21,16.52,16.52,0,0,0-1.86,1.16c.67.42,1.3,1.09,2,1.2a6.55,6.55,0,0,0,2.85-.3c8.12-2.54,15.82-1,23.47,2.06,6.23,2.5,10.73,6.3,13.28,12.87,1.22,3.15,4.38,5.73,7.09,8.06a4.3,4.3,0,0,0,6.34-.86c1.5-2,1.52-6.36-.17-7.71s-3.57-2.41-5.73-3.84l2.14-1.1c-2.12,0-3.14-1.2-3.21-3.24a45.39,45.39,0,0,1,.26-6.81l1.38,3.12c-.07-5.11-.07-5.11,1.45-5.93-1,2.22.34,3.26,1.46,4.59a22.72,22.72,0,0,1,2.27,4.22l-.35-3.83c.64.6,1.17.86,1.28,1.24.9,3.15,2.81,6.23.69,9.63-.27.43,0,1.22.09,1.83a31,31,0,0,1,.81,5.46,5.82,5.82,0,0,1-8.08,5.3c-2.3-.93-4.35-2.47-7-4a12.4,12.4,0,0,0,1,2c2.89,3.49,6.38,6,11,6.59l1.1.15c4.43.51,4.53.73,4,5.09-.37,3.37-.09,6.85-.84,10.11-.45,1.93-2.14,3.75-3.69,5.17-.93.86-2-.23-2.47-2.52-1.19.59-.27,3.93-2.84,2.42-1.71-1-.93-2.52-.37-4.06l-1.62,2.34c-1.62-1.8-1.17-3.69,1.16-4.38.78-.23,1.59-.38,2.39-.56,1.68-.39,2.9-1.32,2.94-3.14s-.78-3.64-2.8-4a33.47,33.47,0,0,0-6.18-.41,22.22,22.22,0,0,0-4,.49c-4.92.89-8.54-.68-10.87-5.27-1.42-2.81-1.7-2.91-4.28-.89a41.35,41.35,0,0,0-6.12,6c-1.23,1.46-1.09,3.27.21,4.92a2.77,2.77,0,0,1-1.72,4.65,6.81,6.81,0,0,0-4.8,2.88,3.17,3.17,0,0,1-1.71,1.29,12.64,12.64,0,0,1-3-.1l.59-3c-.47.77-.78,1.31-1.12,1.82s-.69,1.36-1.21,1.55a1.79,1.79,0,0,1-1.56-.83,3.38,3.38,0,0,1,0-2.27c.21-.54,1-.87,1.73-1.52-2.42,0-2.48,2-3.32,3.23a2.47,2.47,0,0,1-.9-3.69c.77-1.41,1.74-2.72,3.87-2.25a20.91,20.91,0,0,0,5.46.45c2-.1,2.65-1.5,1.69-3.31s-1.88-3.38-2.87-5c-2.49-4.16-2.21-6,1.49-9.25a4.49,4.49,0,0,0,1.11-1.32c-5.5,3.82-11,7.44-18.49,5.56a23.24,23.24,0,0,0,.5,11.86,7.25,7.25,0,0,1-3.08,8.61c-1.59,1-3,.21-4-2.5l-.71,3.34H662l-.77-3.64L659.81,131c-1.82-1.73-1.53-3.63.79-4.55,1.31-.52,2.72-.78,4-1.32,1.65-.7,2.59-2.06,1.7-3.75-1.81-3.45-3.87-6.76-6-10.35l-1.06,1.37c-1.14-.33-1.56-2.78-2.78-1.07l-4.87-4.09c.72,3.17,3.73,5.46,1.32,8.95,0-2.52-1.24-3.07-3-3-1.5,0-2.29.54-2.19,2.29.14,2.63-.11,2.79-2.93,2.94,1.87-3.1-.21-4.55-2.24-6.25a52.73,52.73,0,0,1-4.76-5.17l-2.17,1.84-1.07-4.91-3.79,2.54c1.1-1.94,2.14-3.75,1-6.53l-2.57,2.94a25,25,0,0,1,.33-4c.38-1.47.54-2.6-1.35-3a10.69,10.69,0,0,1-2-.87l.75-.75c.81-.76,2.54-.56,3-1.33s-.36-2-.62-3.13c3.86.21,5.81-1.13,7.06-4.9.12-.36-.51-1.38-.76-1.37a10.12,10.12,0,0,0-3.62.64c-1.71.78-3.08,1-4.18-.86a4.9,4.9,0,0,0-1.13-1.06c-1.45-1.24-2.71-2.48-.76-4.37.28-.28.16-1,.22-1.48a6.25,6.25,0,0,0-1.78,2.58C623.55,76.85,623.77,75.52,625.08,74.41ZM621.54,126a2.8,2.8,0,0,1,3.05-1.2c3.61.58,6-.67,7.57-3.94,1.89-3.91,4-7.73,6-11.62l4.29,4.75c-1.81,3.35-3.55,6.57-5.31,9.79a17.45,17.45,0,0,1-1.07,1.65,30.67,30.67,0,0,0-2.85,4.1c-1,2.05-2.79,1.86-4.37,1.76-.78,0-1.49-1.26-2.37-2.08-.62.37-.62,3.09-2.56,1.5-.72-.59-.6-2.22-.84-3.28-.28.14-1-.37-1.93,1A3.87,3.87,0,0,1,621.54,126ZM520,72.26s8.61-8,20.84-8,25,10.19,33.13,10.19l-.57,47.68c-8.09,0-20.32-10.85-32.55-10.85S520,120.64,520,120.64Zm-22-8c12.23,0,20.84,8,20.84,8v48.38s-8.61-9.34-20.84-9.34-24.46,10.85-32.55,10.85l-.57-47.68C472.93,74.42,485.74,64.22,498,64.22ZM460.44,80.35a5.76,5.76,0,0,1,1.65-.7v47.79c8.64,0,21.71-11.59,34.76-11.59a37.63,37.63,0,0,1,22.26,7.73H520a37.63,37.63,0,0,1,22.26-7.73c13.06,0,26.12,11.59,34.76,11.59V79.65a5.77,5.77,0,0,1,1.66.7c1.66,1.29,1.47,26.85,1.47,30.17s0,19.13-1.47,20-55-5.7-55-5.7,1.1,2.58-3.68,2.58h-.92c-4.78,0-3.68-2.58-3.68-2.58s-53.53,6.62-55,5.7-1.47-16.74-1.47-20S458.78,81.63,460.44,80.35Zm188.22,276a22.16,22.16,0,0,1-4.57.5c-5.38,0-10.44-1.79-13.7-4.71-3.26,2.92-8.32,4.71-13.7,4.71s-10.45-1.79-13.7-4.71c-3.26,2.92-8.32,4.71-13.7,4.71s-10.45-1.79-13.7-4.71c-3.26,2.92-8.32,4.71-13.7,4.71a21.9,21.9,0,0,1-4.62-.53q-6.55-3.6-12.9-7.71a9.58,9.58,0,0,0,1.88-2l1.94-2.83,1.95,2.83c2.17,3.15,6.78,5.19,11.75,5.19s9.59-2,11.76-5.19l1.95-2.83,1.95,2.83c2.17,3.15,6.78,5.19,11.76,5.19s9.59-2,11.76-5.19l1.95-2.83,1.95,2.83c2.17,3.15,6.78,5.19,11.76,5.19s9.59-2,11.76-5.19l1.95-2.83,1.95,2.83c2.17,3.15,6.78,5.19,11.76,5.19s9.59-2,11.76-5.19l1.95-2.83,1.94,2.83a9.61,9.61,0,0,0,1.88,2Q655.24,352.72,648.66,356.34Zm29.78-19.88a23.59,23.59,0,0,1-6.95,1.05c-5.38,0-10.44-1.79-13.7-4.72-3.26,2.92-8.32,4.72-13.7,4.72s-10.44-1.79-13.7-4.71c-3.26,2.92-8.32,4.71-13.7,4.71s-10.45-1.79-13.7-4.71c-3.26,2.92-8.32,4.71-13.7,4.71s-10.45-1.79-13.7-4.71c-3.26,2.92-8.32,4.71-13.7,4.71s-10.44-1.79-13.7-4.71c-3.26,2.92-8.32,4.71-13.7,4.71a23.57,23.57,0,0,1-6.94-1.05q-4.85-3.89-9.53-8.15a9,9,0,0,0,.83-1l1.95-2.83,1.94,2.83c2.17,3.16,6.78,5.19,11.76,5.19s9.59-2,11.76-5.19l1.94-2.83,1.95,2.83c2.17,3.16,6.78,5.19,11.75,5.19s9.59-2,11.76-5.19l1.95-2.83,1.95,2.83c2.17,3.16,6.78,5.19,11.76,5.19s9.59-2,11.76-5.19l1.95-2.83,1.95,2.83c2.17,3.16,6.78,5.19,11.76,5.19s9.59-2,11.76-5.19l1.95-2.83,1.95,2.83c2.17,3.16,6.78,5.19,11.76,5.19s9.59-2,11.76-5.19l1.95-2.83,1.94,2.83c2.17,3.16,6.79,5.19,11.76,5.19s9.59-2,11.76-5.19l1.95-2.83,1.95,2.83a9,9,0,0,0,.83,1Q683.29,332.57,678.44,336.46Zm23.68-22.36c-4.56-.9-8.32-3.15-10.35-6.1-2.65,3.86-8.29,6.54-14.8,6.54s-12.15-2.67-14.8-6.54c-2.65,3.86-8.29,6.54-14.8,6.54s-12.14-2.67-14.8-6.54c-2.66,3.86-8.29,6.54-14.8,6.54S605.64,311.86,603,308c-2.65,3.86-8.29,6.54-14.8,6.54S576,311.86,573.39,308c-2.65,3.86-8.29,6.54-14.8,6.54s-12.14-2.67-14.8-6.54c-2.65,3.86-8.29,6.54-14.8,6.54s-12.14-2.67-14.8-6.54c-2,2.95-5.79,5.2-10.35,6.1-26.6-29.51-47.48-69.91-58.56-124.62h315.4C749.6,244.19,728.72,284.59,702.12,314.1Z"/></svg>