<svg xmlns="http://www.w3.org/2000/svg" viewBox="0 0 504 504"><title>  evang-icon</title><circle cx="252" cy="252" r="252"/><path d="M370.7 377.6V114.4c0-8-10-10.1-10-10.1H163.3c-30.1 0-30.1 27.8-30.1 27.8V389A10.7 10.7 0 0 0 144 399.7H336.6a10.7 10.7 0 0 0 10.7-10.7h12.8c11.5 0 10.7-11.4 10.7-11.4ZM257.8 235.3V351.2H235.5V235.3H186.7V213.1h48.9V173.9h22.2v39.2h48.9v22.1ZM358.4 363.6s-2 6.9-11.1 6.9V143.3a10.7 10.7 0 0 0-10.6-10.7l-182.3-0.1c0-7.3 11.1-11 11.1-11H347.3c11.4 0 11.1 10 11.1 10Zm0 0" fill="#fff"/></svg>