<?xml version="1.0" encoding="utf-8"?>
<!-- Generator: Adobe Illustrator 21.1.0, SVG Export Plug-In . SVG Version: 6.00 Build 0)  -->
<svg version="1.1" id="Layer_1" xmlns="http://www.w3.org/2000/svg" xmlns:xlink="http://www.w3.org/1999/xlink" x="0px" y="0px"
	 viewBox="0 0 72.8 72.8" style="enable-background:new 0 0 72.8 72.8;" xml:space="preserve">
<style type="text/css">
	.st0{fill:#123D65;}
</style>
<g>
	<path class="st0" d="M36.4,0C16.3,0,0,16.3,0,36.4c0,20.1,16.3,36.4,36.4,36.4c20.1,0,36.4-16.3,36.4-36.4C72.8,16.3,56.5,0,36.4,0
		L36.4,0z M45.8,36.4h-6v21.8h-8.2V36.4h-5.5v-7.5l5.5,0l0-4.4c0-6.1,1.7-9.9,8.9-9.9h6v7.5h-3.8c-2.8,0-3,1.1-3,3v3.8h6.8
		L45.8,36.4z M45.8,36.4"/>
</g>
</svg>
