<svg xmlns="http://www.w3.org/2000/svg" viewBox="0 0 504 504"><title>  family-icon</title><circle cx="252" cy="252" r="252"/><path d="M175 128.3A25.4 25.4 0 1 1 149.7 103 25.3 25.3 0 0 1 175 128.3ZM152.3 301.8l5.5 93.4a6 6 0 0 0 11.9 0l5-93.4H191.3L174.2 197l34.4 68.5a5.9 5.9 0 0 0 10.9-4.6s-25.2-68.1-31.4-80.9-12.3-20.3-36.1-20.3H147.2c-23.6 0-29.8 7.6-36 20.4s-31.4 80.9-31.4 80.9a6 6 0 0 0 11 4.6L125.2 197 108 301.8H124.5l5.2 93.4a6 6 0 0 0 11.9 0l5.1-93.4Zm202-198.9a25.4 25.4 0 1 0 25.3 25.3 25.4 25.4 0 0 0-25.3-25.3Zm26.3 149.1 1.7-55.1 30.9 68.6a6 6 0 0 0 11-4.7s-21.8-68.1-28-80.8-15.8-20.5-39.5-20.5h-4.9c-23.6 0-33.2 7.7-39.5 20.5s-28 80.8-28 80.8a6.1 6.1 0 0 0 3.2 7.9 6 6 0 0 0 7.8-3.1l31-68.6 1.7 55.1-4.8 138.5a10 10 0 0 0 9.2 10.7H333a10.1 10.1 0 0 0 10-9.2L354.3 277.8l11.4 114.1a9.8 9.8 0 0 0 9.8 9.2h0.8a10 10 0 0 0 9.2-10.7l-4.9-138.5ZM252 256.9a15.5 15.5 0 1 0 15.5 15.5A15.5 15.5 0 0 0 252 256.9Zm0 91.5s7 48.6 7 48.7a6.5 6.5 0 0 0 6 4 6.4 6.4 0 0 0 6-4.4 18 18 0 0 0 0-3.5l-2.8-59.8L269 313c0.8-7 1-4.8 8.9-9.7 8.1-4.8 21.9-26.2 22.6-27.2s1.9-2.9 2.1-4.2a4 4 0 0 0-3.1-4.6 4.4 4.4 0 0 0-4 1.7c-1 1.1-16.9 22.3-28.8 24.3-2.7-0.3-5.5-1.8-13.1-1.8h-2.9c-7.5 0-10.4 1.5-13.1 1.8-11.9-2-27.8-23.2-28.9-24.3a4.2 4.2 0 0 0-3.9-1.7A3.9 3.9 0 0 0 201.4 272c0.2 1.2 1.5 3 2.1 4.2s14.5 22.4 22.6 27.2c8 4.8 8.1 2.7 8.9 9.7l0.9 20.5L233 393.3a11 11 0 0 0 0.2 3.5 6.1 6.1 0 0 0 5.8 4.4 6.4 6.4 0 0 0 6-4c-0.1-0.1 7-48.7 7-48.7" fill="#fff"/></svg>