<svg xmlns="http://www.w3.org/2000/svg" viewBox="0 0 87.2 87.2" fill="#fff"><path d="M84.7 11.1c-0.1-0.1-0.1-0.1-0.2-0.2L74.2 1.9C72.9 0.7 71.1 0 69.2 0c-2.2 0-4.3 0.9-5.8 2.4 -0.1 0.1-0.2 0.2-0.3 0.3L52.9 15.6c-2.7 2.9-2.6 7.5 0.2 10.3 0.2 0.2 0.4 0.4 0.6 0.5l5.1 3.4c-0.5 1.9-3.3 7.1-12.6 16.4 -9.3 9.3-14.5 12.1-16.4 12.6l-3.4-5.1c-0.1-0.2-0.3-0.4-0.5-0.6 -1.4-1.4-3.3-2.2-5.3-2.2 -1.9 0-3.7 0.7-5.1 2L2.7 63.1c-0.1 0.1-0.2 0.2-0.3 0.3 -3 3-3.2 7.9-0.5 10.7l9 10.4c0.1 0.1 0.1 0.1 0.2 0.2 1.6 1.6 4.2 2.5 7.5 2.5 0 0 0 0 0 0 10.6 0 29.4-8.1 44.9-23.6 8.9-8.9 16.1-19.6 20.3-30.3C85.8 28.3 89.8 16.2 84.7 11.1ZM57.9 57.9C43.2 72.6 26.1 79.2 18.6 79.2c-1.1 0-1.7-0.2-1.9-0.2l-8.6-9.9 12.4-9.8 3.3 5c0.1 0.1 0.1 0.2 0.2 0.3 1.3 1.6 3.1 2.4 5.3 2.4h0c5 0 12.6-5.1 22.6-15C62.1 41.7 67.2 33.9 66.9 28.9c-0.1-2-1-3.7-2.4-4.9 -0.1-0.1-0.2-0.2-0.3-0.2l-5-3.3 9.8-12.4 9.9 8.7C80.6 20.2 75.6 40.2 57.9 57.9Z"/></svg>