<svg id="Layer_1" data-name="Layer 1" xmlns="http://www.w3.org/2000/svg" viewBox="0 0 68 66.68"><defs><style>.cls-1,.cls-3,.cls-4,.cls-5{fill:none}.cls-2{clip-path:url(#clip-path)}.cls-3,.cls-4,.cls-5{stroke:#f4c141;stroke-width:2px}.cls-3,.cls-4{stroke-miterlimit:10}.cls-4,.cls-5{stroke-linecap:round}.cls-5{stroke-linejoin:round}</style><clipPath id="clip-path"><path class="cls-1" d="M0 0h68v66.68H0z"/></clipPath></defs><title>Vector Smart Object</title><g class="cls-2"><path class="cls-3" d="M41.52 24.69v18.62M38 55.39H8.71v-30.7h43.63v13.88M67 52.13c0 7.49-6.48 13.56-14.48 13.56S38 59.61 38 52.13s6.48-13.56 14.48-13.56S67 44.64 67 52.13zm-58.29-7h31.42M8.71 34.32h43.8m-22.33-9.63v30.7m-10.65-30.7v30.7m40.75-39H.77"/></g><path class="cls-4" d="M52.69 46v12.7m7-6.42H45.74"/><g class="cls-2"><path class="cls-5" d="M49.05 9.38h-8.48V1h8.48zm-28.89 0h-8.48V1h8.48z"/><path class="cls-3" d="M44 63H4.48A3.38 3.38 0 0 1 1 59.77v-51a3.38 3.38 0 0 1 3.48-3.31h7.12m8.52 0h20.5m8.52 0h7.65a3.38 3.38 0 0 1 3.48 3.27v31.89"/></g></svg>