<svg style="fill: #fff;" version="1.1" xmlns="http://www.w3.org/2000/svg" xmlns:xlink="http://www.w3.org/1999/xlink" viewBox="0 0 378.6 539.6"><path d="M191,122.2c-36.1,0-65.5,29.4-65.5,65.5s29.4,65.5,65.5,65.5s65.5-29.4,65.5-65.5S227.1,122.2,191,122.2z M191,234.4c-25.8,0-46.8-21-46.8-46.8s21-46.8,46.8-46.8s46.8,21,46.8,46.8S216.8,234.4,191,234.4z"/><path d="M316.1,62.5C282.2,28.7,237.2,10,189.3,10c-47.9,0-92.9,18.7-126.8,52.5c-62.7,62.7-70.5,180.6-16.9,252 L189.3,522l143.4-207.2C386.6,243.1,378.8,125.2,316.1,62.5z M317.6,303.9L189.3,489.1L60.8,303.6C12.2,238.8,19.2,132.3,75.8,75.7 c30.3-30.3,70.7-47,113.6-47s83.2,16.7,113.6,47C359.5,132.3,366.4,238.8,317.6,303.9z"/></svg>
