<svg id="Layer_1" data-name="Layer 1" xmlns="http://www.w3.org/2000/svg" viewBox="0 0 51.72 52.03"><defs><style>.cls-1{fill:#b73536;}.cls-2,.cls-3{fill:#fff;}.cls-2{fill-rule:evenodd;}</style></defs><title>logo-section-red</title><polyline class="cls-1" points="49.6 0.77 49.6 49.89 0 49.89 0 0.77 0 0.77 0 0.77"/><path class="cls-2" d="M13.29,29,24.45,18.62,37,27.33,38.7,45.44,21.65,48.85,13.29,29ZM17.8,52,9.46,32.41l-4.73,2-3.07-.74,21.7-21L51.72,30.49,48.21,33l-5.46-2.82-.48,17.17L17.8,52Z"/><path class="cls-3" d="M23.33,47a30.06,30.06,0,0,1-5.62-10.22c-.29-.82-.44-1.3-.67-2.14A1.66,1.66,0,0,1,18,32.27,1.64,1.64,0,0,1,20,33.38L21.36,37,21,29.77c-.19-1.29-.42-2.43.65-2.88,1.24-.52,2.07.92,2.34,2.51l.84,6.22.56-8.91c0-1.24,3.06-1.42,3.2-.18a1.36,1.36,0,0,1,0,.37l-.37,8.54,2-8.54a1.74,1.74,0,0,1,2.62-.37,1.48,1.48,0,0,1,.48,1.29l-1.6,7.8,2.72-6.77a1.4,1.4,0,0,1,2.16.37,1.14,1.14,0,0,1,.09.74L34.76,37.1c-.75,4.19-2.35,9.28-3.37,9.76-2.85,1.32-5.33,1.62-8.06.09Z"/><polygon class="cls-3" points="23.6 16.28 21.91 8.48 18.6 9.72 17.28 6.5 21.41 5.32 21.41 0 24.48 0.12 24.42 4.46 28.66 3.71 29.73 5.51 24.48 7.48 25.22 16.41 23.6 16.28 23.6 16.28 23.6 16.28"/></svg>