<svg id="Layer_1" data-name="Layer 1" xmlns="http://www.w3.org/2000/svg" viewBox="0 0 49.6 49.68"><defs><style>.cls-1{fill:#007ac2;}.cls-2{fill:#fff;}</style></defs><title>logo-section-blue</title><polygon class="cls-1" points="0 0.08 49.6 0.08 49.6 49.67 0 49.67 0 0.08 0 0.08 0 0.08"/><path class="cls-2" d="M20.47,18.36q1.18-1.49,2.72.18a2.34,2.34,0,0,1-2.72-.18Z"/><path class="cls-2" d="M25.65,18.73a1.88,1.88,0,0,0,2.43-.09l-2.43.09ZM20.84,16q.36-2.19,3.44-3.43A18.39,18.39,0,0,0,28,16.19a3.12,3.12,0,0,1,1.19,2.45q.32,4.6-1.28,6.6a9.24,9.24,0,0,1-3.8,2.17L24,18.55q.38-2.08-3.16-2.54Z"/><path class="cls-2" d="M19.85,19.28l3.53.44-.09,5.17a5.64,5.64,0,0,1-3.43-5.61Z"/><path class="cls-2" d="M16.76,16.1a15.76,15.76,0,0,1,5.52-3.62q2.94-.87,3.45-3.16c-3.5-1.39-7.07,1-9,6.78Z"/><path class="cls-2" d="M25.28,12.2c.64-1.64,1.12-2.3,1.63-2q2.76,1.54,3.53,5.88a8.17,8.17,0,0,1-5.15-3.89Z"/><path class="cls-2" d="M16.33,18.73l2.43-1.9.27,4.6,1.26,4.17q-3.1,0-4.15-4.33l.18-2.54Z"/><path class="cls-2" d="M30.25,18.73q.69.66.37,3.53h-.82l-.25-.89a4.33,4.33,0,0,1,.71-2.63Z"/><path class="cls-2" d="M28.81,28.32,30,24.52q.63-1.31,1,.18a64.32,64.32,0,0,0,6.59,14.75q1.32,1.75-.44,1.17a17.49,17.49,0,0,1-6.43-2.52,31.61,31.61,0,0,1-1.9-9.78Z"/><path class="cls-2" d="M15.14,24Q22,31.14,27.45,31.21l.8,5.52A34,34,0,0,1,15.78,29.4L15.14,24Z"/><path class="cls-2" d="M13,31.3l1.28-2a39.53,39.53,0,0,0,15.11,9.23l-.18,1.55-6.43,2.52-4.51-3.25L13,31.3Z"/><path class="cls-2" d="M12.16,32.4A46,46,0,0,0,19.4,43.61l-1.81.89-6.34-1.26L6.83,41.07l-.09-1.44q1.93-6,5.43-7.24Z"/><path class="cls-2" d="M4.93,42.52l6.69,3.09q-3,3.07-8.33,2.89.18-4.44,1.65-6Z"/><path class="cls-2" d="M32.15,40.62a42.09,42.09,0,0,0,10,3.89,10.78,10.78,0,0,1,4.79,5.17H40.57A11,11,0,0,1,34,46.77l-1.81-6.16Z"/><path class="cls-2" d="M6.73,49.59q20.07-7.2,23.24-9l.18,2.08q-6.13,3.23-18.45,7l-5-.09Z"/><path class="cls-2" d="M14.15,4.6l3.53-2.25L20.2,7.24A4.28,4.28,0,0,0,17.77,9L14.15,4.6Z"/><path class="cls-2" d="M20,2l1.08,4.79,3.07-.27,1-5.43Q20.31.48,20,2Z"/><path class="cls-2" d="M26.45,1.35l-.62,5.06L27.64,7,29.45,1.9q-1.9-1.28-3-.55Z"/><path class="cls-2" d="M28.81,7.42,31,3a11.15,11.15,0,0,1,5.7,5.43l-4.62,2.91q-1.55-3.14-3.25-3.89Z"/><polygon class="cls-2" points="32.61 12.3 38.03 10.12 38.95 13.3 32.52 13.83 32.61 12.3 32.61 12.3 32.61 12.3"/><polygon class="cls-2" points="33.5 14.74 39.38 14.84 38.95 18.09 32.97 17.19 33.5 14.74 33.5 14.74 33.5 14.74"/><path class="cls-2" d="M33.87,19.19h4.44l-1.08,1.9q-3.32-.58-3.36-1.9Z"/><path class="cls-2" d="M34,21.09l2.63.89a5.68,5.68,0,0,1-1.81,2.63L34,21.09Z"/><path class="cls-2" d="M12.53,6l4.42,3.89a8.59,8.59,0,0,0-2.17,3.8l-4.69-.73a13.09,13.09,0,0,1,2.45-7Z"/><path class="cls-2" d="M10.17,14.38a11.79,11.79,0,0,1,4.26.37v2.54l-4.17.18a4.52,4.52,0,0,1-.09-3.09Z"/><path class="cls-2" d="M11.15,19.09q1.15,3,2.91,3.62l.27-4.62-3.18,1Z"/><path class="cls-2" d="M7,9.59l2,.71Q7.16,20.51,14.24,24.8l-1,2.52Q4.34,20.61,7,9.59Z"/><path class="cls-2" d="M10.08,7.78q1.65-4.43,9-7.6L15.23,0Q9.62,3.3,8.36,7l1.72.82Z"/><path class="cls-2" d="M33.77.18l-.71,1.44q5.6,5.45,7,10.94l1.81-.09A18.56,18.56,0,0,0,33.77.18Z"/><path class="cls-2" d="M40.39,13.83l1.53-.07q0,9.5-5.61,12.75L35.24,25q5.42-5.27,5.15-11.15Z"/></svg>