<svg id="Layer_1" data-name="Layer 1" xmlns="http://www.w3.org/2000/svg" viewBox="0 0 49.6 49.74"><defs><style>.cls-1{fill:#006351;}.cls-2{fill:#fff;}</style></defs><title>logo-section-green</title><polygon class="cls-1" points="0 0.09 49.6 0.09 49.6 49.69 0 49.69 0 0.09 0 0.09 0 0.09"/><path class="cls-2" d="M22.43,5.11A10.92,10.92,0,0,0,20,1.54C17.16,4.15,15.5,6.21,14.41,9a2.74,2.74,0,0,0,2.19,1.09c2.86-2.1,4.6-3.33,5.83-5Z"/><path class="cls-2" d="M28.64,0A40.6,40.6,0,0,1,27,11.2c-4.47,1.49-8.13,2.72-11.34,3.44L13.88,11.4a6.23,6.23,0,0,0,3.06.29Q24.69,4.63,27.4,0Z"/><path class="cls-2" d="M26.82,12.92l-.48,3.21a45.3,45.3,0,0,0-10.62,2.12l.25-2,10.84-3.3Z"/><path class="cls-2" d="M33,16.18l-.83-1.84c-.34,1.66-.75,2.45-.86,3a2,2,0,0,1,1.42,1.24L33,16.18Z"/><path class="cls-2" d="M27.48,16.65a14.11,14.11,0,0,1,2.9.35q.14-.61.8-3.52l.69-10Q30.69.72,29.52.36a64.7,64.7,0,0,1-2,16.29Z"/><path class="cls-2" d="M33.47,14.61l-1.18-1.93L33,5.27a14.29,14.29,0,0,1,1.83,5.32l-1.32,4Z"/><path class="cls-2" d="M23.53,17.68q1.61-.21.43.73-2.62,2-3.58,6.8-.31,1.49-2.12-.15L17,23.56a4.41,4.41,0,0,1,1.54-2.86,8.11,8.11,0,0,1,5-3Z"/><path class="cls-2" d="M19.21,18c1,0,1.61-.07,0,.74Q16.06,20.87,16,23.31q.19,1.08-.81.51-2.46-1.77.36-4.89A32.27,32.27,0,0,1,19.21,18Z"/><path class="cls-2" d="M20.09,28q3.76,7.9,8.47,7.91a6.08,6.08,0,0,0,1.91-5.11l-1.75,1.09a15.89,15.89,0,0,1-7.62-5.71l-1,1.83Z"/><path class="cls-2" d="M26,37.21c-4.65-3.41-7.8-7.87-10.45-12.35-1,.71-1.35,1.77-1.15,3.5q5.06,6.63,9.43,8.47l2.17.38Z"/><path class="cls-2" d="M15.78,32.1l-2.32-2.91a11.36,11.36,0,0,1-.36-3.86c-1.33,1.13-3.52,4.41-3.8,6.06l6.47.71Z"/><path class="cls-2" d="M27.93,20.76q-.72-1-2.79-.84a3.91,3.91,0,0,1,1.39-.65,3.36,3.36,0,0,1,1.44.09,1.3,1.3,0,0,1,.6.93v.46a1.75,1.75,0,0,1-1.44.7,2.92,2.92,0,0,1-1.44-.33l2.23-.37Zm4.44-1.52c-.56-1.21-2.17-1.67-5.85-1.63q-3.35,1.25-5.12,6.95,1.82,4,7.38,5.56c1.08-.26.78-4.16.78-4.16L31,25.57l-.57-4.45a2,2,0,0,1,1.9-1.88Z"/><path class="cls-2" d="M32.76,21.33q-.29-1.87-1.81-.06l1.81.06Z"/><path class="cls-2" d="M32.7,22.13l-1.19.24-.09,1.9q1.66-1.05,1.28-2.14Z"/><polygon class="cls-2" points="18.39 35.31 7.64 35.66 9.78 32.63 17.14 33.76 18.39 35.31 18.39 35.31 18.39 35.31"/><polygon class="cls-2" points="31.34 48.49 14.41 41.66 13.28 42.79 16.01 49.68 32.17 49.74 31.34 48.49 31.34 48.49 31.34 48.49"/><path class="cls-2" d="M38.34,48.49c-1-.95-4.17-.91-5.11.24v1L38,49.68l.36-1.19Z"/><path class="cls-2" d="M48.44,40.53l-.89-1.25-7.42,8-.83,2.37h6.06a89.88,89.88,0,0,0,3.09-9.15Z"/><path class="cls-2" d="M46.06,39.58,38.7,46.17A5.53,5.53,0,0,0,36,45.34c.18-1.72,3.09-4.28,5.52-5A9.62,9.62,0,0,0,44.76,38l1.31,1.54Z"/><path class="cls-2" d="M33.83,45.52l-2.49.83-15-4.69,1.9-1.54a30.76,30.76,0,0,0,8.79,2.49c4.87.15,6,1.84,6.77,2.91Z"/><path class="cls-2" d="M29.55,41.72l-.24-3c1.18-1.11,1.5-3.37,1.78-4.39a11.65,11.65,0,0,1,5.58,6.06l-3.09,1.31Z"/><polygon class="cls-2" points="27.41 38.87 28.43 41.72 23.5 40.41 23.61 38.4 27.41 38.87 27.41 38.87 27.41 38.87"/><path class="cls-2" d="M21.3,37.15l.53,2.44L16.31,39A47.06,47.06,0,0,1,3.19,43a17.16,17.16,0,0,1,4-6.53q11-.19,14.13.65Z"/><path class="cls-2" d="M8.77,43.26l5.29,6.41H3.66a5.8,5.8,0,0,1-.71-5.34l5.82-1.07Z"/><path class="cls-2" d="M44.52,15.71,39.65,39.46l-.71.24.59-5.82L38,30.44c1.35-6.26,4-13,5.23-14.13l1.31-.59Z"/><path class="cls-2" d="M44.64,20.82c.39,5.87-1,11.53-2.85,12l2.85-12Z"/><path class="cls-2" d="M41.79,35.19q3.92,0,1.78,2.26-1.94,2.17-2.85,1.07l1.07-3.33Z"/><path class="cls-2" d="M38.7,35.31q-2.61-2.5-2.73,1.19.83,3.17,2.38,2l.36-3.21Z"/></svg>