<svg xmlns="http://www.w3.org/2000/svg" data-name="Capa 1" viewBox="0 0 512 364"><defs><style>  .cls-1{fill:#b73536;}.cls-2{fill:#fff;}</style></defs><title>  mail-red</title><rect class="cls-1" x="11.1" y="13.2" width="489.8" height="337.7"/><path class="cls-2" d="M414.5 281.1a8.2 8.2 0 0 1-5.6-2.2l-95-89.1a8.3 8.3 0 1 1 11.3-12l95 89.1a8.3 8.3 0 0 1-5.7 14.3Z"/><path class="cls-2" d="M97.4 281.1a8.3 8.3 0 0 1-5.7-14.3l95-89.1a8.3 8.3 0 1 1 11.3 12l-95 89.1A8.2 8.2 0 0 1 97.4 281.1Z"/><path class="cls-2" d="M470.7 364H41.3A41.3 41.3 0 0 1 0 322.7V41.3A41.3 41.3 0 0 1 41.3 0H470.7A41.3 41.3 0 0 1 512 41.3V322.7A41.3 41.3 0 0 1 470.7 364ZM41.3 16.5A24.8 24.8 0 0 0 16.5 41.3V322.7a24.8 24.8 0 0 0 24.8 24.8H470.7a24.8 24.8 0 0 0 24.8-24.8V41.3a24.8 24.8 0 0 0-24.8-24.8Z"/><path class="cls-2" d="M256 223.5a46.2 46.2 0 0 1-30.3-10.9L13.7 27.6A8.3 8.3 0 1 1 24.6 15.2l212 184.9c10.6 9.2 28.4 9.2 38.9 0L487.2 15.5A8.3 8.3 0 1 1 498 27.9L286.3 212.5A46.1 46.1 0 0 1 256 223.5Z"/></svg>
