<svg xmlns="http://www.w3.org/2000/svg" viewBox="0 0 466 466" width="512" height="512"><style>.a{fill:#9d2a35;}</style><path d="M397.3 392.7c10.3 0 18.7-8.4 18.7-18.7V18.7C416 8.4 407.6 0 397.3 0H79.4C63.2 0 50 13.2 50 29.3v407.3c0 16.2 13.2 29.3 29.3 29.3h328.6c4.4 0 8-3.6 8-8s-3.6-8-8-8h-13.3v-57.3H397.3zM66 29.3C66 22 72 16 79.4 16h7v77c0 4.4 3.6 8 8 8s8-3.6 8-8V16h294.9c1.4 0 2.7 1.2 2.7 2.7v355.4c0 1.4-1.2 2.7-2.7 2.7H102.4V123c0-4.4-3.6-8-8-8s-8 3.6-8 8v253.7h-7c-4.8 0-9.3 1.2-13.3 3.2V29.3zM378.6 450H79.4c-7.3 0-13.3-6-13.3-13.3v-30.7c0-7.3 6-13.3 13.3-13.3h299.3V450z" class="a"/><path d="M175.5 172.3h49.4v145.5c0 4.4 3.6 8 8 8h36.9c4.4 0 8-3.6 8-8V172.3h49.4c4.4 0 8-3.6 8-8v-36.9c0-4.4-3.6-8-8-8h-49.4V74.8c0-4.4-3.6-8-8-8h-36.9c-4.4 0-8 3.6-8 8v44.6h-49.4c-4.4 0-8 3.6-8 8v36.9C167.5 168.7 171.1 172.3 175.5 172.3zM183.5 135.4h49.4c4.4 0 8-3.6 8-8V82.8h20.9v44.6c0 4.4 3.6 8 8 8h49.4v20.9h-49.4c-4.4 0-8 3.6-8 8v145.5h-20.9V164.3c0-4.4-3.6-8-8-8h-49.4V135.4z" class="a"/></svg>
