<svg xmlns="http://www.w3.org/2000/svg" viewBox="0 0 58 58" width="512" height="512"><style>.a{fill:#9d2a35;}</style><path d="M42.9 4.5c-0.5-2.3-2.5-4-4.9-4 -0.6 0-1 0.4-1 1s0.4 1 1 1c1.7 0 3 1.3 3 3s-1.3 3-3 3c-0.6 0-1 0.4-1 1s0.4 1 1 1c2.4 0 4.4-1.7 4.9-4H56v7H44h-2H30h-2H16h-2H2v-7h14 3c0.6 0 1-0.4 1-1s-0.4-1-1-1h-1.8c0.4-1.2 1.5-2 2.8-2 1.7 0 3 1.3 3 3s-1.3 3-3 3c-0.6 0-1 0.4-1 1s0.4 1 1 1c2.8 0 5-2.2 5-5s-2.2-5-5-5c-2.4 0-4.4 1.7-4.9 4H0v9 3 11 2 12 2 14h14 2 12 2 12 2 14v-14 -2 -12 -2 -11 -3 -9H42.9zM30 15.5h12v12H30V15.5zM42 41.5H30v-12h12V41.5zM16 29.5h12v12H16V29.5zM16 15.5h12v12H16V15.5zM2 16.5v-1h12v12H2V16.5zM2 29.5h12v12H2V29.5zM2 55.5v-12h12v12H2zM16 55.5v-12h12v12H16zM30 55.5v-12h12v12H30zM56 55.5H44v-12h12V55.5zM56 41.5H44v-12h12V41.5zM44 27.5v-12h12v1 11H44z" class="a"/><path d="M26 2.5c1.7 0 3 1.3 3 3s-1.3 3-3 3c-0.6 0-1 0.4-1 1s0.4 1 1 1c2.8 0 5-2.2 5-5s-2.2-5-5-5c-0.6 0-1 0.4-1 1S25.4 2.5 26 2.5z" class="a"/><path d="M32 2.5c1.7 0 3 1.3 3 3s-1.3 3-3 3c-0.6 0-1 0.4-1 1s0.4 1 1 1c2.8 0 5-2.2 5-5s-2.2-5-5-5c-0.6 0-1 0.4-1 1S31.4 2.5 32 2.5z" class="a"/><path d="M31.3 40.2C31.5 40.4 31.7 40.5 32 40.5s0.5-0.1 0.7-0.3L36 36.9l3.3 3.3C39.5 40.4 39.7 40.5 40 40.5s0.5-0.1 0.7-0.3c0.4-0.4 0.4-1 0-1.4L37.4 35.5l3.3-3.3c0.4-0.4 0.4-1 0-1.4s-1-0.4-1.4 0L36 34.1l-3.3-3.3c-0.4-0.4-1-0.4-1.4 0s-0.4 1 0 1.4l3.3 3.3 -3.3 3.3C30.9 39.2 30.9 39.8 31.3 40.2z" class="a"/></svg>
