<svg xmlns="http://www.w3.org/2000/svg" viewBox="0 0 55 55"><style>.a{fill:#fff}</style><path d="M51.4 45.3c-4.7-4.6-7-10.1-7-16.3v-9c0-6.9-4.6-11.4-8.5-13.2-1.1-.5-2.3-.9-3.5-1.2V5c0-2.8-2.2-5-5-5s-5 2.2-5 5v.7c-1.1.3-2.1.7-3.1 1.1-4.5 2-8.9 6.9-9 13.2v9c0 6.4-2.3 11.9-6.7 16.3-.3.3-.4.7-.2 1s.4.6.8.7l9.5 1.6c1.8.3 3.4.6 4.9.8 1.7 3.4 5.2 5.6 8.9 5.6s7.2-2.2 8.9-5.6c1.5-.2 3.2-.5 4.9-.8l9.5-1.6c.4-.1.7-.3.8-.7.1-.4 0-.7-.2-1zM24.3 5c0-1.7 1.3-3 3-3s3 1.3 3 3v.2c-2-.3-4-.3-6 0V5zm3.2 48c-2.5 0-4.9-1.3-6.4-3.3 2.2.2 4.3.3 6.4.3 2.1 0 4.2-.1 6.4-.3-1.5 2-3.9 3.3-6.4 3.3zM41 46.7c-1.9.3-3.7.6-5.3.8-.7.1-1.4.2-2.1.2-.6.1-1.3.1-1.9.2h-.3c-.5 0-1.1.1-1.6.1h-4.3c-.5 0-1 0-1.6-.1h-.4c-.6 0-1.2-.1-1.8-.2h-.1c-.7-.1-1.4-.1-2.1-.2-1.7-.2-3.4-.5-5.4-.8l-7.8-1.4c4-4.6 6-10 6-16.3v-9c0-5.4 3.9-9.6 7.7-11.4 1.1-.5 2.3-.9 3.5-1.2 2.5-.6 5.1-.6 7.6-.1 1.3.3 2.6.7 3.8 1.2 3.7 1.7 7.4 5.9 7.4 11.4v9c0 6 2.2 11.6 6.3 16.3L41 46.7z" class="a"/><path d="M33.7 11.3c-3.9-1.8-8.6-1.8-12.5 0-2.2 1-5.9 4-5.9 8.7 0 .6.4 1 1 1 .5 0 1-.4 1-1 0-3.7 3-6 4.8-6.8 3.3-1.5 7.4-1.5 10.8 0 .5.2 1.1 0 1.3-.5.3-.5 0-1.1-.5-1.4z" class="a"/></svg>