<svg xmlns="http://www.w3.org/2000/svg" viewBox="0 0 58 58"><style>.a{fill:#fff}</style><path d="M25.1 47H33V26h8v-8h-8v-8h-8v8h-8v8h8l.1 21zM19 20h8v-8h4v8h8v4h-8v21h-4V24h-8v-4z" class="a"/><path d="M50 7c0-.1 0-.2-.1-.3 0 0 0-.1-.1-.1 0-.1-.1-.1-.1-.2l-.1-.1v-.1c-.7-.5-1.1-1.3-1.1-2.2s.4-1.7 1.1-2.2c.3-.3.5-.7.3-1.1-.1-.4-.5-.7-.9-.7H12C9.8 0 8 1.8 8 4c0 .2 0 .4.1.7-.1.1-.1.2-.1.3v40.8c0 2.9 2.3 5.2 5.2 5.2H15v6c0 .4.2.8.6.9.4.2.8.1 1.1-.2l3-3c.1-.1.4-.1.5 0l3 3c.3.2.5.3.8.3.1 0 .3 0 .4-.1.4-.1.6-.5.6-.9v-6h24c.6 0 1-.4 1-1V7zM12 2h34.9c-.1.3-.3.7-.3 1H40c-.6 0-1 .4-1 1s.4 1 1 1h6.6c.1.3.2.7.3 1H11.6c-.1 0-.1 0-.2-.1h-.2c-.1 0-.2-.1-.3-.1-.1-.1-.2-.1-.3-.2-.1 0-.1-.1-.2-.2-.2-.4-.4-.9-.4-1.4 0-1.1.9-2 2-2zm11 52.6l-1.3-1.3c-.5-.5-1.1-.7-1.7-.7s-1.2.2-1.7.7L17 54.6V51h6v3.6zM48 49H13.2c-1.8 0-3.2-1.4-3.2-3.2V7.5c.1.1.3.2.4.2.2.1.5.2.7.2h.1c.3.1.5.1.8.1h36v41z" class="a"/></svg>