<svg id="Layer_1" data-name="Layer 1" xmlns="http://www.w3.org/2000/svg" viewBox="0 0 63.2 53.58"><defs><style>.cls-1{fill:#fff}</style></defs><title>live-stream-icon</title><path class="cls-1" d="M0 31.09v16c0 3.75 3.45 6.49 7.19 6.49H40a6.22 6.22 0 0 0 6.39-6.49v-.21l12.08 6a1.17 1.17 0 0 0 .62.17 4.15 4.15 0 0 0 4.1-4.36V28a4.08 4.08 0 0 0-4-4.36 1.21 1.21 0 0 0-.62.17l-12 6a6.77 6.77 0 0 0-6.27-5.51A13.45 13.45 0 1 0 19.48 9.56a10.18 10.18 0 0 0-17.41 7.17 10 10 0 0 0 3.37 7.74A7 7 0 0 0 0 31.09zm59.3-4.23A1.12 1.12 0 0 1 60 28v20.69a1.11 1.11 0 0 1-.7 1.12l-12.9-6.52v-10zm-37.9-5.93a12.48 12.48 0 0 0 3 3h-5.31a9.56 9.56 0 0 0 2.31-3zm.71-7.47a10.31 10.31 0 1 1 .31 2.45 10.23 10.23 0 0 0-.27-1.62v-.83zm-9.84-3.71a7 7 0 0 1 6.71 5 12.76 12.76 0 0 0 .26 1.62v.34a7 7 0 1 1-7-7zm30.93 37a3.6 3.6 0 0 1-3.6 3.6H6.8a3.6 3.6 0 0 1-3.6-3.6v-16a3.6 3.6 0 0 1 3.6-3.59h32.8a3.6 3.6 0 0 1 3.6 3.59zm0 0"/></svg>