<svg xmlns="http://www.w3.org/2000/svg" fill="#323232" viewBox="0 0 480 480"><path d="M399 158.5c.125 3.5.25 7 .25 10.625 0 108.375-82.5 233.375-233.5 233.375-46.25 0-89.375-13.625-125.75-36.875 6.375.75 13 1.125 19.625 1.125 38.5 0 73.875-13.125 101.875-35.125-35.875-.625-66.25-24.375-76.625-57 5 1 10.125 1.5 15.5 1.5 7.5 0 14.75-1 21.625-2.875-37.5-7.5-65.875-40.75-65.875-80.5v-1c11.125 6.125 23.75 9.875 37.125 10.25-22-14.75-36.5-39.875-36.5-68.25 0-15 4-29.125 11.125-41.25 40.5 49.625 101 82.25 169.125 85.75a83.687 83.687 0 0 1-2.125-18.75c0-45.25 36.75-82 82-82 23.625 0 44.875 10 59.875 25.875C395.5 99.75 413 92.875 428.875 83.5c-6.125 19.125-19.125 35.25-36.125 45.375 16.625-2 32.375-6.375 47.125-12.875a165.67 165.67 0 0 1-41 42.5z"/></svg>