<svg id="Layer_1" data-name="Layer 1" xmlns="http://www.w3.org/2000/svg" viewBox="0 0 352 385.33"><defs><style>.cls-1{fill:#8e1e18}</style></defs><title>logo-crest</title><path class="cls-1" d="M161.04 218.91l5.54 5.55h7.57v-7.57l-5.55-5.55 7.4-7.39 7.4 7.39-5.55 5.55v7.57h7.57l5.54-5.55 7.4 7.4-7.4 7.39-5.54-5.55h-7.57v7.57l5.55 5.55-7.4 52.21-7.4-52.21 5.55-5.55v-7.57h-7.57l-5.54 5.55-7.4-7.39 7.4-7.4z"/><path class="cls-1" d="M0 0v88c0 191 83.16 269.48 176 297.33C268.84 357.48 352 279 352 88V0zm210.54 60.21c.47-1.25 1.69-2.09 2.41-2 1.66.23 2.32 1.69 2.17 3.88L213.45 60c-.2.55-.22 1-.45 1.15a22.11 22.11 0 0 1-2.07 1.16c-.15-.75-.56-1.64-.39-2.1zm-12.44 14.2c1-.81 2.1-1.41 3.07-2.21a7.07 7.07 0 0 0 1.57-1.8c.89-1.48 1.66-3 2.75-5-.64-1.6.22-3.31 3.07-4.44-.82 1.89-.12 2.56 1.71 2.21 3.38-.65 6.2.13 8.3 3.54.33-2.15 1.28-1.17 2.18-.41.2-1.92-.55-2.74-1.91-3.14-.57-.17-1.4-.15-1.66-.53a8 8 0 0 1-1.33-3.05c0-.27 1.32-1.07 2.07-1.12a15 15 0 0 1 3.34.48 3.35 3.35 0 0 1-1.49 1c2.36 1.08 4.68 2 6.88 3.19 2 1.08 4 2.39 6.06 3.68.11 3.69.72 4.44 4.85 5.4l-1 2c1.21-.22 2.38-.09 2.79-.59a4 4 0 0 0 1-2.92c-1-4.32-2.19-8.58-3.36-13h1.41c0-.58.1-1.21.16-1.85.32-3.46 1.81-6.07 5.22-7.36a52.39 52.39 0 0 1 7.74-.89c2.14.58 4.26 1.24 6.41 1.74 7.86 1.81 15.69.8 23.5-.41.29 0 .84-.25 1.5-.4a15 15 0 0 1-1.65 2.3c3.28-.42 7.14-1 10.31-1.38.16.33-1.29 1.67-2.3 2.15l20.68 2.5a29.55 29.55 0 0 0-4.14 3l5.93.35c0 .3-3.37 2.36-5 3.09v6.6L302.25 64a29.53 29.53 0 0 0 2.75 4.66h-7.25l.7 2.56c-4.92-2.16-10.54-1.6-14-6.35 3 4.56 6.11 5.84 10.19 7.18-3.56 1.4-6.62.11-9.63-1.54a20.29 20.29 0 0 0 3.91 3c-1.61 2.1-3.74 1.57-5.64 1.17-1.31-.27-2.36-.75-3.77 0-.65.35-2-.29-2.85-.72a17.45 17.45 0 0 1-2.5-1.76c-.18.16 1 2.45 2 3.69-3.72.65-6.17-1.06-8.2-3.84-.19.2 1.1 2.87 2 4.15-2.52.81-4.42-.67-6.63-1.61l.7 2.74a35.38 35.38 0 0 0-3.55-1.33 24.12 24.12 0 0 0-5.38-1c-3.22 0-3.75.77-2.87 3.91a5.14 5.14 0 0 0-1.43.21 16.52 16.52 0 0 0-1.86 1.16c.67.42 1.3 1.09 2 1.2a6.55 6.55 0 0 0 2.85-.3c8.12-2.54 15.82-1 23.47 2.06 6.23 2.5 10.73 6.3 13.28 12.87 1.22 3.15 4.38 5.73 7.09 8.06a4.3 4.3 0 0 0 6.34-.86c1.5-2 1.52-6.36-.17-7.71s-3.57-2.41-5.73-3.84l2.14-1.1c-2.12 0-3.14-1.2-3.21-3.24a45.39 45.39 0 0 1 .26-6.81l1.38 3.12c-.07-5.11-.07-5.11 1.45-5.93-1 2.22.34 3.26 1.46 4.59a22.72 22.72 0 0 1 2.27 4.22l-.35-3.83c.64.6 1.17.86 1.28 1.24.9 3.15 2.81 6.23.69 9.63-.27.43 0 1.22.09 1.83a31 31 0 0 1 .81 5.46 5.82 5.82 0 0 1-8.08 5.3c-2.3-.93-4.35-2.47-7-4a12.4 12.4 0 0 0 1 2c2.89 3.49 6.38 6 11 6.59l1.1.15c4.43.51 4.53.73 4 5.09-.37 3.37-.09 6.85-.84 10.11-.45 1.93-2.14 3.75-3.69 5.17-.93.86-2-.23-2.47-2.52-1.19.59-.27 3.93-2.84 2.42-1.71-1-.93-2.52-.37-4.06l-1.62 2.34c-1.62-1.8-1.17-3.69 1.16-4.38.78-.23 1.59-.38 2.39-.56 1.68-.39 2.9-1.32 2.94-3.14s-.78-3.64-2.8-4a33.47 33.47 0 0 0-6.18-.41 22.22 22.22 0 0 0-4 .49c-4.92.89-8.54-.68-10.87-5.27-1.42-2.81-1.7-2.91-4.28-.89a41.35 41.35 0 0 0-6.12 6c-1.23 1.46-1.09 3.27.21 4.92a2.77 2.77 0 0 1-1.72 4.65 6.81 6.81 0 0 0-4.8 2.88 3.17 3.17 0 0 1-1.71 1.29 12.64 12.64 0 0 1-3-.1l.59-3c-.47.77-.78 1.31-1.12 1.82s-.69 1.36-1.21 1.55a1.79 1.79 0 0 1-1.56-.83 3.38 3.38 0 0 1 0-2.27c.21-.54 1-.87 1.73-1.52-2.42 0-2.48 2-3.32 3.23a2.47 2.47 0 0 1-.9-3.69c.77-1.41 1.74-2.72 3.87-2.25a20.91 20.91 0 0 0 5.46.45c2-.1 2.65-1.5 1.69-3.31s-1.88-3.38-2.87-5c-2.49-4.16-2.21-6 1.49-9.25a4.49 4.49 0 0 0 1.11-1.32c-5.5 3.82-11 7.44-18.49 5.56a23.24 23.24 0 0 0 .5 11.86 7.25 7.25 0 0 1-3.08 8.61c-1.59 1-3 .21-4-2.5l-.71 3.34H235l-.77-3.64-1.4 2.15c-1.82-1.73-1.53-3.63.79-4.55 1.31-.52 2.72-.78 4-1.32 1.65-.7 2.59-2.06 1.7-3.75-1.81-3.45-3.87-6.76-6-10.35l-1.06 1.37c-1.14-.33-1.56-2.78-2.78-1.07l-4.87-4.09c.72 3.17 3.73 5.46 1.32 8.95 0-2.52-1.24-3.07-3-3-1.5 0-2.29.54-2.19 2.29.14 2.63-.11 2.79-2.93 2.94 1.87-3.1-.21-4.55-2.24-6.25a52.73 52.73 0 0 1-4.76-5.17l-2.17 1.84-1.07-4.91-3.79 2.54c1.1-1.94 2.14-3.75 1-6.53l-2.57 2.94a25 25 0 0 1 .33-4c.38-1.47.54-2.6-1.35-3a10.69 10.69 0 0 1-2-.87l.75-.75c.81-.76 2.54-.56 3-1.33s-.36-2-.62-3.13c3.86.21 5.81-1.13 7.06-4.9.12-.36-.51-1.38-.76-1.37a10.12 10.12 0 0 0-3.62.64c-1.71.78-3.08 1-4.18-.86a4.9 4.9 0 0 0-1.13-1.06c-1.45-1.24-2.71-2.48-.76-4.37.28-.28.16-1 .22-1.48a6.25 6.25 0 0 0-1.78 2.58c-.8-2.13-.58-3.46.73-4.57zM194.56 126a2.8 2.8 0 0 1 3.05-1.2c3.61.58 6-.67 7.57-3.94 1.89-3.91 4-7.73 6-11.62l4.29 4.75c-1.81 3.35-3.55 6.57-5.31 9.79a17.45 17.45 0 0 1-1.07 1.65 30.67 30.67 0 0 0-2.85 4.1c-1 2.05-2.79 1.86-4.37 1.76-.78 0-1.49-1.26-2.37-2.08-.62.37-.62 3.09-2.56 1.5-.72-.59-.6-2.22-.84-3.28-.28.14-1-.37-1.93 1a3.87 3.87 0 0 1 .39-2.43zM93 72.26s8.61-8 20.84-8 25 10.19 33.13 10.19l-.57 47.68c-8.09 0-20.32-10.85-32.55-10.85S93 120.64 93 120.64zm-22-8c12.23 0 20.84 8 20.84 8v48.38S83.23 111.3 71 111.3s-24.48 10.8-32.57 10.8l-.57-47.68c8.09 0 20.89-10.2 33.14-10.2zM33.45 80.35a5.76 5.76 0 0 1 1.65-.7v47.79c8.64 0 21.71-11.59 34.76-11.59a37.63 37.63 0 0 1 22.26 7.73H93a37.63 37.63 0 0 1 22.26-7.73c13.06 0 26.12 11.59 34.76 11.59V79.65a5.77 5.77 0 0 1 1.66.7c1.66 1.29 1.47 26.85 1.47 30.17s0 19.13-1.47 20-55-5.7-55-5.7 1.1 2.58-3.68 2.58h-.92c-4.78 0-3.68-2.58-3.68-2.58s-53.53 6.62-55 5.7-1.4-16.7-1.4-20.01-.2-28.88 1.45-30.16zm188.22 276a22.16 22.16 0 0 1-4.57.5c-5.38 0-10.44-1.79-13.7-4.71-3.26 2.92-8.32 4.71-13.7 4.71s-10.45-1.79-13.7-4.71c-3.26 2.92-8.32 4.71-13.7 4.71s-10.45-1.79-13.7-4.71c-3.26 2.92-8.32 4.71-13.7 4.71a21.9 21.9 0 0 1-4.62-.53q-6.55-3.6-12.9-7.71a9.58 9.58 0 0 0 1.88-2l1.94-2.83 1.95 2.83c2.17 3.15 6.78 5.19 11.75 5.19s9.59-2 11.76-5.19l1.95-2.83 1.95 2.83c2.17 3.15 6.78 5.19 11.76 5.19s9.59-2 11.76-5.19l1.95-2.83 1.95 2.83c2.17 3.15 6.78 5.19 11.76 5.19s9.59-2 11.76-5.19l1.95-2.83 1.95 2.83c2.17 3.15 6.78 5.19 11.76 5.19s9.59-2 11.76-5.19l1.95-2.83 1.94 2.83a9.61 9.61 0 0 0 1.88 2q-6.43 4.11-13.01 7.73zm29.78-19.88a23.59 23.59 0 0 1-6.95 1.05c-5.38 0-10.44-1.79-13.7-4.72-3.26 2.92-8.32 4.72-13.7 4.72s-10.44-1.79-13.7-4.71c-3.26 2.92-8.32 4.71-13.7 4.71s-10.45-1.79-13.7-4.71c-3.26 2.92-8.32 4.71-13.7 4.71s-10.45-1.79-13.7-4.71c-3.26 2.92-8.32 4.71-13.7 4.71s-10.44-1.79-13.7-4.71c-3.26 2.92-8.32 4.71-13.7 4.71a23.57 23.57 0 0 1-6.94-1.05q-4.85-3.89-9.53-8.15a9 9 0 0 0 .83-1l1.95-2.83 1.94 2.83c2.17 3.16 6.78 5.19 11.76 5.19s9.59-2 11.76-5.19l1.94-2.83 1.95 2.83c2.17 3.16 6.78 5.19 11.75 5.19s9.59-2 11.76-5.19l1.95-2.83 1.95 2.83c2.17 3.16 6.78 5.19 11.76 5.19s9.59-2 11.76-5.19l1.95-2.83 1.95 2.83c2.17 3.16 6.78 5.19 11.76 5.19s9.59-2 11.76-5.19l1.95-2.83 1.95 2.83c2.17 3.16 6.78 5.19 11.76 5.19s9.59-2 11.76-5.19l1.95-2.83 1.94 2.83c2.17 3.16 6.79 5.19 11.76 5.19s9.59-2 11.76-5.19l1.95-2.83 1.95 2.83a9 9 0 0 0 .83 1q-4.76 4.25-9.62 8.14zm23.68-22.36c-4.56-.9-8.32-3.15-10.35-6.1-2.65 3.86-8.29 6.54-14.8 6.54s-12.15-2.67-14.8-6.54c-2.65 3.86-8.29 6.54-14.8 6.54s-12.14-2.67-14.8-6.54c-2.66 3.86-8.29 6.54-14.8 6.54S178.65 311.86 176 308c-2.65 3.86-8.29 6.54-14.8 6.54s-12.14-2.67-14.8-6.54c-2.65 3.86-8.29 6.54-14.8 6.54s-12.14-2.67-14.8-6.54c-2.65 3.86-8.29 6.54-14.8 6.54s-12.14-2.67-14.8-6.54c-2 2.95-5.79 5.2-10.35 6.1-26.6-29.51-47.48-69.91-58.56-124.62H333.7c-11.08 54.71-31.96 95.11-58.56 124.62z"/></svg>