<svg xmlns="http://www.w3.org/2000/svg" viewBox="0 0 1048.2 272"><style type="text/css">  
	.st0{fill:#272C6C;}
	.st1{fill-rule:evenodd;clip-rule:evenodd;fill:#D7BD28;}
	.st2{fill-rule:evenodd;clip-rule:evenodd;fill:#919191;}
</style><path class="st0" d="M215 121.3c0.8 0 1.5 0.1 2.2 0.1 0.6 0 1.2 0.1 1.8 0.1 0.6 0 1.1 0 1.5 0 0.6 0 1.7 0 3.2-0.1 1.5-0.1 3.2-0.1 5.2-0.2 1.9-0.1 3.9-0.1 6-0.2 2.1-0.1 4-0.1 5.9-0.1 4.9 0 9.6 0.6 14 1.8 4.4 1.2 8.3 3.2 11.7 6 3.4 2.8 6 6.4 8 10.9 2 4.5 2.9 10.1 2.9 16.6 0 4.7-0.5 8.9-1.6 12.7 -1 3.8-2.5 7.1-4.3 10 -1.9 2.9-4.1 5.3-6.7 7.4 -2.6 2.1-5.5 3.7-8.6 5.1 -3.1 1.3-6.5 2.3-10 2.9 -3.6 0.6-7.2 0.9-11 0.9 -1.4 0-3 0-4.9-0.1 -1.9-0.1-3.8-0.2-5.8-0.3s-3.8-0.2-5.5-0.3c-1.7-0.1-3-0.1-4-0.1v-0.2c0.2-0.7 0.4-1.6 0.6-2.6 0.2-1.1 0.3-2.4 0.5-3.9 0.1-1.6 0.2-3.4 0.3-5.6 0.1-2.2 0.1-4.7 0.1-7.6v-33.1c0-2.9 0-5.4-0.1-7.6 -0.1-2.2-0.2-4.1-0.3-5.6 -0.1-1.6-0.3-2.9-0.5-4 -0.2-1.1-0.4-2-0.6-2.7V121.3zM226.1 125.9c-0.1 3.8-0.1 7.5-0.2 11 0 1.5-0.1 3.1-0.1 4.7 0 1.6 0 3.2-0.1 4.7 0 1.5 0 3-0.1 4.4 0 1.4 0 2.7 0 3.7 0 2.3 0 5 0.1 8.2 0 3.2 0.1 6.5 0.1 9.9 0.1 3.4 0.1 6.6 0.2 9.8 0.1 3.1 0.2 5.7 0.4 7.8 0.5 0.1 1.1 0.1 1.9 0.2 0.8 0.1 1.6 0.2 2.5 0.2 0.9 0.1 1.7 0.1 2.6 0.1 0.8 0 1.6 0.1 2.1 0.1 2.4 0 4.8-0.2 7.3-0.5 2.5-0.3 4.9-0.9 7.2-1.8 2.3-0.9 4.5-2.1 6.6-3.6 2.1-1.5 3.8-3.5 5.4-6 1.5-2.4 2.8-5.4 3.6-8.8 0.9-3.4 1.3-7.5 1.3-12.2 0-5.2-0.6-9.8-1.9-13.9 -1.3-4.1-3.1-7.5-5.5-10.2 -2.4-2.8-5.4-4.9-9-6.3 -3.6-1.4-7.7-2.2-12.3-2.2 -0.9 0-1.9 0-3.1 0.1 -1.2 0.1-2.3 0.1-3.4 0.2 -1.1 0.1-2.2 0.1-3.2 0.2C227.6 125.8 226.8 125.8 226.1 125.9z"/><path class="st0" d="M287.5 194.3c0.1-0.5 0.3-1.1 0.4-1.9 0.1-0.7 0.2-1.6 0.3-2.7 0.1-1.1 0.2-2.4 0.2-3.9 0-1.5 0.1-3.3 0.1-5.3v-23.2c0-2 0-3.8-0.1-5.3 0-1.5-0.1-2.8-0.2-3.9 -0.1-1.1-0.2-2-0.3-2.8 -0.1-0.7-0.2-1.4-0.4-1.9v-0.1h8.5v0.1c-0.1 0.5-0.3 1.1-0.4 1.9 -0.1 0.7-0.2 1.7-0.3 2.8 -0.1 1.1-0.2 2.4-0.2 3.9 -0.1 1.5-0.1 3.3-0.1 5.3v23.2c0 2 0 3.8 0.1 5.3 0.1 1.5 0.1 2.8 0.2 3.9 0.1 1.1 0.2 2 0.3 2.7 0.1 0.7 0.3 1.4 0.4 1.9v0.1h-8.5V194.3z"/><path class="st0" d="M329.8 142.5c4 0 7.6 0.6 11 1.9 3.4 1.3 6.3 3.1 8.7 5.4 2.4 2.3 4.4 5.1 5.7 8.4 1.4 3.3 2.1 6.9 2.1 10.9 0 2.3-0.3 4.5-0.8 6.7 -0.5 2.2-1.3 4.2-2.3 6.2 -1 1.9-2.2 3.7-3.7 5.4s-3.1 3.1-5 4.3c-1.9 1.2-4 2.1-6.2 2.8s-4.7 1-7.4 1c-4 0-7.6-0.6-11-1.9s-6.3-3.1-8.7-5.4c-2.4-2.3-4.4-5.1-5.7-8.4 -1.4-3.3-2.1-6.9-2.1-10.9 0-2.3 0.3-4.5 0.8-6.7 0.5-2.2 1.3-4.3 2.3-6.2 1-2 2.2-3.8 3.7-5.4 1.5-1.6 3.1-3.1 5-4.3 1.9-1.2 4-2.2 6.3-2.8C324.7 142.8 327.1 142.5 329.8 142.5zM331.8 192.3c2.6 0 5-0.5 7.2-1.4 2.2-0.9 4.1-2.3 5.6-4.1 1.6-1.8 2.8-4 3.7-6.6 0.9-2.6 1.3-5.5 1.3-8.8 0-3.7-0.4-7-1.3-10.2 -0.8-3.1-2.1-5.8-3.8-8.1 -1.7-2.3-3.7-4.1-6.2-5.4 -2.5-1.3-5.4-1.9-8.7-1.9 -2.6 0-5 0.5-7.2 1.4 -2.2 0.9-4.1 2.3-5.6 4.1 -1.6 1.8-2.8 4-3.7 6.5 -0.9 2.6-1.3 5.5-1.3 8.8 0 3.6 0.4 7 1.2 10.2 0.8 3.1 2.1 5.9 3.7 8.2 1.7 2.3 3.7 4.1 6.2 5.4C325.6 191.6 328.5 192.3 331.8 192.3z"/><path class="st0" d="M406.5 151.2l-0.3 0.1c-1.9-1.7-4.1-3.1-6.7-4.1 -2.6-1-5.5-1.5-8.6-1.5 -3 0-5.7 0.5-8.2 1.4 -2.5 0.9-4.6 2.3-6.4 4.1 -1.8 1.8-3.2 4-4.2 6.5s-1.5 5.5-1.5 8.8c0 3.6 0.5 7 1.4 10.2 0.9 3.1 2.4 5.9 4.2 8.2 1.9 2.3 4.2 4.1 7 5.4 2.8 1.3 6.1 2 9.8 2 1.4 0 2.7-0.1 4.1-0.4s2.7-0.7 3.9-1.3c1.2-0.6 2.4-1.2 3.5-2 1.1-0.8 2.1-1.7 3-2.7l0.4 0.2 -2.8 7.3c-1.8 0.7-3.7 1.2-5.9 1.6 -2.1 0.4-4.3 0.6-6.5 0.6 -4.4 0-8.4-0.6-12-1.9s-6.8-3.1-9.4-5.4c-2.6-2.3-4.7-5.1-6.1-8.4 -1.5-3.3-2.2-6.9-2.2-10.9 0-2.3 0.3-4.5 0.9-6.7 0.6-2.2 1.4-4.3 2.5-6.2 1.1-2 2.5-3.8 4.1-5.4 1.6-1.6 3.5-3.1 5.6-4.3 2.1-1.2 4.4-2.2 6.9-2.8s5.3-1 8.2-1c4.6 0 8.8 0.7 12.7 2.1L406.5 151.2z"/><path class="st0" d="M423.4 143.3c2.9 0 5.6-0.1 8.1-0.1 2.4 0 4.5-0.1 6.3-0.2 1.7-0.1 2.9-0.2 3.5-0.3l-1.7 4.7c-0.8-0.2-1.7-0.4-2.7-0.6 -0.9-0.1-2-0.3-3.3-0.4 -1.3-0.1-2.8-0.2-4.5-0.2 -0.6 0-1.3 0-2 0.1s-1.6 0.1-2.3 0.1c-0.9 0-1.7 0.1-2.6 0.1v19.4c2.4 0 4.7-0.1 6.6-0.2 2-0.1 3.6-0.2 5-0.4 1.6-0.1 3-0.3 4.3-0.5l-1.1 5.2c-1.6-0.2-3.3-0.4-5-0.6 -1.5-0.2-3.1-0.3-4.8-0.4 -1.7-0.1-3.4-0.2-5-0.2v22.3c2.8 0 5.4-0.1 7.7-0.4 2.3-0.2 4.4-0.5 6.2-0.8 2-0.3 3.9-0.7 5.6-1.2l-1 5.8c-0.3 0-0.7 0-1.3-0.1 -0.6 0-1.2 0-1.9-0.1 -0.7 0-1.4 0-2.2-0.1 -0.8 0-1.5 0-2.2 0 -0.7 0-1.3 0-1.8 0 -0.5 0-0.9 0-1.2 0h-15.4v-0.1c0.1-0.5 0.3-1.1 0.4-1.9 0.1-0.7 0.2-1.6 0.3-2.7 0.1-1.1 0.2-2.4 0.2-3.9 0-1.5 0.1-3.3 0.1-5.3v-23.2c0-2 0-3.8-0.1-5.3 0-1.5-0.1-2.8-0.2-3.9 -0.1-1.1-0.2-2-0.3-2.8s-0.3-1.4-0.4-1.9v-0.1C417.5 143.4 420.5 143.3 423.4 143.3z"/><path class="st0" d="M471.6 151.5h-0.8c-0.2-0.5-0.5-1.2-0.9-1.9 -0.4-0.7-1-1.3-1.6-1.9s-1.5-1.1-2.5-1.5c-1-0.4-2.1-0.6-3.4-0.6 -1.2 0-2.2 0.2-3.1 0.5 -0.9 0.4-1.7 0.9-2.3 1.5s-1.1 1.4-1.4 2.3c-0.3 0.9-0.5 1.9-0.5 2.9 0 1.7 0.5 3.3 1.4 4.9 1 1.6 2.2 3.1 3.6 4.6 1.4 1.5 3 3 4.7 4.6 1.7 1.5 3.3 3.1 4.7 4.7 1.4 1.6 2.7 3.4 3.6 5.1 1 1.8 1.4 3.7 1.4 5.8 0 1.5-0.3 3.1-0.8 4.6 -0.5 1.6-1.4 2.9-2.5 4.2 -1.1 1.2-2.6 2.2-4.3 3 -1.8 0.8-3.8 1.2-6.3 1.2 -1.4 0-2.6-0.1-3.9-0.4 -1.2-0.2-2.3-0.6-3.4-0.9s-2-0.8-2.8-1.2c-0.8-0.4-1.5-0.8-2-1.2l0.8-7.9h0.9c0.3 1.1 0.7 2.2 1.3 3.2 0.6 1 1.3 1.9 2.2 2.7 0.9 0.8 1.9 1.4 3 1.9 1.1 0.5 2.3 0.7 3.7 0.7 1.2 0 2.3-0.2 3.3-0.6 1-0.4 1.8-0.9 2.5-1.5 0.7-0.7 1.2-1.4 1.6-2.3 0.4-0.9 0.6-1.9 0.6-3 0-1.5-0.3-2.9-0.8-4.1 -0.5-1.3-1.3-2.5-2.2-3.6 -0.9-1.1-1.9-2.2-3-3.3 -1.1-1.1-2.3-2.1-3.5-3.2 -1.2-1.1-2.3-2.2-3.5-3.3 -1.1-1.1-2.1-2.4-3-3.6 -0.9-1.3-1.6-2.7-2.2-4.2 -0.5-1.5-0.8-3.1-0.8-4.9 0-1.9 0.4-3.6 1.1-5.1 0.7-1.5 1.7-2.8 2.9-3.9 1.2-1.1 2.6-1.9 4.1-2.5 1.5-0.6 3.1-0.9 4.7-0.9 1.2 0 2.3 0.1 3.3 0.3 1 0.2 1.9 0.4 2.7 0.7 0.8 0.3 1.5 0.5 2.1 0.8 0.6 0.3 1.1 0.5 1.5 0.6L471.6 151.5z"/><path class="st0" d="M492.3 143.3c2.9 0 5.6-0.1 8.1-0.1 2.4 0 4.5-0.1 6.3-0.2 1.7-0.1 2.9-0.2 3.5-0.3l-1.7 4.7c-0.8-0.2-1.7-0.4-2.7-0.6 -0.9-0.1-2-0.3-3.3-0.4 -1.3-0.1-2.8-0.2-4.5-0.2 -0.6 0-1.3 0-2 0.1s-1.6 0.1-2.3 0.1c-0.9 0-1.7 0.1-2.6 0.1v19.4c2.4 0 4.7-0.1 6.6-0.2 2-0.1 3.6-0.2 5-0.4 1.6-0.1 3-0.3 4.3-0.5l-1.1 5.2c-1.6-0.2-3.3-0.4-5-0.6 -1.5-0.2-3.1-0.3-4.8-0.4 -1.7-0.1-3.4-0.2-5-0.2v22.3c2.8 0 5.4-0.1 7.7-0.4 2.3-0.2 4.4-0.5 6.2-0.8 2-0.3 3.9-0.7 5.6-1.2l-1 5.8c-0.3 0-0.7 0-1.3-0.1 -0.6 0-1.2 0-1.9-0.1 -0.7 0-1.4 0-2.2-0.1 -0.8 0-1.5 0-2.2 0 -0.7 0-1.3 0-1.8 0 -0.5 0-0.9 0-1.2 0h-15.4v-0.1c0.1-0.5 0.3-1.1 0.4-1.9 0.1-0.7 0.2-1.6 0.3-2.7 0.1-1.1 0.2-2.4 0.2-3.9 0-1.5 0.1-3.3 0.1-5.3v-23.2c0-2 0-3.8-0.1-5.3 0-1.5-0.1-2.8-0.2-3.9 -0.1-1.1-0.2-2-0.3-2.8s-0.3-1.4-0.4-1.9v-0.1C486.4 143.4 489.4 143.3 492.3 143.3z"/><path class="st0" d="M573.7 142.5c4 0 7.6 0.6 11 1.9 3.4 1.3 6.3 3.1 8.7 5.4 2.4 2.3 4.4 5.1 5.7 8.4 1.4 3.3 2.1 6.9 2.1 10.9 0 2.3-0.3 4.5-0.8 6.7 -0.5 2.2-1.3 4.2-2.3 6.2 -1 1.9-2.2 3.7-3.7 5.4s-3.1 3.1-5 4.3c-1.9 1.2-4 2.1-6.2 2.8s-4.7 1-7.4 1c-4 0-7.6-0.6-11-1.9s-6.3-3.1-8.7-5.4c-2.4-2.3-4.4-5.1-5.7-8.4 -1.4-3.3-2.1-6.9-2.1-10.9 0-2.3 0.3-4.5 0.8-6.7 0.5-2.2 1.3-4.3 2.3-6.2 1-2 2.2-3.8 3.7-5.4 1.5-1.6 3.1-3.1 5-4.3 1.9-1.2 4-2.2 6.3-2.8C568.6 142.8 571.1 142.5 573.7 142.5zM575.7 192.3c2.6 0 5-0.5 7.2-1.4 2.2-0.9 4.1-2.3 5.6-4.1 1.6-1.8 2.8-4 3.7-6.6 0.9-2.6 1.3-5.5 1.3-8.8 0-3.7-0.4-7-1.3-10.2 -0.8-3.1-2.1-5.8-3.8-8.1 -1.7-2.3-3.7-4.1-6.2-5.4 -2.5-1.3-5.4-1.9-8.7-1.9 -2.6 0-5 0.5-7.2 1.4 -2.2 0.9-4.1 2.3-5.6 4.1 -1.6 1.8-2.8 4-3.7 6.5 -0.9 2.6-1.3 5.5-1.3 8.8 0 3.6 0.4 7 1.2 10.2 0.8 3.1 2.1 5.9 3.7 8.2 1.7 2.3 3.7 4.1 6.2 5.4C569.5 191.6 572.4 192.3 575.7 192.3z"/><path class="st0" d="M616.7 180.5c0 2 0 3.8 0.1 5.3 0.1 1.5 0.1 2.8 0.2 3.9 0.1 1.1 0.2 2 0.3 2.7 0.1 0.7 0.3 1.4 0.4 1.9v0.1h-8.5v-0.1c0.1-0.5 0.3-1.1 0.4-1.9 0.1-0.7 0.2-1.6 0.3-2.7 0.1-1.1 0.2-2.4 0.2-3.9 0-1.5 0.1-3.3 0.1-5.3v-23.2c0-2 0-3.8-0.1-5.3 0-1.5-0.1-2.8-0.2-3.9 -0.1-1.1-0.2-2-0.3-2.8s-0.3-1.4-0.4-1.9v-0.1c2 0 4 0 6 0 2 0 4 0 5.9 0 1.9 0 3.7 0 5.4-0.1 1.7 0 3.3-0.1 4.6-0.1s2.5-0.1 3.5-0.1c0.9-0.1 1.6-0.1 2-0.2l-1.7 4.7c-0.8-0.2-1.7-0.4-2.7-0.6 -0.9-0.1-2-0.3-3.3-0.4 -1.3-0.1-2.8-0.2-4.5-0.2 -0.6 0-1.3 0-2.1 0.1s-1.7 0.1-2.5 0.1c-0.9 0-1.9 0.1-3 0.1v18c2.4 0 4.7-0.1 6.7-0.2 2-0.1 3.8-0.2 5.3-0.4 1.7-0.1 3.3-0.3 4.6-0.5l-1.1 5.2c-1.8-0.2-3.6-0.4-5.4-0.6 -1.6-0.2-3.3-0.3-5.1-0.4 -1.8-0.1-3.5-0.2-5.1-0.2V180.5z"/><path class="st0" d="M679.4 121.5l52.4 55.7v-35.8c0-2.9 0-5.4-0.1-7.5 -0.1-2.2-0.2-4-0.3-5.6 -0.1-1.6-0.3-2.9-0.5-3.9 -0.2-1.1-0.4-1.9-0.6-2.6v-0.2h9v0.2c-0.2 0.7-0.4 1.6-0.6 2.6 -0.2 1.1-0.3 2.4-0.5 3.9 -0.1 1.6-0.2 3.4-0.3 5.6 -0.1 2.2-0.1 4.7-0.1 7.5v54h-1.8l-52.4-55.7v34.8c0 2.9 0 5.4 0.1 7.6 0.1 2.2 0.2 4 0.3 5.6 0.1 1.6 0.3 2.9 0.5 3.9 0.2 1.1 0.4 1.9 0.6 2.6v0.2h-9.1v-0.2c0.2-0.7 0.4-1.6 0.6-2.6 0.2-1.1 0.3-2.4 0.5-3.9 0.1-1.6 0.2-3.4 0.3-5.6 0.1-2.2 0.1-4.7 0.1-7.6v-33.1c0-2.9 0-5.4-0.1-7.5 -0.1-2.2-0.2-4-0.3-5.6 -0.1-1.6-0.3-2.9-0.5-3.9 -0.2-1.1-0.4-1.9-0.6-2.6v-0.2H679.4z"/><path class="st0" d="M786.6 194.4v-0.1c0-0.1 0.1-0.3 0.1-0.5 0-0.2 0-0.5 0-0.6 0-0.7-0.1-1.5-0.3-2.4 -0.2-0.9-0.6-2-1.2-3.3l-4.3-9.7c-1.3 0-3.1-0.1-5.3-0.1 -2.2 0-4.6 0-7.2 0 -1.9 0-3.7 0-5.4 0 -1.7 0-3.3 0-4.7 0.1l-4.1 9.4c-0.4 0.9-0.7 1.8-1.1 2.9 -0.4 1-0.6 2.1-0.6 3.2 0 0.3 0 0.6 0.1 0.8 0 0.2 0.1 0.3 0.1 0.4v0.1h-7.3v-0.1c0.4-0.5 1-1.3 1.6-2.4s1.3-2.6 2.1-4.3l20.4-45.2h2.8l19.3 43.5c0.5 1 0.9 2 1.4 3 0.5 1 0.9 1.8 1.4 2.6 0.4 0.8 0.8 1.4 1.1 1.9 0.3 0.5 0.6 0.9 0.7 1v0.1H786.6zM763.5 174.5c1.4 0 2.8 0 4.2 0 1.4 0 2.9 0 4.3 0 1.4 0 2.7 0 4 0 1.3 0 2.4 0 3.5-0.1l-10-22.6 -9.8 22.7H763.5z"/><path class="st0" d="M822 151.5h-0.8c-0.2-0.5-0.5-1.2-0.9-1.9 -0.4-0.7-1-1.3-1.6-1.9 -0.7-0.6-1.5-1.1-2.5-1.5 -1-0.4-2.1-0.6-3.4-0.6 -1.2 0-2.2 0.2-3.1 0.5 -0.9 0.4-1.7 0.9-2.3 1.5 -0.6 0.6-1.1 1.4-1.4 2.3 -0.3 0.9-0.5 1.9-0.5 2.9 0 1.7 0.5 3.3 1.4 4.9 1 1.6 2.2 3.1 3.6 4.6 1.4 1.5 3 3 4.7 4.6 1.7 1.5 3.3 3.1 4.7 4.7s2.7 3.4 3.6 5.1c1 1.8 1.4 3.7 1.4 5.8 0 1.5-0.3 3.1-0.8 4.6 -0.5 1.6-1.4 2.9-2.5 4.2 -1.1 1.2-2.6 2.2-4.3 3 -1.8 0.8-3.8 1.2-6.3 1.2 -1.4 0-2.6-0.1-3.9-0.4s-2.3-0.6-3.4-0.9 -2-0.8-2.8-1.2c-0.8-0.4-1.5-0.8-2-1.2l0.8-7.9h0.9c0.3 1.1 0.7 2.2 1.3 3.2 0.6 1 1.3 1.9 2.2 2.7 0.9 0.8 1.9 1.4 3 1.9 1.1 0.5 2.3 0.7 3.7 0.7 1.2 0 2.3-0.2 3.3-0.6 1-0.4 1.8-0.9 2.5-1.5 0.7-0.7 1.2-1.4 1.6-2.3 0.4-0.9 0.6-1.9 0.6-3 0-1.5-0.3-2.9-0.8-4.1 -0.5-1.3-1.3-2.5-2.2-3.6s-1.9-2.2-3-3.3c-1.1-1.1-2.3-2.1-3.5-3.2 -1.2-1.1-2.3-2.2-3.5-3.3 -1.1-1.1-2.1-2.4-3-3.6 -0.9-1.3-1.6-2.7-2.2-4.2 -0.5-1.5-0.8-3.1-0.8-4.9 0-1.9 0.4-3.6 1.1-5.1 0.7-1.5 1.7-2.8 2.9-3.9 1.2-1.1 2.6-1.9 4.1-2.5 1.5-0.6 3.1-0.9 4.7-0.9 1.2 0 2.3 0.1 3.3 0.3 1 0.2 1.9 0.4 2.7 0.7 0.8 0.3 1.5 0.5 2.1 0.8 0.6 0.3 1.1 0.5 1.5 0.6L822 151.5z"/><path class="st0" d="M869.2 170c-0.9 0-2.1 0-3.6-0.1 -1.4 0-3 0-4.6-0.1 -1.7 0-3.4 0-5.2-0.1 -1.8 0-3.6 0-5.3 0 -1.7 0-3.4 0-4.9 0 -1.6 0-2.9 0.1-4.1 0.1v10.6c0 2 0 3.8 0.1 5.3 0.1 1.5 0.1 2.8 0.2 3.9 0.1 1.1 0.2 2 0.3 2.7 0.1 0.7 0.3 1.4 0.4 1.9v0.1h-8.5v-0.1c0.1-0.5 0.3-1.1 0.4-1.9 0.1-0.7 0.2-1.6 0.3-2.7 0.1-1.1 0.2-2.4 0.2-3.9 0-1.5 0.1-3.3 0.1-5.3v-23.2c0-2 0-3.8-0.1-5.3 0-1.5-0.1-2.8-0.2-3.9 -0.1-1.1-0.2-2-0.3-2.8 -0.1-0.7-0.3-1.4-0.4-1.9v-0.1h8.5v0.1c-0.1 0.5-0.3 1.1-0.4 1.9 -0.1 0.7-0.2 1.7-0.3 2.8 -0.1 1.1-0.2 2.4-0.2 3.9 -0.1 1.5-0.1 3.3-0.1 5.3v9.1c1.2 0 2.6 0.1 4.2 0.1 1.6 0 3.2 0 4.9 0 1.7 0 3.4 0 5.2-0.1 1.8 0 3.5-0.1 5.1-0.1 1.6 0 3.2-0.1 4.6-0.1 1.4 0 2.7-0.1 3.7-0.1v-8.8c0-2 0-3.8-0.1-5.3 -0.1-1.5-0.1-2.8-0.2-3.9 -0.1-1.1-0.2-2-0.3-2.8 -0.1-0.7-0.3-1.4-0.4-1.9v-0.1h8.5v0.1c-0.1 0.5-0.3 1.1-0.4 1.9 -0.1 0.7-0.2 1.7-0.3 2.8 -0.1 1.1-0.2 2.4-0.2 3.9 0 1.5-0.1 3.3-0.1 5.3v23.2c0 2 0 3.8 0.1 5.3 0 1.5 0.1 2.8 0.2 3.9 0.1 1.1 0.2 2 0.3 2.7 0.1 0.7 0.3 1.4 0.4 1.9v0.1h-8.5v-0.1c0.1-0.5 0.3-1.1 0.4-1.9 0.1-0.7 0.2-1.6 0.3-2.7 0.1-1.1 0.2-2.4 0.2-3.9 0.1-1.5 0.1-3.3 0.1-5.3V170z"/><path class="st0" d="M890.1 143.4v0.1c0 0.1-0.1 0.3-0.1 0.5 0 0.2 0 0.5 0 0.6 0 0.7 0.1 1.5 0.3 2.4 0.2 0.9 0.6 2 1.2 3.3l15.8 35.6 15.2-35.3c0.4-0.9 0.7-1.8 1.1-2.9 0.4-1 0.6-2.1 0.6-3.2 0-0.3 0-0.5-0.1-0.7s-0.1-0.4-0.1-0.4v-0.1h7.3v0.1c-0.5 0.5-1 1.3-1.6 2.4 -0.6 1.2-1.3 2.6-2.1 4.3l-20.4 45.3h-2.8L884.9 152c-0.5-1-0.9-2-1.4-3 -0.5-0.9-0.9-1.8-1.4-2.6 -0.4-0.8-0.8-1.4-1.1-1.9 -0.3-0.5-0.6-0.9-0.7-1v-0.1H890.1z"/><path class="st0" d="M935.2 194.3c0.1-0.5 0.3-1.1 0.4-1.9 0.1-0.7 0.2-1.6 0.3-2.7 0.1-1.1 0.2-2.4 0.2-3.9 0-1.5 0.1-3.3 0.1-5.3v-23.2c0-2 0-3.8-0.1-5.3 0-1.5-0.1-2.8-0.2-3.9 -0.1-1.1-0.2-2-0.3-2.8s-0.2-1.4-0.4-1.9v-0.1h8.5v0.1c-0.1 0.5-0.3 1.1-0.4 1.9 -0.1 0.7-0.2 1.7-0.3 2.8 -0.1 1.1-0.2 2.4-0.2 3.9 -0.1 1.5-0.1 3.3-0.1 5.3v23.2c0 2 0 3.8 0.1 5.3 0.1 1.5 0.1 2.8 0.2 3.9 0.1 1.1 0.2 2 0.3 2.7 0.1 0.7 0.3 1.4 0.4 1.9v0.1h-8.5V194.3z"/><path class="st0" d="M961.7 191.3c2.8 0 5.4-0.1 7.7-0.4 2.3-0.2 4.4-0.5 6.2-0.8 2-0.3 3.9-0.7 5.6-1.2l-1 5.8c-0.3 0-0.7 0-1.3-0.1 -0.6 0-1.2 0-1.9-0.1 -0.7 0-1.4 0-2.2-0.1 -0.8 0-1.5 0-2.2 0 -0.7 0-1.3 0-1.8 0 -0.5 0-0.9 0-1.2 0h-15.4v-0.1c0.1-0.5 0.3-1.1 0.4-1.9 0.1-0.7 0.2-1.6 0.3-2.7 0.1-1.1 0.2-2.4 0.2-3.9 0-1.5 0.1-3.3 0.1-5.3v-23.2c0-2 0-3.8-0.1-5.3 0-1.5-0.1-2.8-0.2-3.9 -0.1-1.1-0.2-2-0.3-2.8 -0.1-0.7-0.3-1.4-0.4-1.9v-0.1h8.5v0.1c-0.1 0.5-0.3 1.1-0.4 1.9 -0.1 0.7-0.2 1.7-0.3 2.8 -0.1 1.1-0.2 2.4-0.2 3.9 -0.1 1.5-0.1 3.3-0.1 5.3V191.3z"/><path class="st0" d="M995.2 191.3c2.8 0 5.4-0.1 7.7-0.4 2.3-0.2 4.4-0.5 6.2-0.8 2-0.3 3.9-0.7 5.6-1.2l-1 5.8c-0.3 0-0.7 0-1.3-0.1 -0.6 0-1.2 0-1.9-0.1 -0.7 0-1.4 0-2.2-0.1 -0.8 0-1.5 0-2.2 0 -0.7 0-1.3 0-1.8 0 -0.5 0-0.9 0-1.2 0h-15.4v-0.1c0.1-0.5 0.3-1.1 0.4-1.9 0.1-0.7 0.2-1.6 0.3-2.7 0.1-1.1 0.2-2.4 0.2-3.9 0-1.5 0.1-3.3 0.1-5.3v-23.2c0-2 0-3.8-0.1-5.3 0-1.5-0.1-2.8-0.2-3.9 -0.1-1.1-0.2-2-0.3-2.8 -0.1-0.7-0.3-1.4-0.4-1.9v-0.1h8.5v0.1c-0.1 0.5-0.3 1.1-0.4 1.9 -0.1 0.7-0.2 1.7-0.3 2.8 -0.1 1.1-0.2 2.4-0.2 3.9 -0.1 1.5-0.1 3.3-0.1 5.3V191.3z"/><path class="st0" d="M1030.1 143.3c2.9 0 5.6-0.1 8.1-0.1s4.5-0.1 6.3-0.2c1.7-0.1 2.9-0.2 3.5-0.3l-1.7 4.7c-0.8-0.2-1.7-0.4-2.7-0.6 -0.9-0.1-2-0.3-3.3-0.4 -1.3-0.1-2.8-0.2-4.5-0.2 -0.6 0-1.3 0-2 0.1s-1.6 0.1-2.3 0.1c-0.9 0-1.7 0.1-2.6 0.1v19.4c2.4 0 4.7-0.1 6.6-0.2 2-0.1 3.6-0.2 5-0.4 1.6-0.1 3-0.3 4.3-0.5l-1.1 5.2c-1.6-0.2-3.3-0.4-5-0.6 -1.5-0.2-3.1-0.3-4.8-0.4 -1.7-0.1-3.4-0.2-5-0.2v22.3c2.8 0 5.4-0.1 7.7-0.4 2.3-0.2 4.4-0.5 6.2-0.8 2-0.3 3.9-0.7 5.6-1.2l-1 5.8c-0.3 0-0.7 0-1.3-0.1 -0.6 0-1.2 0-1.9-0.1 -0.7 0-1.4 0-2.2-0.1 -0.8 0-1.5 0-2.2 0 -0.7 0-1.3 0-1.8 0 -0.5 0-0.9 0-1.2 0h-15.4v-0.1c0.1-0.5 0.3-1.1 0.4-1.9 0.1-0.7 0.2-1.6 0.3-2.7 0.1-1.1 0.2-2.4 0.2-3.9 0-1.5 0.1-3.3 0.1-5.3v-23.2c0-2 0-3.8-0.1-5.3 0-1.5-0.1-2.8-0.2-3.9 -0.1-1.1-0.2-2-0.3-2.8 -0.1-0.7-0.3-1.4-0.4-1.9v-0.1C1024.2 143.4 1027.1 143.3 1030.1 143.3z"/><path class="st0" d="M225.1 61.7c-2.6 0-5 0.1-7.1 0.4 -2.1 0.2-3.9 0.5-5.5 0.8 -1.8 0.3-3.4 0.7-4.8 1.1l1-5.4c0.3 0 0.7 0 1.2 0.1 0.5 0 1.1 0 1.8 0.1 0.7 0 1.3 0 2.1 0 0.7 0 1.4 0 2.1 0 0.6 0 1.2 0 1.7 0 0.5 0 0.9 0 1.1 0h19.1c0.2 0 0.6 0 1.1 0 0.5 0 1.1 0 1.7 0 0.6 0 1.3 0 2.1 0 0.7 0 1.4 0 2.1 0 0.7 0 1.3 0 1.8-0.1 0.5 0 0.9 0 1.2-0.1l1 5.4c-1.4-0.4-3-0.8-4.8-1.1 -1.5-0.3-3.4-0.5-5.5-0.8 -2.1-0.2-4.5-0.4-7.1-0.4v31.9c0 1.9 0 3.5 0.1 5 0.1 1.4 0.1 2.6 0.2 3.7 0.1 1 0.2 1.9 0.3 2.6 0.1 0.7 0.3 1.3 0.4 1.7v0.1h-8v-0.1c0.1-0.5 0.3-1 0.4-1.7 0.1-0.7 0.2-1.5 0.3-2.6 0.1-1 0.2-2.2 0.2-3.7 0-1.4 0.1-3.1 0.1-5V61.7z"/><path class="st0" d="M275.1 90.6c-0.6 0-1.4 0-2.3 0 -0.9 0-2 0-3.1 0 -1.1 0-2.2 0-3.4 0 -1.2 0-2.4 0-3.5 0s-2.2 0-3.2 0c-1 0-1.9 0-2.7 0.1v6.9c0 1.3 0 2.5 0.1 3.5 0 1 0.1 1.8 0.1 2.6s0.1 1.3 0.2 1.8c0.1 0.5 0.2 0.9 0.3 1.2v0.1h-5.6v-0.1c0.1-0.3 0.2-0.7 0.3-1.2 0.1-0.5 0.2-1.1 0.2-1.8 0.1-0.7 0.1-1.6 0.1-2.6s0-2.1 0-3.5V82.3c0-1.3 0-2.5 0-3.5 0-1-0.1-1.8-0.1-2.6 -0.1-0.7-0.1-1.3-0.2-1.8 -0.1-0.5-0.2-0.9-0.3-1.2v-0.1h5.6v0.1c-0.1 0.3-0.2 0.7-0.3 1.2 -0.1 0.5-0.2 1.1-0.2 1.8 -0.1 0.7-0.1 1.6-0.1 2.6 0 1-0.1 2.1-0.1 3.5v6c0.8 0 1.7 0.1 2.8 0.1 1 0 2.1 0 3.2 0 1.1 0 2.3 0 3.4 0 1.2 0 2.3 0 3.4-0.1 1.1 0 2.1-0.1 3-0.1 0.9 0 1.8-0.1 2.4-0.1v-5.8c0-1.3 0-2.5-0.1-3.5 0-1-0.1-1.8-0.1-2.6 -0.1-0.7-0.1-1.3-0.2-1.8 -0.1-0.5-0.2-0.9-0.3-1.2v-0.1h5.6v0.1c-0.1 0.3-0.2 0.7-0.3 1.2 -0.1 0.5-0.2 1.1-0.2 1.8 -0.1 0.7-0.1 1.6-0.1 2.6 0 1 0 2.1 0 3.5v15.2c0 1.3 0 2.5 0 3.5s0.1 1.8 0.1 2.6c0.1 0.7 0.1 1.3 0.2 1.8 0.1 0.5 0.2 0.9 0.3 1.2v0.1h-5.6v-0.1c0.1-0.3 0.2-0.7 0.3-1.2 0.1-0.5 0.2-1.1 0.2-1.8s0.1-1.6 0.1-2.6 0.1-2.1 0.1-3.5V90.6z"/><path class="st0" d="M292.5 73.1c1.9 0 3.7 0 5.3-0.1 1.6 0 3-0.1 4.1-0.1s1.9-0.1 2.3-0.2l-1.1 3.1c-0.5-0.1-1.1-0.3-1.8-0.4 -0.6-0.1-1.3-0.2-2.2-0.3s-1.8-0.1-2.9-0.1c-0.4 0-0.8 0-1.3 0 -0.5 0-1 0.1-1.5 0.1 -0.6 0-1.1 0.1-1.7 0.1v12.8c1.6 0 3.1-0.1 4.3-0.1 1.3-0.1 2.4-0.2 3.3-0.2 1.1-0.1 2-0.2 2.8-0.3l-0.7 3.4c-1.1-0.1-2.2-0.3-3.3-0.4 -1-0.1-2-0.2-3.2-0.3 -1.1-0.1-2.2-0.1-3.3-0.1v14.7c1.8 0 3.5-0.1 5.1-0.2 1.5-0.2 2.9-0.3 4-0.5 1.3-0.2 2.6-0.5 3.7-0.8l-0.7 3.8c-0.2 0-0.5 0-0.8 0 -0.4 0-0.8 0-1.3 0 -0.5 0-0.9 0-1.4 0 -0.5 0-1 0-1.4 0 -0.5 0-0.9 0-1.2 0 -0.4 0-0.6 0-0.8 0h-10.1v-0.1c0.1-0.3 0.2-0.7 0.3-1.2 0.1-0.5 0.2-1.1 0.2-1.8 0.1-0.7 0.1-1.6 0.1-2.6s0-2.1 0-3.5V82.3c0-1.3 0-2.5 0-3.5 0-1-0.1-1.8-0.1-2.6 -0.1-0.7-0.1-1.3-0.2-1.8 -0.1-0.5-0.2-0.9-0.3-1.2v-0.1C288.7 73.1 290.6 73.1 292.5 73.1z"/><path class="st0" d="M339.2 93.6c0 1.9 0 3.5 0.1 5 0.1 1.4 0.1 2.6 0.2 3.7 0.1 1 0.2 1.9 0.3 2.6 0.1 0.7 0.3 1.3 0.4 1.7v0.1h-8v-0.1c0.1-0.5 0.3-1 0.4-1.7 0.1-0.7 0.2-1.5 0.3-2.6 0.1-1 0.2-2.2 0.2-3.7 0-1.4 0.1-3.1 0.1-5V71.9c0-1.9 0-3.5-0.1-5 0-1.4-0.1-2.6-0.2-3.7 -0.1-1-0.2-1.9-0.3-2.6 -0.1-0.7-0.3-1.3-0.4-1.7v-0.1c0.4 0 0.9 0.1 1.4 0.1 0.4 0 0.9 0.1 1.4 0.1 0.5 0 1.1 0 1.6 0 0.9 0 2-0.1 3.5-0.3 1.5-0.2 3.4-0.3 5.7-0.3 2.1 0 4.1 0.3 5.9 0.9 1.8 0.6 3.4 1.4 4.7 2.5 1.3 1.1 2.4 2.5 3.1 4.1 0.7 1.6 1.1 3.4 1.1 5.5 0 1.6-0.2 3.1-0.6 4.5 -0.4 1.4-1 2.6-1.7 3.7 -0.7 1.1-1.6 2.1-2.7 3 -1 0.9-2.2 1.6-3.5 2.2l11.7 16.5c0.6 0.8 1.1 1.5 1.6 2.1 0.5 0.6 1 1.1 1.4 1.5 0.5 0.4 0.9 0.8 1.3 1.1 0.4 0.3 0.9 0.5 1.3 0.7v0.1h-9.7c-0.1-0.4-0.3-1-0.7-1.7 -0.4-0.7-0.8-1.4-1.3-2.1l-11.8-16.7c-1.1 0.1-2.2 0.2-3.4 0.2s-2.3-0.1-3.5-0.3V93.6zM339.2 83.5c2.2 0.4 4.2 0.5 6 0.2 1.8-0.3 3.4-0.9 4.7-1.9 1.3-1 2.3-2.3 3-4 0.7-1.7 1.1-3.7 1.1-6.1 0-1.7-0.2-3.2-0.6-4.5 -0.4-1.4-0.9-2.5-1.7-3.5 -0.7-0.9-1.7-1.7-2.8-2.2 -1.1-0.5-2.5-0.8-4-0.8 -1 0-1.8 0-2.5 0.1 -0.7 0.1-1.3 0.2-1.8 0.3 -0.6 0.1-1.1 0.2-1.4 0.4V83.5z"/><path class="st0" d="M386.4 72.6c2.6 0 5 0.4 7.2 1.3 2.2 0.8 4.1 2 5.7 3.6 1.6 1.5 2.9 3.4 3.8 5.5 0.9 2.2 1.4 4.5 1.4 7.1 0 1.5-0.2 2.9-0.5 4.4 -0.3 1.4-0.8 2.8-1.5 4.1 -0.7 1.3-1.5 2.5-2.4 3.5 -1 1.1-2.1 2-3.3 2.8s-2.6 1.4-4.1 1.8c-1.5 0.4-3.1 0.7-4.8 0.7 -2.6 0-5-0.4-7.2-1.3 -2.2-0.8-4.1-2-5.7-3.5 -1.6-1.5-2.9-3.4-3.8-5.5 -0.9-2.1-1.4-4.5-1.4-7.1 0-1.5 0.2-2.9 0.5-4.4 0.3-1.4 0.8-2.8 1.5-4.1 0.7-1.3 1.5-2.5 2.4-3.6 1-1.1 2.1-2 3.3-2.8s2.6-1.4 4.1-1.9C383.1 72.8 384.7 72.6 386.4 72.6zM387.8 105.3c1.7 0 3.3-0.3 4.7-0.9s2.7-1.5 3.7-2.7c1-1.2 1.8-2.6 2.4-4.3 0.6-1.7 0.9-3.6 0.9-5.8 0-2.4-0.3-4.6-0.8-6.7 -0.6-2-1.4-3.8-2.5-5.3 -1.1-1.5-2.5-2.7-4.1-3.5s-3.5-1.3-5.7-1.3c-1.7 0-3.3 0.3-4.7 0.9 -1.4 0.6-2.7 1.5-3.7 2.7 -1 1.2-1.8 2.6-2.4 4.3 -0.6 1.7-0.9 3.6-0.9 5.8 0 2.4 0.3 4.6 0.8 6.7 0.5 2.1 1.4 3.9 2.5 5.4 1.1 1.5 2.5 2.7 4.1 3.6C383.7 104.8 385.6 105.3 387.8 105.3z"/><path class="st0" d="M408.1 106.6c0.2-0.2 0.4-0.6 0.6-1.1 0.2-0.5 0.4-1.1 0.5-1.9 0.2-1.1 0.4-2.3 0.6-3.7 0.2-1.4 0.4-2.8 0.7-4.3 0.2-1.5 0.5-3 0.7-4.6s0.4-3.1 0.7-4.6c0.2-1.5 0.4-3 0.6-4.4 0.2-1.4 0.4-2.7 0.5-3.9s0.3-2.2 0.4-3.1c0.1-0.9 0.2-1.5 0.2-2h3l14.7 27.5 14.6-27.5h2.2l3.8 27.8c0.1 0.9 0.2 1.6 0.4 2.2 0.1 0.6 0.2 1.2 0.4 1.6 0.1 0.4 0.2 0.8 0.4 1.1 0.1 0.3 0.2 0.5 0.3 0.7v0.1h-5.9v-0.1c0.1-0.2 0.2-0.5 0.2-0.8 0.1-0.4 0.1-0.9 0.1-1.4 0-0.2 0-0.4 0-0.6 0-0.2 0-0.4-0.1-0.7l-3-22.4 -13.8 26 -1.6-0.2 -13.9-26c-0.5 3.7-1 7.1-1.4 10.2 -0.2 1.3-0.3 2.7-0.5 4 -0.2 1.3-0.3 2.6-0.5 3.7 -0.1 1.2-0.2 2.2-0.3 3.1 -0.1 0.9-0.1 1.5-0.1 2 0 0.5 0 1 0 1.4s0.1 0.7 0.1 1c0 0.3 0.1 0.6 0.1 0.9L408.1 106.6 408.1 106.6z"/><path class="st0" d="M481.7 106.7L481.7 106.7c0-0.2 0.1-0.3 0.1-0.4 0-0.2 0-0.3 0-0.4 0-0.5-0.1-1-0.2-1.6 -0.1-0.6-0.4-1.3-0.8-2.2l-2.8-6.4c-0.9 0-2 0-3.5 0 -1.4 0-3 0-4.7 0 -1.2 0-2.4 0-3.6 0s-2.2 0-3.1 0l-2.7 6.2c-0.2 0.6-0.5 1.2-0.7 1.9 -0.3 0.7-0.4 1.4-0.4 2.1 0 0.2 0 0.4 0 0.5 0 0.1 0.1 0.2 0.1 0.3v0.1h-4.8v-0.1c0.3-0.3 0.6-0.8 1.1-1.6 0.4-0.8 0.9-1.7 1.4-2.8l13.4-29.7h1.9l12.7 28.6c0.3 0.7 0.6 1.3 0.9 2s0.6 1.2 0.9 1.7c0.3 0.5 0.5 0.9 0.7 1.3s0.4 0.6 0.4 0.7v0.1H481.7zM466.5 93.6c0.9 0 1.8 0 2.8 0 1 0 1.9 0 2.8 0 0.9 0 1.8 0 2.6 0 0.8 0 1.6 0 2.3 0l-6.6-14.8L464 93.6H466.5z"/><path class="st0" d="M492.3 73.1l24.1 25.6V82.3c0-1.3 0-2.5 0-3.5 0-1-0.1-1.8-0.1-2.6 -0.1-0.7-0.1-1.3-0.2-1.8 -0.1-0.5-0.2-0.9-0.3-1.2v-0.1h4.2v0.1c-0.1 0.3-0.2 0.7-0.3 1.2 -0.1 0.5-0.1 1.1-0.2 1.8 -0.1 0.7-0.1 1.6-0.1 2.6 0 1 0 2.1 0 3.5v24.8h-0.8l-24.1-25.6v16c0 1.3 0 2.5 0 3.5s0.1 1.8 0.1 2.6c0.1 0.7 0.1 1.3 0.2 1.8s0.2 0.9 0.3 1.2v0.1h-4.2v-0.1c0.1-0.3 0.2-0.7 0.3-1.2 0.1-0.5 0.2-1.1 0.2-1.8 0.1-0.7 0.1-1.6 0.1-2.6 0-1 0-2.1 0-3.5V82.3c0-1.3 0-2.5 0-3.5 0-1-0.1-1.8-0.1-2.6 -0.1-0.7-0.1-1.3-0.2-1.8 -0.1-0.5-0.2-0.9-0.3-1.2v-0.1H492.3z"/><path class="st0" d="M587 66.1l-0.3 0.1c-1.7-1.6-3.8-2.9-6.3-3.8 -2.4-1-5.1-1.4-8-1.4 -2.8 0-5.4 0.4-7.7 1.3 -2.3 0.9-4.3 2.2-6 3.8 -1.7 1.7-3 3.7-3.9 6.1 -0.9 2.4-1.4 5.2-1.4 8.3 0 3.4 0.4 6.6 1.3 9.5 0.9 3 2.2 5.5 4 7.7 1.8 2.2 4 3.9 6.6 5.1 2.6 1.2 5.7 1.9 9.2 1.9 1.3 0 2.5-0.1 3.8-0.4 1.3-0.3 2.5-0.7 3.7-1.2 1.2-0.5 2.3-1.2 3.3-1.9 1-0.7 2-1.6 2.8-2.6l0.4 0.2 -2.7 6.8c-1.7 0.6-3.5 1.1-5.5 1.5s-4 0.5-6.1 0.5c-4.1 0-7.9-0.6-11.3-1.8s-6.4-2.9-8.8-5.1c-2.5-2.2-4.4-4.8-5.7-7.9 -1.4-3.1-2.1-6.5-2.1-10.2 0-2.1 0.3-4.2 0.8-6.2 0.5-2 1.3-4 2.4-5.8 1-1.8 2.3-3.5 3.9-5.1 1.5-1.5 3.3-2.9 5.3-4s4.1-2 6.5-2.7c2.4-0.6 4.9-1 7.7-1 4.3 0 8.3 0.7 12 2L587 66.1z"/><path class="st0" d="M616.3 106.7L616.3 106.7c0-0.2 0.1-0.3 0.1-0.4 0-0.2 0-0.3 0-0.4 0-0.5-0.1-1-0.2-1.6 -0.1-0.6-0.4-1.3-0.8-2.2l-2.8-6.4c-0.9 0-2 0-3.5 0 -1.4 0-3 0-4.7 0 -1.2 0-2.4 0-3.6 0s-2.2 0-3.1 0l-2.7 6.2c-0.2 0.6-0.5 1.2-0.7 1.9 -0.3 0.7-0.4 1.4-0.4 2.1 0 0.2 0 0.4 0 0.5 0 0.1 0.1 0.2 0.1 0.3v0.1h-4.8v-0.1c0.3-0.3 0.6-0.8 1.1-1.6 0.4-0.8 0.9-1.7 1.4-2.8l13.4-29.7h1.9l12.7 28.6c0.3 0.7 0.6 1.3 0.9 2s0.6 1.2 0.9 1.7c0.3 0.5 0.5 0.9 0.7 1.3 0.2 0.3 0.4 0.6 0.4 0.7v0.1H616.3zM601.2 93.6c0.9 0 1.8 0 2.8 0 1 0 1.9 0 2.8 0 0.9 0 1.8 0 2.6 0 0.8 0 1.6 0 2.3 0l-6.6-14.8 -6.5 14.9H601.2z"/><path class="st0" d="M633.2 75.2c-1.8 0-3.5 0.1-5 0.2 -1.5 0.2-2.8 0.3-3.8 0.5 -1.2 0.2-2.4 0.5-3.3 0.8l0.7-3.8c0.2 0 0.5 0 0.8 0s0.8 0 1.3 0 0.9 0 1.4 0c0.5 0 1 0 1.4 0 0.5 0 0.9 0 1.2 0 0.4 0 0.6 0 0.8 0h13.3c0.2 0 0.4 0 0.8 0 0.4 0 0.8 0 1.2 0 0.5 0 0.9 0 1.4 0 0.5 0 1 0 1.4 0 0.5 0 0.9 0 1.3 0s0.7 0 0.8 0l0.7 3.8c-1-0.3-2.1-0.5-3.4-0.8 -1.1-0.2-2.4-0.4-3.8-0.5 -1.5-0.2-3.1-0.2-5-0.2v22.3c0 1.3 0 2.5 0.1 3.5s0.1 1.8 0.1 2.6 0.1 1.3 0.2 1.8c0.1 0.5 0.2 0.9 0.3 1.2v0.1h-5.6v-0.1c0.1-0.3 0.2-0.7 0.3-1.2s0.1-1.1 0.2-1.8c0.1-0.7 0.1-1.6 0.1-2.6s0-2.1 0-3.5V75.2z"/><path class="st0" d="M676.2 90.6c-0.6 0-1.4 0-2.3 0 -0.9 0-2 0-3.1 0 -1.1 0-2.2 0-3.4 0 -1.2 0-2.4 0-3.5 0s-2.2 0-3.3 0c-1 0-1.9 0-2.7 0.1v6.9c0 1.3 0 2.5 0.1 3.5s0.1 1.8 0.1 2.6c0.1 0.7 0.1 1.3 0.2 1.8s0.2 0.9 0.3 1.2v0.1H653v-0.1c0.1-0.3 0.2-0.7 0.3-1.2 0.1-0.5 0.2-1.1 0.2-1.8s0.1-1.6 0.1-2.6 0-2.1 0-3.5V82.3c0-1.3 0-2.5 0-3.5 0-1-0.1-1.8-0.1-2.6 -0.1-0.7-0.1-1.3-0.2-1.8 -0.1-0.5-0.2-0.9-0.3-1.2v-0.1h5.6v0.1c-0.1 0.3-0.2 0.7-0.3 1.2 -0.1 0.5-0.2 1.1-0.2 1.8 -0.1 0.7-0.1 1.6-0.1 2.6 0 1-0.1 2.1-0.1 3.5v6c0.8 0 1.7 0.1 2.8 0.1 1 0 2.1 0 3.2 0 1.1 0 2.3 0 3.4 0s2.3 0 3.4-0.1c1.1 0 2.1-0.1 3-0.1 0.9 0 1.8-0.1 2.4-0.1v-5.8c0-1.3 0-2.5-0.1-3.5 0-1-0.1-1.8-0.1-2.6 -0.1-0.7-0.1-1.3-0.2-1.8 -0.1-0.5-0.2-0.9-0.3-1.2v-0.1h5.6v0.1c-0.1 0.3-0.2 0.7-0.3 1.2 -0.1 0.5-0.2 1.1-0.2 1.8 -0.1 0.7-0.1 1.6-0.1 2.6 0 1 0 2.1 0 3.5v15.2c0 1.3 0 2.5 0 3.5s0.1 1.8 0.1 2.6c0.1 0.7 0.1 1.3 0.2 1.8s0.2 0.9 0.3 1.2v0.1h-5.6v-0.1c0.1-0.3 0.2-0.7 0.3-1.2s0.2-1.1 0.2-1.8c0.1-0.7 0.1-1.6 0.1-2.6s0.1-2.1 0.1-3.5V90.6z"/><path class="st0" d="M703.1 72.6c2.6 0 5 0.4 7.2 1.3 2.2 0.8 4.1 2 5.7 3.6s2.9 3.4 3.8 5.5c0.9 2.2 1.4 4.5 1.4 7.1 0 1.5-0.2 2.9-0.5 4.4s-0.8 2.8-1.5 4.1c-0.7 1.3-1.5 2.5-2.4 3.5 -1 1.1-2.1 2-3.3 2.8s-2.6 1.4-4.1 1.8c-1.5 0.4-3.1 0.7-4.8 0.7 -2.6 0-5-0.4-7.2-1.3 -2.2-0.8-4.1-2-5.7-3.5 -1.6-1.5-2.9-3.4-3.8-5.5 -0.9-2.1-1.4-4.5-1.4-7.1 0-1.5 0.2-2.9 0.5-4.4 0.3-1.4 0.8-2.8 1.5-4.1 0.7-1.3 1.5-2.5 2.4-3.6 1-1.1 2.1-2 3.3-2.8 1.2-0.8 2.6-1.4 4.1-1.9C699.8 72.8 701.4 72.6 703.1 72.6zM704.5 105.3c1.7 0 3.3-0.3 4.7-0.9 1.4-0.6 2.7-1.5 3.7-2.7 1-1.2 1.8-2.6 2.4-4.3 0.6-1.7 0.9-3.6 0.9-5.8 0-2.4-0.3-4.6-0.8-6.7 -0.6-2-1.4-3.8-2.5-5.3 -1.1-1.5-2.5-2.7-4.1-3.5 -1.6-0.8-3.5-1.3-5.7-1.3 -1.7 0-3.3 0.3-4.7 0.9 -1.4 0.6-2.7 1.5-3.7 2.7 -1 1.2-1.8 2.6-2.4 4.3 -0.6 1.7-0.9 3.6-0.9 5.8 0 2.4 0.3 4.6 0.8 6.7 0.5 2.1 1.4 3.9 2.5 5.4 1.1 1.5 2.5 2.7 4.1 3.6C700.4 104.8 702.3 105.3 704.5 105.3z"/><path class="st0" d="M731.4 104.6c1.8 0 3.5-0.1 5.1-0.2s2.9-0.3 4-0.5c1.3-0.2 2.6-0.5 3.7-0.8l-0.7 3.8c-0.2 0-0.5 0-0.8 0s-0.8 0-1.3 0c-0.5 0-0.9 0-1.4 0 -0.5 0-1 0-1.4 0 -0.5 0-0.9 0-1.2 0 -0.4 0-0.6 0-0.8 0h-10.1v-0.1c0.1-0.3 0.2-0.7 0.3-1.2 0.1-0.5 0.2-1.1 0.2-1.8s0.1-1.6 0.1-2.6 0-2.1 0-3.5V82.3c0-1.3 0-2.5 0-3.5 0-1-0.1-1.8-0.1-2.6 -0.1-0.7-0.1-1.3-0.2-1.8 -0.1-0.5-0.2-0.9-0.3-1.2v-0.1h5.6v0.1c-0.1 0.3-0.2 0.7-0.3 1.2 -0.1 0.5-0.2 1.1-0.2 1.8 -0.1 0.7-0.1 1.6-0.1 2.6 0 1-0.1 2.1-0.1 3.5V104.6z"/><path class="st0" d="M748.7 106.6c0.1-0.3 0.2-0.7 0.3-1.2s0.1-1.1 0.2-1.8c0.1-0.7 0.1-1.6 0.1-2.6 0-1 0-2.1 0-3.5V82.3c0-1.3 0-2.5 0-3.5 0-1-0.1-1.8-0.1-2.6 -0.1-0.7-0.1-1.3-0.2-1.8 -0.1-0.5-0.2-0.9-0.3-1.2v-0.1h5.6v0.1c-0.1 0.3-0.2 0.7-0.3 1.2 -0.1 0.5-0.2 1.1-0.2 1.8 -0.1 0.7-0.1 1.6-0.1 2.6 0 1-0.1 2.1-0.1 3.5v15.2c0 1.3 0 2.5 0.1 3.5 0 1 0.1 1.8 0.1 2.6s0.1 1.3 0.2 1.8c0.1 0.5 0.2 0.9 0.3 1.2v0.1L748.7 106.6 748.7 106.6z"/><path class="st0" d="M788.3 78.3l-0.2 0.1c-1.2-1.1-2.7-2-4.4-2.7 -1.7-0.7-3.6-1-5.6-1 -2 0-3.8 0.3-5.4 0.9 -1.6 0.6-3 1.5-4.2 2.7s-2.1 2.6-2.7 4.3c-0.7 1.7-1 3.6-1 5.8 0 2.4 0.3 4.6 0.9 6.7s1.6 3.9 2.8 5.4c1.2 1.5 2.8 2.7 4.6 3.6 1.8 0.9 4 1.3 6.5 1.3 0.9 0 1.8-0.1 2.7-0.3 0.9-0.2 1.7-0.5 2.6-0.8s1.6-0.8 2.3-1.3c0.7-0.5 1.4-1.1 2-1.8l0.3 0.2 -1.9 4.8c-1.2 0.5-2.5 0.8-3.9 1 -1.4 0.2-2.8 0.4-4.3 0.4 -2.9 0-5.5-0.4-7.9-1.3 -2.4-0.8-4.5-2-6.2-3.5 -1.7-1.5-3.1-3.4-4-5.5 -1-2.1-1.4-4.5-1.4-7.1 0-1.5 0.2-2.9 0.6-4.4 0.4-1.4 0.9-2.8 1.7-4.1 0.7-1.3 1.6-2.5 2.7-3.6 1.1-1.1 2.3-2 3.7-2.8 1.4-0.8 2.9-1.4 4.6-1.9 1.7-0.4 3.5-0.7 5.4-0.7 3 0 5.8 0.5 8.4 1.4L788.3 78.3z"/><path class="st1" d="M186.3 128.4c-0.6 0.1-1.1 0.3-1.8 0.5 0.2 0.2 0.3 0.3 0.4 0.5 -0.6 0.7-1.5 1-2.4 1 -0.6 0-1.1 0-1.7 0.1 -2.1 0.4-3.9-0.2-5.6-1.5 -0.2-0.2-0.4-0.3-0.6-0.4 0 0-0.1 0-0.2 0 0 0.3 0 0.5 0 0.8 0.1 0.7 0.1 1.4 0.2 2 0 1.2-0.3 2.3-1 3.3 -0.5 0.8-1 1.6-1.5 2.3 -0.4 0.7-1 1.1-1.9 1.4 -0.1-0.2-0.1-0.4-0.3-0.7 -0.4 0.5-0.8 1-1.2 1.4 -0.4-0.1-0.6-0.2-0.4-0.6 0.3-0.5 0.3-1.1 0.1-1.6 -0.3-0.9-0.6-1.9-1.1-2.8 -1.4-2.7-2.9-5.3-4.4-8 -0.3-0.5-0.5-0.8-1.1-1 -1.2-0.3-1.8-1.5-1.3-2.7 0.2-0.5 0.6-0.9 0.9-1.5 -0.4-0.3-0.6-0.8-1.3-0.7 0 0.3-0.1 0.5-0.1 0.8 -0.1 6.2-0.2 12.3-0.5 18.5 -0.2 6-0.6 11.9-1 17.9 -0.3 4.6-0.8 9.2-1.4 13.8 -1.1 8.7-2.6 17.3-5 25.7 -2.9 10.1-6.5 20-11.6 29.3 -7.4 13.3-17.2 24.5-29.2 33.7 -5.6 4.3-11.5 8.1-17.6 11.5 -0.4 0.2-0.8 0.4-1.2 0.6 -1.5-0.9-3-1.7-4.5-2.6 -10.2-5.9-19.4-13-27.6-21.5 -9.4-9.9-16.5-21.2-21.7-33.7 -2.1-5.1-3.9-10.4-5.4-15.8 -2.2-7.7-3.8-15.6-4.9-23.5 -0.7-5.1-1.3-10.2-1.8-15.3 -0.4-3.9-0.6-7.8-0.8-11.7 -0.5-7.5-0.7-15.1-0.8-22.7 0-0.3 0-0.6-0.1-1 -0.4 0.1-0.7 0.3-1 0.3 -0.4 0-0.5 0.2-0.7 0.5 -1.6 3-3.3 5.9-4.9 8.9 -0.4 0.7-0.7 1.6-0.8 2.4 -0.1 0.4 0 1 0.1 1.4 0.1 0.4 0.1 0.5-0.4 0.7 -0.3-0.4-0.7-0.9-1.1-1.4 -0.2 0.3-0.2 0.5-0.4 0.7 -0.8-0.2-1.4-0.7-1.9-1.4 -0.4-0.6-0.7-1.2-1.1-1.7 -1.4-1.8-1.6-3.8-1.2-5.9 0-0.2 0.1-0.4 0.1-0.6 0 0 0-0.1-0.1-0.2 -0.2 0.1-0.4 0.2-0.6 0.4 -1.7 1.4-3.7 2-5.9 1.6 -0.5-0.1-1-0.1-1.6-0.1 -1-0.1-1.6-0.3-2.3-1 0.1-0.1 0.2-0.3 0.4-0.5 -0.6-0.2-1.2-0.4-1.8-0.6 0-0.3 0.1-0.5 0.4-0.5 0.6 0 1.1-0.3 1.5-0.7 0.7-0.7 1.3-1.4 1.9-2.2 1.9-2.8 3.7-5.7 5.6-8.6 -0.3-0.8-0.6-1.5-0.2-2.3 0.4-0.8 1.1-1 2-1.2 -0.4-1.3-0.2-2.3 0.9-2.8 0.3-0.8 0.5-1.4 0.9-1.9 2-3.3 4.3-6.3 6.7-9.3 1.4-1.8 2.9-3.6 4.3-5.4 0.4-0.5 0.8-0.9 1.5-0.8 0.8 0.2 1.4 0.4 1.8 1.1 0.1 0.1 0.1 0.3 0.2 0.5 0.3 0 0.6 0.1 0.9 0.1 3 0.1 6 0.2 9 0.3 0.5 0 1-0.1 1.5-0.4 0.6-0.4 1.4-0.6 2.1-0.5 0.7 0.1 1.3 0.4 1.8 0.9 1.5 1.6 2.9 3.1 4.4 4.7 0.2 0.2 0.3 0.3 0.7 0.6 0-1.3 0-2.4 0-3.5 -1.7-1.2-1.8-2.7-0.1-4 -0.3-3.5-1.3-6.8-3.2-9.7 -2.2 0.2-3.1-1.6-2.4-3.3 -0.9-1-1.9-2-2.8-3 -0.1 0-0.2 0-0.3 0.1 -1.1 0.6-1.9 0.2-2.3-1 -0.2-0.8-0.1-1.6 0.3-2.2 0.4-0.5 0.8-1 1.2-1.4 1.2-1.1 2.3-2.3 3.5-3.3 0.6-0.5 0.8-1.1 0.8-1.8 0-0.5 0-1-0.1-1.5 -0.3-1.9 0.4-3.4 1.8-4.6 1-0.9 2-1.7 3-2.6 2.2-1.9 4.2-4 5.7-6.5 1.2 0.4 1.4 0.8 1.3 2.9 0.2-0.2 0.4-0.3 0.5-0.4 0.8-0.7 1.5-1.4 2.3-2.1 0.5-0.4 0.7-0.9 0.7-1.6 0-0.5 0-1.1-0.1-1.6 -0.3-1.6 0.2-3 1.3-4.1 0.3-0.4 0.7-0.7 1.1-1 2.5-2.1 5-4.3 6.9-6.9 0.4-0.6 0.8-1.2 1.2-1.8 1.7 0.7 1.3 2.1 1.1 3.5 0.3-0.2 0.5-0.3 0.6-0.5 0.7-0.6 1.4-1.3 2-1.9 0.3-0.3 0.5-0.7 0.5-1.1 0-0.7 0-1.4-0.1-2 -0.2-1.5 0.3-2.8 1.3-3.9 0.3-0.4 0.7-0.7 1.1-1 2.2-1.9 4.5-3.9 6.4-6.2 0.6-0.8 1.2-1.6 1.8-2.5 0.9 0.4 1 0.6 1.3 1.5 0.6-0.2 3.2-2.4 3.9-3.3 -2.5-1-3.5-2.6-2.9-4.6 0.6-1.9 2.3-2.7 4.7-2.1C90.1 9.4 90 8.6 90 7.9c-0.1-1.6-0.1-3.2 0.3-4.8 0.3-1.3 0.8-2.4 2-3.1 0.4 0 0.9 0 1.3 0 1.2 0.7 1.7 1.9 2 3.2 0.4 1.9 0.3 3.8 0.1 5.7 0 0.3-0.1 0.6-0.1 0.9 0.4 0 0.7-0.1 0.9-0.1 1.9 0 3.4 1.3 3.5 3.1 0.1 1.8-1.2 3.4-3 3.6 -0.2 0-0.4 0.1-0.7 0.1 2.2 2.2 4.3 4.2 6.5 6.4 0-1.1 0.5-1.7 1.4-2.1 1.7 2.9 4.1 5.1 6.5 7.3 0.7 0.7 1.5 1.3 2.3 1.9 1.4 1.3 2.1 2.8 1.8 4.7 -0.1 0.5-0.1 1.1-0.1 1.7 0 0.3 0.1 0.7 0.3 0.9 0.9 0.9 1.8 1.7 2.7 2.6 0.1-0.2 0.1-0.3 0.1-0.4 0-0.3 0-0.6-0.1-0.8 -0.1-1.1 0.2-1.7 1.2-2.2 0.1 0.1 0.2 0.2 0.2 0.3 1.4 2.3 3.3 4.2 5.3 6 1.1 1 2.3 1.9 3.4 3 1.3 1.2 2 2.6 1.7 4.4 0 0.2 0 0.5-0.1 0.7 -0.2 1.2 0.1 2.2 1.2 3 0.8 0.6 1.4 1.3 2.2 2 -0.1-1.3 0-2.4 1.3-3 0.2 0.2 0.3 0.4 0.4 0.6 0.8 1 1.5 2.1 2.4 3 1.7 1.7 3.5 3.3 5.3 5 0.4 0.4 0.9 0.8 1.3 1.2 1 1.1 1.4 2.4 1.2 3.9 -0.1 0.6-0.1 1.2-0.1 1.8 0 0.6 0.2 1.1 0.7 1.5 1.2 1.1 2.5 2.3 3.7 3.5 0.4 0.4 0.8 0.8 1.2 1.3 0.5 0.7 0.6 1.4 0.4 2.2 -0.4 1.2-1 1.6-2.2 1.1 -0.1 0-0.1 0-0.4 0 -1 1-2.2 2.1-3.3 3.1 -0.2 0.2-0.3 0.5-0.2 0.8 0.3 1.6-0.6 2.7-2.2 2.7 -0.1 0-0.2 0-0.4 0.1 -1.5 2.2-2.7 4.6-3.5 7.1 -0.2 0.6-0.2 1.2-0.3 1.8 -0.1 0.3 0 0.8-0.2 1 -0.5 0.6-0.6 1.4-0.7 2.1 -0.2 0.8-0.3 1.5-0.4 2.3 -0.1 0.8-0.1 1.7-0.2 2.8 0.4-0.4 0.6-0.6 0.8-0.8 2.1-2.2 4.2-4.4 6.3-6.6 0.9-1 2-1.1 3.2-0.7 0.3 0.1 0.5 0.2 0.7 0.4 0.4 0.3 0.8 0.4 1.3 0.3 3-0.1 5.9-0.2 8.9-0.3 0.4 0 0.7 0 1.1-0.1 0.4-1.1 1.2-1.5 2.2-1.6 0.5 0 0.8 0.1 1.1 0.5 0.7 1 1.5 1.9 2.3 2.8 0.8 1 1.6 1.9 2.3 2.9 0.7 1 1.5 1.9 2.2 2.9 0.7 1 1.5 1.9 2.1 2.9 0.7 1 1.4 2.1 2.1 3.1 0.7 1 0.8 2.2 1.8 3 0.3 0.2 0.3 0.8 0.4 1.3 0 0.2 0 0.5 0 0.7 1.9 0.6 2.3 1.7 1.6 3.6 0.1 0.2 0.3 0.5 0.4 0.7 1.7 2.6 3.3 5.2 5.1 7.7 0.5 0.8 1.2 1.5 1.8 2.2 0.5 0.6 1.2 1 2 1C186.3 128 186.3 128.2 186.3 128.4zM151.1 197.7c-39-0.2-77.9-0.4-117-0.5 0.1 0.4 0.1 0.7 0.2 0.9 1.4 5 3 10 5 14.8 5.6 13.8 13.5 26.1 24.1 36.7 8.5 8.5 18.2 15.3 28.7 21.1 0.5 0.3 0.9 0.2 1.4-0.1 5.5-3 10.8-6.4 15.9-10.1 10.9-8.1 20.2-17.8 27.5-29.4 6.4-10.2 10.9-21.2 14.2-32.7C151 198.2 151.1 198 151.1 197.7zM27.8 159.5c1.1 12.4 2.9 24.7 6.1 36.7 2.6 0.3 116.4 0.7 117.7 0.4 3.2-12.1 5.1-24.5 6.2-37C114.4 159.5 71.1 159.5 27.8 159.5zM92.8 18.6c-0.2 0.1-0.2 0.2-0.3 0.2 -2.5 2.3-5.1 4.5-7.6 6.8 -0.3 0.2-0.4 0.6-0.6 0.9 -0.2 0.3-0.3 0.8-0.6 1 -0.9 0.8-1 1.6-0.5 2.7 0 0.1 0.1 0.2 0.1 0.3 0.8 2-1 3.5-2.6 3.4 -0.6 0-1-0.3-1.2-0.8 -0.1-0.3-0.2-0.6-0.4-0.8 -0.4-0.6-1-0.7-1.7-0.5 -0.8 0.3-0.9 0.4-0.8 1.3 0 0.4 0 0.7 0.1 1.1 0 1.3-0.2 2.4-1.4 3.2 -0.2 0.1-0.4 0.3-0.5 0.5 -1.4 1.4-2.7 2.9-4.1 4.3 -0.7 0.7-1.4 1.2-2.1 1.8 -0.3 0.2-0.4 0.5-0.3 0.9 0.1 0.4 0.3 0.9 0.4 1.3 0.5 1.8-0.6 3.4-2.5 3.4 -0.8 0-1.1-0.2-1.5-0.9 -0.1-0.3-0.2-0.5-0.3-0.8 -0.3-0.6-0.9-0.7-1.6-0.5 -0.8 0.2-0.9 0.4-0.9 1.3 0 0.7 0 1.4 0 2.1 0 0.8-0.3 1.6-1 2.1 -0.3 0.2-0.5 0.5-0.7 0.7 -2 2-4 4.1-6 6.1 -0.8 0.8-1.2 1.6-0.6 2.7 0.1 0.1 0.1 0.2 0.1 0.4 0.7 2.1-1.1 3.4-2.6 3.4 -0.6 0-1.1-0.3-1.3-0.9 -0.1-0.2-0.2-0.5-0.3-0.7 -0.4-0.6-0.9-0.9-1.7-0.7 -0.8 0.2-1 0.4-1 1.3 0 0.6 0 1.2 0 1.9 0 0.7-0.2 1.4-0.7 2 -1.7 1.8-3.4 3.5-5.2 5.3 -0.3 0.3-0.6 0.6-0.9 0.9 1 1 1.9 1.9 2.9 3.1 0.3-0.4 0.5-0.7 0.8-1 14.6-14.5 29.3-28.9 43.9-43.4 0.3-0.3 0.5-0.5 0.8-0.8 0.4-0.3 0.7-0.2 0.8 0.3 0.1 0.4 0 0.8 0 1.2 0 10.2 0 20.4 0 30.6 0 0.3 0 0.7 0 1 1.6-2.1 2.8-4.3 4.4-6.5 1.3 2.2 2.6 4.3 3.8 6.4 0.1 0 0.1 0 0.2-0.1 0-0.3 0-0.7 0-1 0-6.2-0.1-12.4-0.1-18.7 0-4.4 0-8.7 0-13.1 0-0.3 0-0.6 0-0.8 0.1-0.4 0.4-0.6 0.7-0.3 0.2 0.2 0.4 0.4 0.7 0.7 5.2 5.6 10.4 11.2 15.7 16.8 9.5 10.2 19 20.3 28.4 30.5 0.3 0.3 0.6 0.6 1 0.9 0.6-0.7 1.2-1.3 1.8-1.8 0.6-0.6 1.2-1.1 2-1.8 -0.6-0.5-1.2-1-1.7-1.4 -1.4-1.4-2.7-2.9-4.2-4.3 -0.8-0.8-1.2-1.6-1.2-2.7 0-0.4 0-0.7 0-1.1 0-0.6-0.7-1.7-1.2-1.8 -0.2 0-0.4 0-0.5 0 -0.6 0.1-0.9 0.6-1.1 1.2 -0.2 0.6-0.5 1-1.2 1.1 -1.7 0.1-3.4-1.3-2.9-3.2 0.1-0.4 0.2-0.8 0.4-1.2 0.2-0.5 0.1-1-0.3-1.4 -0.9-0.9-1.8-1.8-2.7-2.7 -1.6-1.7-3.3-3.3-4.9-5 -0.3-0.3-0.6-0.8-0.6-1.2 -0.1-0.8-0.1-1.5-0.1-2.3 0-0.7-0.6-1.5-1.2-1.7 -0.6-0.1-1.2 0.3-1.5 1.1 -0.1 0.1-0.1 0.3-0.2 0.4 -0.2 0.6-0.7 0.8-1.3 0.8 -2 0-3.2-1.8-2.6-3.4 0.2-0.4 0.3-0.9 0.4-1.3 0.1-0.4 0-0.8-0.5-1 -0.4-0.2-0.8-0.5-1.1-0.8 -0.8-0.8-1.6-1.6-2.4-2.5 -1.1-1.2-2.2-2.4-3.4-3.5 -0.7-0.6-1-1.3-1-2.2 0-0.7 0-1.4 0-2.1 0-0.2 0-0.5-0.2-0.7 -0.7-0.8-2-0.6-2.5 0.3 -0.1 0.2-0.2 0.5-0.3 0.7 -0.2 0.4-0.5 0.6-0.9 0.7 -1.7 0.4-3.4-1.3-3-3 0.1-0.4 0.2-0.8 0.4-1.2 0.3-0.7 0.2-1.3-0.4-1.8 -0.4-0.4-0.7-0.8-0.8-1.3 -0.1-0.5-0.3-0.8-0.6-1.1 -3-2.9-5.9-5.8-8.9-8.6C93.2 18.9 93 18.8 92.8 18.6zM99.3 136c0-0.1-0.1-0.2-0.1-0.2 0.1-0.1 0.3-0.2 0.4-0.2 0.5-0.1 0.9-0.2 1.4-0.3 3.2-0.7 6.3-1.4 9.5-1.7 1.1-0.1 1.5-0.7 1.2-1.9 -2.8 0.1-5.4 0.7-8.1 1.3 -0.3-0.3-0.5-0.6-0.8-0.7 -1.6-1-3.2-2.1-4.9-3 -2.4-1.3-5-2.1-7.8-2.1 -0.8 0-1.6-0.1-2.3-0.1 -1.6-0.1-3-0.7-4.1-1.9 -0.6-0.7-1.1-1.6-1.5-2.5 -0.4-0.8-0.8-1.7-1.4-2.4 -2-2.4-5.3-1.9-7-0.3 -1 1-1.4 2.1-1.1 3.4 0.3 0.2 0.7 0.3 0.9 0.5 0.2 0.3 0.2 0.7 0.3 1 1.1 0.3 1.8 1.1 2.2 2.2 0.2 0.6 0.4 1.2 0.5 1.9 0.3 1.9 0.6 3.8 0.9 5.7 0.3 1.9 0.8 3.7 1.9 5.3 0.7 1 1.5 2.1 2.3 3 2.1 2.4 4.6 4.2 7.7 5 5.3 1.4 10.5 1.1 15.5-1 1.7-0.7 3.3-1.6 5-2.3 0.1 0 0.2-0.1 0.4-0.3 -0.7-0.2-1.3-0.3-1.9-0.4 -0.6-0.2-1.3-0.1-1.8-0.6 0.6-0.2 1 0 1.4 0.1 1.1 0.2 2.2 0.6 3.3 0.6 1.1 0 2.1 0.4 3 0.8 0.5 0.2 1 0.4 1.5 0.6 0.3 0.1 0.6 0.2 0.9 0.1 0.9-0.3 1.8-0.8 2.6-1.4 -1.4-0.5-2.7-1-4.1-1.3 -1.5-0.3-3.1-0.5-4.7-0.8 -0.3-0.1-0.7 0-0.9-0.4 0.2 0 0.3-0.1 0.4-0.1 2.8 0.3 5.7 0.7 8.4 1.8 1 0.4 2 0.6 2.9-0.1 0.2-0.2 0.6-0.2 0.9-0.4 0.4-0.2 0.7-0.4 0.7-1 -1.2-0.3-2.4-0.6-3.6-0.7 -2.5-0.3-5-0.5-7.5-0.8 -0.2 0-0.5-0.1-0.7-0.1 0-0.1 0-0.2 0.1-0.3 4 0.2 8 0.4 11.9 1.5 0.6-0.8 1.2-1.4 1.7-2 -1 0-2.1 0-3.1 0 -2.5 0-5.1-0.1-7.6-0.2 -0.1 0-0.2 0-0.3-0.1 0 0-0.1 0-0.1-0.1 0 0 0-0.1 0-0.2 0.3-0.2 0.6-0.1 0.9-0.1 3.3 0 6.6 0 9.9 0 1.3 0 1.4-0.1 1.7-1.3 0-0.1 0-0.2 0-0.3 -0.2 0-0.3 0-0.5 0 -1.1 0.1-2.2 0.3-3.2 0.4 -3.8 0.4-7.6 0.5-11.3-0.7 -0.2-0.1-0.5-0.1-0.7 0 -1.5 0.4-2.9 0.8-4.4 1.3 -2.3 0.7-4.5 1.6-6.8 2.3 -2.1 0.7-4.3 1.1-6.5 0.9 -2.8-0.2-4.7-2.1-5-4.8 0-0.2-0.2-0.5 0.3-0.7 0.1 0.4 0.2 0.7 0.2 1 0.5 2.2 1.8 3.6 4.1 3.9 0.4 0.1 0.9 0.1 1.3 0.1 2.4 0 4.7-0.6 6.9-1.4 2.9-1 5.9-2 8.9-2.9 0.8-0.2 1.3-0.6 1.8-1.4 -0.5 0.1-0.9 0.1-1.2 0.2 -2.9 0.6-5.8 1.2-8.7 1.9 -1.7 0.4-3.4 0.9-5.1 1.3 -0.3 0.1-0.6 0.2-0.9-0.2 5.6-1.5 11-2.9 16.7-3.7 -0.2-0.4-0.4-0.7-0.6-1C107.2 134.2 103.3 135.1 99.3 136zM48 107.1c0.3 0 0.5 0 0.7-0.1 0.9-0.1 1.8-0.3 2.8-0.3 2.4-0.1 4.8 0 7.2 0 24.1 0 48.1 0 72.2 0.1 1.4 0 2.7 0.2 4.1 0.3 0.3 0 0.5 0 0.9 0 0-0.7-0.1-1.2-0.1-1.8 -1.6 0.4-2.5 0.2-3.1-0.7 -0.5-0.7-0.5-1.7 0.1-2.4 0.6-0.9 1.5-1 3.1-0.5 0-0.3 0-0.6 0-0.9 -1.7 0.4-2.5 0.2-3.1-0.7 -0.5-0.8-0.4-1.9 0.3-2.5 0.3-0.3 0.8-0.5 1.2-0.7 0.8-0.2 1.4 0.3 2.1 0.7 0.1-0.6 0.2-1.2 0.3-1.7 -0.8 0-1.4 0-2.1 0 -2 0-4-0.1-6.1-0.1 -9.8 0-19.5 0-29.3-0.1 -1.3 0-1.3-0.1-1.3-1.3 0-3.7 0-7.4 0-11.1 0-5 0-10.1-0.1-15.1 0-0.3-0.1-0.5-0.1-0.8 -0.8 1.1-1.4 2.2-2 3.3 -0.6 1.1-1.2 2.3-2 3.4 -0.5-0.9-1-1.6-1.4-2.4 -0.5-0.8-0.9-1.5-1.4-2.3 -0.4-0.7-0.8-1.5-1.4-2.1 -0.1 0.4-0.1 0.8-0.1 1.1 0 8.5 0 17 0 25.6 0 2.1 0.2 2-2 2 -4.9 0-9.8-0.1-14.6-0.1 -7.6 0-15.1 0-22.7 0 -0.3 0-0.6 0-1 0 0 0.4-0.1 0.8-0.1 1.3 0.4-0.2 0.6-0.3 0.8-0.3 0.9-0.3 1.9 0 2.5 0.8 0.5 0.8 0.5 1.8-0.1 2.5 -0.6 0.7-1.6 0.9-2.5 0.5 -0.2-0.1-0.4-0.2-0.7-0.4 0 0.5 0 1 0 1.4 1.5-0.8 2.6-0.7 3.3 0.3 0.6 0.8 0.5 2-0.2 2.7 -0.9 0.9-1.9 0.8-3.4-0.3C48.1 105.4 48.1 106.2 48 107.1zM98.6 33.6c-0.1 0-0.2 0.1-0.2 0.1 0 0.3 0 0.7 0 1 0 5.1 0.1 10.3 0.1 15.4 0 13.4 0.1 26.9 0.1 40.3 0 1.1 0 2.3 0.1 3.4 0 0.9 0.1 0.9 1 1 1.1 0 2.2 0.1 3.3 0.1 10.7 0 21.5 0 32.2 0.1 0.2 0 0.4 0 0.7 0 1.2-0.1 1.6-0.4 1.6-1.4 0-0.9-0.4-1.3-1.5-1.3 -0.6 0-1.1 0-1.7 0 -10.3 0-20.6 0-30.9 0.1 -0.3 0-0.7 0-1 0 -0.4 0-0.6-0.2-0.6-0.6 0-0.2 0-0.5 0-0.7 0-3.6 0-7.2 0-10.7 0-12.5 0-25 0-37.5 0-0.4 0-0.8 0.1-1.1 0.1-0.4 0.4-0.5 0.8-0.3 0.3 0.3 0.6 0.6 0.9 0.9 7.8 8.5 15.6 17 23.5 25.6 4.6 5 9.2 10 13.8 15 0.4 0.4 0.8 0.8 1.3 1 0.7 0.4 1.2 0.1 1.6-0.5 0.3-0.5 0.3-1-0.2-1.5 -0.4-0.4-0.8-0.8-1.1-1.2 -14.4-15.4-28.8-30.8-43.1-46.2C98.9 34 98.7 33.8 98.6 33.6zM88.1 34.4c-0.3 0.3-0.6 0.5-0.8 0.7C72.9 49.4 58.4 63.7 43.9 78c-0.3 0.3-0.5 0.5-0.8 0.8 -0.6 0.7-0.6 1.3-0.1 1.9 0.4 0.5 1.1 0.6 1.8 0.2 0.4-0.3 0.8-0.6 1.1-0.9 12.6-12.6 25.2-25.2 37.7-37.9 0.2-0.2 0.4-0.5 0.7-0.6 0.5-0.4 0.8-0.2 0.9 0.4 0 0.3 0 0.6 0 0.9 0 4.7 0.1 9.5 0.1 14.2 0.1 11.3 0.2 22.7 0.3 34 0 0.2 0 0.4 0 0.7 0 0.5-0.2 0.7-0.8 0.8 -0.2 0-0.4 0-0.6 0 -3.8 0-7.6-0.1-11.4-0.1 -7.9 0-15.7 0-23.6 0 -0.4 0-0.8 0.1-1.2 0.2 -0.6 0.2-0.8 0.6-0.8 1.3 0 0.6 0.3 1 0.8 1.1 0.5 0.1 1.1 0.2 1.6 0.2 12.3 0 24.6 0.1 36.9 0.1 1.5 0 1.5 0 1.5-1.4 0-19.4 0-38.9-0.1-58.3C88.2 35.2 88.1 34.9 88.1 34.4zM67.4 65.2c7.1-1.8 12.9 3.5 13.2 9.5 0.2 5.6-3.9 10.8-10.2 10.9 -2.9 0-5.4-1-7.3-3.1 -2.8-3-3.5-6.5-2.5-10.4 -0.9-0.4-1.4-0.2-2 0.6 -0.9 1.1-1.2 2.5-1.8 3.7 0.8 0.7 0.8 0.7 0.6 1.3 -0.1 0-0.3 0-0.4-0.1 -0.6-0.4-1-0.1-1.4 0.2 -0.4 0.3-0.7 0.7-0.7 1.2 -0.1 0.8-0.1 1.6-0.3 2.3 -0.2 0.8-0.2 1.4 0.6 1.9 0.3 0.2 0.3 0.4 0.1 0.6 -0.1 0.1-0.4 0.2-0.5 0.2 -0.4-0.1-0.8-0.3-1.2-0.5 -1.3-0.6-2.4-0.4-3.5 0.4 -1.1 0.8-1.4 1.6-1 2.9 0.3 1 0.7 1.3 1.6 1.3 1.4 0.1 1.9-0.4 2.1-1.6 0-0.2 0.2-0.5 0.4-0.6 0.2-0.1 0.5 0 0.6 0.2 0.6 0.6 1.3 1 2.2 1.1 0.6 0 0.8 0.2 1 0.8 0 0.2 0.3 0.6 0.4 0.6 0.7 0.1 1.4 0.3 2-0.2 0.8-0.6 1.8-0.9 2.8-0.9 0.8 0 1.7 0 2.5-0.1 1.1-0.1 2.2-0.1 3.3 0.2 1.5 0.4 3.1 0.9 4.6 1.5 2 0.7 4 1 6.1 0.6 0.8-0.2 1.5-0.5 2.3-0.8 0.2 0.3 0.5 0.7 0.8 1 0.7 0.7 1.6 0.7 2.1 0 0.4-0.5 0.4-1-0.2-1.3 -0.4-0.2-0.9-0.2-1.4-0.3 -0.3 0-0.6 0-1-0.1 0.3-0.3 0.4-0.5 0.5-0.6 0.7-0.6 1.2-1.4 1.3-2.4 0.2-1.1 0.4-2.2 0.4-3.3 0.1-1.7 0-3.4 0-5.1 0-1.2-0.3-2.3-0.8-3.4 -0.5-1-0.9-2.1-1-3.2 -0.2-2.9-0.3-5.8-0.4-8.7 0-1.6 0.5-3.1 1.6-4.3 0.1-0.1 0.1-0.2 0.2-0.3 -0.3-0.4-0.7-0.5-1.1-0.5 -0.5 0-0.9 0-1.4 0 -0.9-0.1-1.4-0.7-1.2-1.5 0.2-0.7 0.5-1.5 0.8-2.2 0.2-0.5 0.7-0.7 1.2-0.9 1.1-0.3 1.5-0.9 1.4-2 0-0.4-0.2-0.6-0.5-0.8 -0.9-0.5-2-0.2-2.5 0.6 -0.3 0.5-0.6 0.7-1.2 0.7 -0.1 0-0.3 0.1-0.4 0.1 0 0.5 0 1 0 1.5 0 0.5-0.2 1-0.2 1.5 0 1.5-0.4 1.8-1.8 1.4 -0.7-0.2-0.7-0.1-1.1 0.4 -0.5 0.7-0.6 1.5-0.3 2.4 0.2 0.6 0.4 1.2 0.6 1.8 -0.5 0.1-0.8 0.2-1.2 0.2 -0.5 0.1-0.9 0.1-1.4 0.2 -0.4 0.1-0.8 0.2-0.9 0.5 0.7 0.3 1.3 0.6 1.8 1 0.3 0.2 0.6 0.5 0.5 1 -0.2 0.5-0.5 0.8-1 0.9 -0.6 0-1.2 0.1-1.7-0.1 -1.1-0.4-2-0.1-3 0.3C67.7 64.1 67.3 64.5 67.4 65.2zM126.6 72.2c1.9 7.4-3.3 13-8.8 13.5 -6.1 0.6-11.1-4.1-11.3-10.1 -0.1-3 1-5.6 3.1-7.6 2.8-2.8 6.3-3.5 10.1-2.6 0.1-0.6-0.1-1-0.6-1.2 -1-0.5-1.9-0.9-3-0.5 -0.5 0.2-1 0.2-1.5 0.2 -0.7 0-1.2-0.4-1.3-1 -0.2-0.6 0.3-0.9 0.7-1.2 0.5-0.3 1.1-0.5 1.6-0.8 -0.5-0.5-1.1-0.6-1.8-0.6 -0.6 0-1.2 0-1.7-0.4 0.1-0.4 0.3-0.8 0.4-1.2 0.1-0.6 0.3-1.2 0.3-1.8 -0.1-0.5-0.4-1.1-0.7-1.5 -0.3-0.4-0.8-0.1-1.2 0 -0.9 0.2-1.3-0.1-1.4-1 -0.1-1.2-0.2-2.4-0.3-3.6 -0.8 0.1-1.3-0.3-1.7-1 -0.4-0.7-2-0.7-2.5-0.2 -0.1 0.1-0.2 0.2-0.3 0.4 -0.4 0.9 0.2 2 1.1 2.3 0.6 0.2 1 0.4 1.4 0.9 0.5 0.7 0.7 1.4 0.8 2.3 0.1 0.9-0.3 1.3-1.2 1.4 -0.5 0.1-1.1 0.1-1.6 0.1 -0.3 0-0.6 0.2-0.9 0.3 0 0.2 0 0.2 0 0.2 0 0.1 0.1 0.2 0.1 0.2 1.2 1.3 1.6 2.9 1.6 4.5 0 2.4-0.1 4.8-0.2 7.3 -0.1 1.7-0.5 3.3-1.3 4.8 -0.3 0.5-0.5 1.2-0.5 1.8 -0.3 3.1-0.4 6.3 0.2 9.4 0.2 1 0.6 2 1.4 2.7 0.2 0.1 0.3 0.3 0.5 0.6 -0.3 0.1-0.6 0.1-0.8 0.1 -0.5 0.1-0.9 0.1-1.4 0.2 -0.8 0.3-0.9 1-0.2 1.5 0.6 0.5 1.5 0.4 2.1-0.3 0.3-0.3 0.5-0.7 0.7-1 0.7 0.3 1.4 0.7 2.1 0.9 2.1 0.4 4.1 0.2 6-0.5 1.3-0.5 2.6-1 4-1.4 1-0.3 2.1-0.5 3.2-0.5 1.1 0 2.2 0 3.4 0.1 0.9 0 1.8 0.1 2.6 0.6 0.8 0.6 1.7 0.5 2.6 0.3 0.1-0.5 0.3-0.8 0.4-1.2 1.2-0.1 2.2-0.5 3-1.3 0.1-0.1 0.4-0.2 0.6-0.1 0.2 0.1 0.3 0.3 0.4 0.6 0.1 0.3 0.1 0.7 0.2 1 0.5 0.8 2.6 0.9 3.2 0.1 0.7-0.9 0.6-2.5-0.3-3.3 -1.1-1.1-2.4-1.5-3.9-0.8 -0.5 0.2-1 0.4-1.5 0.6 -0.4-0.4-0.5-0.7-0.1-1 0.4-0.3 0.7-0.7 0.6-1.3 -0.1-0.6-0.1-1.2-0.2-1.9 -0.1-1.2-0.4-2.3-1.7-2.7 -0.4 0.1-0.7 0.2-1.1 0.3 -0.5-0.8 0.3-0.9 0.6-1.4 -0.4-1-0.8-2-1.3-2.9 -0.2-0.5-0.6-0.9-1-1.3C127.5 71.8 127 71.8 126.6 72.2zM53.4 82.6c0.1-0.9 0.2-1.7 0.2-2.6 0.1-1.3 0.4-2.5 1.7-3.1 0.2-0.1 0.3-0.4 0.4-0.6 0.4-1 0.8-1.9 1.3-2.9 0.4-1 1.1-1.8 2-2.3 0.3-0.2 0.7-0.3 1.1-0.1 0.8 0.2 0.8 0.2 1.2-0.5 0.8-1.6 2-2.9 3.5-3.9 0.5-0.3 1-0.6 1.5-0.9 0.1-0.3 0.1-0.7 0.2-1 0.2-0.6 0.5-1.2 1.1-1.4 1.2-0.5 2.3-1 3.7-0.5 0.5 0.2 1 0.2 1.6 0 -1-1.2-2.1-0.5-3.2-0.3 0.1-0.8 0.5-1.3 0.9-1.9 0.8-1.1 2-1.1 3.2-1.3 -0.1-0.3-0.1-0.6-0.2-0.9 -0.4-1.2-0.2-2.3 0.6-3.4 0.4-0.6 1-0.9 1.7-0.7 0.3 0.1 0.6 0.1 0.9 0.1 0-0.5 0-0.8 0-1.1 0-0.2-0.1-0.5 0-0.7 0.3-0.5 0.2-1.1 0.2-1.6 -0.1-0.8 0.1-1.1 0.9-1.1 0.5-0.1 0.8-0.2 1.1-0.7 0.9-1.2 3-1 3.8-0.4 0.2 0.2 0.4 0.3 0.5 0.6 0.7 1.2-0.2 3.6-1.6 3.7 -0.6 0-0.9 0.4-1.1 0.9 -0.1 0.2-0.2 0.5-0.3 0.7 -0.4 1.2-0.3 1.4 1 1.4 0.3 0 0.6 0 0.9 0 0.7 0.1 1.3 0.4 1.6 1 0.2 0.4 0.2 0.7-0.2 1 -0.7 0.6-1.2 1.4-1.4 2.3 -0.1 0.6-0.3 1.3-0.3 1.9 0 2.3 0.1 4.5 0.2 6.8 0.1 1.8 0.5 3.5 1.3 5.1 0.3 0.5 0.4 1.1 0.5 1.7 0.1 1 0.1 2 0.2 3.1 0.2 3.1 0 6.1-1.2 9 0.5 0.3 1.1 0.6 1.7 0.9 0-0.4 0-0.7 0-1.1 -0.1-12.7-0.2-25.5-0.3-38.2 0-2 0-3.9-0.1-5.9 0-0.2-0.1-0.4-0.1-0.7 -13 13-25.9 26-38.9 39 1.8 2.9 2.8 6.1 3.2 9.6 10.9 0 21.8 0 32.5 0 -0.2-0.3-0.5-0.6-0.7-0.9 -3 0.9-5.6 0.9-8.2-0.1 -1.2-0.5-2.4-0.9-3.6-1.3 -0.8-0.2-1.7-0.4-2.6-0.5 -1.6-0.1-3.2 0-4.8 0.1 -0.6 0-1.2 0.3-1.6 0.6 -0.9 0.6-1.8 0.5-2.8 0.4 -0.8-0.1-1.1-0.7-1.3-1.3 -0.8-0.3-1.5-0.6-2.1-0.8 -0.5 0.5-0.8 1-1.3 1.2 -0.9 0.5-2 0.5-3 0.1 -0.4-0.2-0.7-0.5-1-0.8 -1-1.6-0.6-3.5 0.9-4.7 1.1-0.9 2.4-1.4 3.8-0.9C53.1 82.6 53.2 82.6 53.4 82.6zM170.7 110.8c-0.2-0.3-0.3-0.5-0.4-0.6 -3.6-4.9-7.2-9.8-10.8-14.7 -0.3-0.4-0.7-0.6-1.2-0.6 -2.5 0.1-4.9 0.1-7.4 0.2 -0.5 0-1 0.1-1.7 0.1 0.2 0.3 0.3 0.5 0.5 0.7 1.5 2.1 3.1 4.2 4.5 6.3 1.4 2.2 2.7 4.4 4 6.6 0.3 0.4 0.6 0.7 1.1 0.6 0.3 0 0.7 0 1 0.1 0 0.3 0.1 0.5 0.1 0.7 -0.3 1.7 0.3 3 1.3 4.3 0.1 0.1 0.1 0.2 0.2 0.3 0.2 0.4 0.5 0.7 0.7 1.1C165.4 114.2 168 112.5 170.7 110.8zM23.6 115.4c1-1.2 1.6-2.4 1.4-3.9 -0.1-0.6 0-1.2 0-1.9 0.4 0 0.8-0.1 1.1 0 0.9 0.1 1.4-0.3 1.8-1 2.8-4.7 5.6-9.3 9-13.6 0 0 0-0.1 0-0.2 -1 0-1.9-0.1-2.9-0.1 -2-0.1-3.9-0.1-5.9-0.2 -0.7 0-1.1 0.2-1.5 0.7 -3.6 4.9-7.1 9.7-10.7 14.6 -0.1 0.2-0.2 0.4-0.4 0.7C18.4 112 21 113.7 23.6 115.4zM46.7 108.8c0.1 0.2 0.2 0.3 0.3 0.4 0.4 0.4 0.9 0.3 1.3 0.3 29.3 0 58.5 0 87.8 0 0.2 0 0.5 0 0.7 0 0.3 0 0.5-0.1 0.6-0.5 -0.3-0.5-0.9-0.7-1.5-0.8 -1.6-0.4-3.2-0.6-4.9-0.6 -22.6 0-45.2 0-67.8 0 -4 0-8 0-11.9 0 -1.2 0-2.4 0.2-3.6 0.7C47.4 108.3 47 108.6 46.7 108.8zM140.9 84.5c-0.3-0.3-0.6-0.7-1-1.1 -4.8-5.2-9.5-10.4-14.3-15.6 -4.9-5.3-9.8-10.7-14.7-16 -0.2-0.2-0.4-0.6-0.8-0.6 0 0.4-0.1 0.8 0 1.1 0.3 0.5 0.2 1.1 0.2 1.6 0 0.2 0 0.5 0.1 0.8 0.4-0.1 0.7-0.1 1.1-0.2 0.6-0.1 1 0.1 1.4 0.5 0.8 1 1.1 2.1 0.7 3.3 -0.1 0.3-0.2 0.7-0.3 1.1 0.7 0.1 1.3 0.2 1.9 0.3 0.6 0.2 1.1 0.6 1.5 1.1 0.3 0.5 0.8 1 0.7 1.7 -0.6-0.2-1.1-0.4-1.7-0.4 -0.6 0-1.1 0.1-1.5 0.8 0.5 0.3 0.9 0.2 1.4 0.1 1.2-0.5 2.3-0.2 3.4 0.2 0.9 0.4 1.4 1 1.6 1.9 0 0.2 0.1 0.5 0.1 0.5 1.2 0.9 2.3 1.6 3.2 2.5 0.9 0.9 1.6 2.1 2.5 3.2 1.3-0.7 2.1 0.1 2.9 1 0.4 0.5 0.7 1.2 1 1.8 0.3 0.7 0.6 1.4 0.9 2.1 0.2 0.5 0.5 0.8 0.9 1.1 0.4 0.3 0.7 0.7 0.9 1.1 0.2 0.6 0.3 1.2 0.4 1.8 0.1 0.8 0.2 1.6 0.3 2.5 0.2 0 0.3 0 0.3 0 1.6-0.5 3 0.1 4.2 1.2 1.2 1.1 1.4 3.2 0.4 4.5 -0.3 0.4-0.8 0.7-1.2 0.8 -1.9 0.2-2.9 0.2-3.8-1.5 -0.5 0.2-1.1 0.5-1.6 0.6 -0.4 0.1-0.6 0.3-0.8 0.7 -0.1 0.3-0.3 0.6-0.6 0.7 -1.1 0.4-2.2 0.5-3.2-0.2 -0.6-0.4-1.1-0.6-1.8-0.6 -1.1 0-2.2-0.1-3.3-0.1 -0.7 0-1.4 0-2 0.1 -1.8 0.2-3.5 0.9-5.2 1.6 -1.4 0.6-2.9 0.8-4.4 0.9 -1.4 0.1-2.8-0.2-4.1-0.7 -0.2 0.3-0.4 0.5-0.7 0.8 0.5 0 0.8 0 1.1 0 8.9 0 17.7-0.1 26.6-0.1 1.3 0 2.7-0.1 3.8 0.5C138.6 89.3 139.8 86.9 140.9 84.5zM118.4 70.5C118.4 70.5 118.4 70.5 118.4 70.5c0-0.8 0-1.7 0-2.5 0-0.4-0.1-0.8-0.3-1.2 -0.3-0.6-0.9-0.9-1.5-0.9 -0.6 0.1-1.1 0.5-1.2 1.2 -0.1 0.4-0.1 0.7-0.1 1.1 0 1.5 0 3 0 4.6 0 1-0.1 1.1-1.1 1.1 -1.5 0-3 0-4.6 0 -0.6 0-1.1 0.1-1.6 0.5 -0.8 0.6-0.8 1.6 0 2.1 0.4 0.3 0.9 0.5 1.5 0.4 1.6 0 3.1 0 4.7 0 1 0 1.1 0.1 1.1 1.1 0 1.4 0 2.9 0 4.3 0 0.3 0 0.7 0.1 1 0.1 0.7 0.7 1.3 1.3 1.4 0.7 0.1 1.3-0.3 1.5-1.1 0.1-0.3 0.2-0.7 0.2-1.1 0-1.6 0-3.1 0-4.7 0-0.8 0.1-1 1-1 1.3 0 2.5 0 3.8 0 0.4 0 0.9 0 1.3 0 0.8-0.1 1.5-0.7 1.5-1.4 0.1-0.7-0.5-1.3-1.3-1.5 -0.3-0.1-0.6-0.1-0.9-0.1 -1.5 0-3 0-4.6 0 -0.7 0-0.9-0.1-0.9-0.9C118.4 72.2 118.4 71.3 118.4 70.5zM68.7 70.3C68.7 70.3 68.7 70.3 68.7 70.3c0 0.8 0 1.7 0 2.5 0 0.9-0.1 1-1 1 -1.4 0-2.7 0-4.1 0 -0.4 0-0.9 0-1.3 0.1 -0.7 0.2-1.2 0.8-1.2 1.5 0 0.6 0.6 1.3 1.3 1.4 0.3 0.1 0.7 0.1 1 0.1 1.3 0 2.7 0 4 0 1.2 0 1.3 0.1 1.3 1.3 0 1.5 0 3 0 4.5 0 0.4 0.1 0.7 0.2 1.1 0.3 0.7 0.8 1 1.5 1 0.6 0 1.1-0.5 1.3-1.2 0.1-0.4 0.1-0.7 0.1-1.1 0-1.5 0-2.9 0-4.4 0-1 0.1-1.1 1.1-1.1 1.4 0 2.8 0 4.2 0 0.3 0 0.7 0 1 0 0.9-0.1 1.4-0.7 1.5-1.4 0-0.7-0.5-1.3-1.3-1.4 -0.4-0.1-0.9-0.1-1.3-0.1 -1.4 0-2.7 0-4.1 0 -1 0-1.1-0.1-1.1-1.1 0-1.6 0-3.1 0-4.7 0-0.4 0-0.8-0.1-1.1 -0.1-0.6-0.7-1.2-1.3-1.2 -0.7 0-1.2 0.3-1.4 0.9 -0.2 0.3-0.3 0.8-0.3 1.2C68.6 68.6 68.7 69.5 68.7 70.3zM53.5 52c-0.1 0-0.2-0.1-0.3-0.1C53.1 52 53 52.1 53 52.2c-2.1 3-4.9 5.4-7.7 7.8 -0.3 0.3-0.7 0.6-0.9 0.9 -0.8 0.9-1.2 1.9-1.1 3.1 0.1 0.5 0.1 0.9 0.1 1.4 0.1 1.2-0.2 2.2-1.1 3 -1.3 1.1-2.4 2.2-3.6 3.4 -0.4 0.3-0.7 0.7-1 1.1 -0.3 0.5-0.4 1-0.2 1.5 0.3 0.8 0.7 0.9 1.3 0.4 0.5-0.4 1-0.9 1.5-1.4 1.5-1.6 3-3.2 4.6-4.7 0.6-0.6 0.9-1.2 0.9-2 0-0.6-0.1-1.1-0.1-1.7 0-0.4 0.1-0.9 0.4-1.3 0.5-0.7 1.9-1 2.6-0.8 0.8 0.2 1.2 0.8 1.5 1.5 0.3 0.7 0.6 0.8 1.3 0.6 1-0.4 1.3-1.1 1-2.2 -0.1-0.2-0.1-0.4-0.2-0.6 -0.5-1.6-0.5-1.6 0.6-2.9 0.7-0.8 0.7-1.1 0.1-2 -0.2-0.3-0.4-0.6-0.6-0.9 0.9-0.7 1-1.6 1-2.6 0-0.3 0.1-0.6 0.1-0.9C53.5 52.6 53.5 52.3 53.5 52zM134.9 58.7c-0.2 0.3-0.4 0.5-0.5 0.8 -0.7 1-0.7 1.3 0.1 2.3 0.1 0.1 0.2 0.2 0.3 0.3 0.5 0.5 0.6 1 0.4 1.7 -0.2 0.6-0.4 1.1-0.5 1.7 -0.2 1 0.4 1.8 1.4 1.9 0.5 0.1 0.8 0 0.9-0.5 0.1-0.3 0.2-0.6 0.4-0.8 0.6-0.8 1.6-1.1 2.7-0.7 1.1 0.4 1.5 0.8 1.5 2 0 0.7 0 1.4 0 2.1 0 0.5 0.2 0.9 0.6 1.2 0.7 0.6 1.3 1.3 2 2 1.4 1.4 2.8 2.9 4.2 4.3 0.3 0.3 0.6 0.7 1 0.5 0.5-0.2 0.6-0.7 0.6-1.2 0-0.3-0.1-0.6-0.2-0.9 -0.3-0.4-0.6-0.8-0.9-1.2 -1.1-1.1-2.1-2.2-3.3-3.1 -1.2-1-1.7-2.2-1.5-3.7 0-0.3 0.1-0.7 0.1-1 0-0.4 0-0.7 0-1.1 -0.2-1.3-1.1-2.1-2-2.9 -2.8-2.4-5.5-4.7-7.6-7.7 -0.1-0.1-0.3-0.2-0.5-0.4 0 0.5-0.1 0.8 0 1.1 0 0.3 0.1 0.7 0.1 1C133.9 57.2 134 58 134.9 58.7zM133.6 58.8c-0.2-0.3-0.4-0.6-0.4-1 -0.1-0.7-0.5-1.1-1-1.5 -0.8-0.8-1.7-1.6-2.5-2.4 -0.6-0.5-0.9-1.2-0.9-2 0-0.7 0-1.5 0.1-2.2 0.1-1-0.2-1.9-0.8-2.7 -0.4-0.4-0.8-0.9-1.2-1.2 -2.8-2.4-5.6-4.8-7.7-7.8 -0.1-0.1-0.2-0.2-0.3-0.3 -0.1 0-0.2 0.1-0.2 0.1 0.2 1.5-0.4 3.2 1.1 4.4 -0.2 0.2-0.3 0.4-0.4 0.6 -0.1 0.2-0.3 0.4-0.4 0.6 -0.3 0.6-0.3 1 0.1 1.4 0.2 0.3 0.5 0.6 0.8 0.8 0.4 0.4 0.5 0.8 0.3 1.3 -0.2 0.6-0.3 1.1-0.5 1.7 -0.3 1 0.2 1.9 1.2 2.1 0.6 0.2 0.9 0.1 1.1-0.6 0.5-1.5 2-2.1 3.7-1.2 0.6 0.3 0.9 0.8 0.9 1.5 0 0.5 0 1-0.1 1.5 0 1 0.1 2 1.1 2.6 0.3 0.2 0.6 0.6 0.9 0.9 1.3 1.3 2.5 2.6 3.8 4 0.2 0.2 0.4 0.4 0.7 0.7C133.1 59.7 133.3 59.3 133.6 58.8zM68.4 35.5c-0.2 0.2-0.3 0.3-0.4 0.4 -1.4 2-3.1 3.7-4.9 5.3 -1 0.9-2 1.7-3 2.6 -1.3 1.2-2 2.6-1.7 4.4 0.1 0.4 0.1 0.9 0.1 1.3 0 0.9-0.3 1.7-1 2.3 -0.7 0.6-1.3 1.2-2 1.8 -0.7 0.6-1.3 1.3-1.6 2.2 -0.2 0.5-0.2 0.9 0.1 1.4 0.1 0.2 0.2 0.3 0.4 0.6 0.4-0.4 0.7-0.6 1-0.9 1.5-1.6 3-3.2 4.6-4.7 0.5-0.5 0.8-1.1 0.8-1.8 0-0.7 0-1.4 0-2.1 0-0.7 0.3-1.1 0.8-1.4 1.6-0.9 3.2-0.3 3.7 1.2 0.2 0.7 0.6 0.8 1.3 0.5 0.9-0.4 1.3-1.1 1.1-2.1 -0.1-0.2-0.1-0.5-0.2-0.7 -0.5-1.1-0.4-2.1 0.6-2.9 0 0 0 0 0.1-0.1 0.6-0.7 0.6-1 0.2-1.7 -0.2-0.4-0.5-0.7-0.7-1.1 0.8-0.7 1-1.5 1-2.5 0-0.3 0.1-0.6 0.1-0.9C68.7 36.2 68.9 35.9 68.4 35.5zM83.3 19.7c-0.5 0.7-1 1.3-1.4 1.9 -1.9 2.4-4.2 4.3-6.5 6.3 -0.5 0.4-0.9 0.8-1.3 1.3 -0.7 0.9-1 1.8-0.8 3 0.1 0.7 0.1 1.4 0.1 2.1 0 0.7-0.3 1.3-0.8 1.7 -0.8 0.8-1.6 1.6-2.5 2.3 -0.6 0.5-1 1.2-1.2 1.9 0.3 0.6 0.6 1.1 0.9 1.7 0.2-0.3 0.4-0.5 0.6-0.7 1.6-1.6 3.2-3.3 4.8-4.9 0.3-0.3 0.4-0.7 0.5-1.1 0.1-0.8 0-1.6 0-2.4 0-0.8 0.3-1.3 1.1-1.7 1.5-0.7 2.9-0.2 3.5 1.3 0.3 0.7 0.6 0.8 1.3 0.5 1-0.4 1.3-1.1 1.1-2.1 -0.1-0.2-0.1-0.4-0.2-0.6 -0.5-1.7-0.5-1.7 0.6-3 0 0 0 0 0.1-0.1 0.5-0.6 0.6-1 0.1-1.7 -0.2-0.4-0.5-0.7-0.7-1C83.4 23.1 83.8 21.2 83.3 19.7zM117.6 44.1c0.1-0.3 0.2-0.7 0.4-0.9 0.7-0.8 0.2-1.4-0.3-2.1 -0.1-0.2-0.3-0.3-0.5-0.5 -0.8-0.8-1.6-1.6-2.4-2.3 -0.6-0.5-0.9-1.2-0.9-2 0-0.6 0-1.2 0.1-1.9 0.2-1.3-0.2-2.5-1.1-3.4 -0.3-0.3-0.7-0.6-1-1 -2.7-2.3-5.5-4.7-7.6-7.7 -0.1-0.1-0.3-0.2-0.5-0.4 -0.3 1 0 1.9 0.1 2.8 0 0.7 0.5 1.3 0.8 2 0 0 0 0.1-0.1 0.2 -1.1 1.5-1.1 1.5 0.1 2.9 0.5 0.5 0.6 1.1 0.4 1.8 -0.1 0.5-0.3 0.9-0.4 1.4 -0.2 0.9 0.1 1.7 1 2 0.7 0.3 1.1 0.2 1.4-0.5 0.4-1.3 1.9-2.1 3.5-1.2 0.6 0.3 1 0.8 1 1.5 0 0.7-0.1 1.5 0 2.2 0 0.5 0.2 1 0.5 1.3 1.7 1.8 3.4 3.5 5.1 5.2C117.3 43.8 117.4 43.9 117.6 44.1zM104.1 87.9c-1-1.6-1.1-3.5-1.2-5.3 -0.1-2 0-4 0-6 0-1 0.3-1.9 0.8-2.9 0.4-0.8 0.7-1.7 0.9-2.6 0.5-3.1 0.6-6.2 0.5-9.4 0-1.4-0.5-2.8-1.6-3.7 -0.4-0.3-0.3-0.6-0.2-1 0.3-0.5 0.7-0.8 1.2-0.9 0.5-0.1 1-0.1 1.5-0.2 0.3 0 0.6-0.1 0.9-0.1 0.2-0.7-0.1-1.2-0.3-1.8 -0.3-0.6-0.7-1-1.4-1.1 -0.3 0-0.6-0.3-0.8-0.5 -0.6-0.6-0.8-1.4-0.8-2.2 0-1 0.7-1.8 1.7-1.9 1.2-0.1 2.4-0.1 3.1 1.2 0.1 0.3 0.4 0.4 0.7 0.2 -1.2-1.6-5.8-6.5-6.4-6.8 -0.2 1.1-0.3 45-0.1 45.7C103.1 88.5 103.6 88.2 104.1 87.9zM136.6 105.7c0.1 0 0.2 0 0.3 0.1 0.2-0.2 0.4-0.4 0.6-0.7 1.8-2 3.6-4 5.5-6 1.3-1.5 2.9-1.6 4.4-0.2 0.4 0.3 0.7 0.7 1.1 1.2 0.4 0.5 0.7 1 1 1.6 1.2 2.1 2.4 4.3 3.7 6.4 1.1 1.8 0.5 1.4 2.7 1.5 0.5 0 1.1 0 1.7 0 -0.2-0.3-0.2-0.5-0.3-0.6 -1.4-2.3-2.7-4.6-4.2-6.8 -1.3-1.9-2.7-3.7-4-5.6 -0.6-0.8-1.3-1.5-2.3-1.9 -1-0.4-1.8-0.3-2.6 0.5 -2.4 2.5-4.8 5.1-7.2 7.6 -0.2 0.2-0.4 0.4-0.4 0.6C136.6 104 136.6 104.9 136.6 105.7zM47.3 102.8c0.1 0 0.1 0 0.2-0.1 0.1-0.6 0.1-1.3 0.2-1.9 0-0.4-0.1-0.8-0.4-1.1 -1.7-1.7-3.3-3.5-5-5.3 -0.8-0.8-1.6-1-2.6-0.5 -0.5 0.3-1 0.6-1.4 1 -0.6 0.6-1.1 1.2-1.6 1.8 -3 3.8-5.4 8-7.9 12.1 -0.1 0.1-0.1 0.3-0.2 0.6 0.8 0 1.6 0 2.3 0 0.5 0 0.8-0.2 1.1-0.6 1.9-3.1 3.9-6.1 5.9-9.2 0.4-0.6 0.9-1.2 1.4-1.7 1.3-1.2 2.7-1.1 3.9 0.2 1.1 1.1 2.1 2.3 3.1 3.5C46.6 102 46.9 102.4 47.3 102.8zM94.9 16.2c-0.2 0.1-0.2 0.1-0.3 0.2 -1.2 0.9-2 1-3.3 0.1 -0.3-0.2-0.6-0.2-0.9 0 -0.2 0.2-0.5 0.3-0.7 0.4 -1.6 1.4-3.2 2.8-4.9 4.2 -0.3 0.2-0.4 0.5-0.4 0.9 0 0.7-0.1 1.4-0.5 2.1 -0.3 0.5-0.1 0.7 0.4 0.9 2.9-2.6 5.7-5.1 8.6-7.7 3.5 3.4 6.9 6.7 10.3 10 0.4-0.3 0.5-0.6 0.3-1 -0.2-0.5-0.4-1-0.5-1.6 -0.1-0.5-0.3-0.9-0.6-1.2 -1.4-1.3-2.7-2.6-4.1-4C97.2 18.4 96 17.3 94.9 16.2zM176.6 115c0-0.7-0.2-1.1-0.8-1.3 -0.7-0.3-1.3 0-1.8 0.3 -1 0.6-2 1.3-3 1.9 -2.8 1.8-5.5 3.6-8.3 5.4 -0.5 0.3-0.9 0.8-1.2 1.2 -0.3 0.5-0.1 1.2 0.2 1.5 0.4 0.4 0.9 0.3 1.4 0.1 1.7-0.9 3.5-1.8 5.1-2.8 2.1-1.3 4.2-2.7 6.2-4.1 0.5-0.3 1-0.7 1.5-1.1C176.4 115.9 176.6 115.4 176.6 115zM148.1 101c-0.4-0.5-0.7-1-1.2-1.4 -1.1-1.1-2.3-1-3.3 0.1 -2.2 2.4-4.3 4.7-6.4 7.1 -0.1 0.1-0.2 0.3-0.4 0.6 0.9 0.4 1.7 0.9 1.7 2.1 0.3 0 0.6 0 0.9 0 0.8 0.1 1.3-0.2 1.8-0.8 1.6-1.8 3.2-3.6 4.8-5.4C146.7 102.6 147.3 101.8 148.1 101zM11.2 113c-1.2 0.1-1.8 1-1.2 2 0.1 0.3 0.4 0.5 0.6 0.7 0.3 0.3 0.7 0.5 1 0.8 2.4 1.6 4.8 3.2 7.2 4.7 1.5 0.9 3.1 1.7 4.6 2.5 0.5 0.2 0.9 0.3 1.3-0.1 0.4-0.4 0.5-0.9 0.3-1.4 -0.3-0.5-0.6-1-1-1.3 -3.8-2.5-7.5-4.9-11.3-7.4C12.2 113.3 11.7 113.2 11.2 113zM14.9 109.6c0.2-0.2 0.3-0.4 0.5-0.5 3.6-4.9 7.2-9.8 10.8-14.7 0.1-0.1 0.2-0.2 0.3-0.4 0.2-0.4 0.1-0.6-0.2-0.9 -0.6-0.5-1.3-0.4-1.8 0.2 -2.5 3.2-5.1 6.4-7.5 9.6 -1.2 1.6-2.3 3.3-3.4 5 -0.2 0.3-0.3 0.7-0.5 1C13.8 109.2 14.3 109.4 14.9 109.6zM173.3 109.3c-0.5-0.9-1-1.7-1.5-2.5 -3-4.5-6.4-8.7-9.9-12.9 -0.7-0.8-1.5-0.7-2.2 0.4 3.9 5.3 7.8 10.6 11.8 16C172.1 109.9 172.6 109.6 173.3 109.3zM38.3 100.4c2.5 2.8 5 5.5 7.3 8.2 1.3-0.7 1.6-1.8 1.7-3 0.1-0.9 0-1.7-0.8-2.3 -0.4-0.4-0.8-0.9-1.2-1.3 -1-1.1-1.9-2.1-2.9-3.2 -0.8-0.9-1.7-1-2.6-0.2C39.3 99.1 38.8 99.8 38.3 100.4zM161.1 118.7c0.1 0.5 0.3 1 0.9 1.4 0.5 0.3 0.9 0 1.3-0.2 3.7-2.4 7.4-4.7 11-7.1 0.3-0.2 0.5-0.5 0.4-0.9 0-0.7-0.3-1.1-0.9-1.4 -0.5-0.3-0.9-0.1-1.4 0.2 -2.7 1.7-5.4 3.5-8.1 5.2 -0.9 0.6-1.8 1.2-2.7 1.7C161.4 117.9 161.1 118.2 161.1 118.7zM25 118.3c0.1-0.8-0.4-1.2-1.1-1.6 -3.2-2-6.3-4.1-9.5-6.1 -0.3-0.2-0.6-0.3-0.9-0.4 -0.8-0.2-1.4 0-1.7 0.6 -0.3 0.6 0 1.4 0.6 1.8 0.4 0.3 0.8 0.5 1.2 0.7 3 1.9 5.9 3.9 8.9 5.8 0.3 0.2 0.6 0.4 0.9 0.5C24.3 119.8 25 119.3 25 118.3zM95.2 6.4c0 0-0.1 0-0.1 0 0-0.7 0.1-1.4 0-2 -0.1-1.1-0.4-2.2-1.1-3.1 -0.6-0.7-1.4-0.7-1.9 0 -0.4 0.5-0.7 1.2-0.9 1.8 -0.4 1.3-0.4 2.7-0.4 4.1 0 0.8 0.1 1.6 0.2 2.4 0.1 0.9 0.4 1.1 1.3 1.1 0.5 0 0.9 0.1 1.4 0.1 0.3 0 0.6-0.1 0.7-0.2 0.2-0.3 0.5-0.6 0.5-1C95 8.5 95.1 7.4 95.2 6.4zM107.7 73.4c2.1-0.7 4.3-0.1 6.5-0.4 0.3-2.3-0.2-4.6 0.4-6.8C111.3 66.7 107.5 70.6 107.7 73.4zM72.7 72.9c1.2 0 2.2 0 3.2 0 1.2 0 2.4-0.1 3.5 0.5 -0.1-3.2-4.1-7.4-6.8-7.2 0 1.1 0.1 2.1 0.1 3.2C72.7 70.5 72.7 71.6 72.7 72.9zM125.8 73.3c-0.2-2.7-3.3-6.6-6.9-7 0.6 1.1 0.3 2.2 0.4 3.3 0 1.1 0 2.3 0 3.5 1.4 0 2.6 0 3.9 0C124 73.1 124.8 73.2 125.8 73.3zM68.1 66.2c-2.9 0.1-6.7 4.1-6.8 7.1 0.5-0.1 0.9-0.3 1.4-0.3 0.5-0.1 1.1 0 1.6 0 0.9 0 1.8 0 2.7 0 0.3 0 0.5-0.1 0.8-0.1 0-1.2 0-2.3 0-3.3C67.8 68.4 67.7 67.3 68.1 66.2zM107.7 77.5c0.6 3.4 3.8 6.6 7 7 -0.7-2.1-0.1-4.4-0.4-6.7 -0.4 0-0.8 0-1.2 0C111.3 77.8 109.5 78.1 107.7 77.5zM72.8 77.9c-0.3 2.2 0.2 4.4-0.4 6.5 3.2-0.4 6.6-3.9 6.9-7C77.2 78.2 75 77.6 72.8 77.9zM119.2 77.9c0 0.9 0 1.6 0 2.3 -0.1 1.4 0.2 2.9-0.3 4.3 3.1-0.3 6.9-4.3 6.7-6.9 -1 0.5-2.1 0.3-3.1 0.3C121.5 77.9 120.4 77.9 119.2 77.9zM32.4 109.5c1.9 0.2 9 0.1 9.7-0.1 -1.9-2-3.8-4-5.8-6C35 105.5 33.7 107.4 32.4 109.5zM67.7 77.9c-0.2 0-0.3-0.1-0.4-0.1 -2-0.1-4 0.2-6.1-0.4 0.9 3.6 3.9 6.6 6.8 6.9C67.5 82.3 68 80.1 67.7 77.9zM183.5 129.4c-0.1-0.1-0.2-0.2-0.2-0.2 -2.4-1.1-4.1-3-5.6-5.1 -1-1.4-2-2.9-2.9-4.4 -0.2-0.3-0.4-0.7-0.7-1 -0.7 0.4-1.2 0.8-1.8 1.2 0 0.2 0 0.3 0 0.3 0.1 0.2 0.1 0.3 0.2 0.5 2 3.6 4.9 6.4 8.3 8.6C181.6 129.7 182.5 129.8 183.5 129.4zM2.9 128.9c1.1 0.4 2 0.3 2.9-0.2 3.3-2.1 6-4.8 8-8.2 0.2-0.3 0.4-0.7 0.6-1.1 -0.7-0.4-1.3-0.8-1.9-1.2 -0.3 0.5-0.6 0.8-0.8 1.2 -1.2 1.7-2.3 3.5-3.5 5.2 -1.2 1.7-2.8 3.1-4.7 4C3.2 128.6 3.1 128.7 2.9 128.9zM168.3 122.6c-0.9 0.3-1.5 0.6-2 1.2 0.2 0.4 0.4 0.8 0.6 1.2 1 1.9 2 3.7 2.9 5.6 0.9 1.9 1.4 3.8 1.3 5.9 0 0.1 0 0.3 0.1 0.5 1-0.9 1.2-2 1.1-3.1 -0.4-3.2-1.2-6.3-2.7-9.2C169.1 124 168.7 123.3 168.3 122.6zM18.2 122c-0.3 0.4-0.5 0.7-0.7 1 -0.7 1.4-1.4 2.7-2 4.1 -0.9 2.2-1.4 4.5-1.5 6.9 -0.1 1 0.4 1.9 1.1 2.4 0-0.1 0.1-0.2 0.1-0.3 0-2.6 0.7-4.9 1.9-7.1 0.8-1.6 1.7-3.2 2.6-4.8 0.2-0.3 0.3-0.6 0.6-1.1C19.6 122.7 19 122.4 18.2 122zM1.9 127.5c0.3 0 0.4 0 0.6 0 1.5-0.2 2.5-1.1 3.5-2.2 2-2.3 3.8-4.8 5.4-7.5 0-0.1 0-0.2 0.1-0.3 -0.5-0.4-1-0.7-1.5-1.1 -0.2 0.3-0.4 0.6-0.6 0.9 -1.4 2.1-2.7 4.2-4.1 6.3C4.3 125 3.3 126.3 1.9 127.5zM174.9 118.1c0.1 0.2 0.2 0.3 0.2 0.5 1.5 2.5 3.2 4.8 5.1 7 0.6 0.7 1.3 1.3 2 1.8 0.6 0.5 1.3 0.7 2.1 0.7 -3.3-3.3-5.1-7.5-7.9-11.1C175.9 117.4 175.4 117.7 174.9 118.1zM169.7 136.9c0.1-0.1 0.2-0.2 0.2-0.4 0.4-1.2 0.1-2.4-0.3-3.6 -1.1-3-2.5-5.9-4.2-8.6 0-0.1-0.1-0.1-0.3-0.2 -0.6 0.3-1.1 0.6-1.7 0.9 0.2 0.3 0.3 0.6 0.4 0.8 1.2 2.1 2.4 4.3 3.6 6.4C168.3 133.8 169.1 135.3 169.7 136.9zM21.2 123.6c-0.1 0.1-0.2 0.2-0.3 0.3 -1.5 2.6-2.9 5.3-4 8.2 -0.2 0.5-0.4 1-0.5 1.5 -0.2 1-0.3 2 0.3 2.8 0.6-1.3 1-2.5 1.7-3.7 1.3-2.5 2.7-4.9 4-7.3 0.2-0.3 0.3-0.6 0.4-0.9C22.3 124.1 21.7 123.9 21.2 123.6zM149.9 104.2c-1.7 1.8-3.4 3.5-5.2 5.4 2.9 0 5.6 0 8.4 0 -1-1.7-1.9-3.3-2.9-4.9C150.2 104.5 150.1 104.4 149.9 104.2zM90.2 15.4c-0.1-0.7-0.2-1.3-0.1-1.9 0.1-0.6 0.3-1.2 0.5-1.8 -0.7-1.2-2.7-1.2-3.7-0.3 -1 1-1.2 2.7-0.3 3.8C87.6 16.2 89.1 16.3 90.2 15.4zM73.9 125.5c-0.1-0.1-0.1-0.2-0.2-0.2 -1.2-0.2-2.2 0.8-3.6 0.6 0.8-0.9 1.6-1.6 2.3-2.4 -0.9-0.3-4.3-0.3-5 0 0 1.9 0.7 4.2 1.7 5.3 1.5-1 3-2.1 4.5-3.1C73.6 125.6 73.8 125.5 73.9 125.5zM95.4 15.2c1.2 0.8 2.7 0.5 3.5-0.6 0.8-1.2 0.6-2.8-0.6-3.6 -1.1-0.8-2.6-0.6-3.5 0.5C95.6 12.6 95.7 13.9 95.4 15.2zM37 103c0.3 0.3 0.5 0.6 0.8 0.8 1.6 1.7 3.3 3.3 4.8 5 0.8 0.8 1.6 0.7 2.6 0.6 -2.5-2.7-4.8-5.4-7.3-8.1C37.6 101.9 37.3 102.4 37 103zM148.5 101.8c-2.3 2.6-4.5 5-6.9 7.6 0.5 0 0.7 0 0.9 0 0.8 0.1 1.3-0.2 1.9-0.8 1.4-1.6 2.9-3 4.4-4.6 0.2-0.2 0.4-0.4 0.6-0.7C149.1 103 148.9 102.5 148.5 101.8zM76.5 118c0-1.5 0-2.9 0-4.5 -1.5 0.1-2.9 0.4-4.2 1.2 0.8 1.4 1.5 2.6 2.2 3.9C75.2 118.4 75.8 118.2 76.5 118zM170.6 120.9c1.1 1.9 2.1 3.6 3.2 5.4 0.9 1.6 2.4 2.5 4.1 3.3 0.6 0.3 1.2 0.4 2 0.2 -3.6-2.5-6.5-5.4-8.5-9.2C171.1 120.6 170.9 120.8 170.6 120.9zM17.3 121.6c-0.5-0.5-0.8-0.2-1 0.1 -0.8 1.2-1.6 2.5-2.4 3.7 -0.8 1-1.1 2.2-1.4 3.4 -0.2 1.3-0.4 2.6 0.2 3.9 0.1 0.2 0.2 0.4 0.4 0.7C13.7 129.1 14.9 125.2 17.3 121.6zM6.7 129.2c1.1 0.1 1.8 0 2.7-0.5 1.4-0.8 2.6-1.8 3.4-3.2 0.9-1.7 1.9-3.3 2.9-5 -0.2-0.2-0.3-0.3-0.4-0.3 -0.1 0-0.2 0-0.3-0.1C13 123.8 10.1 126.7 6.7 129.2zM173.2 134c0.1-0.1 0.2-0.2 0.3-0.2 0.1-0.3 0.3-0.6 0.4-0.9 0.4-2 0.2-4.1-0.8-5.9 -0.9-1.7-2.1-3.2-3.1-4.8 -0.1-0.1-0.1-0.2-0.1-0.3 -0.3 0.1-0.4 0.2-0.5 0.2 -0.1 0-0.1 0.1-0.2 0.3 1.2 1.7 2.1 3.6 2.8 5.6C172.5 129.8 172.9 131.8 173.2 134zM74.6 125.6c-1.8 1.3-3.5 2.5-5.2 3.7 0.9 1.3 1.8 2.1 2.8 2.5 1-1.8 1.9-3.5 2.9-5.3C75.3 126 74.9 125.9 74.6 125.6zM81.5 114.6c-1.4-0.7-2.7-1.1-4.3-1.1 0 1.5 0 2.9 0 4.4 0.7 0.1 1.5 0.3 2.2 0.4C80.1 117.1 80.8 115.9 81.5 114.6zM72.6 132c1.1 0.8 2.9 1.2 3.9 1 0.2-2-0.3-5.3-1.1-6.2C74.5 128.6 73.6 130.3 72.6 132zM68.6 118.5c-0.7 1.4-1.2 2.7-1.2 4.1 1.6 0 3.2 0 4.7 0 0.1-0.6 0.2-1.2 0.4-1.8 -0.1-0.1-0.3-0.2-0.4-0.3C71 119.9 69.8 119.2 68.6 118.5zM91 13.9c0 0.7 0.2 1.3 0.6 1.8 0.7 0.7 1.7 0.7 2.4 0 0.9-0.9 0.9-2.6 0-3.6 -0.7-0.8-1.7-0.8-2.4 0C91.1 12.6 91 13.2 91 13.9zM86.5 122.7c-0.1-1.7-0.5-3.1-1.4-4.5 -1.2 0.8-2.2 1.6-3.3 2.3 0.3 0.7 0.5 1.3 0.8 1.8 0.1 0.1 0.3 0.3 0.4 0.3C84.2 122.7 85.3 122.7 86.5 122.7zM89 155.6c0 0.1 0 0.1 0.1 0.2 1.5-0.3 3-0.5 4.6-0.8 1.3-0.3 2.6-0.4 4 0 0.2 0.1 0.5 0.1 0.8 0.1 -0.5-0.6-1-1-1.5-1.4 -0.3-0.2-0.4-0.5-0.4-0.9 0-1 0.1-2 0.6-3 0.1-0.2 0.2-0.4 0.3-0.6 -0.3 0-0.6 0-0.8 0 -0.3 0-0.5 0-0.7 0.1 -0.2 1.2-0.4 2.2-0.6 3.2 -0.1 0.6-0.6 1.1-1.2 1.3 -1.4 0.5-2.7 1-4 1.5C89.6 155.4 89.3 155.5 89 155.6zM71.8 115c-1.2 0.8-2.2 1.8-2.9 3 1.4 0.8 2.6 1.5 3.9 2.3 0.4-0.5 0.8-0.9 1.2-1.3C73.3 117.7 72.6 116.4 71.8 115zM79.9 118.6c0.6 0.5 1.1 1 1.6 1.4 1.1-0.8 2.2-1.6 3.3-2.4 -0.8-1.1-1.7-2-2.9-2.7C81.2 116.2 80.6 117.4 79.9 118.6zM90.8 148.7c-0.2 0.9-0.3 1.6-0.6 2.4 -0.1 0.5-0.5 0.9-1.1 1.1 -1.1 0.4-2.1 0.8-3.1 1.2 -0.2 0.1-0.5 0.2-0.7 0.3 0 0.1 0 0.1 0.1 0.2 1-0.2 1.9-0.4 2.9-0.7 1.5-0.4 2.9-0.7 4.4 0 0 0 0.1 0 0.3-0.1 -0.4-0.3-0.8-0.6-1.1-0.9 -0.4-0.3-0.5-0.6-0.5-1 0.1-0.7 0.2-1.5 0.2-2.3C91.3 148.9 91.1 148.8 90.8 148.7zM83 123.3c0.8 1.4 1.7 2.4 3.1 2.8 0.4-1.3 0.5-2 0.3-2.8C85.4 123.3 84.3 123.3 83 123.3zM134.4 104.7c0.7 0 1.3-0.6 1.3-1.3 0-0.7-0.6-1.3-1.3-1.3 -0.7 0-1.4 0.6-1.3 1.4C133.1 104.1 133.7 104.7 134.4 104.7zM134.4 97.6c-0.7 0-1.3 0.5-1.4 1.3 0 0.7 0.5 1.3 1.2 1.4 0.8 0 1.4-0.5 1.4-1.3C135.7 98.2 135.1 97.6 134.4 97.6zM51.5 103.4c0-0.7-0.6-1.3-1.3-1.3 -0.7 0-1.4 0.6-1.4 1.3 0 0.7 0.6 1.3 1.3 1.3C50.9 104.7 51.5 104.1 51.5 103.4zM50.3 100.2c0.7 0 1.3-0.6 1.3-1.3 0-0.7-0.6-1.3-1.3-1.3 -0.7 0-1.4 0.6-1.3 1.4C49 99.7 49.5 100.2 50.3 100.2zM160.7 114.5c-0.1 0-0.1 0-0.2 0 0 0.9 0 1.9 0 2.9 0.5-0.4 0.9-0.6 1.3-1C161.4 115.7 161 115.1 160.7 114.5zM71.9 124.8c0 0 0.1 0.1 0.1 0.1 0.3-0.1 0.7-0.2 1-0.3 0.2-0.1 0.5-0.2 0.3-0.5 -0.1-0.1-0.5-0.2-0.6-0.1C72.4 124.2 72.2 124.5 71.9 124.8zM83.8 91.4c0.9 0 0.9 0 0.7-0.8C84.3 90.8 84.1 91.1 83.8 91.4zM25.1 115.3c-0.1 0-0.1 0-0.2-0.1 -0.2 0.3-0.5 0.5 0.1 0.9C25 115.8 25 115.6 25.1 115.3zM102.5 90.7c-0.1 0.5 0 0.8 0.4 0.7 0 0 0.1-0.1 0.1-0.1C102.9 91.1 102.7 90.9 102.5 90.7zM25 120.8c0.1 0 0.1 0 0.2 0 0-0.2 0-0.4-0.1-0.7 -0.2 0.1-0.4 0.1-0.6 0.2C24.7 120.5 24.8 120.6 25 120.8z"/><path class="st2" d="M160.5 117.4c0-1 0-2 0-2.9 0.1 0 0.1 0 0.2 0"/><path class="st1" d="M54 160.2c0.2 0.5 0.3 0.8 0.5 1.1 1.3 3.6 2.6 7.2 3.9 10.8 0.3 0.9 0.3 0.9 1.3 0.9 3.9 0 7.8 0 11.7 0 0.3 0 0.6 0 1 0 0 0.1 0 0.1 0.1 0.2 -0.3 0.2-0.5 0.4-0.8 0.6 -3 2.3-6 4.6-9 6.9 -0.9 0.7-0.9 0.7-0.6 1.7 1.1 3.6 2.1 7.1 3.2 10.7 0.1 0.3 0.1 0.6 0.3 1.1 -0.5-0.3-0.7-0.4-1-0.6 -3.2-2.1-6.5-4.2-9.7-6.3 -0.7-0.5-1.2-0.4-1.8 0 -3.2 2.1-6.5 4.2-9.7 6.3 -0.3 0.2-0.5 0.3-1 0.6 0.1-0.5 0.2-0.8 0.3-1.1 1.1-3.6 2.1-7.1 3.2-10.7 0.4-1.2 0.3-1-0.5-1.6 -3-2.3-6-4.6-9-6.9 -0.3-0.2-0.5-0.4-0.8-0.6 0-0.1 0-0.1 0.1-0.2 0.3 0 0.6 0 1 0 3.9 0 7.7 0 11.6 0 1.1 0 1.1 0 1.5-1 1.3-3.6 2.6-7.1 3.9-10.7C53.6 161.1 53.8 160.8 54 160.2zM64 192.4c0.1 0 0.1-0.1 0.2-0.1 -1.1-3.7-2.2-7.3-3.3-11.1 1.1-0.8 2.1-1.6 3.1-2.4 1-0.8 2-1.5 3-2.3 1-0.8 2-1.6 3-2.4 0-0.1-0.1-0.2-0.1-0.2 -4 0-7.9 0-11.9 0 -1.4-3.7-2.7-7.4-4-11.1 -0.1 0-0.1 0-0.2 0 -1.3 3.7-2.7 7.3-4 11 -1 0-2 0-3 0 -1 0-2 0-3 0 -1 0-2 0-3 0 -1 0-2-0.1-3.2 0.1 3.2 2.5 6.3 4.8 9.4 7.2 -1 3.7-2.3 7.4-3.3 11.1 0.1 0 0.1 0.1 0.2 0.1 3.3-2.2 6.6-4.3 10-6.5C57.3 188.1 60.7 190.3 64 192.4z"/><path class="st1" d="M111.4 173.4c-0.3 0.2-0.5 0.4-0.8 0.6 -3 2.3-6 4.6-9 6.9 -0.8 0.6-0.8 0.6-0.5 1.5 1.1 3.6 2.2 7.1 3.2 10.7 0.1 0.3 0.2 0.6 0.3 1.2 -0.5-0.3-0.8-0.4-1-0.6 -3.2-2.1-6.4-4.1-9.6-6.3 -0.7-0.5-1.2-0.5-1.9 0 -3.2 2.1-6.4 4.2-9.6 6.3 -0.3 0.2-0.6 0.3-1.1 0.6 0.1-0.5 0.2-0.9 0.3-1.2 1.1-3.6 2.2-7.1 3.2-10.7 0.3-0.9 0.3-0.9-0.5-1.5 -3-2.3-6-4.6-9-6.9 -0.3-0.2-0.5-0.4-0.8-0.6 0-0.1 0-0.1 0.1-0.2 0.3 0 0.6 0 1 0 3.6 0 7.2 0 10.8 0 0.2 0 0.5 0 0.7 0 1.1 0 1.1 0 1.4-1 1.1-3 2.2-6 3.2-8.9 0.3-0.9 0.7-1.8 1.2-2.7 0.1 0.3 0.3 0.6 0.4 0.9 1.3 3.6 2.6 7.1 3.9 10.7 0.4 1.1 0.4 1.1 1.5 1.1 3.8 0 7.6 0 11.4 0 0.4 0 0.7 0 1.1 0C111.3 173.2 111.4 173.3 111.4 173.4zM97.2 173.9c-1.4-3.7-2.6-7.4-4.2-11 -0.8 1.8-1.5 3.6-2.1 5.4 -0.7 1.8-1.3 3.7-2 5.5 -1.1 0-2 0-3 0 -1 0-2 0-3 0 -1 0-2 0-3 0 -1 0-1.9-0.1-3.1 0.1 0.4 0.3 0.6 0.5 0.9 0.7 2.6 2 5.1 3.9 7.7 5.9 0.8 0.6 0.8 0.6 0.5 1.5 -0.9 3.1-1.9 6.2-2.8 9.3 -0.1 0.3-0.1 0.6-0.2 0.8 0.1 0 0.1 0.1 0.2 0.1 3.3-2.2 6.6-4.3 10-6.5 0.9 0.6 1.7 1.1 2.6 1.7 0.8 0.5 1.7 1.1 2.5 1.6 0.8 0.5 1.7 1.1 2.5 1.6 0.8 0.5 1.6 1.1 2.6 1.6 -0.1-0.5-0.2-0.7-0.2-0.9 -1-3.2-1.9-6.4-2.9-9.6 -0.2-0.8-0.2-0.8 0.4-1.3 2.6-2 5.2-4 7.8-6 0.3-0.2 0.5-0.4 0.7-0.6 0-0.1-0.1-0.1-0.1-0.2C105.2 173.9 101.2 173.9 97.2 173.9z"/><path class="st1" d="M143.2 194.2c-0.3-0.2-0.6-0.3-0.8-0.5 -3.2-2.1-6.4-4.1-9.5-6.2 -1.2-0.7-0.9-0.8-2 0 -3.2 2.1-6.5 4.2-9.7 6.3 -0.3 0.2-0.5 0.3-1 0.6 1.3-4.4 2.6-8.6 3.9-12.9 -3.6-2.7-7.1-5.4-10.6-8.1 0-0.1 0-0.1 0-0.2 0.3 0 0.6-0.1 1-0.1 3.6 0 7.3 0 10.9 0 0.2 0 0.5 0 0.7 0 1 0 1.1 0 1.4-1 1.1-3.1 2.2-6.1 3.3-9.2 0.3-0.8 0.6-1.6 0.9-2.5 0.4 0.2 0.4 0.6 0.5 0.9 1.3 3.6 2.6 7.2 3.9 10.8 0.4 1 0.4 1 1.5 1 3.8 0 7.6 0 11.5 0 0.3 0 0.7 0 1.1 0 -0.1 0.5-0.4 0.6-0.7 0.8 -3 2.3-6 4.6-9 6.9 -0.9 0.7-0.9 0.7-0.5 1.7 1.1 3.5 2.1 7.1 3.2 10.6 0.1 0.3 0.2 0.6 0.3 1C143.3 194.1 143.3 194.2 143.2 194.2zM131.8 185.9c3.4 2.2 6.7 4.3 10 6.5 0.1 0 0.1-0.1 0.2-0.1 -0.1-0.3-0.2-0.7-0.3-1 -0.9-2.9-1.8-5.9-2.7-8.8 -0.4-1.3-0.5-1.1 0.6-1.9 2.5-1.9 5-3.9 7.5-5.8 0.3-0.2 0.5-0.4 0.7-0.6 0-0.1-0.1-0.1-0.1-0.2 -3.9 0-7.9 0-11.8 0 -0.1-0.4-0.3-0.7-0.4-1 -1.1-3.1-2.2-6.1-3.3-9.2 -0.1-0.3-0.1-0.7-0.6-0.9 -1.3 3.7-2.7 7.4-4 11.1 -4 0-7.9 0-11.9 0 0 0.1-0.1 0.1-0.1 0.2 3 2.4 6.2 4.7 9.2 7.1 -1.1 3.7-2.2 7.4-3.3 11 0.1 0 0.1 0.1 0.2 0.1C125.1 190.3 128.4 188.1 131.8 185.9z"/><path class="st1" d="M97.5 48.8c0 1.5-0.3 2.8-0.8 4.2 -0.3 0.8-0.8 1.5-1.5 2.1 -1.1 0.9-2.5 1-3.6 0 -0.5-0.5-1-1-1.3-1.7 -1.4-3.1-1.4-6.2 0-9.2 0.3-0.6 0.7-1.1 1.2-1.5 1.1-1 2.6-1 3.7 0 1.1 1 1.7 2.3 2 3.7C97.4 47.1 97.4 48 97.5 48.8z"/><path class="st1" d="M93.3 38.7c-0.2-0.2-0.3-0.4-0.4-0.6 -1.2-2.1-2.5-4.2-3.7-6.2 -0.2-0.4-0.3-0.6 0-1 1.3-2.1 2.6-4.2 3.9-6.2 0.1-0.1 0.1-0.2 0.2-0.4 0.2 0.2 0.3 0.3 0.4 0.5 1.2 2 2.4 4 3.6 6 0.2 0.3 0.3 0.6 0.1 1 -1.2 2.2-2.5 4.4-3.7 6.6C93.6 38.4 93.5 38.5 93.3 38.7z"/><path class="st1" d="M76.4 123.3c-0.7 0-1.1-0.5-1.1-1.1 0-0.7 0.6-1.2 1.3-1.2 0.7 0 1.1 0.5 1.1 1.1C77.7 122.8 77.1 123.3 76.4 123.3zM77.3 122.1c0-0.3-0.3-0.6-0.7-0.6 -0.5 0-0.9 0.3-0.9 0.7 0 0.3 0.3 0.6 0.7 0.6C76.8 122.9 77.3 122.5 77.3 122.1z"/><path class="st1" d="M89.3 86.6c0-1.7 0.2-3 0.8-4.3 0.4-0.8 0.8-1.6 1.6-2.2 1.1-0.9 2.4-0.9 3.5 0 0.7 0.5 1.2 1.2 1.5 2 1.2 2.8 1.2 5.7 0 8.5 -0.3 0.8-0.8 1.5-1.5 2.1 -1.1 0.9-2.4 0.9-3.5 0 -0.8-0.6-1.3-1.4-1.6-2.3C89.5 89 89.3 87.7 89.3 86.6z"/><path class="st1" d="M60.1 105.5c-1.5-0.1-2.9-0.2-4.3-0.9 -0.7-0.4-1.4-0.8-1.9-1.4 -1-1.1-1-2.5 0-3.6 0.6-0.7 1.3-1.1 2-1.4 2.8-1.1 5.6-1.1 8.4 0 0.8 0.3 1.5 0.8 2 1.4 1 1.2 1 2.5 0 3.6 -0.6 0.7-1.4 1.2-2.3 1.6C62.8 105.2 61.4 105.4 60.1 105.5z"/><path class="st1" d="M125.3 105.1c-1.6-0.1-3-0.3-4.4-0.9 -0.8-0.4-1.5-0.8-2-1.5 -0.9-1.1-0.9-2.4 0-3.6 0.6-0.8 1.5-1.3 2.4-1.6 2.6-1 5.2-1 7.8 0 0.8 0.3 1.5 0.8 2.1 1.3 1.3 1.2 1.3 2.8 0 4.1 -1.2 1.1-2.6 1.6-4.2 1.9C126.4 105 125.8 105.1 125.3 105.1z"/><path class="st1" d="M74.4 101.2c0.2-0.2 0.4-0.3 0.6-0.5 1.9-1.2 3.9-2.4 5.8-3.6 0.4-0.3 0.7-0.3 1.2 0 2.1 1.3 4.2 2.5 6.3 3.8 0.2 0.1 0.3 0.2 0.5 0.4 -0.2 0.2-0.3 0.3-0.4 0.4 -2.1 1.2-4.3 2.4-6.4 3.6 -0.3 0.2-0.6 0.3-1 0.1 -2-1.2-4.1-2.4-6.2-3.7C74.7 101.5 74.6 101.4 74.4 101.2z"/><path class="st1" d="M111.4 101.3c-0.3 0.2-0.4 0.3-0.6 0.4 -2.1 1.2-4.2 2.3-6.3 3.5 -0.4 0.2-0.7 0.3-1.1 0 -2-1.2-4-2.4-6-3.6 -0.2-0.1-0.3-0.2-0.5-0.4 0.2-0.2 0.4-0.3 0.5-0.4 2-1.2 3.9-2.4 5.9-3.6 0.4-0.2 0.7-0.4 1.2-0.1 2.2 1.3 4.3 2.6 6.5 3.9C111.1 101 111.2 101.1 111.4 101.3z"/><path class="st1" d="M117.9 98.8c0 1.2-0.9 2.1-2 2.1 -1.2 0-2.2-0.9-2.2-2.1 0-1.1 1-2.1 2.1-2.1C117 96.7 117.9 97.6 117.9 98.8zM115.8 100.1c0.7 0 1.3-0.5 1.3-1.3 0-0.8-0.6-1.4-1.3-1.4 -0.7 0-1.3 0.6-1.3 1.3C114.5 99.5 115.1 100.1 115.8 100.1z"/><path class="st1" d="M91.3 98.8c0-1.1 1-2 2.1-2.1 1.2 0 2.1 1 2.1 2.1 0 1.1-1 2.1-2.1 2.1C92.2 101 91.2 100 91.3 98.8zM94.7 98.9c0-0.7-0.6-1.3-1.3-1.3 -0.7 0-1.3 0.5-1.4 1.2 0 0.7 0.6 1.4 1.3 1.4C94.1 100.2 94.7 99.6 94.7 98.9z"/><path class="st1" d="M115.8 105.3c-1.2 0-2.1-0.9-2.1-2 0-1.1 0.9-2.1 2-2.1 1.1 0 2.2 1 2.2 2.1C117.9 104.4 116.9 105.3 115.8 105.3zM117.1 103.3c0-0.7-0.6-1.3-1.3-1.4 -0.7 0-1.4 0.6-1.4 1.3 0 0.7 0.6 1.3 1.3 1.3C116.5 104.6 117.1 104 117.1 103.3z"/><path class="st1" d="M71 101c-1.2 0-2.1-0.9-2.1-2.1 0-1.1 0.9-2.1 2.1-2.1 1.1 0 2.1 1 2.1 2.1C73 100.1 72.1 101 71 101zM70.9 100.2c0.7 0 1.3-0.6 1.3-1.3 0-0.7-0.6-1.3-1.3-1.3 -0.7 0-1.4 0.6-1.4 1.3C69.6 99.7 70.2 100.2 70.9 100.2z"/><path class="st1" d="M95.4 103.3c0 1.1-0.9 2.1-2 2.1 -1.1 0-2.2-1-2.2-2.1 0-1.1 1-2.1 2.2-2.1C94.5 101.3 95.4 102.2 95.4 103.3zM94.6 103.3c0-0.7-0.5-1.3-1.3-1.3 -0.7 0-1.3 0.5-1.4 1.3 0 0.7 0.6 1.4 1.3 1.4C94 104.6 94.6 104.1 94.6 103.3z"/><path class="st1" d="M70.9 105.5c-1.2 0-2.1-1-2.1-2.1 0-1.1 1-2.1 2.1-2.1 1.2 0 2.1 1 2.1 2.2C72.9 104.6 72 105.5 70.9 105.5zM72.2 103.4c0-0.7-0.5-1.3-1.2-1.4 -0.8 0-1.4 0.6-1.4 1.3 0 0.7 0.6 1.3 1.3 1.3C71.6 104.7 72.2 104.2 72.2 103.4z"/></svg>