<svg class="svg-icon svg-icon__bell" xmlns="http://www.w3.org/2000/svg" viewBox="0 0 344.73 378.99"><path d="M1 318.92a13.59 13.59 0 0 0 12.46 8.38h98.83a60.48 60.48 0 0 0 119.68 0H331a6.29 6.29 0 0 0 2-.23 13.79 13.79 0 0 0 10.88-8.61 13.32 13.32 0 0 0-3.4-14.28l-.68-.68c-1.36-1.36-6.8-7.48-12-20.4-5.67-13.82-12.7-38.53-12.7-76.84 0-75.71-28.56-115.6-52.36-135.77a120.28 120.28 0 0 0-42.16-23.12c-.45-9.29-2.72-22-11.33-32.18C203.41 8.16 192.3 0 172.58 0 153.09 0 142 8.39 136.09 15.19c-8.84 10.43-11.34 23.34-11.56 32.87a121.52 121.52 0 0 0-42.17 22.66c-43.74 35.81-52.81 93.38-52.81 135.09 0 37.18-7 61.88-12.92 76.16-6.35 15.19-12.47 22-12.47 22a13.61 13.61 0 0 0-3.17 15zm171.36 32.86a33.79 33.79 0 0 1-32.19-24.48h64.38a33.79 33.79 0 0 1-32.19 24.48zm-115.6-146c0-121.95 79.79-133.5 83-134a13.88 13.88 0 0 0 9.24-5.14 14.07 14.07 0 0 0 2.72-10.43c-.68-4.31-1.14-17 5-24 1.13-1.36 4.76-5.67 15.87-5.67s14.73 4.31 16.09 5.67c5.66 6.57 5.44 19 4.76 23.12a13.23 13.23 0 0 0 2.5 10.43 13.64 13.64 0 0 0 9.29 5.44c.23 0 20.4 2.95 40.57 19.95 28.33 23.8 42.61 62.56 42.61 115.14 0 46.24 8.84 75.93 17.68 94.07H38.62c8.61-18.81 18.13-49.19 18.13-94.52zm0 0"/></svg>