<svg class="svg-icon svg-icon__calendar" xmlns="http://www.w3.org/2000/svg" viewBox="0 0 51.2 51.2"><path d="M51.2 8.78a4.83 4.83 0 0 0-4.8-4.84h-5.08V1.61a1.6 1.6 0 1 0-3.2 0v2.33H13V1.61a1.6 1.6 0 1 0-3.2 0v2.33h-5A4.83 4.83 0 0 0 0 8.78v7.37a1.36 1.36 0 0 0 .05.25 1.37 1.37 0 0 0-.05.25v29.7a4.82 4.82 0 0 0 4.8 4.85h41.6a4.82 4.82 0 0 0 4.8-4.84V16.67a1.36 1.36 0 0 0-.05-.25 1.35 1.35 0 0 0 .05-.25zM48 46.36A1.61 1.61 0 0 1 46.4 48H4.8a1.61 1.61 0 0 1-1.6-1.61V18.26H48zM48 15H3.2V8.78a1.61 1.61 0 0 1 1.6-1.61h5V9.5a1.6 1.6 0 1 0 3.2 0V7.17h25.12V9.5a1.6 1.6 0 1 0 3.2 0V7.17h5.08A1.61 1.61 0 0 1 48 8.78zm0 0" fill="#fff"/><path d="M18.55 27.06a1.6 1.6 0 1 1-1.6-1.61 1.61 1.61 0 0 1 1.6 1.61zm7.73 0a1.6 1.6 0 1 1-1.6-1.61 1.61 1.61 0 0 1 1.6 1.61zm8.65 0a1.6 1.6 0 1 1-1.6-1.61 1.61 1.61 0 0 1 1.6 1.61zm8.83 0a1.6 1.6 0 1 1-1.6-1.61 1.61 1.61 0 0 1 1.6 1.61zm-33.12 5.59A1.6 1.6 0 1 1 9 31a1.61 1.61 0 0 1 1.6 1.61zm7.91 0A1.6 1.6 0 1 1 16.94 31a1.61 1.61 0 0 1 1.6 1.61zm7.73 0a1.6 1.6 0 1 1-1.6-1.65 1.61 1.61 0 0 1 1.6 1.61zm8.65 0a1.6 1.6 0 1 1-1.6-1.65 1.61 1.61 0 0 1 1.6 1.61zm8.83 0a1.6 1.6 0 1 1-1.6-1.65 1.61 1.61 0 0 1 1.6 1.61zM10.64 38.2A1.6 1.6 0 1 1 9 36.59a1.61 1.61 0 0 1 1.6 1.61zm7.91 0a1.6 1.6 0 1 1-1.6-1.61 1.61 1.61 0 0 1 1.6 1.61zm7.73 0a1.6 1.6 0 1 1-1.6-1.61 1.61 1.61 0 0 1 1.6 1.61zm8.65 0a1.6 1.6 0 1 1-1.6-1.61 1.61 1.61 0 0 1 1.6 1.61zm8.83 0a1.6 1.6 0 1 1-1.6-1.61 1.61 1.61 0 0 1 1.6 1.61zm-33.12 5.59A1.6 1.6 0 1 1 9 42.18a1.6 1.6 0 0 1 1.6 1.61zm7.91 0a1.6 1.6 0 1 1-1.6-1.61 1.6 1.6 0 0 1 1.6 1.61zm7.73 0a1.6 1.6 0 1 1-1.6-1.61 1.6 1.6 0 0 1 1.6 1.61zm0 0" fill="#fff"/></svg>