<svg class="svg-icon svg-icon__form" xmlns="http://www.w3.org/2000/svg" viewBox="0 0 337.79 347.34"><path d="M261.09 184.16V28H28v291.36h107.2a14 14 0 1 1 0 28H14a14 14 0 0 1-14-14V14A14 14 0 0 1 14 0h261.07a14 14 0 0 1 14 14v170.16a14 14 0 1 1-28 0zm72 34a14 14 0 0 0-19.81 1.16l-76.7 85.32-38.46-37.07a14 14 0 1 0-19.35 20.28l49 47.09a13.74 13.74 0 0 0 9.79 4h.44a14 14 0 0 0 9.79-4.66l86.25-96a14.06 14.06 0 0 0-.93-20zM209.8 81.59H83.92a14 14 0 1 0 0 28H209.8a14 14 0 0 0 0-28zm14 90.91a14 14 0 0 0-14-14H83.92a14 14 0 1 0 0 28H209.8a14 14 0 0 0 14-14zM83.92 233.11a14 14 0 1 0 0 28h37.3a14 14 0 0 0 0-28zm0 0" fill="#fff"/></svg>