<svg class="svg-icon svg-icon__link" xmlns="http://www.w3.org/2000/svg" viewBox="0 0 58.95 58.95"><path d="M28.16 14.1a8.36 8.36 0 0 0-2.55 6 8.36 8.36 0 0 0 2.32 6.07l3-2.85a4.33 4.33 0 0 1-1.16-3.15A4.48 4.48 0 0 1 31.09 17L42.68 5.44a4.62 4.62 0 0 1 6.45 0l4.31 4.35a4.53 4.53 0 0 1 0 6.45L41.81 27.86a4.37 4.37 0 0 1-3.11 1.31 4.08 4.08 0 0 1-3.11-1.24L32.77 31a8.5 8.5 0 0 0 6.07 2.29 8.36 8.36 0 0 0 6-2.55L56.4 19.16A8.41 8.41 0 0 0 58.95 13a8.41 8.41 0 0 0-2.55-6.14l-4.35-4.35a8.78 8.78 0 0 0-12.3 0zm0 0"/><path d="M20.47 35.51a2 2 0 0 0 0 2.93 2.18 2.18 0 0 0 2.92 0l15-15a2.18 2.18 0 0 0 0-2.92 2 2 0 0 0-2.93 0zm0 0"/><path d="M2.51 39.75a8.79 8.79 0 0 0 0 12.3l4.35 4.35A8.35 8.35 0 0 0 13 59a8.35 8.35 0 0 0 6.15-2.55l11.6-11.64a8.36 8.36 0 0 0 2.55-6 8.5 8.5 0 0 0-2.3-6.04l-3.07 2.81a4.11 4.11 0 0 1 1.24 3.15 4.37 4.37 0 0 1-1.31 3.07L16.24 53.44A4.41 4.41 0 0 1 13 54.75a4.42 4.42 0 0 1-3.22-1.31l-4.34-4.32a4.62 4.62 0 0 1 0-6.45L17 31.09a4.5 4.5 0 0 1 3.15-1.35 4.32 4.32 0 0 1 3.15 1.16l2.85-3a8.38 8.38 0 0 0-6.11-2.32 8.34 8.34 0 0 0-6 2.55zm0 0"/></svg>