<svg class="svg-icon svg-icon__mic" xmlns="http://www.w3.org/2000/svg" viewBox="0 0 261.36 392.72"><path d="M130.72 258.32a77.09 77.09 0 0 0 77-77V77a77 77 0 1 0-153.96 0v104.4a77 77 0 0 0 77 77zM73.36 77a57.36 57.36 0 0 1 114.72 0v104.4a57.36 57.36 0 1 1-114.72 0zm0 0"/><path d="M9.84 171.6A9.83 9.83 0 0 0 0 181.44a130.75 130.75 0 0 0 120.88 130.24V373H69.76a9.84 9.84 0 1 0 0 19.68H191.6a9.84 9.84 0 1 0 0-19.68h-51.12v-61.32c67.52-5 120.88-61.52 120.88-130.24a9.84 9.84 0 0 0-19.68 0 111.12 111.12 0 0 1-222.24 0 9.53 9.53 0 0 0-9.6-9.84zm0 0"/></svg>