<svg class="svg-icon svg-icon__mpa-circ" xmlns="http://www.w3.org/2000/svg" viewBox="0 0 331 331"><circle cx="165.5" cy="165.5" r="160.5" fill="none"/><path d="M237.35 158.14c-.95-18.33-7.66-35.75-21.07-48.62-13.16-12.64-31.71-19.66-50-18.21a82.74 82.74 0 0 0-49.35 21.32 72.53 72.53 0 0 0-23.25 47.89 56.94 56.94 0 0 0 6.75 31 58.65 58.65 0 0 0 10.22 13.81 74.47 74.47 0 0 0 6.6 5.73c2.16 1.68 4.65 3.12 6.59 5.07 2.52 2.54 4.38 6.54 2.72 10s-5.84 4-8.65 6.26c-1.43 1.15-3.51 3.48-2.1 5.38 2.06 2.78 7.73 2 10.6 1.74 7.44-.75 15.53-3.69 18.7-11 2.64-6.1 1.16-13.19-1.77-18.9-4.63-9-13.51-13.63-20.77-20.2a44.39 44.39 0 0 1-14.12-28.9c-1.64-18.62 9.2-34.71 25.39-43.2s35.66-10 52.69-3a58 58 0 0 1 34.14 38.6c4.07 15.64 3 36.18-10.75 47-6.66 5.23-15.47 7.4-23.84 6.77a16.45 16.45 0 0 1-11.66-5.49 37.27 37.27 0 0 1-7.57-13.59 66.51 66.51 0 0 1-2.9-16.39c0-.69-.08-1.38-.11-2.07 0-1-.43-1.35.69-1.44 1.48-.12 2.95-.26 4.42-.44q4.74-.57 9.41-1.61a71.66 71.66 0 0 0 16.9-6 12.51 12.51 0 0 0 5.65-6.63c1.33-3.12 3.48-13.07-3.12-11.4-2.11.53-4 1.84-6 2.68a58 58 0 0 1-8.87 2.88 85.47 85.47 0 0 1-18.37 2.22c.6-6.21 1.48-12.4 2.37-18.58.39-2.69 1.85-7.84-1.1-9.73-2.12-1.35-5 .12-6.84 1.37a14.45 14.45 0 0 0-5.63 7.34 39.08 39.08 0 0 0-1 6.15q-.62 4.55-1.15 9.1-.13 1.15-.25 2.3c-.11 1.06.29 1.61-1 1.5q-2.38-.23-4.76-.52c-3-.37-6-1.19-9-1.32-6-.26-10.36 8.29-10.43 13.34 0 3.17 1.67 5 4.73 5.52a151.85 151.85 0 0 0 19 2 120 120 0 0 0 2.07 27.21c1.63 7.74 4.46 15.63 9.91 21.55a28.24 28.24 0 0 0 21.33 8.84A53.09 53.09 0 0 0 224 204.3c9.87-13.08 14.2-29.92 13.35-46.16z"/></svg>