<svg class="svg-icon svg-icon__newspaper" xmlns="http://www.w3.org/2000/svg" viewBox="0 0 353.6 312"><path d="M136.8 248H56a8 8 0 0 0 0 16h80.8a8 8 0 0 0 0-16zm120.8 0h-80.8a8 8 0 0 0 0 16h80.8a8 8 0 0 0 0-16zm0-200H56a8 8 0 0 0 0 16h201.6a8 8 0 0 0 0-16zm0 40h-80.8a8 8 0 0 0 0 16h80.8a8 8 0 0 0 0-16zm0 40h-80.8a8 8 0 0 0 0 16h80.8a8 8 0 0 0 0-16zm0 40h-80.8a8 8 0 0 0 0 16h80.8a8 8 0 0 0 0-16zm0 40h-80.8a8 8 0 0 0 0 16h80.8a8 8 0 0 0 0-16zm-120.8 0H56a8 8 0 0 0 0 16h80.8a8 8 0 0 0 0-16zm0-120H56a8 8 0 0 0-8 8v80.8a8 8 0 0 0 8 8h80.8a8 8 0 0 0 8-8V96a8 8 0 0 0-8-8zm-8 80.8H64V104h64.8zm0 0"/><path d="M337.6 40h-24V16a16 16 0 0 0-16-16H16A16 16 0 0 0 0 16v256a40 40 0 0 0 40 40h273.6a40 40 0 0 0 40-40V56a16 16 0 0 0-16-16zm0 232a24 24 0 0 1-24 24H40a24 24 0 0 1-24-24V16h281.6v244a20 20 0 0 0 20 20 8 8 0 0 0 0-16 4 4 0 0 1-4-4V56h24zm0 0"/></svg>