<svg class="svg-icon svg-icon__prayer" xmlns="http://www.w3.org/2000/svg" viewBox="0 0 356.8 349.11"><path d="M123.36 161V57.68a6.4 6.4 0 0 0-12.8 0v90.5L99.36 137V41.68a6.4 6.4 0 0 0-12.8 0v82.5l-7.81-7.81a25.93 25.93 0 0 0-3.39-2.85V25.68a6.4 6.4 0 0 0-12.8 0v83.25c-.65 0-1.31-.08-2-.08a25.68 25.68 0 0 0-9.23 1.71V25.68A25.68 25.68 0 1 0 0 25.69v13.95c0 25.74.09 81.18.09 115.59a6.44 6.44 0 0 0 .82 3.14L75.5 291v51.72a6.4 6.4 0 0 0 12.8 0v-53.4a6.4 6.4 0 0 0-.82-3.14L12.91 153.55c0-32-.06-80.73-.09-107.87h3.23a6.4 6.4 0 0 0 0-12.8h-3.24v-7.2a12.88 12.88 0 0 1 25.76 0v95.62a25.72 25.72 0 0 0 3.85 31.39L101.75 212a6.4 6.4 0 0 0 9.05-9l-46.08-46.12 6.43-6.42a6.4 6.4 0 1 0-9.05-9.05l-6.43 6.42-4.19-4.19a12.88 12.88 0 0 1 18.22-18.22l18.73 18.73 51.11 51.11c19.44 19.45 19.28 34.7 18.57 98.87-.15 14-.33 29.86-.33 48.57a6.4 6.4 0 0 0 12.8 0c0-18.64.18-34.46.33-48.43.72-65.15.94-84.81-22.32-108.07zM356.78 38.93V25.68a25.68 25.68 0 0 0-51.36 0v84.88a25.69 25.69 0 0 0-9.23-1.71c-.66 0-1.32 0-2 .08V25.68a6.4 6.4 0 0 0-12.8 0v87.84a26.26 26.26 0 0 0-3.39 2.85l-7.82 7.81v-82.5a6.4 6.4 0 0 0-12.8 0V137l-11.2 11.2V57.68a6.4 6.4 0 0 0-12.8 0V161l-25.18 25.22c-23.25 23.25-23 42.91-22.32 108.06.16 14 .33 29.79.33 48.43a6.4 6.4 0 1 0 12.8 0c0-18.71-.18-34.57-.33-48.57-.71-64.18-.88-79.43 18.57-98.87l69.85-69.85a12.88 12.88 0 0 1 18.21 18.21l-4.19 4.19-6.43-6.42a6.4 6.4 0 0 0-9.05 9.05l6.43 6.42L246 203a6.4 6.4 0 0 0 9.05 9l50.61-50.61 8.71-8.72a25.72 25.72 0 0 0 3.85-31.39v-95.6a12.88 12.88 0 0 1 25.76 0v7.21h-3.25a6.4 6.4 0 1 0 0 12.8H344c0 27.14-.09 75.9-.09 107.87l-74.59 132.62a6.39 6.39 0 0 0-.82 3.14v53.4a6.4 6.4 0 0 0 12.8 0V291l74.56-132.62a6.41 6.41 0 0 0 .82-3.14c0-34.41.06-89.84.1-115.59v-.71zm0 0"/></svg>