<svg class="svg-icon svg-icon__hamburger" xmlns="http://www.w3.org/2000/svg" viewBox="0 0 35.39 35.39"><circle cx="17.7" cy="17.69" r="16.92" fill="#fff" opacity=".15"/><path d="M17.69 35.39a17.7 17.7 0 1 1 17.7-17.69 17.71 17.71 0 0 1-17.7 17.69zm0-34.19a16.5 16.5 0 1 0 16.5 16.5 16.52 16.52 0 0 0-16.5-16.5zm0 0" fill="#fff"/><path d="M25.14 18.56h-14.9a.6.6 0 0 1 0-1.2h14.9a.6.6 0 1 1 0 1.2zm0-4.82h-14.9a.6.6 0 0 1 0-1.2h14.9a.6.6 0 1 1 0 1.2zm0 9.66h-14.9a.6.6 0 0 1 0-1.2h14.9a.6.6 0 1 1 0 1.2zm0 0" fill="#fff"/></svg>