<svg id="Layer_1" data-name="Layer 1" xmlns="http://www.w3.org/2000/svg" viewBox="0 0 354.24 125.52"><defs><style>.cls-1,.cls-10,.cls-100,.cls-101,.cls-102,.cls-103,.cls-104,.cls-105,.cls-106,.cls-107,.cls-108,.cls-109,.cls-11,.cls-110,.cls-111,.cls-112,.cls-113,.cls-114,.cls-115,.cls-116,.cls-12,.cls-13,.cls-14,.cls-15,.cls-16,.cls-17,.cls-18,.cls-19,.cls-2,.cls-20,.cls-21,.cls-22,.cls-23,.cls-24,.cls-25,.cls-26,.cls-27,.cls-28,.cls-29,.cls-3,.cls-30,.cls-31,.cls-32,.cls-33,.cls-34,.cls-35,.cls-36,.cls-37,.cls-38,.cls-39,.cls-4,.cls-40,.cls-41,.cls-42,.cls-43,.cls-44,.cls-45,.cls-46,.cls-47,.cls-48,.cls-49,.cls-5,.cls-50,.cls-51,.cls-52,.cls-53,.cls-54,.cls-55,.cls-56,.cls-57,.cls-58,.cls-59,.cls-6,.cls-60,.cls-61,.cls-62,.cls-63,.cls-64,.cls-65,.cls-66,.cls-67,.cls-68,.cls-69,.cls-7,.cls-70,.cls-71,.cls-72,.cls-73,.cls-74,.cls-75,.cls-76,.cls-77,.cls-78,.cls-79,.cls-8,.cls-80,.cls-81,.cls-82,.cls-83,.cls-84,.cls-85,.cls-86,.cls-87,.cls-88,.cls-89,.cls-9,.cls-90,.cls-91,.cls-92,.cls-93,.cls-94,.cls-95,.cls-96,.cls-97,.cls-98,.cls-99{fill-rule:evenodd;}.cls-2{fill:#fff;}.cls-3{fill:#1e376d;}.cls-4{fill:#fefefe;}.cls-5{fill:#dbc454;}.cls-6{fill:#dac354;}.cls-7{fill:#c9b655;}.cls-8{fill:#dac454;}.cls-9{fill:#d9c254;}.cls-10{fill:#d7c155;}.cls-11{fill:#d9c354;}.cls-12{fill:#cd222d;}.cls-13{fill:#d7c154;}.cls-14{fill:#ce222d;}.cls-15{fill:#cc222d;}.cls-16{fill:#20386b;}.cls-17{fill:#233969;}.cls-18{fill:#20376b;}.cls-19{fill:#d8c254;}.cls-20{fill:#d2bd55;}.cls-21{fill:#d5c055;}.cls-22{fill:#d4bf55;}.cls-23{fill:#d6c055;}.cls-24{fill:#d1bd56;}.cls-25{fill:#d0bb55;}.cls-26{fill:#147949;}.cls-27{fill:#d5bf54;}.cls-28{fill:#d3be56;}.cls-29{fill:#d3be55;}.cls-30{fill:#d5bf55;}.cls-31{fill:#d4be55;}.cls-32{fill:#cab657;}.cls-33{fill:#cb232d;}.cls-34{fill:#d3bd55;}.cls-35{fill:#d2bd56;}.cls-36{fill:#060606;}.cls-37{fill:#c8252e;}.cls-38{fill:#d6c155;}.cls-39{fill:#ccb856;}.cls-40{fill:#cdb955;}.cls-41{fill:#d1bc56;}.cls-42{fill:#d1bc55;}.cls-43{fill:#d0bc56;}.cls-44{fill:#ceb955;}.cls-45{fill:#ceba55;}.cls-46{fill:#cfbb55;}.cls-47{fill:#ceba56;}.cls-48{fill:#d0bb56;}.cls-49{fill:#cfba57;}.cls-50{fill:#283a66;}.cls-51{fill:#cdb956;}.cls-52{fill:#cab756;}.cls-53{fill:#243868;}.cls-54{fill:#c5272f;}.cls-55{fill:#cbb757;}.cls-56{fill:#0a0a08;}.cls-57{fill:#c32830;}.cls-58{fill:#c52830;}.cls-59{fill:#bbaa57;}.cls-60{fill:#c6282f;}.cls-61{fill:#bfae58;}.cls-62{fill:#b8a858;}.cls-63{fill:#baaa59;}.cls-64{fill:#9b9056;}.cls-65{fill:#a8a9ab;}.cls-66{fill:#373f5e;}.cls-67{fill:#323c5d;}.cls-68{fill:#c6b45b;}.cls-69{fill:#a9abac;}.cls-70{fill:#b3a459;}.cls-71{fill:#9b915b;}.cls-72{fill:#968b57;}.cls-73{fill:#efefef;}.cls-74{fill:#1f754b;}.cls-75{fill:#21764c;}.cls-76{fill:#1b784c;}.cls-77{fill:#7e795b;}.cls-78{fill:#24704b;}.cls-79{fill:#adaeaf;}.cls-80{fill:#226f4a;}.cls-81{fill:#9c9158;}.cls-82{fill:#266e4b;}.cls-83{fill:#2a714d;}.cls-84{fill:#343c5a;}.cls-85{fill:#8c8354;}.cls-86{fill:#868789;}.cls-87{fill:#276f4b;}.cls-88{fill:#9f945d;}.cls-89{fill:#887f54;}.cls-90{fill:#26744d;}.cls-91{fill:#5e5c4e;}.cls-92{fill:#c8b559;}.cls-93{fill:#8a8259;}.cls-94{fill:#286949;}.cls-95{fill:#21794d;}.cls-96{fill:#b6a75d;}.cls-97{fill:#89825b;}.cls-98{fill:#9c1519;}.cls-99{fill:#fefefd;}.cls-100{fill:#030303;}.cls-101{fill:#050404;}.cls-102{fill:#060505;}.cls-103{fill:#040404;}.cls-104{fill:#020202;}.cls-105{fill:#070708;}.cls-106{fill:#090909;}.cls-107{fill:#21386a;}.cls-108{fill:#2f704f;}.cls-109{fill:#d2bd57;}.cls-110{fill:#fcfcfc;}.cls-111{fill:#fbfbfb;}.cls-112{fill:#f8f8f8;}.cls-113{fill:#f9f9f9;}.cls-114{fill:#f3f3f3;}.cls-115{fill:#7f7c69;}.cls-116{fill:#6e6f6d;}</style></defs><title>archdiocese-of-atlanta-logo</title><path class="cls-1" d="M310.32,0c.92,1.26,2.17,2.34,2.33,4,0,.23.22.29.4.39,2,1,2.21,1.55,1.76,3.66a.84.84,0,0,1-.35.58c.23-.07.24-.39.49-.45,1.24-.76,1.67-.6,1.8.75a2.56,2.56,0,0,0,1.12,1.75c.55.46,1.08.94,1.64,1.38a3.62,3.62,0,0,1,1.38,3.5c0,.27-.14.56.16.76s.26,0,.33-.18c.29-.54.61-1.09,1.34-.95s.65.82.71,1.35c.11.85.75,1.28,1.34,1.74,1.56,1.22,3.12,2.45,2.79,4.78a.58.58,0,0,0,.31.6c.41.22.43-.22.55-.42a1,1,0,0,1,1.24-.49c.48.12.58.54.55.95a2.22,2.22,0,0,0,1.18,2,23.51,23.51,0,0,1,1.81,1.56,3.39,3.39,0,0,1,1.12,3.24,1.8,1.8,0,0,0,.55,1.59,20.7,20.7,0,0,1,1.52,1.85,1.7,1.7,0,0,1-1,2.75,1.92,1.92,0,0,0-1.59,1.8,1.46,1.46,0,0,1-.62,1c-1.12.8-1.33,2.13-1.9,3.24a.37.37,0,0,0,.11.53c.21.14.35-.07.51-.17.4-.26.79-.55,1.2-.78a1.67,1.67,0,0,1,1.72-.14,4.65,4.65,0,0,0,4.51.16,1.47,1.47,0,0,1,1.86.69c1.07,1.59,2.18,3.15,3.29,4.71a19.92,19.92,0,0,0,4.82,4.93,4.71,4.71,0,0,1,1.49,2.27c.51,1.25,1.31,1.87,2.69,1.43.42,0,1-.2.53.69-1.24,2.12-2.7,3.81-5.46,3.45-.49-.06-.64.17-.71.56a4.49,4.49,0,0,1-2.2,2.86c-1.12.76-1.65.6-2.23-.66a10,10,0,0,0-.57-1.18A11.51,11.51,0,0,0,342,61c-.16,1.93-.27,3.61-.43,5.29-.94,9.68-2.58,19.22-6.24,28.3a60.68,60.68,0,0,1-13.09,19.3A83.41,83.41,0,0,1,311,123.58a1.67,1.67,0,0,1-2.21.07c-13.22-8.55-22.6-20-27-35.33a116.51,116.51,0,0,1-4.33-23.63,1.35,1.35,0,0,0-1.28-1.41,4.19,4.19,0,0,1-3.29-2.79c-.16-.41-.22-.79-.87-.69-3,.49-4.34-1.54-5.63-3.7.14-.07.2-.14.26-.13,2.36.16,2.22.08,3.45-1.94A14.52,14.52,0,0,1,274,49.25a7,7,0,0,0,1.38-1.79c1.08-1.49,2.13-3,3.22-4.47.92-1.24,1.56-1.31,2.94-.61a4.16,4.16,0,0,0,3.15.11,4.21,4.21,0,0,1,4.19.91,4.59,4.59,0,0,0,.51.29c.47-1.27-.5-3.59-1.71-4a1.65,1.65,0,0,1-1.24-1.45,1.77,1.77,0,0,0-1.26-1.55,1.81,1.81,0,0,1-.82-3,9.54,9.54,0,0,1,.7-.82c.75-.8,1.41-1.5,1.16-2.85-.31-1.7,1-2.79,2.2-3.73,1-.78,2-1.42,2-2.89,0-.36.27-.56.63-.6a1.12,1.12,0,0,1,1.17.64c.16.28.14.91.66.73s.25-.69.17-1.06c-.39-1.95.75-3.18,2.08-4.26,1-.8,2.11-1.39,2.1-3,0-.73,1-.9,1.56-.29a7,7,0,0,1,.66,1.1.45.45,0,0,0,.35-.65c-.64-2.2.64-3.56,2.16-4.76,1-.75,1.93-1.37,1.94-2.81,0-.79.73-.68,1.3-.58-.15-2.32.17-2.79,2.46-3.55.22-.07.36-.12.35-.36,0-1.54.89-2.59,1.82-3.65.06-.07,0-.21.06-.31Z"/><path class="cls-2" d="M0,125.28a34.64,34.64,0,0,0,5.47-2,4.29,4.29,0,0,0,2-2.54c3.8-9.08,7.65-18.13,11.08-27.36,1.55-4.18,3.21-8.33,4.53-12.6,0-.11.09-.22.13-.34.27-1,.13-2.38.86-2.76.92-.49,2.25-.21,3.4-.29.61,0,.9.16,1.09.8,3.61,12,8.32,23.68,12.74,35.43,1,2.61,2.05,5.19,3.26,7.7a3.91,3.91,0,0,0,2.07,2l4.81,2H32.67c.23-.42.74-.41,1.13-.57,1.06-.45,2.18-.79,3.22-1.28,1.47-.7,1.72-1.34,1.17-2.9-1.48-4.25-3.06-8.47-4.45-12.75a2.07,2.07,0,0,0-2.43-1.71c-4.36.1-8.71.06-13.07,0a1.34,1.34,0,0,0-1.52,1.08c-1.56,4.48-3.52,8.81-4.78,13.39-.58,2.12-.4,2.42,1.65,3.21,1.19.46,2.39.88,3.58,1.33.06,0,.08.11.23.32H0Z"/><path class="cls-2" d="M164.16,84.77V112.3c0,3.41.5,4.1,3.7,5.24a7.73,7.73,0,0,1,1.55.66H155.92a4.57,4.57,0,0,1,2-1,3.88,3.88,0,0,0,2.94-4.08c0-2.27.08-4.55.08-6.83,0-9.2,0-18.39,0-27.59,0-1.14.36-1.31,1.4-1.37a3.18,3.18,0,0,1,3.06,1.53c2.35,3.15,5.3,5.76,8,8.58q10.59,11,21.24,22a2.53,2.53,0,0,0,1.12.88v-1.19q0-13.14,0-26.27c0-2.93-.2-3.21-3-4.31a6,6,0,0,1-2.21-1.1h14.14c-1.27.59-2.23,1.07-3.23,1.48a3.25,3.25,0,0,0-2.17,3.1c-.16,2.24-.17,4.47-.17,6.71,0,9.32,0,18.63,0,28,0,.55.33,1.25-.27,1.63a3.62,3.62,0,0,1-3-.57c-2-2.22-4-4.48-6-6.66-8.3-8.76-16.67-17.46-25.27-25.94C164.54,85.06,164.44,85,164.16,84.77Z"/><path class="cls-2" d="M123.57,118.25h-14.1l0-.15c1.1-.41,2.19-.83,3.29-1.22a4.3,4.3,0,0,0,2.66-2.55c4.43-10.55,8.78-21.14,12.6-31.94a30.61,30.61,0,0,0,1.16-4,1,1,0,0,1,1.1-.92c2.88,0,2.81-.06,3.68,2.66,2.4,7.56,5.29,15,8.07,22.39,1.45,3.89,3,7.75,4.61,11.55a4.86,4.86,0,0,0,3,2.86,15.42,15.42,0,0,1,2.8,1.31H137l-.06-.14c1-.39,2-.77,3-1.19,1.77-.74,2-1.23,1.4-3-1.29-3.73-2.63-7.44-3.91-11.17a1.07,1.07,0,0,0-1.22-.83c-3.92,0-7.84,0-11.76,0-.5,0-.92,0-1.13.61-1.37,3.91-3.08,7.71-4.19,11.71-.5,1.79-.32,2.08,1.45,2.76,1,.38,2,.73,3,1.09Z"/><path class="cls-2" d="M281.74,118.24H266.4l0-.17c1-.38,2-.73,2.94-1.14,1.83-.77,2.08-1.28,1.44-3.12-1.28-3.69-2.61-7.37-3.88-11.06a1.13,1.13,0,0,0-1.3-.87c-3.88,0-7.76,0-11.63,0-.47,0-1-.09-1.17.54-1.34,3.92-3.09,7.7-4.18,11.71-.52,1.9-.35,2.16,1.47,2.85a19.67,19.67,0,0,1,3.16,1.26H238.7a4.77,4.77,0,0,1,2-.83,6.45,6.45,0,0,0,4.56-4.23c3.47-8.49,7-16.94,10.18-25.55a69,69,0,0,0,3.09-9.3c.14-.65.43-.86,1.13-.87,2.85,0,2.76-.05,3.64,2.7,2,6.38,4.43,12.64,6.78,18.91,1.86,5,3.71,9.93,5.81,14.8A5.26,5.26,0,0,0,279.2,117c.88.3,1.73.7,2.59,1.05Z"/><path class="cls-2" d="M74.52,76.31v12l-.18,0c-.54-1.64-1-3.3-1.63-4.91-.89-2.42-1.39-2.74-4-2.75-2.24,0-4.48,0-6.72,0-.67,0-.87.18-.87.87,0,10.72,0,21.44,0,32.16,0,1.81.61,2.55,2.37,3.12a22.58,22.58,0,0,1,4.36,1.47H49.68c1.71-.54,3.18-1,4.6-1.47,1.71-.62,2.16-1.33,2.16-3.15,0-10.56,0-21.12,0-31.67,0-1-.14-1.39-1.27-1.33-2.19.11-4.4,0-6.6,0s-2.79.41-3.42,2.56c-.43,1.45-.79,2.93-1.18,4.39-.06.22-.07.48-.65.73,0-3.75,0-7.36,0-11,0-.66.14-.91.79-.56a7.43,7.43,0,0,0,3.73.61c6.16,0,12.32,0,18.48,0C69.07,77.37,71.91,77.83,74.52,76.31Z"/><path class="cls-2" d="M213.83,118.11c1.32-.41,2.64-.78,3.94-1.24,2.09-.74,2.51-1.55,2.45-3.78-.08-3.36,0-6.72,0-10.07,0-7.08,0-14.15,0-21.23,0-1-.27-1.2-1.19-1.17-2.2.07-4.4,0-6.6,0s-2.79.33-3.49,2.61c-.26.84-.42,1.7-.65,2.55a8.68,8.68,0,0,1-1,2.46V76.54c2,1.22,4.29.83,6.5.84,6.36,0,12.71,0,19.07,0a9.61,9.61,0,0,0,4.67-.77c.33-.17.84-.46.83.39,0,3.74,0,7.47-.25,11.24-.58-1.76-1.2-3.51-1.74-5.28a3.13,3.13,0,0,0-3.44-2.34c-2.36,0-4.72,0-7.08,0-.7,0-1,.14-1,.91,0,10.64,0,21.27,0,31.91,0,2,.66,2.83,2.67,3.41a20,20,0,0,1,4.14,1.37H213.86Z"/><path class="cls-2" d="M78.15,77.42h18A9,9,0,0,1,93,78.69c-.68.23-1.38.41-2,.65a2.17,2.17,0,0,0-1.43,1.78,9,9,0,0,0-.1,1.55q0,14.87,0,29.74c0,2.63.49,3.12,3.16,3.13h7.19c2.6,0,3.89-.88,4.83-3.29a25.84,25.84,0,0,1,1.25-3c0,2.81,0,5.62,0,8.42,0,.49-.23.61-.66.59-.6,0-1.2,0-1.8,0H78.27l0-.15c1.27-.4,2.55-.76,3.81-1.21,2.34-.84,2.62-1.25,2.63-3.77q0-8.82,0-17.63,0-6.6,0-13.19c0-2.09-.38-2.64-2.35-3.37-.71-.26-1.43-.49-2.15-.72l-2-.62Z"/><path class="cls-2" d="M24.79,68.36c.22-.18.27-.26.33-.27,2.69-.46,3.82-2.36,4.78-4.71,2.61-6.37,5.29-12.72,7.62-19.2a12.7,12.7,0,0,0,.75-2.39c.15-1,.65-1.19,1.6-1.24,1.12-.06,1.39.4,1.7,1.36C44.15,50,47,58,50.32,65.9a2.61,2.61,0,0,0,1.48,1.47l2.52,1.06H43.7l0-.15,2-.79a1.37,1.37,0,0,0,1-2C45.7,63,44.87,60.5,44,58a.83.83,0,0,0-.92-.7c-2.6,0-5.19,0-7.79-.07-.48,0-.82.07-1,.6-.9,2.51-1.89,5-2.74,7.52-.5,1.47-.35,1.63,1.12,2.18a9.07,9.07,0,0,1,1.79.83h-9.7Z"/><path class="cls-2" d="M112.8,64.71h-7.71c.06-.11.09-.22.13-.23,3-.88,2.48-.8,2.53-3.66,0-1.4,0-2.8.05-4.2,0-.62-.08-.93-.82-.92-3.12,0-6.24,0-9.35,0-.63,0-.82.17-.8.79,0,1.8.07,3.6,0,5.4-.05,1.3.42,2,1.73,2.25a2.09,2.09,0,0,1,1,.51H92c0-.13,0-.23,0-.24,2.55-.73,2.54-.73,2.56-3.36,0-3.88.09-7.75.11-11.63,0-3.09.2-2.64-2.61-3.83h7.89a3.15,3.15,0,0,1-1.76.73,1.45,1.45,0,0,0-1.26,1.51c0,1.88,0,3.76,0,5.64,0,.48.17.61.62.61q4.79,0,9.59.08c.52,0,.69-.16.68-.68q0-2.88,0-5.76a1.2,1.2,0,0,0-.88-1.26,8.83,8.83,0,0,1-1.86-.83h8.07a2.37,2.37,0,0,1-1.58.72,1.62,1.62,0,0,0-1.45,1.85c0,2.56,0,5.12,0,7.68,0,2-.06,3.91-.07,5.87s.06,2,1.82,2.53C112.19,64.34,112.6,64.28,112.8,64.71Z"/><path class="cls-2" d="M114.64,64.67c3-.26,3.07-2.24,3-4.5-.07-3.79.06-7.59.13-11.38,0-1.22-.33-2.1-1.66-2.35a3.57,3.57,0,0,1-1.18-.5c3.78,0,7.57-.44,11.31,0,5.26.62,9.94,5.19,8,12.35-1,3.72-5.4,6.76-9.7,6.73C121.32,65,118.05,64.68,114.64,64.67Z"/><path class="cls-2" d="M156.08,65.28a9.73,9.73,0,0,1-9.92-9.91,9.91,9.91,0,0,1,10-9.77c6.09,0,10.34,4.13,10.34,10C166.51,61.16,162.08,65.28,156.08,65.28Z"/><path class="cls-2" d="M52.6,64.14c.15,0,.3,0,.44-.09,2.16-.61,2.15-.61,2.16-2.85q0-5.81.12-11.62c0-2.93.05-2.93-2.94-4.15.43-.05.67-.1.91-.1,2.48,0,5-.07,7.43,0a5.2,5.2,0,0,1,4.86,6.71A4.6,4.6,0,0,1,62.93,55a22.08,22.08,0,0,1-2.16.82c3.07,3,5.17,6.82,9.1,8.83a4.51,4.51,0,0,1-4.76-1.31c-2.13-2.21-4.19-4.5-6.29-6.74-.3-.32-.53-1-1.11-.67s-.2.8-.21,1.21c0,1.48,0,3,0,4.44,0,1.69.11,1.83,1.76,2.32a2.71,2.71,0,0,1,1,.49H52.59Z"/><path class="cls-2" d="M216.17,46.36c3.8,0,7.59,0,11.39,0,.84,0,1.12.22,1.06,1.06s0,1.88,0,2.88c-1.62-2.47-1.62-2.47-4.76-2.64-2.66-.15-2.66-.15-2.68,2.48,0,1.36,0,2.72-.09,4.07,0,.63.17.85.81.81a17.28,17.28,0,0,1,2.64,0c1.4.14,2.44-.22,2.93-1.69v5.49s-.14,0-.16-.09c-.91-2.33-.91-2.33-3.45-2.33-2.76,0-2.76,0-2.76,2.78,0,1.16,0,2.32,0,3.48,0,1,.39,1.53,1.52,1.48,1.59-.07,3.2,0,4.79,0a1.07,1.07,0,0,0,1.17-.8,4.81,4.81,0,0,1,.88-1.64c-.06,1.14-.06,2.28-.18,3.41-.06.6-.64.32-1,.33-4,0-8.05,0-12.13-.22.54-.18,1.07-.36,1.61-.53a1.49,1.49,0,0,0,1.14-1.61c0-4.88,0-9.75,0-14.63a1.33,1.33,0,0,0-1-1.42l-1.76-.59Z"/><path class="cls-2" d="M201.4,61.44c0,1,0,2,0,2.95,0,.76-.24.91-1,.91-4.08,0-8.15,0-12.24,0,0-.34.23-.3.36-.34,2.52-.81,2.32-.58,2.34-3.21q0-6.17.12-12.35c0-2.12,0-2.21-2.07-2.84-.25-.08-.49-.18-.93-.35,4.16,0,8.09,0,12,0,.52,0,.71.16.7.69A14.08,14.08,0,0,1,200.5,50c-.15-.39-.32-.77-.46-1.16a1.77,1.77,0,0,0-1.71-1.27c-1.36-.05-2.72,0-4.07,0-.74,0-1,.37-1,1,0,1.88,0,3.76,0,5.64,0,.55.24.67.72.67,1.16,0,2.32,0,3.47,0S199,54,199.59,53v5.51c-.07,0-.12,0-.14,0-.52-.67-.32-1.83-1.36-2.12a19.07,19.07,0,0,0-4.53-.18c-.43,0-.36.35-.36.61q0,2.94,0,5.88c0,.88.41,1.29,1.34,1.27,1.64,0,3.28,0,4.91.06a1.2,1.2,0,0,0,1.23-.92A5.77,5.77,0,0,1,201.4,61.44Z"/><path class="cls-2" d="M88.62,50.38a7.66,7.66,0,0,1-.47-1.2c-.41-1.89-1.69-2.58-3.49-2.83-4.49-.63-8.48,1.34-10,5a9,9,0,0,0,2.19,9.89A9.29,9.29,0,0,0,87,62.41a4.28,4.28,0,0,0,1.61-1.72A11.91,11.91,0,0,1,90,58.35c-.35,1.7-.67,3.25-1,4.81a.81.81,0,0,1-.58.68c-3.58,1.24-7.21,1.62-10.73,0s-5.77-4.22-6-8.26c-.25-4.36,1.75-7.46,5.5-9.43,3.54-1.86,7.29-1.77,11.06-.74.44.12.53.37.53.78,0,1.4,0,2.79,0,4.19Z"/><path class="cls-2" d="M184.86,51.09a13.58,13.58,0,0,1-.7-1.76A3,3,0,0,0,181.32,47a11.09,11.09,0,0,0-6,.51,8.46,8.46,0,0,0-4.81,10.19A8.62,8.62,0,0,0,179.68,64c2.68-.3,4.86-1.23,5.83-4a9.84,9.84,0,0,1,.74-1.3c-.37,1.87-.69,3.43-1,5a.81.81,0,0,1-.56.69c-4.31,1.63-10.84,1.86-14.79-3a9.65,9.65,0,0,1,.11-12c4-4.69,10.34-4.69,14.65-3.37.47.14.38.44.38.73,0,1.43,0,2.87,0,4.3Z"/><path class="cls-2" d="M212.93,51.14a13.24,13.24,0,0,1-.66-1.63c-.49-1.85-1.83-2.35-4-2.16a3.51,3.51,0,0,0-3.13,3.14,2.69,2.69,0,0,0,.78,2.28,11.44,11.44,0,0,0,3.3,2.13c1,.51,1.86,1.08,2.77,1.66a4.51,4.51,0,0,1,2.07,4.86,4.6,4.6,0,0,1-3.24,3.8c-2.26.85-4.48.4-6.7-.19-.43-.11-.4-.43-.4-.76q0-2,0-3.94a9.36,9.36,0,0,1,.81,1.94c.66,1.53,2.83,2.36,4.86,1.86a3.24,3.24,0,0,0,2.78-3.49,3.07,3.07,0,0,0-1.67-2.48c-1.57-.95-3.2-1.8-4.76-2.75a4.6,4.6,0,0,1-2.48-3.34c-.47-3.46,1.68-5.91,5.49-6.18a14.54,14.54,0,0,1,3.79.43c.54.1.59.41.58.86,0,1.32,0,2.63,0,3.95Z"/><path class="cls-2" d="M269.23,33.15c-1.94,0-3.88,0-5.82,0-7.67.07-15.35.07-23,.27-6.71.17-13.43,0-20.14.24-5.32.16-10.63.09-15.94.2-.57,0-1.29.29-1.3-.83s.65-.88,1.26-.87c10.19.1,20.38.12,30.57.34,6,.13,11.91.13,17.86.19,5.51.06,11,0,16.53,0Z"/><path class="cls-2" d="M11.86,32.88c1.4,0,2.8,0,4.19,0,8.71-.09,17.42-.12,26.14-.29,7.35-.14,14.71-.1,22.06-.26,4.23-.09,8.47-.09,12.7-.18.57,0,1.07-.09,1.08.81s-.47.91-1.12.91c-4.8,0-9.6,0-14.39-.13-6.47-.21-12.95,0-19.42-.24-6.63-.21-13.27,0-19.9-.25C19.41,33.14,15.62,33.22,11.86,32.88Z"/><path class="cls-2" d="M136.69,45.85h8.12a4.47,4.47,0,0,1-1.88.71,1.51,1.51,0,0,0-1.29,1.61c0,4.79,0,9.59-.07,14.38A1.6,1.6,0,0,0,143,64.31a4.22,4.22,0,0,1,1.45.6h-7.94c0-.06.07-.16.12-.18,3.07-1,2.65-.61,2.68-3.81,0-4.07,0-8.15.09-12.22,0-1.68-.11-1.88-1.7-2.38l-1-.3Z"/><path class="cls-2" d="M240.45,61.48A5.33,5.33,0,0,1,234.92,56a5.47,5.47,0,0,1,5.62-5.47,5.37,5.37,0,0,1,5.7,5.59C246.23,59.24,243.83,61.48,240.45,61.48Z"/><path class="cls-2" d="M253.45,54.8v2.94c-.59-1.9-1.88-1.27-2.91-1.38-.5-.05-.46.3-.46.62,0,.6,0,1.2,0,1.8,0,1.12-.29,2.38,1.42,2.56h-4.06c1.49-.3,1.44-1.4,1.4-2.56-.05-1.92-.06-3.84,0-5.75,0-1.1-.1-2-1.38-2.35,2,0,3.93,0,5.89,0,.42,0,.57.15.55.56s0,.93,0,1.51c-.66-1.06-2.93-1.71-3.66-1.15a13.12,13.12,0,0,0-.09,3.87C250.54,55.85,252.82,55.4,253.45,54.8Z"/><path class="cls-2" d="M173.6,36h-1.4c.57-.76.28-1.57.31-2.35,0-.26-.25-.26-.45-.26a11.53,11.53,0,0,0-1.2,0c-.49,0-1.31-.25-1.41.19a2.43,2.43,0,0,0,.26,2.35,2.31,2.31,0,0,1-1.19.07V30.53h1.24a2.3,2.3,0,0,0-.28,2.27,10,10,0,0,0,2.92,0,2.49,2.49,0,0,0-.21-2.23,2.84,2.84,0,0,1,1.37,0C173.06,31.23,173.05,35.12,173.6,36Z"/><path class="cls-2" d="M91.54,30.52h1.4c-.53.71-.53,4.6,0,5.43H91.59c.55-.73.25-1.54.29-2.31,0-.26-.25-.26-.44-.27a11.81,11.81,0,0,0-1.2,0c-.5,0-1.32-.24-1.42.18a2.47,2.47,0,0,0,.26,2.35,2.32,2.32,0,0,1-1.18.07V30.51a2.83,2.83,0,0,1,1.23,0,2.34,2.34,0,0,0-.27,2.25,9.92,9.92,0,0,0,2.92,0A2.53,2.53,0,0,0,91.54,30.52Z"/><path class="cls-2" d="M141.19,34.53c0-1,0-2.12,0-3.23,0-.79-.07-.79.7-.78-.39,1.49-.1,3-.2,4.51,0,.31.16.74-.13.89s-.57-.31-.81-.53c-1.25-1.15-2.49-2.33-3.76-3.53a16.48,16.48,0,0,0,.05,3.43c.23,1.08-.33.68-.85.71.62-1,.25-2,.35-3,.08-.82-.31-2.2.17-2.33.79-.22,1.21,1,1.86,1.56C139.45,33,140.29,33.73,141.19,34.53Z"/><path class="cls-2" d="M119.72,31.34c0-.29-.26-.7.16-.81s.34.36.46.59a33.06,33.06,0,0,0,2.2,3.75l2.53-4.63c.65,2,.22,4,.92,5.72a2.79,2.79,0,0,1-1.17,0c.56-1.32-.08-2.6-.2-4l-2.2,4-2.18-3.73-.07-.09-.2.23C119.37,32.16,119.73,31.71,119.72,31.34Z"/><path class="cls-2" d="M105,30.47h1.45a1.53,1.53,0,0,1,1.63,1.12,1.27,1.27,0,0,1-.78,1.66c-.51.22-.48.38-.16.72l2,2.16c-1.64-.29-2.11-1.78-3.33-2.51.05.82-.35,1.6.33,2.3A2.63,2.63,0,0,1,105,36,24.47,24.47,0,0,0,105,30.47Z"/><path class="cls-2" d="M114.17,30.47a2.77,2.77,0,1,1-3,2.78A2.88,2.88,0,0,1,114.17,30.47Z"/><path class="cls-2" d="M178.63,36a2.81,2.81,0,0,1-2.88-2.73,2.88,2.88,0,0,1,3-2.8,2.77,2.77,0,1,1-.08,5.53Z"/><path class="cls-2" d="M95.56,30.54c3-.23,3.16-.19,3.28.77a1.51,1.51,0,0,0-1.7-.42c-.88.3-.32,1.14-.41,1.73-.11.79.56.43.91.48s1.28-.48.87.73a1.46,1.46,0,0,0-1.6-.26c-.44.25-.18.87-.19,1.32,0,.71.93,1,1.93.72.12,0,.2-.74.42-.11.11.3,0,.52-.43.52-1,0-2,0-3,0C96.23,35.12,96.18,31.28,95.56,30.54Z"/><path class="cls-2" d="M128.75,36a33.89,33.89,0,0,0,2-4.8c.11-.27,0-.71.52-.67s.29.43.38.66a34.64,34.64,0,0,0,1.91,4.73c-.87.14-.85.13-1.11-.76-.21-.71-.35-1.34-1.45-1.34s-1.31.86-1.31,1.45C129.71,36.16,129.32,36.07,128.75,36Z"/><path class="cls-2" d="M197.69,31.57a2.28,2.28,0,0,0-3.2-.42,2.43,2.43,0,0,0-.69,3.29c.78,1.29,2.24,1.52,4,.6-.14.82-.89,1.14-2.31,1a3,3,0,0,1-2.66-3,3.16,3.16,0,0,1,3.46-2.75C197.06,30.25,198,30.19,197.69,31.57Z"/><path class="cls-2" d="M84.22,35.89a3.17,3.17,0,0,1-1.62,0c.55-.24.44-.64.45-1a29.76,29.76,0,0,1,0-3c.13-1.22-.6-1-1.31-.95-.16,0-.19.66-.39.1-.08-.21-.17-.61.28-.62q1.79,0,3.58,0c.34,0,.31.31.28.54-.06.47-.19.13-.39.07-1.14-.37-1.39-.17-1.39,1,0,.92,0,1.83,0,2.75C83.73,35.19,83.59,35.63,84.22,35.89Z"/><path class="cls-2" d="M152.37,31.37a2.52,2.52,0,0,0-3.42,0,2.48,2.48,0,0,0-.09,3.45c1,1.08,2.4,1.09,3.7,0,0,1-.52,1.24-2.12,1.16a2.89,2.89,0,0,1-2.86-3c.08-1.67,1.7-2.88,3.69-2.73C151.93,30.29,152.73,30.28,152.37,31.37Z"/><path class="cls-2" d="M163.3,35.87c.48-.19.39-.58.39-.92a28.81,28.81,0,0,1,0-3c.13-1.18-.54-1-1.29-1-.13,0-.33.8-.44,0,0-.29,0-.54.41-.53q1.67,0,3.34,0c.43,0,.46.23.42.52-.11.7-.33,0-.48,0-.82-.11-1.46-.13-1.33,1.06a27.45,27.45,0,0,1,0,2.86c0,.36-.12.78.54,1A2.51,2.51,0,0,1,163.3,35.87Z"/><path class="cls-2" d="M156.2,33.54l.92-2.57c.07-.21,0-.52.39-.49s.32.29.4.51c.42,1.19.84,2.39,1.29,3.58a3,3,0,0,0,.75,1.32c-.77.28-1.18.15-1.21-.77-.06-1.54-1.22-1.32-2.23-1.28C156.25,33.9,156.11,33.84,156.2,33.54Z"/><path class="cls-2" d="M189.12,30.54a4.52,4.52,0,0,1,1.77,0c-.83.58-.85,4.71,0,5.33a3.61,3.61,0,0,1-1.59.08C189.85,35.21,189.74,31.22,189.12,30.54Z"/><path class="cls-2" d="M184.2,36a32.51,32.51,0,0,0,0-5.46h1.16c-.58.43-.42,1-.43,1.55s0,1.19,0,1.79c0,2,.4,2.25,2.22,1.48C186.91,36.07,186.91,36.07,184.2,36Z"/><path class="cls-2" d="M119.72,31.34c.13.34-.07.75.24,1.05.18,1.15-.49,2.33.09,3.54-.27.19-.64.09-1,0C119.81,34.48,119.29,32.84,119.72,31.34Z"/><path class="cls-2" d="M156.2,33.54l.3.31c-.08.66-.85,1.15-.42,2,.1.19,0,.26-1.26.13C155.67,35.34,155.63,34.27,156.2,33.54Z"/><path class="cls-3" d="M279.3,72.22c-.22-1.31-.51-2.62-.64-3.94-.22-2.25-.33-4.5-.53-6.75-.06-.7.17-.88.84-1.14A34.48,34.48,0,0,1,283,59a10,10,0,0,1,5.71.64,20.15,20.15,0,0,0,15.1-.28,11.46,11.46,0,0,1,9.47,0,14.36,14.36,0,0,0,11.91.09,15.39,15.39,0,0,1,11.6,0c1.08.41,2.15.84,3.25,1.17a.86.86,0,0,1,.75.89,52.19,52.19,0,0,1-.29,5.36c0,1.22-.37,2.43-.4,3.64,0,.92-.36.86-1,.59a25.27,25.27,0,0,0-5.89-1.87,12.77,12.77,0,0,0-6,.5,29.78,29.78,0,0,1-7.39,1.68,13,13,0,0,1-5.15-.78A16.37,16.37,0,0,0,304,70.54a19.42,19.42,0,0,1-13.64-.4,12.56,12.56,0,0,0-9.95.14c-.72.3-1.13.69-1,1.5A.24.24,0,0,1,279.3,72.22Z"/><path class="cls-4" d="M278.19,59.69c-.17-2.84-.13-5.58,0-8.32,0-.39.14-.6.56-.58s.56,0,.84,0q30,0,60.09,0c1.18,0,1.48.31,1.43,1.45-.11,2.27-.11,4.55-.09,6.83,0,.79-.28.84-.91.64-1.94-.62-3.74-1.6-5.78-1.95a16.07,16.07,0,0,0-9.07.7,14.22,14.22,0,0,1-11.94-.08,11.89,11.89,0,0,0-9.68.07,20,20,0,0,1-10.91,1.33,16.67,16.67,0,0,1-3.45-1,12.11,12.11,0,0,0-10.09.49C278.87,59.4,278.58,59.52,278.19,59.69Z"/><path class="cls-3" d="M288.07,100.78a21.72,21.72,0,0,0,8.46,1.48,20.18,20.18,0,0,0,6.94-1.5,11.83,11.83,0,0,1,9.82-.11,14.54,14.54,0,0,0,12.35-.07,15.4,15.4,0,0,1,6.09-1,44.8,44.8,0,0,1-3.82,6c-1.69,2.31-3.56,4.48-5.46,6.62-.15.17-.38.39-.57.4-2.4.07-4.8.22-7.13-.65a16.28,16.28,0,0,0-10.87-.14,23.73,23.73,0,0,1-6.43,1,.72.72,0,0,1-.6-.28A53.25,53.25,0,0,1,288.07,100.78Z"/><path class="cls-4" d="M319,101a10.37,10.37,0,0,1-4.77-1.06,13.2,13.2,0,0,0-11-.12c-5.21,2.16-10.37,1.74-15.51-.26a1.16,1.16,0,0,1-.63-.66,62.62,62.62,0,0,1-3.05-7c-.27-.74,0-.88.66-.92a11.94,11.94,0,0,1,5,.82,20.84,20.84,0,0,0,14.73.44,15,15,0,0,1,9.88.15A17,17,0,0,0,326.13,92a15.23,15.23,0,0,1,8-.75c1,.17,1.21.49.8,1.45-.75,1.76-1.5,3.52-2.35,5.24a1.17,1.17,0,0,1-1.25.83,15.62,15.62,0,0,0-7,1.3A13.22,13.22,0,0,1,319,101Z"/><path class="cls-4" d="M279.3,72.22l0-.42c2.24-1,4.5-1.87,7-1.63a12.79,12.79,0,0,1,3.36.83,20.75,20.75,0,0,0,14.63.42,14.07,14.07,0,0,1,9.32,0,17.55,17.55,0,0,0,11.73,0,18,18,0,0,1,6.66-1.24,22.29,22.29,0,0,1,7.2,2.11c.39.16.45.34.38.71-.37,2.12-.73,4.25-1.09,6.38-.16,1-.72.35-1,.22a16.94,16.94,0,0,0-11.27-.66,1.36,1.36,0,0,1-.34,0c.53-2,.53-2-1.46-2.77l-.92-.31c-.31.49.13,1-.16,1.55l-.68-1c-.29.13-.25.46-.39.68a.16.16,0,0,1-.26,0c-.45-.75-1,.2-1.5-.19.15-.52.81-.78,1.1-1.44l-5.9-1.75.85,2.92-1.74-1.35c-.5-.38-.46.06-.52.34-.2,0-.33,0-.2-.22s.06-.52-.36-.36c-.62.24-1.25.46-2.1.77l1-2H306.9c.09.77.79,1.28,1,2.17L306,75.17c-.45-.17-.46.09-.42.41s.21.5-.23.49c-.34-1.77-1,.09-1.5-.2l.54-1.76-6.38,1,2.08,2.32c-1.81-.67-3.28-1-4.33.64l.65-2.61c-1.29.5-2.45,1-3.62,1.39-.41.15-.41.36-.25.72a13.08,13.08,0,0,1,.69,1.78c.27.92-.16,1.38-1.08,1.13-1.19-.32-2.38-.67-3.54-1.08a11.13,11.13,0,0,0-7.91.11C280.05,77.08,279.71,74.64,279.3,72.22Z"/><path class="cls-3" d="M338.37,80.38A83.89,83.89,0,0,1,336,90c-.08.27-.09.7-.69.52-3.82-1.17-7.42-.12-11.07,1a15.58,15.58,0,0,1-9.86-.13,15.91,15.91,0,0,0-10.21-.08,20,20,0,0,1-14.2-.47,12.53,12.53,0,0,0-5.25-.88,1,1,0,0,0-1.12.71c-1.16-3.17-1.87-6.29-2.68-9.39-.19-.72.11-.93.67-1.11a10.25,10.25,0,0,1,6.45,0,33.68,33.68,0,0,0,5.15,1.48,1.68,1.68,0,0,1,1.47,1.38,13.17,13.17,0,0,1,.68,3.07,7.14,7.14,0,0,0,.73,2.61,3.37,3.37,0,0,1,.39,1.08,1.28,1.28,0,0,0,1.78,1.1,39.76,39.76,0,0,1,14.5-1.59A24.8,24.8,0,0,1,320.34,91c1.08.42,1.51.15,1.75-1,0-.15,0-.4.11-.45,1.82-.93,1-2.7,1.29-4.1.23-1.14.36-2.67,1.12-3.17,1.06-.7,1.17-2.14,2.2-2.5a12.6,12.6,0,0,1,5.9-.5,15.64,15.64,0,0,1,4.68,1.3C337.77,80.77,338.11,80.79,338.37,80.38Z"/><path class="cls-4" d="M298.41,113.89c2.74.22,5.07-1.24,7.62-1.59a16.38,16.38,0,0,1,8.73.7,13.14,13.14,0,0,0,6,.62c-.15.54-.61.79-.93,1.14s-.7.66-1,1a76.18,76.18,0,0,1-8.21,6.79c-.34.24-.66.58-1.17.26A55.37,55.37,0,0,1,298.41,113.89Z"/><path class="cls-5" d="M314.27,20.08c0,4.87,0,9.75,0,14.62,0,2.4,0,4.79-.13,7.19,0,.86.28,1,1,1,4.68,0,9.36,0,14,0,.65,0,1.46-.07,1.43.82s-.76,1-1.51,1c-5.2,0-10.4-.05-15.59,0-1,0-1.28-.36-1.26-1.33.12-8.91.2-17.83.3-26.74,0-.3-.16-.72.18-.87s.53.26.73.48q9.51,10.3,19,20.62a4,4,0,0,1,.39.46,1.12,1.12,0,0,1,0,1.53c-.59.57-.92-.06-1.25-.41L317.82,23.46,314.59,20Z"/><path class="cls-5" d="M305.91,19.52,289.16,37.89l-.32.36c-.38.4-.79,1-1.36.46s-.35-1.12.16-1.68q6.64-7.32,13.25-14.66c2-2.22,4-4.45,6-6.67.19-.2.31-.65.72-.46s.18.48.18.76c-.05,9.15-.11,18.3-.12,27.45,0,.89-.16,1.22-1.16,1.21-4.91-.07-9.83,0-14.75-.06a5.94,5.94,0,0,1-.6,0c-.66-.07-.86-.54-.85-1.1s.39-.72.91-.71q3.83.09,7.66.15c2,0,4.08,0,6.11.06.76,0,.8-.47.8-1,0-1.84,0-3.68.06-5.51Q306,28.23,306,20A3.16,3.16,0,0,0,305.91,19.52Z"/><path class="cls-5" d="M323.51,30.71c-4.44-.56-7.23,1.36-7.43,4.85A5.43,5.43,0,0,0,321.43,41c3.47,0,5.44-2.54,5.25-6.9a3.89,3.89,0,0,1,1.64,2.38c.3.89.21,2.16,1.58,2.54.64.18.84.91.78,1.61,0,.55-.15,1.08-.74,1.25a1.22,1.22,0,0,1-1.63-.57c-.14-.27-.82,0-.72.37.26.88-.31.66-.75.7a2.94,2.94,0,0,1-1.28-.26,3.62,3.62,0,0,0-2.47-.11,9.25,9.25,0,0,1-3.55.35,5.41,5.41,0,0,1-4.87-5.11,13.3,13.3,0,0,1,.66-5,4.77,4.77,0,0,0-.29-4.16,1,1,0,0,1,.14-1.38c.72-.66.86-1.26-.09-2-.54-.41-.38-1.33-.06-1.85s1-.17,1.27.23c1,1.33,2.25,2.46,2.55,4.17.08.45.21.57.65.61a1.78,1.78,0,0,1,1.79,1.31.69.69,0,0,0,.66.56A3.34,3.34,0,0,1,323.51,30.71Z"/><path class="cls-5" d="M293.73,34.29c0,4.18,2.27,6.73,5.6,6.51a5.32,5.32,0,0,0,5-6.08c-.37-3-3.27-4.88-6.64-4.42,1.66-.17,1.79-2.56,3.68-2.42.26,0,.3-.19.32-.4.19-1.68,1.5-2.73,2.3-4.06.28-.47.91-1,1.35-.42a1.44,1.44,0,0,1-.07,1.86,1.13,1.13,0,0,0-.2,1.92,1.11,1.11,0,0,1,.2,1.48A6,6,0,0,0,305.1,33c.7,2.09.25,4.19.15,6.29a.86.86,0,0,1-.31.62c-1.17.7-1.89,2-3.32,2.37a6.12,6.12,0,0,1-3.76-.21,3.68,3.68,0,0,0-3,.09c-1.11.48-1.16.41-1.53-.71-.05-.16-.43-.73-.75-.26-.64.94-1.32.81-1.95.12a1.85,1.85,0,0,1,.5-2.44c1.15-.57,1.31-1.7,1.64-2.7A3.42,3.42,0,0,1,293.73,34.29Z"/><path class="cls-6" d="M323.63,81.12c1,.62.35,1.33.13,2-.57,1.73-.59,1.76-2.29,1.32a48.34,48.34,0,0,0-24.59.35c-.93.24-1.31.09-1.51-.81-.13-.57-.54-1.13-.51-1.68s1.18-.6,1.73,0c1.49,1.6,2.52,1.72,4,.53.68-.54.66-1.33.83-2,.08-.33,0-.72.55-.64.44.06.93-.56,1.31.21.52,1,1.36,2,2.55,1.87a3.46,3.46,0,0,0,2.59-2.43c.12-.28.14-1,.53-.72.64.43,1.71-.43,2,.74l0,.11c.41,1.19,1.05,2.31,2.4,2.36a3.34,3.34,0,0,0,3-1.9c.17-.29.19-.77.83-.54.47.17.92.19.92.82a.72.72,0,0,0,0,.24c.92,2.71,2,2.92,4,1.55A16.45,16.45,0,0,0,323.63,81.12Z"/><path class="cls-7" d="M290.61,49.78c.33-1,1-1,1.72-1l33.55-.05,3.11,0a1.46,1.46,0,0,1,1,.28.59.59,0,0,1,.28.61c-.07.22-.32.2-.51.21H291.54C291.27,49.82,291,49.8,290.61,49.78Z"/><path class="cls-6" d="M329.34,23.61c0,1.56,1.08,2.3,2.11,3.13s2.46,1.63,2.07,3.09c-.48,1.8.64,2.62,1.51,3.68a10.18,10.18,0,0,1,.75.92.9.9,0,0,1-.25,1.35c-.51.36-.86.15-1.22-.27-.78-.9-1.61-1.77-2.4-2.66-.54-.6-1.26-1.12-.55-2.12.33-.46-.18-.88-.5-1.23s-.68-.12-1,.05c-.52.31-.31.69-.12,1.13s-.16.71-.62.62a1.71,1.71,0,0,1-1-2.35c.15-.26.29-.43.07-.72a1,1,0,0,1,.32-1.61c.33-.22.21-.41.13-.69A2.44,2.44,0,0,1,329.34,23.61Z"/><path class="cls-8" d="M291.24,23.61c.47.76,1.05,1.43.65,2.34a.48.48,0,0,0,.22.7.89.89,0,0,1,.18.15.91.91,0,0,1,.24,1c-.48,1.07.88,2.58-.82,3.35-.25.11-.47.32-.77.14a.43.43,0,0,1-.15-.7.65.65,0,0,0-.18-1c-.24-.14-.52-.42-.85-.1s-.86.73-.58,1.2c.7,1.16-.14,1.72-.76,2.39s-1.47,1.57-2.17,2.39c-.38.45-.76.75-1.3.32a1,1,0,0,1-.12-1.47c.59-.75,1.23-1.46,1.88-2.16a1.25,1.25,0,0,0,.33-1.44c-.57-1.87.72-3,2-3.94C290.13,25.93,291.2,25.16,291.24,23.61Z"/><path class="cls-9" d="M309.92,83.53a44.15,44.15,0,0,1,12,1.49,2.79,2.79,0,0,1,.9.3.77.77,0,0,1,.31,1c-.26.49-.55.09-.78,0-1.28-.73-2.76-.11-4.09-.62a4.4,4.4,0,0,1-1.62-.69.57.57,0,0,0-.62-.21c-1.82.54-3.62.07-5.41-.18a4.9,4.9,0,0,0-2.23,0,9.24,9.24,0,0,1-3.89.45,4.19,4.19,0,0,0-3.44.62,3.94,3.94,0,0,1-2.42.48,3,3,0,0,0-1.73.39c-.59.36-1.13.4-1.34-.29s.46-.81,1-.91c2.06-.45,4.11-1,6.19-1.3A34,34,0,0,1,309.92,83.53Z"/><path class="cls-6" d="M323,34.3a3.46,3.46,0,0,1,2.09,0c.63.23,1.24.54,1.2,1.3A1.25,1.25,0,0,1,325,36.85c-1.77-.2-2.07.69-2.11,2.16a1.41,1.41,0,0,1-1.35,1.45c-.84,0-1.17-.73-1.39-1.44-.53-1.64-.52-1.65-2-2-.8-.21-1.45-.56-1.35-1.52s1-1.36,1.84-1.31c1,.06,1.47-.15,1.32-1.25a2.17,2.17,0,0,1,.33-1.13,1.34,1.34,0,0,1,1.31-.86,1.41,1.41,0,0,1,1.16.92A4.36,4.36,0,0,1,323,34.3Z"/><path class="cls-6" d="M293.13,27.87c0-.32,0-.53-.1-.62-1-1.12-.29-1.87.52-2.63a1.12,1.12,0,0,0,.34-1.43,2.31,2.31,0,0,1,.6-2.64,19,19,0,0,1,1.58-1.46,3.64,3.64,0,0,0,2-2.92c.33,0,.32.31.44.49.47.72,0,1.76.27,2.23.51.75.89,1.24.32,2.07-.11.17.13.34.21.51a1.77,1.77,0,0,1-1,2.31.63.63,0,0,1-.66-.14c-.22-.18-.1-.35,0-.52A.69.69,0,0,0,297.4,22c-.28-.16-.57-.31-.87,0s-.86.78-.5,1.32c.54.81.12,1.29-.4,1.83C294.82,26,294.06,26.85,293.13,27.87Z"/><path class="cls-6" d="M322.56,15.94c0,1.68,1,2.48,2.08,3.29s2.44,1.71,2.09,3.09c-.4,1.58.34,2.35,1.15,3.35.64.8-.62,1.21-.44,2.21l-3-3.28c-.31-.33-.17-.63,0-1A1.23,1.23,0,0,0,324,22a.66.66,0,0,0-.87,0,.69.69,0,0,0-.32,1c.14.26.3.48,0,.71a.68.68,0,0,1-.78-.06,1.56,1.56,0,0,1-.66-2.34.53.53,0,0,0,0-.63c-.1-.16-.25-.44-.18-.53C322,19,321.4,17.26,322.56,15.94Z"/><path class="cls-6" d="M320.39,20.06c-.73-.81-1.47-1.69-2.28-2.51-.48-.48-.7-.89-.32-1.53a1,1,0,0,0-.17-1.21c-.28-.3-.54-.58-1-.31s-.73.56-.42,1,.1.82-.45.82-1.61-1.3-1.39-1.75a2.42,2.42,0,0,0,.12-2,.81.81,0,0,1,.47-.89c.26-.16.35-.27.26-.64-.26-1.07-.15-1.35.72-2.57,0,1.85,1.25,2.6,2.37,3.53s2.55,2.21,1.51,4.14c-.16.3,0,.45.18.61C321,17.72,321.9,18.68,320.39,20.06Z"/><path class="cls-6" d="M300.06,20.13c-1.46-1.43-.44-2.42.54-3.42a.46.46,0,0,0,.12-.55c-1-2,.35-3.12,1.63-4.23a9.82,9.82,0,0,0,1.79-1.57,2.88,2.88,0,0,0,.45-2c.66,1,1.14,1.69.77,2.63,0,0-.05.1,0,.11.92.83.4,2,.71,3s-.4,2.25-1.27,2.27c-.38,0-.74-.12-.51-.64s.3-.83-.19-1.14a.65.65,0,0,0-.87,0c-.42.36-.81.87-.5,1.34.58.88.05,1.34-.47,1.89C301.45,18.59,300.71,19.42,300.06,20.13Z"/><path class="cls-9" d="M302.09,88.13c1.53,1.19,2.69-.79,4.25-.61a15.46,15.46,0,0,0,3.17.37c1.37-.12,2.7-.71,4.11-.29.15,0,.37,0,.47,0,1.07.89,2.33.66,3.57.64s2.33,1,3.59,1.21c.49.08.57.41.51.78s-.41.46-.75.42a2.71,2.71,0,0,1-.57-.15c-7.35-2.53-14.72-2.11-22.1-.11-.54.15-1,.22-1.42-.21-.24-.26-.34-.75.08-.72,1.72.1,3-1.3,4.65-1.3A3,3,0,0,0,302.09,88.13Z"/><path class="cls-10" d="M308.17,14.88c-.48-.38-.95-.55-1.26.12-1-1.31-.19-2.12.69-3,.7-.66,1.38-1.33,2-2,.36-.39.59-.38.93,0,1,1.2,2,2.37,3,3.54a1.58,1.58,0,0,1,.29,1.11,2,2,0,0,0,2.69,1.9c.48-.15.24.35.42.47L318.79,19c1,1.13,2.4,2.12,1.71,4.08l-7.81-8.34c-.07-.17-.27-.19-.37-.32-.79-1.1-1.33-2.35-2.11-3.55A15.71,15.71,0,0,0,308.17,14.88Z"/><path class="cls-11" d="M297.59,36.73a3.5,3.5,0,0,1-2.11,0c-.61-.24-1.06-.58-1.09-1.26s.47-1.11,1.11-1.37a3.2,3.2,0,0,1,2.05,0,4.58,4.58,0,0,1,.24-2.35,1.42,1.42,0,0,1,1.24-1,1.31,1.31,0,0,1,1.27.92,3.28,3.28,0,0,1,.25,2.37,5.11,5.11,0,0,1,2.38.26c.44.23.83.5.85,1.05a1.21,1.21,0,0,1-.85,1.17,3.18,3.18,0,0,1-2.21.18.41.41,0,0,1-.34-.34c0-1.58-.33-2.19-1.34-2.18s-1.35.59-1.29,2.2a.61.61,0,0,1,0,.23Z"/><path class="cls-11" d="M291,47.55l-3.37-2.18c-.79-.52-1.42-.54-2,.4s-1.41,1.94-2,3a1.86,1.86,0,0,1-2.5.9c1.37-2.09,2.69-4.17,4.09-6.18a1.27,1.27,0,0,1,1.82-.25c1.08.67,2.15,1.36,3.25,2C291.16,45.72,290.71,46.55,291,47.55Z"/><path class="cls-11" d="M339.51,49.63c-1.19.33-2,.19-2.56-.85s-1.51-2.15-2.19-3.27c-.51-.84-1-.84-1.74-.29-.91.69-1.87,1.33-2.87,2-.26-1.12-.19-2,.9-2.54a14.49,14.49,0,0,0,2.14-1.52,1.36,1.36,0,0,1,2.18.25C336.77,45.47,338.1,47.53,339.51,49.63Z"/><path class="cls-9" d="M277.24,49.64l4.11-6c.2-.28.51-.18.77-.18.75,0,1.51,0,2.35,0a6.46,6.46,0,0,1-1.09,1.87,21.07,21.07,0,0,0-1.54,2.42C280.95,49.84,279.35,50.14,277.24,49.64Z"/><path class="cls-12" d="M312,22.75c0,.4,0,.8,0,1.19a1.8,1.8,0,0,1-3.44.83,5.16,5.16,0,0,1-.08-4.06,1.82,1.82,0,0,1,3.53.84,11.35,11.35,0,0,0,0,1.19Z"/><path class="cls-12" d="M308.16,39.92c0-.44,0-.88,0-1.32A2.06,2.06,0,0,1,310,36.74a1.86,1.86,0,0,1,1.85,1.71,16.93,16.93,0,0,1-.18,3.45A1.53,1.53,0,0,1,310,43.12a1.93,1.93,0,0,1-1.81-1.64,8.69,8.69,0,0,1,0-1.56Z"/><path class="cls-13" d="M305.58,45.17l.36,0c2.17-.07,2.17-.07,2.27-2.37a2.7,2.7,0,0,0,3.61.12c-.24,1.47,0,2.44,1.77,2.34l-2.16,1.64,1.9,1.29c-.87.05-2,.73-2.19-.83,0-.21-.48-.36-.74-.54-.19-.35.14-.49.3-.67a.64.64,0,0,0-.07-1,.85.85,0,0,0-1.17-.09.72.72,0,0,0-.15,1.12c.16.21.42.37.36.7a1.37,1.37,0,0,0-.8,1.43,12.27,12.27,0,0,1-3,.08c-.16-.46.17-.61.39-.8.89-.78.88-.77-.08-1.54C305.89,45.76,305.49,45.63,305.58,45.17Z"/><path class="cls-11" d="M342,51.81a4.79,4.79,0,0,1,0-.72c.16-1-.16-1.52-1.26-1.31-.52.1-.79-.24-1-.63-1.15-1.77-2.31-3.53-3.47-5.3,1.4-.62,2.23-.41,3,.7l3.56,5.38C343.56,51.12,343.56,51.12,342,51.81Z"/><path class="cls-14" d="M324.14,48.4h-1.32a1.44,1.44,0,0,1-1.61-1.54,1.61,1.61,0,0,1,1.51-1.72,14.54,14.54,0,0,1,3,0,1.54,1.54,0,0,1,1.38,1.79,1.37,1.37,0,0,1-1.53,1.46C325.1,48.39,324.62,48.4,324.14,48.4Z"/><path class="cls-15" d="M296.5,45.12c.48,0,1,0,1.43,0a1.25,1.25,0,0,1,1.44.79,1.61,1.61,0,0,1-.29,1.78c-1.11,1.3-4.16,1-5.18-.33-.57-.75,0-1.17.13-1.72s.66-.56,1.16-.52.88,0,1.31,0Z"/><path class="cls-16" d="M310.14,34.75l-.53-.79c-1.83-2.8-1.82-3,.31-5.65.17-.21.33-.7.65-.16.62,1,1.57,1.92,1.44,3.3A6.43,6.43,0,0,1,310.14,34.75Z"/><path class="cls-17" d="M305.58,45.17l2.19,1.58-1.9,1.41a11.16,11.16,0,0,0,3,.08c0,.06-.1.17-.14.17h-6.85s-.1-.11-.15-.17c.67-.32.14-.63,0-.94l-.26-.52c.2-.92,1-1.23,1.69-1.63Z"/><path class="cls-18" d="M315.58,48.48c-1.37,0-2.17-.88-3.12-1.41-.28-.16-.17-.38.08-.55.48-.34.95-.72,1.44-1.05a3.3,3.3,0,0,1,4.34.84c.13.19.19.39,0,.52C317.44,47.51,316.75,48.56,315.58,48.48Z"/><path class="cls-19" d="M275.86,50.57a5.6,5.6,0,0,1-1-.77c-.22-.26.11-.5.26-.72q2-2.83,4-5.64a1.46,1.46,0,0,1,.8-.68.79.79,0,0,1,.88.18c.23.28.07.54-.08.76q-2.25,3.24-4.51,6.48A3,3,0,0,1,275.86,50.57Z"/><path class="cls-10" d="M339.88,43c.38,0,.55.26.74.52,1.34,1.92,2.67,3.86,4,5.75.36.5.24.71-.19,1s-.7.37-1-.16c-1.31-2-2.66-4.05-4-6.08-.15-.23-.36-.44-.18-.75A.64.64,0,0,1,339.88,43Z"/><path class="cls-20" d="M312.46,14.39l.23.34c-1,1.07-.39,2.43-.67,3.64a6.3,6.3,0,0,0,0,1.31,2.76,2.76,0,0,0-3.82.45V15.64c.37-.66.64-.17.87.1.46.55.66,1.26,1.12,1.86a27.71,27.71,0,0,1,1.57-2.7C311.9,14.65,312.05,14.32,312.46,14.39Z"/><path class="cls-21" d="M321,23.4a8.28,8.28,0,0,0,1,.78,1,1,0,0,0,1.12-.09.82.82,0,0,0,.32-1c-.1-.24-.36-.56.11-.64.31,0,.57.39.48.55-1.17,2.14,1,2.73,1.84,3.87s2.09,2.05,1.48,3.75l-6.5-7.05Z"/><path class="cls-19" d="M309.39,6a3.5,3.5,0,0,1,.43-4.51c.16-.14.27-.24.51-.13,1.42.66,1.95,3.41.88,4.63,0,0-.15,0-.23,0A6.16,6.16,0,0,1,309.39,6Z"/><path class="cls-19" d="M346.46,51.6a1,1,0,0,1,.9.49c.26.47-.23.6-.45.83a18.48,18.48,0,0,1-4,2.92c-.22.13-.73.37-.83.09a2.75,2.75,0,0,1,0-1.4C342.19,54,346,51.58,346.46,51.6Z"/><path class="cls-22" d="M333.39,37.09l-4.94-5.35c1.17,0,2.29.09,1.71-1.49-.06-.17,0-.35.19-.36a.62.62,0,0,1,.39.18.51.51,0,0,1,.13.65c-.9,1.09,0,1.68.61,2.35s1.26,1.44,1.94,2.1S334.31,36.38,333.39,37.09Z"/><path class="cls-23" d="M346.25,62.41c.06-2.47-1.38-3.94-2.45-5.59-.17-.26-.56-.55-.18-.94a.86.86,0,0,1,1-.1C346.93,56.68,347.92,60.11,346.25,62.41Z"/><path class="cls-24" d="M310.3,27l-2,3.11V25.41a2.64,2.64,0,0,0,3.66.19V29.4Z"/><path class="cls-25" d="M308.22,32.51l2,3.12,1.66-2.47V37a2.61,2.61,0,0,0-3.64.08Z"/><path class="cls-26" d="M309.39,6A1.38,1.38,0,0,1,311,6a.72.72,0,0,0,.8.58c.76.44.82.74.25,1.35a2.72,2.72,0,0,0-.81,1.18c0,.31-.17.5-.5.5-.43-.71-.86-.54-1.29,0-.32-.11-.62-.23-.5-.67a.69.69,0,0,0-.57-.8c-.7-.7-.61-1.22.36-2.08.19,0,.12.51.46.28C309.29,6.24,309.63,6.26,309.39,6Z"/><path class="cls-15" d="M309.16,87.52c-.71-.25-2-.1-1.92-1.34s1.2-1.15,2.11-1.22h.12c.94.07,2,0,2.25,1.23C311.86,86.92,310.55,87.6,309.16,87.52Z"/><path class="cls-27" d="M277.08,55.51l-4.23-2.68c-.54-.34-.47-.8-.2-1.24s.74-.51,1.21-.19c.88.6,1.76,1.21,2.67,1.78S277,54.57,277.08,55.51Z"/><path class="cls-28" d="M300.19,22.46c-.71-1.07-.11-1.72.56-2.4s1.28-1.42,1.93-2.12,1.28-1.1.51-2.05a.6.6,0,0,1,.2-.85c.09-.06.26-.12.31-.08.28.24,0,.49,0,.75-.2,1.11.63,1.07,1.5,1.16Z"/><path class="cls-29" d="M291.65,31.88l-4.25,4.74c-.21.23-.39.51-.75.12s-.43-.61-.06-1c1-1.07,2-2.19,3-3.26.42-.44.73-.81.22-1.39a.81.81,0,0,1-.11-.8c.08-.22.21-.47.5-.39s.19.29.16.5C290.19,31.54,290.3,31.67,291.65,31.88Z"/><path class="cls-30" d="M274.36,61.22a2.84,2.84,0,0,1-.4-3.91c.38-.55.82-1.07,1.22-1.61s.76-.41,1.21-.09.18.65,0,1C275.46,58,274.24,59.3,274.36,61.22Z"/><path class="cls-31" d="M347.09,53.48c.65-1,1.25-.6,1.86-.11a4.51,4.51,0,0,1,1.14,1.81c.54,1.18,1.2,2.18,2.7,2.2-.51.88-1.3,1-2.2.23a6.61,6.61,0,0,1-1.76-2.1A3.53,3.53,0,0,0,347.09,53.48Z"/><path class="cls-23" d="M300.56,36.48l.16.21a6.81,6.81,0,0,1-.41,2.56c-.27.51-.61,1-1.24,1s-.94-.51-1.19-1a6.47,6.47,0,0,1-.29-2.47l.09-.08A4.09,4.09,0,0,0,300.56,36.48Z"/><path class="cls-30" d="M303.71,74.66c-.53,1-.3,2.15-1.29,2.57-1.64.69-2.44-.58-3.41-1.79Z"/><path class="cls-32" d="M297.34,29.58l8-8.74c.34,1.16.32,1.11-.69,1.52-1.23.5-1.64,1.79-2.42,2.73a3.21,3.21,0,0,0-.56,1c-.26.82-.58,1.53-1.59,1.64a1,1,0,0,0-.81.65C299,29.32,298.17,29.45,297.34,29.58Z"/><path class="cls-22" d="M297.32,24c.29.27.66.25,1.2.25L293.39,30a1.44,1.44,0,0,1,.24-2c1.12-1.13,2.17-2.32,3.25-3.48C297.08,24.39,296.88,23.9,297.32,24Z"/><path class="cls-30" d="M310.72,9.58c0-.29.33-.34.5-.5.71-.39,1.26-.08,1.84.34a2.44,2.44,0,0,1,.76,3.72Z"/><path class="cls-33" d="M321.66,89c-1.31,0-2.41-.79-2.33-1.56s.79-1.08,1.58-1.06c1.14,0,2.16.75,2.09,1.54C322.93,88.91,322.2,89,321.66,89Z"/><path class="cls-13" d="M308.72,6c-.13.69-.94,1.27-.36,2.08,0,.26,0,.46-.34.5a1.85,1.85,0,0,1-1.8-.72,1.64,1.64,0,0,1-.15-1.8,1.84,1.84,0,0,1,1.65-1C308.43,5,308.59,5.5,308.72,6Z"/><path class="cls-34" d="M345.14,63.11a5.23,5.23,0,0,0-1.74-4,5.17,5.17,0,0,1-1.16-1.93c-.07-.21-.22-.47.1-.62s.64-.22.77.05c.9,1.79,2.66,3.14,2.69,5.36C345.81,62.42,346,63,345.14,63.11Z"/><path class="cls-22" d="M316.66,74.42l4.2,1.25c-.67.65-1,1.76-1.83,1.67C317.32,77.17,316.82,76.4,316.66,74.42Z"/><path class="cls-34" d="M297.23,77.69l.94,4.46c-.84-.54-1.77-.26-2.2-1.21C295.32,79.49,295.55,78.41,297.23,77.69Z"/><path class="cls-33" d="M305.16,86.49c-1.88,1.88-1.9,1.88-4.12.53C302.92,84.61,302.31,84.8,305.16,86.49Z"/><path class="cls-10" d="M290.36,49.57c-2.43.75-3.73-.8-5.24-1.73-.42-.26.05-.54.18-.78s.29-.62.72-.34Z"/><path class="cls-29" d="M268,56.92a2.3,2.3,0,0,0,2.32-1.59c.28-.57.52-1.16.85-1.71.44-.74,1-1,1.69-.2-.89,1-1.22,2.38-2.25,3.31a4.37,4.37,0,0,1-1.39.88C268.52,57.85,268.19,57.71,268,56.92Z"/><path class="cls-20" d="M298.2,77.47c1,.12,2.05,0,2.33.66a2.93,2.93,0,0,1-1,3.62Z"/><path class="cls-35" d="M351.74,58.78a3.14,3.14,0,0,1-3-.78,4.46,4.46,0,0,1-1.13-1.67,4,4,0,0,0-1.13-1.66c-.17-.14-.57-.23-.22-.6s.49-.28.81-.07a3.16,3.16,0,0,1,1.09,1.23A6.32,6.32,0,0,0,351.74,58.78Z"/><path class="cls-36" d="M312.46,14.39l-2.34,3.7c-.45-.78-.87-1.52-1.31-2.25-.14-.24-.25-.69-.63-.2-.12-.25.23-.51,0-.76a1.17,1.17,0,0,1,.09-1.31c.67-1,1.27-2.11,2-3.28A36.41,36.41,0,0,1,312.46,14.39Z"/><path class="cls-10" d="M330.67,49.58c1.38-1,2.6-1.88,3.8-2.78.39-.29.6-.11.73.21s.73.62.2,1C334.07,49,332.87,50.33,330.67,49.58Z"/><path class="cls-37" d="M297.44,89c-.52-.06-1.21-.1-1.25-1s1.08-1.43,2.19-1.4c.63,0,1.23.14,1.33.89S298.63,89,297.44,89Z"/><path class="cls-35" d="M289.92,41.12c-1.28-1.92-1.29-1.92,0-3.38.71-.81,1.45-1.59,2.18-2.39a2,2,0,0,1,.29-.22,4.49,4.49,0,0,1-1.8,3.53A2.76,2.76,0,0,0,289.92,41.12Z"/><path class="cls-38" d="M312,7.9c.34-.53.08-.95-.26-1.35.1-.67,0-1.54,1.12-1.34a1.63,1.63,0,0,1,1.28,2.05,1.73,1.73,0,0,1-1.85,1.3C311.92,8.46,312,8.16,312,7.9Z"/><path class="cls-39" d="M350.87,59.38a4.53,4.53,0,0,1-2.45.33.71.71,0,0,1-.73-.52c-.28-1.27-1.22-2.1-1.94-3.08a1.22,1.22,0,0,1-.34-.74c0-.24,0-.51.23-.63s.34.13.49.24a4,4,0,0,1,1.13,1.65A4.2,4.2,0,0,0,350.87,59.38Z"/><path class="cls-33" d="M318.07,86.94a5.61,5.61,0,0,1-1.85,1c-.36.16-2.15-1-2.2-1.46a.44.44,0,0,1,.12-.29A2.26,2.26,0,0,1,317,86Z"/><path class="cls-21" d="M308.93,8.91c.14.24.56.27.5.67l-2.77,2.81c-.51-.8-1.19-1.43-.25-2.43A3.92,3.92,0,0,1,308.93,8.91Z"/><path class="cls-21" d="M305.61,79.91c-.8-.41-1.91.08-2.29-1.18-.45-1.5.41-2,1.45-2.7Z"/><path class="cls-29" d="M334.48,46c0,.25-.16.34-.32.46-1,.73-2,1.42-3,2.18a.62.62,0,0,1-1-.08c-.42-.46-.09-.69.25-.94,1-.69,2-1.36,2.9-2.08C334,45,334.23,45.54,334.48,46Z"/><path class="cls-13" d="M311.9,74.24c-.49.67-.47,1.69-1.32,1.76-2,.15-2,.08-2.86-1.76Z"/><path class="cls-28" d="M268.89,58.12c1.79-.45,2.66-1.76,3.42-3.18a2.45,2.45,0,0,1,.73-1.06.6.6,0,0,1,.76.1c.32.25,0,.4-.12.55a6,6,0,0,0-.84,1.56,4.27,4.27,0,0,1-3.27,2.45C269.28,58.6,269.13,58.44,268.89,58.12Z"/><path class="cls-25" d="M320,81.53c-.51-.77-1.45-1.24-1.18-1.88.43-1,.39-2.75,2.44-2.1A40.49,40.49,0,0,1,320,81.53Z"/><path class="cls-40" d="M316.88,36.95l.43.22c2,.85,2,.85,2.81,3.05A3.79,3.79,0,0,1,316.88,36.95Z"/><path class="cls-41" d="M290.87,48.3c-.13.43-.28.83-.81.5-1.24-.78-2.47-1.59-3.7-2.39-.22-.14-.37-.32-.2-.58s.35-.54.65-.35c1.31.82,2.6,1.67,3.89,2.53C290.79,48.06,290.82,48.2,290.87,48.3Z"/><path class="cls-6" d="M322.71,77.45c2.15,2.27,1,3.93-1.29,4Z"/><path class="cls-29" d="M312.9,79.53c-1.86-.35-1.43-1.87-1.43-2.86,0-.77,1.28-.54,2-1.12A32,32,0,0,1,312.9,79.53Z"/><path class="cls-20" d="M306.12,75.8c.85.34,2,.26,2.11,1,.13,1,.15,2.35-1.43,2.74Z"/><path class="cls-42" d="M314.81,75.81c.64.61,1.68.8,1.59,1.57-.13,1.12-.52,2.33-2.22,2.21Z"/><path class="cls-43" d="M270.26,59a5.56,5.56,0,0,0,3.3-3.57,2.72,2.72,0,0,1,.48-.68c.19-.22.41-.4.72-.19s.27.53.06.82a8.78,8.78,0,0,0-2,3.22c-.08.36-.47.39-.79.39Z"/><path class="cls-44" d="M303.81,36.61a4.84,4.84,0,0,1-3.28,3.49,9.73,9.73,0,0,0,.55-2.44.4.4,0,0,1,.47-.41A4.58,4.58,0,0,0,303.81,36.61Z"/><path class="cls-45" d="M294.47,36.85c.14,0,.19,0,.21,0,.69.62,1.92,0,2.33.76s.32,1.6.74,2.33A3.77,3.77,0,0,1,294.47,36.85Z"/><path class="cls-43" d="M277,56.49c.66,2.3-2.2,3.5-1.32,5.72-.78,0-.86-.47-.87-1C274.78,59.29,275.92,58,277,56.49Z"/><path class="cls-46" d="M295.65,76.41c-.21.79-.44,1.53-.61,2.29a.79.79,0,0,1-.81.68c-.5.06-.58-.24-.73-.58C292.77,77.18,293.08,76.82,295.65,76.41Z"/><path class="cls-37" d="M309.85,76.33a1.25,1.25,0,1,1,0,2.49,1.14,1.14,0,0,1-1.18-1.22C308.63,76.73,309.12,76.41,309.85,76.33Z"/><path class="cls-47" d="M342.13,53.61a1.16,1.16,0,0,1,.54-1.5c.7-.45,1.37-.95,2-1.43a1.1,1.1,0,0,1,1-.24.61.61,0,0,1,.5.45c0,.26-.26.23-.4.33-1.13.79-2.28,1.57-3.43,2.34C342.31,53.6,342.21,53.59,342.13,53.61Z"/><path class="cls-48" d="M322.94,40.3a4.21,4.21,0,0,0,.16-.47c.28-1.62.84-2.95,2.85-2.65C325.91,38.41,324.92,39.52,322.94,40.3Z"/><path class="cls-49" d="M341.93,58.06c2.85,3.39,2.86,3.42,2.51,5.33A11.45,11.45,0,0,0,342.23,60C341.77,59.5,342.1,58.87,341.93,58.06Z"/><path class="cls-50" d="M308,79.41a3.13,3.13,0,0,1-1.65,2.16,1.39,1.39,0,0,1-.65.25A2.5,2.5,0,0,1,304,80.68c-.11-.13-.19-.34,0-.41.58-.29,1.06.15,1.58.29l.56.18c.15-.42-.33-.8,0-1.17C306.75,80.31,306.75,80.31,308,79.41Z"/><path class="cls-51" d="M300.78,31a4.72,4.72,0,0,1,2.88,2.89C301.73,33.91,300.55,33.19,300.78,31Z"/><path class="cls-52" d="M297.58,30.94a3.29,3.29,0,0,0-.12.42c-.12,1.82-1.23,2.51-3,2.47A4.79,4.79,0,0,1,297.58,30.94Z"/><path class="cls-53" d="M315.3,81c-1.94,1.44-3.25,1-3.87-1.37Z"/><path class="cls-45" d="M316.89,34a4.67,4.67,0,0,1,2.91-2.8C320,33.31,318.69,33.94,316.89,34Z"/><path class="cls-54" d="M317.69,77.29c.77,0,1.21.41,1.21,1.1a1,1,0,0,1-1.17,1.06c-.73,0-1.14-.37-1.14-1.08A1,1,0,0,1,317.69,77.29Z"/><path class="cls-51" d="M323.29,31.35a4.69,4.69,0,0,1,2.7,2.58C323.66,33.83,323.66,33.83,323.29,31.35Z"/><path class="cls-55" d="M331.31,40.67c-.08-2-2.61-2.5-2.6-4.73,1.09,1.17,2,2.17,3,3.19C332.29,39.81,331.45,40.15,331.31,40.67Z"/><path class="cls-51" d="M324,77.4c.18-.27-.27-.94.39-.75s1.51.09,1.42.86c-.07.59-.11,1.76-1.15,1.62S324.28,78,324,77.4Z"/><path class="cls-39" d="M277.11,52.34c0,.41-.14.62-.57.32-.88-.6-1.78-1.19-2.67-1.77-.17-.11-.37-.23-.24-.45a.79.79,0,0,1,.47-.29,8.48,8.48,0,0,1,3,2A1,1,0,0,1,277.11,52.34Z"/><path class="cls-56" d="M309.65,46.81c-.64-.44-1.31-.94-.75-1.8a1.24,1.24,0,0,1,1.68-.41c1,.46.91,1.32-.2,2.18Z"/><path class="cls-57" d="M295.64,80.73c-.14.64-.49,1.06-1.13,1a.94.94,0,0,1-1-1,1,1,0,0,1,1-1.07C295.2,79.7,295.48,80.18,295.64,80.73Z"/><path class="cls-58" d="M301.92,77.62c.53.11,1,.3,1,1s-.25,1-.87,1.06a.89.89,0,0,1-1-.94C301,78.11,301.34,77.77,301.92,77.62Z"/><path class="cls-59" d="M311.85,85.22l1.27.13,1.28.18c-1,.35-1.62.74-.5,1.53H312A1.94,1.94,0,0,0,311.85,85.22Z"/><path class="cls-60" d="M324.91,79.57a.9.9,0,0,1,.77,1,.77.77,0,0,1-.82.83.82.82,0,0,1-.8-.88A.93.93,0,0,1,324.91,79.57Z"/><path class="cls-61" d="M306.93,87.05l-1.79.2c1-.76.52-1.18-.2-1.73l1.91-.14A2.08,2.08,0,0,0,306.93,87.05Z"/><path class="cls-62" d="M276.34,62.66a3,3,0,0,1,.66-3.58C277.71,60.47,276.08,61.41,276.34,62.66Z"/><path class="cls-63" d="M321.16,27.73c-2.05.17-2-1.51-2.5-2.69Z"/><path class="cls-64" d="M291.29,45.09c.36,1.29.36,1.29,1.47,1.56-.66.38-1.31.76-1.37,1.66-.08-.93-.16-1.86-.22-2.8A1.36,1.36,0,0,1,291.29,45.09Z"/><path class="cls-65" d="M314.15,75.35l.2.22a12.81,12.81,0,0,1-.74,3.64A10.5,10.5,0,0,1,314.15,75.35Z"/><path class="cls-66" d="M321.36,82.39a3.38,3.38,0,0,1-.61.35c-.41.11-.85.32-1.18-.17-.19-.27-.73-.47-.48-.83s.58-.05.77.22.3.21.44,0,.21-.54.46-.44S320.47,82.4,321.36,82.39Z"/><path class="cls-67" d="M299.52,82.8c-.83.67-1,.64-2.11-.38.48-.07,1.14.42,1.21-.52,0-.5.38-.18.55,0s0,.65.35.86Z"/><path class="cls-68" d="M314.76,32.12V29A3.73,3.73,0,0,1,314.76,32.12Z"/><path class="cls-69" d="M322.06,77h.26A11.75,11.75,0,0,1,321,80.49,11.14,11.14,0,0,1,322.06,77Z"/><path class="cls-70" d="M303.13,45.16l-1.69,1.63h-1.37c.89-.2,1.64-.41,1.9-1.48C302.08,44.86,302.73,45.16,303.13,45.16Z"/><path class="cls-71" d="M317.7,87.68c1.41-.32,1-.86.32-1.41.49-.17,1-.19,1.1.17a2.38,2.38,0,0,1-.27,1.53C318.66,88.28,318.21,87.93,317.7,87.68Z"/><path class="cls-72" d="M297.32,24l-.44.44c.07-.52-.4-.85-.47-1.32a.65.65,0,0,1,.3-.72.51.51,0,0,1,.43,0c.28.19.06.43,0,.63A1.15,1.15,0,0,0,297.32,24Z"/><path class="cls-73" d="M286.35,49.7h-2.13C284.68,48.47,284.68,48.47,286.35,49.7Z"/><path class="cls-74" d="M316.06,41.56c0,.48-.12.69-.53.67s-.62-.15-.63-.54a.56.56,0,0,1,.56-.62A.53.53,0,0,1,316.06,41.56Z"/><path class="cls-75" d="M305.28,41.67c-.08.41-.31.59-.69.55s-.63-.28-.59-.62a.65.65,0,0,1,.7-.53A.57.57,0,0,1,305.28,41.67Z"/><path class="cls-76" d="M328.26,47.07a.61.61,0,0,1,.54.66c0,.35-.14.51-.49.51s-.67-.11-.64-.52A.66.66,0,0,1,328.26,47.07Z"/><path class="cls-77" d="M305.51,29.13v3.19A3.32,3.32,0,0,1,305.51,29.13Z"/><path class="cls-78" d="M328.23,45.13a.53.53,0,0,1,.55.62.52.52,0,0,1-.51.54.56.56,0,0,1-.63-.56A.57.57,0,0,1,328.23,45.13Z"/><path class="cls-79" d="M305.31,76.06l.23-.49a6.63,6.63,0,0,1,.41,2.89A5.3,5.3,0,0,1,305.31,76.06Z"/><path class="cls-80" d="M320.39,47.9a.59.59,0,0,1-1.17,0,.47.47,0,0,1,.5-.53A.64.64,0,0,1,320.39,47.9Z"/><path class="cls-81" d="M317,17.06l-.42-.47a1.11,1.11,0,0,0,.17-1c-.08-.21-.29-.44,0-.62a.49.49,0,0,1,.42.07.63.63,0,0,1,.29.72C317.34,16.19,316.9,16.53,317,17.06Z"/><path class="cls-73" d="M336.45,49.68h-1.78C335.92,48.43,335.93,48.43,336.45,49.68Z"/><path class="cls-82" d="M293.47,47.94a.52.52,0,0,1-.54.49.51.51,0,0,1-.58-.45c0-.28.11-.44.38-.46S293.36,47.55,293.47,47.94Z"/><path class="cls-83" d="M293.26,45.48a.55.55,0,0,1-.48.57.51.51,0,0,1-.62-.39c-.07-.33.18-.49.48-.52S293.2,45.11,293.26,45.48Z"/><path class="cls-84" d="M299.52,82.8c.41-.5.58-1.21,1.35-1.63,0,1-.42,1.55-1.34,1.64Z"/><path class="cls-85" d="M317.15,48.34l1.27-1.05C318.5,48.44,318.5,48.44,317.15,48.34Z"/><path class="cls-86" d="M298.4,80.66c-.52-.71-.32-1.6-.41-2.43l.72,2.32Z"/><path class="cls-87" d="M320.49,45.75c-.09.27-.24.51-.55.52a.46.46,0,0,1-.46-.44c0-.37.21-.46.52-.46S320.45,45.45,320.49,45.75Z"/><path class="cls-88" d="M315,21.17a2.68,2.68,0,0,1,.93,1C314.86,22.26,314.86,22.26,315,21.17Z"/><path class="cls-89" d="M301.3,87.74c-.43.11-.77.52-1.2.17a.6.6,0,0,1,0-.52C300.56,87.21,300.9,87.48,301.3,87.74Z"/><path class="cls-90" d="M300.55,45.12c.26,0,.62-.06.6.37s-.27.35-.53.35-.5-.09-.55-.36S300.33,45.15,300.55,45.12Z"/><path class="cls-91" d="M292.67,42.17a2.27,2.27,0,0,1-2.25,0A5.5,5.5,0,0,0,292.67,42.17Z"/><path class="cls-92" d="M318.84,45.18c-.24.94-.24.94-1.27,0Z"/><path class="cls-9" d="M277.14,51.33c-.73-.61-.73-.61,0-1.33Z"/><path class="cls-93" d="M322.55,29.42c-.75,0-.94-.58-1.12-1.09Z"/><path class="cls-94" d="M301.11,47.92c-.16.3-.25.56-.56.44a.46.46,0,0,1-.29-.58c.06-.24.2-.48.48-.33S301,47.79,301.11,47.92Z"/><path class="cls-95" d="M310.54,47.87c0,.31-.21.38-.46.37s-.4,0-.43-.27.12-.42.39-.43S310.5,47.56,310.54,47.87Z"/><path class="cls-96" d="M301.7,47.31l1.18.78a1.4,1.4,0,0,1-1.17.16Q301.71,47.78,301.7,47.31Z"/><path class="cls-4" d="M315,8.22c-.12.29-.22.58-.35.86a3.47,3.47,0,0,1-.33.47c-.08-.08-.18-.15-.25-.24-.23-.26,0-.39.15-.55s.43-.44.64-.66Z"/><path class="cls-97" d="M296,31l1.08-1.15C297.15,30.81,296.56,30.9,296,31Z"/><path class="cls-98" d="M25.1,85.93l6.47,16.79c-4.23,0-8.29,0-12.35,0-.88,0-.49-.46-.35-.83q2.22-5.73,4.45-11.46C23.87,89,24.44,87.58,25.1,85.93Z"/><path class="cls-98" d="M135.82,98.88h-11l5.53-14.22Z"/><path class="cls-98" d="M259.71,84.65l5.47,14.21h-11Z"/><path class="cls-98" d="M39.22,45.57c1.18,3.1,2.29,6,3.42,9,.18.48.15.72-.47.72-2.2,0-4.39,0-6.78,0Z"/><path class="cls-98" d="M120,55.27c0-2.2,0-4.4,0-6.6,0-.95.33-1.4,1.31-1.42a16.63,16.63,0,0,1,5.35.29c5.88,1.78,7.86,9.75,3.37,13.82-2.64,2.4-5.89,2.6-9.24,2-.74-.13-.82-.75-.82-1.39,0-2.24,0-4.48,0-6.72Z"/><path class="cls-98" d="M156.53,63.87a8.51,8.51,0,0,1-8.17-9,7.82,7.82,0,0,1,7.71-7.83c4.79.07,8.33,4,8.21,9.16A7.73,7.73,0,0,1,156.53,63.87Z"/><path class="cls-98" d="M57.57,50.76q0-1.55,0-3.1c0-.53.17-1,.75-1.05,2.23-.33,4.29.37,5.09,2.7A3.79,3.79,0,0,1,61,54.22l-.34.12c-2.64.91-3.12.58-3.12-2.14V50.76Z"/><path class="cls-98" d="M236.16,55.87a4.34,4.34,0,0,1,4.28-4.51A4.78,4.78,0,0,1,245,56.25a4.38,4.38,0,0,1-4.23,4.45A4.75,4.75,0,0,1,236.16,55.87Z"/><path class="cls-98" d="M105.79,32.06c.2-.45-.37-1.27.66-1.21a1.08,1.08,0,0,1,1.1,1.15,1.09,1.09,0,0,1-1.15,1.22C105.34,33.28,106.07,32.4,105.79,32.06Z"/><path class="cls-98" d="M116.41,33.42a2.27,2.27,0,0,1-2.2,2.21,2.49,2.49,0,0,1-2.38-2.49A2.12,2.12,0,0,1,114.1,31,2.3,2.3,0,0,1,116.41,33.42Z"/><path class="cls-98" d="M181,33.35a2.27,2.27,0,0,1-2.25,2.28,2.5,2.5,0,0,1-2.34-2.42,2.12,2.12,0,0,1,2.2-2.26A2.3,2.3,0,0,1,181,33.35Z"/><path class="cls-98" d="M131.14,31.77c.11.59.86,1.06.4,1.68a1.16,1.16,0,0,1-1,0C130.33,32.81,130.8,32.31,131.14,31.77Z"/><path class="cls-98" d="M157.31,31.77c.34.52.81,1,.58,1.66a1.13,1.13,0,0,1-1,0C156.42,32.84,157.22,32.38,157.31,31.77Z"/><path class="cls-36" d="M314.08,62.37a1.41,1.41,0,0,0,.31,1.07,1.92,1.92,0,0,1,.13,2.52,1.94,1.94,0,0,0-.36,1.1c0,.51-.16.88-.73.86a1,1,0,0,0-.87.51c-.35.45-.72.87-1.4.5a.66.66,0,0,0-.79.1c-.48.65-1,.77-1.58.2-.14-.12-.3,0-.42.09-.59.52-1.08.33-1.54-.2-.07-.08-.21-.19-.3-.18-1.83.24-1.7-1.43-2.18-2.37a3.09,3.09,0,0,1,.19-3.43,1.69,1.69,0,0,0,.31-1.44c-.23-1.14.26-1.57,1.42-1.32.38.08.49-.12.67-.33.61-.69,1.24-1.14,2.11-.34.18.17.47.37.76.14,1.06-.82,1.84-.13,2.64.47a6.38,6.38,0,0,0,.95.7C314,61.31,314.33,61.64,314.08,62.37Z"/><path class="cls-99" d="M321.54,37.44a1.84,1.84,0,0,1-1.82-1.7,1.74,1.74,0,0,1,1.79-1.69,1.62,1.62,0,0,1,1.79,1.64A1.78,1.78,0,0,1,321.54,37.44Z"/><path class="cls-99" d="M300.56,36.48c-1.11,1-1.62,1-2.88.17-.7-1.69.06-3,1.64-2.8C300.52,34,301,35,300.56,36.48Z"/><path class="cls-100" d="M310.71,21a3.92,3.92,0,0,1,.27,2.8.72.72,0,0,1-.73.52c-.57,0-.93-.34-1.22-1C311.56,24,310.2,22,310.71,21Z"/><path class="cls-101" d="M310.5,38.17A3.34,3.34,0,0,1,311,40.4c0,.55-.2,1.11-.78,1.2s-1.12-.24-1.34-1C311.63,41.34,310,39.22,310.5,38.17Z"/><path class="cls-102" d="M322.54,47.39c.62-.58,1.06-.07,1.51-.13s.81,0,.87-.58c0-.27-.43-.63.07-.81.32-.11.47.24.62.46a.8.8,0,0,1,0,1.08c-.34.4-.78.33-1.21.36A4,4,0,0,1,322.54,47.39Z"/><path class="cls-103" d="M297.16,45.47c.73.22,1,.64.93,1.27s-.65.54-1.12.64a3.36,3.36,0,0,1-2-.27c.2-.46.54-.33.81-.29C297.33,47,297.33,47,297.16,45.47Z"/><path class="cls-104" d="M310.31,31.45c.05-.39-.15-1,.33-1s.63.58.62,1-.15,1-.61,1S310.39,31.8,310.31,31.45Z"/><path class="cls-103" d="M306.15,46.71l-1.38,1.1c-.06-.64.41-1.11,0-1.67A2.5,2.5,0,0,1,306.15,46.71Z"/><path class="cls-105" d="M315.58,46.13a1.54,1.54,0,0,1,1.11.47,2,2,0,0,1-.91.65C315.41,46.87,316.08,46.51,315.58,46.13Z"/><path class="cls-106" d="M309.2,8.22c1,0,1.49-.24,1.54-1.06C311,8.32,310.68,8.59,309.2,8.22Z"/><path class="cls-107" d="M310.21,11.35c2,2.62,2,3.14,0,5.76C308.18,14.83,308.17,13.86,310.21,11.35Z"/><path class="cls-108" d="M310,45.14c.26,0,.48.16.46.44a.48.48,0,0,1-.58.46c-.26,0-.48-.18-.47-.44S309.71,45.14,310,45.14Z"/><path class="cls-109" d="M308.88,67.43a1.07,1.07,0,0,1,0-.77c0-.21.09-.53-.24-.5s-.19.37-.24.57c-.78.63-1.25-.1-1.82-.41-.24-.13-.7,0-.68-.47.5-.3,1.52.33,1.54-.47,0-.46-.9.2-1.4.07-.07,0-.12-.09-.18-.13-.17-.52.11-.84.49-1.12s.35-.61.41-1,.37-.74.89-.49c.05.36.11.81.6.6s-.3-.4-.07-.65c.17-.75.3-1.43,1.35-.72.43.29,1.39-.42,1.48.72-.48.84-.91,1.76-2.17,1.25a.36.36,0,0,0-.48.22.49.49,0,0,0,.13.54c.93,1.05,1.26,1,1.86-.25a1.79,1.79,0,0,1,.92-1c.79.78.85,1.36.25,2.54-.51.17-.64-.79-1.24-.4.25.58,1.39.82.71,1.76C310.29,68.11,309.59,67.93,308.88,67.43Z"/><path class="cls-110" d="M311.49,66a3.46,3.46,0,0,0-.25-2.54c.29-.89.42-1.92,1.68-2,.46,0,.83.07.76.63a2.36,2.36,0,0,0,.58,1.85,1.63,1.63,0,0,1-.11,1.89,1.88,1.88,0,0,0-.44,1.08c.07,1.21-1.06.26-1.45.79-.11.14-.68-.24-.69-.75C311.58,66.62,311.52,66.31,311.49,66Z"/><path class="cls-111" d="M307.62,62.74c-.3.12-.71.15-.65.64-.17.32-.69.45-.51,1-.4.2-.47.62-.64,1-.5-.19-.88.26-1.44.28a3.16,3.16,0,0,1,.69-2.55c.44-.44.13-1,.13-1.59s.14-1.23,1-.53c.12.1.28.23.41.22C308.06,60.94,307.77,61.88,307.62,62.74Z"/><path class="cls-112" d="M311,62.69c-.29-.16-.31-1.16-.93-.28-.3.43-.45-.07-.63-.15-.87-.4-.86-.42-1.27.44-.13-.75.6-1.84-.87-2.06-.22,0-.06-.34.07-.47.28-.28.68-.69,1-.39a1.6,1.6,0,0,0,2.25.09.59.59,0,0,1,.85.41.9.9,0,0,0,.94.72C311.49,61.26,311.25,62,311,62.69Z"/><path class="cls-113" d="M305.87,65.85c.22.24.52.08.78.16,0,.54.29.78.72,1s.83,0,1,.49a4.44,4.44,0,0,1-.08,1.18c-.18.53-.48,1-1.06.29,0-.06-.08-.18-.14-.19-.92-.21-1.86-.36-1.9-1.65,0-.21-.75-.25-.51-.75A.87.87,0,0,1,305.87,65.85Z"/><path class="cls-114" d="M308.88,67.43a4.76,4.76,0,0,0,2.07-.07l1.18.94c-.29.49-.74.33-1.15.26s-.5-.19-.8,0c-1.15.65-1.18.63-1.31-.75A2.92,2.92,0,0,1,308.88,67.43Z"/><path class="cls-115" d="M308.37,67.47c-.44-.31-1,0-1.48-.35s-.65-.63-.24-1.11c.54.32.91,1,1.72.72Q308.37,67.1,308.37,67.47Z"/><path class="cls-100" d="M310.38,13.64c.77.45.68,1,.12,1.58C310.12,14.69,310.47,14.14,310.38,13.64Z"/><path class="cls-116" d="M306.47,64.34c-.21-.08-.62-.22-.52-.33a4.29,4.29,0,0,1,1-.63C307,63.8,307.13,64.28,306.47,64.34Z"/></svg>