<svg id="Layer_1" data-name="Layer 1" xmlns="http://www.w3.org/2000/svg" viewBox="0 0 282.78 71.08"><defs><style>.cls-1,.cls-2{fill:#fff;}.cls-2{font-size:39.27px;font-family:MinionPro-Regular, Minion Pro;letter-spacing:-0.08em;}.cls-3{letter-spacing:-0.09em;}.cls-4{letter-spacing:-0.09em;}</style></defs><title>ctk-school-logo</title><path class="cls-1" d="M94,44a5.92,5.92,0,0,0,2.56-5,5.48,5.48,0,0,0-1.12-3.53,3.45,3.45,0,0,0-2.8-1.41,3.86,3.86,0,0,0-2.47.93,7.09,7.09,0,0,0-1.93,2.64q-1.32,2.84-1.65,11.81,0,.8,0,1.19a35.6,35.6,0,0,1-1.32,9.43,14.67,14.67,0,0,1-3.52,6A16.12,16.12,0,0,1,76,69.71a19.54,19.54,0,0,1-7.17,1.37,14.4,14.4,0,0,1-8.88-2.62,8,8,0,0,1-3.5-6.66,6.47,6.47,0,0,1,1.25-4.12,3.94,3.94,0,0,1,3.24-1.59,2.9,2.9,0,0,1,2.17.88,3.1,3.1,0,0,1,.85,2.25,3.43,3.43,0,0,1-.71,2.29,2.6,2.6,0,0,1-2,.89,6.17,6.17,0,0,0-.34,1.06,4.64,4.64,0,0,0-.1,1,5.39,5.39,0,0,0,2.11,4.34,8.25,8.25,0,0,0,5.42,1.73A10.12,10.12,0,0,0,73.65,69,10.47,10.47,0,0,0,77.48,65Q79.42,61.44,80,51.8q.05-1,.1-1.6a30.31,30.31,0,0,1,1.19-7.83A13.35,13.35,0,0,1,84,37.73a12.44,12.44,0,0,1,4.55-3.13,15.68,15.68,0,0,1,5.89-1.06,9.61,9.61,0,0,1,5.67,1.5,4.68,4.68,0,0,1,2.11,4,4.63,4.63,0,0,1-1.71,3.64,6.26,6.26,0,0,1-4.24,1.47q-.65,0-1.21-.05T94,44Z"/><path class="cls-1" d="M106.25,58.65q.08-1.11.12-1.87t0-1.1a8.36,8.36,0,0,0-.32-2.78,1.11,1.11,0,0,0-1.07-.81,2.69,2.69,0,0,0-1.55.67,14.38,14.38,0,0,0-2.09,2.12,18.34,18.34,0,0,0-2.8,4.64,12.33,12.33,0,0,0-.94,4.64,5.14,5.14,0,0,0,1.16,3.57A4.12,4.12,0,0,0,102,69q3.08,0,7-3.12a52.9,52.9,0,0,0,8.56-9.32l.26.26a44.61,44.61,0,0,1-9.86,10.43,16.63,16.63,0,0,1-9.68,3.5A7.73,7.73,0,0,1,93,69.08a5.58,5.58,0,0,1-2-4.46A10.34,10.34,0,0,1,92.79,59a15.76,15.76,0,0,1,5-4.77,18.67,18.67,0,0,1,4.77-2.2,17.21,17.21,0,0,1,5-.78,6.42,6.42,0,0,1,3.58.85,2.7,2.7,0,0,1,1.28,2.38,3.77,3.77,0,0,1-1.49,3,5.71,5.71,0,0,1-3.76,1.23h-.46Z"/><path class="cls-1" d="M137.08,34.3,125.5,53.81q-1.24,2.07-2.62,4.21T120,62.45l.41.21a50,50,0,0,1,7.75-8.89q3.44-2.89,6.28-2.89A4.45,4.45,0,0,1,137.58,52a3.77,3.77,0,0,1,1.27,2.89q0,2.09-2.89,6.26l-1,1.42q-1.4,2.14-2.09,3.48a5,5,0,0,0-.7,1.87,1.35,1.35,0,0,0,.31.89.94.94,0,0,0,.75.38q1.83,0,4.92-3.13a87.23,87.23,0,0,0,8-10.05l.39.21a78,78,0,0,1-9.12,11.18q-3.46,3.22-6.23,3.22a4,4,0,0,1-3.09-1.24A4.75,4.75,0,0,1,127,66a7.61,7.61,0,0,1,.61-2.92,22,22,0,0,1,2.31-3.9q.49-.72,1.42-1.89,1.86-2.4,1.86-3.46a1.15,1.15,0,0,0-.48-.94,1.85,1.85,0,0,0-1.18-.37q-2.27,0-6.54,4.86a59.94,59.94,0,0,0-8.06,12.3l-7.11.36,20-35.15Z"/><path class="cls-1" d="M174.46,56.37l.34.15A10.78,10.78,0,0,1,172.19,59a5,5,0,0,1-2.69.76A4.24,4.24,0,0,1,167,59a7.07,7.07,0,0,1-2-2.43q.08.7.12,1.14t0,.65A10.2,10.2,0,0,1,163.91,63a14.44,14.44,0,0,1-3.36,4.28,13,13,0,0,1-4.7,2.58,20.28,20.28,0,0,1-6.15.88,7.18,7.18,0,0,1-5.25-1.87,6.86,6.86,0,0,1-1.91-5.13A10.91,10.91,0,0,1,143.65,59a13.44,13.44,0,0,1,3.23-4.19,16.65,16.65,0,0,1,4.91-3,14.81,14.81,0,0,1,5.43-1.06,9.16,9.16,0,0,1,4.63,1,7.76,7.76,0,0,1,2.95,3.31,11.65,11.65,0,0,0,2.37,3.53,3.73,3.73,0,0,0,2.44.81,4.57,4.57,0,0,0,2.46-.72A9.66,9.66,0,0,0,174.46,56.37Zm-14.19-2.22a3.5,3.5,0,0,0-.56-2.13,1.9,1.9,0,0,0-1.62-.74,4.35,4.35,0,0,0-2.52,1.16,14.8,14.8,0,0,0-2.86,3.18A33.08,33.08,0,0,0,149.16,62a14.55,14.55,0,0,0-1.27,5.39,3.71,3.71,0,0,0,.52,2.21,1.94,1.94,0,0,0,1.65.69,4.32,4.32,0,0,0,2.43-.93A11.53,11.53,0,0,0,155,66.74a23.45,23.45,0,0,0,1.64-2.53A35.51,35.51,0,0,0,158.28,61a39.07,39.07,0,0,0,1.5-4.1A10.35,10.35,0,0,0,160.27,54.15Z"/><path class="cls-1" d="M202.89,56.37l.34.15A10.78,10.78,0,0,1,200.62,59a5,5,0,0,1-2.69.76,4.24,4.24,0,0,1-2.5-.75,7.07,7.07,0,0,1-2-2.43q.08.7.12,1.14t0,.65A10.2,10.2,0,0,1,192.35,63,14.44,14.44,0,0,1,189,67.3a13,13,0,0,1-4.7,2.58,20.28,20.28,0,0,1-6.15.88,7.18,7.18,0,0,1-5.25-1.87A6.86,6.86,0,0,1,171,63.76,10.91,10.91,0,0,1,172.08,59a13.44,13.44,0,0,1,3.23-4.19,16.65,16.65,0,0,1,4.91-3,14.81,14.81,0,0,1,5.43-1.06,9.16,9.16,0,0,1,4.63,1,7.76,7.76,0,0,1,2.95,3.31,11.65,11.65,0,0,0,2.37,3.53,3.73,3.73,0,0,0,2.44.81,4.57,4.57,0,0,0,2.46-.72A9.66,9.66,0,0,0,202.89,56.37ZM188.7,54.15a3.5,3.5,0,0,0-.56-2.13,1.9,1.9,0,0,0-1.62-.74A4.35,4.35,0,0,0,184,52.44a14.8,14.8,0,0,0-2.86,3.18A33.08,33.08,0,0,0,177.59,62a14.55,14.55,0,0,0-1.27,5.39,3.71,3.71,0,0,0,.52,2.21,1.94,1.94,0,0,0,1.65.69,4.32,4.32,0,0,0,2.43-.93,11.53,11.53,0,0,0,2.56-2.61,23.45,23.45,0,0,0,1.64-2.53A35.51,35.51,0,0,0,186.71,61a39.07,39.07,0,0,0,1.5-4.1A10.35,10.35,0,0,0,188.7,54.15Z"/><path class="cls-1" d="M222.23,34.4,205.3,63.61a11.74,11.74,0,0,0-1,2.22,6.45,6.45,0,0,0-.39,2,1.3,1.3,0,0,0,.4,1,1.47,1.47,0,0,0,1,.38q1.73,0,5.27-3.5A61.49,61.49,0,0,0,218,56.42l.26.21A54.14,54.14,0,0,1,209.78,67q-4,3.59-7,3.59a3.68,3.68,0,0,1-2.89-1.19,4.8,4.8,0,0,1-1.06-3.31,9.91,9.91,0,0,1,.56-3A19.23,19.23,0,0,1,201,59.52l13.91-24.76Z"/><text class="cls-2" transform="translate(0 32.32)">CHRI<tspan class="cls-3" x="81.41" y="0">S</tspan><tspan x="96.49" y="0">T THE KI</tspan><tspan class="cls-4" x="229.84" y="0">N</tspan><tspan x="255.61" y="0">G</tspan></text></svg>