<svg id="Layer_1" data-name="Layer 1" xmlns="http://www.w3.org/2000/svg" viewBox="0 0 436.81 145.49"><defs><style>.cls-1{fill:#fff;}.cls-1,.cls-2{fill-rule:evenodd;}.cls-2{fill:#9c1519;}</style></defs><title>grace-scholars-logo</title><path class="cls-1" d="M162,20c4.48-1.44,9.07-2.49,13.65-3.58q10.48-2.48,21.14-4c5.33-.78,10.68-1.38,16.05-1.83a221.32,221.32,0,0,1,23.82-.85c12.91.3,25.74,1.28,38.31,4.51,10.1,2.59,19.67,6.38,28.15,12.58,11.75,8.59,18.93,20,21.28,34.42a49.6,49.6,0,0,1,.2,14.48,52.34,52.34,0,0,0-11-29.33,64.36,64.36,0,0,0-22-18.15c-10.28-5.38-21.29-8.53-32.7-10.4a188.92,188.92,0,0,0-24.65-2.26c-6.8-.21-13.59,0-20.36.45a233.34,233.34,0,0,0-24.09,3C182,20.31,174.23,22,166.54,24c-.27.07-.53.18-.79.27A35.93,35.93,0,0,1,162,20Z"/><path class="cls-1" d="M167.44,28.46c5.33-1.18,10.66-2.37,16-3.29,5.58-1,11.18-1.78,16.81-2.35,6.56-.67,13.12-1.07,19.71-1.27,7.16-.22,14.29.07,21.42.53A136.3,136.3,0,0,1,266.83,26c9.82,2.53,19.11,6.28,27.32,12.36,11.34,8.39,18.32,19.49,20.5,33.51A44.61,44.61,0,0,1,314.94,85a53.11,53.11,0,0,0-13-30.54c-8.09-9.33-18.36-15.37-29.8-19.61a121.58,121.58,0,0,0-25.89-6.21c-4.74-.65-9.51-1.05-14.3-1.31-5.87-.32-11.75-.3-17.62-.13-6.34.18-12.66.75-19,1.51-8.72,1.05-17.34,2.62-25.91,4.49A6.78,6.78,0,0,1,167.44,28.46Z"/><path class="cls-1" d="M22.58,117.54c9.77,0,19.49,0,29.2,0,1.14,0,1.37.35,1.36,1.41,0,4.55-.38,9-2.58,13.15-3.86,7.2-10,11.37-17.91,12.93C17.84,147.91,3.46,137.78.51,123A28,28,0,0,1,23.63,90.26c10.86-1.58,19.67,2.12,26.61,10.54.43.52.56.82-.05,1.33A37,37,0,0,0,47.12,105c-.57.59-.84.53-1.31-.11a22.64,22.64,0,0,0-9.22-7.62c-12-5.25-26.06,1.57-29.64,14.48-4.18,15.07,7.39,27,19.39,28.08,8.64.78,17.66-5.12,19.81-13,1-3.63,1-3.64-2.59-4.43-6.7-1.5-13.39-3-20.09-4.52A1.62,1.62,0,0,1,22.58,117.54Z"/><path class="cls-1" d="M171.61,37c5.81-1.41,11.7-2.47,17.61-3.39,5.28-.82,10.59-1.45,15.92-1.86,6.1-.46,12.2-.63,18.32-.58,5.32,0,10.62.27,15.91.78,12.48,1.19,24.62,3.69,35.85,9.53,9.19,4.78,16.63,11.42,21.41,20.76a44.93,44.93,0,0,1,4.83,17.28,34.5,34.5,0,0,1-.17,8.2,46.37,46.37,0,0,0-8.71-23.51,55.65,55.65,0,0,0-19.81-16.85,92.21,92.21,0,0,0-27.42-8.94,159.09,159.09,0,0,0-23.69-2.21,189,189,0,0,0-23.07,1,209,209,0,0,0-23.26,3.65,1.53,1.53,0,0,0-.22.08c-.17.21-.37.11-.51,0a13.65,13.65,0,0,1-3-3.48A.37.37,0,0,1,171.61,37Z"/><path class="cls-1" d="M209.15,145.49c-9.43,0-15.86-5.09-17.83-13-.18-.7-.14-1.08.7-1.26a35.16,35.16,0,0,0,4-1.14c.77-.26,1-.05,1.16.68a11.6,11.6,0,0,0,3.48,6.28,10.75,10.75,0,0,0,12.88,1.15,10.17,10.17,0,0,0,4.79-11.51,9,9,0,0,0-4.07-5.14,56.17,56.17,0,0,0-8-3.95,44.68,44.68,0,0,1-7-3.79c-7.51-5.1-6.78-16.23.3-21.14a16.18,16.18,0,0,1,22.74,4.45c.51.81.55,1.25-.35,1.74a26.35,26.35,0,0,0-2.92,1.87c-.68.49-1,.51-1.52-.3a9.56,9.56,0,0,0-6.54-4.81c-4.5-.87-9,1.35-10.46,5.24a6.65,6.65,0,0,0,2.15,8.05,24.43,24.43,0,0,0,5.61,3.17c2.86,1.3,5.76,2.53,8.55,4,11.59,6.13,9.09,19.61,2.33,25.25A16.64,16.64,0,0,1,209.15,145.49Z"/><path class="cls-1" d="M316,136.17a18.52,18.52,0,0,1-18.6-18.43,18.6,18.6,0,0,1,37.2,0A18.48,18.48,0,0,1,316,136.17Z"/><path class="cls-1" d="M155.73,89.25a114,114,0,0,0,28.05-8.17,15.94,15.94,0,0,0,9.17-10c1.33-3.73,1.89-7.66,3.06-11.43,1-3.19,2.71-5.76,5.9-7.13a4.52,4.52,0,0,1,3.71,0A25.76,25.76,0,0,1,210.26,55c-.6-.18-1.2-.33-1.78-.55a8.57,8.57,0,0,0-5-.05,5.84,5.84,0,0,0-4.24,3.88c-1.57,3.86-1.91,3.14,1.84,4.43a40.51,40.51,0,0,0,17.23,2c5.07-.49,10.05-.11,14.67,2.36,1.43.76,2.8,1.56,3.2,3.32.1.47.5.69.88.92L266.43,89c.2.12.39.27.59.41-.28.29-.47,0-.66,0-10.71-4.59-21.52-9-31.79-14.53-1.65-.89-3.26-1.86-4.85-2.86a11.44,11.44,0,0,0-5.29-1.33c-4.33-.39-8.68-.59-13-1a35.59,35.59,0,0,1-11.56-2.85c-.32-.15-.64-.32-1-.5-1.51-.89-1.51-.89-2.07.85-1.65,5.12-4.15,9.68-8.53,13a23.55,23.55,0,0,1-7.7,3.49A174.93,174.93,0,0,1,159.53,89,12.17,12.17,0,0,1,155.73,89.25Z"/><path class="cls-1" d="M291.84,117.7c0,5.6,0,11.19,0,16.79,0,.84-.21,1.07-1.06,1.06-3,0-3,0-3-3,0-4.48,0-9,0-13.43,0-.75-.15-1-1-1q-8.09.06-16.19,0c-.79,0-1,.22-1,1,0,5.12,0,10.23,0,15.35,0,.88-.19,1.14-1.11,1.13-2.95,0-3,0-3-2.9,0-10.51,0-21,0-31.54,0-1,.26-1.26,1.25-1.24,2.81.06,2.81,0,2.81,2.87,0,3.56,0,7.12,0,10.67,0,.72.16.95.92.94q8.09-.05,16.19,0c.86,0,1.06-.26,1.05-1.08,0-4.12,0-8.24,0-12.35,0-.85.21-1.06,1.05-1.05,3,0,3,0,3,3Z"/><path class="cls-1" d="M69.11,119.66l11.24,15.86H75.82c-.6,0-.77-.51-1-.89l-9.45-13.71c-.09-.13-.19-.26-.27-.4-.24-.41-.55-.74-1.06-.56s-.25.62-.25.94c0,4.4-.05,8.8,0,13.19,0,1.16-.27,1.49-1.44,1.45-2.62-.09-2.63,0-2.63-2.7q0-15.89,0-31.79c0-.89.15-1.23,1.14-1.2,3.43.12,6.87-.21,10.25.73,4.61,1.28,7,4.5,6.85,9.38s-2.89,8.39-7.36,9.36Z"/><path class="cls-1" d="M171.61,37A14,14,0,0,0,175.1,41c2.64,2.33,5.9,3,9.26,3.5A29.37,29.37,0,0,0,197.91,43a18.24,18.24,0,0,1,6.84-1A6,6,0,0,1,210,45.26a19.05,19.05,0,0,1,.92,1.81,14.64,14.64,0,0,0,2.36,4c1.33,1.59,2.14,3.39,1.25,5.52-.09.2-.15.45-.47.54a7.23,7.23,0,0,1,.1-.72,4.76,4.76,0,0,0-1.61-5,18.15,18.15,0,0,1-3-3.45c-3.06-4.44-5.53-5.31-10.76-3.84-2.26.64-4.44,1.55-6.76,2-4.48.87-8.91.27-13.35-.36a15.37,15.37,0,0,1-9.07-4.12c-2.84-2.76-3.92-6.42-5.09-10-.85-2.62-1.55-5.29-2.59-7.85a4.6,4.6,0,0,0-3.29-3.13,18.88,18.88,0,0,1-6.17-3.13,27.28,27.28,0,0,0-15.56-5.16,12.73,12.73,0,0,1-5.4-.88,2,2,0,0,1-1.44-2c0-.78-.56-1.1-1.15-1.38a23.64,23.64,0,0,0-5.36-1.69C119.3,5.56,115,4.8,110.76,3.86a2,2,0,0,1-1.2-.47l-2.13-.58,0-.12h3.82l0-.23L103.42.75c-.07-.23,0-.33.25-.27,6.2.84,12.48,1,18.64,2.27,7.25,1.5,14,4.35,20.6,7.51,2,1,4.11,1.88,6.46,3L148.1,11a2.34,2.34,0,0,1,1.63.52A18.77,18.77,0,0,1,153.17,14c2.62,2.46,5.75,4.13,8.81,5.93a14.57,14.57,0,0,1,3.77,4.25l1.69,4.24a24.42,24.42,0,0,0,2,4.76A16.8,16.8,0,0,0,171.61,37Z"/><path class="cls-1" d="M400,119.64l11.26,15.88c-1.68,0-3.17,0-4.66,0-.53,0-.67-.53-.91-.88q-4.66-6.75-9.3-13.51c-.16-.23-.34-.45-.48-.69a.83.83,0,0,0-1-.48c-.51.13-.32.58-.32.9,0,4.48,0,9,0,13.43,0,1-.2,1.29-1.23,1.27-2.78-.06-2.79,0-2.79-2.83q0-15.89,0-31.78c0-.82.16-1.1,1-1.07,3.15.1,6.31-.19,9.43.49,3.49.76,6.38,2.37,7.34,6,1,4,.58,7.79-2.64,10.82A10.26,10.26,0,0,1,400,119.64Z"/><path class="cls-1" d="M370.64,98.39c.43.21.46.6.6.92q7.52,17.51,15,35c.52,1.2.51,1.21-.77,1.2-3.21,0-3.21,0-4.44-3-.87-2.1-1.77-4.18-2.6-6.29a1.12,1.12,0,0,0-1.24-.81q-6.65,0-13.31,0a1.2,1.2,0,0,0-1.32.87c-1.13,2.77-2.34,5.5-3.48,8.26-.28.68-.59,1.08-1.38,1-1.08-.14-2.61.51-3.14-.28s.64-1.91,1.07-2.88q7.25-16.52,14.53-33C370.34,99,370.49,98.71,370.64,98.39Z"/><path class="cls-1" d="M98.47,98.18l16,37.33c-1.43,0-2.73,0-4,0-.55,0-.61-.44-.76-.79-1.15-2.76-2.31-5.51-3.42-8.29a1.34,1.34,0,0,0-1.47-1q-6.54.08-13.08,0a1.37,1.37,0,0,0-1.49,1c-1.11,2.73-2.3,5.43-3.41,8.17a1.24,1.24,0,0,1-1.42.93,17.19,17.19,0,0,0-2.52,0c-.82.05-.83-.25-.55-.88q2.63-5.9,5.22-11.81L98,99.1C98.12,98.85,98.26,98.61,98.47,98.18Z"/><path class="cls-1" d="M109.57,3.39c5.67,1.13,11.4,2,17,3.46a13.76,13.76,0,0,1,2.66,1c.75.38,1.55.73,1.24,2-.2.8.69,1.18,1.37,1.42A16,16,0,0,0,137,12a27.07,27.07,0,0,1,15.64,5.21,19.71,19.71,0,0,0,6.62,3.25,3.6,3.6,0,0,1,2.51,2.15,36,36,0,0,1,1.84,4.93c.74,2.36,1.46,4.73,2.25,7.07a18.71,18.71,0,0,0,3.39,6.28c.17.2.42.39.34.72a30,30,0,0,1-9-8.32,33.81,33.81,0,0,1-4.24-7.08c-1.55-3.67-4.35-5.79-8-7.08a51.38,51.38,0,0,0-12.18-2.33c-3.09-.31-6.21-.39-9.27-1a6.19,6.19,0,0,1-4.9-3.76c-.16-.37-.34-.72-.5-1.09a8.81,8.81,0,0,0-5.38-5.12,38.59,38.59,0,0,0-7.14-2.11Z"/><path class="cls-1" d="M152.12,117.67c0-5.56,0-11.12,0-16.67,0-.87.16-1.14,1.09-1.13q8.22.08,16.43,0c.87,0,1,.27,1,1.08,0,2.66,0,2.66-2.69,2.66-3.56,0-7.12,0-10.68,0-.85,0-1.18.15-1.16,1.1.07,2.84.06,5.68,0,8.52,0,.83.27,1,1,1,4,0,8,0,12,0,.81,0,1.1.19,1.1,1.05,0,2.68,0,2.68-2.66,2.68-3.44,0-6.88,0-10.32,0-.85,0-1.16.14-1.15,1.09.06,4,0,7.92,0,11.88,0,.77.19,1,1,1,4.16,0,8.32,0,12.48,0,.83,0,1.07.2,1.06,1,0,2.68,0,2.68-2.66,2.68-4.92,0-9.84,0-14.76,0-1,0-1.14-.33-1.14-1.21C152.14,128.79,152.12,123.23,152.12,117.67Z"/><path class="cls-1" d="M258.88,107.73c-4-3.64-8.32-5.42-13.5-4.46a13.63,13.63,0,0,0-8.24,5,14.57,14.57,0,0,0,.54,19.55,13.72,13.72,0,0,0,10.53,4.62c4.12,0,7.51-1.84,10.67-4.73,0,1.7,0,3.15,0,4.61,0,.62-.55.74-.92,1A18.32,18.32,0,0,1,236,131.65a18.06,18.06,0,0,1-5.27-20.21,18.54,18.54,0,0,1,17.29-12.15,17.47,17.47,0,0,1,10.06,2.95,1.48,1.48,0,0,1,.78,1.46C258.84,104.93,258.88,106.17,258.88,107.73Z"/><path class="cls-1" d="M426,136.17c-5.79,0-10-3.36-11.31-8.44-.16-.65-.11-.91.59-1,.93-.19,1.89-.84,2.75-.7,1.05.17.71,1.54,1.13,2.34a7.21,7.21,0,0,0,13.42-1.07,5.87,5.87,0,0,0-2.33-6.66,27.43,27.43,0,0,0-5.21-2.67,37,37,0,0,1-4.78-2.46c-5.62-3.52-4.81-11.38.09-14.5a10.85,10.85,0,0,1,14.75,3c.45.69.44,1.06-.32,1.46s-1.48,1.26-2.24,1.29-1-1.18-1.56-1.75a6.29,6.29,0,0,0-6.74-1.58,5.22,5.22,0,0,0-3.82,4.61,4.35,4.35,0,0,0,2,4.19,26.51,26.51,0,0,0,5.22,2.65c2.44,1.09,4.95,2.12,6.82,4.12,3.35,3.57,3.09,9.83-.5,13.64A11,11,0,0,1,426,136.17Z"/><path class="cls-1" d="M145.44,127.73c0,1.66,0,3.08,0,4.51,0,.68-.55.83-1,1.09a18.42,18.42,0,0,1-27.9-12.27c-1.3-7.22,1.11-13.31,6.86-17.82,5.6-4.39,11.88-5.1,18.53-2.54,2.41.93,4.19,2.24,3.48,5.25a6.41,6.41,0,0,0,0,1.32,1.29,1.29,0,0,1-.12.3c-3.48-3.24-7.5-5-12.29-4.45a13.93,13.93,0,0,0-9.45,5.35,14.59,14.59,0,0,0,1.39,20C130.26,133.52,138.5,134.17,145.44,127.73Z"/><path class="cls-1" d="M400,144.57q-17.4,0-34.79-.08-24-.1-48-.24L269.4,144l-43.78-.24a2.27,2.27,0,0,1-1.76-2.18c.12-.47.52-.29.79-.28l22.29.38,19.18.33,40.87.64,28.29.48,29.13.48,28.28.48,11.87.23c0,.29-.16.32-.37.32C402.81,144.61,401.41,144.74,400,144.57Z"/><path class="cls-1" d="M119.41,49A427.26,427.26,0,0,0,45,88a337.38,337.38,0,0,1,74.3-43.47C119.63,46,120.08,47.5,119.41,49Z"/><path class="cls-1" d="M119.37,40c-4.3,1.61-8.47,3.54-12.64,5.44A434.06,434.06,0,0,0,65.48,67.06Q57.29,71.92,49.35,77.2a1.84,1.84,0,0,1-1.14.55,17.67,17.67,0,0,1,2.88-2.37A341.74,341.74,0,0,1,90.47,49.86Q104,42.33,118.06,36c.22-.1.42-.23.63-.35A4.9,4.9,0,0,1,119.37,40Z"/><path class="cls-1" d="M339.84,117.62c0-5.56,0-11.11,0-16.67,0-.82.18-1.17,1-1.06s2.29-.43,2.85.23.16,1.83.16,2.78c0,9.24,0,18.47,0,27.7,0,1,.21,1.28,1.23,1.24,2.6-.08,5.2,0,7.79,0,.69,0,.85.2.86.87,0,2.86.06,2.86-2.83,2.86-3.32,0-6.64,0-10,0-.9,0-1.14-.24-1.13-1.14C339.87,128.81,339.84,123.21,339.84,117.62Z"/><path class="cls-1" d="M67.42,144.32l26.12-.62,37.26-.88,29.23-.72q15.09-.37,30.19-.77c.75,0,.87.1.67.84a1.92,1.92,0,0,1-2.23,1.64c-9.19,0-18.39.07-27.58.13l-18.22.15-39,.24-33.34.24a18,18,0,0,1-2.78.07C67.56,144.65,67.39,144.58,67.42,144.32Z"/><path class="cls-1" d="M123.12,57.35A360.76,360.76,0,0,0,88,74.13c-8.6,4.67-17,9.67-25.18,15.05a7.45,7.45,0,0,1-2.12,1.1c1.35-1,2.69-2.11,4.06-3.13a307.79,307.79,0,0,1,48.87-29.45c2.47-1.2,5-2.31,7.49-3.46A4.75,4.75,0,0,1,123.12,57.35Z"/><path class="cls-1" d="M123.12,57.35l-2-3.09A19.37,19.37,0,0,1,119.41,49l-.13-4.51a19.71,19.71,0,0,0,.09-4.48,14.49,14.49,0,0,0-.68-4.38,6.77,6.77,0,0,0-3-4A5.76,5.76,0,0,1,113,26.75c-.35-4-.74-8.1-2.34-11.91A31.63,31.63,0,0,0,109.21,12a3.32,3.32,0,0,1-.38-2.85,1.56,1.56,0,0,0-.9-2.06c-1.53-.86-3-1.79-4.51-2.7-.05-.22,0-.34.25-.25l6.89,3c-1.37,1.66-.65,3.16.23,4.79,1.39,2.58,1.93,5.47,2.67,8.28.55,2.08,1.1,4.16,1.61,6.26a10.55,10.55,0,0,0,3,5.55c2.27,2.12,2.68,5.07,2.72,8.06,0,2.16,0,4.31.09,6.47a15.06,15.06,0,0,0,5.38,11.08,57.16,57.16,0,0,0,20,11.32l.95.33c-2.92.38-10.08-1.22-11.64-2.59.29-.42.74-.06,1.34-.38C131.66,64.06,126.44,62.1,123.12,57.35Z"/><path class="cls-1" d="M160.27,61a48.52,48.52,0,0,1-9.5,10.42c-5.09,4-10.1,8.1-15.82,11.2A21.36,21.36,0,0,1,128.22,85c-.4.06-.94.25-1.22-.19s.36-.71.52-1.33c-5.82,2.82-11.28,6.48-18.1,5.14,5.3.08,9.86-2.36,14.51-4.48,5.34-2.42,10.77-4.65,16-7.23a49.88,49.88,0,0,0,15.11-11C156.69,64.16,158.54,62.63,160.27,61Z"/><path class="cls-1" d="M252.65,85.2c1.59.59,3.19,1.16,4.78,1.76,4.29,1.62,8.6,3.2,12.87,4.88,2.13.84,4.39.7,6.58,1.11.25,0,.54-.07.91.29-.92.14-1.71.33-2.52.37a45.91,45.91,0,0,1-6.35,0c-.58,0-1.49-.48-1.36.86,0,.32-.61.17-.94.17q-9.29-.11-18.58-.25a24.07,24.07,0,0,1-5.3-.33l24.86-1.88.08-.28-15.12-6.43Z"/><path class="cls-1" d="M400,144.57c1.51-.23,3.06.24,4.56-.25,3.51-.2,7,.13,10.53.14h7.27c0,.11,0,.22,0,.34h-9.21l-11.87,0A2,2,0,0,1,400,144.57Z"/><path class="cls-1" d="M67.42,144.32c1,.47,2.1,0,3.13.25a2,2,0,0,1-.56.18l-11.51,0a23.62,23.62,0,0,1-3.11-.13C59.4,144.66,63.4,144.15,67.42,144.32Z"/><path class="cls-1" d="M103.68.48l-.25.27L99.74,0A10.78,10.78,0,0,1,103.68.48Z"/><path class="cls-1" d="M103.68,4.1l-.25.25-2.14-1.19A5.27,5.27,0,0,1,103.68,4.1Z"/><path class="cls-2" d="M330.48,117.71A14.54,14.54,0,1,1,316.1,103,14.59,14.59,0,0,1,330.48,117.71Z"/><path class="cls-2" d="M63.76,110c0-1.84,0-3.68,0-5.52,0-.65.16-.93.86-.89a21.25,21.25,0,0,1,5.34.56A5.13,5.13,0,0,1,73.87,109c.24,3.2-.71,5.21-3,6.33-2,1-4.26.92-6.45,1-.72,0-.61-.45-.61-.88Q63.76,112.78,63.76,110Z"/><path class="cls-2" d="M394.56,109.85q0-2.7,0-5.4c0-.4-.06-.84.56-.83a17.5,17.5,0,0,1,6.26.74c2.45,1,3.72,3.29,3.4,6.22a5.53,5.53,0,0,1-4.65,5.35,26.91,26.91,0,0,1-4.76.48c-.62,0-.84-.17-.83-.81C394.59,113.69,394.56,111.77,394.56,109.85Z"/><path class="cls-2" d="M376.54,121.73H365.46c-.47,0-.91.06-.59-.68,1.91-4.41,3.78-8.84,5.77-13.48Z"/><path class="cls-2" d="M104.23,121.68H92.33l6-14.1Z"/></svg>