<svg id="Layer_1" data-name="Layer 1" xmlns="http://www.w3.org/2000/svg" viewBox="0 0 651.61 43.52"><defs><style>.cls-1{fill:#fff;}</style></defs><title>header-cta</title><path class="cls-1" d="M32.51,8a1.51,1.51,0,0,1-.22.76q-1.57,2.75-7.13,2.92-1.08,0-3.67.05a1.38,1.38,0,0,0-1.13.54Q15.55,20,10.69,29.7a7.55,7.55,0,0,0-1,3.13Q9.72,35,13.39,35a3.33,3.33,0,0,0,.54-.05h.54c.18,0,.27.05.27.16s-.14.32-.43.32q-2.92.11-3.62.11-1.57,0-2.16-.05-2.32-.22-2.32-1.84A4.52,4.52,0,0,1,7,31.59Q10.91,24.84,17.28,12c0-.18-.13-.27-.38-.27H15.23a39.79,39.79,0,0,0-5.51.32,10.12,10.12,0,0,0-7.45,4.64A19.65,19.65,0,0,0,.65,19.82c-.11.29-.25.43-.43.43S0,20.16,0,20s.7-1.33,1.78-3.35a24.19,24.19,0,0,1,1.78-2.86A6.93,6.93,0,0,1,8,11.5a35.17,35.17,0,0,1,5.18-.27h8.69a17.17,17.17,0,0,0,5.62-.91Q31.16,9,31.16,6.63a1,1,0,0,0-.05-.32.84.84,0,0,1-.05-.21c0-.14.05-.21.16-.21a.17.17,0,0,1,.16.11,8.29,8.29,0,0,1,1,1.4A1.08,1.08,0,0,1,32.51,8Z"/><path class="cls-1" d="M38.77,25.92a.42.42,0,0,1-.05.16q-2.43,3.29-5.24,3.29a3.52,3.52,0,0,1-3.24-1.84q-3.13,6.16-6.32,7.67a3.91,3.91,0,0,1-1.62.43q-1.51,0-1.57-2.11-.05-3,3.19-6.86a8.35,8.35,0,0,1,5.72-3.13q.16-1.51,1.08-1.67a4.84,4.84,0,0,0,1-.27.22.22,0,0,1,.16-.05.24.24,0,0,1,.27.27q-.32.81-.7,2.11a10.21,10.21,0,0,0-.11,1.46q0,3.46,2.54,3.46t4.54-2.92a.21.21,0,0,1,.22-.16A.17.17,0,0,1,38.77,25.92Zm-9,.54a8.72,8.72,0,0,1-.16-1.89v-.49a.62.62,0,0,0-.27-.05q-2.34.05-5,4.59a10.36,10.36,0,0,0-1.8,5.18q0,1,.76,1a1.23,1.23,0,0,0,.43-.11,10.06,10.06,0,0,0,3.62-3.62A24,24,0,0,0,29.81,26.46Z"/><path class="cls-1" d="M81.16,11.63c0,.16-.09.23-.27.23L79,12a.69.69,0,0,0-.64.4Q71.78,24,66.8,33.81l-.32.86q-.22.65-.33.65a1.6,1.6,0,0,1-.35-.14,1.49,1.49,0,0,0-.62-.13,7,7,0,0,0-2.54,1.08.14.14,0,0,1-.16-.16,24.67,24.67,0,0,0,1.67-2.38q1.4-2.05,2.48-4,1.51-2.7,4.75-9,3.94-7.67,3.94-8.37c0-.11-.09-.16-.27-.16q-1,0-2.83.16t-2.83.16h-.05q-.54,0-.54-.49a.89.89,0,0,1,.05-.22l.43-.86a.52.52,0,0,1,.27-.22s.06.08.08.24a.42.42,0,0,0,.3.35,16,16,0,0,0,3,.32h1.4l6.43-.22C81,11.34,81.16,11.44,81.16,11.63ZM106.27,41a1.18,1.18,0,0,1-.22.27,16,16,0,0,1-8.86,2.21q-8.26,0-16-8.69-3.94-4.43-8.8-10.69a.31.31,0,0,1-.11-.22.35.35,0,0,1,.22-.32Q77.11,21,83.21,16.9l8.26-5.51a1.24,1.24,0,0,1,.7-.22,2.18,2.18,0,0,1,.62.14,3.8,3.8,0,0,0,.59.16.21.21,0,0,1,.19.24s-.45.22-1.24.65Q87.86,14.75,82,18.43,77.44,21.29,75.12,23a.43.43,0,0,0-.22.32q0,.38,3.73,4.8,2.92,3.45,4.43,5.13,1.94,2.1,4.48,4.48a22.13,22.13,0,0,0,6.86,4.69,11.44,11.44,0,0,0,3.83.59,13.11,13.11,0,0,0,7.61-2.05.31.31,0,0,1,.22-.05C106.2,40.88,106.27,40.93,106.27,41Z"/><path class="cls-1" d="M105.95,27.81a.53.53,0,0,1-.11.27,24.11,24.11,0,0,1-7.24,6.75,7.86,7.86,0,0,1-3.78,1.3q-1.67,0-1.67-1.57a6.78,6.78,0,0,1,1.13-3.13,36.16,36.16,0,0,0,2.81-5.62v-.16c0-.11,0-.16-.11-.16l-.22.05a24.07,24.07,0,0,0-5,4.32q-1,1.94-3.46,5.67c-.18.18-.31.27-.38.27s-.29-.18-.43-.54a2.43,2.43,0,0,1-.22-.81,1.82,1.82,0,0,1,.27-.86q1-1.4,2.81-4.32,1.13-2.38,2.92-5.67a.49.49,0,0,1,.43-.27.94.94,0,0,1,.54.27q.32.27.32.49,0-.38-2.05,4.32a50.83,50.83,0,0,1,6.75-5.18.83.83,0,0,1,.32-.11q.65,0,.65.59a1.19,1.19,0,0,1-.27.65,38.59,38.59,0,0,0-4.43,8.26,3.09,3.09,0,0,0-.22,1q0,1.35,1.3,1.35a3.47,3.47,0,0,0,1.51-.43,19.35,19.35,0,0,0,7.4-6.8.22.22,0,0,1,.22-.11A.14.14,0,0,1,105.95,27.81Z"/><path class="cls-1" d="M120.8,25.92a.42.42,0,0,1-.05.16q-2.43,3.29-5.24,3.29a3.52,3.52,0,0,1-3.24-1.84q-3.13,6.16-6.32,7.67a3.91,3.91,0,0,1-1.62.43q-1.51,0-1.57-2.11-.05-3,3.19-6.86a8.35,8.35,0,0,1,5.72-3.13q.16-1.51,1.08-1.67a4.84,4.84,0,0,0,1-.27.22.22,0,0,1,.16-.05.24.24,0,0,1,.27.27q-.32.81-.7,2.11a10.21,10.21,0,0,0-.11,1.46q0,3.46,2.54,3.46t4.54-2.92a.21.21,0,0,1,.22-.16A.17.17,0,0,1,120.8,25.92Zm-9,.54a8.72,8.72,0,0,1-.16-1.89v-.49a.62.62,0,0,0-.27-.05q-2.34.05-5,4.59a10.36,10.36,0,0,0-1.8,5.18q0,1,.76,1a1.23,1.23,0,0,0,.43-.11,10.06,10.06,0,0,0,3.62-3.62A24,24,0,0,0,111.83,26.46Z"/><path class="cls-1" d="M140.72,25.16a.31.31,0,0,1-.11.22q-2.59,3.08-5.29,3.08a4,4,0,0,1-3.24-1.67q-1.46,5.46-4.64,7.45a4.7,4.7,0,0,1-2.48.86q-2,0-2-2.38a5.59,5.59,0,0,1,.27-1.78q-3.08,4-5.18,4-1.24,0-1.24-1.51t3.08-7.18a5.55,5.55,0,0,1,3.35-2.86h.16c.11,0,.16,0,.16.11a2.14,2.14,0,0,1-.11.27,19.73,19.73,0,0,0-4.37,8.06,4.47,4.47,0,0,0-.16,1q0,.75.49.75,1.83,0,4.91-5.1,1.62-3.76,2.54-3.76a.53.53,0,0,1,.38.11.85.85,0,0,1,.43.76,1.67,1.67,0,0,1-.32.92,23.27,23.27,0,0,0-2.75,5.67,3.41,3.41,0,0,0-.16,1q0,1.24,1.13,1.24,2.32,0,4.16-3.73a15.15,15.15,0,0,0,1.57-5.29,5.8,5.8,0,0,1-.59-2.21,1.16,1.16,0,0,1,1.34-1.3q.39,0,.39.32.32,5.78,3.51,5.78,2.05,0,4.43-2.86a.22.22,0,0,1,.22-.11A.14.14,0,0,1,140.72,25.16Z"/><path class="cls-1" d="M141.69,31.32a1.48,1.48,0,0,1-.43,1Q136.62,37.37,132,42a.9.9,0,0,1-.27.05q-.27,0-.27-.32a.92.92,0,0,1,.16-.43q3.56-4.05,9-11.29a.66.66,0,0,1,.59-.38Q141.69,29.65,141.69,31.32Z"/><path class="cls-1" d="M195.69,34.78q-.16,1.89-.7,1.89c-.11,0-.16-.09-.16-.27q0-.65-.43-.81a23.52,23.52,0,0,0-7.45-.86,62.94,62.94,0,0,0-12.91,1,1.43,1.43,0,0,1-.43.05c-.4,0-.59-.14-.59-.43s.45-.65,1.35-.65a4.17,4.17,0,0,0,3.4-1.51,52.84,52.84,0,0,0,5.72-9.83l5.18-10.64a1.37,1.37,0,0,1,.81-.65,15.59,15.59,0,0,1,5.62-1c.36,0,.54.13.54.38s-.14.38-.43.38a5.41,5.41,0,0,1-.78-.08,5.49,5.49,0,0,0-.78-.08q-1.73,0-5.13,6.37Q187,21,183,28.62a16.44,16.44,0,0,1-2,3.13,12.14,12.14,0,0,1-3,2.16q-.43.22-.43.49c0,.07.09.11.27.11q2.27-.11,11-.81,1.3-.11,3.94-.11a11.43,11.43,0,0,1,2.05.11A1,1,0,0,1,195.69,34.78Z"/><path class="cls-1" d="M216.32,25.92a.42.42,0,0,1-.05.16q-2.43,3.29-5.24,3.29a3.52,3.52,0,0,1-3.24-1.84q-3.13,6.16-6.32,7.67a3.91,3.91,0,0,1-1.62.43q-1.51,0-1.57-2.11-.05-3,3.19-6.86a8.35,8.35,0,0,1,5.72-3.13q.16-1.51,1.08-1.67a4.84,4.84,0,0,0,1-.27.22.22,0,0,1,.16-.05.24.24,0,0,1,.27.27q-.32.81-.7,2.11a10.21,10.21,0,0,0-.11,1.46q0,3.46,2.54,3.46T216,25.92a.21.21,0,0,1,.22-.16A.17.17,0,0,1,216.32,25.92Zm-9,.54a8.72,8.72,0,0,1-.16-1.89v-.49a.62.62,0,0,0-.27-.05q-2.34.05-5,4.59a10.36,10.36,0,0,0-1.8,5.18q0,1,.76,1a1.23,1.23,0,0,0,.43-.11,10.06,10.06,0,0,0,3.62-3.62A24,24,0,0,0,207.36,26.46Z"/><path class="cls-1" d="M225.34,23.81a6.45,6.45,0,0,1-.7,2.65A23.12,23.12,0,0,1,214.7,37.1a1,1,0,0,1-.49.16,1.63,1.63,0,0,1-.81-.4q-.54-.41-.54-.68l1.46-.7a2.5,2.5,0,0,0,1.46-2.38,29.48,29.48,0,0,0-.86-3.89,5.33,5.33,0,0,1-.16-1.3q0-2,2.59-3.19a.22.22,0,0,1,.16-.05.14.14,0,0,1,.16.16.35.35,0,0,1-.16.22,2.58,2.58,0,0,0-.92,2.11q0-.65.54,3.67a5.88,5.88,0,0,1-.81,3.24,1,1,0,0,0-.16.38c0,.11,0,.16.11.16s.18-.07.32-.22A14.57,14.57,0,0,0,223,28.19a7.09,7.09,0,0,0,.81-3.19q0-3.4-2.27-3.56c-.22,0-.32-.07-.32-.22a.34.34,0,0,1,.27-.22,4,4,0,0,1,1.08-.22,2.57,2.57,0,0,1,2,.89A3.13,3.13,0,0,1,225.34,23.81Z"/><path class="cls-1" d="M240.46,28.67a.31.31,0,0,1-.11.22,21.47,21.47,0,0,1-5,4.54,11.39,11.39,0,0,1-6.16,2.21q-2.54,0-2.54-2.27a5.56,5.56,0,0,1,.11-1.19,13,13,0,0,1,3-5.62q2.7-3.24,5.29-3.24,1.62,0,1.62,1,0,2.21-6.59,3.73a9.4,9.4,0,0,0-1.24,4.43q0,2.21,2,2.21A9,9,0,0,0,236,32.62a19.12,19.12,0,0,0,4-3.94.25.25,0,0,1,.27-.16A.14.14,0,0,1,240.46,28.67Zm-5.78-4q0-.59-.49-.65a0,0,0,0,1-.05-.05H234a2.2,2.2,0,0,0-1.35.65,11.08,11.08,0,0,0-2.38,3.08q3.83-.76,4.32-2.75a.41.41,0,0,1,.05-.16Z"/><path class="cls-1" d="M244,31.32a1.48,1.48,0,0,1-.43,1q-4.65,5.07-9.29,9.72a.9.9,0,0,1-.27.05q-.27,0-.27-.32a.92.92,0,0,1,.16-.43q3.56-4.05,9-11.29a.66.66,0,0,1,.59-.38Q244,29.65,244,31.32Z"/><path class="cls-1" d="M293.22,27.54a.53.53,0,0,1-.11.27,26.79,26.79,0,0,1-4.1,4.64q-3.24,2.92-5.24,2.92t-2.05-2.43a6.71,6.71,0,0,1,.49-2.32q-3.24,4-5.18,4-1.13,0-1.13-1.24a4.43,4.43,0,0,1,.27-1.35,12.69,12.69,0,0,1,5.94-7.29,9,9,0,0,1,3.4-1.13h.32A2.48,2.48,0,0,1,288,22.25q-.43.76-.76,1.4a3.89,3.89,0,0,1,1.51.49.17.17,0,0,1-.16.11,0,0,0,0,1-.05-.05h-.11q-.43-.05-1.4-.11-.38.7-1.73,3.55-2,4.19-2,5.8,0,1.24,1.08,1.24a2,2,0,0,0,.81-.16q4.05-1.61,7.56-6.91c.07-.14.16-.21.27-.21A.14.14,0,0,1,293.22,27.54ZM285.55,24h-.05a4.38,4.38,0,0,0-2.86,1.13,16.09,16.09,0,0,0-4.75,7.45c-.07.36-.11.56-.11.59q0,.49.32.49a1.16,1.16,0,0,0,.59-.27,20.88,20.88,0,0,0,5.08-6.32Z"/><path class="cls-1" d="M307.26,27.81a.53.53,0,0,1-.11.27,24.11,24.11,0,0,1-7.24,6.75,7.86,7.86,0,0,1-3.78,1.3q-1.67,0-1.67-1.57a6.78,6.78,0,0,1,1.13-3.13,36.16,36.16,0,0,0,2.81-5.62v-.16c0-.11,0-.16-.11-.16l-.22.05a24.07,24.07,0,0,0-5,4.32q-1,1.94-3.46,5.67c-.18.18-.31.27-.38.27s-.29-.18-.43-.54a2.43,2.43,0,0,1-.22-.81,1.82,1.82,0,0,1,.27-.86q1-1.4,2.81-4.32,1.13-2.38,2.92-5.67a.49.49,0,0,1,.43-.27.94.94,0,0,1,.54.27q.32.27.32.49,0-.38-2.05,4.32a50.83,50.83,0,0,1,6.75-5.18.83.83,0,0,1,.32-.11q.65,0,.65.59a1.19,1.19,0,0,1-.27.65,38.59,38.59,0,0,0-4.43,8.26,3.09,3.09,0,0,0-.22,1q0,1.35,1.3,1.35a3.47,3.47,0,0,0,1.51-.43,19.35,19.35,0,0,0,7.4-6.8.22.22,0,0,1,.22-.11A.14.14,0,0,1,307.26,27.81Z"/><path class="cls-1" d="M337.28.54a2.85,2.85,0,0,1-.32.7,6.73,6.73,0,0,0-.38.76q-.11.38-.38.38a.82.82,0,0,1-.32-.11A3.84,3.84,0,0,0,334,1.84a5.88,5.88,0,0,0-3.29.92,23,23,0,0,0-5.62,6.16,123.5,123.5,0,0,0-13.34,23.92,7,7,0,0,0-.59,2.59q0,1.35,1.08,1.35a5,5,0,0,0,2.32-.86q3.62-2.16,7.13-8c.07-.11.14-.16.22-.16a.14.14,0,0,1,.16.16.9.9,0,0,1-.05.22q-3.56,5.78-7.18,8.15a5.9,5.9,0,0,1-3.13,1.19q-2,0-2-2.48,0-1.94,2.16-6.7-1.78,2.16-4.37,4.81A3.57,3.57,0,0,1,305,34.4q-1.19,0-1.19-1.24a4.85,4.85,0,0,1,.86-2.43q3.89-6.37,9.94-7.45Q325,4.64,333,.81a7,7,0,0,1,3-.81Q337.28,0,337.28.54ZM314.22,24a6.29,6.29,0,0,0-4.64,2.48q-3.4,4.16-3.4,6.26c0,.25.09.38.27.38a.67.67,0,0,0,.49-.22,39.57,39.57,0,0,0,5.35-5.83A15.09,15.09,0,0,0,314.22,24Z"/><path class="cls-1" d="M367.79,12.58a2.5,2.5,0,0,1-.22.86l-.38.81q-.38,1.35-.65,1.35a.19.19,0,0,1-.22-.22,1.57,1.57,0,0,1,.08-.38,1.6,1.6,0,0,0,.08-.43,2.4,2.4,0,0,0-1.4-2.21,5.67,5.67,0,0,0-2.75-.65A5.14,5.14,0,0,0,358.66,13a4.69,4.69,0,0,0-1.4,3.59,7.73,7.73,0,0,0,1,3.56q1.3,1.73,3,4.32a5.38,5.38,0,0,1,1,3A6.8,6.8,0,0,1,360.34,32a12.09,12.09,0,0,1-4,3,13.65,13.65,0,0,1-5.72,1.13,11.31,11.31,0,0,1-5-1,1.11,1.11,0,0,1-.7-1.08,2.41,2.41,0,0,1,.11-.65,17.8,17.8,0,0,1,.86-3.13.22.22,0,0,1,.22-.11c.11,0,.16.09.16.27v.11a1.8,1.8,0,0,0-.16.81,3.52,3.52,0,0,0,1.73,3.19,6.22,6.22,0,0,0,3.62,1,9.34,9.34,0,0,0,4-.81q4.16-1.94,4.16-5.66a6.43,6.43,0,0,0-1.58-3.83L356.39,23a6.66,6.66,0,0,1-1.29-3.78,8.48,8.48,0,0,1,2.32-5.56,8.55,8.55,0,0,1,6.75-3.13,4.14,4.14,0,0,1,3.29,1.3A1.23,1.23,0,0,1,367.79,12.58Z"/><path class="cls-1" d="M377.89,28.67a.31.31,0,0,1-.11.22,21.47,21.47,0,0,1-5,4.54,11.39,11.39,0,0,1-6.16,2.21q-2.54,0-2.54-2.27a5.56,5.56,0,0,1,.11-1.19,13,13,0,0,1,3-5.62q2.7-3.24,5.29-3.24,1.62,0,1.62,1,0,2.21-6.59,3.73a9.4,9.4,0,0,0-1.24,4.43q0,2.21,2,2.21a9,9,0,0,0,5.13-2.05,19.11,19.11,0,0,0,4-3.94.25.25,0,0,1,.27-.16A.14.14,0,0,1,377.89,28.67Zm-5.78-4q0-.59-.49-.65a0,0,0,0,1-.05-.05h-.11a2.2,2.2,0,0,0-1.35.65,11.08,11.08,0,0,0-2.38,3.08q3.83-.76,4.32-2.75a.41.41,0,0,1,.05-.16Z"/><path class="cls-1" d="M387.55,24a7.7,7.7,0,0,1-.54.89,11.2,11.2,0,0,0-.59,1c0,.09-.13.13-.27.13s-.09,0-.16-.11A1.83,1.83,0,0,0,384.2,25q-2.38,0-5.4,4.43-1.3,1.89-3.83,5.72c0,.11-.14.16-.32.16q-.54,0-.54-.81a2.25,2.25,0,0,1,.38-1l2.65-4.7L380,23.71c.14-.29.3-.43.49-.43q.86,0,.86,1a17.94,17.94,0,0,1-1.4,2.65c-.07.18-.09.27-.05.27a.68.68,0,0,0,.27-.16,16.33,16.33,0,0,1,2.86-2.32,6.75,6.75,0,0,1,3.29-1.4Q387.55,23.27,387.55,24Z"/><path class="cls-1" d="M399.86,23.81a6.47,6.47,0,0,1-.7,2.65,23.13,23.13,0,0,1-9.94,10.64,1,1,0,0,1-.49.16,1.63,1.63,0,0,1-.81-.4q-.54-.41-.54-.68l1.46-.7a2.51,2.51,0,0,0,1.46-2.38,29.35,29.35,0,0,0-.86-3.89,5.35,5.35,0,0,1-.16-1.3q0-2,2.59-3.19a.22.22,0,0,1,.16-.05.14.14,0,0,1,.16.16.35.35,0,0,1-.16.22,2.58,2.58,0,0,0-.92,2.11q0-.65.54,3.67a5.89,5.89,0,0,1-.81,3.24,1,1,0,0,0-.16.38c0,.11,0,.16.11.16s.18-.07.32-.22a14.58,14.58,0,0,0,6.37-6.21A7.1,7.1,0,0,0,398.3,25q0-3.4-2.27-3.56c-.22,0-.32-.07-.32-.22A.34.34,0,0,1,396,21a4,4,0,0,1,1.08-.22,2.57,2.57,0,0,1,2,.89A3.13,3.13,0,0,1,399.86,23.81Z"/><path class="cls-1" d="M415,28.67a.31.31,0,0,1-.11.22,21.47,21.47,0,0,1-5,4.54,11.4,11.4,0,0,1-6.16,2.21q-2.54,0-2.54-2.27a5.49,5.49,0,0,1,.11-1.19,12.94,12.94,0,0,1,3-5.62q2.7-3.24,5.29-3.24,1.62,0,1.62,1,0,2.21-6.59,3.73a9.4,9.4,0,0,0-1.24,4.43q0,2.21,2,2.21a9,9,0,0,0,5.13-2.05,19.11,19.11,0,0,0,4-3.94.25.25,0,0,1,.27-.16A.14.14,0,0,1,415,28.67Zm-5.78-4q0-.59-.49-.65a0,0,0,0,1-.05-.05h-.11a2.2,2.2,0,0,0-1.35.65,11.09,11.09,0,0,0-2.38,3.08q3.83-.76,4.32-2.75a.42.42,0,0,1,.05-.16Z"/><path class="cls-1" d="M456.4,27.54a.52.52,0,0,1-.11.27,26.78,26.78,0,0,1-4.1,4.64q-3.24,2.92-5.24,2.92t-2.05-2.43a6.73,6.73,0,0,1,.49-2.32q-3.24,4-5.18,4-1.13,0-1.13-1.24a4.42,4.42,0,0,1,.27-1.35,12.69,12.69,0,0,1,5.94-7.29,9,9,0,0,1,3.4-1.13H449a2.48,2.48,0,0,1,2.21-1.35q-.43.76-.76,1.4a3.89,3.89,0,0,1,1.51.49.17.17,0,0,1-.16.11,0,0,0,0,1-.05-.05h-.11c-.29,0-.76-.07-1.4-.11q-.38.7-1.73,3.55-2,4.19-2,5.8,0,1.24,1.08,1.24a2,2,0,0,0,.81-.16q4.05-1.61,7.56-6.91c.07-.14.16-.21.27-.21A.14.14,0,0,1,456.4,27.54ZM448.73,24h-.05a4.38,4.38,0,0,0-2.86,1.13,16.09,16.09,0,0,0-4.75,7.45c-.07.36-.11.56-.11.59q0,.49.32.49a1.16,1.16,0,0,0,.59-.27,20.89,20.89,0,0,0,5.08-6.32Z"/><path class="cls-1" d="M464.55,22.57a.93.93,0,0,1-.16.43.7.7,0,0,1-.65.49,2,2,0,0,1-.51-.11,2.05,2.05,0,0,0-.57-.11q-1.24,0-1.57,2.11-.05.38-.16,3-.16,4.48-2.16,6.26a6.86,6.86,0,0,1-4.54,1.94,4.69,4.69,0,0,1-2.32-.67,2.61,2.61,0,0,1-1.4-1.7.41.41,0,0,0-.05-.16V34q0-.59,1.19-1.57a.44.44,0,0,1,.32-.11s.05,0,.05.11a2.44,2.44,0,0,0-.22.81,3.74,3.74,0,0,0,.49,1.46,2.49,2.49,0,0,0,2.43,1.4q3.51,0,4.16-5.18,0-.32.32-4.48a4.63,4.63,0,0,1,1.71-2.83A4.58,4.58,0,0,1,463.75,22Q464.55,22,464.55,22.57Z"/><path class="cls-1" d="M514,11.48a.58.58,0,0,1-.38.24h-1l-.27.05a1.29,1.29,0,0,0-.65.43q-.81,1.13-4.59,8.55-3.08,6.08-3.89,7.42a31.72,31.72,0,0,1-4.86,6.73Q492.2,41,485.67,41a11,11,0,0,1-4.21-.7.77.77,0,0,1-.54-.76q0-1.08.05-2.27c0-.18.05-.29.16-.32a.21.21,0,0,1,.16.22,3.55,3.55,0,0,0,3,3,9.81,9.81,0,0,0,2.38.27,10.64,10.64,0,0,0,3-.38q5.4-1.57,12.31-14.26a135.39,135.39,0,0,0,6.59-13.55.61.61,0,0,0,.05-.27c0-.18-.11-.27-.32-.27q-6.16,0-9.72,2.05-2.32,1.35-2.32,3a2.4,2.4,0,0,0,.22,1.08V18c0,.11,0,.16-.11.16s-.09-.05-.16-.16a3.3,3.3,0,0,1-.49-1.73q0-2.7,3.67-3.89a35.94,35.94,0,0,1,8.48-1.08q2.38-.11,5.89-.11Q513.91,11.18,514,11.48Z"/><path class="cls-1" d="M521.42,28.67a.31.31,0,0,1-.11.22,21.47,21.47,0,0,1-5,4.54,11.4,11.4,0,0,1-6.16,2.21q-2.54,0-2.54-2.27a5.49,5.49,0,0,1,.11-1.19,12.94,12.94,0,0,1,3-5.62q2.7-3.24,5.29-3.24,1.62,0,1.62,1,0,2.21-6.59,3.73a9.4,9.4,0,0,0-1.24,4.43q0,2.21,2,2.21a9,9,0,0,0,5.13-2.05,19.11,19.11,0,0,0,4-3.94.25.25,0,0,1,.27-.16A.14.14,0,0,1,521.42,28.67Zm-5.78-4q0-.59-.49-.65a0,0,0,0,1-.05-.05H515a2.2,2.2,0,0,0-1.35.65,11.09,11.09,0,0,0-2.38,3.08q3.83-.76,4.32-2.75a.42.42,0,0,1,.05-.16Z"/><path class="cls-1" d="M530.32,22.57a.93.93,0,0,1-.16.43.7.7,0,0,1-.65.49,2,2,0,0,1-.51-.11,2.05,2.05,0,0,0-.57-.11q-1.24,0-1.57,2.11-.05.38-.16,3-.16,4.48-2.16,6.26A6.86,6.86,0,0,1,520,36.61a4.69,4.69,0,0,1-2.32-.67,2.61,2.61,0,0,1-1.4-1.7.41.41,0,0,0-.05-.16V34q0-.59,1.19-1.57a.44.44,0,0,1,.32-.11s.05,0,.05.11a2.44,2.44,0,0,0-.22.81,3.74,3.74,0,0,0,.49,1.46,2.49,2.49,0,0,0,2.43,1.4q3.51,0,4.16-5.18,0-.32.32-4.48a4.63,4.63,0,0,1,1.71-2.83A4.58,4.58,0,0,1,529.52,22Q530.32,22,530.32,22.57Z"/><path class="cls-1" d="M546.31,28.4l-.11.22q-5.72,7.94-10,7.94-1.84,0-1.84-2a7,7,0,0,1,.54-2.43q-2.21,2.86-4,2.86-1.4,0-1.4-1.57a4.52,4.52,0,0,1,.32-1.57,42.18,42.18,0,0,1,4.1-8,1,1,0,0,1,.81-.49q.92,0,.92.7a50.61,50.61,0,0,1-2.48,4.54Q531,32.35,531,33.48q0,.81.65.81a2.37,2.37,0,0,0,1.51-.86,21.3,21.3,0,0,0,3.62-5.29q1-2,2-3.56c.14-.25.29-.38.43-.38a.59.59,0,0,1,.43.27,2.09,2.09,0,0,1,.49,1.24,4.06,4.06,0,0,1-1,2.05q-.54.65-1.51,1.94a8.7,8.7,0,0,0-1.78,5.13q0,1.19,1,1.19,2.05,0,5.67-3.51a26,26,0,0,0,3.51-4.16.21.21,0,0,1,.22-.16C546.25,28.19,546.31,28.26,546.31,28.4Z"/><path class="cls-1" d="M554.3,22.57a.93.93,0,0,1-.16.43.7.7,0,0,1-.65.49,2,2,0,0,1-.51-.11,2.05,2.05,0,0,0-.57-.11q-1.24,0-1.57,2.11-.05.38-.16,3-.16,4.48-2.16,6.26A6.86,6.86,0,0,1,544,36.61a4.69,4.69,0,0,1-2.32-.67,2.61,2.61,0,0,1-1.4-1.7.41.41,0,0,0-.05-.16V34q0-.59,1.19-1.57a.44.44,0,0,1,.32-.11s.05,0,.05.11a2.44,2.44,0,0,0-.22.81,3.74,3.74,0,0,0,.49,1.46,2.49,2.49,0,0,0,2.43,1.4q3.51,0,4.16-5.18,0-.32.32-4.48a4.63,4.63,0,0,1,1.71-2.83A4.58,4.58,0,0,1,553.5,22Q554.3,22,554.3,22.57Z"/><path class="cls-1" d="M610.24,19a15.1,15.1,0,0,1-3,8.72,17.32,17.32,0,0,1-7.1,6.13,21,21,0,0,1-8.59,1.67,14.26,14.26,0,0,1-6.7-1.35,1.91,1.91,0,0,0-.92-.27,3.91,3.91,0,0,0-1.57.59,5.71,5.71,0,0,1-1.24.59.14.14,0,0,1-.16-.16,10.27,10.27,0,0,1,1-1.45q1-1.35,1.11-1.56Q585,28.47,589,21.69q5-8.62,5-9.21,0-.27-.43-.27a25.24,25.24,0,0,0-3.35.32,25.2,25.2,0,0,1-3.35.32q-1,0-1-.86c0-.47.09-.7.27-.7q-.54,0,.68.3a8.75,8.75,0,0,0,1.59.3q.54,0,2.48-.11l2.7-.11,5.18-.16Q610.24,11.5,610.24,19Zm-2.59-.32a5.68,5.68,0,0,0-3.08-5.29A12.83,12.83,0,0,0,598.31,12a1.88,1.88,0,0,0-1.67.65,209.65,209.65,0,0,0-10.85,19.22,1.66,1.66,0,0,0-.22.65.93.93,0,0,0,.32.65Q587.72,35,591.5,35q8.15,0,12.58-6.26A17.41,17.41,0,0,0,607.65,18.63Z"/><path class="cls-1" d="M621.53,27.92a.52.52,0,0,1-.11.27,24.85,24.85,0,0,1-6,5.62,7.79,7.79,0,0,1-4.27,1.46q-2.38,0-2.38-1.84a5.75,5.75,0,0,1,.59-2.16,41.16,41.16,0,0,1,3.83-6.75,2.14,2.14,0,0,1,1.46-1,.15.15,0,0,0,.11-.05h.05c.25,0,.38.11.38.33a1,1,0,0,1-.16.49,31.76,31.76,0,0,0-3.89,8.08,3.8,3.8,0,0,0-.16.92q0,1.25,1.3,1.25a5.05,5.05,0,0,0,2.43-.76,19.83,19.83,0,0,0,6.53-5.88c.11-.11.18-.16.22-.16A.17.17,0,0,1,621.53,27.92Zm-2.54-12a1.94,1.94,0,0,1-.59,1.3,1.7,1.7,0,0,1-1.24.65.57.57,0,0,1-.65-.65,2.09,2.09,0,0,1,.54-1.35,1.59,1.59,0,0,1,1.24-.65A.62.62,0,0,1,619,15.93Z"/><path class="cls-1" d="M651.61.54a2.86,2.86,0,0,1-.32.7,6.88,6.88,0,0,0-.38.76q-.11.38-.38.38a.82.82,0,0,1-.32-.11,3.84,3.84,0,0,0-1.84-.43,5.88,5.88,0,0,0-3.29.92,23,23,0,0,0-5.62,6.16,123.53,123.53,0,0,0-13.34,23.92,7,7,0,0,0-.59,2.59q0,1.35,1.08,1.35a5,5,0,0,0,2.32-.86q3.62-2.16,7.13-8c.07-.11.14-.16.22-.16a.14.14,0,0,1,.16.16.92.92,0,0,1-.05.22q-3.56,5.78-7.18,8.15a5.9,5.9,0,0,1-3.13,1.19q-2,0-2-2.48,0-1.94,2.16-6.7-1.78,2.16-4.37,4.81a3.56,3.56,0,0,1-2.54,1.3q-1.19,0-1.19-1.24a4.85,4.85,0,0,1,.86-2.43q3.89-6.37,9.94-7.45Q639.29,4.64,647.29.81a7,7,0,0,1,3-.81Q651.61,0,651.61.54ZM628.55,24a6.29,6.29,0,0,0-4.64,2.48q-3.4,4.16-3.4,6.26c0,.25.09.38.27.38a.67.67,0,0,0,.49-.22,39.6,39.6,0,0,0,5.35-5.83A15.09,15.09,0,0,0,628.55,24Z"/></svg>