<svg id="Layer_1" data-name="Layer 1" xmlns="http://www.w3.org/2000/svg" viewBox="0 0 583.64 54.44"><defs><style>.cls-1{fill:#9c1519;}</style></defs><title>rev-mcnamee-caption</title><path class="cls-1" d="M12.17,18l1,1q-1.82,2.44-3.59,2.44a7.3,7.3,0,0,1-3-1,7.36,7.36,0,0,0-3.15-1q-1.56,0-2.39,2.18l-1-1a4,4,0,0,1,3.59-2.44A8.67,8.67,0,0,1,6.76,19a12.09,12.09,0,0,0,2.91,1Q10.82,20.07,12.17,18Z"/><path class="cls-1" d="M57.82,31.72a.25.25,0,0,1-.21.26,16.83,16.83,0,0,1-7.44,1.92,16,16,0,0,1-9.57-2.65,25.71,25.71,0,0,1-6.6-7.7l-4.32-7.38a.89.89,0,0,1-.16-.42q0-.31,1.25-.47.73,0,1.51-.05a10.93,10.93,0,0,0,5.36-1.82,5.79,5.79,0,0,0,2.5-4.84,3.3,3.3,0,0,0-1.66-3A6.32,6.32,0,0,0,35,4.73a2.26,2.26,0,0,0-1.82.68A78.46,78.46,0,0,0,27.09,15q-3.28,5.77-6,11-.42.78-2,.91t-1.9.91A.2.2,0,0,1,17,28a.18.18,0,0,1-.21-.21,8.32,8.32,0,0,1,1.2-2q1.45-2.08,2.34-3.54l5.15-8.37a93.26,93.26,0,0,0,4.68-8.32,1.72,1.72,0,0,0,.1-.42c0-.14-.12-.21-.36-.21A14,14,0,0,0,24,6.86a6.6,6.6,0,0,0-2.86,2.91c-.07.17-.16.26-.26.26a.18.18,0,0,1-.21-.21A8.16,8.16,0,0,1,20.9,9a7.06,7.06,0,0,0,.31-1,1,1,0,0,1,.62-.88,25.44,25.44,0,0,1,12.69-3q8.53,0,8.53,4.16a5.35,5.35,0,0,1-2.08,4,11.4,11.4,0,0,1-4,2.39,18.25,18.25,0,0,1-4.32,1c-.17,0-.26.07-.26.21a.82.82,0,0,0,.05.21,79.41,79.41,0,0,0,5.88,9.15q5.93,8,13,8a14.82,14.82,0,0,0,4-.83q2.65-.83,2.29-.83A.14.14,0,0,1,57.82,31.72Z"/><path class="cls-1" d="M55.9,20.9a.3.3,0,0,1-.1.21A20.67,20.67,0,0,1,51,25.48a11,11,0,0,1-5.93,2.13q-2.44,0-2.44-2.18a5.34,5.34,0,0,1,.1-1.14,12.47,12.47,0,0,1,2.86-5.41q2.6-3.12,5.1-3.12,1.56,0,1.56.94,0,2.13-6.34,3.59a9.05,9.05,0,0,0-1.2,4.26q0,2.13,1.92,2.13a8.63,8.63,0,0,0,4.94-2,18.42,18.42,0,0,0,3.9-3.8.24.24,0,0,1,.26-.16A.14.14,0,0,1,55.9,20.9ZM50.33,17q0-.57-.47-.62a0,0,0,0,1-.05-.05h-.1a2.12,2.12,0,0,0-1.3.62,10.67,10.67,0,0,0-2.29,3q3.69-.73,4.16-2.65a.4.4,0,0,1,.05-.16Z"/><path class="cls-1" d="M66,16.22a6.22,6.22,0,0,1-.68,2.55A22.27,22.27,0,0,1,55.79,29a.94.94,0,0,1-.47.16,1.57,1.57,0,0,1-.78-.39q-.52-.39-.52-.65l1.4-.68a2.41,2.41,0,0,0,1.4-2.29A28.45,28.45,0,0,0,56,21.42a5.13,5.13,0,0,1-.16-1.25q0-1.92,2.5-3.07a.21.21,0,0,1,.16-.05.14.14,0,0,1,.16.16.34.34,0,0,1-.16.21,2.48,2.48,0,0,0-.88,2q0-.62.52,3.54a5.67,5.67,0,0,1-.78,3.12.91.91,0,0,0-.16.36c0,.1,0,.16.1.16s.17-.07.31-.21a14,14,0,0,0,6.14-6,6.83,6.83,0,0,0,.78-3.07q0-3.28-2.18-3.43c-.21,0-.31-.07-.31-.21a.33.33,0,0,1,.26-.21,3.86,3.86,0,0,1,1-.21,2.48,2.48,0,0,1,1.95.86A3,3,0,0,1,66,16.22Z"/><path class="cls-1" d="M72.59,24.75a1.72,1.72,0,0,1-.1.42,3.3,3.3,0,0,1-1.87,2.08.9.9,0,0,1-.36.05q-.94,0-.94-.78v-.16a2.55,2.55,0,0,1,.7-1.69,2.07,2.07,0,0,1,1.59-.81.74.74,0,0,1,.31.05A.83.83,0,0,1,72.59,24.75Z"/><path class="cls-1" d="M151.21,4.32q0,.16-2.08.52-1.25.21-4.16,5.08a75.08,75.08,0,0,0-6.45,12.83,5.36,5.36,0,0,0-.36,1.83q0,2,2.18,2a10.56,10.56,0,0,0,4.42-1.45.21.21,0,0,1,.16-.05c.1,0,.16.07.16.21q0,.52-3,1.56a15.18,15.18,0,0,1-4.11,1q-2.76,0-2.76-2.13a4.89,4.89,0,0,1,.31-1.61,69.28,69.28,0,0,1,5.25-10.92A54.77,54.77,0,0,0,144,6.92c.07-.14.05-.21-.05-.21a.3.3,0,0,0-.21.1q-2,1.56-5,4.32l-6,5.41Q130.1,19,127.4,21.35a28.66,28.66,0,0,0-4.68,5.13,5.9,5.9,0,0,1-1.77,1,7.12,7.12,0,0,1-1.09.47q-.31,0-.31-.36,0-.52,3-8.71A94.41,94.41,0,0,0,126,7.54c0-.17,0-.26-.1-.26l-.21.1a115.08,115.08,0,0,0-16.07,15.55q-2.91,3.48-3.38,5.62a1.15,1.15,0,0,0-.05.36,2,2,0,0,0,.26.73.23.23,0,0,1-.26.26,2.22,2.22,0,0,1-1-.57,3.77,3.77,0,0,0-.73-.47q-.31-.05-.31-.31a6.16,6.16,0,0,1,1.56-2.44A178.32,178.32,0,0,1,125.27,6.76q.68-.57,1.46-1.2a7.68,7.68,0,0,1,1.4-.83q1.09-.31,3.07-.68c.17,0,.26.07.26.21s-.07.14-.21.21a2.22,2.22,0,0,0-1.72,1.3,81.39,81.39,0,0,0-6.24,17.47v.26c0,.24.07.36.2.36a2,2,0,0,0,.4-.24l8.48-7.53q3.23-3,11.82-10.59a2.29,2.29,0,0,1,1.3-.5q1.77-.44,5.36-.95C151.09,4.06,151.21,4.14,151.21,4.32Z"/><path class="cls-1" d="M163.28,18.25a.4.4,0,0,1-.05.16q-2.34,3.17-5,3.17a3.39,3.39,0,0,1-3.12-1.77q-3,5.93-6.08,7.38a3.76,3.76,0,0,1-1.56.42q-1.46,0-1.51-2-.05-2.86,3.07-6.6a8,8,0,0,1,5.51-3q.16-1.45,1-1.61a4.62,4.62,0,0,0,1-.26.21.21,0,0,1,.16-.05.23.23,0,0,1,.26.26q-.31.78-.68,2a9.8,9.8,0,0,0-.1,1.4q0,3.33,2.44,3.33T163,18.25a.2.2,0,0,1,.21-.16A.17.17,0,0,1,163.28,18.25Zm-8.63.52a8.43,8.43,0,0,1-.16-1.82v-.47a.59.59,0,0,0-.26-.05q-2.26.05-4.82,4.42a10,10,0,0,0-1.73,5q0,1,.73,1a1.19,1.19,0,0,0,.42-.1,9.69,9.69,0,0,0,3.48-3.48A23.05,23.05,0,0,0,154.64,18.77Z"/><path class="cls-1" d="M176.07,20.07a.51.51,0,0,1-.1.26,23.21,23.21,0,0,1-7,6.5,7.57,7.57,0,0,1-3.64,1.25q-1.61,0-1.61-1.51a6.53,6.53,0,0,1,1.09-3,34.78,34.78,0,0,0,2.7-5.41V18c0-.1,0-.16-.1-.16l-.21.05A23.2,23.2,0,0,0,162.44,22q-1,1.87-3.33,5.46-.26.26-.36.26t-.42-.52a2.36,2.36,0,0,1-.21-.78,1.76,1.76,0,0,1,.26-.83q.94-1.35,2.7-4.16,1.09-2.29,2.81-5.46a.47.47,0,0,1,.42-.26.91.91,0,0,1,.52.26q.31.26.31.47,0-.36-2,4.16a48.92,48.92,0,0,1,6.5-5,.8.8,0,0,1,.31-.1q.62,0,.62.57a1.14,1.14,0,0,1-.26.62,37.15,37.15,0,0,0-4.26,8,3,3,0,0,0-.21,1q0,1.3,1.25,1.3a3.35,3.35,0,0,0,1.46-.42A18.63,18.63,0,0,0,175.7,20a.21.21,0,0,1,.21-.1A.14.14,0,0,1,176.07,20.07Z"/><path class="cls-1" d="M184.18,15a.89.89,0,0,1-.16.42.67.67,0,0,1-.62.47,1.89,1.89,0,0,1-.49-.1,2,2,0,0,0-.55-.1q-1.2,0-1.51,2-.05.36-.16,2.91-.16,4.32-2.08,6a6.61,6.61,0,0,1-4.37,1.87A4.51,4.51,0,0,1,172,27.9a2.51,2.51,0,0,1-1.35-1.64.4.4,0,0,0-.05-.16V26q0-.57,1.14-1.51a.42.42,0,0,1,.31-.1s.05,0,.05.1a2.37,2.37,0,0,0-.21.78,3.59,3.59,0,0,0,.47,1.4A2.4,2.4,0,0,0,174.72,28q3.38,0,4-5,0-.31.31-4.32A4.45,4.45,0,0,1,180.68,16a4.41,4.41,0,0,1,2.73-1.53Q184.18,14.46,184.18,15Z"/><path class="cls-1" d="M195.2,20.18a.5.5,0,0,1-.1.26,23.93,23.93,0,0,1-5.82,5.41,7.5,7.5,0,0,1-4.11,1.4q-2.29,0-2.29-1.77a5.54,5.54,0,0,1,.57-2.08,39.74,39.74,0,0,1,3.69-6.5,2.06,2.06,0,0,1,1.4-.94.15.15,0,0,0,.1-.05h.05c.24,0,.36.1.36.31a.94.94,0,0,1-.16.47,30.61,30.61,0,0,0-3.74,7.79,3.68,3.68,0,0,0-.16.89q0,1.2,1.25,1.2a4.87,4.87,0,0,0,2.34-.73,19.09,19.09,0,0,0,6.29-5.66q.16-.16.21-.16A.17.17,0,0,1,195.2,20.18ZM192.76,8.63a1.87,1.87,0,0,1-.57,1.25,1.64,1.64,0,0,1-1.2.62.55.55,0,0,1-.62-.62,2,2,0,0,1,.52-1.3,1.53,1.53,0,0,1,1.2-.62A.6.6,0,0,1,192.76,8.63Z"/><path class="cls-1" d="M205.45,13.16a1.91,1.91,0,0,1-.26.94q-3.43,6.34-7,12.48-2.55,4.26-8.89,15a38.74,38.74,0,0,1-6.92,9.15,14.33,14.33,0,0,1-9.72,3.74,12.63,12.63,0,0,1-8.22-2.5,7.09,7.09,0,0,1-2.76-5.67A6,6,0,0,1,162,44.2c.07-.17.16-.26.26-.26a.17.17,0,0,1,.1.16v.16a6,6,0,0,0-.31,1.92,6.56,6.56,0,0,0,2.76,5.3,9.7,9.7,0,0,0,6.29,2q9.26,0,17.26-12.12a164.85,164.85,0,0,0,8.37-15.08q1.46-2.91,2.55-4.84-1.77,2.29-4.06,4.84a3.28,3.28,0,0,1-2.34,1.35q-1.09,0-1.09-1.3a4.67,4.67,0,0,1,.31-1.51,17.2,17.2,0,0,1,3.73-6q3.06-3.38,6-3.38h.57q1.1-1.73,1.78-3,.37-.67.68-.67Q205.45,11.8,205.45,13.16Zm-3.43,3a.85.85,0,0,1-.26-.05h-.26a4,4,0,0,0-2.55.68,15.52,15.52,0,0,0-4.89,8.57,3.14,3.14,0,0,0-.1.52c0,.28.09.42.26.42s.52-.23.94-.68A60,60,0,0,0,202,16.17Z"/><path class="cls-1" d="M221.78,20.07a.51.51,0,0,1-.1.26,23.21,23.21,0,0,1-7,6.5,7.57,7.57,0,0,1-3.64,1.25q-1.61,0-1.61-1.51a6.53,6.53,0,0,1,1.09-3,34.78,34.78,0,0,0,2.7-5.41V18c0-.1,0-.16-.1-.16l-.21.05A23.2,23.2,0,0,0,208.15,22q-1,1.87-3.33,5.46-.26.26-.36.26t-.42-.52a2.36,2.36,0,0,1-.21-.78,1.76,1.76,0,0,1,.26-.83q.94-1.35,2.7-4.16,1.09-2.29,2.81-5.46a.47.47,0,0,1,.42-.26.91.91,0,0,1,.52.26q.31.26.31.47,0-.36-2,4.16a48.92,48.92,0,0,1,6.5-5,.8.8,0,0,1,.31-.1q.62,0,.62.57a1.14,1.14,0,0,1-.26.62,37.15,37.15,0,0,0-4.26,8,3,3,0,0,0-.21,1q0,1.3,1.25,1.3a3.35,3.35,0,0,0,1.46-.42A18.63,18.63,0,0,0,221.41,20a.21.21,0,0,1,.21-.1A.14.14,0,0,1,221.78,20.07Z"/><path class="cls-1" d="M236.08,18.25a.4.4,0,0,1-.05.16q-2.34,3.17-5,3.17a3.39,3.39,0,0,1-3.12-1.77q-3,5.93-6.08,7.38a3.76,3.76,0,0,1-1.56.42q-1.46,0-1.51-2-.05-2.86,3.07-6.6a8,8,0,0,1,5.51-3q.16-1.45,1-1.61a4.62,4.62,0,0,0,1-.26.21.21,0,0,1,.16-.05.23.23,0,0,1,.26.26q-.31.78-.68,2a9.8,9.8,0,0,0-.1,1.4q0,3.33,2.44,3.33t4.37-2.81a.2.2,0,0,1,.21-.16A.17.17,0,0,1,236.08,18.25Zm-8.63.52a8.43,8.43,0,0,1-.16-1.82v-.47a.59.59,0,0,0-.26-.05q-2.26.05-4.82,4.42a10,10,0,0,0-1.73,5q0,1,.73,1a1.19,1.19,0,0,0,.42-.1,9.69,9.69,0,0,0,3.48-3.48A23.05,23.05,0,0,0,227.44,18.77Z"/><path class="cls-1" d="M243.93,16.43a7.48,7.48,0,0,1-.52.86q-.52.81-.57.94c0,.09-.12.13-.26.13s-.09,0-.16-.1a1.77,1.77,0,0,0-1.72-.88q-2.29,0-5.2,4.26-1.25,1.82-3.69,5.51-.05.16-.31.16-.52,0-.52-.78a2.16,2.16,0,0,1,.36-.94l2.55-4.52,2.81-4.94q.21-.42.47-.42.83,0,.83.94a17.37,17.37,0,0,1-1.35,2.55c-.07.17-.09.26-.05.26a.65.65,0,0,0,.26-.16,15.71,15.71,0,0,1,2.76-2.24,6.5,6.5,0,0,1,3.17-1.35Q243.93,15.7,243.93,16.43Z"/><path class="cls-1" d="M293.54,3.38a1.73,1.73,0,0,1-.29.55,3.48,3.48,0,0,0-.34.6.62.62,0,0,1-.62.52q-3.64.05-8,.26a1,1,0,0,0-.88.62q-1.72,2.81-4.78,8.84a2.15,2.15,0,0,0-.1.36q0,.83,3.12.83a25.28,25.28,0,0,0,6.45-.78.58.58,0,0,1,.26-.05.23.23,0,0,1,.26.26q0,.88-1,.94-2.13.16-6.14.16-.52,0-1.59-.1t-1.59-.1a.7.7,0,0,0-.68.42q-1.82,3.33-2.18,4.06A30.84,30.84,0,0,0,273.62,25a2.57,2.57,0,0,0-.16.78q0,.78,1.33,1a6.94,6.94,0,0,1,1.33.29q0,.26-.36.26h-3.69q-2-.1-2-.88a1.45,1.45,0,0,1,.21-.73q1.35-2.28,4.73-8.2,2.34-4.2,3.22-5.86a42.64,42.64,0,0,0,2.65-6.07q0-.16-.36-.26a17.79,17.79,0,0,0-1.92-.1c-.24,0-.36-.09-.36-.26s.16-.21.47-.21h4.63A34,34,0,0,0,289.4,4l3.93-.75C293.47,3.22,293.54,3.28,293.54,3.38Z"/><path class="cls-1" d="M300.14,16.43a7.45,7.45,0,0,1-.52.86q-.52.81-.57.94c0,.09-.12.13-.26.13s-.09,0-.16-.1a1.77,1.77,0,0,0-1.72-.88q-2.29,0-5.2,4.26-1.25,1.82-3.69,5.51c0,.1-.14.16-.31.16q-.52,0-.52-.78a2.16,2.16,0,0,1,.36-.94l2.55-4.52,2.81-4.94c.14-.28.29-.42.47-.42q.83,0,.83.94a17.28,17.28,0,0,1-1.35,2.55c-.07.17-.09.26-.05.26a.65.65,0,0,0,.26-.16,15.71,15.71,0,0,1,2.76-2.24A6.5,6.5,0,0,1,299,15.7Q300.14,15.7,300.14,16.43Z"/><path class="cls-1" d="M315.74,19.81a.51.51,0,0,1-.1.26,25.75,25.75,0,0,1-4,4.47q-3.12,2.81-5,2.81t-2-2.34a6.45,6.45,0,0,1,.47-2.24q-3.12,3.85-5,3.85-1.09,0-1.09-1.2a4.27,4.27,0,0,1,.26-1.3,12.22,12.22,0,0,1,5.72-7A8.7,8.7,0,0,1,308.3,16h.31a2.39,2.39,0,0,1,2.13-1.3q-.42.73-.73,1.35a3.75,3.75,0,0,1,1.46.47.17.17,0,0,1-.16.1,0,0,0,0,1-.05-.05h-.1q-.42-.05-1.35-.1-.36.67-1.66,3.42-1.92,4-1.92,5.59,0,1.19,1,1.19a2,2,0,0,0,.78-.16q3.9-1.55,7.28-6.66c.07-.14.16-.21.26-.21A.14.14,0,0,1,315.74,19.81Zm-7.38-3.38h-.05a4.22,4.22,0,0,0-2.76,1.09A15.49,15.49,0,0,0,301,24.7q-.1.52-.1.57,0,.47.31.47a1.12,1.12,0,0,0,.57-.26,20.12,20.12,0,0,0,4.89-6.08Z"/><path class="cls-1" d="M329.26,20.07a.51.51,0,0,1-.1.26,23.21,23.21,0,0,1-7,6.5,7.57,7.57,0,0,1-3.64,1.25q-1.61,0-1.61-1.51a6.53,6.53,0,0,1,1.09-3,34.87,34.87,0,0,0,2.7-5.41V18c0-.1,0-.16-.1-.16l-.21.05A23.23,23.23,0,0,0,315.63,22q-1,1.87-3.33,5.46-.26.26-.36.26t-.42-.52a2.33,2.33,0,0,1-.21-.78,1.75,1.75,0,0,1,.26-.83q.94-1.35,2.7-4.16,1.09-2.29,2.81-5.46a.47.47,0,0,1,.42-.26A.91.91,0,0,1,318,16q.31.26.31.47,0-.36-2,4.16a49,49,0,0,1,6.5-5,.8.8,0,0,1,.31-.1q.62,0,.62.57a1.14,1.14,0,0,1-.26.62,37.15,37.15,0,0,0-4.26,8,3,3,0,0,0-.21,1q0,1.3,1.25,1.3a3.35,3.35,0,0,0,1.46-.42A18.63,18.63,0,0,0,328.89,20a.21.21,0,0,1,.21-.1A.14.14,0,0,1,329.26,20.07Z"/><path class="cls-1" d="M340.18,19.76a.66.66,0,0,1-.16.31q-4.32,5.3-8,6.76a8.09,8.09,0,0,1-2.81.68q-2.76,0-2.76-2.5a5.47,5.47,0,0,1,.47-2,12.68,12.68,0,0,1,6.92-7.28,2.77,2.77,0,0,1,1-.26,1.92,1.92,0,0,1,1.82,1.4,1.22,1.22,0,0,1,.1.36c0,.17-.16.4-.47.68l-.73.68a.57.57,0,0,1-.36.21c-.1,0-.16-.07-.16-.21v-.1a1.37,1.37,0,0,0,.05-.42q0-1.35-1.66-1.35-1.87,0-3.64,3.43a8.66,8.66,0,0,0-1.14,3.74v.57q0,2.18,1.92,2.18t5.1-2.6a29.57,29.57,0,0,0,4.11-4.21.42.42,0,0,1,.26-.16C340.12,19.66,340.18,19.69,340.18,19.76Z"/><path class="cls-1" d="M349.22,20.18a.51.51,0,0,1-.1.26,24,24,0,0,1-5.82,5.41,7.5,7.5,0,0,1-4.11,1.4q-2.29,0-2.29-1.77a5.54,5.54,0,0,1,.57-2.08,39.75,39.75,0,0,1,3.69-6.5,2.06,2.06,0,0,1,1.4-.94.15.15,0,0,0,.1-.05h.05c.24,0,.36.1.36.31a.94.94,0,0,1-.16.47,30.61,30.61,0,0,0-3.74,7.79,3.69,3.69,0,0,0-.16.89q0,1.2,1.25,1.2a4.87,4.87,0,0,0,2.34-.73,19.1,19.1,0,0,0,6.29-5.66q.16-.16.21-.16A.17.17,0,0,1,349.22,20.18ZM346.78,8.63a1.87,1.87,0,0,1-.57,1.25,1.64,1.64,0,0,1-1.2.62.55.55,0,0,1-.62-.62,2,2,0,0,1,.52-1.3A1.53,1.53,0,0,1,346.1,8,.6.6,0,0,1,346.78,8.63Z"/><path class="cls-1" d="M357.39,15a.88.88,0,0,1-.16.42.67.67,0,0,1-.62.47,1.88,1.88,0,0,1-.49-.1,2,2,0,0,0-.55-.1q-1.2,0-1.51,2-.05.36-.16,2.91-.16,4.32-2.08,6a6.61,6.61,0,0,1-4.37,1.87,4.51,4.51,0,0,1-2.24-.65,2.51,2.51,0,0,1-1.35-1.64.41.41,0,0,0-.05-.16V26q0-.57,1.14-1.51a.42.42,0,0,1,.31-.1s.05,0,.05.1a2.34,2.34,0,0,0-.21.78,3.58,3.58,0,0,0,.47,1.4A2.4,2.4,0,0,0,347.92,28q3.38,0,4-5,0-.31.31-4.32A4.45,4.45,0,0,1,353.89,16a4.41,4.41,0,0,1,2.73-1.53Q357.39,14.46,357.39,15Z"/><path class="cls-1" d="M411.83,6.6q-.05.16-.57,1.4c-.07.17-.16.43-.26.78a9.43,9.43,0,0,1-.83,1.51.42.42,0,0,1-.26.16c-.1,0-.16-.07-.16-.21a.85.85,0,0,1,.05-.26,1.52,1.52,0,0,0,.31-.94q0-2.13-2.5-3.43a9.64,9.64,0,0,0-4.37-1q-8,0-13.94,10.71-2.6,4.68-2.6,7.75,0,4.37,5.46,4.21a12.9,12.9,0,0,0,6.81-2q5.77-3.74,7.23-7.75a1.29,1.29,0,0,0,.16-.57q0-.36-.57-.36t-1.79.1q-1.17.1-1.79.1-.47,0-.47-.31t.47-.26h.73a29.26,29.26,0,0,0,3.28-.22q2.81-.33,4-.61h.16c.21,0,.31.05.31.16s-.12.28-.36.31a2.5,2.5,0,0,0-1.61,1.46q-1.77,4-3.54,7.87a32.27,32.27,0,0,1-4.58,7.3q-5,5.78-10.87,5.79a7.65,7.65,0,0,1-2.7-.42c-.17-.07-.26-.16-.26-.26s.07-.16.21-.16a.4.4,0,0,1,.16.05,7.31,7.31,0,0,0,2.6.42A10.63,10.63,0,0,0,396.65,35a19.55,19.55,0,0,0,4.73-6,52.25,52.25,0,0,0,2.76-6.45q.16-.42-.21-.42a.43.43,0,0,0-.26.16q-5.3,5.3-11.49,5.41a9.56,9.56,0,0,1-5.3-1.25,5.17,5.17,0,0,1-2.39-4.63,11.32,11.32,0,0,1,.78-3.85,22.87,22.87,0,0,1,6.45-9.46A19,19,0,0,1,404.76,4q4.84,0,6.76,1.92A.94.94,0,0,1,411.83,6.6Z"/><path class="cls-1" d="M415.06,24.75a1.71,1.71,0,0,1-.1.42,3.3,3.3,0,0,1-1.87,2.08.91.91,0,0,1-.36.05q-.94,0-.94-.78v-.16a2.55,2.55,0,0,1,.7-1.69,2.07,2.07,0,0,1,1.59-.81.74.74,0,0,1,.31.05A.83.83,0,0,1,415.06,24.75Z"/><path class="cls-1" d="M493.68,4.32q0,.16-2.08.52-1.25.21-4.16,5.08A75,75,0,0,0,481,22.75a5.36,5.36,0,0,0-.36,1.83q0,2,2.18,2a10.56,10.56,0,0,0,4.42-1.45.21.21,0,0,1,.16-.05c.1,0,.16.07.16.21q0,.52-3,1.56a15.17,15.17,0,0,1-4.11,1q-2.76,0-2.76-2.13a4.89,4.89,0,0,1,.31-1.61,69.19,69.19,0,0,1,5.25-10.92,54.62,54.62,0,0,0,3.22-6.34c.07-.14.05-.21-.05-.21a.3.3,0,0,0-.21.1q-2,1.56-5,4.32l-6,5.41q-2.65,2.43-5.36,4.81a28.7,28.7,0,0,0-4.68,5.13,5.89,5.89,0,0,1-1.77,1,7.12,7.12,0,0,1-1.09.47q-.31,0-.31-.36,0-.52,3-8.71a94.32,94.32,0,0,0,3.54-11.31c0-.17,0-.26-.1-.26l-.21.1a115.11,115.11,0,0,0-16.07,15.55q-2.91,3.48-3.38,5.62a1.14,1.14,0,0,0-.05.36,2,2,0,0,0,.26.73.23.23,0,0,1-.26.26,2.22,2.22,0,0,1-1-.57,3.76,3.76,0,0,0-.73-.47q-.31-.05-.31-.31a6.16,6.16,0,0,1,1.56-2.44A178.29,178.29,0,0,1,467.73,6.76q.68-.57,1.46-1.2a7.7,7.7,0,0,1,1.4-.83q1.09-.31,3.07-.68c.17,0,.26.07.26.21s-.07.14-.21.21A2.22,2.22,0,0,0,472,5.77a81.39,81.39,0,0,0-6.24,17.47v.26c0,.24.07.36.2.36a2,2,0,0,0,.4-.24l8.48-7.53q3.23-3,11.82-10.59A2.29,2.29,0,0,1,488,5q1.77-.44,5.36-.95Q493.68,4.06,493.68,4.32Z"/><path class="cls-1" d="M502.36,19.76a.66.66,0,0,1-.16.31q-4.32,5.3-8,6.76a8.09,8.09,0,0,1-2.81.68q-2.76,0-2.76-2.5a5.47,5.47,0,0,1,.47-2A12.68,12.68,0,0,1,496,15.7a2.77,2.77,0,0,1,1-.26,1.92,1.92,0,0,1,1.82,1.4,1.22,1.22,0,0,1,.1.36c0,.17-.16.4-.47.68l-.73.68a.57.57,0,0,1-.36.21c-.1,0-.16-.07-.16-.21v-.1a1.37,1.37,0,0,0,.05-.42q0-1.35-1.66-1.35-1.87,0-3.64,3.43a8.66,8.66,0,0,0-1.14,3.74v.57q0,2.18,1.92,2.18t5.1-2.6a29.57,29.57,0,0,0,4.11-4.21.42.42,0,0,1,.26-.16C502.31,19.66,502.36,19.69,502.36,19.76Z"/><path class="cls-1" d="M537.67,1.09c0,.07-.05.1-.16.1H537q-2.44,0-5.2,3.9A100.92,100.92,0,0,0,522.54,22q-.68,1.51-2.34,5.3c-.1.24-.21.36-.31.36s-.29-.12-.47-.36A106.87,106.87,0,0,1,511,9q-.26-.68-.57-.68t-.68.62a118.56,118.56,0,0,0-10.4,19,13.11,13.11,0,0,0-1.09,4.84c0,.21,0,.31-.1.31s-.38-.4-.62-1.09a5.4,5.4,0,0,1-.36-1.4,5.42,5.42,0,0,1,.68-2.34q1.46-3,8-14,4.06-6.86,4.06-8.11Q509.9,5,508.65,5q-.47,0-1.33.08T506,5.2q-.62,0-.62-.73c0-.17.1-.26.31-.26h.16a8.75,8.75,0,0,0,2.5.31,9.76,9.76,0,0,0,1.9-.26A9.68,9.68,0,0,1,512,4a.41.41,0,0,1,.47.47,17,17,0,0,0,.42,2.6,44.39,44.39,0,0,0,7.18,15.24q.41.57.73.57t.62-.52A217.39,217.39,0,0,1,532.21,3.22Q534.34,0,536.06,0a2.09,2.09,0,0,1,1,.34Q537.67.68,537.67,1.09Z"/><path class="cls-1" d="M544.53,19.81a.51.51,0,0,1-.1.26,25.75,25.75,0,0,1-4,4.47q-3.12,2.81-5,2.81t-2-2.34a6.45,6.45,0,0,1,.47-2.24q-3.12,3.85-5,3.85-1.09,0-1.09-1.2a4.27,4.27,0,0,1,.26-1.3,12.22,12.22,0,0,1,5.72-7A8.7,8.7,0,0,1,537.1,16h.31a2.39,2.39,0,0,1,2.13-1.3q-.42.73-.73,1.35a3.75,3.75,0,0,1,1.46.47.17.17,0,0,1-.16.1,0,0,0,0,1-.05-.05H540q-.42-.05-1.35-.1-.36.67-1.66,3.42-1.92,4-1.92,5.59,0,1.19,1,1.19a2,2,0,0,0,.78-.16q3.9-1.55,7.28-6.66c.07-.14.16-.21.26-.21A.14.14,0,0,1,544.53,19.81Zm-7.38-3.38h-.05a4.22,4.22,0,0,0-2.76,1.09,15.49,15.49,0,0,0-4.58,7.18q-.1.52-.1.57,0,.47.31.47a1.12,1.12,0,0,0,.57-.26,20.12,20.12,0,0,0,4.89-6.08Z"/><path class="cls-1" d="M561.8,21.63a.89.89,0,0,1-.16.36q-5.36,6.19-8.53,6.19a1.68,1.68,0,0,1-1.92-1.87,4.05,4.05,0,0,1,.31-1.51q.88-1.61,2.65-5.46a1.17,1.17,0,0,0,.1-.52c0-.21-.09-.31-.26-.31a1.77,1.77,0,0,0-.62.26,12.61,12.61,0,0,0-3.07,2.55,27.16,27.16,0,0,0-1.87,2.39,20.88,20.88,0,0,1-1.3,2.24q-.26.31-.47.31a.63.63,0,0,1-.44-.29.84.84,0,0,1-.23-.49,1.28,1.28,0,0,1,.21-.73,17.18,17.18,0,0,0,2.5-5.25c0,.07,0,0,.05-.26s-.07-.31-.21-.31a.45.45,0,0,0-.31.16A20.36,20.36,0,0,0,542.76,25q-.36.52-1.25,1.92a.57.57,0,0,1-.36.21q-.52,0-.52-1.09a1.3,1.3,0,0,1,.16-.68q2.18-3.64,5.1-8.84c.17-.31.36-.47.57-.47q.68,0,.68.78a1.56,1.56,0,0,1-.16.52q-.62,1.46-1.82,3.74l-.05.16.1-.1a28.88,28.88,0,0,1,4.37-3.74,1.49,1.49,0,0,1,.78-.26c.45,0,.68.24.68.73a11,11,0,0,1-.75,1.87q-.75,1.66-.81,1.72a0,0,0,0,0,.05.05s.09,0,.16-.1a29.31,29.31,0,0,1,4.26-3.74,3.51,3.51,0,0,1,1.82-.83q.83,0,.83.78,0,.11-2.18,4.5a21.15,21.15,0,0,0-1.3,3.47,3.25,3.25,0,0,0-.16.93q0,1,.88,1a2.49,2.49,0,0,0,1-.26,17.92,17.92,0,0,0,6.5-5.52c.14-.17.26-.26.36-.26S561.8,21.53,561.8,21.63Z"/><path class="cls-1" d="M573,20.9a.3.3,0,0,1-.1.21,20.68,20.68,0,0,1-4.78,4.37,11,11,0,0,1-5.93,2.13q-2.44,0-2.44-2.18a5.37,5.37,0,0,1,.1-1.14,12.49,12.49,0,0,1,2.86-5.41q2.6-3.12,5.1-3.12,1.56,0,1.56.94,0,2.13-6.34,3.59a9.05,9.05,0,0,0-1.2,4.26q0,2.13,1.92,2.13a8.63,8.63,0,0,0,4.94-2,18.43,18.43,0,0,0,3.9-3.8.24.24,0,0,1,.26-.16A.14.14,0,0,1,573,20.9ZM567.41,17q0-.57-.47-.62a0,0,0,0,1-.05-.05h-.1a2.12,2.12,0,0,0-1.3.62,10.67,10.67,0,0,0-2.29,3q3.69-.73,4.16-2.65a.4.4,0,0,1,.05-.16Z"/><path class="cls-1" d="M583.64,20.9a.3.3,0,0,1-.1.21,20.68,20.68,0,0,1-4.78,4.37,11,11,0,0,1-5.93,2.13q-2.44,0-2.44-2.18a5.37,5.37,0,0,1,.1-1.14,12.49,12.49,0,0,1,2.86-5.41q2.6-3.12,5.1-3.12,1.56,0,1.56.94,0,2.13-6.34,3.59a9.05,9.05,0,0,0-1.2,4.26q0,2.13,1.92,2.13a8.63,8.63,0,0,0,4.94-2,18.43,18.43,0,0,0,3.9-3.8.24.24,0,0,1,.26-.16A.14.14,0,0,1,583.64,20.9ZM578.07,17q0-.57-.47-.62a0,0,0,0,1-.05-.05h-.1a2.12,2.12,0,0,0-1.3.62,10.67,10.67,0,0,0-2.29,3q3.69-.73,4.16-2.65a.4.4,0,0,1,.05-.16Z"/></svg>