<svg id="Layer_1" data-name="Layer 1" xmlns="http://www.w3.org/2000/svg" viewBox="0 0 1642.54 347.07"><defs><style>.cls-1,.cls-3{fill:#fff;}.cls-1,.cls-2{fill-rule:evenodd;}.cls-2{fill:#9c1519;}</style></defs><title>usccb-logo</title><path class="cls-1" d="M163.54,240.71c0,18.48-.11,37,.08,55.45,0,4.06-.56,5.31-5.15,4.67-59-8.21-103.9-54.35-110.25-113.58-.75-7-.75-7,6.22-7,34.64,0,69.28.06,103.91-.1,4,0,5.36.84,5.3,5.11-.24,18.48-.1,37-.1,55.45Z"/><path class="cls-1" d="M186.77,240.53c0-18.66.1-37.33-.09-56,0-3.53.92-4.4,4.42-4.38q53.24.21,106.49,0c4.15,0,4.81,1.22,4.55,5-3.93,58.77-53.25,109.83-112,115.93-4,.42-3.43-1.75-3.43-4.08Q186.78,268.77,186.77,240.53Z"/><path class="cls-1" d="M105.76,156.85c-17.32,0-34.63-.09-51.95.07-3.81,0-5.14-.44-4.31-4.86,10.44-55.5,53.13-96.25,109.42-104.33,3.95-.57,4.72.5,4.71,4.27q-.22,50,0,99.9c0,3.78-.77,5.12-4.89,5.06C141.07,156.7,123.41,156.85,105.76,156.85Z"/><path class="cls-1" d="M243.78,156.84c-17.5,0-35-.07-52.49.07-3.24,0-4.63-.46-4.61-4.23q.23-50.49,0-101c0-3.56.79-4.49,4.45-4,56.1,7.92,98.51,48.17,109.46,103.85.82,4.16.2,5.44-4.34,5.37C278.78,156.68,261.28,156.84,243.78,156.84Z"/><path class="cls-1" d="M110.93,307.63c-6,2.09-13.63,16.33-11.74,22l-9.48-5.56c2.92-.62,5-1.19,5.85-3.31.81-1.95,3.62-4.19,2.36-5.6-2.1-2.37-5.32-3.94-8.33-5.22-1.71-.73-5.31,6.8-4.5,9.35.22.7,1.33,1.1.58,2.39L77,316.88c7.18-3.61,8.5-11.27,12.49-17a2.19,2.19,0,0,0-.45-3.15c-2.08-1.52-2,1.58-3.49,1.68-1.29-.87.23-2-.2-3.1a7.12,7.12,0,0,0-3.76-3.82c-1.93-.87-2.51,1.16-3.4,2.18-2.41,2.75-4.65,5.66-7,8.45-2,2.39-4.47,4.63-2.26,8.43l-8.85-7.27c3.87,1.27,5.71-1.19,7.62-3.57,2.29-2.85,4.76-5.58,6.89-8.55.88-1.23,3.67-2.25,1.52-4.4-1.74-1.74-3.74-3.6-6.51-1.49a6.75,6.75,0,0,1-1.35.6c2.58-5.45,3.28-5.52,7.69-1.92,6.8,5.54,13.15,11.71,22.09,15.92-5.1.87-6.54,4.08-7.42,7.57-.23.89,8.28,5.53,9.22,5.21,2.11-.73,3.47-6.32,2.38-10.16Z"/><path class="cls-1" d="M267.76,319.85l-8.61,5.49c.32-7.08-8.39-19.61-14.34-20.42l8.53-5.57c-.42,3.84,2.18,9.71,4.17,9.74,1.18,0,8.48-5.53,8.44-6.42-.12-2.71-4.34-5.85-8.71-5.75l9.16-6c-.65,6.4,8.42,19.47,14.44,20.37l-8.39,5.55c-1.29-1.58.6-2.95-.22-4.36-1.41-2.42-2.47-6.37-4.78-6.55-3.05-.23-5.89,2.73-8.34,4.88-1.68,1.47,3.39,8.16,6.36,8.42C266.21,319.27,267,318.51,267.76,319.85Z"/><path class="cls-1" d="M202.44,345.3c4-6.87,0-22.56-5.15-24.79,4.77-.77,9.15-3.25,14.1-3.1,4.35.14,6.77,3.33,5.54,7.46-.53,1.79-1,2.62,1.14,3.57,2.95,1.3,3.66,4.11,3.31,7.14a6.83,6.83,0,0,1-4.71,5.89C212.47,343.11,207.84,342.68,202.44,345.3Z"/><path class="cls-1" d="M292.51,45.35c3.19,3,6.17,5.64,8.89,8.5,1.88,2,3.16,4.39,1.79,7.24s-3.36,4.58-6.67,4c-1.09-.19-2.05-.4-2.33.93-.81,3.93-3.79,7.47-2.08,12.2-3.72-.52-5-2.56-4.2-5.82a59.71,59.71,0,0,1,2.15-6.61c.63-1.75,1.46-3.56-.5-4.93-2.15-1.49-2.85.9-3.94,1.82-2.14,1.8-4.43,3.72-2.74,7.35-3-1.87-4.51-4.79-7.33-6.81,5.49,0,7.83-4.12,10.74-7.17S294.17,51.35,292.51,45.35Z"/><path class="cls-1" d="M40.16,108.26c-2.07-6.58-16.37-14.51-21.22-12.32,3-4.75,4.37-10.43,8.73-14.37s9.38-4,14.47-.23c5.52,4.11,7.27,10.74,4.14,16.75C44.56,101.42,42.43,104.54,40.16,108.26Z"/><path class="cls-1" d="M297.94,291.56c-.11,6.85-6.2,12.81-12.85,12.57-6.94-.25-13.1-6.86-12.94-13.9.15-6.84,6.27-12.82,12.87-12.58C292,277.92,298.06,284.44,297.94,291.56Z"/><path class="cls-1" d="M132.13,323.42c0,7.44-5.86,13.73-12.86,13.86a12.5,12.5,0,0,1-12.85-12.41c0-7.77,6-13.87,13.4-13.71C126.9,311.29,132.15,316.52,132.13,323.42Z"/><path class="cls-1" d="M306.47,102.5l-3.87-7.66c6.74,1.34,20.18-6,21.74-11.65,3.18,3.15,3.05,6.39,1,10.26a98.26,98.26,0,0,0-6.23,15.19c4.73-3.07,12-2.61,13.2-10.75l3.82,7.06c-9.3-.46-15.39,6.94-24.43,9.28l10-23.25C316.25,94.13,308.23,93.74,306.47,102.5Z"/><path class="cls-1" d="M223.21,16c.1,7.77-5.37,13.79-12.66,13.91S198,25,197.8,18c-.19-7.94,5.58-14.33,12.89-14.28A12.21,12.21,0,0,1,223.21,16Z"/><path class="cls-1" d="M337.13,168.28c7.72,0,13.54,5.54,13.52,12.87,0,7.1-5.49,12.38-12.8,12.34-7.74,0-13.5-5.58-13.46-12.94S329.64,168.28,337.13,168.28Z"/><path class="cls-1" d="M226.85,26.14c1.07-2.78,2.06-5.58,3.21-8.32s2.71-5.68-1-8.85c5.38.66,7.5,3,8.41,7.26,1.1,5.17,2.93,10.19,4.46,15.26.08.25.36.44,1.16,1.38.56-6.2,7.71-10.49,1.88-17.85l8.3,3.31C245.76,23.93,246,33.52,240.44,41l-7.6-25.19-5,11.61C226.86,27.47,226.4,27.17,226.85,26.14Z"/><path class="cls-1" d="M301,274.5c2.59-6.13.75-10-4.12-10.22a4.38,4.38,0,0,0-4.2,2.17c-1.17,1.92.61,2.72,1.64,3.57,3.71,3.08,7.54,6,11.3,9,1.82,1.46,3.71,2.27,6.23,1l-6.35,8.31c-.17-6-4.52-7.87-7.93-10.28s-5.68-7.55-12.22-4.28c2.7-3.72,4.71-6.62,6.84-9.42,2-2.65,4.53-4.6,8.09-3.63a7.06,7.06,0,0,1,5.26,5.5C306.33,269.75,304.72,272.31,301,274.5Z"/><path class="cls-1" d="M143.1,22.07c.15,7.42-.48,7.8-16,10.52,3.42-4.51.81-8.67-.49-12.61s.26-9.62-6.28-10.92c4.83-1.36,9.63-2.87,14.51-4,3.65-.86,2.34,2.54,3.23,4.34-3.2-2.66-6.86-3.22-9.24-.09-1.39,1.84-.24,5.85,1.73,7.13,3,1.94,4.29-1.48,5.84-4.16l2.67,8.83c-2.75-2.67-5.11-4.09-7.74-1.85-.91.78,1.32,8.89,2.59,9.16C138.54,29.36,140.63,26,143.1,22.07Z"/><path class="cls-1" d="M21.66,105.49l9.39,3.73c-4.4.06-6.42,1.55-6.46,4.77,0,1.13,7.87,4.46,8.83,3.66,3.85-3.2,2.21-7,.49-11.3,4.28,2.12,5.58,4.72,3.78,8.62-1.57,3.42-3.09,6.86-4.7,10.43-3.44-6-18.11-11.51-23.28-8.47,2-5,3.66-9.56,5.6-14.06,1.7-3.94,3.58-.47,6.75-.31-5,1.33-8.39,5.23-7.08,7.27,1.49,2.31,4.68,3.83,6.79,3.12C25,111.87,23.76,108.8,21.66,105.49Z"/><path class="cls-1" d="M274.8,31.24c3.86,3,7.11,5.49,10.41,8,3.85,2.87,3.87,2.84-.22,7.17,1.11-4.57-.94-7-4.62-8.09-1.07-.33-5.37,5-5.18,6.18.28,1.61,3.05,2.47,7,1.86L277,53.79c.34-3.79.06-6.5-3.16-7.25-1.13-.26-6.42,6.39-5.86,7.52,2.06,4.14,5.82,4.17,11.09,3.3-3.25,3.12-5.67,4.37-8.71,2.12-3.28-2.43-6.37-5.11-9.65-7.77C267.43,49.7,276.48,36.94,274.8,31.24Z"/><path class="cls-1" d="M305.86,90.86c-10,3.58-9.1-7.71-14.65-10.82,5.55.68,8.54-3.28,12-5.94,3.22-2.47,8.65-3.6,6.91-10.53,3.69,4.84,7,8.8,9.84,13,2.18,3.19-1.94,2.89-2.88,4.51-.52-1.71,1.57-3.11.25-4.86-1.07-1.43-1.55-3.95-3.5-3.82-2.67.17-5.7,2.08-6.16,4.32-.65,3.17,2.73,3.67,6.06,3.88l-7.5,6c2.16-3.92,2.13-6.46-.74-8.1-.93-.53-8,4.41-7.78,5.63C298.37,88.71,302.12,89.68,305.86,90.86Z"/><path class="cls-1" d="M65.21,272.28c-3,9.21-9.15,16.57-10.72,26.13L47.64,291c4.94.8,6.84-2.19,6.22-5.44-.48-2.5-2.74-5.91-6-5.57-2.94.3-6.63,1.65-4.38,6.44L38,280.23C47.53,279.34,55.59,274.31,65.21,272.28Z"/><path class="cls-1" d="M98.57,46.44c1.91-5-.93-7.5-3.87-7.42-2.5.07-6.49,1.44-6.67,5.33-.14,2.91.64,5.87,5.24,5.18l-6.34,3.88L83.44,25.1c8.53,5.14,14.94,12,23.55,16Z"/><path class="cls-1" d="M28.66,142.25c-1.2-3.78-4.13-4.54-7.28-5.21s-6.39-1.87-9.65-2.42c-1.6-.27-3.78-2.64-5.06.51-1,2.45-1.41,4.86,1.54,6.44.39.21.6.74.95,1.18-6.6-.79-6.54-.78-4.82-6.92a110.63,110.63,0,0,0,2.88-11.58c.73-4.37,2.82-4.54,6.12-2.7-.54,1.44-2.07.68-2.87,1.53a7.06,7.06,0,0,0-1.84,5c0,1.94,2.09,1.81,3.44,2.19,3.67,1,7.36,2,11.06,2.91,2.77.68,5.72,1.8,8-1.7Z"/><path class="cls-1" d="M269.32,33.47c.07-4.33-2.75-5.95-6.11-6.83-1.19-.31-4.94,5.49-4.34,6.68,1.63,3.21,4.39,1.81,7.4.94L262.1,41.6c-.55-1.84-.12-3.66-1.91-4.85s-3.21-2-4.34.6c-1.36,3.11-5.39,5.75-2,10.25l-9.51-5.41c6.2-.89,7.26-5.81,9.44-9.57,2.06-3.55,6.46-6.75,2.33-12.52,5.19,3,9.4,5.57,13.72,7.94C273.9,30.26,269.74,31.65,269.32,33.47Z"/><path class="cls-1" d="M346.14,145.37c-1.91-1.84-7.67-2.33-8.65-.46-1.71,3.26,1.15,4.59,3.69,6.32l-9,1.86c3.4-2.51,4.45-4.8,2.63-7.45-.68-1-9,.33-9.44,1.58-1.58,4.76,2.11,7.07,5.44,9.9-4.52.41-6.94-1.21-7.54-5.21-.56-3.72-1-7.46-1.53-11.25,6.34,2.95,21.16-.29,24.26-5.74l1.25,9.28C347.58,145.25,347.11,145.53,346.14,145.37Z"/><path class="cls-1" d="M74.79,38.23a4.69,4.69,0,0,0-5.56.18c-2.34,1.66-3.07,3.08-.8,5.49,2.73,2.89,5.15,6.07,7.64,9.18,1.83,2.29,3.63,4.48,7.4,3.15l-9.81,8.49c3.1-6.36-1-8.82-3.42-12a46,46,0,0,0-4.47-5.34C64.57,46.22,64,43.1,61.32,45c-2.06,1.43-4.07,3.13-2.42,6.16.2.36,0,.92,0,1.47-4.69-4.52-4.67-4.5.16-8.41a91.85,91.85,0,0,0,8.73-7.39C70.82,33.72,72.93,33.77,74.79,38.23Z"/><path class="cls-1" d="M119,15.39c-2.19-1-3.54-2.56-5.81-1.58-2.47,1.06-4.06,1.91-2.44,5a107.63,107.63,0,0,1,4.46,10.56c1.14,2.94,2.41,5.58,6.38,5.59l-11.37,5.1c4.87-5.86.26-9.72-1-14.1a18.84,18.84,0,0,0-1.76-4.12c-.9-1.55-.53-4.64-3.35-4.08-2.59.52-5.19,1.82-4.36,5.48.08.34-.32.78-.56,1.31-3-5.91-3-5.89,2.46-8.09,3.54-1.44,7.24-2.64,10.52-4.54C115.91,9.76,117.87,10.57,119,15.39Z"/><path class="cls-1" d="M188.53,339c-4.07,7.14-10,9.52-15.66,7.26-5.19-2.06-8-8.71-6.51-15.18s6.6-10.72,12.26-10.27c7.13.56,8.44,1.8,8.9,8.85-2.55-1.91-3.46-5.06-6.3-6.29-3-1.31-5.78-1.49-8.29.92-4,3.85-3.73,12.8.49,17.42C177.17,345.77,181.15,345.25,188.53,339Z"/><path class="cls-1" d="M40.28,273.19c-6.39.8-11.57-2.62-13-8.59-1.34-5.54,2.34-11.48,8.66-14,6.62-2.62,13-.58,15.91,5,3.32,6.53,3.1,7.59-2.76,11.67.14-3.12,2.45-5.52,1.87-8.52s-1.75-5.72-5.22-6.48c-5.28-1.16-12.43,3.47-14.34,9.26C29.65,266.86,31.92,269.83,40.28,273.19Z"/><path class="cls-1" d="M25,163.44c-3.73,4.92-9.23,7.79-13.76,11.78a33.92,33.92,0,0,0-4.81,4.51c6.12-.75,12.89,3.57,18.37-3v8c-5.9-4.4-20.46-4.29-24.21.15-1-5.78-.93-5.65,3.38-9.27s9.72-6.27,13.09-11.15C19.32,161.36,22.25,163.29,25,163.44Z"/><path class="cls-1" d="M313.44,264.44a50,50,0,0,0,6,0,5.07,5.07,0,0,0,4.23-3.79,3.91,3.91,0,0,0-1.52-4.43c-1.86-1.52-3.73-.93-5.56.09-2,1.13-4,2.42-6.1,3.37-3.3,1.49-6.27.81-8.38-2.19s-1.4-5.78.75-8.67c2.77-3.72,5.52-4.46,9.3-.62a34.23,34.23,0,0,0-5.74.45,5.2,5.2,0,0,0-3.91,4.14,3,3,0,0,0,1.64,3.34c1.84,1.06,3.54.28,5.11-.81,1.37-.94,2.69-2,4.09-2.87,2.86-1.86,5.7-1.49,8.43.29,2.55,1.67,4,4,3.74,7.13a9.07,9.07,0,0,1-5.51,7.27C317.81,268.12,315.37,266.4,313.44,264.44Z"/><path class="cls-1" d="M6,191.57c4.23-.86,8.46-1.82,12.81-1.46,5.23.43,8.25,3.56,8.91,9,.58,4.84-1.5,7.83-6.89,9.34a85.65,85.65,0,0,1-9.26,1.82c-2.85.47-6.07.17-7.24,4l-1.48-9.15c4,2.26,17.34.72,20.4-2.13a6.1,6.1,0,0,0,1.53-6.86,6,6,0,0,0-6-4.42c-3.46,0-6.92.59-10.37.91C7.47,192.67,6.12,193.56,6,191.57Z"/><path class="cls-1" d="M157.79,9.09c-2.05-3.07-3.46-5.41-6.49-5.65-2-.16-3.73.3-4.37,2.43a3.4,3.4,0,0,0,2.23,4.41c1.68.69,3.49,1.06,5.22,1.62,5.1,1.66,7.37,6.09,5.64,10.93-1.45,4-6.25,6-10.88,4.22-3.34-1.29-2.93-4.65-3.46-7.51,1.37,1.6,2.62,3.31,4.13,4.77a5,5,0,0,0,6,.84A3.93,3.93,0,0,0,158,21.5c0-2.41-1.57-3.52-3.5-4.32a65.34,65.34,0,0,1-6.87-2.86c-3.11-1.73-4.41-4.56-3.2-8s3.9-4.75,7.46-4.46C157.39,2.29,157.39,2.28,157.79,9.09Z"/><path class="cls-1" d="M53.48,73.86c2.44-.23,4.56,1.15,6.94.64,3-.64,5.06-2.29,4.47-5.49S61.77,65,58.75,65.91c-2.22.7-4.35,1.75-6.61,2.22-3.64.77-6.67-.38-8.16-4-1.4-3.42,0-6,2.71-8.28,3.54-3.05,6.32-2.67,9.11,1.43-2.4-.13-4.49-1.55-6.67-.66s-4.49,2.31-3.7,5.08,3.14,3.11,5.67,2c1.37-.61,2.72-1.24,4.12-1.77,5-1.9,10,.53,11.44,5.54,1.13,3.91-2,8.85-6.46,9.83C57.25,77.91,55.51,75.48,53.48,73.86Z"/><path class="cls-1" d="M245.76,312.53c-2.28-1.86-4.15-3.93-7-3.59-2.28.27-4.43,1.17-4.35,3.87.07,2.35,1.89,3.37,4.12,3.48,1.66.08,3.32,0,5,0,5.17.13,8.78,4,8.38,9-.36,4.37-5.2,8-9.82,7.08-2.9-.58-3.53-3.54-4.67-6.09,1.51,1,3,2.18,4.56,3,2.21,1.2,4.49,1.28,6.46-.55a4,4,0,0,0,1.16-4.54c-.92-2.44-3-2.8-5.26-3a44.54,44.54,0,0,1-6.9-.78,6.29,6.29,0,0,1-5.19-6.93c.18-3.39,2.32-5.36,5.57-6.14C243.58,306,243.58,306,245.76,312.53Z"/><path class="cls-1" d="M345.12,205.41c-.75-.32-1.54-1-2.26-.88-2,.21-4.18-2.34-5.92.11s.14,4.31,1.68,6.09c-1.53,1-2.7-.11-3.91-.25s-2.66.54-3.93-1.19c2.77-1,5.22-2.69,3.75-5.85-1.11-2.39-9.19-1.61-12.07,1.07-.8-2,.65-3.5.74-5.19a42.41,42.41,0,0,1,.84-5c5.63,5.2,20.34,7.21,24.88,2.91l-2.08,10.11C345,207.86,345.87,205.91,345.12,205.41Z"/><path class="cls-1" d="M135.89,316.61l10.23,2.17c-5,2.46-4.09,7.14-5.17,11a24.07,24.07,0,0,0-1,4.88c-.14,2.11-2.5,4.68.45,6.25,2.45,1.3,5.18.79,7.6-.76.6-.39.91-1.4,2.27-.93-1,3.49-2.88,5.44-6.75,4.58S135.86,342,132,341.13C137,336.06,139.42,321.63,135.89,316.61Z"/><path class="cls-1" d="M181.95,2.24c-4.88,3.26-5.6,8.12-4.56,13.25,1.81,9,8.29,10.66,16.26,4.47-1.32,3.94-4.54,6.26-9.1,6.39-5,.15-8.69-1.88-10.72-6.57a14.38,14.38,0,0,1,6.91-18.5C181.77.82,182,1.31,181.95,2.24Z"/><path class="cls-1" d="M339,118.42c-4.77-2.73-9.36-1.78-13.67,1-7.62,4.84-7,11.22,1.47,16.89-4.49-.22-7.41-2.27-9.13-6.54s-1.26-8.5,2.12-12a14.43,14.43,0,0,1,20.16-.23C340.33,118.48,339.93,118.71,339,118.42Z"/><path class="cls-1" d="M162.66,346a40.45,40.45,0,0,0-10.14-.59c4.86-6.3,5.74-21.2,1.21-25.23L164,321C159.34,326.58,158.77,342,162.66,346Z"/><path class="cls-1" d="M227.83,311.83c-2.36,6.78,3.67,21.53,9.73,23.16l-10.22,3.63c1.53-6.75-3.64-21-9-23.2Z"/><path class="cls-1" d="M27.28,147.51l-1.44,10.64c-5.85-5-20.62-6.29-24.7-1.53l1.13-10.5C8.39,150.94,23.08,152,27.28,147.51Z"/><path class="cls-1" d="M25,163.44c-2.62.54-5.49-.92-7.95,1-3.16,0-6.33,0-9.49-.16s-5.64.22-7.15,3.58v-8.39c2.13,2.67,4.92,2.88,7.93,3C13.86,162.68,19.49,161.7,25,163.44Z"/><path class="cls-1" d="M181.95,2.24l-1.2-1c4.68-3.07,9,.18,13.09,1.37,2.25.65.31,4.27.8,6.74C191.2,5.22,188.36.5,181.95,2.24Z"/><path class="cls-1" d="M339,118.42l.94-.92c4.4,3.36,2.8,8.5,3.23,12.79.18,1.78-4,1.74-6.18,3C340.21,128.45,343.36,123.93,339,118.42Z"/><path class="cls-1" d="M226.85,26.14l1,1.24c-.68,2.66-2.27,5.44.89,7.94L220.47,32C224,30.94,225.44,28.56,226.85,26.14Z"/><path class="cls-1" d="M345.12,205.41l1.73,2c-.11,1-.29,1.95-.3,2.93,0,4.68-2.21,5.67-6.83,3.3C344.77,212.65,345.27,209.22,345.12,205.41Z"/><path class="cls-1" d="M6,191.57l2.41,1.06c-2.71.83-5.81,1.14-6.83,4.9L.29,190A9.48,9.48,0,0,0,6,191.57Z"/><path class="cls-1" d="M346.14,145.37l1-1.18c1,1,.62,2.49,1.06,3.68,1.81,4.86-.92,5.45-6,5.35C346.78,151.26,346.18,148.22,346.14,145.37Z"/><path class="cls-2" d="M217.44,335.57c0,3.54-2.23,5.43-5.3,5.21-4.74-.34-3.46-4.87-4.21-7.73-.83-3.15,2-2.88,3.81-2.94C215.36,330,217.15,332.07,217.44,335.57Z"/><path class="cls-2" d="M208.44,328.77c-3.49-.83-2.35-4.39-3-6.75-.6-2.13,1.34-2.75,3.17-2.66,3.52.17,4.94,2.62,5.12,5.62C213.89,328.16,211.19,328.38,208.44,328.77Z"/><path class="cls-2" d="M295.1,62.63c-2.25-.59-4.89-2.23-4.4-3.92a8.84,8.84,0,0,1,6.45-6.15c2.12-.41,3.11,2.15,3,4.25C300,60,298.2,61.89,295.1,62.63Z"/><path class="cls-2" d="M45.82,93.84c-.14,5.43-3.39,7.39-8,4.73-3.71-2.16-7.33-4.49-11.06-6.63-2.75-1.58-2.68-3.37-.85-5.61,3-3.75,6.91-4.22,11.18-2.81C42.27,85.22,45.93,89.65,45.82,93.84Z"/><path class="cls-2" d="M295.65,293.67a7.71,7.71,0,0,1-8,7.25c-6-.27-13.37-7.61-13.13-13A7.41,7.41,0,0,1,282.2,281C288.18,281.14,295.8,288.32,295.65,293.67Z"/><path class="cls-2" d="M127.86,322.88a17.92,17.92,0,0,1-3.48,9.58,7.07,7.07,0,0,1-7.49,2.86,7.29,7.29,0,0,1-5.88-6.07,16.7,16.7,0,0,1,1.52-10.68c1.77-3.66,4.26-6.5,8.87-5.7C125.53,313.57,127.93,317.2,127.86,322.88Z"/><path class="cls-2" d="M202.11,17c.1-.54.31-2,.66-3.46,1.43-5.82,4.6-8.61,9-8,4.24.58,7,4.44,7,10a20.3,20.3,0,0,1-.55,4.42c-1.27,5.73-4.54,8.74-8.85,8.27C204.9,27.78,202.07,23.79,202.11,17Z"/><path class="cls-2" d="M338.35,172.52a12.38,12.38,0,0,1,6.07,1.17c5.37,2.41,6.26,9.13,1.52,12.6a14.9,14.9,0,0,1-15.63,1.58c-5.31-2.39-5.8-9.12-1.16-12.72C331.27,173.5,334.52,172.55,338.35,172.52Z"/><path class="cls-2" d="M51.25,278.81c1.05-.51,1.91-1,2.82-1.36,1.49-.57,3-1,5.19-1.78-1,3.06-1.58,6.25-3.66,7.19C53.9,283.63,52.61,280.55,51.25,278.81Z"/><path class="cls-2" d="M93,36.94c-1.8,1.58-4.2,3.82-5.14,3C85.92,38.13,86,35,86,32,88.84,33.13,90.71,35,93,36.94Z"/><path class="cls-3" d="M408.44,76q1.27,0,9.25-.4a3.53,3.53,0,0,1,.16,1.12q0,1.2-.32,1.2a13.37,13.37,0,0,0-2.87.56q-2.08.56-2.23,1.12A30.85,30.85,0,0,0,411.7,87v17.79q0,9,3.83,14.36a12.55,12.55,0,0,0,10.85,5.34q13.64,0,13.64-17.94V86.58a31.09,31.09,0,0,0-.56-7q-.24-.64-2.75-1.24a18,18,0,0,0-3.55-.6c-.21,0-.32-.31-.32-.92a1.77,1.77,0,0,1,.32-1.24l4.15.28q3.11.2,5.26.2t5.22-.24q3.15-.24,3.71-.24a3.83,3.83,0,0,1,.16,1.2q0,1-.32,1a20,20,0,0,0-3.47.64q-2.67.64-2.83,1.2A31.94,31.94,0,0,0,444.4,87v19.38q0,12.36-5.18,17.19t-14.75,4.83q-9.49,0-14.59-5.58t-5.1-18V86.66a31.59,31.59,0,0,0-.56-7.1q-.24-.64-2.27-1.16a13.7,13.7,0,0,0-3.07-.52c-.21,0-.32-.35-.32-1a1.84,1.84,0,0,1,.32-1.28Q408,76,408.44,76Z"/><path class="cls-3" d="M497.2,86.58a31.15,31.15,0,0,0-.56-7q-.24-.64-2.75-1.24a18,18,0,0,0-3.55-.6q-.32,0-.32-.92a1.77,1.77,0,0,1,.32-1.24l4.15.28q3.11.2,5.26.2t5.22-.24q3.15-.24,3.71-.24a3.86,3.86,0,0,1,.16,1.2c0,.64-.11,1-.32,1a20,20,0,0,0-3.47.64q-2.67.64-2.83,1.2a31.87,31.87,0,0,0-.64,7.42v30.31q0,4.95.24,11.17a2.35,2.35,0,0,1-1.51.32q-1.36,0-2.63-1.83L466.74,83.07v34.05a33.65,33.65,0,0,0,.56,7.42q.16.56,2.67,1.16a18.55,18.55,0,0,0,3.31.6c.16,0,.25.32.28,1a3.65,3.65,0,0,1-.12,1.36q-8-.4-9.17-.4l-9.17.4a1.9,1.9,0,0,1-.24-1.2q0-1.12.24-1.12a17.91,17.91,0,0,0,3.63-.6q2.51-.6,2.75-1.32.8-2.07.8-7.5V85.54a24.47,24.47,0,0,0-.56-6q-.24-.64-2.71-1.16a19.9,19.9,0,0,0-3.59-.52q-.32,0-.32-1a1.92,1.92,0,0,1,.32-1.32q6.22.16,8.13.16,4.15,0,6.38-.16,3,5.42,27,39.08a19.17,19.17,0,0,0,.24-3.27Z"/><path class="cls-3" d="M520,86.66a31.66,31.66,0,0,0-.56-7.1q-.24-.64-2.27-1.16a13.7,13.7,0,0,0-3.07-.52q-.32,0-.32-1a1.85,1.85,0,0,1,.32-1.28q9.17.4,9.57.4,1.27,0,9.25-.4a3.83,3.83,0,0,1,.16,1.2c0,.75-.11,1.12-.32,1.12a13.37,13.37,0,0,0-2.87.56q-2.07.56-2.23,1.12a30.85,30.85,0,0,0-.72,7.42v30.31a30.84,30.84,0,0,0,.72,7.42q.16.56,2.23,1.08a14.19,14.19,0,0,0,2.87.52c.21,0,.32.4.32,1.2a3.53,3.53,0,0,1-.16,1.12q-8-.4-9.25-.4-.4,0-9.57.4a1.7,1.7,0,0,1-.32-1.2q0-1.12.32-1.12a14.71,14.71,0,0,0,3.07-.48q2-.48,2.27-1.12a31.65,31.65,0,0,0,.56-7.1Z"/><path class="cls-3" d="M553.86,75.9q5.46.16,9,.16t9-.16q5.5-.16,8.53-.16a24.25,24.25,0,0,0,5.5-.88l1.52,11.4a2.66,2.66,0,0,1-1.91.56q-.72,0-.8-.4-1.12-4.47-2.75-5.78t-6.18-1.32q-8.46,0-8.77,1.2a32.11,32.11,0,0,0-.72,8v28.79a30.84,30.84,0,0,0,.72,7.42q.16.56,2.23,1.08a14.19,14.19,0,0,0,2.87.52c.21,0,.32.4.32,1.2a3.53,3.53,0,0,1-.16,1.12q-8-.4-9.25-.4-.4,0-9.57.4a1.7,1.7,0,0,1-.32-1.2q0-1.12.32-1.12a14.71,14.71,0,0,0,3.07-.48q2-.48,2.27-1.12a31.65,31.65,0,0,0,.56-7.1V88.74q0-6.94-.72-8.21T550,79.32q-4.55,0-6.18,1.32t-2.75,5.78c-.05.27-.32.4-.8.4a2.65,2.65,0,0,1-1.91-.56l1.51-11.4a24.25,24.25,0,0,0,5.5.88Q548.4,75.74,553.86,75.9Z"/><path class="cls-3" d="M601.6,76.05q3.59,0,12.44-.32t13.32-.32q.32,2.31,1.24,6.1t1.08,4.75a2,2,0,0,1-1.44.4q-1,0-1.12-.56-1.2-4.39-3.35-5.62a11.89,11.89,0,0,0-5.9-1.24h-5.34q-6.86,0-7,1a37.84,37.84,0,0,0-.4,6.7V99.74q0,.48,3.43.48H616a7.71,7.71,0,0,0,2.11-.32l1.44-.4c.21-.05.49-.4.84-1a5.57,5.57,0,0,0,.6-1.4c.05-.29.24-1,.56-2.27.05-.37.45-.56,1.2-.56a1.88,1.88,0,0,1,1.36.4v15.07a1.85,1.85,0,0,1-1.28.32q-1,0-1.28-.64-.56-2.15-1-3.23a4.77,4.77,0,0,0-.6-1.28,4.94,4.94,0,0,0-.68-.52q-1-.64-8.45-.64-5.74,0-5.74.72v12.36a25.07,25.07,0,0,0,.72,7.26q.24.8,5.42.8h3.83q7.42,0,10-1.36a8.63,8.63,0,0,0,2.67-2.83,18.52,18.52,0,0,0,2.35-5.22q.16-.48,1.12-.48a2.92,2.92,0,0,1,2,.48q-.4,1-1.24,3.31t-1.32,3.67q-.48,1.4-1,3.23a19.94,19.94,0,0,0-.72,3q-4.07,0-12.84-.16t-14.36-.16l-9.65.24a2.08,2.08,0,0,1-.24-1.28c0-.69.08-1,.24-1a12.77,12.77,0,0,0,3.07-.56q2-.56,2.43-1.28.56-1,.56-7.5V86.82a30.15,30.15,0,0,0-.56-6.86q-.24-.64-2.35-1.2a13.77,13.77,0,0,0-3.15-.56q-.32,0-.32-1a2,2,0,0,1,.32-1.36Q596.25,76.06,601.6,76.05Z"/><path class="cls-3" d="M647.53,76.05q3,0,7.7-.08t6.18-.08q13,0,20.26,7.66a25.34,25.34,0,0,1,7.26,18q0,11.56-7.34,19.3t-20.26,7.74q-1,0-5.7-.16t-7.94-.08l-9.65.24a1.9,1.9,0,0,1-.24-1.2q0-1.12.24-1.12a12.78,12.78,0,0,0,3.07-.56q2-.56,2.43-1.28.56-1,.56-7.5V86.82a30.1,30.1,0,0,0-.56-6.86q-.24-.64-2.35-1.2a13.77,13.77,0,0,0-3.15-.56q-.32,0-.32-1A2,2,0,0,1,638,75.9Q642.19,76.06,647.53,76.05ZM651,85.7v31.58a14.85,14.85,0,0,0,1.2,6.06q.32.8,4.27,1.2t6.1.4q18.34,0,18.34-23.69a24.91,24.91,0,0,0-4.83-15.47Q671.3,79.4,662,79.4h-.4q-8.61,0-9.57,1.28Q651,82.12,651,85.7Z"/><path class="cls-3" d="M715.72,89.29a12.58,12.58,0,0,1,4.71-10.09,16.49,16.49,0,0,1,10.93-3.95,26.19,26.19,0,0,1,3.31.2,24.9,24.9,0,0,1,2.55.44q1,.24,2.87.76t3.31.84a53.81,53.81,0,0,1,1,11.4c0,.37-.27.56-.8.56q-1.91,0-2.07-.8a12.29,12.29,0,0,0-3.39-6.82,9.47,9.47,0,0,0-7.3-3.31q-4.79,0-6.74,2.39a9,9,0,0,0-2,5.9,7.74,7.74,0,0,0,.56,2.91A15.59,15.59,0,0,0,723.78,92a9,9,0,0,0,2,2.11q1.47,1.2,2.15,1.68t2.71,1.75q2,1.28,2.59,1.6l2.79,1.71q2.39,1.48,3.27,2.07t2.75,2.15a15.17,15.17,0,0,1,2.71,2.75,16.31,16.31,0,0,1,1.6,3,9.45,9.45,0,0,1,.76,3.71,13,13,0,0,1-5,10.49,17.81,17.81,0,0,1-11.68,4.11,31.8,31.8,0,0,1-4.07-.28q-2.15-.28-3.59-.56t-3.63-.8q-2.19-.52-3.07-.68-2-9.81-2-12.68,0-.48,1.28-.48a2.39,2.39,0,0,1,2,.72q2.71,11.49,13.24,11.48a10.07,10.07,0,0,0,6.78-2.39,8.44,8.44,0,0,0,2.79-6.78,8.83,8.83,0,0,0-.48-3,13,13,0,0,0-1-2.23,7.06,7.06,0,0,0-1.83-1.87q-1.32-1-2-1.48t-2.63-1.52l-2.63-1.44q-2.31-1.35-3.23-1.91t-3-2a16,16,0,0,1-3.07-2.47q-1-1.08-2.23-2.63A9.38,9.38,0,0,1,716.24,93,12.84,12.84,0,0,1,715.72,89.29Z"/><path class="cls-3" d="M767.76,75.9q5.46.16,9,.16t9-.16q5.5-.16,8.53-.16a24.25,24.25,0,0,0,5.5-.88l1.52,11.4a2.66,2.66,0,0,1-1.91.56q-.72,0-.8-.4-1.12-4.47-2.75-5.78t-6.18-1.32q-8.46,0-8.77,1.2a32.11,32.11,0,0,0-.72,8v28.79a30.84,30.84,0,0,0,.72,7.42q.16.56,2.23,1.08a14.19,14.19,0,0,0,2.87.52c.21,0,.32.4.32,1.2a3.53,3.53,0,0,1-.16,1.12q-8-.4-9.25-.4-.4,0-9.57.4a1.7,1.7,0,0,1-.32-1.2q0-1.12.32-1.12a14.71,14.71,0,0,0,3.07-.48q2-.48,2.27-1.12a31.65,31.65,0,0,0,.56-7.1V88.74q0-6.94-.72-8.21t-8.61-1.2q-4.55,0-6.18,1.32T755,86.42c-.05.27-.32.4-.8.4a2.65,2.65,0,0,1-1.91-.56l1.51-11.4a24.25,24.25,0,0,0,5.5.88Q762.3,75.74,767.76,75.9Z"/><path class="cls-3" d="M832.48,75.74l16,42.11q1.44,3.75,2.31,5.74a4,4,0,0,0,2.47,2,9.41,9.41,0,0,0,3,.76q.32,0,.32,1.52a2.62,2.62,0,0,1-.16.8q-8-.4-8.77-.4l-9.25.4a1.81,1.81,0,0,1-.28-1.32q0-1,.36-1a9.24,9.24,0,0,0,2.39-.4q1.44-.4,1.67-1a5.28,5.28,0,0,0,.16-1.28,12.61,12.61,0,0,0-.28-2.43q-.28-1.39-.52-2.19l-.32-.88-3.27-9a.65.65,0,0,0-.48-.32q-3.11-.24-6.06-.24-4.15,0-10.13.4l-.4.24-3.43,8.77a21,21,0,0,0-1.36,5.5A1.86,1.86,0,0,0,817,125a6,6,0,0,0,2.31.92,12,12,0,0,0,2.31.36q.24,0,.28,1a3.65,3.65,0,0,1-.12,1.36l-8.21-.4q-1.6,0-2.79.08l-2.67.16-2.83.16a1.7,1.7,0,0,1-.32-1.2q0-1.12.32-1.12a10.14,10.14,0,0,0,2.47-.4,3.79,3.79,0,0,0,2.07-1.12,31.92,31.92,0,0,0,3.75-7.5l13.88-35.65q.16-.4.44-1.28t.44-1.32q.16-.44.48-1.12a6,6,0,0,1,.56-1q.24-.32.6-.72a2,2,0,0,1,.8-.56,2.91,2.91,0,0,1,1-.16Zm-9.25,28.79q4.15.16,5.66.16,3.51,0,7.26-.24l.24-.4-6.46-17.63-6.86,17.79C823.07,104.42,823.12,104.53,823.23,104.53Z"/><path class="cls-3" d="M875.67,75.9q5.46.16,9,.16t9-.16q5.5-.16,8.53-.16a24.25,24.25,0,0,0,5.5-.88l1.52,11.4a2.66,2.66,0,0,1-1.91.56q-.72,0-.8-.4-1.12-4.47-2.75-5.78t-6.18-1.32q-8.46,0-8.77,1.2a32.11,32.11,0,0,0-.72,8v28.79a30.84,30.84,0,0,0,.72,7.42q.16.56,2.23,1.08a14.19,14.19,0,0,0,2.87.52c.21,0,.32.4.32,1.2a3.53,3.53,0,0,1-.16,1.12q-8-.4-9.25-.4-.4,0-9.57.4a1.7,1.7,0,0,1-.32-1.2q0-1.12.32-1.12a14.71,14.71,0,0,0,3.07-.48q2-.48,2.27-1.12a31.65,31.65,0,0,0,.56-7.1V88.74q0-6.94-.72-8.21t-8.61-1.2q-4.55,0-6.18,1.32t-2.75,5.78c-.05.27-.32.4-.8.4a2.65,2.65,0,0,1-1.91-.56l1.51-11.4a24.25,24.25,0,0,0,5.5.88Q870.21,75.74,875.67,75.9Z"/><path class="cls-3" d="M923.4,76.05q3.59,0,12.44-.32t13.32-.32q.32,2.31,1.24,6.1t1.08,4.75a2,2,0,0,1-1.44.4q-1,0-1.12-.56-1.2-4.39-3.35-5.62a11.89,11.89,0,0,0-5.9-1.24h-5.34q-6.86,0-7,1a37.84,37.84,0,0,0-.4,6.7V99.74q0,.48,3.43.48h7.46a7.71,7.71,0,0,0,2.11-.32l1.44-.4c.21-.05.49-.4.84-1a5.57,5.57,0,0,0,.6-1.4c.05-.29.24-1,.56-2.27.05-.37.45-.56,1.2-.56a1.88,1.88,0,0,1,1.36.4v15.07a1.85,1.85,0,0,1-1.28.32q-1,0-1.28-.64-.56-2.15-1-3.23a4.77,4.77,0,0,0-.6-1.28,4.94,4.94,0,0,0-.68-.52q-1-.64-8.45-.64-5.74,0-5.74.72v12.36a25.07,25.07,0,0,0,.72,7.26q.24.8,5.42.8h3.83q7.42,0,10-1.36a8.63,8.63,0,0,0,2.67-2.83,18.52,18.52,0,0,0,2.35-5.22q.16-.48,1.12-.48a2.92,2.92,0,0,1,2,.48q-.4,1-1.24,3.31t-1.32,3.67q-.48,1.4-1,3.23a19.94,19.94,0,0,0-.72,3q-4.07,0-12.84-.16t-14.36-.16l-9.65.24a2.08,2.08,0,0,1-.24-1.28c0-.69.08-1,.24-1a12.77,12.77,0,0,0,3.07-.56q2-.56,2.43-1.28.56-1,.56-7.5V86.82a30.15,30.15,0,0,0-.56-6.86q-.24-.64-2.35-1.2a13.77,13.77,0,0,0-3.15-.56q-.32,0-.32-1a2,2,0,0,1,.32-1.36Q918.06,76.06,923.4,76.05Z"/><path class="cls-3" d="M961.68,89.29a12.58,12.58,0,0,1,4.71-10.09,16.49,16.49,0,0,1,10.93-3.95,26.19,26.19,0,0,1,3.31.2,24.9,24.9,0,0,1,2.55.44q1,.24,2.87.76t3.31.84a53.81,53.81,0,0,1,1,11.4c0,.37-.27.56-.8.56q-1.91,0-2.07-.8a12.29,12.29,0,0,0-3.39-6.82,9.47,9.47,0,0,0-7.3-3.31q-4.79,0-6.74,2.39a9,9,0,0,0-2,5.9,7.74,7.74,0,0,0,.56,2.91A15.59,15.59,0,0,0,969.74,92a9,9,0,0,0,2,2.11q1.47,1.2,2.15,1.68t2.71,1.75q2,1.28,2.59,1.6L982,100.9q2.39,1.48,3.27,2.07t2.75,2.15a15.17,15.17,0,0,1,2.71,2.75,16.31,16.31,0,0,1,1.6,3,9.45,9.45,0,0,1,.76,3.71,13,13,0,0,1-5,10.49,17.81,17.81,0,0,1-11.68,4.11,31.8,31.8,0,0,1-4.07-.28q-2.15-.28-3.59-.56t-3.63-.8q-2.19-.52-3.07-.68-2-9.81-2-12.68,0-.48,1.28-.48a2.39,2.39,0,0,1,2,.72q2.71,11.49,13.24,11.48a10.07,10.07,0,0,0,6.78-2.39,8.44,8.44,0,0,0,2.79-6.78,8.83,8.83,0,0,0-.48-3,13,13,0,0,0-1-2.23,7.06,7.06,0,0,0-1.83-1.87q-1.32-1-2-1.48t-2.63-1.52l-2.63-1.44q-2.31-1.35-3.23-1.91t-3-2a16,16,0,0,1-3.07-2.47q-1-1.08-2.23-2.63A9.38,9.38,0,0,1,962.2,93,12.84,12.84,0,0,1,961.68,89.29Z"/><path class="cls-3" d="M1064.8,113.78a53,53,0,0,1-1.12,6.1q-1.12,5.22-1.6,5.46-5.82,3.51-19.06,3.51a23.82,23.82,0,0,1-17.9-7.74,25.77,25.77,0,0,1-7.38-18.42,27.42,27.42,0,0,1,7.58-19.42,24.47,24.47,0,0,1,18.58-8.09,98.82,98.82,0,0,1,19.38,2q-.16,10.69-.16,11.48,0,1.2-1.67,1.2c-.53,0-.88-.13-1-.4q-.24-1-.6-2.11a12.53,12.53,0,0,0-1.52-2.79,12.33,12.33,0,0,0-2.79-3,15.07,15.07,0,0,0-4.63-2.15,23,23,0,0,0-6.74-.92q-7.82,0-13.32,6.9a24.35,24.35,0,0,0-5.5,15.59,30.92,30.92,0,0,0,2.23,11.88,20.77,20.77,0,0,0,7.06,9,18.77,18.77,0,0,0,11.44,3.55q7.9,0,12.2-4.63a10.8,10.8,0,0,0,2-3.15q.84-2,1.28-3.27c.29-.88.52-1.32.68-1.32a5.23,5.23,0,0,1,1.16.16,8.13,8.13,0,0,1,1.08.32Z"/><path class="cls-3" d="M1077.52,121.27a26.76,26.76,0,0,1-7.46-19.06,26.9,26.9,0,0,1,7.46-19.1,24.39,24.39,0,0,1,36,0,28,28,0,0,1,0,38.16,24.48,24.48,0,0,1-36,0Zm16.79-42.75a13.65,13.65,0,0,0-12,6.62,27.08,27.08,0,0,0-4.39,15.31,34.71,34.71,0,0,0,2.07,12,22.43,22.43,0,0,0,6.46,9.45,15.24,15.24,0,0,0,10.29,3.79,13.24,13.24,0,0,0,8.93-3.31,19.53,19.53,0,0,0,5.62-8.21,30.28,30.28,0,0,0,1.79-10.49,34.43,34.43,0,0,0-2.07-12,22.5,22.5,0,0,0-6.46-9.41A15.25,15.25,0,0,0,1094.31,78.53Z"/><path class="cls-3" d="M1168.56,86.58a31.15,31.15,0,0,0-.56-7q-.24-.64-2.75-1.24a18,18,0,0,0-3.55-.6q-.32,0-.32-.92a1.77,1.77,0,0,1,.32-1.24l4.15.28q3.11.2,5.26.2t5.22-.24q3.15-.24,3.71-.24a3.86,3.86,0,0,1,.16,1.2c0,.64-.11,1-.32,1a20,20,0,0,0-3.47.64q-2.67.64-2.83,1.2a31.87,31.87,0,0,0-.64,7.42v30.31q0,4.95.24,11.17a2.35,2.35,0,0,1-1.51.32q-1.36,0-2.63-1.83L1138.1,83.07v34.05a33.65,33.65,0,0,0,.56,7.42q.16.56,2.67,1.16a18.55,18.55,0,0,0,3.31.6c.16,0,.25.32.28,1a3.65,3.65,0,0,1-.12,1.36q-8-.4-9.17-.4l-9.17.4a1.9,1.9,0,0,1-.24-1.2q0-1.12.24-1.12a17.91,17.91,0,0,0,3.63-.6q2.51-.6,2.75-1.32.8-2.07.8-7.5V85.54a24.47,24.47,0,0,0-.56-6q-.24-.64-2.71-1.16a19.9,19.9,0,0,0-3.59-.52q-.32,0-.32-1a1.92,1.92,0,0,1,.32-1.32q6.22.16,8.13.16,4.15,0,6.38-.16,3,5.42,27,39.08a19.17,19.17,0,0,0,.24-3.27Z"/><path class="cls-3" d="M1195.12,76.05q3.59,0,12.44-.32t13.32-.32q.32,2.31,1.24,6.1t1.08,4.75a2,2,0,0,1-1.44.4q-1,0-1.12-.56-1.2-4.39-3.35-5.62a11.89,11.89,0,0,0-5.9-1.24H1206q-6.86,0-7,1a37.84,37.84,0,0,0-.4,6.7v13q0,.48,3.35.48h4.23q5.34,0,6.54-.76t2.07-4.35a4.81,4.81,0,0,1,.16-.72q.08-.56,1.2-.56a1.88,1.88,0,0,1,1.36.4v15.47a1.85,1.85,0,0,1-1.28.32q-1,0-1.28-.64-.56-2.15-1-3.23a4.73,4.73,0,0,0-.6-1.28,4.82,4.82,0,0,0-.68-.52q-1-.64-8.45-.64-5.66,0-5.66.72v12.6a30.84,30.84,0,0,0,.72,7.42q.16.56,2.23,1.08a14.19,14.19,0,0,0,2.87.52c.21,0,.32.4.32,1.2a3.53,3.53,0,0,1-.16,1.12q-8-.4-9.25-.4-.4,0-9.57.4a1.69,1.69,0,0,1-.32-1.2c0-.74.11-1.12.32-1.12a14.71,14.71,0,0,0,3.07-.48q2-.48,2.27-1.12a32.09,32.09,0,0,0,.56-7.18V86.82a30.1,30.1,0,0,0-.56-6.86q-.24-.64-2.35-1.2a13.77,13.77,0,0,0-3.15-.56q-.32,0-.32-1a2,2,0,0,1,.32-1.36Q1189.78,76.06,1195.12,76.05Z"/><path class="cls-3" d="M1238.19,76.05q3.59,0,12.44-.32t13.32-.32q.32,2.31,1.24,6.1t1.08,4.75a2,2,0,0,1-1.44.4q-1,0-1.12-.56-1.2-4.39-3.35-5.62a11.89,11.89,0,0,0-5.9-1.24h-5.34q-6.86,0-7,1a37.84,37.84,0,0,0-.4,6.7V99.74q0,.48,3.43.48h7.46a7.71,7.71,0,0,0,2.11-.32l1.44-.4c.21-.05.49-.4.84-1a5.57,5.57,0,0,0,.6-1.4c.05-.29.24-1,.56-2.27.05-.37.45-.56,1.2-.56a1.88,1.88,0,0,1,1.36.4v15.07a1.85,1.85,0,0,1-1.28.32q-1,0-1.28-.64-.56-2.15-1-3.23a4.77,4.77,0,0,0-.6-1.28,4.94,4.94,0,0,0-.68-.52q-1-.64-8.45-.64-5.74,0-5.74.72v12.36a25.07,25.07,0,0,0,.72,7.26q.24.8,5.42.8h3.83q7.42,0,10-1.36a8.63,8.63,0,0,0,2.67-2.83,18.52,18.52,0,0,0,2.35-5.22q.16-.48,1.12-.48a2.92,2.92,0,0,1,2,.48q-.4,1-1.24,3.31t-1.32,3.67q-.48,1.4-1,3.23a19.94,19.94,0,0,0-.72,3q-4.07,0-12.84-.16t-14.36-.16l-9.65.24a2.08,2.08,0,0,1-.24-1.28c0-.69.08-1,.24-1a12.77,12.77,0,0,0,3.07-.56q2-.56,2.43-1.28.56-1,.56-7.5V86.82a30.15,30.15,0,0,0-.56-6.86q-.24-.64-2.35-1.2a13.77,13.77,0,0,0-3.15-.56q-.32,0-.32-1a2,2,0,0,1,.32-1.36Q1232.84,76.06,1238.19,76.05Z"/><path class="cls-3" d="M1295.77,75.74a20,20,0,0,1,5.5.8,23.7,23.7,0,0,1,5.5,2.39,12.65,12.65,0,0,1,4.47,4.55,13.17,13.17,0,0,1,1.75,6.86,12.52,12.52,0,0,1-2.51,7,16.43,16.43,0,0,1-6.82,5.66q-.8.32-.48.8a56.71,56.71,0,0,0,9.17,14q7.66,8.37,12.44,8.37a2.47,2.47,0,0,1,.24,1.12,2.67,2.67,0,0,1-.24,1.2,8.33,8.33,0,0,1-2.15.24q-11.17,0-19.38-11.48-1.28-1.75-2.91-4.19t-2.39-3.51q-.76-1.08-1.75-2.35a13.27,13.27,0,0,0-1.75-1.91,7.14,7.14,0,0,0-1.64-1,9.59,9.59,0,0,0-3-.32,8.57,8.57,0,0,0-1,0,1.13,1.13,0,0,0-.64.36,1.3,1.3,0,0,0-.32,1V117q0,5.34.64,6.94.4,1,2.83,1.67a15.86,15.86,0,0,0,3.47.64c.21,0,.32.37.32,1.12a3.83,3.83,0,0,1-.16,1.2q-8-.4-10.37-.4l-9.73.4a2.5,2.5,0,0,1-.24-1.44q0-1,.24-1a14.31,14.31,0,0,0,3.11-.48q2-.48,2.39-1.2.56-1,.56-7.5V86.82a30.15,30.15,0,0,0-.56-6.86q-.24-.64-2.35-1.2a13.77,13.77,0,0,0-3.15-.56q-.32,0-.32-1a2,2,0,0,1,.32-1.36l9.57.16q2.39,0,5.66-.16T1295.77,75.74Zm-1.28,3.51a21.76,21.76,0,0,0-5.58.56c-.21.05-.39.25-.52.6a10.44,10.44,0,0,0-.32,2.39q-.12,1.88-.12,5.78v9.65q0,2.31,6.94,2.31h2q2.79,0,5.78-2.79a9.66,9.66,0,0,0,3-7.42Q1305.66,79.25,1294.49,79.24Z"/><path class="cls-3" d="M1336.36,76.05q3.59,0,12.44-.32t13.32-.32q.32,2.31,1.24,6.1t1.08,4.75a2,2,0,0,1-1.44.4q-1,0-1.12-.56-1.2-4.39-3.35-5.62a11.89,11.89,0,0,0-5.9-1.24h-5.34q-6.86,0-7,1a37.84,37.84,0,0,0-.4,6.7V99.74q0,.48,3.43.48h7.46a7.71,7.71,0,0,0,2.11-.32l1.44-.4c.21-.05.49-.4.84-1a5.58,5.58,0,0,0,.6-1.4c.05-.29.24-1,.56-2.27.05-.37.45-.56,1.2-.56a1.88,1.88,0,0,1,1.36.4v15.07a1.85,1.85,0,0,1-1.28.32q-1,0-1.28-.64-.56-2.15-1-3.23a4.77,4.77,0,0,0-.6-1.28,4.94,4.94,0,0,0-.68-.52q-1-.64-8.45-.64-5.74,0-5.74.72v12.36a25.07,25.07,0,0,0,.72,7.26q.24.8,5.42.8h3.83q7.42,0,10-1.36a8.63,8.63,0,0,0,2.67-2.83,18.52,18.52,0,0,0,2.35-5.22q.16-.48,1.12-.48a2.92,2.92,0,0,1,2,.48q-.4,1-1.24,3.31t-1.32,3.67q-.48,1.4-1,3.23a19.94,19.94,0,0,0-.72,3q-4.07,0-12.84-.16t-14.36-.16l-9.65.24a2.08,2.08,0,0,1-.24-1.28c0-.69.08-1,.24-1a12.77,12.77,0,0,0,3.07-.56q2-.56,2.43-1.28.56-1,.56-7.5V86.82a30.15,30.15,0,0,0-.56-6.86q-.24-.64-2.35-1.2a13.77,13.77,0,0,0-3.15-.56q-.32,0-.32-1a2,2,0,0,1,.32-1.36Q1331,76.06,1336.36,76.05Z"/><path class="cls-3" d="M1413.72,86.58a31.15,31.15,0,0,0-.56-7q-.24-.64-2.75-1.24a18,18,0,0,0-3.55-.6q-.32,0-.32-.92a1.77,1.77,0,0,1,.32-1.24l4.15.28q3.11.2,5.26.2t5.22-.24q3.15-.24,3.71-.24a3.86,3.86,0,0,1,.16,1.2c0,.64-.11,1-.32,1a20,20,0,0,0-3.47.64q-2.67.64-2.83,1.2a31.87,31.87,0,0,0-.64,7.42v30.31q0,4.95.24,11.17a2.35,2.35,0,0,1-1.51.32q-1.36,0-2.63-1.83l-30.94-43.86v34.05a33.65,33.65,0,0,0,.56,7.42q.16.56,2.67,1.16a18.55,18.55,0,0,0,3.31.6c.16,0,.25.32.28,1a3.65,3.65,0,0,1-.12,1.36q-8-.4-9.17-.4l-9.17.4a1.9,1.9,0,0,1-.24-1.2q0-1.12.24-1.12a17.91,17.91,0,0,0,3.63-.6q2.51-.6,2.75-1.32.8-2.07.8-7.5V85.54a24.47,24.47,0,0,0-.56-6q-.24-.64-2.71-1.16a19.9,19.9,0,0,0-3.59-.52q-.32,0-.32-1a1.92,1.92,0,0,1,.32-1.32q6.22.16,8.13.16,4.15,0,6.38-.16,3,5.42,27,39.08a19.17,19.17,0,0,0,.24-3.27Z"/><path class="cls-3" d="M1477.85,113.78a53,53,0,0,1-1.12,6.1q-1.12,5.22-1.6,5.46-5.82,3.51-19.06,3.51a23.82,23.82,0,0,1-17.9-7.74,25.77,25.77,0,0,1-7.38-18.42,27.42,27.42,0,0,1,7.58-19.42,24.47,24.47,0,0,1,18.58-8.09,98.82,98.82,0,0,1,19.38,2q-.16,10.69-.16,11.48,0,1.2-1.67,1.2c-.53,0-.88-.13-1-.4q-.24-1-.6-2.11a12.53,12.53,0,0,0-1.52-2.79,12.33,12.33,0,0,0-2.79-3,15.07,15.07,0,0,0-4.63-2.15,23,23,0,0,0-6.74-.92q-7.82,0-13.32,6.9a24.35,24.35,0,0,0-5.5,15.59,30.92,30.92,0,0,0,2.23,11.88,20.77,20.77,0,0,0,7.06,9,18.77,18.77,0,0,0,11.44,3.55q7.9,0,12.2-4.63a10.8,10.8,0,0,0,2-3.15q.84-2,1.28-3.27c.29-.88.52-1.32.68-1.32a5.23,5.23,0,0,1,1.16.16,8.13,8.13,0,0,1,1.08.32Z"/><path class="cls-3" d="M1491.72,76.05q3.59,0,12.44-.32t13.32-.32q.32,2.31,1.24,6.1t1.08,4.75a2,2,0,0,1-1.44.4q-1,0-1.12-.56-1.2-4.39-3.35-5.62a11.89,11.89,0,0,0-5.9-1.24h-5.34q-6.86,0-7,1a37.84,37.84,0,0,0-.4,6.7V99.74q0,.48,3.43.48h7.46a7.71,7.71,0,0,0,2.11-.32l1.44-.4c.21-.05.49-.4.84-1a5.58,5.58,0,0,0,.6-1.4c.05-.29.24-1,.56-2.27.05-.37.45-.56,1.2-.56a1.88,1.88,0,0,1,1.36.4v15.07a1.85,1.85,0,0,1-1.28.32q-1,0-1.28-.64-.56-2.15-1-3.23a4.77,4.77,0,0,0-.6-1.28,4.94,4.94,0,0,0-.68-.52q-1-.64-8.45-.64-5.74,0-5.74.72v12.36a25.07,25.07,0,0,0,.72,7.26q.24.8,5.42.8h3.83q7.42,0,10-1.36a8.63,8.63,0,0,0,2.67-2.83,18.52,18.52,0,0,0,2.35-5.22q.16-.48,1.12-.48a2.92,2.92,0,0,1,2,.48q-.4,1-1.24,3.31t-1.32,3.67q-.48,1.4-1,3.23a19.94,19.94,0,0,0-.72,3q-4.07,0-12.84-.16t-14.36-.16l-9.65.24a2.08,2.08,0,0,1-.24-1.28c0-.69.08-1,.24-1a12.77,12.77,0,0,0,3.07-.56q2-.56,2.43-1.28.56-1,.56-7.5V86.82a30.15,30.15,0,0,0-.56-6.86q-.24-.64-2.35-1.2a13.77,13.77,0,0,0-3.15-.56q-.32,0-.32-1a2,2,0,0,1,.32-1.36Q1486.38,76.06,1491.72,76.05Z"/><path class="cls-3" d="M1554.37,121.27a26.76,26.76,0,0,1-7.46-19.06,26.9,26.9,0,0,1,7.46-19.1,24.39,24.39,0,0,1,36,0,28,28,0,0,1,0,38.16,24.48,24.48,0,0,1-36,0Zm16.79-42.75a13.65,13.65,0,0,0-12,6.62,27.08,27.08,0,0,0-4.39,15.31,34.71,34.71,0,0,0,2.07,12,22.43,22.43,0,0,0,6.46,9.45,15.24,15.24,0,0,0,10.29,3.79,13.24,13.24,0,0,0,8.93-3.31,19.53,19.53,0,0,0,5.62-8.21,30.28,30.28,0,0,0,1.79-10.49,34.43,34.43,0,0,0-2.07-12,22.5,22.5,0,0,0-6.46-9.41A15.25,15.25,0,0,0,1571.16,78.53Z"/><path class="cls-3" d="M1614.46,76.05q3.59,0,12.44-.32t13.32-.32q.32,2.31,1.24,6.1t1.08,4.75a2,2,0,0,1-1.44.4q-1,0-1.12-.56-1.2-4.39-3.35-5.62a11.89,11.89,0,0,0-5.9-1.24h-5.34q-6.86,0-7,1a37.84,37.84,0,0,0-.4,6.7v13q0,.48,3.35.48h4.23q5.34,0,6.54-.76t2.07-4.35a4.81,4.81,0,0,1,.16-.72q.08-.56,1.2-.56a1.88,1.88,0,0,1,1.36.4v15.47a1.85,1.85,0,0,1-1.28.32q-1,0-1.28-.64-.56-2.15-1-3.23a4.73,4.73,0,0,0-.6-1.28,4.82,4.82,0,0,0-.68-.52q-1-.64-8.45-.64-5.66,0-5.66.72v12.6a30.84,30.84,0,0,0,.72,7.42q.16.56,2.23,1.08a14.19,14.19,0,0,0,2.87.52c.21,0,.32.4.32,1.2a3.53,3.53,0,0,1-.16,1.12q-8-.4-9.25-.4-.4,0-9.57.4a1.69,1.69,0,0,1-.32-1.2c0-.74.11-1.12.32-1.12a14.71,14.71,0,0,0,3.07-.48q2-.48,2.27-1.12a32.09,32.09,0,0,0,.56-7.18V86.82a30.1,30.1,0,0,0-.56-6.86q-.24-.64-2.35-1.2a13.77,13.77,0,0,0-3.15-.56q-.32,0-.32-1a2,2,0,0,1,.32-1.36Q1609.12,76.06,1614.46,76.05Z"/><path class="cls-3" d="M486.32,235.4a91.21,91.21,0,0,1-1.92,10.49q-1.92,9-2.74,9.39-10,6-32.77,6A41,41,0,0,1,418.11,248a44.31,44.31,0,0,1-12.68-31.68,47.14,47.14,0,0,1,13-33.39A42.07,42.07,0,0,1,450.4,169a169.85,169.85,0,0,1,33.32,3.43q-.28,18.38-.27,19.75,0,2.06-2.88,2.06c-.92,0-1.51-.23-1.78-.69q-.41-1.78-1-3.63a21.58,21.58,0,0,0-2.6-4.8,21.22,21.22,0,0,0-4.8-5.07,25.93,25.93,0,0,0-8-3.7,39.52,39.52,0,0,0-11.59-1.58q-13.44,0-22.9,11.86a41.86,41.86,0,0,0-9.46,26.81,53.13,53.13,0,0,0,3.84,20.43,35.69,35.69,0,0,0,12.13,15.43,32.28,32.28,0,0,0,19.68,6.1q13.57,0,21-8a18.59,18.59,0,0,0,3.36-5.42q1.44-3.36,2.19-5.62c.5-1.51.89-2.26,1.17-2.26a8.92,8.92,0,0,1,2,.27,13.87,13.87,0,0,1,1.85.55Z"/><path class="cls-3" d="M539.39,170l27.42,72.4q2.47,6.45,4,9.87.82,2.06,4.25,3.36a16.17,16.17,0,0,0,5.07,1.3q.55,0,.55,2.61a4.51,4.51,0,0,1-.27,1.37q-13.71-.68-15.08-.69l-15.91.69a3.12,3.12,0,0,1-.48-2.26q.07-1.71.62-1.71a15.86,15.86,0,0,0,4.11-.69q2.47-.68,2.88-1.78a9.06,9.06,0,0,0,.27-2.19,21.79,21.79,0,0,0-.48-4.18q-.48-2.4-.89-3.77l-.55-1.51-5.62-15.5a1.11,1.11,0,0,0-.82-.55q-5.35-.41-10.42-.41-7.13,0-17.41.69l-.69.41L514,242.53q-2.33,6.86-2.33,9.46a3.21,3.21,0,0,0,1.1,2.74,10.33,10.33,0,0,0,4,1.58,20.56,20.56,0,0,0,4,.62c.27,0,.43.55.48,1.65a6.25,6.25,0,0,1-.21,2.33q-13.71-.68-14.12-.69-2.75,0-4.8.14t-4.59.27l-4.87.27a2.91,2.91,0,0,1-.55-2.06q0-1.92.55-1.92a17.41,17.41,0,0,0,4.25-.69,6.51,6.51,0,0,0,3.56-1.92q2.88-3.7,6.45-12.89l23.86-61.29q.27-.69.75-2.19t.75-2.26q.27-.75.82-1.92a10.37,10.37,0,0,1,1-1.71q.41-.55,1-1.23a3.43,3.43,0,0,1,1.37-1,5,5,0,0,1,1.71-.27Zm-15.91,49.5q7.13.28,9.74.27,6,0,12.48-.41l.41-.69L535,188.37l-11.79,30.58C523.21,219.31,523.3,219.49,523.49,219.49Z"/><path class="cls-3" d="M613.64,170.27q9.39.28,15.43.27t15.49-.27Q654,170,659.24,170a41.67,41.67,0,0,0,9.46-1.51l2.61,19.61a4.57,4.57,0,0,1-3.29,1c-.82,0-1.28-.23-1.37-.69q-1.92-7.68-4.73-9.94t-10.63-2.26q-14.54,0-15.08,2.06Q635,182.61,635,191.93v49.5a53,53,0,0,0,1.23,12.75q.27,1,3.84,1.85a24.36,24.36,0,0,0,4.94.89q.55,0,.55,2.06a6.1,6.1,0,0,1-.27,1.92q-13.71-.68-15.91-.69-.69,0-16.46.69a2.92,2.92,0,0,1-.55-2.06q0-1.92.55-1.92a25.36,25.36,0,0,0,5.28-.82q3.5-.82,3.91-1.92,1-3.7,1-12.2V192.34q0-11.93-1.23-14.12T607,176.16q-7.82,0-10.63,2.26t-4.73,9.94c-.09.46-.55.69-1.37.69a4.56,4.56,0,0,1-3.29-1l2.6-19.61A41.64,41.64,0,0,0,599,170Q604.25,170,613.64,170.27Z"/><path class="cls-3" d="M744.39,242V217.85l-.27-.55q-12.89-.27-20.29-.27-21.12,0-21.12.69v23.72a53,53,0,0,0,1.23,12.75q.27,1,3.84,1.85a24.36,24.36,0,0,0,4.94.89q.41,0,.48,1.65a6.25,6.25,0,0,1-.21,2.33q-13.71-.68-15.91-.69-.69,0-16.46.69a2.92,2.92,0,0,1-.55-2.06q0-1.92.55-1.92a25.36,25.36,0,0,0,5.28-.82q3.5-.82,3.91-1.92,1-3.7,1-12.2v-53.2q0-8.5-1-12.2-.41-1.1-3.91-2a23.55,23.55,0,0,0-5.28-.89c-.37,0-.55-.59-.55-1.78a3.18,3.18,0,0,1,.55-2.19q1.78.14,7.27.48t9.19.34q2.74,0,5.35-.14t5.62-.34l4.94-.34a5.5,5.5,0,0,1,.21,2.26c0,1.14-.21,1.71-.48,1.71a23,23,0,0,0-4.94,1q-3.57,1-3.84,1.92a53.06,53.06,0,0,0-1.23,12.75v20.43l.27.41q13.44.28,20.84.27,8,0,20.29-.27a.79.79,0,0,0,.27-.55V188.78q0-8.5-1-12.2-.41-1.1-3.91-2a23.55,23.55,0,0,0-5.28-.89c-.37,0-.55-.57-.55-1.71a3.31,3.31,0,0,1,.55-2.26q1.65.14,7.27.48t9.32.34q2.6,0,5.21-.14t5.55-.34l4.87-.34a6.6,6.6,0,0,1,.27,2.06c0,1.28-.18,1.92-.55,1.92a23,23,0,0,0-4.94,1q-3.57,1-3.84,1.92a54.88,54.88,0,0,0-1.1,12.75v52.11a54.85,54.85,0,0,0,1.1,12.75q.27,1,3.84,1.85a24.37,24.37,0,0,0,4.94.89c.36,0,.55.69.55,2.06a6.07,6.07,0,0,1-.27,1.92q-13.71-.68-15.63-.69-.82,0-16.59.69a3.31,3.31,0,0,1-.55-2.26q0-1.71.55-1.71a25.36,25.36,0,0,0,5.28-.82q3.5-.82,3.91-1.92Q744.38,250.48,744.39,242Z"/><path class="cls-3" d="M790.66,248.29q-12.82-13.57-12.82-32.77a46.25,46.25,0,0,1,12.82-32.84Q803.48,169,821.58,169t31,13.64a48.2,48.2,0,0,1,0,65.61q-12.89,13.58-31,13.58T790.66,248.29Zm28.86-73.5q-13,0-20.57,11.38a46.55,46.55,0,0,0-7.54,26.33A59.68,59.68,0,0,0,795,233.21a38.57,38.57,0,0,0,11.11,16.25A26.2,26.2,0,0,0,823.78,256a22.75,22.75,0,0,0,15.36-5.69,33.57,33.57,0,0,0,9.67-14.12,52.07,52.07,0,0,0,3.08-18,59.19,59.19,0,0,0-3.56-20.64,38.69,38.69,0,0,0-11.11-16.18A26.22,26.22,0,0,0,819.53,174.79Z"/><path class="cls-3" d="M893.71,170.54q2.74,0,5.35-.14t5.62-.34l4.94-.34a6.6,6.6,0,0,1,.27,2.06c0,1.28-.18,1.92-.55,1.92a23,23,0,0,0-4.94,1q-3.57,1-3.84,1.92a53,53,0,0,0-1.23,12.75V241a49.44,49.44,0,0,0,1.23,12.07q.41,1.37,9.32,1.37h6.58q12.75,0,17.28-2.33,2.06-1.1,4.59-4.87a31.87,31.87,0,0,0,4-9q.27-.82,1.92-.82,2.6,0,3.43.82-.69,1.78-2.13,5.69t-2.26,6.31q-.82,2.4-1.78,5.55a34.13,34.13,0,0,0-1.23,5.21q-7.13,0-22.28-.41t-24.48-.41l-16.59.41a3.58,3.58,0,0,1-.41-2.19c0-1.19.14-1.78.41-1.78a24.57,24.57,0,0,0,5.35-.82q3.43-.82,4.11-2.06,1-1.65,1-12.89V189.05q0-8.77-1-12.48-.41-1.1-3.91-2a23.56,23.56,0,0,0-5.28-.89c-.37,0-.55-.59-.55-1.78a3.18,3.18,0,0,1,.55-2.19q1.78.14,7.27.48T893.71,170.54Z"/><path class="cls-3" d="M965.43,188.78q0-8.5-1-12.2-.41-1.1-3.91-2a23.55,23.55,0,0,0-5.28-.89c-.37,0-.55-.59-.55-1.78a3.18,3.18,0,0,1,.55-2.19q15.77.69,16.46.69,2.19,0,15.91-.69a6.6,6.6,0,0,1,.27,2.06c0,1.28-.18,1.92-.55,1.92a23,23,0,0,0-4.94,1q-3.57,1-3.84,1.92a53.06,53.06,0,0,0-1.23,12.75v52.11a53,53,0,0,0,1.23,12.75q.27,1,3.84,1.85a24.36,24.36,0,0,0,4.94.89q.55,0,.55,2.06a6.07,6.07,0,0,1-.27,1.92q-13.71-.68-15.91-.69-.69,0-16.46.69a2.92,2.92,0,0,1-.55-2.06q0-1.92.55-1.92a25.36,25.36,0,0,0,5.28-.82q3.5-.82,3.91-1.92,1-3.7,1-12.2Z"/><path class="cls-3" d="M1080.06,235.4a91.21,91.21,0,0,1-1.92,10.49q-1.92,9-2.74,9.39-10,6-32.77,6a41,41,0,0,1-30.78-13.3,44.31,44.31,0,0,1-12.68-31.68,47.14,47.14,0,0,1,13-33.39A42.07,42.07,0,0,1,1044.13,169a169.85,169.85,0,0,1,33.32,3.43q-.28,18.38-.27,19.75,0,2.06-2.88,2.06c-.92,0-1.51-.23-1.78-.69q-.41-1.78-1-3.63a21.58,21.58,0,0,0-2.6-4.8,21.22,21.22,0,0,0-4.8-5.07,25.93,25.93,0,0,0-8-3.7,39.52,39.52,0,0,0-11.59-1.58q-13.44,0-22.9,11.86a41.86,41.86,0,0,0-9.46,26.81,53.13,53.13,0,0,0,3.84,20.43,35.69,35.69,0,0,0,12.13,15.43,32.28,32.28,0,0,0,19.68,6.1q13.57,0,21-8a18.59,18.59,0,0,0,3.36-5.42q1.44-3.36,2.19-5.62c.5-1.51.89-2.26,1.17-2.26a8.92,8.92,0,0,1,2,.27,13.87,13.87,0,0,1,1.85.55Z"/><path class="cls-3" d="M1130.38,240.89V189.05a51.81,51.81,0,0,0-1-11.79q-.41-1.1-4-2.06a23.7,23.7,0,0,0-5.42-1q-.55,0-.55-1.65a3.45,3.45,0,0,1,.55-2.33q7.13.28,16.32.27,7,0,11.45-.07t7.88-.07a44.18,44.18,0,0,1,7.27.62,34.13,34.13,0,0,1,7.61,2.26,28,28,0,0,1,6.92,4.11,18.53,18.53,0,0,1,4.94,6.51,20.69,20.69,0,0,1,1.92,9,15.12,15.12,0,0,1-3.15,9.19,22.86,22.86,0,0,1-5.83,5.9,25.47,25.47,0,0,1-4.59,2.33q-1.1.41-.69.82,5.35,1,12.75,7.75t7.4,16a22,22,0,0,1-9.53,18.72q-9.53,6.93-25.3,6.92h-18.79l-16.59.41a3.58,3.58,0,0,1-.41-2.19c0-1.19.14-1.78.41-1.78a22,22,0,0,0,5.28-1q3.5-1,4.18-2.19Q1130.38,252.13,1130.38,240.89ZM1159,208.94a16,16,0,0,0,9.39-3.91,11.43,11.43,0,0,0,3.77-9q0-9.46-4.73-14.74T1153.42,176a38.08,38.08,0,0,0-9.74,1q-.82.14-.82,1.23l-.55,13.85v16.32q0,1,9,1A62.71,62.71,0,0,0,1159,208.94Zm18.1,27.42a21.09,21.09,0,0,0-5.9-15q-5.9-6.24-18.51-6.24-3,0-9.87.55a14.83,14.83,0,0,0-.55,4.53v20q0,10.42,2.19,12.2t7.4,1.92a42,42,0,0,0,6.79-.55,51.51,51.51,0,0,0,8-2.13,15.19,15.19,0,0,0,7.54-5.48A16.09,16.09,0,0,0,1177.14,236.36Z"/><path class="cls-3" d="M1211.56,188.78q0-8.5-1-12.2-.41-1.1-3.91-2a23.55,23.55,0,0,0-5.28-.89c-.37,0-.55-.59-.55-1.78a3.18,3.18,0,0,1,.55-2.19q15.77.69,16.46.69,2.19,0,15.91-.69a6.6,6.6,0,0,1,.27,2.06c0,1.28-.18,1.92-.55,1.92a23,23,0,0,0-4.94,1q-3.57,1-3.84,1.92a53.06,53.06,0,0,0-1.23,12.75v52.11a53,53,0,0,0,1.23,12.75q.27,1,3.84,1.85a24.36,24.36,0,0,0,4.94.89q.55,0,.55,2.06a6.07,6.07,0,0,1-.27,1.92q-13.71-.68-15.91-.69-.69,0-16.46.69a2.92,2.92,0,0,1-.55-2.06q0-1.92.55-1.92a25.36,25.36,0,0,0,5.28-.82q3.5-.82,3.91-1.92,1-3.7,1-12.2Z"/><path class="cls-3" d="M1247.62,193.3a21.63,21.63,0,0,1,8.09-17.35,28.36,28.36,0,0,1,18.79-6.79,45,45,0,0,1,5.69.34,42.9,42.9,0,0,1,4.39.75q1.71.41,4.94,1.3t5.69,1.44q1.65,7.27,1.65,19.61c0,.64-.46,1-1.37,1q-3.29,0-3.57-1.37-.69-6-5.83-11.72a16.28,16.28,0,0,0-12.55-5.69q-8.23,0-11.59,4.11a15.51,15.51,0,0,0-3.36,10.15,13.33,13.33,0,0,0,1,5,26.8,26.8,0,0,0,1.92,4,15.52,15.52,0,0,0,3.5,3.63q2.54,2.06,3.7,2.88t4.66,3q3.5,2.19,4.46,2.74l4.8,2.95q4.11,2.54,5.62,3.57t4.73,3.7a26.07,26.07,0,0,1,4.66,4.73,28,28,0,0,1,2.74,5.14,16.24,16.24,0,0,1,1.3,6.38,22.34,22.34,0,0,1-8.57,18,30.62,30.62,0,0,1-20.09,7.06,54.64,54.64,0,0,1-7-.48q-3.7-.48-6.17-1t-6.24-1.37q-3.77-.89-5.28-1.17-3.43-16.87-3.43-21.8,0-.82,2.19-.82a4.11,4.11,0,0,1,3.43,1.23q4.66,19.74,22.76,19.75a17.3,17.3,0,0,0,11.66-4.11q4.8-4.11,4.8-11.66a15.14,15.14,0,0,0-.82-5.07,22.22,22.22,0,0,0-1.71-3.84,12.14,12.14,0,0,0-3.15-3.22q-2.26-1.71-3.5-2.54T1276,223.2l-4.52-2.47q-4-2.33-5.55-3.29t-5.21-3.36a27.49,27.49,0,0,1-5.28-4.25q-1.65-1.85-3.84-4.53a16.14,16.14,0,0,1-3.08-5.69A22.08,22.08,0,0,1,1247.62,193.3Z"/><path class="cls-3" d="M1376.1,242V217.85l-.27-.55q-12.89-.27-20.29-.27-21.12,0-21.12.69v23.72a53,53,0,0,0,1.23,12.75q.27,1,3.84,1.85a24.36,24.36,0,0,0,4.94.89q.41,0,.48,1.65a6.25,6.25,0,0,1-.21,2.33q-13.71-.68-15.91-.69-.69,0-16.46.69a2.92,2.92,0,0,1-.55-2.06q0-1.92.55-1.92a25.36,25.36,0,0,0,5.28-.82q3.5-.82,3.91-1.92,1-3.7,1-12.2v-53.2q0-8.5-1-12.2-.41-1.1-3.91-2a23.55,23.55,0,0,0-5.28-.89c-.37,0-.55-.59-.55-1.78a3.18,3.18,0,0,1,.55-2.19q1.78.14,7.27.48t9.19.34q2.74,0,5.35-.14t5.62-.34l4.94-.34a5.5,5.5,0,0,1,.21,2.26c0,1.14-.21,1.71-.48,1.71a23,23,0,0,0-4.94,1q-3.57,1-3.84,1.92a53.06,53.06,0,0,0-1.23,12.75v20.43l.27.41q13.44.28,20.84.27,8,0,20.29-.27a.79.79,0,0,0,.27-.55V188.78q0-8.5-1-12.2-.41-1.1-3.91-2a23.55,23.55,0,0,0-5.28-.89c-.37,0-.55-.57-.55-1.71a3.31,3.31,0,0,1,.55-2.26q1.65.14,7.27.48t9.32.34q2.6,0,5.21-.14t5.55-.34l4.87-.34a6.6,6.6,0,0,1,.27,2.06c0,1.28-.18,1.92-.55,1.92a23,23,0,0,0-4.94,1q-3.57,1-3.84,1.92a54.88,54.88,0,0,0-1.1,12.75v52.11a54.85,54.85,0,0,0,1.1,12.75q.27,1,3.84,1.85a24.37,24.37,0,0,0,4.94.89c.36,0,.55.69.55,2.06a6.07,6.07,0,0,1-.27,1.92q-13.71-.68-15.63-.69-.82,0-16.59.69a3.31,3.31,0,0,1-.55-2.26q0-1.71.55-1.71a25.36,25.36,0,0,0,5.28-.82q3.5-.82,3.91-1.92Q1376.1,250.48,1376.1,242Z"/><path class="cls-3" d="M1422.38,248.29q-12.82-13.57-12.82-32.77a46.25,46.25,0,0,1,12.82-32.84Q1435.2,169,1453.3,169t31,13.64a48.2,48.2,0,0,1,0,65.61q-12.89,13.58-31,13.58T1422.38,248.29Zm28.86-73.5q-13,0-20.57,11.38a46.55,46.55,0,0,0-7.54,26.33,59.68,59.68,0,0,0,3.57,20.71,38.57,38.57,0,0,0,11.11,16.25,26.2,26.2,0,0,0,17.69,6.51,22.75,22.75,0,0,0,15.36-5.69,33.57,33.57,0,0,0,9.67-14.12,52.07,52.07,0,0,0,3.08-18,59.19,59.19,0,0,0-3.56-20.64,38.69,38.69,0,0,0-11.11-16.18A26.22,26.22,0,0,0,1451.24,174.79Z"/><path class="cls-3" d="M1525.84,170.54q4.11,0,9.74-.27t9.6-.27a31.83,31.83,0,0,1,9.12,1.37,35.65,35.65,0,0,1,8.91,4.11,20.66,20.66,0,0,1,7.06,7.82,24.68,24.68,0,0,1,1,20.36,34.8,34.8,0,0,1-5,8.91,25.14,25.14,0,0,1-8.84,7.13,27.07,27.07,0,0,1-12.41,2.81q-7.68,0-10.56-3.84a3.74,3.74,0,0,1-.41-3.15c.09-.36.23-.5.41-.41a26.51,26.51,0,0,0,9.19,1.51q6.86,0,11.79-5.76a20.38,20.38,0,0,0,4.94-13.71q0-9.74-4.25-15.43T1543,176a37.39,37.39,0,0,0-9.6,1,1.31,1.31,0,0,0-1,1,23.84,23.84,0,0,0-.48,4.18q-.21,3.29-.21,9.87v49q0,9.19,1.1,11.93.68,1.78,4.87,2.88a27.24,27.24,0,0,0,6,1.1c.36,0,.55.64.55,1.92a6.62,6.62,0,0,1-.27,2.06q-13.71-.68-17.83-.69l-16.73.69a4.28,4.28,0,0,1-.41-2.47c0-1.19.14-1.78.41-1.78a24.57,24.57,0,0,0,5.35-.82q3.43-.82,4.11-2.06,1-1.65,1-12.89V189.05a51.88,51.88,0,0,0-1-11.79q-.41-1.1-4-2.06a23.69,23.69,0,0,0-5.42-1q-.55,0-.55-1.65a3.45,3.45,0,0,1,.55-2.33Z"/><path class="cls-3" d="M1586.45,193.3a21.63,21.63,0,0,1,8.09-17.35,28.36,28.36,0,0,1,18.79-6.79,45,45,0,0,1,5.69.34,42.9,42.9,0,0,1,4.39.75q1.71.41,4.94,1.3T1634,173q1.65,7.27,1.65,19.61c0,.64-.46,1-1.37,1q-3.29,0-3.57-1.37-.69-6-5.83-11.72a16.28,16.28,0,0,0-12.55-5.69q-8.23,0-11.59,4.11a15.51,15.51,0,0,0-3.36,10.15,13.33,13.33,0,0,0,1,5,26.8,26.8,0,0,0,1.92,4,15.52,15.52,0,0,0,3.5,3.63q2.54,2.06,3.7,2.88t4.66,3q3.5,2.19,4.46,2.74l4.8,2.95q4.11,2.54,5.62,3.57t4.73,3.7a26.07,26.07,0,0,1,4.66,4.73,28,28,0,0,1,2.74,5.14,16.24,16.24,0,0,1,1.3,6.38,22.34,22.34,0,0,1-8.57,18,30.62,30.62,0,0,1-20.09,7.06,54.64,54.64,0,0,1-7-.48q-3.7-.48-6.17-1t-6.24-1.37q-3.77-.89-5.28-1.17-3.43-16.87-3.43-21.8,0-.82,2.19-.82a4.11,4.11,0,0,1,3.43,1.23q4.66,19.74,22.76,19.75a17.3,17.3,0,0,0,11.66-4.11q4.8-4.11,4.8-11.66a15.14,15.14,0,0,0-.82-5.07,22.22,22.22,0,0,0-1.71-3.84,12.14,12.14,0,0,0-3.15-3.22q-2.26-1.71-3.5-2.54t-4.53-2.61l-4.52-2.47q-4-2.33-5.55-3.29t-5.21-3.36a27.49,27.49,0,0,1-5.28-4.25q-1.65-1.85-3.84-4.53a16.14,16.14,0,0,1-3.08-5.69A22.08,22.08,0,0,1,1586.45,193.3Z"/></svg>