<svg id="Layer_1" data-name="Layer 1" xmlns="http://www.w3.org/2000/svg" viewBox="0 0 492.3 64.51"><title>olqm-logo-svg</title><path d="M24.25,7.16a12.66,12.66,0,0,1,5.48,1.16,12,12,0,0,1,4.16,3.23,15,15,0,0,1,2.64,4.87,19.39,19.39,0,0,1,.94,6.16,25.19,25.19,0,0,1-2,10,29.13,29.13,0,0,1-5.32,8.32,25.94,25.94,0,0,1-7.55,5.71,19.27,19.27,0,0,1-8.71,2.13,13.83,13.83,0,0,1-6-1.23,12.67,12.67,0,0,1-4.32-3.29A14.36,14.36,0,0,1,.9,39.48,17.8,17.8,0,0,1,0,33.8a26.57,26.57,0,0,1,1.87-9.71A28.47,28.47,0,0,1,7,15.55a26.76,26.76,0,0,1,7.71-6.06A20.15,20.15,0,0,1,24.25,7.16ZM16.64,46.77a14.76,14.76,0,0,0,6.61-1.61,18.94,18.94,0,0,0,5.84-4.55,23.67,23.67,0,0,0,4.19-7,24.54,24.54,0,0,0,1.61-9.06q0-7.1-3.39-11.13a11.52,11.52,0,0,0-9.32-4,17.82,17.82,0,0,0-7.9,1.74,18.8,18.8,0,0,0-6.16,4.77,22,22,0,0,0-4,7.1,26.21,26.21,0,0,0-1.42,8.71,19.09,19.09,0,0,0,.94,6.13,13.67,13.67,0,0,0,2.71,4.77,11.94,11.94,0,0,0,4.39,3.1A15.1,15.1,0,0,0,16.64,46.77Z"/><path d="M38.77,48.77A1.87,1.87,0,0,1,37.28,48a3.25,3.25,0,0,1-.65-2.1,12,12,0,0,1,.29-2.42q.29-1.39.77-2.94a26,26,0,0,1,1.19-3.1,20.91,20.91,0,0,1,1.61-2.9Q39.8,35,39,35.64a15.39,15.39,0,0,0-1.29,1.13c-.13.09-.24.05-.32-.1a.5.5,0,0,1-.06-.42q.45-.45,1.16-1T40,34.06q.81-.58,1.68-1.13T43.35,32a.38.38,0,0,1,.42.13.49.49,0,0,1,.1.45,23.32,23.32,0,0,0-3.32,5.84,16.63,16.63,0,0,0-1.26,6.1q0,1.87,1.1,1.87a3.54,3.54,0,0,0,2.1-1.13,19.62,19.62,0,0,0,2.61-3q1.35-1.84,2.74-4.16t2.55-4.71a1.87,1.87,0,0,1,.74-.81,2.15,2.15,0,0,1,1.19-.36q.84,0,.58.52-.9,1.68-1.61,3.13a21,21,0,0,0-1.16,2.87,18.94,18.94,0,0,0-.68,2.9,21.43,21.43,0,0,0-.23,3.23q0,2.07,1.16,2.06a1.89,1.89,0,0,0,1.16-.55A8,8,0,0,0,52.83,45a.32.32,0,0,1,.39,0q.19.13.06.45a11,11,0,0,1-2.1,2.35,3.63,3.63,0,0,1-2.29,1,1.69,1.69,0,0,1-1.42-.84,3.9,3.9,0,0,1-.58-2.26,20.71,20.71,0,0,1,.29-3.32,20.44,20.44,0,0,1,.94-3.58A31,31,0,0,1,45.54,43a30,30,0,0,1-2.61,3.13,12.78,12.78,0,0,1-2.35,2A3.71,3.71,0,0,1,38.77,48.77Z"/><path d="M61.67,34.06a15.52,15.52,0,0,1-.19,2.26q-.19,1.29-.52,2.58A17.86,17.86,0,0,1,63.8,34a4.45,4.45,0,0,1,3.35-1.77,2.28,2.28,0,0,1,1.29.39,1.24,1.24,0,0,1,.58,1.1,3.24,3.24,0,0,1-.39,1.32,4.39,4.39,0,0,1-.77,1.19q-.39.26-.39-.19Q67.47,35,66,35q-2.26,0-4.06,3.39a45.75,45.75,0,0,0-3.42,9.39,1.07,1.07,0,0,1-.87.84,5.12,5.12,0,0,1-1.26.19q-.71,0-.32-.71.58-1.36,1.1-2.94t1-3.19q.48-1.61.81-3.16t.52-2.84Q59.73,34,58.83,34a2,2,0,0,0-1.19.58,8.46,8.46,0,0,0-1.26,1.36.38.38,0,0,1-.45,0,.31.31,0,0,1-.06-.42A15.13,15.13,0,0,1,58,33.25a3.58,3.58,0,0,1,2.23-1Q61.67,32.25,61.67,34.06Z"/><path d="M118.69,7.22a3.74,3.74,0,0,1,3.13,1.36,5.26,5.26,0,0,1,1.06,3.35,8.94,8.94,0,0,1-.45,2.71,17.89,17.89,0,0,1-1,2.58.47.47,0,0,1-.48.1c-.15-.06-.2-.2-.16-.42a6.54,6.54,0,0,0,.45-2.39,5,5,0,0,0-.48-2.23,3.92,3.92,0,0,0-1.55-1.65A5.1,5.1,0,0,0,116.5,10a10.26,10.26,0,0,0-4.26.87,9.43,9.43,0,0,0-3.58,3.06,25.73,25.73,0,0,0-3.13,6,82.55,82.55,0,0,0-3,9.58,49.53,49.53,0,0,1-2.84,8.13A23.74,23.74,0,0,1,96,43.48a55.92,55.92,0,0,0,5.84,1.94,26,26,0,0,0,6.87.84,10.44,10.44,0,0,0,5-1.06,8.88,8.88,0,0,0,3.45-4,.37.37,0,0,1,.52.52A12.39,12.39,0,0,1,113.53,47a11.82,11.82,0,0,1-6.9,1.81,19.44,19.44,0,0,1-6.77-1.1q-3-1.1-5.74-2.39A17.12,17.12,0,0,1,83,48.77a5.86,5.86,0,0,1-3.71-1,2.8,2.8,0,0,1-1.26-2.16,3.51,3.51,0,0,1,.48-1.71A4.8,4.8,0,0,1,80,42.35a8.64,8.64,0,0,1,2.23-1.13,8.77,8.77,0,0,1,2.9-.45,16.79,16.79,0,0,1,4.87.71q2.35.71,4.81,1.61,2.9-3.74,5.1-12a71.11,71.11,0,0,1,3.32-9.71,36.56,36.56,0,0,1,4.26-7.55A19,19,0,0,1,112.63,9,11.4,11.4,0,0,1,118.69,7.22ZM85.08,47.41a15.26,15.26,0,0,0,4.39-.58,10,10,0,0,0,3.61-2A37.11,37.11,0,0,0,88.47,43a16.54,16.54,0,0,0-5.19-.77,4.39,4.39,0,0,0-2.58.58,1.78,1.78,0,0,0-.77,1.48,2.68,2.68,0,0,0,1.35,2.23A6.63,6.63,0,0,0,85.08,47.41Z"/><path d="M135.91,44.7q.13-.13.32,0a.33.33,0,0,1,.13.39,11.44,11.44,0,0,1-2.68,2.77,4.24,4.24,0,0,1-2.23.9,1.06,1.06,0,0,1-.94-.58,3.71,3.71,0,0,1-.45-1.58,10.14,10.14,0,0,1,.06-2.26,17.67,17.67,0,0,1,.55-2.61A29,29,0,0,1,127,46.41a7.77,7.77,0,0,1-3.74,2.35,2.36,2.36,0,0,1-2-1.13,6.1,6.1,0,0,1-.81-3.52,10.93,10.93,0,0,1,.87-4.23,13.88,13.88,0,0,1,2.35-3.81,12,12,0,0,1,3.42-2.74,8.53,8.53,0,0,1,4.06-1,6.86,6.86,0,0,1,2,.26,5.26,5.26,0,0,1,1.55.77,4.35,4.35,0,0,1,1.06-.61,3.22,3.22,0,0,1,1.26-.29q.32,0,.19.32a20.11,20.11,0,0,0-2.55,4A25.81,25.81,0,0,0,133.08,41a21.87,21.87,0,0,0-.74,3.64,3.56,3.56,0,0,0,.23,2.16q.32.45,1.16,0A7.89,7.89,0,0,0,135.91,44.7Zm-11.22,1.87a3.19,3.19,0,0,0,1.84-1A18.23,18.23,0,0,0,128.88,43a37.09,37.09,0,0,0,2.42-3.65,38.83,38.83,0,0,0,2.1-4.1,2.35,2.35,0,0,0-1.19-1.35,4.41,4.41,0,0,0-2.16-.52,5.19,5.19,0,0,0-2.68.74,7.47,7.47,0,0,0-2.23,2.06,10.92,10.92,0,0,0-1.55,3.13,13,13,0,0,0-.58,4,5.09,5.09,0,0,0,.48,2.35Q124,46.57,124.69,46.57Z"/><path d="M176.29,0a2,2,0,0,1,2.13,1.29A4.33,4.33,0,0,1,178,4.52q-.52.39-.65-.19a1.44,1.44,0,0,0-.52-1.42A2.82,2.82,0,0,0,175,2.39,8.4,8.4,0,0,0,170.3,4a21,21,0,0,0-4.64,4.48,49.44,49.44,0,0,0-4.39,6.74,75.74,75.74,0,0,0-3.93,8.39q-1.81,4.52-3.26,9.45a95.83,95.83,0,0,0-2.35,9.9,9.22,9.22,0,0,0-.13,2.61q.13,1.13.9,1.13a2,2,0,0,0,1.42-.74,10.87,10.87,0,0,0,1.29-1.65q.13-.13.35,0a.32.32,0,0,1,.16.39,9,9,0,0,1-.9,1.29,12.11,12.11,0,0,1-1.26,1.32,8.48,8.48,0,0,1-1.39,1,2.58,2.58,0,0,1-1.29.42,1.52,1.52,0,0,1-1.52-.94,4.88,4.88,0,0,1-.29-2.42,14.87,14.87,0,0,1,.26-2.06q.19-1,.45-2.06a12.11,12.11,0,0,1-1.55,2.61,23.47,23.47,0,0,1-2,2.29,14.08,14.08,0,0,1-2,1.71,6.12,6.12,0,0,1-1.71.87,3,3,0,0,1-2.1-.94,3.94,3.94,0,0,1-1-3,13.69,13.69,0,0,1,.84-4.74,13.47,13.47,0,0,1,2.29-4,11.91,11.91,0,0,1,3.35-2.81,8.25,8.25,0,0,1,4.1-1.06,3.77,3.77,0,0,1,1.26.19,4,4,0,0,1,1,.52q1.16-3.48,2.81-7.29t3.58-7.45q1.94-3.64,4.1-6.93a44.7,44.7,0,0,1,4.45-5.77,23.81,23.81,0,0,1,4.61-4A8.39,8.39,0,0,1,176.29,0ZM143.65,46.51a3,3,0,0,0,1.71-.81,12.58,12.58,0,0,0,2-2.1,22.72,22.72,0,0,0,1.94-3,24.56,24.56,0,0,0,1.58-3.52q.19-.64.39-1.23a12,12,0,0,0,.32-1.16,1.88,1.88,0,0,0-1-1.13,3.57,3.57,0,0,0-1.61-.35,4.93,4.93,0,0,0-2.64.81,8,8,0,0,0-2.29,2.23,12.12,12.12,0,0,0-1.61,3.35,14,14,0,0,0-.61,4.26,3,3,0,0,0,.55,2A1.62,1.62,0,0,0,143.65,46.51Z"/><path d="M171.52,33.8a1,1,0,0,1,.32-.42q.26-.22.61-.48a4.16,4.16,0,0,1,.71-.42,1.47,1.47,0,0,1,.55-.16c.39,0,.54.15.45.45q-1.42,4-2.77,7.77t-2.9,7.84A42.33,42.33,0,0,1,164.78,56a23.49,23.49,0,0,1-4.13,5,13.55,13.55,0,0,1-9.26,3.58,7.2,7.2,0,0,1-5.19-1.71,5.64,5.64,0,0,1-1.77-4.23,5.73,5.73,0,0,1,.61-2.45,6.1,6.1,0,0,1,1.9-2.26c.13-.09.25,0,.36.13s.12.3,0,.39a4.19,4.19,0,0,0-1,2.77,6.21,6.21,0,0,0,1.55,4.39,6.11,6.11,0,0,0,4.71,1.68,11.83,11.83,0,0,0,4.16-.71A9.71,9.71,0,0,0,160.33,60a21.53,21.53,0,0,0,3.29-4.84,65.69,65.69,0,0,0,3.26-7.61q.71-2.13,1.39-3.93t1.39-3.74a31,31,0,0,1-5.13,6.32q-2.68,2.45-4.74,2.64a1.28,1.28,0,0,1-1.23-.77,4.83,4.83,0,0,1-.39-2.13,14,14,0,0,1,.26-2.55,22.47,22.47,0,0,1,.74-2.87,23.14,23.14,0,0,1,1.23-3A30.08,30.08,0,0,1,162,34.58q-.71.52-1.48,1.13a15.27,15.27,0,0,0-1.29,1.13c-.13.09-.25.05-.36-.1a.34.34,0,0,1,0-.42,23.27,23.27,0,0,1,2.45-2.06,22.19,22.19,0,0,1,3-1.94q.64,0,.52.58a19.74,19.74,0,0,0-1.77,2.87,28.68,28.68,0,0,0-1.39,3.16,22.25,22.25,0,0,0-.9,3.13,13.74,13.74,0,0,0-.32,2.77q0,1.81,1.23,1.81a4,4,0,0,0,2.48-1.39,25.82,25.82,0,0,0,2.9-3.35,34.67,34.67,0,0,0,2.65-4.19A27.67,27.67,0,0,0,171.52,33.8Z"/><path d="M209.84,7.22a14.77,14.77,0,0,1,5.61,1,11.27,11.27,0,0,1,4.13,2.84,12.4,12.4,0,0,1,2.55,4.35A17.09,17.09,0,0,1,223,21a21.84,21.84,0,0,1-2.16,9.55,28,28,0,0,1-5.77,8,32.16,32.16,0,0,1-8.35,5.84,31.19,31.19,0,0,1-10,3,38.64,38.64,0,0,1,3.68,1.52q2,.93,4.16,2t4.52,2.16q2.35,1.1,4.68,2a30.21,30.21,0,0,0,4.48,1.42,20.72,20.72,0,0,0,4.48.45,14.7,14.7,0,0,0,5.45-.87,10.14,10.14,0,0,0,3.71-2.55.47.47,0,0,1,.45,0c.17.06.21.2.13.42A14,14,0,0,1,228,58a13,13,0,0,1-6.61,1.58,22,22,0,0,1-2.48-.13,16.71,16.71,0,0,1-2.26-.42q-1.13-.29-2.29-.71t-2.52-1.06q-3.23-1.42-6.58-3.16t-6.48-3.26a57.6,57.6,0,0,0-6-2.52,14,14,0,0,0-5-.94.6.6,0,0,1-.39-.48c0-.24.17-.48.65-.74a4.75,4.75,0,0,1,2.39-.71,5,5,0,0,1,1.94.52,5.17,5.17,0,0,0,2.06.52,26.91,26.91,0,0,0,9.58-1.74,25.23,25.23,0,0,0,8.13-4.93,24.58,24.58,0,0,0,5.64-7.61A22.21,22.21,0,0,0,220,22.38a20.52,20.52,0,0,0-.71-5.52,12.67,12.67,0,0,0-2.13-4.39,10.1,10.1,0,0,0-3.45-2.87,10.35,10.35,0,0,0-4.74-1,14.46,14.46,0,0,0-6.61,1.52,15.79,15.79,0,0,0-5.19,4.23,19.53,19.53,0,0,0-3.39,6.48,27.58,27.58,0,0,0-1.19,8.35,11.41,11.41,0,0,0,1.52,6,6.27,6.27,0,0,0,4.55,3q2.26.39,3.16-.52a.33.33,0,0,1,.39.13.55.55,0,0,1,.06.45,4.33,4.33,0,0,1-1.81,1.19,7.31,7.31,0,0,1-2.71.48,6.13,6.13,0,0,1-3.1-.77,7.43,7.43,0,0,1-2.32-2.1,9.84,9.84,0,0,1-1.48-3.1,13.66,13.66,0,0,1-.52-3.84,24.5,24.5,0,0,1,1.52-8.51,25.14,25.14,0,0,1,4.13-7.32,20.57,20.57,0,0,1,6.19-5.13A16,16,0,0,1,209.84,7.22Z"/><path d="M224.09,48.77a1.87,1.87,0,0,1-1.48-.81,3.25,3.25,0,0,1-.65-2.1,12,12,0,0,1,.29-2.42q.29-1.39.77-2.94a26,26,0,0,1,1.19-3.1,20.91,20.91,0,0,1,1.61-2.9q-.71.52-1.48,1.13a15.39,15.39,0,0,0-1.29,1.13c-.13.09-.24.05-.32-.1a.5.5,0,0,1-.06-.42q.45-.45,1.16-1t1.52-1.16q.81-.58,1.68-1.13t1.64-.94a.38.38,0,0,1,.42.13.49.49,0,0,1,.1.45,23.32,23.32,0,0,0-3.32,5.84,16.63,16.63,0,0,0-1.26,6.1q0,1.87,1.1,1.87a3.54,3.54,0,0,0,2.1-1.13,19.62,19.62,0,0,0,2.61-3q1.35-1.84,2.74-4.16t2.55-4.71a1.87,1.87,0,0,1,.74-.81,2.15,2.15,0,0,1,1.19-.36q.84,0,.58.52-.9,1.68-1.61,3.13a21,21,0,0,0-1.16,2.87,18.94,18.94,0,0,0-.68,2.9,21.43,21.43,0,0,0-.23,3.23q0,2.07,1.16,2.06a1.89,1.89,0,0,0,1.16-.55A8,8,0,0,0,238.15,45a.32.32,0,0,1,.39,0q.19.13.06.45a11,11,0,0,1-2.1,2.35,3.63,3.63,0,0,1-2.29,1,1.69,1.69,0,0,1-1.42-.84,3.9,3.9,0,0,1-.58-2.26,20.71,20.71,0,0,1,.29-3.32,20.44,20.44,0,0,1,.94-3.58A31,31,0,0,1,230.86,43a30,30,0,0,1-2.61,3.13,12.78,12.78,0,0,1-2.35,2A3.71,3.71,0,0,1,224.09,48.77Z"/><path d="M252.47,35.09a2.44,2.44,0,0,1-.71,1.68,6.6,6.6,0,0,1-1.94,1.39A20.39,20.39,0,0,1,247,39.28q-1.58.52-3.32,1-.06.71-.1,1.42t0,1.55a4.88,4.88,0,0,0,.71,2.71,2.25,2.25,0,0,0,2,1.1,4.8,4.8,0,0,0,2.42-.65,7.37,7.37,0,0,0,2-1.74c.17-.09.3-.06.39.06a.43.43,0,0,1,0,.45,10.38,10.38,0,0,1-2.74,2.55,6.26,6.26,0,0,1-3.45,1.06,3.65,3.65,0,0,1-2.74-1.1,4.45,4.45,0,0,1-1.06-3.23,13.15,13.15,0,0,1,.71-4.1,17.27,17.27,0,0,1,1.87-4,11.56,11.56,0,0,1,2.68-3,5.17,5.17,0,0,1,3.19-1.16,2.92,2.92,0,0,1,2.9,2.84Zm-4.26-1.16a3.48,3.48,0,0,0-2.65,1.29,8.33,8.33,0,0,0-1.68,4.06A12.79,12.79,0,0,0,248.44,38q1.45-.87,1.45-2a2.35,2.35,0,0,0-.45-1.48A1.47,1.47,0,0,0,248.22,33.93Z"/><path d="M265.76,35.09a2.44,2.44,0,0,1-.71,1.68,6.6,6.6,0,0,1-1.94,1.39,20.39,20.39,0,0,1-2.81,1.13q-1.58.52-3.32,1-.06.71-.1,1.42t0,1.55a4.88,4.88,0,0,0,.71,2.71,2.25,2.25,0,0,0,2,1.1,4.8,4.8,0,0,0,2.42-.65,7.37,7.37,0,0,0,2-1.74c.17-.09.3-.06.39.06a.43.43,0,0,1,0,.45,10.38,10.38,0,0,1-2.74,2.55,6.26,6.26,0,0,1-3.45,1.06,3.65,3.65,0,0,1-2.74-1.1,4.45,4.45,0,0,1-1.06-3.23,13.15,13.15,0,0,1,.71-4.1,17.27,17.27,0,0,1,1.87-4,11.56,11.56,0,0,1,2.68-3,5.17,5.17,0,0,1,3.19-1.16,2.92,2.92,0,0,1,2.9,2.84Zm-4.26-1.16a3.48,3.48,0,0,0-2.65,1.29,8.33,8.33,0,0,0-1.68,4.06A12.79,12.79,0,0,0,261.73,38q1.45-.87,1.45-2a2.35,2.35,0,0,0-.45-1.48A1.47,1.47,0,0,0,261.5,33.93Z"/><path d="M284,44.64a.32.32,0,0,1,.39,0,.33.33,0,0,1,.13.39A15.63,15.63,0,0,1,282,47.64a4,4,0,0,1-2.48,1.13q-2,0-2-2.58a17.7,17.7,0,0,1,.77-4.87,31.86,31.86,0,0,1,2.13-5.39,1.81,1.81,0,0,0,.26-.9q0-.71-.65-.71-2.39,0-5.26,3.29T269.5,47.93a1.09,1.09,0,0,1-.71.61,3,3,0,0,1-1.1.23q-.71,0-.52-.58,1.1-2.77,2.29-6.26t2.1-6.9q.26-1.22-.45-1.23a1.86,1.86,0,0,0-1.29.65,12,12,0,0,0-1.35,1.68c-.09.09-.18.06-.29-.06a.39.39,0,0,1-.1-.39A12.59,12.59,0,0,1,270,33.41a3.79,3.79,0,0,1,2.65-1.16q1.61,0,1.1,2.19-.26,1.42-.71,3t-1,3.13a20.43,20.43,0,0,1,2.13-3.29,17.64,17.64,0,0,1,2.55-2.65,13.33,13.33,0,0,1,2.64-1.74,5.7,5.7,0,0,1,2.48-.65,1.7,1.7,0,0,1,1.19.39,1.2,1.2,0,0,1,.42.9,4,4,0,0,1-.39,1.68,33.3,33.3,0,0,0-2.29,5.13,15,15,0,0,0-.94,4.94q0,1.61,1,1.61Q282.28,46.9,284,44.64Z"/><path d="M304.66,32.25a3,3,0,0,1,2.58,1.16,5.06,5.06,0,0,1,.84,3,12.22,12.22,0,0,1-.84,4.39,17,17,0,0,1-2.13,4,12.74,12.74,0,0,1-2.81,2.87,4.9,4.9,0,0,1-2.81,1.1A2.88,2.88,0,0,1,297,47.54a5.79,5.79,0,0,1-.9-3.48,11.94,11.94,0,0,1,.71-3.87,16.4,16.4,0,0,1,1.9-3.84,12.3,12.3,0,0,1,2.71-2.93A5.17,5.17,0,0,1,304.66,32.25Zm-3.87,14.51a3.22,3.22,0,0,0,1.9-.68,6.41,6.41,0,0,0,1.65-1.81,10,10,0,0,0,1.13-2.61,11.33,11.33,0,0,0,.42-3.1,6.19,6.19,0,0,0-.65-3.06,2.26,2.26,0,0,0-2.13-1.13,3.08,3.08,0,0,0-1.87.68,6.22,6.22,0,0,0-1.58,1.81,9.86,9.86,0,0,0-1.06,2.64,12.84,12.84,0,0,0-.39,3.19Q298.21,46.77,300.79,46.77Z"/><path d="M338.65,1.87a3.88,3.88,0,0,1,2.06.52A3.33,3.33,0,0,1,342,3.74a4.06,4.06,0,0,1,.42,1.84,4.63,4.63,0,0,1-.45,2,.26.26,0,0,1-.32.13.61.61,0,0,1-.32-.26,3.59,3.59,0,0,0-1.19-2.29,4.73,4.73,0,0,0-3.32-1,9.19,9.19,0,0,0-4.68,1.29,15.39,15.39,0,0,0-4.52,4.52,48.07,48.07,0,0,0-4.64,8.71q-2.36,5.48-5.06,13.87,1.48-.06,3.13-.06h3.39q.32.13.29.36c0,.15-.23.27-.61.35l-3.23.13q-1.61.06-3.29.19a9.12,9.12,0,0,1-.45,1.29,104,104,0,0,1-5.42,14.16A44.58,44.58,0,0,1,306,58.09a18.49,18.49,0,0,1-5.9,4.9,13.86,13.86,0,0,1-6.1,1.45,4.23,4.23,0,0,1-3.13-1,3.15,3.15,0,0,1-.94-2.26,3.57,3.57,0,0,1,.26-1.26,4.86,4.86,0,0,1,.65-1.19c.13-.13.25-.15.35-.06a.39.39,0,0,1,.16.32,2.18,2.18,0,0,0-.19,1.19,2.44,2.44,0,0,0,.55,1.29,3.69,3.69,0,0,0,1.42,1,6,6,0,0,0,2.42.42,12.34,12.34,0,0,0,3.06-.39,9.28,9.28,0,0,0,3-1.45,14.67,14.67,0,0,0,3-3,32.27,32.27,0,0,0,3.13-5.06,82.3,82.3,0,0,0,3.35-7.58q1.74-4.45,3.61-10.58a4.1,4.1,0,0,0,.19-.61,3.91,3.91,0,0,1,.19-.61q-1.1.13-2.19.29t-2.19.42c-.22,0-.27-.15-.16-.32a1.76,1.76,0,0,1,.58-.52,6.29,6.29,0,0,1,1-.48,4.64,4.64,0,0,1,1.1-.29q.51-.06,1.06-.1t1.13-.1a112.54,112.54,0,0,1,5-12.61,58.91,58.91,0,0,1,5.64-9.68,26.79,26.79,0,0,1,6.13-6.23A11.12,11.12,0,0,1,338.65,1.87Z"/><path d="M411.41,6.45a.46.46,0,0,1,.45.32.56.56,0,0,1-.06.58,31.69,31.69,0,0,0-5.58,6.48,51.56,51.56,0,0,0-4.29,8,47.78,47.78,0,0,0-2.77,8.55,37.73,37.73,0,0,0-1,8.16A14.25,14.25,0,0,0,399,44q.84,2,2.32,2,2.45,0,4.84-3.61a.29.29,0,0,1,.42,0,.37.37,0,0,1,.16.42,24.16,24.16,0,0,1-1.58,2.16,17.59,17.59,0,0,1-1.84,1.94,11.8,11.8,0,0,1-1.9,1.42,3.44,3.44,0,0,1-1.71.55,3.61,3.61,0,0,1-3-2q-1.29-2-1.29-6a42.07,42.07,0,0,1,.68-7.22,49.9,49.9,0,0,1,2-7.77,48.52,48.52,0,0,1,3.39-7.58,38.45,38.45,0,0,1,4.68-6.71,73.94,73.94,0,0,0-8.16,7.13,114.05,114.05,0,0,0-8,8.9q-3.84,4.74-7.13,9.74a79,79,0,0,0-5.48,9.64,6.17,6.17,0,0,1-1,1.16q-.71.71-1.1.71a.4.4,0,0,1-.45-.45,110.92,110.92,0,0,1,3.52-17.77,95.26,95.26,0,0,1,5.45-14.35Q378.77,23.93,373.81,30a76.71,76.71,0,0,1-9.93,10.22,40.56,40.56,0,0,1-10.13,6.35A27.12,27.12,0,0,1,343,48.77a12.41,12.41,0,0,1-4.71-.84,10.56,10.56,0,0,1-3.55-2.32,9.93,9.93,0,0,1-2.26-3.48,12.06,12.06,0,0,1-.77-4.39,11.38,11.38,0,0,1,1.45-5.68A10.2,10.2,0,0,1,337.49,28c.17-.09.29,0,.35.13a.62.62,0,0,1,0,.52,7.48,7.48,0,0,0-2.81,3A10.17,10.17,0,0,0,334.2,36a11.43,11.43,0,0,0,.71,4,9.36,9.36,0,0,0,2.1,3.32,10.07,10.07,0,0,0,3.42,2.26,12.35,12.35,0,0,0,4.74.84A23.88,23.88,0,0,0,356,43.83a43.55,43.55,0,0,0,10.1-7.19,88,88,0,0,0,9.61-10.71q4.71-6.13,9.42-13.22a83.18,83.18,0,0,0-9.45-2.61A44.81,44.81,0,0,0,366.26,9a11.84,11.84,0,0,0-8.06,2.81q-3.23,2.81-3.93,8.55-.13.32-.36.26a.44.44,0,0,1-.29-.39q.71-6.32,4.64-9.68a15.26,15.26,0,0,1,10.26-3.35,41.26,41.26,0,0,1,5.35.36q2.71.36,5.29.9t4.93,1.23q2.35.68,4.29,1.32a.65.65,0,0,1,.29-.06.64.64,0,0,0,.29-.06.26.26,0,0,1,.29.26.65.65,0,0,1-.1.45A5.21,5.21,0,0,0,387.68,13a21.21,21.21,0,0,0-1.29,2.19,71.92,71.92,0,0,0-5.13,13.51q-1.9,7.06-3.19,14.29a107.71,107.71,0,0,1,7-10.71,127.9,127.9,0,0,1,8.32-10.19,106.05,106.05,0,0,1,9-8.87A75.26,75.26,0,0,1,411.41,6.45Z"/><path d="M424.51,44.7q.13-.13.32,0a.33.33,0,0,1,.13.39,11.44,11.44,0,0,1-2.68,2.77,4.24,4.24,0,0,1-2.23.9,1.06,1.06,0,0,1-.94-.58,3.71,3.71,0,0,1-.45-1.58,10.14,10.14,0,0,1,.06-2.26,17.67,17.67,0,0,1,.55-2.61,29,29,0,0,1-3.68,4.68,7.77,7.77,0,0,1-3.74,2.35,2.36,2.36,0,0,1-2-1.13,6.1,6.1,0,0,1-.81-3.52A10.93,10.93,0,0,1,410,39.9a13.88,13.88,0,0,1,2.35-3.81,12,12,0,0,1,3.42-2.74,8.53,8.53,0,0,1,4.06-1,6.86,6.86,0,0,1,2,.26,5.26,5.26,0,0,1,1.55.77,4.35,4.35,0,0,1,1.06-.61,3.22,3.22,0,0,1,1.26-.29q.32,0,.19.32a20.11,20.11,0,0,0-2.55,4A25.81,25.81,0,0,0,421.67,41a21.87,21.87,0,0,0-.74,3.64,3.56,3.56,0,0,0,.23,2.16q.32.45,1.16,0A7.89,7.89,0,0,0,424.51,44.7Zm-11.22,1.87a3.19,3.19,0,0,0,1.84-1A18.23,18.23,0,0,0,417.48,43a37.09,37.09,0,0,0,2.42-3.65,38.83,38.83,0,0,0,2.1-4.1,2.35,2.35,0,0,0-1.19-1.35,4.41,4.41,0,0,0-2.16-.52,5.19,5.19,0,0,0-2.68.74,7.47,7.47,0,0,0-2.23,2.06,10.92,10.92,0,0,0-1.55,3.13,13,13,0,0,0-.58,4,5.09,5.09,0,0,0,.48,2.35Q412.58,46.57,413.28,46.57Z"/><path d="M433.86,34.06a15.52,15.52,0,0,1-.19,2.26q-.19,1.29-.52,2.58A17.86,17.86,0,0,1,436,34a4.45,4.45,0,0,1,3.35-1.77,2.28,2.28,0,0,1,1.29.39,1.24,1.24,0,0,1,.58,1.1,3.24,3.24,0,0,1-.39,1.32,4.39,4.39,0,0,1-.77,1.19q-.39.26-.39-.19,0-1.1-1.48-1.1-2.26,0-4.06,3.39a45.75,45.75,0,0,0-3.42,9.39,1.07,1.07,0,0,1-.87.84,5.12,5.12,0,0,1-1.26.19q-.71,0-.32-.71.58-1.36,1.1-2.94t1-3.19q.48-1.61.81-3.16t.52-2.84Q431.93,34,431,34a2,2,0,0,0-1.19.58,8.46,8.46,0,0,0-1.26,1.36.38.38,0,0,1-.45,0,.31.31,0,0,1-.06-.42,15.13,15.13,0,0,1,2.16-2.23,3.58,3.58,0,0,1,2.23-1Q433.86,32.25,433.86,34.06Z"/><path d="M451.92,32.51c.22.09.3.22.26.39s-.24.28-.58.32l-2.29.13q-1.26.06-2.55.19a62.42,62.42,0,0,0-2.13,6.19,18.79,18.79,0,0,0-.84,4.9q0,2.19,1.68,2.19t3.68-3a.3.3,0,0,1,.39,0,.47.47,0,0,1,.13.48,12.62,12.62,0,0,1-1.32,1.71,11.19,11.19,0,0,1-1.52,1.39,9.68,9.68,0,0,1-1.48.94,2.77,2.77,0,0,1-1.16.36,2.49,2.49,0,0,1-2.1-.87,3.31,3.31,0,0,1-.68-2.1,20.63,20.63,0,0,1,.9-5.35,67.63,67.63,0,0,1,2.26-6.64l-1.61.26-1.48.26q-.32-.06-.16-.32a1.75,1.75,0,0,1,.58-.52,6.3,6.3,0,0,1,1-.48,3,3,0,0,1,1.1-.23,2.89,2.89,0,0,1,.55-.06H445q.91-2,1.81-3.84t1.81-3.39a4.46,4.46,0,0,1,.87-.68,3.1,3.1,0,0,1,.94-.39,2.26,2.26,0,0,1,.71-.06c.17,0,.24.1.19.23a42.35,42.35,0,0,0-2.16,3.74q-1.06,2.07-2,4.26,1.16,0,2.32,0T451.92,32.51Z"/><path d="M465.34,33.8a1,1,0,0,1,.32-.42q.26-.22.61-.48a4.13,4.13,0,0,1,.71-.42,1.48,1.48,0,0,1,.55-.16c.39,0,.54.15.45.45q-1.42,4-2.77,7.77t-2.9,7.84A42.34,42.34,0,0,1,458.6,56a23.52,23.52,0,0,1-4.13,5,13.55,13.55,0,0,1-9.26,3.58A7.2,7.2,0,0,1,440,62.8a5.64,5.64,0,0,1-1.77-4.23,5.73,5.73,0,0,1,.61-2.45,6.1,6.1,0,0,1,1.9-2.26c.13-.09.25,0,.36.13s.12.3,0,.39a4.19,4.19,0,0,0-1,2.77,6.21,6.21,0,0,0,1.55,4.39,6.11,6.11,0,0,0,4.71,1.68,11.83,11.83,0,0,0,4.16-.71A9.72,9.72,0,0,0,454.15,60a21.55,21.55,0,0,0,3.29-4.84,65.69,65.69,0,0,0,3.26-7.61q.71-2.13,1.39-3.93t1.39-3.74a31.08,31.08,0,0,1-5.13,6.32q-2.68,2.45-4.74,2.64a1.29,1.29,0,0,1-1.23-.77,4.84,4.84,0,0,1-.39-2.13,14,14,0,0,1,.26-2.55,22.8,22.8,0,0,1,.74-2.87,23.24,23.24,0,0,1,1.23-3,30,30,0,0,1,1.65-2.94q-.71.52-1.48,1.13a15.27,15.27,0,0,0-1.29,1.13c-.13.09-.25.05-.35-.1a.34.34,0,0,1,0-.42,23.27,23.27,0,0,1,2.45-2.06,22.15,22.15,0,0,1,3-1.94c.43,0,.6.19.52.58a19.73,19.73,0,0,0-1.77,2.87,28.57,28.57,0,0,0-1.39,3.16,22.07,22.07,0,0,0-.9,3.13,13.65,13.65,0,0,0-.32,2.77q0,1.81,1.23,1.81A4,4,0,0,0,458,45.25a25.82,25.82,0,0,0,2.9-3.35,34.59,34.59,0,0,0,2.64-4.19A27.61,27.61,0,0,0,465.34,33.8Z"/><path d="M475.53,34.06a15.51,15.51,0,0,1-.19,2.26q-.19,1.29-.52,2.58A17.86,17.86,0,0,1,477.66,34,4.45,4.45,0,0,1,481,32.25a2.28,2.28,0,0,1,1.29.39,1.24,1.24,0,0,1,.58,1.1,3.25,3.25,0,0,1-.39,1.32,4.38,4.38,0,0,1-.77,1.19q-.39.26-.39-.19,0-1.1-1.48-1.1-2.26,0-4.06,3.39a45.79,45.79,0,0,0-3.42,9.39,1.07,1.07,0,0,1-.87.84,5.12,5.12,0,0,1-1.26.19c-.47,0-.58-.24-.32-.71q.58-1.36,1.1-2.94t1-3.19q.48-1.61.81-3.16t.52-2.84q.26-1.94-.64-1.94a2,2,0,0,0-1.19.58,8.45,8.45,0,0,0-1.26,1.36.38.38,0,0,1-.45,0,.31.31,0,0,1-.06-.42,15.16,15.16,0,0,1,2.16-2.23,3.59,3.59,0,0,1,2.23-1Q475.53,32.25,475.53,34.06Z"/><path d="M489.27,32.25a5,5,0,0,1,2.16.42q.87.42.87.94a5.32,5.32,0,0,1-.29,1.61,8.29,8.29,0,0,1-.61,1.48.3.3,0,0,1-.35,0q-.23-.1-.16-.29a3.65,3.65,0,0,0,.26-1,2.68,2.68,0,0,0-.07-1,1.64,1.64,0,0,0-1.81-1.29,2.47,2.47,0,0,0-1.77.65,2.55,2.55,0,0,0-.68,1.94,3.83,3.83,0,0,0,.55,2q.55.94,1.23,1.87a15.61,15.61,0,0,1,1.23,2,5.07,5.07,0,0,1,.55,2.35,4.68,4.68,0,0,1-1.45,3.48,6,6,0,0,1-4.35,1.42,6.77,6.77,0,0,1-3.29-.71Q480,47.35,480,46.57a3.92,3.92,0,0,1,.71-1.74A6.93,6.93,0,0,1,482.31,43a.24.24,0,0,1,.35.06.3.3,0,0,1,0,.39,3.33,3.33,0,0,0-.77,1.19,2,2,0,0,0-.13,1.19,2.39,2.39,0,0,0,1,1.65,3.3,3.3,0,0,0,1.9.55,3.6,3.6,0,0,0,2.61-.9,3.09,3.09,0,0,0,.94-2.32,4.71,4.71,0,0,0-.58-2.29q-.58-1.06-1.26-2.06t-1.23-2a4.41,4.41,0,0,1-.55-2.16,3.72,3.72,0,0,1,1.26-2.84A4.8,4.8,0,0,1,489.27,32.25Z"/></svg>
