<svg xmlns="http://www.w3.org/2000/svg" viewBox="0 0 428.2 428.2" width="512" height="512"><style>.a{fill:#37591d;}</style><path d="M214.1 149.7c-18.1 0-32.8 14.7-32.8 32.8 0 18.1 14.7 32.8 32.8 32.8 18.1 0 32.8-14.7 32.8-32.8C246.9 164.4 232.2 149.7 214.1 149.7zM214.1 200.3c-9.8 0-17.8-8-17.8-17.8 0-9.8 8-17.8 17.8-17.8 9.8 0 17.8 8 17.8 17.8C231.9 192.3 223.9 200.3 214.1 200.3z" class="a"/><path d="M407.5 413.2h-26.3v-90.6c0-2.9-1.7-5.6-4.3-6.8l-47.8-22.3v-29.9c0-2.8-1.6-5.4-4.1-6.7l-46.5-23.2v-75.5c0-1.7-0.6-3.4-1.7-4.7l-55.3-68.6V39.2h15.1c4.1 0 7.5-3.4 7.5-7.5 0-4.1-3.4-7.5-7.5-7.5h-15.1V7.5c0-4.1-3.4-7.5-7.5-7.5 -4.1 0-7.5 3.4-7.5 7.5v16.7h-15.1c-4.1 0-7.5 3.4-7.5 7.5 0 4.1 3.4 7.5 7.5 7.5h15.1v45.7l-55.3 68.6c-1.1 1.3-1.7 3-1.7 4.7v75.5l-46.5 23.2c-2.5 1.3-4.1 3.9-4.1 6.7v29.9l-47.8 22.3c-2.6 1.2-4.3 3.9-4.3 6.8v90.6H20.7c-4.1 0-7.5 3.4-7.5 7.5s3.4 7.5 7.5 7.5H407.5c4.1 0 7.5-3.4 7.5-7.5S411.7 413.2 407.5 413.2zM366.2 413.2h-37.1V310.1l37.1 17.3V413.2zM99.1 413.2H62v-85.8l37.1-17.3V413.2zM196.3 413.2v-68.4c0-4.4 7.6-9.4 17.8-9.4 10.2 0 17.8 5 17.8 9.4v68.4H196.3zM314.1 413.2h-67.2v-68.4c0-13.7-14.4-24.4-32.8-24.4 -18.4 0-32.8 10.7-32.8 24.4v68.4h-67.2V268.3l46.5-23.2c2.5-1.3 4.1-3.9 4.1-6.7v-77.5l49.4-61.3 49.4 61.3v77.5c0 2.8 1.6 5.4 4.1 6.7l46.5 23.2V413.2z" class="a"/></svg>
