<svg xmlns="http://www.w3.org/2000/svg" viewBox="0 0 300 300" width="512" height="512"><style>.a{fill:#efefef;}</style><path d="M150 75c-41.2 0-74.7 33.5-74.7 74.7 0 41.2 33.5 74.7 74.7 74.7 41.2 0 74.7-33.5 74.7-74.7C224.7 108.5 191.2 75 150 75zM108.7 190.9l21.2-50.4 29.2 29.2L108.7 190.9zM170.1 158.7l-29.2-29.1 50.3-21.1L170.1 158.7z" class="a"/><path d="M150 0C67.2 0 0 67.2 0 150S67.2 300 150 300s150-67.2 150-150S232.8 0 150 0zM150 239.9c-49.8 0-90.3-40.5-90.3-90.3 0-49.8 40.5-90.3 90.3-90.3 49.8 0 90.3 40.5 90.3 90.3S199.8 239.9 150 239.9z" class="a"/></svg>
