<svg xmlns="http://www.w3.org/2000/svg" viewBox="0 0 460 460" width="512" height="512"><style>.a{fill:#37591d;}</style><path d="M460 54.2c0-9.9-6.8-19.1-18.3-24.7 -0.1-16-10.6-29-23.6-29s-23.5 13-23.6 29c-11.5 5.6-18.3 14.8-18.3 24.7 0 1.1 0.1 2.2 0.3 3.3v53.2H83.5l0-51c0.2-1.3 0.3-2.4 0.3-3.5 0-1.1-0.1-2.2-0.3-3.3l-0.1-4.1 -0.6 1c-2.3-7.5-8.5-14-17.4-18.3 -0.1-16-10.6-29-23.6-29 -12.9 0-23.5 13-23.6 29C9.9 35.7 3.8 41.9 1.3 48.9l-1-1.7 0 5.6C0.1 54.1 0 55.2 0 56.3c0 1.1 0.1 2.2 0.3 3.3l0 345.5 0.2 1.2c0 0.1 4.3 13.1 17.9 21 0 0.3 0 0.5 0 0.8 0 16.1 10.6 29.3 23.5 29.3 13 0 23.6-13.1 23.6-29.2 13.8-7.6 17.6-20.7 17.9-22.2l0.1-57.3h292.9l0 56.5 0.2 1.2c0 0.1 4.3 13.2 18 21.1 -0.1 0.9-0.2 1.8-0.2 2.8 0 16.1 10.6 29.3 23.6 29.3s23.6-13.1 23.6-29.3c0-0.7 0-1.3-0.1-2 14.6-8 18-22.1 18-22.3l0.1-0.6L459.6 57.7C459.9 56.4 460 55.3 460 54.2zM418.1 74.4c-17.5 0-32.3-9.3-32.3-20.2 0-11.2 14.5-20.2 32.3-20.2 17.5 0 32.3 9.3 32.3 20.2C450.3 65.1 435.6 74.4 418.1 74.4zM376.4 120.2v218.9H83.5V120.2H376.4zM41.9 76.4c-17.5 0-32.3-9.3-32.3-20.2 0-11.2 14.5-20.2 32.3-20.2 17.5 0 32.3 9.3 32.3 20.2C74.2 67.2 59.4 76.4 41.9 76.4z" class="a"/><rect x="122.2" y="153.8" width="215.6" height="9.5" class="a"/><rect x="149.6" y="186.7" width="153.3" height="9.5" class="a"/><rect x="126.7" y="226.1" width="206.4" height="9.5" class="a"/><rect x="174.3" y="266.4" width="96.5" height="9.5" class="a"/><rect x="144.1" y="306.7" width="167.1" height="9.5" class="a"/></svg>
