<svg xmlns="http://www.w3.org/2000/svg" viewBox="0 0 300 300" width="512" height="512"><style>.a{fill:#efefef;}</style><circle cx="150" cy="226.1" r="11.7" class="a"/><path d="M182.7 68.2h-65.4c-3.7 0-6.6 2.8-6.6 6.3v123.6c0 3.5 3 6.3 6.6 6.3h65.4c3.7 0 6.6-2.8 6.6-6.3V74.6C189.3 71.1 186.4 68.2 182.7 68.2z" class="a"/><path d="M150 0C67.2 0 0 67.2 0 150S67.2 300 150 300s150-67.2 150-150S232.8 0 150 0zM208.4 224c0 11.5-9.3 20.7-20.7 20.7h-75.2c-11.5 0-20.7-9.3-20.7-20.7V75.3c0-11.5 9.3-20.7 20.7-20.7h75.2c11.5 0 20.7 9.3 20.7 20.7V224z" class="a"/></svg>
