<svg class="svg-icon svg-icon__book" xmlns="http://www.w3.org/2000/svg" viewBox="0 0 822.08 822.08"><title>book</title><circle cx="411.04" cy="411.04" r="411.04" style="fill:#fff"/><path d="M138.11,583.15V206.5h24.56c16.59,1.86,33.17,3.82,49.78,5.56,66.75,7,132,19.34,191.86,52,3.53,1.92,9.93,1.93,13.45,0,52.71-28.88,110-41.83,168.89-49.28,24.22-3.06,48.51-5.54,72.77-8.28H684V582.58c-15.79,1.06-29.39,1.91-43,2.88-69.17,4.95-137.11,15.38-201.22,43.75-18.28,8.09-37.39,8.68-55.67.63C305.65,595.31,222.41,586.54,138.11,583.15ZM382.86,571c.7-3,1.27-4.33,1.27-5.63.06-80.48.23-161-.33-241.44,0-4.78-5-12.15-9.43-13.87-29.92-11.6-59.75-24.11-90.7-32.18-29.46-7.68-60.24-10.32-91.23-15.29V532C257.42,537.75,320.94,547.42,382.86,571Zm55,.5c63.11-24.13,127-33.65,191.75-39.63V263.78c-15.76,1.83-30.58,3.17-45.28,5.32-46.88,6.88-92.73,17.3-135.22,39.46-8.19,4.27-11.58,9.26-11.49,19,.52,56.37.25,112.76.25,169.14Z" style="fill:#ac9d88;fill-rule:evenodd"/><path d="M231.61,350.34V311c37,9.76,72.83,19.09,108.52,28.89,2.43.67,5.36,4.83,5.52,7.52.63,10.8.26,21.67.26,32.57Z" style="fill:#ac9d88;fill-rule:evenodd"/><path d="M345.92,515.82,231.78,486.25V446.94c37.15,9.7,72.93,18.92,108.57,28.65,2.39.65,5.16,5.05,5.32,7.85C346.29,494.14,345.92,504.89,345.92,515.82Z" style="fill:#ac9d88;fill-rule:evenodd"/><path d="M346,447.54,231.52,417.76v-37.4c16,3.25,31.29,5.84,46.31,9.54,19.31,4.75,38.31,10.77,57.64,15.45,8.15,2,11.25,5.69,10.64,14C345.46,428.34,346,437.4,346,447.54Z" style="fill:#ac9d88;fill-rule:evenodd"/><path d="M592.21,378.67v38.88L477.86,447.27V407.15Z" style="fill:#ac9d88;fill-rule:evenodd"/><path d="M477.63,380.14c-2.42-38.75-2.54-39.2,33.28-48.83,26.52-7.12,53.41-12.88,80.23-19.27.88,3.58,1.4,4.87,1.48,6.19,2,32,1.92,31.6-28.95,39.18C535.16,364.42,506.88,372.37,477.63,380.14Z" style="fill:#ac9d88;fill-rule:evenodd"/><path d="M477.41,515.72V475.64l114.4-28.5V486Z" style="fill:#ac9d88;fill-rule:evenodd"/></svg>