<svg class="svg-icon svg-icon__calendar" xmlns="http://www.w3.org/2000/svg" viewBox="0 0 822.08 822.08"><title>calendar</title><circle cx="411.04" cy="411.04" r="411.04" style="fill:#fff"/><path d="M350.11,434.26a10.19,10.19,0,0,0-10.19-10.19H304.34a10.19,10.19,0,0,0-10.19,10.19v35.57A10.19,10.19,0,0,0,304.34,480h35.57a10.19,10.19,0,0,0,10.19-10.19Zm0,0" style="fill:#ac9d88"/><path d="M439,434.26a10.19,10.19,0,0,0-10.19-10.19H393.25a10.19,10.19,0,0,0-10.19,10.19v35.57A10.19,10.19,0,0,0,393.25,480h35.58A10.19,10.19,0,0,0,439,469.83Zm0,0" style="fill:#ac9d88"/><path d="M527.94,434.26a10.19,10.19,0,0,0-10.19-10.19H482.17A10.19,10.19,0,0,0,472,434.26v35.57A10.19,10.19,0,0,0,482.17,480h35.58a10.19,10.19,0,0,0,10.19-10.19Zm0,0" style="fill:#ac9d88"/><path d="M350.11,523.18A10.19,10.19,0,0,0,339.91,513H304.34a10.19,10.19,0,0,0-10.19,10.19v35.57a10.19,10.19,0,0,0,10.19,10.19h35.57a10.19,10.19,0,0,0,10.19-10.19Zm0,0" style="fill:#ac9d88"/><path d="M439,523.18A10.19,10.19,0,0,0,428.84,513H393.25a10.19,10.19,0,0,0-10.19,10.19v35.57a10.19,10.19,0,0,0,10.19,10.19h35.58A10.19,10.19,0,0,0,439,558.75Zm0,0" style="fill:#ac9d88"/><path d="M527.94,523.18A10.19,10.19,0,0,0,517.75,513H482.17A10.19,10.19,0,0,0,472,523.18v35.57a10.19,10.19,0,0,0,10.19,10.19h35.58a10.19,10.19,0,0,0,10.19-10.19Zm0,0" style="fill:#ac9d88"/><path d="M591.55,236.47V290.8a44.38,44.38,0,0,1-44.48,44.35H519c-24.56,0-44.75-19.79-44.75-44.35V236.27H347.81V290.8c0,24.56-20.19,44.35-44.74,44.35H275a44.38,44.38,0,0,1-44.48-44.35V236.47a40.44,40.44,0,0,0-39.1,40.23V595.12a40.47,40.47,0,0,0,40.26,40.5H590.39a40.51,40.51,0,0,0,40.26-40.5V276.7a40.44,40.44,0,0,0-39.09-40.23Zm-13,338.83a17.41,17.41,0,0,1-17.41,17.41H260.2a17.41,17.41,0,0,1-17.41-17.41V410.82a17.41,17.41,0,0,1,17.41-17.41H561.12a17.41,17.41,0,0,1,17.41,17.41Zm0,0" style="fill:#ac9d88"/><path d="M274.91,306h27.75a15.25,15.25,0,0,0,15.25-15.24V201.71a15.25,15.25,0,0,0-15.25-15.25H274.91a15.25,15.25,0,0,0-15.25,15.25v89.08A15.25,15.25,0,0,0,274.91,306Zm0,0" style="fill:#ac9d88"/><path d="M518.66,306h27.75a15.24,15.24,0,0,0,15.25-15.24V201.71a15.25,15.25,0,0,0-15.25-15.25H518.66a15.25,15.25,0,0,0-15.25,15.25v89.08A15.25,15.25,0,0,0,518.66,306Zm0,0" style="fill:#ac9d88"/></svg>