<svg class="svg-icon svg-icon__cross" xmlns="http://www.w3.org/2000/svg" viewBox="0 0 822.08 822.08"><title>cross</title><polygon points="424.59 312.8 397.5 312.8 397.5 397.5 312.8 397.5 312.8 424.59 397.5 424.59 397.5 509.29 424.59 509.29 424.59 424.59 509.29 424.59 509.29 397.5 424.59 397.5 424.59 312.8" style="fill:#fff"/><path d="M411,0C184,0,0,184,0,411s184,411,411,411,411-184,411-411S638.05,0,411,0Zm0,638.42c-125.58,0-227.38-101.8-227.38-227.38S285.46,183.66,411,183.66,638.42,285.46,638.42,411,536.62,638.42,411,638.42Z" style="fill:#fff"/></svg>