<svg class="svg-icon svg-icon__dove" xmlns="http://www.w3.org/2000/svg" viewBox="0 0 822.08 822.08"><title>dove</title><path d="M411,0C184,0,0,184,0,411s184,411,411,411,411-184,411-411S638.05,0,411,0ZM647.76,235.18a7.23,7.23,0,0,1,5.17-2.2,7,7,0,0,1,1.82.24,7.21,7.21,0,0,1,5.15,5.13c9.31,35.57,12.29,140.51-54,165.75s-167.32,39.71-167.32,39.71-5.65-122,139.95-170.19C578.56,273.63,620.2,263.59,647.76,235.18Zm40.67,244.71L663.55,582.74A9.77,9.77,0,0,1,647,587.19c-15.67-16.35-44.54-44.21-75.88-63.28a10.29,10.29,0,0,0-13.23,2.2c-20.47,24.48-60.3,41.09-106.12,41.09-59.48,0-108.8-40.86-118.8-80.51a63,63,0,0,1-35-11.82A95.2,95.2,0,0,0,271,461.31c.19,1.36.54,2.92.68,4.25,3.09,26.13.47,43.92.55,43.89a1,1,0,0,1-1.14.93,1.05,1.05,0,0,1-.74-.7c-.08,0-5.91-16.73-13.57-40.91-1.12-3.47-2.38-7.38-3.61-11.12a95.05,95.05,0,0,0-11.17-.87h-8.2a3.73,3.73,0,0,1-2.27-6.7l4-3a144.92,144.92,0,0,0,11.16-9.6c-1-3.23-2-6.29-3.1-9.62-2.92-9.78-6.1-20-9.53-30.32-6.29,11.17-20.74,13.77-31.45,7.3C192.17,397.75,171.5,362.65,171,363c-.11-.26,35.12-6.46,49.22-1.23-5.73-12.79-12-25-18.19-36.16a18.48,18.48,0,0,1-24.51,11.37c-9.55-4.34-31.43-31-31.74-30.79-.13-.15,28.75-9.64,40.61-6.79-4.22-6.64-8.11-12.45-11.54-17.44-8,4.64-18.83,2.56-25.65-5.3-6.8-8.52-15.34-43.63-15.82-43.71-.06-.45,36,9.42,44,19.36,7.47,8.67,7.36,20.2.95,26.89,4.22,4.84,9.06,10.62,14.3,17.25.18-11.29,17.42-40.76,17.27-40.89.39-.27,23.14,34.43,22.57,46.49,0,11.85-9.33,19.2-20.08,17.22a21.18,21.18,0,0,1-3.85-1.49,404.87,404.87,0,0,1,24.32,38.9c2.8-13.69,27.75-44.52,27.56-44.76.65-.32,21.8,46.51,18.55,61.11-2.41,14.32-16.54,21.15-29.95,16.48a319.22,319.22,0,0,1,12.88,31,144.75,144.75,0,0,0,15.88-25.33A63.27,63.27,0,0,1,384.6,383.41c2.51-27.81,14.09-61,45.93-95.3,0,0,24.61-22.43,32.76-52.12a5.59,5.59,0,0,1,9.46-2.37c9.59,10.12,26.1,29.76,35.51,53.21-57.62,38.81-78.05,90.83-85,124.4-4.08,19.71-3.66,33-3.64,33.46a19,19,0,0,0,19,18.15,18.5,18.5,0,0,0,2.69-.19c3-.43,55-8,109.06-21.67a188.47,188.47,0,0,0,61.53,22,353.08,353.08,0,0,0,66.8,4.84,9.78,9.78,0,0,1,9.74,12.07Z" style="fill:#fff"/></svg>