<svg class="svg-icon svg-icon__marriage" xmlns="http://www.w3.org/2000/svg" viewBox="0 0 822.08 822.08"><title>marriage</title><path d="M321.08,368.17A115.86,115.86,0,1,0,380.9,583.22a155.54,155.54,0,0,1,0-198.38A115.16,115.16,0,0,0,321.08,368.17Z" style="fill:#fff"/><path d="M501,368.17a115.12,115.12,0,0,0-59.81,16.67,155.54,155.54,0,0,1,0,198.38,115.84,115.84,0,1,0,59.81-215Z" style="fill:#fff"/><path d="M385.15,484A115.31,115.31,0,0,0,411,557a115.61,115.61,0,0,0,0-145.84A115.31,115.31,0,0,0,385.15,484Z" style="fill:#fff"/><path d="M411,0C184,0,0,184,0,411s184,411,411,411,411-184,411-411S638.05,0,411,0ZM332.73,224.55c1.27-23.75,20.43-42.34,43.61-42.34,17.09,0,28.78,12.31,34.87,19.19,6.42-7,18-19.19,34.54-19.19,23.18,0,42.34,18.6,43.61,42.34.77,14.28-4.49,24.25-9.15,31.34-6.15,9.35-21.25,23.4-33.33,33.43-17.5,14.53-29.53,21.89-35.77,21.89-13.82,0-59.72-40.89-69.22-55.31C337.58,249.37,332,239,332.73,224.55ZM501,639.87a155,155,0,0,1-90-28.66,155,155,0,0,1-90,28.66C235.15,639.87,165.24,570,165.24,484s69.91-155.84,155.84-155.84a155,155,0,0,1,90,28.65,155,155,0,0,1,90-28.65c85.93,0,155.84,69.91,155.84,155.84S586.93,639.87,501,639.87Z" style="fill:#fff"/></svg>