<svg class="svg-icon svg-icon__mpa-android" xmlns="http://www.w3.org/2000/svg" viewBox="0 0 430 430"><title>mpa-android</title><circle cx="215" cy="215" r="215" style="fill:#e3af5d"/><path d="M244.27,355.21a18,18,0,0,0,17.55-17.55v-41h11.72c7,0,11.72-4.69,11.72-11.72V167.87H144.74V284.95c0,7,4.69,11.72,11.72,11.72h11.72v41a17.55,17.55,0,0,0,35.1,0v-41h23.44v41a18,18,0,0,0,17.55,17.55Zm0,0" style="fill:#287192"/><path d="M314.54,284.95a18,18,0,0,0,17.55-17.55v-82a17.55,17.55,0,0,0-35.1,0v82a18,18,0,0,0,17.55,17.55Zm0,0" style="fill:#287192"/><path d="M115.46,284.95A18,18,0,0,0,133,267.39v-82a17.55,17.55,0,0,0-35.1,0v82a18,18,0,0,0,17.55,17.55Zm0,0" style="fill:#287192"/><path d="M271.2,76.56a5.61,5.61,0,0,0-8.17,0L247.3,92.23l-.73.73a69.39,69.39,0,0,0-31.41-7h-.34a69.4,69.4,0,0,0-31.41,7l-.73-.73L167,76.56a5.78,5.78,0,1,0-8.17,8.17L174,99.94a63.43,63.43,0,0,0-13.2,11.86,68.78,68.78,0,0,0-16,40.69c0,.16,0,.32,0,.48-.05,1.06-.07,2.11-.07,3.18H285.26c0-1.06,0-2.12-.07-3.18,0-.16,0-.32,0-.48a68.79,68.79,0,0,0-16-40.69A63.35,63.35,0,0,0,256,99.94L271.2,84.73a5.62,5.62,0,0,0,0-8.17Zm-85.49,59.11a8.78,8.78,0,1,1,8.78-8.78,8.78,8.78,0,0,1-8.78,8.78Zm58.59,0a8.78,8.78,0,1,1,8.78-8.78,8.78,8.78,0,0,1-8.78,8.78Zm0,0" style="fill:#287192"/></svg>