<svg class="svg-icon svg-icon__praying" xmlns="http://www.w3.org/2000/svg" viewBox="0 0 822.08 822.08"><title>praying</title><path d="M411,0C184,0,0,184,0,411s184,411,411,411,411-184,411-411S638.05,0,411,0Zm79.27,183.87a66.09,66.09,0,1,1-66.11,66.06A66.15,66.15,0,0,1,490.31,183.87Zm79.78,229.79-56,56a37.66,37.66,0,0,1-26.78,11c-.56,0-1.17,0-1.77,0A38,38,0,0,1,457,469.65l-25-25-49.73,61.23a15.92,15.92,0,0,0,3.18,23.11L456,578.39a25.23,25.23,0,0,1,2.06,1.78l.77.68a17.12,17.12,0,0,1,1.53,1.45,31,31,0,0,1,2.54,3c.64.85,1,1.37,1.41,1.94.69,1.09,1.25,2.18,1.82,3.27s.89,1.81,1.21,2.62.65,1.93.93,2.94c.36,1.29.65,2.3.85,3.35s.24,2,.32,3a21.32,21.32,0,0,1,.24,2.7l-.08,1a33.72,33.72,0,0,1-.36,3.47c-.12,1.17-.2,1.77-.32,2.38a30.32,30.32,0,0,1-1.49,4.84,14.36,14.36,0,0,1-.48,1.37,40.6,40.6,0,0,1-2.5,4.6l-1,1.66a27.38,27.38,0,0,1-2.54,2.94l-1,1.13a33.57,33.57,0,0,1-4,3.31c-.44.32-.81.6-1.17.85a33.11,33.11,0,0,1-3.87,2.14c-.85.4-1.37.69-1.94.89a33.68,33.68,0,0,1-3.63,1.17,20.76,20.76,0,0,1-2.7.65,24.17,24.17,0,0,1-3.39.4,23.46,23.46,0,0,1-2.54.2H279.64a33.09,33.09,0,0,1-32.39-39.65c3-15.33,17.14-26.42,33.47-26.42h54.62l-10-7.34a117.74,117.74,0,0,0-35.37-17.34c-10.12-3-17.75-6.61-22.71-10.57a70.28,70.28,0,0,1-10.89-98.7l92.53-113.95A70.15,70.15,0,0,1,473,378.33l12.54,12.54,29.93-29.93c12.83-12.78,34.21-15.45,48.69-5.76a38,38,0,0,1,5.93,58.49Z" style="fill:#fff"/></svg>