<svg class="svg-icon svg-icon__priest" xmlns="http://www.w3.org/2000/svg" viewBox="0 0 822.08 822.08"><title>priest</title><polygon points="425.41 515.2 399.76 515.2 399.76 544.51 369.9 544.51 369.9 570.14 399.76 570.14 399.76 600.31 425.41 600.31 425.41 570.14 454.92 570.14 455 570.14 455 544.51 425.41 544.51 425.41 515.2" style="fill:#fff"/><rect x="400.65" y="424.88" width="20.78" height="22.21" style="fill:#fff"/><path d="M407.95,196.26a20.55,20.55,0,0,0-5.3,8.75l1.28.42A23.79,23.79,0,0,1,407.95,196.26Z" style="fill:#fff"/><path d="M411,0C184,0,0,184,0,411s184,411,411,411,411-184,411-411S638.05,0,411,0ZM585.92,593.13s-.29,5.23-10.81,11.83c0,0-72.48,30.44-172.11,28.35,0,0-97-4.85-158.86-32.52,0,0-8.73-2.06-9.1-22.35,0,0,3.15-88.79,30.09-128.62,0,0,7.72-10.54,25.85-17.48,0,0,61.6-18.76,66.33-34.75v-9.74c-7.87-12.46-13.47-26.81-15.19-41-1.94-1.35-5.09-4.73-6.3-12.25,0,0-7.89-28.43,3.73-22.92-8.17-43.18-2-57.86-2-57.86,10.46-32.51,46.63-48.2,46.63-48.2,8.09-8.8,8.24-5.87,7.52-3.3a30.88,30.88,0,0,1,4.44-4.44,30.22,30.22,0,0,0-4.86,6.73l4,2a27.91,27.91,0,0,1,5-6.23,28.94,28.94,0,0,0-4.15,6.65l1.94,1c2.07-7.52,8.3-11.76,10.94-13.26a26.47,26.47,0,0,1,7.31-6.16,22.86,22.86,0,0,0-7.16,10.9,26.09,26.09,0,0,1,9.1-7.59c0,8.68,9.17,16.46,13.75,19.77-1-2.15-1.65-3.51-1.65-3.51a36.31,36.31,0,0,1,4.15,5.23,16.57,16.57,0,0,1,2,.49,28,28,0,0,0-3.37-4.14c1.72,1.58,3.22,3,4.58,4.43,1.5.35,3,.64,4.37,1.06a17.81,17.81,0,0,0-1.29-1.71,20,20,0,0,1,2.72,2.15c24.78,7.37,35,21.27,35,21.27,21.77,24.57,10.53,64,7.09,74.13,9.74-2.78,2.43,23.48,2.43,23.48-1.22,7.52-4.37,10.9-6.23,12.25-2.08,14.62-8.62,30.1-17.93,43.39V398c.83,2.87,5.41,11.84,30.83,20.76,0,0,57.66,18.14,67.11,39.1C561.86,457.83,593.3,529.53,585.92,593.13Z" style="fill:#fff"/></svg>