<svg class="svg-icon svg-icon__twitter" xmlns="http://www.w3.org/2000/svg" viewBox="0 0 236.81 236.81"><title>twitter</title><path d="M118.36,0A118.41,118.41,0,1,0,236.81,118.37,118.42,118.42,0,0,0,118.36,0Zm59,91.85.07,3.76c0,38.52-29.34,82.94-83,82.94A81.9,81.9,0,0,1,49.78,165.4a51.19,51.19,0,0,0,6.94.45,58.54,58.54,0,0,0,36.21-12.5,29.24,29.24,0,0,1-27.23-20.25,26.39,26.39,0,0,0,5.5.52,29.25,29.25,0,0,0,7.65-1A29.17,29.17,0,0,1,55.5,104.06v-.37a28.74,28.74,0,0,0,13.15,3.62A29.13,29.13,0,0,1,55.72,83.1a28.7,28.7,0,0,1,4-14.67,82.63,82.63,0,0,0,60.05,30.43A27.53,27.53,0,0,1,119,92.2a29.18,29.18,0,0,1,50.43-19.95,58.62,58.62,0,0,0,18.5-7A29,29,0,0,1,175.1,81.36a58.77,58.77,0,0,0,16.77-4.62,60.18,60.18,0,0,1-14.53,15.11Zm0,0" style="fill:#fff"/></svg>