<svg class="svg-icon svg-icon__water-drop" xmlns="http://www.w3.org/2000/svg" viewBox="0 0 822.08 822.08"><title>water-drop</title><path d="M382.34,366.85c-5.35,8.91-11.93,17.83-18.87,27.28C341.22,424.28,316,458.47,316,510.8a27.56,27.56,0,0,0,27.41,27.65c13.24,0,27.41-8.54,27.41-32.5,0-44.3,10.79-82.57,20.31-116.35q2.33-8.27,4.47-16.07a7.63,7.63,0,0,0-1.27-6.53C391.37,363,384.8,362.8,382.34,366.85Z" style="fill:#fff"/><path d="M411,0C184,0,0,184,0,411s184,411,411,411,411-184,411-411S638.05,0,411,0Zm0,638.66c-72,0-132.76-58.68-132.76-131,0-117.14,107-151.86,128-320.38.62-5.09,9-5.09,9.61,0,20.93,168.52,128,203.25,128,320.38C543.82,580,483,638.66,411,638.66Z" style="fill:#fff"/></svg>