<svg id="Layer_1" data-name="Layer 1" xmlns="http://www.w3.org/2000/svg" xmlns:xlink="http://www.w3.org/1999/xlink" viewBox="0 0 68 66.68"><defs><style>.cls-1,.cls-3,.cls-4,.cls-5{fill:none;}.cls-2{clip-path:url(#clip-path);}.cls-3,.cls-4,.cls-5{stroke:#f4c141;stroke-width:2px;}.cls-3,.cls-4{stroke-miterlimit:10;}.cls-4,.cls-5{stroke-linecap:round;}.cls-5{stroke-linejoin:round;}</style><clipPath id="clip-path"><rect class="cls-1" width="68" height="66.68"/></clipPath></defs><title>Vector Smart Object</title><g class="cls-2"><path class="cls-3" d="M41.52,24.69V43.31M38,55.39H8.71V24.69H52.34V38.57M67,52.13c0,7.49-6.48,13.56-14.48,13.56S38,59.61,38,52.13s6.48-13.56,14.48-13.56S67,44.64,67,52.13Zm-58.29-7H40.13M8.71,34.32h43.8M30.18,24.69V55.39M19.53,24.69V55.39m40.75-39H.77"/></g><path class="cls-4" d="M52.69,46v12.7m7-6.42H45.74"/><g class="cls-2"><path class="cls-5" d="M49.05,9.38H40.57V1h8.48Zm-28.89,0H11.68V1h8.48Z"/><path class="cls-3" d="M44,63H4.48A3.38,3.38,0,0,1,1,59.77v-51A3.38,3.38,0,0,1,4.48,5.46H11.6m8.52,0h20.5m8.52,0h7.65a3.38,3.38,0,0,1,3.48,3.27V40.62"/></g></svg>