<svg xmlns="http://www.w3.org/2000/svg" fill="#fff" viewBox="0 0 512 512"><path d="M256 177.4c-20.1 0-36.5 16.4-36.5 36.5v53.4c0 4.5 3.6 8.1 8.1 8.1h56.8c4.5 0 8.1-3.6 8.1-8.1v-53.4C292.5 193.8 276.1 177.4 256 177.4zM276.3 259.3h-40.7v-45.3h0c0-11.2 9.1-20.3 20.3-20.3 11.2 0 20.3 9.1 20.3 20.3V259.3z" class="a"/><path d="M98.8 375.1c-18.2 0-33 14.8-33 33v46.9c0 4.5 3.6 8.1 8.1 8.1h49.9c4.5 0 8.1-3.6 8.1-8.1v-46.9C131.8 389.9 117 375.1 98.8 375.1zM115.6 447H81.9v-38.8c0-9.3 7.6-16.9 16.9-16.9 9.3 0 16.9 7.6 16.9 16.9V447z" class="a"/><path d="M413.2 375.1c-18.2 0-33 14.8-33 33v46.9c0 4.5 3.6 8.1 8.1 8.1h49.9c4.5 0 8.1-3.6 8.1-8.1v-46.9C446.3 389.9 431.5 375.1 413.2 375.1zM430.1 447h-33.8v-38.8c0-9.3 7.6-16.9 16.9-16.9s16.9 7.6 16.9 16.9V447z" class="a"/><path d="M492.1 341.5c-0.6-2.2-2.1-4-4.1-5l-42-21.2c-4-2-8.8-0.4-10.8 3.6 -2 4-0.4 8.8 3.6 10.8l34.2 17.3 -8.7 14.2 -2.6-1.3 -115.7-58.5v-18.6l62.4 31.6c4 2 8.8 0.4 10.8-3.6 2-4 0.4-8.8-3.6-10.8l-69.7-35.3v-80.2l27.9-14.1c2.5-1.3 4.2-3.7 4.4-6.5 0.2-2.8-1-5.5-3.3-7.2L264.1 75.5V41.1h16.6c4.5 0 8.1-3.6 8.1-8.1s-3.6-8.1-8.1-8.1h-16.6V8.1C264.1 3.6 260.5 0 256 0c-4.5 0-8.1 3.6-8.1 8.1v16.9h-16.6c-4.5 0-8.1 3.6-8.1 8.1s3.6 8.1 8.1 8.1h16.6v34.4l-110.7 81c-2.3 1.7-3.5 4.4-3.3 7.2 0.2 2.8 1.9 5.3 4.4 6.5l27.9 14.1v23.5c0 4.5 3.6 8.1 8.1 8.1 4.5 0 8.1-3.6 8.1-8.1v-24.4l37.1-27.1 36.6-26.7 34.4 25.2 39.3 28.7v86 36.7 189.7H304.6V365.7c0-4.5-3.6-8.1-8.1-8.1h-81.1c-4.5 0-8.1 3.6-8.1 8.1v130.1h-25V306.1v-36.7 -29.3c0-4.5-3.6-8.1-8.1-8.1s-8.1 3.6-8.1 8.1v24.4L24 336.4c-2 1-3.5 2.8-4.1 5 -0.6 2.2-0.3 4.5 0.9 6.4l16 26v130c0 4.5 3.6 8.1 8.1 8.1h129.4 41.2c0 0 0 0 0 0h81.1c0 0 0 0 0 0h41.2 129.4c4.5 0 8.1-3.6 8.1-8.1V373.9l16-26C492.4 346 492.7 343.6 492.1 341.5zM166.2 495.9H52.9V376.6l113.3-57.3V495.9zM166.2 301.2L50.5 359.7l-2.6 1.3 -8.7-14.2 127.1-64.3V301.2zM288.5 495.9h-65V373.8h65V495.9zM311.4 150.1l-50.7-37.1c-2.8-2.1-6.7-2.1-9.5 0l-33.9 24.8 -43.9 32.1 -16.1-8.2L256 89.6l98.6 72.1 -16.1 8.2L311.4 150.1zM459.1 495.9H345.8V319.3l113.3 57.3V495.9z" class="a"/></svg>