<svg xmlns="http://www.w3.org/2000/svg" fill="#fff" viewBox="0 0 212.8 212.8"><path d="M106.4 0C47.7 0 0 47.7 0 106.4s47.7 106.4 106.4 106.4 106.4-47.7 106.4-106.4S165 0 106.4 0zM106.4 198.8C55.4 198.8 14 157.3 14 106.4S55.4 14 106.4 14s92.4 41.4 92.4 92.4S157.3 198.8 106.4 198.8z" class="a"/><path d="m113.4 100.1v-39.7c4 1.5 7.4 4.2 9.8 7.8 2.1 3.2 6.5 4.1 9.7 2 3.2-2.1 4.1-6.5 2-9.7-5-7.6-12.8-12.8-21.5-14.6v-11.1c0-3.9-3.1-7-7-7s-7 3.1-7 7v11.1c-15.5 3.2-27.2 17-27.2 33.4 0 16.4 11.7 30.2 27.2 33.4v39.7c-4-1.5-7.4-4.2-9.8-7.8-2.1-3.2-6.5-4.1-9.7-2-3.2 2.1-4.1 6.5-2 9.7 5 7.6 12.8 12.8 21.5 14.6v11.1c0 3.9 3.1 7 7 7s7-3.1 7-7v-11.1c15.5-3.2 27.2-17 27.2-33.4 0-16.4-11.7-30.2-27.2-33.4zm-27.2-20.9c0-8.7 5.5-16 13.2-18.9v37.7c-7.7-2.8-13.2-10.2-13.2-18.9zm27.2 73.2v-37.7c7.7 2.8 13.2 10.2 13.2 18.9s-5.5 16-13.2 18.9z" class="a"/></svg>