<svg id="Layer_1" data-name="Layer 1" xmlns="http://www.w3.org/2000/svg" viewBox="0 0 839.3 257.75"><title>formed-logo</title><path d="M476.8,144.81H462.26l-45.6-121-.69.11V144.67h-18.7V1.8h31.3L469,112.21h.76L510.5,1.78h30.74V144.71H522.75V25.12l-.91-.21Z" style="fill:#fff;fill-rule:evenodd"/><path d="M701.07,144.9c-.08-1.41-.2-2.5-.2-3.59q0-67.85,0-135.69c0-3.63,0-3.66,3.5-3.65,15.32,0,30.65-.1,46,.2,30.64.62,56,20.68,63.67,50.41,5.75,22.43,3,43.78-10,63.19C792.9,132.21,777,141.47,757.48,143.7c-10.62,1.21-21.42.95-32.15,1.17C717.39,145,709.45,144.9,701.07,144.9Zm19.62-20.76a3.8,3.8,0,0,0,1,.33c10.92-.16,21.89.21,32.75-.67a41.77,41.77,0,0,0,28.22-14c14.77-16.46,17.93-35.6,10.55-56.06-7.06-19.57-21.83-30-42.49-31.6-9-.68-18.11-.31-27.17-.38a25.83,25.83,0,0,0-2.84.29Z" style="fill:#fff;fill-rule:evenodd"/><path d="M331.58,92.78l37.7,51.94c-1.35.08-2.22.17-3.09.17-6.54,0-13.09-.08-19.63.05a4.88,4.88,0,0,1-4.61-2.31Q320.09,112.28,298.06,82c-.54-.74-1.12-1.45-2.18-2.8v65.42H275V2.31A13.24,13.24,0,0,1,277.07,2c16.35,0,32.72-.18,49.06.21C346.45,2.68,363,17,366.88,37c3,15.61.11,29.89-10.45,42.15-6,7-13.77,11-22.65,13C333.25,92.32,332.73,92.47,331.58,92.78ZM295.83,73.44h25.83a28.87,28.87,0,0,0,3.64-.13c5.58-.72,10.74-2.48,14.83-6.54,7.17-7.11,9.33-15.79,7.27-25.46-2.24-10.51-10.55-18.5-20.48-19.12-10.14-.64-20.34-.44-30.51-.59-.15,0-.31.17-.58.34Z" style="fill:#fff;fill-rule:evenodd"/><path d="M178.54,145.72A72.86,72.86,0,1,1,180.14,0c40.4.76,71.43,34.19,71.4,73C251.5,112.55,219,146,178.54,145.72ZM232.66,73c.39-28.14-22.59-54.06-54.09-54.2-29.65-.14-53.93,24.37-54,54.06-.09,28.71,23,54.24,54.15,54.16A53.85,53.85,0,0,0,232.66,73Z" style="fill:#fff;fill-rule:evenodd"/><path d="M598.94,63.32H664V81.78H599v44.33h65.09v18.58H579V1.88h85.1V19.81c-1.34.08-2.61.23-3.88.23q-28.74,0-57.49,0c-4,0-4,0-4,4q0,17.81,0,35.61C598.73,60.75,598.85,61.85,598.94,63.32Z" style="fill:#fff;fill-rule:evenodd"/><path d="M19.83,63.27H84.66c.12,1.17.3,2.14.31,3.12,0,4,0,8,0,12.06,0,3.25,0,3.3-3.29,3.3h-62v63H0V1.8H84.71V20.08H19.83Z" style="fill:#fff;fill-rule:evenodd"/><path d="M424.89,238.7,421.39,257h-3.28l4.7-23.78c4.06-.86,4.19-.75,4.77,2.88a108.18,108.18,0,0,0,2.84,13.54q1.91-3.5,3.83-7a82,82,0,0,0,4-7.38c1.1-2.61,2.85-2.82,5.46-2.2-.76,4-1.47,7.86-2.25,11.74-.67,3.38-1.4,6.75-2.12,10.11-.49,2.3-.5,2.29-3.72,2l3.79-18-.47-.2-9.42,16.48-1.21-.2-2.93-16.15Z" style="fill:#fff;fill-rule:evenodd"/><path d="M825.45,1.07A13.61,13.61,0,0,1,839.3,14.88c0,8.12-5.78,14.26-13.65,14.42a13.9,13.9,0,0,1-14-14.08C811.6,7.15,817.53,1.08,825.45,1.07ZM815.18,14.86c0,6.57,4.1,11.21,10.15,11.37s10.36-4.42,10.43-10.73c.08-6.92-3.93-11.38-10.21-11.38C819.49,4.11,815.22,8.54,815.18,14.86Z" style="fill:#fff;fill-rule:evenodd"/><path d="M487.84,233.12c2.82-.87,4.09-.09,4.78,2.31,1.42,4.92,3.07,9.77,4.64,14.64.19.58.5,1.11,1,2.19l3.57-19.37,3.49-.17-4.74,24c-3.6.76-3.78.71-4.74-2.28-1.57-4.87-3.08-9.77-4.64-14.64a18.29,18.29,0,0,0-1-2.08C489,243.64,488,249.09,487,254.57c-.35,2.08-1.14,3.11-3.87,2.25Z" style="fill:#fff;fill-rule:evenodd"/><path d="M331.72,233.14,327,256.94h-3.83l-6.18-18.73-.42-.06L313,256.94h-3.41c1-5.12,2-10.11,2.93-15.1.45-2.28,1-4.54,1.38-6.83.21-1.36.48-2.24,2.14-2.29s2.3.66,2.76,2.11c1.47,4.71,3,9.38,4.59,14.07a6.35,6.35,0,0,0,1.53,2.75c.46-2.84.88-5.7,1.39-8.53.48-2.65,1.25-5.27,1.54-7.93C328.12,232.78,329.24,232.4,331.72,233.14Z" style="fill:#fff;fill-rule:evenodd"/><path d="M298.12,243.1a16,16,0,0,1-4,10.75,10.41,10.41,0,0,1-11.34,3.33c-4.42-1.59-5.54-5.34-5.67-9.37a16.34,16.34,0,0,1,4.42-12,10.35,10.35,0,0,1,7.89-3.57,8.2,8.2,0,0,1,8.52,7.52C298,240.86,298.05,242,298.12,243.1Zm-3.7-.19c0-4.25-1.34-6.77-4-7.51s-5.84,1.16-7.74,4.69a14.83,14.83,0,0,0-1.54,9.7c.79,4.79,5.17,6.42,8.93,3.28C293.2,250.43,294.36,246.89,294.41,242.91Z" style="fill:#fff;fill-rule:evenodd"/><path d="M512.52,186.2c5.81-.08,8.59,4.46,8.58,10.5a16.47,16.47,0,0,1-3.24,9.93,12.07,12.07,0,0,1-6.72,4.7c-5,1.32-9.72-1.25-10.69-6.25-1-5.32-.27-10.42,3.34-14.74C506,187.64,508.86,186,512.52,186.2Zm-8.75,14.75c0,4.27,1.31,6.73,4,7.5s5.66-1.05,7.62-4.46a14.69,14.69,0,0,0,1.69-9.67c-.3-2.13-1.17-4-3.31-4.8a5.42,5.42,0,0,0-5.9,1.42A13.18,13.18,0,0,0,503.78,200.94Z" style="fill:#fff;fill-rule:evenodd"/><path d="M358.19,257l4.79-24a60.21,60.21,0,0,1,8.24.07c4.18.6,6.63,3.11,7.13,7.75.82,7.63-2.32,14.65-9.88,16.13C365.35,257.46,362,257,358.19,257Zm4.13-2.78a21,21,0,0,0,3.56.23c5.86-.69,9.3-5.58,8.83-12.47-.27-4-2.28-6.08-6.3-6.44-1.49-.13-2.4.18-2.72,1.95C364.72,242.84,363.54,248.21,362.32,254.17Z" style="fill:#fff;fill-rule:evenodd"/><path d="M515.79,257.14l4.76-24.1c3,0,5.94-.4,8.71.09,4.48.79,6.73,3.71,6.62,8.33a25.32,25.32,0,0,1-1.34,8.44c-1.81,4.66-5.63,7.05-10.68,7.22C521.37,257.21,518.86,257.14,515.79,257.14Zm4.29-3.32a8.77,8.77,0,0,0,10.41-3.66c2.54-4.16,2.74-10.7-.06-12.79-1.56-1.16-3.9-1.51-5.92-1.63-.47,0-1.11,2.38-1.62,3.7a9.52,9.52,0,0,0-.37,1.63C521.71,245.34,520.89,249.61,520.08,253.83Z" style="fill:#fff;fill-rule:evenodd"/><path d="M327.08,187.16l-4.75,23.76h-3.5l2-10.82H310.54l-2.29,10.82-3.46.26c.53-3,1-5.78,1.51-8.55.86-4.47,1.78-8.93,2.68-13.39.53-2.67.92-2.89,4-2.1l-1.76,9.68c3.27,0,6.13.1,9-.08.6,0,1.43-1.05,1.64-1.77.55-1.86.82-3.81,1.2-5.72C323.54,186.55,323.92,186.34,327.08,187.16Z" style="fill:#fff;fill-rule:evenodd"/><path d="M480.22,210.79l2-10.7H472c-.58,2.76-1.2,5.55-1.76,8.35s-.54,2.82-4,2.36c1-4.91,1.89-9.8,2.85-14.69.45-2.28,1.14-4.54,1.36-6.84s1.4-3,3.93-2.37l-1.64,9.87c3.25,0,6.19.11,9.12-.09.57,0,1.32-1.17,1.55-1.93a27.31,27.31,0,0,0,1.12-5.45c.2-2.41,1.37-3.07,4-2.37-.72,3.84-1.43,7.72-2.19,11.59-.64,3.29-1.53,6.54-2,9.85C483.95,210.9,482.83,211.58,480.22,210.79Z" style="fill:#fff;fill-rule:evenodd"/><path d="M740.12,210.79l2-10.63H731.83a83.79,83.79,0,0,0-1.73,8.22c-.3,2.57-1.47,3.15-4,2.43.89-4.74,1.77-9.47,2.68-14.2.48-2.47,1-4.93,1.52-7.39.55-2.71.87-2.89,3.95-2.11l-1.74,9.71c3.22,0,6.09.1,8.94-.08.62,0,1.47-1,1.69-1.75.56-1.87.83-3.82,1.21-5.74.53-2.7.87-2.9,4-2.14-1.49,7.55-2.91,15.13-4.6,22.65-.17.77-2,1.16-3,1.73Z" style="fill:#fff;fill-rule:evenodd"/><path d="M471.21,256.79c-3.6.59-3.9.35-4-2.81,0-1.09-.15-2.18-.26-3.62-2.61,0-5-.08-7.4.05a2.71,2.71,0,0,0-1.69,1.16,11.58,11.58,0,0,0-1.54,3c-.82,2.43-2.39,3.13-5,2.33a18.37,18.37,0,0,1,.79-2c3.43-6.41,7-12.73,10.26-19.24,1.35-2.71,3-3.5,6.24-2.51ZM466,236.46l-.74-.18L460,247.15h6.8Z" style="fill:#fff;fill-rule:evenodd"/><path d="M428.41,211h-3.27l-.92-6.88c-2.42,0-4.89-.08-7.36.06-.57,0-1.24.75-1.61,1.32a12.19,12.19,0,0,0-1.48,3c-.77,2.47-2.4,3.11-4.94,2.43a5.16,5.16,0,0,1,.31-1.18c3.73-7,7.56-14,11.18-21,1-1.89,2.3-2.41,4.05-2a2.93,2.93,0,0,1,1.91,1.81c.87,7,1.58,14.07,2.31,21.11A6.39,6.39,0,0,1,428.41,211Zm-5-20.92-.71-.09-5.26,11.23h6.71Z" style="fill:#fff;fill-rule:evenodd"/><path d="M663.16,210.9l-1-6.8c-2.51,0-5-.08-7.45.07-.56,0-1.2.81-1.57,1.39a14.12,14.12,0,0,0-1.64,3.25c-.79,2.5-2.46,2.65-4.94,2l5.57-10.44q2.83-5.31,5.67-10.62c1.84-3.42,1.95-3.46,6.25-2.68l2.55,23.82c-.91.12-1.44.24-2,.25A11.45,11.45,0,0,1,663.16,210.9Zm-7.8-9.71h6.76c-.2-3.87-.38-7.5-.56-11.13l-.78-.12Z" style="fill:#fff;fill-rule:evenodd"/><path d="M395.74,245.86l-1.69,8.29h10.39c-.14,1.8-.28,3-2.13,3-4,0-8,0-12.42,0,.77-4.15,1.45-8,2.21-11.9.66-3.37,1.5-6.71,2-10.1.28-1.7.89-2.45,2.67-2.41,3.78.08,7.57,0,11.43,0,.17,2.3-.59,3.13-2.54,3s-3.74.07-5.59,0-2.81.46-2.95,2.4c-.11,1.45-.46,2.88-.76,4.69h8.25l-.32,3Z" style="fill:#fff;fill-rule:evenodd"/><path d="M356.45,187.78c-.82.53-1.59,1.41-2.46,1.52a37,37,0,0,1-5.87.07c-1.9-.07-3,.54-3.12,2.63a47.55,47.55,0,0,1-.76,4.74h8.22l-.27,3.06h-8.61L341.84,208h10.24c.24,2.22-.38,3.12-2.38,3.08-3.9-.08-7.8,0-12,0,1.22-6.22,2.32-12.13,3.55-18,1.35-6.47,1.4-6.46,8-6.46H356Z" style="fill:#fff;fill-rule:evenodd"/><path d="M399,209.66c-3,.75-5.41,1.77-7.89,1.9a7.67,7.67,0,0,1-7.93-6.23c-1-5.44-.32-10.64,3.49-15a11.09,11.09,0,0,1,9.38-4.14,6.16,6.16,0,0,1,5.48,3.48l-1.91,1.53c-6.11-3.75-12.21,0-13.06,7.86,0,.37,0,.75,0,1.12-.83,6.2,3.52,11,10.8,6.58Z" style="fill:#fff;fill-rule:evenodd"/><path d="M598,189.64l-2,1.56c-4.43-3.52-8.37-2.21-11,2.7a19.09,19.09,0,0,0-1.95,8.52c-.08,5.1,4.32,7.5,9,5.25l1.6-.79,1.39,1.7c-.2.34-.28.65-.48.79-5.77,4.08-12.45,2.55-14.63-3.34-2.31-6.23.63-14.81,6.27-18.26,3.94-2.42,8.48-2.18,11,.6A8.54,8.54,0,0,1,598,189.64Z" style="fill:#fff;fill-rule:evenodd"/><path d="M627.62,211.13l-3.48-.21,4.79-24.07h13.48c.34,1.75-.22,2.58-2,2.55-2.15,0-4.3,0-6.45,0-1.25,0-2.12.35-2.32,1.82-.26,1.91-.73,3.8-1.21,6.18h8.36c.2,2.09-.26,3.16-2.19,3h-.28c-6.57.22-6.57.22-7.88,6.65C628.21,208.35,627.94,209.61,627.62,211.13Z" style="fill:#fff;fill-rule:evenodd"/><path d="M281.08,210.81l4.11-21.15L279,189.2c-.42-1.21-.71-2.44,1-2.47,5.29-.11,10.57,0,15.85,0,.68,2.09-.22,2.58-1.81,2.71-5.3.42-5.25.45-6.24,5.62-.85,4.47-2,8.89-2.64,13.38C284.8,211,283.67,211.53,281.08,210.81Z" style="fill:#fff;fill-rule:evenodd"/><path d="M717.77,187.87a12.45,12.45,0,0,1-2.33,1.45,5.16,5.16,0,0,1-2.22.05c-2.31-.25-3.25.71-3.64,3.06-.88,5.32-2.12,10.59-3.18,15.88-.61,3-.63,3.07-4,2.4l4.09-21-6.19-.5c-.41-1.29-.57-2.45,1.12-2.48,5.29-.08,10.58,0,15.88,0Z" style="fill:#fff;fill-rule:evenodd"/><path d="M446,210.95h-3.51l4.13-21.31-6.26-.39-.55-.57c.65-.68,1.29-1.92,2-1.94,5.2-.16,10.4-.09,15.69-.09.29,2.11-.54,2.77-2.27,2.74-5.79-.11-4.7-.13-5.8,5.09C448.22,199.93,447.13,205.38,446,210.95Z" style="fill:#fff;fill-rule:evenodd"/><path d="M536.63,208.18h9.62c.22,2-.25,3-2.18,2.94-3.72-.06-7.44,0-11.55,0,.27-1.63.48-3.05.76-4.46,1.13-5.74,2.4-11.46,3.35-17.23.41-2.49,1.44-3.22,4.07-2.41Z" style="fill:#fff;fill-rule:evenodd"/><path d="M683.34,186.82h3.6l-4.78,24.1h-3.61Z" style="fill:#fff;fill-rule:evenodd"/><path d="M567.64,187.09c-1.48,7.55-2.88,15.12-4.56,22.64-.17.78-2,1.2-3,1.78l-.66-.71c.91-4.72,1.8-9.45,2.72-14.16.48-2.47,1-4.92,1.5-7.39C564.19,186.48,564.37,186.37,567.64,187.09Z" style="fill:#fff;fill-rule:evenodd"/><path d="M763.27,208.13c-.27,2.42-1.21,3.63-2.92,3.38-.72-.1-1.94-1.88-1.77-2.14a9.17,9.17,0,0,1,3-2.78C761.77,206.45,762.87,207.77,763.27,208.13Z" style="fill:#fff;fill-rule:evenodd"/><path d="M552.87,254.85c-1.63,1.21-2.62,2.23-3.81,2.66-.4.14-2-1.67-1.92-1.86a9.63,9.63,0,0,1,2.78-3C550.19,252.46,551.42,253.74,552.87,254.85Z" style="fill:#fff;fill-rule:evenodd"/><path d="M164.3,51.8l37.3,21.53L164.3,94.88Z" style="fill:#fff;fill-rule:evenodd"/><path d="M823.33,21.56h-3.08V8.44c2.62,0,5.25-.33,7.76.07,4,.64,4.65,4.41,1.39,8.24l2.07,4.48c-2.27,1-3.58.4-4.58-1.68-.45-.93-1.53-1.56-2.32-2.32l-.67.49Zm.48-11.21v5c1.29-.43,2.42-.54,3.12-1.15a2.25,2.25,0,0,0,.12-2.23C826.41,11.27,825.3,11,823.81,10.35Z" style="fill:#fff;fill-rule:evenodd"/></svg>