<svg id="Layer_4" data-name="Layer 4" xmlns="http://www.w3.org/2000/svg" viewBox="0 0 1222 372.21"><title>header-logo</title><polygon points="463.94 178.09 562.31 248.76 505.39 304.59 502.08 302.66 499.31 250.76 420.06 193.01 463.94 178.09" style="fill:#e4b05e"/><polygon points="239.65 160.42 463.94 178.09 420.06 193.01 251.81 183.59 239.65 160.42" style="fill:#7a4f2d"/><polygon points="53.65 207.09 239.65 160.42 251.81 183.59 107.48 218.26 53.65 207.09" style="fill:#492b1a"/><polygon points="78.15 308.42 20.48 279.59 53.65 207.09 107.48 218.26 79.5 273.13 78.15 308.42" style="fill:#1e1d1e"/><path d="M241.69,134.63s-6.42,3.67-8.79,8.17c0,0-20.08-3.42-20.08,3.58,0,0-15.43-1.11-13.25,3.62,0,0-14.37-1.75-12.62,3.62,0,0-15.37-3-13.12,3.5,0,0-14.87-2.91-11.37,3.29,0,0-15.5-3.29-13.75,3.46,0,0-16.12-2.87-12.87,3.62,0,0-14.12-4.12-12.37,3.62,0,0-15-3.62-13.25,2.5,0,0-12.26-3.22-11.29,1.64,0,0-21.34-1-19.09,2.74,0,0-17.87,1.13-22,3.62a20.13,20.13,0,0,0-8,10.37c-1.12,3.37-7.25,4.5-7.25,4.5s-1.44,3.62,0,5.87c0,0-4.12-2.12-2.5,5.5,0,0-4.37-2.44-1.62,5.19,0,0-4.75-2.56-2.06,5.62,0,0-5.37-2.94-2.37,4.81,0,0-4.25-2.62-1.81,4.87,0,0-4.75-3.5-2.56,4.81,0,0-4.06-4.06-2.12,5.75,0,0-4.12-3.21-2.56,4.69,0,0-3.87-2.44-1.75,5.12,0,0-4.37-2.94-2.06,4.75,0,0-3.85-1.94-2.25,5.06,0,0-2.56,6.81-1.25,9.75s3.31,1.25,4,1.31c.25,0,32-62.54,32-62.54,58.39-27.82,186-46.67,186-46.67l6.23-17.1Z" style="fill:#231e1f"/><polygon points="269.72 129.04 266 133.69 266 139.81 278.81 142.26 281.9 141.7 280.31 137.17 269.72 138.07 269.72 129.04" style="fill:#3e2c26"/><path d="M281.06,6.38l.5,38.87L258.81,32.13V45.82l24,14.19,1.42,56.5h-3.92l-5.5,11.5h6.25l.25,8s-2.62,2.5-2.25,4.75S303.69,145,303.69,145l1.25-5v-9.62l-10-8.62L293.4,65.42l20.3,12.5.12-12.42-21.87-14-.75-39.06Z" style="fill:#fefbe8"/><polygon points="281.06 6.38 271.06 11.34 271.06 39.2 281.56 45.26 281.06 6.38" style="fill:#7d522f"/><polygon points="258.81 32.13 248.73 36.76 248.73 49.76 258.81 45.82 258.81 32.13" style="fill:#7d522f"/><polygon points="248.73 49.76 272.65 63.09 282.81 60.01 258.81 45.82 248.73 49.76" style="fill:#9d5f33"/><polygon points="272.65 63.09 282.81 60.01 284.23 116.51 280.31 116.51 274.81 128.01 272.65 63.09" style="fill:#81532e"/><polygon points="293.4 65.42 313.69 77.92 302 81.07 293.69 75.94 293.4 65.42" style="fill:#cc854a"/><polygon points="274.81 128.01 269.72 129.04 269.72 138.07 280.31 137.17 281.31 136.01 281.06 128.01 274.81 128.01" style="fill:#784d2c"/><polygon points="251.77 357.93 251.95 357.93 251.81 357.92 251.77 357.93" style="fill:none"/><polygon points="107.48 218.26 78.15 273.26 78.15 357.93 107.48 357.93 107.48 218.26" style="fill:#492b1a"/><polygon points="251.77 357.93 251.81 357.92 251.81 183.59 107.48 218.26 107.48 357.93 251.77 357.93" style="fill:#7a4f2d"/><polygon points="251.95 357.93 430.06 357.93 420.06 193.01 251.81 183.59 251.81 357.92 251.95 357.93" style="fill:#e4b05e"/><polygon points="505.02 357.93 499.31 250.76 420.06 193.01 430.06 357.93 505.02 357.93" style="fill:#fedd96"/><path d="M310.31,144.26c10.12-2.75,15.87,2.12,15.87,2.12,7.62-3.75,14.37,1.13,14.37,1.13,7.8-3.5,12.62,1.75,12.62,1.75,6.87-4.25,14.42,1.76,14.42,1.76,5.75-4.22,14.83,1.24,14.83,1.24a13.37,13.37,0,0,1,15.12,1c10.87-6.12,15.62.38,15.62.38,10.62-5,17.62.38,17.62.38,9.75-4.12,13.25,1.13,13.25,1.13,4.37-4.25,12.75-1.71,12.75-1.71v14.08s-211.12-11.37-215.12-20.12,0-12.75,0-12.75a6.67,6.67,0,0,1,5.62,1.63c10.75-1.5,14.75,4,14.75,4,13.12-2,16.75,2,16.75,2,8-1.87,11.38.34,15.08,1.5l10.83.25Z" style="fill:#e16232"/><path d="M230.48,245.92s-2-23.54-21.24-33c0,0-59.76,3.88-63.09,60.35-1.12,19-1,69.2-.82,84.67H171.9l58.58-10.17Z" style="fill:#1e1d1e"/><path d="M103.81,346.26c-.5-23-1.53-53,0-69.37.35-3.77,1.5-37.46-10-19.29-12.51,19.76-10.33,59-10.33,59l-.06,41.33H104C104,354.18,103.9,350.19,103.81,346.26Z" style="fill:#7a4f2d"/><path d="M206.14,211.57a44.35,44.35,0,0,0-18.79-2.42A47.31,47.31,0,0,1,206.14,211.57Z" style="fill:#1e1d1e"/><path d="M186.91,209.18h0Z" style="fill:#1e1d1e"/><path d="M160.73,217.16a58.14,58.14,0,0,1,20.09-7.24A55.94,55.94,0,0,0,160.73,217.16Z" style="fill:#1e1d1e"/><path d="M209.24,212.9a22.56,22.56,0,0,0-3.1-1.33c1.08.41,2.11.85,3.09,1.33Z" style="fill:#9d5f33"/><path d="M187.05,209.17l.3,0Z" style="fill:#9d5f33"/><path d="M180.81,209.92c2.12-.35,4.15-.6,6.1-.74A59.15,59.15,0,0,0,180.81,209.92Z" style="fill:#9d5f33"/><path d="M160.73,217.16c-26.8,16-26.91,49.42-26.91,49.42S134.5,233.1,160.73,217.16Z" style="fill:#9d5f33"/><path d="M146.15,273.26c3.33-56.48,63-60.35,63.09-60.35-1-.48-2-.93-3.09-1.33a47.31,47.31,0,0,0-18.79-2.42l-.3,0h-.14c-1.95.14-4,.39-6.1.74a58.14,58.14,0,0,0-20.09,7.24c-26.23,15.94-26.91,49.42-26.91,49.42l-2.09,91.33h13.6C145.14,342.46,145,292.29,146.15,273.26Z" style="fill:#9d5f33"/><path d="M562.31,236.26h2s2.33-5.42-.5-6,4.73-5.08-6.5-5.54c0,0-.48-7.17-6.33-4.17,0,0,1.5-7.5-7.33-5.33,0,0,2.31-6-6-4.67,0,0,.43-7.92-6.5-5.17,0,0,.14-7.19-7.17-5,0,0,1.33-6.17-6.67-3.67,0,0,1.33-9.5-6.83-3.75,0,0,2.33-9.42-7-6.75,0,0,.17-8.5-7.5-4.83,0,0,1.33-8.5-7.33-4.83,0,0,1.33-7.83-7.33-5.17,0,0,1.5-7.83-6.83-5.67,0,0,.67-8.45-6.33-3.89,0,0-4.67-15.44-11.33-8.44v12.5Z" style="fill:#ec8f61"/><polygon points="20.48 279.59 20.48 264.92 52.81 193.01 53.65 207.09 20.48 279.59" style="fill:#422f28"/><polygon points="52.81 193.01 53.65 207.09 239.65 160.42 239.65 145.01 52.81 193.01" style="fill:#7a4f2d"/><polygon points="239.65 145.01 239.65 160.42 464.81 178.72 463.94 163.76 239.65 145.01" style="fill:#e4b05e"/><polygon points="464.81 178.72 463.94 163.76 562.31 236.26 562.31 248.76 464.81 178.72" style="fill:#fedd96"/><polygon points="440.07 349.94 440.15 355.59 444.6 357.93 452.95 357.93 440.07 349.94" style="fill:#7a4f2d"/><path d="M467.42,357.93V329.87l.95.59v27.48h6.79c2.58-110.23-30-122.95-30.07-123-6.82,7.9-6.28,26-6.28,26l1.21,86,18,11Z" style="fill:#7a4f2d"/><path d="M490.44,357.93h.16c-.25-20.11-.76-47.36-1.79-60.06,0-.22,0-.46-.06-.7.11,1.21.19,2.36.24,3.41C489.61,314.61,490.12,339.35,490.44,357.93Z" style="fill:#e4b05e"/><path d="M458.56,232.63c18.72,7.72,28.35,45,30.16,64.28-1.63-18-9.55-55.54-30.06-64.34-9.17-3.94-13.56,2.39-13.56,2.39h0C448,231.57,452.3,230,458.56,232.63Z" style="fill:#e4b05e"/><path d="M475.16,357.93h2.26V336.07l.95.59v21.28h12.07c-.32-18.59-.83-43.32-1.46-57.34,0-1.05-.13-2.2-.24-3.41l0-.26c-1.8-19.24-11.44-56.56-30.16-64.28C452.3,230,448,231.57,445.09,235,445.16,235,477.74,247.71,475.16,357.93Z" style="fill:#e4b05e"/><polygon points="440.02 346.9 440.07 349.94 440.07 349.94 440.02 346.9 440.02 346.9" style="fill:#fefbe8"/><polygon points="458 357.93 440.02 346.9 440.07 349.94 452.95 357.93 458 357.93" style="fill:#fefbe8"/><polygon points="468.37 330.45 467.42 329.87 467.42 357.93 468.37 357.93 468.37 330.45" style="fill:#fedd96"/><polygon points="478.37 336.65 477.42 336.06 477.42 357.93 478.37 357.93 478.37 336.65" style="fill:#fedd96"/><polygon points="488.49 294.75 505.39 304.59 505.39 320.63 489.54 311.09 488.49 294.75" style="fill:#fefbe8"/><polygon points="505.39 320.63 501.38 321.79 489.66 314.38 489.54 311.09 505.39 320.63" style="fill:#7a4f2d"/><polygon points="488.49 294.75 467.9 298.51 467.9 313.67 489.54 311.09 488.49 294.75" style="fill:#fedd96"/><polygon points="467.9 313.67 471.13 316.44 489.66 314.38 489.54 311.09 467.9 313.67" style="fill:#422f28"/><path d="M286.28,339.51l0-96.75s-3.23-43.15,52.37-41.75c53.12,1.34,54.62,46,54.62,46l2.25,100.75Z" style="fill:#422f28"/><path d="M391.49,347.45l4.07.31s-.2-75.64-2.25-100.75c-3.08-37.75-34.95-44.43-50-45.76-35.64-3.15-48.19,15.12-48.19,15.12s75.52-31.27,92.52,34.73Z" style="fill:#7a4f2d"/><polygon points="438.82 261.51 423.68 252.64 424.68 269.14 439.08 279.69 438.82 261.51" style="fill:#fefbe8"/><polygon points="439.08 279.69 437.31 281.19 424.85 272.01 424.68 269.14 439.08 279.69" style="fill:#7a4f2d"/><polygon points="423.68 252.64 391.19 250.63 391.19 268.76 424.68 269.14 423.68 252.64" style="fill:#fedd96"/><polygon points="391.19 268.76 393.48 271.51 424.85 272.01 424.68 269.14 391.19 268.76" style="fill:#422f28"/><polygon points="391.19 250.63 385.48 258.09 386.15 275.17 391.19 268.76 391.19 250.63" style="fill:#e4b05e"/><polygon points="386.15 275.17 390.56 274.59 393.48 271.51 391.19 268.76 386.15 275.17" style="fill:#1e1d1e"/><polygon points="286.3 289.42 286.28 292.01 393.48 297.76 393.48 295.51 286.3 289.42" style="fill:#fedd96"/><polygon points="294.23 292.43 296.24 292.54 296.24 336.46 294.23 336.35 294.23 292.43" style="fill:#e4b05e"/><polygon points="316.25 293.62 318.26 293.72 318.26 337.71 316.25 337.6 316.25 293.62" style="fill:#e4b05e"/><polygon points="337.88 294.77 339.88 294.88 339.88 338.93 337.88 338.82 337.88 294.77" style="fill:#e4b05e"/><polygon points="360.07 295.96 362.07 296.07 362.07 340.19 360.07 340.08 360.07 295.96" style="fill:#e4b05e"/><polygon points="382.11 297.15 384.11 297.25 384.11 341.44 382.11 341.33 382.11 297.15" style="fill:#e4b05e"/><polygon points="439.49 309.55 439.54 312.59 481.56 338.63 482.83 336.14 439.49 309.55" style="fill:#fefbe8"/><polygon points="446.88 317.14 447.83 317.73 447.83 351.69 446.88 351.11 446.88 317.14" style="fill:#fedd96"/><polygon points="286.28 335.9 286.28 338.47 393.48 344.22 393.48 341.97 286.28 335.9" style="fill:#fedd96"/><polygon points="289 241.89 289 260.38 251.81 259.13 251.81 241.89 289 241.89" style="fill:#fedd96"/><polygon points="289 260.38 287 262.63 251.81 261.76 251.81 259.13 289 260.38" style="fill:#7a4f2d"/><polygon points="251.81 241.89 225.31 246.92 225.31 262.9 251.81 259.13 251.81 241.89" style="fill:#9d5f33"/><polygon points="225.31 262.9 228.15 264.84 251.81 261.76 251.81 259.13 225.31 262.9" style="fill:#1e1d1e"/><polygon points="148.81 274.32 133.73 270.06 133.37 285.8 148.81 290.19 148.81 274.32" style="fill:#cc854a"/><polygon points="148.81 290.19 145.69 292.26 133.31 288.55 133.37 285.8 148.81 290.19" style="fill:#7a4f2d"/><polygon points="133.73 270.06 106.65 274.09 106.65 290.19 133.37 285.8 133.73 270.06" style="fill:#9d5f33"/><polygon points="106.65 290.19 107.48 292.26 133.31 288.55 133.37 285.8 106.65 290.19" style="fill:#422f28"/><polygon points="138.47 312.8 139.15 315.3 230.48 296.01 230.48 293.59 138.47 312.8" style="fill:#cc854a"/><polygon points="223.31 297.52 225.31 297.1 225.31 341.42 223.31 341.83 223.31 297.52" style="fill:#e4b05e"/><polygon points="204.64 301.46 206.65 301.04 206.65 345.31 204.64 345.73 204.64 301.46" style="fill:#e4b05e"/><polygon points="185.98 305.4 187.98 304.98 187.98 349.21 185.98 349.63 185.98 305.4" style="fill:#e4b05e"/><polygon points="166.81 309.45 168.81 309.03 168.81 353.21 166.81 353.63 166.81 309.45" style="fill:#e4b05e"/><polygon points="148.81 313.25 150.81 312.83 150.81 356.97 148.81 357.39 148.81 313.25" style="fill:#e4b05e"/><polygon points="106.65 274.09 100.98 286.99 100.98 299.59 106.65 290.19 106.65 274.09" style="fill:#492b1a"/><polygon points="106.65 290.19 107.48 292.26 103.49 299.07 100.98 299.59 106.65 290.19" style="fill:#1e1d1e"/><polygon points="103.81 319.29 80.81 318.08 81.69 335.11 103.81 335.11 103.81 319.29" style="fill:#9d5f33"/><polygon points="80.81 318.08 75.81 328.26 76.69 345.38 81.69 335.11 80.81 318.08" style="fill:#7a4f2d"/><polygon points="81.69 335.11 83.38 337.13 103.81 337.26 103.81 335.11 81.69 335.11" style="fill:#422f28"/><polygon points="76.69 345.38 78.06 346.82 83.38 337.13 81.69 335.11 76.69 345.38" style="fill:#1e1d1e"/><polygon points="102.82 299.21 102.71 319.24 103.81 319.29 103.49 299.07 102.82 299.21" style="fill:#1e1d1e"/><text transform="translate(420.06 112.29)" style="font-size:123.89198303222656px;font-family:PlayfairDisplaySC-Bold, Playfair Display SC"><tspan style="fill:#fff;font-weight:700">Ou</tspan><tspan x="180.7" y="0" style="fill:#fff;font-weight:700;letter-spacing:-0.011228436636518653em">r</tspan><tspan x="261.82" y="0" xml:space="preserve" style="fill:#fff;font-weight:700"> La</tspan><tspan x="444.09" y="0" style="fill:#fff;font-weight:700;letter-spacing:-0.022945580237912107em">d</tspan><tspan x="531.74" y="0" style="fill:#fff;font-weight:700">y</tspan><tspan x="606.03" y="0" style="font-size:134.1560821533203px;font-family:MyriadPro-Regular, Myriad Pro"> </tspan><tspan x="634.47" y="0" style="fill:#e4b05e;font-size:69.74659729003906px;font-family:OpenSansLight-Italic, Open Sans;font-style:italic">of</tspan></text><text transform="translate(601.37 227.5)" style="font-size:113.26893615722656px;fill:#fff;font-family:PlayfairDisplaySC-Bold, Playfair Display SC;font-weight:700">L<tspan x="69.19" y="0" style="letter-spacing:-0.004879840790883384em">o</tspan><tspan x="154.64" y="0">ur</tspan><tspan x="305.52" y="0" style="letter-spacing:-0.011229668957819095em">d</tspan><tspan x="386.98" y="0" style="letter-spacing:-0.00000431081341950829em">es</tspan></text><text transform="translate(601.88 310.49)" style="font-size:77.34205627441406px;fill:#e4b05e;font-family:OpenSansLight-Italic, Open Sans;font-style:italic">Catholic Church</text><polygon points="95.81 357.93 98.98 357.93 98.98 352.02 100.29 350.22 100.29 357.93 103.35 357.93 103.1 346.33 94.67 357.93 94.68 357.93 95.81 356.37 95.81 357.93" style="fill:none"/><polygon points="230.48 340.34 146.25 357.93 158.62 357.93 230.48 342.73 230.48 340.34" style="fill:#cc854a"/><polygon points="103.88 345.13 103.81 337.26 102.9 337.26 103.05 343.99 103.86 342.87 103.88 345.13" style="fill:#1e1d1e"/><polygon points="103.35 357.93 103.99 357.93 103.88 345.26 103.1 346.33 103.35 357.93" style="fill:#1e1d1e"/><polygon points="103.88 345.26 103.88 345.13 103.88 345.26 103.88 345.26" style="fill:#9d5f33"/><polygon points="103.1 346.33 103.05 343.99 92.98 357.93 94.67 357.93 103.1 346.33" style="fill:#9d5f33"/><polygon points="103.88 345.26 103.88 345.13 103.86 342.87 103.05 343.99 103.1 346.33 103.88 345.26" style="fill:#9d5f33"/><polygon points="100.29 350.22 98.98 352.02 98.98 357.93 100.29 357.93 100.29 350.22" style="fill:#492b1a"/><polygon points="95.81 356.37 94.68 357.93 95.81 357.93 95.81 356.37" style="fill:#492b1a"/><polygon points="458.5 324.34 457.55 323.75 457.55 357.66 458 357.93 458.5 357.93 458.5 324.34" style="fill:#fedd96"/></svg>