<svg id="Layer_4" data-name="Layer 4" xmlns="http://www.w3.org/2000/svg" viewBox="0 0 1105.56 357.93"><title>header-logo</title><polygon points="446.69 178.09 545.06 248.76 488.14 304.59 484.83 302.66 482.06 250.76 402.81 193.01 446.69 178.09" style="fill:#e4b05e"/><polygon points="222.4 160.42 446.69 178.09 402.81 193.01 234.56 183.59 222.4 160.42" style="fill:#7a4f2d"/><polygon points="36.4 207.09 222.4 160.42 234.56 183.59 90.23 218.26 36.4 207.09" style="fill:#492b1a"/><polygon points="60.9 308.42 3.23 279.59 36.4 207.09 90.23 218.26 62.25 273.13 60.9 308.42" style="fill:#1e1d1e"/><path d="M293.19-369.37s-6.42,3.67-8.79,8.17c0,0-20.08-3.42-20.08,3.58,0,0-15.43-1.11-13.25,3.62,0,0-14.37-1.75-12.62,3.62,0,0-15.37-3-13.12,3.5,0,0-14.87-2.91-11.37,3.29,0,0-15.5-3.29-13.75,3.46,0,0-16.12-2.87-12.87,3.62,0,0-14.12-4.12-12.37,3.62,0,0-15-3.62-13.25,2.5,0,0-12.26-3.22-11.29,1.64,0,0-21.34-1-19.09,2.74,0,0-17.87,1.13-22,3.62a20.13,20.13,0,0,0-8,10.37c-1.12,3.37-7.25,4.5-7.25,4.5s-1.44,3.62,0,5.87c0,0-4.12-2.12-2.5,5.5,0,0-4.37-2.44-1.62,5.19,0,0-4.75-2.56-2.06,5.62,0,0-5.37-2.94-2.37,4.81,0,0-4.25-2.62-1.81,4.87,0,0-4.75-3.5-2.56,4.81,0,0-4.06-4.06-2.12,5.75,0,0-4.12-3.21-2.56,4.69,0,0-3.87-2.44-1.75,5.12,0,0-4.37-2.94-2.06,4.75,0,0-3.85-1.94-2.25,5.06,0,0-2.56,6.81-1.25,9.75s3.31,1.25,4,1.31c.25,0,32-62.54,32-62.54,58.39-27.82,186-46.67,186-46.67l6.23-17.1Z" transform="translate(-68.75 504)" style="fill:#231e1f"/><polygon points="252.47 129.04 248.75 133.69 248.75 139.81 261.56 142.26 264.65 141.7 263.05 137.17 252.47 138.07 252.47 129.04" style="fill:#3e2c26"/><path d="M332.57-497.62l.5,38.87-22.75-13.12v13.69l24,14.19,1.42,56.5h-3.92l-5.5,11.5h6.25l.25,8s-2.62,2.5-2.25,4.75S355.19-359,355.19-359l1.25-5v-9.62l-10-8.62-1.58-56.33,20.3,12.5.12-12.42-21.87-14-.75-39.06Z" transform="translate(-68.75 504)" style="fill:#fefbe8"/><polygon points="263.81 6.38 253.81 11.34 253.81 39.2 264.31 45.26 263.81 6.38" style="fill:#7d522f"/><polygon points="241.56 32.13 231.48 36.76 231.48 49.76 241.56 45.82 241.56 32.13" style="fill:#7d522f"/><polygon points="231.48 49.76 255.4 63.09 265.56 60.01 241.56 45.82 231.48 49.76" style="fill:#9d5f33"/><polygon points="255.4 63.09 265.56 60.01 266.98 116.51 263.06 116.51 257.56 128.01 255.4 63.09" style="fill:#81532e"/><polygon points="276.15 65.42 296.44 77.92 284.75 81.07 276.44 75.94 276.15 65.42" style="fill:#cc854a"/><polygon points="257.56 128.01 252.47 129.04 252.47 138.07 263.05 137.17 264.06 136.01 263.81 128.01 257.56 128.01" style="fill:#784d2c"/><polygon points="234.52 357.93 234.7 357.93 234.56 357.92 234.52 357.93" style="fill:none"/><polygon points="90.23 218.26 60.9 273.26 60.9 357.93 90.23 357.93 90.23 218.26" style="fill:#492b1a"/><polygon points="234.52 357.93 234.56 357.92 234.56 183.59 90.23 218.26 90.23 357.93 234.52 357.93" style="fill:#7a4f2d"/><polygon points="234.7 357.93 412.81 357.93 402.81 193.01 234.56 183.59 234.56 357.92 234.7 357.93" style="fill:#e4b05e"/><polygon points="487.77 357.93 482.06 250.76 402.81 193.01 412.81 357.93 487.77 357.93" style="fill:#fedd96"/><path d="M361.82-359.74c10.12-2.75,15.87,2.12,15.87,2.12,7.62-3.75,14.37,1.13,14.37,1.13,7.8-3.5,12.62,1.75,12.62,1.75,6.87-4.25,14.42,1.76,14.42,1.76,5.75-4.22,14.83,1.24,14.83,1.24a13.37,13.37,0,0,1,15.12,1c10.87-6.12,15.62.38,15.62.38,10.62-5,17.62.38,17.62.38,9.75-4.12,13.25,1.13,13.25,1.13,4.37-4.25,12.75-1.71,12.75-1.71v14.08s-211.12-11.37-215.12-20.12,0-12.75,0-12.75a6.67,6.67,0,0,1,5.62,1.63c10.75-1.5,14.75,4,14.75,4,13.12-2,16.75,2,16.75,2,8-1.87,11.38.34,15.08,1.5l10.83.25Z" transform="translate(-68.75 504)" style="fill:#e16232"/><path d="M282-258.08s-2-23.54-21.24-33c0,0-59.76,3.88-63.09,60.35-1.12,19-1,69.2-.82,84.67H223.4L282-156.24Z" transform="translate(-68.75 504)" style="fill:#1e1d1e"/><path d="M155.32-157.74c-.5-23-1.53-53,0-69.37.35-3.77,1.5-37.46-10-19.29-12.51,19.76-10.33,59-10.33,59l-.06,41.33h20.56C155.45-149.82,155.4-153.81,155.32-157.74Z" transform="translate(-68.75 504)" style="fill:#7a4f2d"/><path d="M257.65-292.43a44.35,44.35,0,0,0-18.79-2.42A47.31,47.31,0,0,1,257.65-292.43Z" transform="translate(-68.75 504)" style="fill:#1e1d1e"/><path d="M238.41-294.82h0Z" transform="translate(-68.75 504)" style="fill:#1e1d1e"/><path d="M212.23-286.84a58.14,58.14,0,0,1,20.09-7.24A55.94,55.94,0,0,0,212.23-286.84Z" transform="translate(-68.75 504)" style="fill:#1e1d1e"/><path d="M260.74-291.1a22.56,22.56,0,0,0-3.1-1.33c1.08.41,2.11.85,3.09,1.33Z" transform="translate(-68.75 504)" style="fill:#9d5f33"/><path d="M238.56-294.83l.3,0Z" transform="translate(-68.75 504)" style="fill:#9d5f33"/><path d="M232.32-294.08c2.12-.35,4.15-.6,6.1-.74A59.15,59.15,0,0,0,232.32-294.08Z" transform="translate(-68.75 504)" style="fill:#9d5f33"/><path d="M212.23-286.84c-26.8,16-26.91,49.42-26.91,49.42S186-270.9,212.23-286.84Z" transform="translate(-68.75 504)" style="fill:#9d5f33"/><path d="M197.65-230.74c3.33-56.48,63-60.35,63.09-60.35-1-.48-2-.93-3.09-1.33a47.31,47.31,0,0,0-18.79-2.42l-.3,0h-.14c-1.95.14-4,.39-6.1.74a58.14,58.14,0,0,0-20.09,7.24c-26.23,15.94-26.91,49.42-26.91,49.42l-2.09,91.33h13.6C196.65-161.54,196.53-211.71,197.65-230.74Z" transform="translate(-68.75 504)" style="fill:#9d5f33"/><path d="M613.82-267.74h2s2.33-5.42-.5-6,4.73-5.08-6.5-5.54c0,0-.48-7.17-6.33-4.17,0,0,1.5-7.5-7.33-5.33,0,0,2.31-6-6-4.67,0,0,.43-7.92-6.5-5.17,0,0,.14-7.19-7.17-5,0,0,1.33-6.17-6.67-3.67,0,0,1.33-9.5-6.83-3.75,0,0,2.33-9.42-7-6.75,0,0,.17-8.5-7.5-4.83,0,0,1.33-8.5-7.33-4.83,0,0,1.33-7.83-7.33-5.17,0,0,1.5-7.83-6.83-5.67,0,0,.67-8.45-6.33-3.89,0,0-4.67-15.44-11.33-8.44v12.5Z" transform="translate(-68.75 504)" style="fill:#ec8f61"/><polygon points="3.23 279.59 3.23 264.92 35.56 193.01 36.4 207.09 3.23 279.59" style="fill:#422f28"/><polygon points="35.56 193.01 36.4 207.09 222.4 160.42 222.4 145.01 35.56 193.01" style="fill:#7a4f2d"/><polygon points="222.4 145.01 222.4 160.42 447.55 178.72 446.69 163.76 222.4 145.01" style="fill:#e4b05e"/><polygon points="447.55 178.72 446.69 163.76 545.06 236.26 545.06 248.76 447.55 178.72" style="fill:#fedd96"/><polygon points="422.81 349.94 422.9 355.59 427.35 357.93 435.7 357.93 422.81 349.94" style="fill:#7a4f2d"/><path d="M518.93-146.07v-28.06l.95.59v27.48h6.79c2.58-110.23-30-122.95-30.07-123-6.82,7.9-6.28,26-6.28,26l1.21,86,18,11Z" transform="translate(-68.75 504)" style="fill:#7a4f2d"/><path d="M541.94-146.07h.16c-.25-20.11-.76-47.36-1.79-60.06,0-.22,0-.46-.06-.7.11,1.21.19,2.36.24,3.41C541.11-189.39,541.62-164.65,541.94-146.07Z" transform="translate(-68.75 504)" style="fill:#e4b05e"/><path d="M510.07-271.37c18.72,7.72,28.35,45,30.16,64.28-1.63-18-9.55-55.54-30.06-64.34C501-275.37,496.6-269,496.6-269h0C499.52-272.43,503.8-274,510.07-271.37Z" transform="translate(-68.75 504)" style="fill:#e4b05e"/><path d="M526.66-146.07h2.26v-21.87l.95.59v21.28h12.07c-.32-18.59-.83-43.32-1.46-57.34,0-1.05-.13-2.2-.24-3.41l0-.26c-1.8-19.24-11.44-56.56-30.16-64.28-6.26-2.58-10.54-1.06-13.47,2.33C496.67-269,529.25-256.29,526.66-146.07Z" transform="translate(-68.75 504)" style="fill:#e4b05e"/><polygon points="422.77 346.9 422.81 349.94 422.81 349.94 422.77 346.9 422.77 346.9" style="fill:#fefbe8"/><polygon points="440.75 357.93 422.77 346.9 422.81 349.94 435.7 357.93 440.75 357.93" style="fill:#fefbe8"/><polygon points="451.12 330.45 450.17 329.87 450.17 357.93 451.12 357.93 451.12 330.45" style="fill:#fedd96"/><polygon points="461.12 336.65 460.17 336.06 460.17 357.93 461.12 357.93 461.12 336.65" style="fill:#fedd96"/><polygon points="471.24 294.75 488.14 304.59 488.14 320.63 472.29 311.09 471.24 294.75" style="fill:#fefbe8"/><polygon points="488.14 320.63 484.12 321.79 472.41 314.38 472.29 311.09 488.14 320.63" style="fill:#7a4f2d"/><polygon points="471.24 294.75 450.65 298.51 450.65 313.67 472.29 311.09 471.24 294.75" style="fill:#fedd96"/><polygon points="450.65 313.67 453.87 316.44 472.41 314.38 472.29 311.09 450.65 313.67" style="fill:#422f28"/><path d="M337.78-164.49l0-96.75s-3.23-43.15,52.37-41.75c53.12,1.34,54.62,46,54.62,46l2.25,100.75Z" transform="translate(-68.75 504)" style="fill:#422f28"/><path d="M443-156.55l4.07.31s-.2-75.64-2.25-100.75c-3.08-37.75-34.95-44.43-50-45.76-35.64-3.15-48.19,15.12-48.19,15.12s75.52-31.27,92.52,34.73Z" transform="translate(-68.75 504)" style="fill:#7a4f2d"/><polygon points="421.57 261.51 406.43 252.64 407.43 269.14 421.83 279.69 421.57 261.51" style="fill:#fefbe8"/><polygon points="421.83 279.69 420.06 281.19 407.6 272.01 407.43 269.14 421.83 279.69" style="fill:#7a4f2d"/><polygon points="406.43 252.64 373.94 250.63 373.94 268.76 407.43 269.14 406.43 252.64" style="fill:#fedd96"/><polygon points="373.94 268.76 376.23 271.51 407.6 272.01 407.43 269.14 373.94 268.76" style="fill:#422f28"/><polygon points="373.94 250.63 368.23 258.09 368.9 275.17 373.94 268.76 373.94 250.63" style="fill:#e4b05e"/><polygon points="368.9 275.17 373.31 274.59 376.23 271.51 373.94 268.76 368.9 275.17" style="fill:#1e1d1e"/><polygon points="269.04 289.42 269.03 292.01 376.23 297.76 376.23 295.51 269.04 289.42" style="fill:#fedd96"/><polygon points="276.98 292.43 278.99 292.54 278.99 336.46 276.98 336.35 276.98 292.43" style="fill:#e4b05e"/><polygon points="299 293.62 301 293.72 301 337.71 299 337.6 299 293.62" style="fill:#e4b05e"/><polygon points="320.63 294.77 322.63 294.88 322.63 338.93 320.63 338.82 320.63 294.77" style="fill:#e4b05e"/><polygon points="342.82 295.96 344.82 296.07 344.82 340.19 342.82 340.08 342.82 295.96" style="fill:#e4b05e"/><polygon points="364.86 297.15 366.86 297.25 366.86 341.44 364.86 341.33 364.86 297.15" style="fill:#e4b05e"/><polygon points="422.24 309.55 422.29 312.59 464.31 338.63 465.58 336.14 422.24 309.55" style="fill:#fefbe8"/><polygon points="429.63 317.14 430.58 317.73 430.58 351.69 429.63 351.11 429.63 317.14" style="fill:#fedd96"/><polygon points="269.03 335.9 269.03 338.47 376.23 344.22 376.23 341.97 269.03 335.9" style="fill:#fedd96"/><polygon points="271.75 241.89 271.75 260.38 234.56 259.13 234.56 241.89 271.75 241.89" style="fill:#fedd96"/><polygon points="271.75 260.38 269.75 262.63 234.56 261.76 234.56 259.13 271.75 260.38" style="fill:#7a4f2d"/><polygon points="234.56 241.89 208.06 246.92 208.06 262.9 234.56 259.13 234.56 241.89" style="fill:#9d5f33"/><polygon points="208.06 262.9 210.9 264.84 234.56 261.76 234.56 259.13 208.06 262.9" style="fill:#1e1d1e"/><polygon points="131.56 274.32 116.48 270.06 116.12 285.8 131.56 290.19 131.56 274.32" style="fill:#cc854a"/><polygon points="131.56 290.19 128.44 292.26 116.06 288.55 116.12 285.8 131.56 290.19" style="fill:#7a4f2d"/><polygon points="116.48 270.06 89.4 274.09 89.4 290.19 116.12 285.8 116.48 270.06" style="fill:#9d5f33"/><polygon points="89.4 290.19 90.23 292.26 116.06 288.55 116.12 285.8 89.4 290.19" style="fill:#422f28"/><polygon points="121.22 312.8 121.9 315.3 213.23 296.01 213.23 293.59 121.22 312.8" style="fill:#cc854a"/><polygon points="206.06 297.52 208.06 297.1 208.06 341.42 206.06 341.83 206.06 297.52" style="fill:#e4b05e"/><polygon points="187.39 301.46 189.4 301.04 189.4 345.31 187.39 345.73 187.39 301.46" style="fill:#e4b05e"/><polygon points="168.73 305.4 170.73 304.98 170.73 349.21 168.73 349.63 168.73 305.4" style="fill:#e4b05e"/><polygon points="149.56 309.45 151.56 309.03 151.56 353.21 149.56 353.63 149.56 309.45" style="fill:#e4b05e"/><polygon points="131.56 313.25 133.56 312.83 133.56 356.97 131.56 357.39 131.56 313.25" style="fill:#e4b05e"/><polygon points="89.4 274.09 83.73 286.99 83.73 299.59 89.4 290.19 89.4 274.09" style="fill:#492b1a"/><polygon points="89.4 290.19 90.23 292.26 86.24 299.07 83.73 299.59 89.4 290.19" style="fill:#1e1d1e"/><polygon points="86.56 319.29 63.56 318.08 64.44 335.11 86.56 335.11 86.56 319.29" style="fill:#9d5f33"/><polygon points="63.56 318.08 58.56 328.26 59.44 345.38 64.44 335.11 63.56 318.08" style="fill:#7a4f2d"/><polygon points="64.44 335.11 66.12 337.13 86.56 337.26 86.56 335.11 64.44 335.11" style="fill:#422f28"/><polygon points="59.44 345.38 60.81 346.82 66.12 337.13 64.44 335.11 59.44 345.38" style="fill:#1e1d1e"/><polygon points="85.57 299.21 85.46 319.24 86.56 319.29 86.24 299.07 85.57 299.21" style="fill:#1e1d1e"/><text transform="translate(402.81 112.29)" style="font-size:123.89198303222656px;font-family:PlayfairDisplaySC-Bold, Playfair Display SC"><tspan style="fill:#fff;font-weight:700">Ou</tspan><tspan x="180.7" y="0" style="fill:#fff;font-weight:700;letter-spacing:-0.011228436636518653em">r</tspan><tspan x="261.82" y="0" xml:space="preserve" style="fill:#fff;font-weight:700"> La</tspan><tspan x="444.09" y="0" style="fill:#fff;font-weight:700;letter-spacing:-0.022945580237912107em">d</tspan><tspan x="531.74" y="0" style="fill:#fff;font-weight:700">y</tspan><tspan x="606.03" y="0" style="font-size:134.1560821533203px;font-family:MyriadPro-Regular, Myriad Pro"> </tspan><tspan x="634.47" y="0" style="fill:#e4b05e;font-size:69.74659729003906px;font-family:OpenSansLight-Italic, Open Sans;font-style:italic">of</tspan></text><text transform="translate(584.12 227.5)" style="font-size:113.26893615722656px;fill:#fff;font-family:PlayfairDisplaySC-Bold, Playfair Display SC;font-weight:700">L<tspan x="69.19" y="0" style="letter-spacing:-0.004879840790883384em">o</tspan><tspan x="154.64" y="0">ur</tspan><tspan x="305.52" y="0" style="letter-spacing:-0.011229668957819095em">d</tspan><tspan x="386.98" y="0" style="letter-spacing:-0.00000431081341950829em">es</tspan></text><text transform="translate(584.63 310.49)" style="font-size:77.34205627441406px;fill:#e4b05e;font-family:OpenSansLight-Italic, Open Sans;font-style:italic">Catholic Church</text><polygon points="78.56 357.93 81.73 357.93 81.73 352.02 83.04 350.22 83.04 357.93 86.1 357.93 85.85 346.33 77.42 357.93 77.42 357.93 78.56 356.37 78.56 357.93" style="fill:none"/><polygon points="213.23 340.34 128.99 357.93 141.36 357.93 213.23 342.73 213.23 340.34" style="fill:#cc854a"/><polygon points="86.63 345.13 86.56 337.26 85.65 337.26 85.8 343.99 86.61 342.87 86.63 345.13" style="fill:#1e1d1e"/><polygon points="86.1 357.93 86.73 357.93 86.63 345.26 85.85 346.33 86.1 357.93" style="fill:#1e1d1e"/><polygon points="86.63 345.26 86.63 345.13 86.63 345.26 86.63 345.26" style="fill:#9d5f33"/><polygon points="85.85 346.33 85.8 343.99 75.73 357.93 77.42 357.93 85.85 346.33" style="fill:#9d5f33"/><polygon points="86.63 345.26 86.63 345.13 86.61 342.87 85.8 343.99 85.85 346.33 86.63 345.26" style="fill:#9d5f33"/><polygon points="83.04 350.22 81.73 352.02 81.73 357.93 83.04 357.93 83.04 350.22" style="fill:#492b1a"/><polygon points="78.56 356.37 77.42 357.93 78.56 357.93 78.56 356.37" style="fill:#492b1a"/><polygon points="441.25 324.34 440.3 323.75 440.3 357.66 440.75 357.93 441.25 357.93 441.25 324.34" style="fill:#fedd96"/></svg>