<svg xmlns="http://www.w3.org/2000/svg" viewBox="0 0 512 512"><style>.a{fill:#fff}</style><path d="M500.7 243.3c-3-4.5-5.9-9.6-8.8-15-11.9-21.6-28.2-51.1-71.8-51.1-9.5 0-18.1 2.1-25.8 5.7-15-42.9-41.1-63.2-66.5-82.8-23.2-18-45.2-35-61.1-70.6L254.8 2.8l-16.1 24.3c-1.1 1.7-25.7 39.7-42.6 93.1-32.7-11.8-65.5-24.9-94.7-43.8L82.6 64.3 77.2 86c-.4 1.6-9.4 39.1 1.3 83.7 4 16.6 11.1 35.5 23.5 54 1.4 12.5 6.8 49.8 23.9 87.7 13.1 29.1 30.2 51.8 50.6 67.9-26.8 2.2-72.6 1.7-140.2-12.5L0 359.1l19.5 31.6c1 1.7 26.2 42 76.2 75.3 29.5 19.6 61.6 32.7 95.4 39 15.5 2.9 31.3 4.3 47.5 4.3 27.7 0 56.3-4.2 85.5-12.7 91.8-26.7 117.4-106.8 136.2-165.3 9.7-30.2 18.8-58.8 32.9-64.2l18.8-7.2-11.3-16.6zM251.8 68.7c17.2 26.2 37.7 42.1 56.3 56.5 25.5 19.8 47.8 37 59.1 78.1-4.1 4.5-7.7 9.3-11 14-3.8-6.9-8.5-13.9-14.2-21.3-24.6-31.4-68.4-48.3-115.8-65.1 7.9-25.1 17.8-46.8 25.6-62.2zm178.1 252.9c-8.9 27.8-19 59.4-36.4 86-19.3 29.6-44.9 48.7-78.3 58.4-41 11.9-80.5 14.5-117.4 7.8-29.5-5.4-57.5-16.7-83.3-33.7-17-11.2-30.9-23.4-41.6-34.3 89 13.4 135.8 2.1 151-2.9 11.5 3 23.6 4.5 36.4 4.5v-31.9c-46.5 0-81.8-25.8-104.9-76.5-5-11-8.9-22-11.9-32.3 15.6 11.4 34.7 21.7 57.9 30l10.7-30.1c-55.7-19.7-90-54.4-102.1-103.1-4.5-18.1-5-34.9-4.4-47.6 33.1 17.9 68.8 30.5 100.9 41.9 46.3 16.4 90.1 31.9 110.5 57.9 32.1 41 22 65.9 3.7 111-1.9 4.8-4 9.8-6 14.9l29.7 11.7c2-5 3.9-9.9 5.9-14.6 10.9-26.9 21-51.7 19.2-78.5 5.3-12.9 23.4-51.1 50.6-51.1 23.6 0 31.6 12.5 43.8 34.6.6 1.2 1.3 2.4 2 3.6-17.3 15.6-26.1 43.3-36 74.3z" class="a"/><circle cx="426.5" cy="243.4" r="10.6" class="a"/></svg>