<svg xmlns="http://www.w3.org/2000/svg" viewBox="0 0 494.9 494.9"><style>.a{fill:#fff}</style><path d="M19.2 154.6l112.7 46.5c2.1.9 4.2 1.3 6.3 1.3 5.7 0 11.2-3 14.3-8.1l50.7-85.4 92.7-45.6 2.9 42.1c.1 1.2.9 2.3 2.1 2.7 1.2.4 2.5-.1 3.3-1L381.9 5.6c.8-1 .9-2.4.3-3.5-.6-1.2-1.7-1.9-3-1.9L251.7 0c-1.2 0-2.4.8-2.8 1.9-.4 1.2-.1 2.5.8 3.3l31.6 28L184.2 81c-2.9 1.4-5.3 3.7-7 6.4l-45.9 77.3-99.4-41c-8.5-3.5-18.2.5-21.7 9-3.5 8.7.5 18.4 9 21.9zM469.4 445H25.6c-13.8 0-25 11.2-25 25s11.2 25 25 25h443.8c13.8 0 25-11.2 25-25-.1-13.8-11.2-25-25-25zM50.2 241.8c-5.6 0-10.1 4.5-10.1 10.1v149.7c0 5.6 4.5 10.1 10.1 10.1h58.9c5.6 0 10.1-4.5 10.1-10.1V251.9c0-5.6-4.5-10.1-10.1-10.1H50.2zM375.8 82v319.6c0 5.6 4.5 10.1 10.1 10.1h58.9c5.6 0 10.1-4.5 10.1-10.1V82c0-5.6-4.5-10.1-10.1-10.1h-58.9c-5.6 0-10.1 4.6-10.1 10.1zM274 161c-5.6 0-10.1 4.5-10.1 10.1v230.5c0 5.6 4.5 10.1 10.1 10.1h58.9c5.6 0 10.1-4.5 10.1-10.1V171.1c0-5.6-4.5-10.1-10.1-10.1H274zM162.1 286.4c-5.6 0-10.1 4.5-10.1 10.1v105.2c0 5.6 4.5 10.1 10.1 10.1H221c5.6 0 10.1-4.5 10.1-10.1V296.5c0-5.6-4.5-10.1-10.1-10.1h-58.9z" class="a"/></svg>