<svg xmlns="http://www.w3.org/2000/svg" viewBox="0 0 378.6 539.6" fill="#fff"><path d="M191 122.2c-36.1 0-65.5 29.4-65.5 65.5s29.4 65.5 65.5 65.5 65.5-29.4 65.5-65.5-29.4-65.5-65.5-65.5zm0 112.2c-25.8 0-46.8-21-46.8-46.8s21-46.8 46.8-46.8 46.8 21 46.8 46.8-21 46.8-46.8 46.8z"/><path d="M316.1 62.5C282.2 28.7 237.2 10 189.3 10c-47.9 0-92.9 18.7-126.8 52.5C-.2 125.2-8 243.1 45.6 314.5L189.3 522l143.4-207.2c53.9-71.7 46.1-189.6-16.6-252.3zm1.5 241.4L189.3 489.1 60.8 303.6c-48.6-64.8-41.6-171.3 15-227.9 30.3-30.3 70.7-47 113.6-47s83.2 16.7 113.6 47c56.5 56.6 63.4 163.1 14.6 228.2z"/></svg>