<svg id="Layer_1" data-name="Layer 1" xmlns="http://www.w3.org/2000/svg" viewBox="0 0 51.72 52.03"><defs><style>.cls-1{fill:#b73536}.cls-2,.cls-3{fill:#fff}.cls-2{fill-rule:evenodd}</style></defs><title>logo-section-red</title><path class="cls-1" d="M49.6.77v49.12H0V.77"/><path class="cls-2" d="M13.29 29l11.16-10.38L37 27.33l1.7 18.11-17.05 3.41L13.29 29zm4.51 23L9.46 32.41l-4.73 2-3.07-.74 21.7-21 28.36 17.82L48.21 33l-5.46-2.82-.48 17.17L17.8 52z"/><path class="cls-3" d="M23.33 47a30.06 30.06 0 0 1-5.62-10.22c-.29-.82-.44-1.3-.67-2.14a1.66 1.66 0 0 1 .96-2.37 1.64 1.64 0 0 1 2 1.11L21.36 37 21 29.77c-.19-1.29-.42-2.43.65-2.88 1.24-.52 2.07.92 2.34 2.51l.84 6.22.56-8.91c0-1.24 3.06-1.42 3.2-.18a1.36 1.36 0 0 1 0 .37l-.37 8.54 2-8.54a1.74 1.74 0 0 1 2.62-.37 1.48 1.48 0 0 1 .48 1.29l-1.6 7.8 2.72-6.77a1.4 1.4 0 0 1 2.16.37 1.14 1.14 0 0 1 .09.74l-1.93 7.14c-.75 4.19-2.35 9.28-3.37 9.76-2.85 1.32-5.33 1.62-8.06.09zm.27-30.72l-1.69-7.8-3.31 1.24-1.32-3.22 4.13-1.18V0l3.07.12-.06 4.34 4.24-.75 1.07 1.8-5.25 1.97.74 8.93-1.62-.13z"/></svg>