<svg xmlns="http://www.w3.org/2000/svg" viewBox="0 0 612.1 612.1" fill="#fff"><path d="M612.1 132.1v-2.4c0-8.8-4-19.3-11.2-26.5l-.8-.8s-.8 0-.8-.8c-1.6-1.6-3.2-2.4-4.8-4-.8 0-.8-.8-1.6-.8-1.6-.8-4-1.6-5.7-2.4-.8 0-.8-.8-1.6-.8-2.4-.8-4.8-1.6-7.2-1.6h-1.6c-2.4 0-5.7-.8-8.8-.8H43.4c-3.2 0-6.4 0-9.7.8-.8 0-1.6 0-2.4.8-2.4.8-4.8.8-6.4 1.6-.8 0-.8.8-1.6.8-1.6.8-4 1.6-5.7 2.4l-.8.8c-1.6.8-3.2 2.4-4.8 3.2L9.6 104C4 110.4.8 117.7 0 125.7v360.6c1.6 11.2 7.2 20.9 15.2 26.5 7.2 4.8 16.1 8 26.5 8h528.5c2.4 0 5.7 0 8-.8h1.6c2.4-.8 4.8-.8 6.4-1.6h.8c17.7-6.4 24.9-21.7 24.9-36.1V132.9c.2.1.2.1.2-.8zm-51.4-11.2l-253 246.5-57.9-56.2L51.5 120.8h509.2v.1zM29.8 475.1V141l187.1 179.9L29.8 475.1zm269.9 16.8H56.3l182.3-149.4 58.6 57c2.4 2.4 4.8 3.2 7.2 4h4.8c2.4-.8 5.7-1.6 7.2-4l55.4-53.8 183.1 146.2H299.7zm282.6-16.1L394.4 324.1 582.3 141v334.8z"/></svg>