<svg xmlns="http://www.w3.org/2000/svg" data-name="Capa 1" viewBox="0 0 512 364"><defs><style>.cls-1{fill:#b73536}.cls-2{fill:#fff}</style></defs><title>mail-red</title><path class="cls-1" d="M11.1 13.2h489.8v337.7H11.1z"/><path class="cls-2" d="M414.5 281.1a8.2 8.2 0 0 1-5.6-2.2l-95-89.1a8.3 8.3 0 1 1 11.3-12l95 89.1a8.3 8.3 0 0 1-5.7 14.3zm-317.1 0a8.3 8.3 0 0 1-5.7-14.3l95-89.1a8.3 8.3 0 1 1 11.3 12l-95 89.1a8.2 8.2 0 0 1-5.6 2.3z"/><path class="cls-2" d="M470.7 364H41.3A41.3 41.3 0 0 1 0 322.7V41.3A41.3 41.3 0 0 1 41.3 0h429.4A41.3 41.3 0 0 1 512 41.3v281.4a41.3 41.3 0 0 1-41.3 41.3zM41.3 16.5a24.8 24.8 0 0 0-24.8 24.8v281.4a24.8 24.8 0 0 0 24.8 24.8h429.4a24.8 24.8 0 0 0 24.8-24.8V41.3a24.8 24.8 0 0 0-24.8-24.8z"/><path class="cls-2" d="M256 223.5a46.2 46.2 0 0 1-30.3-10.9l-212-185a8.3 8.3 0 1 1 10.9-12.4l212 184.9c10.6 9.2 28.4 9.2 38.9 0L487.2 15.5A8.3 8.3 0 1 1 498 27.9L286.3 212.5a46.1 46.1 0 0 1-30.3 11z"/></svg>