<svg xmlns="http://www.w3.org/2000/svg" viewBox="0 0 463 463" fill="#fff"><path d="M462.7 381.1c-1.5-11.1-7.9-20.7-17.6-26.3L330.9 289c-14-8.1-31.7-5.7-43.2 5.7l-22.5 22.5c-6 6-15.5 6.5-22 1.2a662.8 662.8 0 0 1-51.9-46.7 662.8 662.8 0 0 1-46.7-51.9c-5.3-6.6-4.8-16 1.2-22l22.5-22.5c11.4-11.4 13.8-29.2 5.7-43.2L108.2 17.9C102.6 8.2 93 1.8 81.9.3c-11.1-1.5-22.1 2.2-30 10.2L18 44.4c-23.7 23.7-24 66.9-1.1 121.9C39 219.1 80.2 277.3 133 330c52.8 52.8 110.9 94 163.7 116.1 27 11.3 51.3 17 71.7 17 21.1 0 38.2-6 50.2-18l33.9-33.9c7.9-7.9 11.6-18.9 10.2-30zM323.4 302l114.2 65.8c5.6 3.3 9.4 8.8 10.2 15.3.7 5.4-.7 10.8-3.9 15.1l-151.8-86.6 6.2-6.2c6.6-6.6 16.9-8 25.1-3.3zM80 15.2c6.5.9 12 4.6 15.3 10.2l65.8 114.2c4.7 8.1 3.3 18.4-3.3 25.1l-5.7 5.7L65 19.1c3.6-2.6 7.8-4.1 12.3-4.1.9 0 1.9.1 2.8.2zm328.1 419.2c-18.8 18.8-57.2 18-105.5-2.2-51.1-21.4-107.5-61.4-158.9-112.8C92.3 268 52.2 211.6 30.9 160.5 10.7 112.3 9.9 73.8 28.7 55l25.2-25.2 87.2 151.5-5.9 5.9c-11.4 11.4-12.4 29.5-2.3 42 14.6 18.2 30.7 36 47.8 53.1 17.1 17.1 35 33.2 53.1 47.8 12.6 10.1 30.6 9.1 42-2.3l5.3-5.3 152 86.8-25.1 25.1z"/></svg>