<svg xmlns="http://www.w3.org/2000/svg" fill="#fff" viewBox="0 0 94.4 54.8"><path d="M94.4 3.9c0-0.2 0-0.3 0-0.5 0-0.1 0-0.2 0-0.3 0-0.1-0.1-0.3-0.1-0.4 0-0.1-0.1-0.2-0.1-0.4 0-0.1-0.1-0.2-0.2-0.3 -0.1-0.1-0.1-0.3-0.2-0.4 0 0 0 0 0-0.1C93.6 1.6 93.5 1.5 93.4 1.4c-0.1-0.1-0.2-0.2-0.3-0.3 -0.1-0.1-0.2-0.2-0.3-0.2 -0.1-0.1-0.2-0.2-0.3-0.2 -0.1-0.1-0.2-0.1-0.3-0.2 -0.1-0.1-0.2-0.1-0.4-0.2 -0.1 0-0.2-0.1-0.4-0.1 -0.1 0-0.2-0.1-0.4-0.1 -0.1 0-0.3 0-0.4 0C90.6 0 90.5 0 90.4 0H4C3.9 0 3.8 0 3.7 0c-0.1 0-0.3 0-0.4 0C3.2 0.1 3.1 0.1 2.9 0.2c-0.1 0-0.3 0.1-0.4 0.1 -0.1 0-0.2 0.1-0.3 0.2C2.1 0.5 2 0.6 1.9 0.6 1.7 0.7 1.7 0.8 1.6 0.9c-0.1 0.1-0.2 0.2-0.3 0.3C1.1 1.2 1.1 1.3 1 1.4 0.9 1.5 0.8 1.6 0.8 1.6 0.8 1.7 0.8 1.7 0.7 1.7 0.6 1.8 0.6 2 0.5 2.1 0.5 2.2 0.4 2.3 0.3 2.4 0.3 2.5 0.3 2.6 0.2 2.8c0 0.1-0.1 0.3-0.1 0.4 0 0.1 0 0.2 0 0.3C0 3.6 0 3.8 0 3.9 0 4 0 4 0 4v46.8c0 2.2 1.8 4 4 4h86.4c2.2 0 4-1.8 4-4V4C94.4 4 94.4 4 94.4 3.9zM78.2 8L47.2 30.7 16.2 8H78.2zM8 46.8V11.9l36.8 27c0.7 0.5 1.5 0.8 2.4 0.8 0.8 0 1.7-0.3 2.4-0.8l36.8-27v34.9H8z"/></svg>