<svg xmlns="http://www.w3.org/2000/svg" fill="#fff" viewBox="0 0 94.4 89.5"><path d="M90.4 14.8H69.7V2.5c0-1.4-1.1-2.5-2.5-2.5H27.2c-1.4 0-2.5 1.1-2.5 2.5v12.3H4c-2.2 0-4 1.8-4 4v47c0 2.2 1.8 4 4 4h15.7l-2.5 16.2c-0.1 0.9 0.1 1.7 0.7 2.4 0.6 0.7 1.4 1 2.3 1h54c0 0 0 0 0 0 1.7 0 3-1.3 3-3 0-0.3 0-0.5-0.1-0.8L74.7 69.8h15.7c2.2 0 4-1.8 4-4V18.8C94.4 16.6 92.6 14.8 90.4 14.8zM29.7 5h35v9.8H29.7V5zM23.7 83.5l4.1-26.7h38.9L70.7 83.5H23.7zM86.4 61.8H73.5l-1.3-8.5c-0.2-1.5-1.5-2.5-3-2.5H25.2c-1.5 0-2.7 1.1-3 2.5l-1.3 8.5H8V22.8h78.4V61.8z"/><path d="M21.8 36.1h9.7c1.7 0 3-1.3 3-3 0-1.7-1.3-3-3-3h-9.7c-1.7 0-3 1.3-3 3C18.8 34.8 20.2 36.1 21.8 36.1z"/></svg>