<svg class="mpa-icon" xmlns="http://www.w3.org/2000/svg" viewBox="0 0 160.4 160.4"><path d="M80.2 0C35.9 0 0 35.9 0 80.2c0 44.3 35.9 80.2 80.2 80.2 44.3 0 80.2-35.9 80.2-80.2C160.4 35.9 124.5 0 80.2 0zM109.3 99.5c-4.9 6.4-12.3 10.3-20.4 10.5 -4 0.1-7.9-1.5-10.6-4.4 -2.7-2.9-4.1-6.9-4.9-10.7 -0.9-4.4-1.1-9-1-13.5 -3.2-0.1-6.3-0.5-9.4-1 -1.5-0.3-2.4-1.2-2.4-2.7 0-2.5 2.2-6.8 5.2-6.6 1.5 0.1 3 0.5 4.5 0.7 0.8 0.1 1.6 0.2 2.4 0.3 0.6 0.1 0.4-0.2 0.5-0.7 0-0.4 0.1-0.8 0.1-1.1 0.2-1.5 0.4-3 0.6-4.5 0.1-1 0.2-2.1 0.5-3.1 0.5-1.5 1.5-2.8 2.8-3.6 0.9-0.6 2.3-1.4 3.4-0.7 1.5 0.9 0.7 3.5 0.5 4.8 -0.4 3.1-0.9 6.1-1.2 9.2 3.1-0.1 6.1-0.4 9.1-1.1 1.5-0.4 3-0.8 4.4-1.4 1-0.4 1.9-1.1 3-1.3 3.3-0.8 2.2 4.1 1.5 5.7 -0.6 1.4-1.4 2.6-2.8 3.3 -2.7 1.4-5.5 2.3-8.4 3 -1.5 0.3-3.1 0.6-4.7 0.8 -0.7 0.1-1.5 0.2-2.2 0.2 -0.6 0-0.4 0.2-0.3 0.7 0 0.3 0 0.7 0.1 1 0.2 2.8 0.6 5.5 1.4 8.1 0.8 2.5 2 4.8 3.8 6.8 1.6 1.7 3.5 2.6 5.8 2.7 4.2 0.3 8.5-0.8 11.8-3.4 6.8-5.4 7.4-15.6 5.3-23.3 -2.3-8.7-8.7-15.8-17-19.2 -8.5-3.5-18.1-2.7-26.2 1.5 -8 4.2-13.4 12.2-12.6 21.5 0.5 5.4 2.9 10.7 7 14.4 3.6 3.3 8 5.6 10.3 10 1.5 2.8 2.2 6.4 0.9 9.4 -1.6 3.6-5.6 5.1-9.3 5.5 -1.4 0.1-4.2 0.5-5.3-0.9 -0.7-0.9 0.3-2.1 1-2.7 1.4-1.1 3.5-1.3 4.3-3.1 0.8-1.7-0.1-3.7-1.4-5 -1-1-2.2-1.7-3.3-2.5C55.1 102 54 101 53 100c-2-2-3.7-4.4-5.1-6.9 -2.5-4.7-3.7-10.1-3.4-15.4 0.7-9.1 4.9-17.6 11.5-23.8 6.7-6.2 15.5-9.9 24.5-10.6 9.1-0.7 18.3 2.8 24.8 9 6.7 6.4 10 15.1 10.5 24.2C116.3 84.6 114.2 93 109.3 99.5z"/></svg>