<svg xmlns="http://www.w3.org/2000/svg" viewBox="0 0 822.08 822.08"><title>crosses-circle</title><circle cx="411.04" cy="411.04" r="411.04" fill="#fff"/><path d="M333.07 318.05h55v170.1c5.4-.35 10.78-.73 16.32-.73a235 235 0 0 1 44.76 4.24V318.05h55a12.44 12.44 0 0 0 12.44-12.44v-36.2A12.44 12.44 0 0 0 504.14 257h-55v-62a12.43 12.43 0 0 0-12.43-12.43H400.5A12.43 12.43 0 0 0 388.06 195v62h-55a12.43 12.43 0 0 0-12.43 12.44v36.2a12.43 12.43 0 0 0 12.43 12.44zM195.24 443.64a9.27 9.27 0 0 0 7.06.72l39.33-11.79 30.6 102c10.81-10.74 24.2-19.86 39.49-27.19l-26.36-87.91 39.37-11.81a9.3 9.3 0 0 0 6.27-11.59l-7.78-25.9a9.28 9.28 0 0 0-11.56-6.23l-39.39 11.81-13.32-44.35a9.3 9.3 0 0 0-11.56-6.23L221.46 333a9.3 9.3 0 0 0-6.23 11.56l13.3 44.34-39.33 11.8a9.3 9.3 0 0 0-6.2 11.52l7.78 25.91a9.22 9.22 0 0 0 4.49 5.51zm0 0" fill="#222060"/><path d="M487.78 384.94l-3.67 26.8a9.28 9.28 0 0 0 7.89 10.48l40.7 5.57L520.94 514a124.94 124.94 0 0 1 42.89-7.64c1.42 0 2.79.12 4.21.17L578 434l40.73 5.58a9.3 9.3 0 0 0 10.47-7.94l3.67-26.79a9.3 9.3 0 0 0-7.94-10.47l-40.74-5.58 6.28-45.85a9.28 9.28 0 0 0-7.94-10.46l-26.8-3.67a9.3 9.3 0 0 0-10.47 7.94l-6.28 45.85-40.72-5.61a9.29 9.29 0 0 0-10.47 7.93zm76.05 151.88c-20.28 0-38.6 6.15-52.2 16-23.79-21.13-62.91-35-107.25-35-58.65 0-108.31 24.16-125.19 57.48a108.19 108.19 0 0 0-12.21-.77c-38.78 0-71.42 20.46-81.29 48.34a12.43 12.43 0 0 0 11.72 16.59h401.46a35.23 35.23 0 0 0 24.37-9.79c10.15-9.72 16.28-22 16.28-35.35 0-31.79-33.89-57.57-75.68-57.57zm0 0" fill="#222060"/></svg>