<svg xmlns="http://www.w3.org/2000/svg" viewBox="0 0 822.08 822.08"><title>dove-circle</title><circle cx="411.04" cy="411.04" r="411.04" fill="#222060"/><path d="M689.07 472a9.87 9.87 0 0 0-7.92-3.68 356.46 356.46 0 0 1-67.42-4.88 190.24 190.24 0 0 1-62.09-22.2c-54.53 13.81-107 21.44-110.06 21.87a18.72 18.72 0 0 1-2.71.19 19.19 19.19 0 0 1-19.19-18.3c0-.42-.44-13.88 3.68-33.77 7-33.87 27.63-86.37 85.78-125.54C499.64 262 483 242.2 473.31 232a5.64 5.64 0 0 0-9.54 2.39c-8.22 30-33.06 52.6-33.06 52.6-32.13 34.59-43.82 68.11-46.35 96.18A63.85 63.85 0 0 0 276.58 395a146.12 146.12 0 0 1-16 25.56 322.1 322.1 0 0 0-13-31.33c13.52 4.71 27.79-2.19 30.22-16.63 3.28-14.73-18.07-62-18.72-61.67.19.24-25 31.35-27.82 45.17a408.61 408.61 0 0 0-24.54-39.26 21.38 21.38 0 0 0 3.88 1.5c10.84 2 20.22-5.42 20.26-17.38.58-12.17-22.38-47.19-22.78-46.92.15.13-17.25 29.87-17.43 41.27-5.29-6.69-10.17-12.53-14.43-17.41 6.48-6.75 6.59-18.39-1-27.14-8.14-10-44.49-20-44.44-19.54.49.08 9.1 35.52 16 44.11 6.89 7.93 17.77 10 25.89 5.35 3.47 5 7.39 10.9 11.65 17.6-12-2.87-41.12 6.7-41 6.85.31-.23 22.39 26.69 32 31.07a18.65 18.65 0 0 0 24.74-11.48c6.29 11.27 12.58 23.58 18.35 36.49-14.23-5.28-49.79 1-49.68 1.24.51-.3 21.37 35.12 31.88 42.24 10.82 6.53 25.4 3.9 31.74-7.37 3.46 10.38 6.68 20.73 9.62 30.6 1.06 3.36 2.08 6.45 3.13 9.71a146.34 146.34 0 0 1-11.26 9.69l-4 3a3.77 3.77 0 0 0 2.29 6.76h8.27a96 96 0 0 1 11.27.88c1.24 3.78 2.51 7.72 3.64 11.22 7.73 24.4 13.62 41.29 13.7 41.28a1.06 1.06 0 0 0 .75.71 1 1 0 0 0 1.15-.94c-.08 0 2.57-17.92-.55-44.29-.14-1.34-.5-2.91-.69-4.28a96.08 96.08 0 0 1 27.16 13.69 63.55 63.55 0 0 0 35.34 11.92c10.09 40 59.86 81.25 119.89 81.25 46.24 0 86.44-16.76 107.1-41.47a10.39 10.39 0 0 1 13.42-2.05c31.62 19.24 60.76 47.36 76.57 63.86a9.86 9.86 0 0 0 16.71-4.49L691 480.52a9.9 9.9 0 0 0-1.91-8.5zm0 0" fill="#f2f2f2"/><path d="M438.87 444.12s102-14.61 168.86-40.07 63.86-131.38 54.46-167.27a7.28 7.28 0 0 0-5.2-5.18 7 7 0 0 0-1.84-.24 7.29 7.29 0 0 0-5.21 2.22c-27.82 28.67-69.84 38.8-69.84 38.8C433.16 321 438.87 444.12 438.87 444.12zm0 0" fill="#f2f2f2"/></svg>