<svg xmlns="http://www.w3.org/2000/svg" viewBox="0 0 822.1 822.1"><style>.a{fill:#f2f2f2}</style><circle cx="411" cy="411" r="411" fill="#222060"/><path d="M495.9 199.7c-21.7-21.7-56.8-21.7-78.5-.1-21.8-21.6-56.9-21.5-78.5.1-21.7 21.7-21.7 57 0 78.7 1 1 52.6 52.4 71.6 71.2 3.9 3.9 10 3.9 13.8 0 19-18.9 70.6-70.2 71.6-71.2 21.7-21.8 21.7-57 0-78.7zm127.4 281.7l-67.1-63.1c-15.5-14.6-36-22.6-57.2-22.6H367.8c-13.9 0-25.2 11.2-25.2 25.2 0 13.9 11.2 25.1 25.2 25.1h95.1c8.7 0 15.6 7 15.6 15.7s-7 15.6-15.6 15.6H301c-3.5 0-6.9-1.2-9.7-3.3l-68.2-53.6c-10.9-8.6-26.7-6.7-35.3 4.2-8.6 10.9-6.7 26.7 4.2 35.4l104.9 82.5c4.6 3.6 10.1 5.4 15.5 5.4h189c4.1 0 8 1.6 11 4.4l81 78.7c7.9 7.6 19.5 9.8 29.6 5.6 10.1-4.3 16.6-14.2 16.6-25.1v-90.1c.1-15-5.8-29.3-16.3-40zm0 0" class="a"/></svg>