<svg xmlns="http://www.w3.org/2000/svg" viewBox="0 0 328.5 328.5"><g fill="#fff"><path d="M164.3 131.4c-18.1 0-32.9 14.8-32.9 32.9 0 18.1 14.8 32.9 32.9 32.9 18.1 0 32.9-14.8 32.9-32.9 0-18.2-14.8-32.9-32.9-32.9z"/><path d="M207.9 84.2h-87.3c-20.1 0-36.5 16.4-36.5 36.5V208c0 20.1 16.4 36.5 36.5 36.5h87.3c20.1 0 36.5-16.4 36.5-36.5v-87.3c0-20.2-16.4-36.5-36.5-36.5zm-43.6 130.2c-27.7 0-50.2-22.5-50.2-50.2 0-27.7 22.5-50.2 50.2-50.2 27.7 0 50.2 22.5 50.2 50.2-.1 27.7-22.6 50.2-50.2 50.2zm61.2-93.3c-2.4 2.4-5.6 3.7-9 3.7-3.3 0-6.6-1.4-8.9-3.7-2.4-2.4-3.7-5.6-3.7-9 0-3.3 1.4-6.6 3.7-9 2.4-2.4 5.6-3.7 8.9-3.7 3.3 0 6.6 1.3 9 3.7 2.4 2.4 3.7 5.6 3.7 9 0 3.3-1.3 6.6-3.7 9z"/><path d="M164.3 0C73.5 0 0 73.5 0 164.3 0 255 73.5 328.5 164.3 328.5c90.7 0 164.3-73.5 164.3-164.3C328.5 73.5 255 0 164.3 0zm97.3 207.9c0 29.6-24.1 53.7-53.7 53.7h-87.3c-29.6 0-53.7-24.1-53.7-53.7v-87.3c0-29.6 24.1-53.7 53.7-53.7h87.3c29.6 0 53.7 24.1 53.7 53.7v87.3z"/></g></svg>