<svg xmlns="http://www.w3.org/2000/svg" viewBox="0 0 822.1 822.1"><circle cx="411" cy="411" r="411" fill="#222060"/><path d="M628 234.4L587.7 194c-11-11-25.6-17-41.2-17-15.5 0-30.1 6-41.1 17L398.7 300.8c-22.7 22.7-22.7 59.5 0 82.2l6.4 6.4-15.8 15.8-6.4-6.4c-11-11-25.6-17.1-41.1-17.1s-30.2 6.1-41.1 17.1L194 505.4c-22.7 22.7-22.7 59.6 0 82.2l40.3 40.3c11 11 25.6 17.1 41.1 17.1s30.1-6 41.1-17l106.7-106.7c11-11 17-25.6 17-41.1s-6-30.2-17-41.1l-6.4-6.3 15.7-15.8 6.4 6.4c11 11 25.6 17 41.1 17s30.1-6 41.1-17L628 316.6c11-11 17-25.6 17-41.1s-6-30.1-17-41.1zM395.7 466.7c3.6 3.6 5.6 8.4 5.6 13.5s-2 9.9-5.6 13.5L289 600.4c-7.2 7.2-19.8 7.2-27 0l-40.3-40.3c-7.4-7.4-7.4-19.6 0-27l106.7-106.7c3.6-3.6 8.4-5.6 13.5-5.6s9.9 2 13.5 5.6l6.4 6.4-22.9 22.8 27.6 27.6 22.8-22.8 6.4 6.3zM600.4 289L493.7 395.7c-7.2 7.2-19.8 7.2-27 0l-6.4-6.4 33.8-33.8-27.6-27.6-33.8 33.8-6.4-6.4c-7.4-7.5-7.4-19.6 0-27L533 221.7c3.6-3.6 8.4-5.6 13.5-5.6s9.9 2 13.5 5.6l40.3 40.3c3.6 3.6 5.6 8.4 5.6 13.5.1 5.1-1.9 9.9-5.5 13.5zm0 0" fill="#F2F2F2"/></svg>