<svg xmlns="http://www.w3.org/2000/svg" viewBox="0 0 822.1 822.1"><circle cx="411" cy="411" r="411" fill="#fff"/><path d="M562.9 315.8H358.6s-10.9-1.5-10.5-10.6c.2-5.1 3-10.5 10.5-10.5h204.7s14.4-1.2 14.2 10.5c0 4.4-.3 10.6-14.6 10.6zm0 53.2H358.6s-10.9-1.5-10.5-10.6c.2-5.1 3-10.5 10.5-10.5h204.7s14.4-1.1 14.2 10.5c0 4.3-.3 10.6-14.6 10.6zm-1.8 53.4H356.8s-10.9-1.5-10.5-10.6c.2-5.1 3-10.5 10.5-10.5h204.8s14.4-1.2 14.2 10.5c0 4.3-.4 10.6-14.7 10.6zm0 51.4H356.8s-10.9-1.5-10.5-10.5c.2-5.1 3-10.5 10.5-10.5h204.8s14.4-1.2 14.2 10.5c0 4.2-.4 10.5-14.7 10.5zm0 53.6H356.8s-10.9-1.5-10.5-10.5c.2-5.1 3-10.5 10.5-10.5h204.8s14.4-1.1 14.2 10.5c0 4.2-.4 10.5-14.7 10.5zm63.8-344.5H299c-19 0-34.4 15.5-34.4 34.4V248h.2v277.6s2 15.2-5.5 31.6c-.8 1.8-1.8 3.5-2.8 5.3l-.3.6s-.1 0-.1.1c-4.6 7.6-11.9 14.8-23.3 19.3 8.1-18.2 8.3-33 8.3-54.4-.1-15.8-.1-172.6-.1-254.5-10.4-.1-22.8-.1-36.7-.2-33.9-.2-40.3 28.2-41.4 41.3v246.2s.2 12.8 2.5 21.9c3.2 11.1 8.5 21.8 16.5 33.4 12.6 18.5 36.5 22.3 42.4 23h406.6c3.6-.2 8-.8 11.5-2.5 10.2-5.9 17.1-16.9 17.1-29.6V217.3c-.2-18.9-15.6-34.4-34.6-34.4zm0 0" fill="#000067"/></svg>