<svg xmlns="http://www.w3.org/2000/svg" viewBox="0 0 822.08 822.08"><title>open-book-circle</title><circle cx="411.04" cy="411.04" r="411.04" fill="#222060"/><path d="M224.66 205.88a18.94 18.94 0 0 0-13.47 5.58 19.14 19.14 0 0 0-5.65 13.64v288.19a19.28 19.28 0 0 0 19.24 19.21c44.73.11 119.69 9.43 171.39 63.54v-301.6a18.36 18.36 0 0 0-2.64-9.73C351 216.37 269.5 206 224.66 205.88zm391.93 307.41V225.1a19.15 19.15 0 0 0-5.66-13.64 18.92 18.92 0 0 0-13.47-5.58C552.6 206 471 216.37 428.61 284.71a18.36 18.36 0 0 0-2.64 9.73V596c51.7-54.1 126.65-63.42 171.39-63.53a19.3 19.3 0 0 0 19.24-19.21zm0 0" fill="#f2f2f2"/><path d="M660.36 272.34h-13.93v240.95a49.17 49.17 0 0 1-49 49c-38 .09-100.51 7.51-144.82 49.45 76.63-18.74 157.39-6.52 203.45 3.98A19.22 19.22 0 0 0 679.58 597V291.55a19.23 19.23 0 0 0-19.21-19.21zM175.65 513.29V272.34h-13.93a19.23 19.23 0 0 0-19.21 19.21V597A19.22 19.22 0 0 0 166 615.71c46-10.49 126.83-22.69 203.47-3.93-44.31-41.93-106.88-49.35-144.82-49.44a49.17 49.17 0 0 1-49-49zm0 0" fill="#f2f2f2"/></svg>