<svg xmlns="http://www.w3.org/2000/svg" viewBox="0 0 327.24 327.24"><path d="M163.62 0a163.62 163.62 0 1 0 163.62 163.62A163.62 163.62 0 0 0 163.62 0zm92.22 226.66L229 253.24a15.1 15.1 0 0 1-4.73 3.43 19.63 19.63 0 0 1-5.74 1.81q-.2 0-1.21.1t-2.62.1a93.15 93.15 0 0 1-12.39-1.31q-8.56-1.31-20.95-6.45a176 176 0 0 1-28.1-15.41q-15.71-10.27-33.43-28.2a220.68 220.68 0 0 1-23.36-26.59 189.31 189.31 0 0 1-14.9-23.46 126.19 126.19 0 0 1-8.46-19.54 103.58 103.58 0 0 1-3.83-15.11 49.77 49.77 0 0 1-.81-10q.2-3.63.2-4a19.59 19.59 0 0 1 1.81-5.74A15.08 15.08 0 0 1 74 98.16l26.79-26.79a8.87 8.87 0 0 1 6.45-2.82 7.51 7.51 0 0 1 4.63 1.51 14 14 0 0 1 3.42 3.73l21.55 40.89a9.81 9.81 0 0 1 1 7 12.54 12.54 0 0 1-3.42 6.44l-9.9 9.88a3.38 3.38 0 0 0-.71 1.31 5 5 0 0 0-.3 1.51 36.32 36.32 0 0 0 3.63 9.67 88.81 88.81 0 0 0 7.45 11.78 130.9 130.9 0 0 0 14.3 16A133.25 133.25 0 0 0 165 192.72a93.19 93.19 0 0 0 11.78 7.55 31.47 31.47 0 0 0 7.22 2.93l2.52.5a4.83 4.83 0 0 0 1.31-.3 3.34 3.34 0 0 0 1.31-.71L200.65 191a12.34 12.34 0 0 1 8.46-3.22 10.53 10.53 0 0 1 5.44 1.21h.2l38.87 23a10.13 10.13 0 0 1 5 6.65 9.2 9.2 0 0 1-2.78 8.02z" fill="#000067"/></svg>