<svg xmlns="http://www.w3.org/2000/svg" viewBox="-475.2 -15.1 822.1 822.1"><circle cx="-64.1" cy="395.9" r="411" fill="#222060"/><path d="M141.4 591.7H68V376.4h44c8.1 0 14.7-6.6 14.7-14.7v-44h14.7c8.1 0 14.7-6.6 14.7-14.7s-6.6-14.7-14.7-14.7H97.3v-44c0-5.6-3.1-10.6-8.1-13.1l-51.1-25.5C35.9 186.2 19.5 171-.6 171c-21.6 0-39.1 17.6-39.1 39.2s17.6 39.2 39.1 39.2c12.4 0 23.3-5.9 30.5-14.8l38.1 19v35h-264.3v-35l38.1-19c7.2 9 18.1 14.9 30.5 14.9 21.6 0 39.2-17.6 39.2-39.2s-17.6-39.1-39.2-39.1c-20.1 0-36.5 15.3-38.7 34.7l-51.1 25.5c-5 2.5-8.1 7.6-8.1 13.1v44h-44.1c-8.1 0-14.7 6.6-14.7 14.7s6.6 14.7 14.7 14.7h14.7v44c0 8.1 6.6 14.7 14.7 14.7h44v215.3h-73.4c-8.1 0-14.7 6.6-14.7 14.7s6.6 14.7 14.7 14.7h411.1c8.1 0 14.7-6.6 14.7-14.7 0-8.3-6.6-14.9-14.7-14.9zm-367-244.7v-29.4h323V347h-323zm190.8 117.5h-14.7v73.4c0 8.1-6.6 14.7-14.7 14.7s-14.7-6.6-14.7-14.7v-73.4h-14.7c-8.1 0-14.7-6.6-14.7-14.7s6.6-14.7 14.7-14.7h14.7v-14.7c0-8.1 6.6-14.7 14.7-14.7s14.7 6.6 14.7 14.7v14.7h14.7c8.1 0 14.7 6.6 14.7 14.7s-6.5 14.7-14.7 14.7z" fill="#F2F2F2"/></svg>