<svg xmlns="http://www.w3.org/2000/svg" viewBox="0 0 236.8 236.8"><path d="M118.4 0C53 0 0 53 0 118.4s53 118.4 118.4 118.4 118.5-53 118.5-118.4C236.8 53 183.8 0 118.4 0zm58.9 91.8l.1 3.8c0 38.5-29.3 82.9-83 82.9-16.5 0-31.8-4.8-44.7-13.2 2.2.3 4.6.5 6.9.5 13.7 0 26.2-4.7 36.2-12.5-12.8-.2-23.5-8.7-27.2-20.3 1.8.4 3.6.5 5.5.5 2.7 0 5.3-.4 7.7-1-13.3-2.7-23.3-14.5-23.3-28.5v-.4c3.9 2.2 8.4 3.5 13.2 3.6C60.9 102 55.8 93 55.8 83c0-5.3 1.4-10.4 4-14.7 14.2 17.8 35.7 29.3 60 30.6-.5-2.1-.7-4.3-.7-6.7 0-16 13-29.1 29.1-29.1 8.4 0 16 3.5 21.3 9.2 6.6-1.3 12.9-3.7 18.5-7-2.2 6.8-6.8 12.5-12.9 16.1 5.9-.7 11.6-2.3 16.8-4.6-3.9 5.8-8.9 10.9-14.6 15zm0 0" fill="#fff"/></svg>