<svg id="Layer_1" data-name="Layer 1" xmlns="http://www.w3.org/2000/svg" viewBox="0 0 694.56 145.62"><defs><style>.cls-1{font-size:21.07px;font-family:Roboto-Bold,Roboto;font-weight:700}.cls-1,.cls-3{fill:#8c1d1e}.cls-2{letter-spacing:-.01em}</style></defs><title>logo-text</title><text class="cls-1" transform="translate(280.76 123.45)">Cl<tspan class="cls-2" x="19.37" y="0">e</tspan><tspan x="30.62" y="0">veland, OH</tspan></text><path class="cls-3" d="M310.92 140.63a3.27 3.27 0 0 0 3.5 3.54 6.71 6.71 0 0 0 2.82-.53l.32 1.33a8.24 8.24 0 0 1-3.39.63c-3.14 0-5-2.07-5-5.14s1.81-5.5 4.78-5.5c3.33 0 4.21 2.93 4.21 4.8a7 7 0 0 1-.06.86zm5.44-1.33c0-1.18-.48-3-2.57-3-1.88 0-2.7 1.73-2.84 3zm3.83 4.19a4.86 4.86 0 0 0 2.44.74c1.35 0 2-.67 2-1.52s-.53-1.37-1.9-1.88c-1.83-.65-2.7-1.67-2.7-2.89 0-1.64 1.33-3 3.52-3a5.09 5.09 0 0 1 2.51.63l-.46 1.35a4 4 0 0 0-2.09-.59c-1.1 0-1.71.63-1.71 1.39s.61 1.22 1.94 1.73c1.77.67 2.68 1.56 2.68 3.08 0 1.79-1.39 3.06-3.81 3.06a5.82 5.82 0 0 1-2.87-.7zM331 132.26v2.93h2.66v1.41H331v5.5c0 1.26.36 2 1.39 2a4.16 4.16 0 0 0 1.07-.13l.08 1.39a4.54 4.54 0 0 1-1.64.25 2.57 2.57 0 0 1-2-.78 3.78 3.78 0 0 1-.72-2.65v-5.58h-1.58v-1.41h1.58v-2.44zm4.25 12.03a1.25 1.25 0 0 1 1.26-1.33 1.33 1.33 0 1 1-1.26 1.33zM348 133.42l-2.38 1.29-.36-1.41 3-1.6h1.58v13.7H348zm7.81 10.66a7.74 7.74 0 0 0 1.5-.06 5.17 5.17 0 0 0 2.87-1.33A6 6 0 0 0 362 139h-.06a4 4 0 0 1-3.22 1.47 4 4 0 0 1-4-4.19 4.7 4.7 0 0 1 4.68-4.87c2.8 0 4.53 2.28 4.53 5.77a8.66 8.66 0 0 1-2.36 6.43 6.85 6.85 0 0 1-4 1.83 8.66 8.66 0 0 1-1.71.11zm.67-7.88a2.64 2.64 0 0 0 2.63 2.91 3.06 3.06 0 0 0 2.7-1.43 1.22 1.22 0 0 0 .19-.68c0-2.34-.86-4.13-2.8-4.13-1.6 0-2.71 1.39-2.71 3.33zm8.9 5.71a3.91 3.91 0 0 1 2.72-3.67v-.06a3.39 3.39 0 0 1-2.17-3.08c0-2.17 1.83-3.65 4.24-3.65 2.66 0 4 1.67 4 3.37a3.48 3.48 0 0 1-2.25 3.2v.06a3.8 3.8 0 0 1 2.76 3.54c0 2.38-2 4-4.66 4-2.92 0-4.64-1.71-4.64-3.71zm7.38-.08c0-1.66-1.16-2.46-3-3a3 3 0 0 0-2.47 2.82 2.53 2.53 0 0 0 2.74 2.61 2.48 2.48 0 0 0 2.72-2.43zm-5.1-6.85c0 1.37 1 2.11 2.61 2.53a2.7 2.7 0 0 0 2.09-2.49 2.13 2.13 0 0 0-2.32-2.23 2.18 2.18 0 0 0-2.39 2.21zm16.87-1.73h-5.23l-.53 3.52a7.21 7.21 0 0 1 1.12-.08 5.8 5.8 0 0 1 3 .74 3.9 3.9 0 0 1 2 3.52c0 2.68-2.13 4.68-5.1 4.68a6.7 6.7 0 0 1-3.41-.84l.46-1.41a6.14 6.14 0 0 0 2.93.76 3 3 0 0 0 3.25-3c0-1.77-1.2-3-3.94-3a14.13 14.13 0 0 0-1.9.15l.89-6.58h6.55zM28.2 2.15h34q0 3.69 4.36 11.69t4.77 9.74q-9.18-10.14-17.74-14.5T32.1 4.72q-9.54 0-14.1 3.9a12.39 12.39 0 0 0-4.57 9.84q0 10.46 15.9 14.26T60.62 40q16.61 6.36 16.62 22.46a30.87 30.87 0 0 1-8.1 21.59Q61 92.93 41.95 92.92a89.27 89.27 0 0 1-19.85-2 31.13 31.13 0 0 1-15.53-8.77Q0 75.49 0 62.56a29.27 29.27 0 0 1 1.13-8.72 9.7 9.7 0 0 1 4.82-5.64 8.75 8.75 0 0 0-2.1 4.15A29.06 29.06 0 0 0 3.39 58q0 12.31 12.56 20.15t31.95 7.8q12.1 0 17.69-4.31t5.59-13.23q0-13.13-16.2-18.05l-30.15-7Q8.51 37.74 8.51 22.77a20.21 20.21 0 0 1 5.85-14.56A18.62 18.62 0 0 1 28.2 2.15zm67.29 22.77h8.41a5.93 5.93 0 0 1-3.74 3.63 21.13 21.13 0 0 1-4.67.77v31q0 2.25 1.75 2.25a7.46 7.46 0 0 0 3.64-1.36 36.79 36.79 0 0 0 5.27-4.21 32.16 32.16 0 0 1-6.77 8.9q-3.89 3.51-7.9 3.51a4.29 4.29 0 0 1-4.26-2.5Q86.05 64.43 86 58V29.35h-6q.31-2.35 5.49-5.27t10-15.19zm24.61 34.26q1.85 0 4.62 2.34a24.72 24.72 0 0 1 4.72 5.29l-8.51 8.45a54.84 54.84 0 0 0-4.67-4.07q-1.9-1.42-4.77-3.15a36 36 0 0 1 4-5.14q3.17-3.51 4.61-3.72zM199.79.62a13.21 13.21 0 0 1 11.08 5.18 34.9 34.9 0 0 1 6 12.46q1.95 7.28 3.64 13.33t3.13 10.05q1.94-6.56 4-13.23a68.33 68.33 0 0 1 10.67-19.69q6.51-8.1 16.15-8.1a13.26 13.26 0 0 1 7.23 1.74 10.8 10.8 0 0 1 4 4.62A12.85 12.85 0 0 0 261 3.64a15 15 0 0 0-5.64-1.08q-6.36 0-9.95 6a24.83 24.83 0 0 0-3.59 13.05q0 8.74 5 23.65a109.12 109.12 0 0 0 14.25 28.14q9.28 13.26 21.69 18.3h-9.54q-18.05 0-27-14.71t-11.9-34.46l-1.44-17.28q-2.77 5.44-6.56 18.77t-5.44 20.82a79.19 79.19 0 0 1-5-11q-2.72-7.13-6.16-17.23t-4.87-14.21q0 8.92-3.9 25.79a115.88 115.88 0 0 1-11.28 30.21q-7.38 13.33-17.44 13.33-6.26 0-10.77-5.85A22 22 0 0 1 157 72a21.49 21.49 0 0 0 6.92 5.49 19.63 19.63 0 0 0 9.18 2.21q10.76 0 17.28-11.28a80.2 80.2 0 0 0 9.18-25.13q2.67-13.85 2.67-21.74 0-9.95-2-13.95t-9-4q-12.61 0-20 6.46t-7.38 17.54A30.89 30.89 0 0 0 167 42q3.49 4.82 7.08 9.54 0 1.33-2.2 2.36a9.26 9.26 0 0 1-3.74 1 32.84 32.84 0 0 1-6.31-7.18q-3.13-4.61-3.13-15.08 0-15.79 10.72-23.9T199.79.62z"/><path class="cls-3" d="M297.33 25v38c.07.89.51 1.33 1.33 1.33a5 5 0 0 0 2.21-.67q1.29-.67 4.16-2.31a17.14 17.14 0 0 1-4.46 5.44 9.44 9.44 0 0 1-6 2.67q-1.64 0-4.26-2.25a7.59 7.59 0 0 1-2.62-6.05v-5.57q-6.26 6.26-10.56 10.05t-7.49 3.79q-3.48 0-6.2-4.1t-2.72-11q0-13.95 7.69-21.64t20-7.69zm-26.77 21.57q0 5 1.64 7.38a5.21 5.21 0 0 0 4.51 2.36 11.4 11.4 0 0 0 5.29-1.49 28.93 28.93 0 0 0 5.69-4.05V27.9a15.33 15.33 0 0 0-12.41 5.69 19.77 19.77 0 0 0-4.72 12.98zM316 24.52a3.42 3.42 0 0 1 3.62 2.72 40 40 0 0 1 .76 9.49v4.61q3.91-5.44 7.93-10.87 5-6 10-5.95a5.3 5.3 0 0 1 4.38 2 7.57 7.57 0 0 1 1.6 4.87q0 3.49-3.9 7.74t-7.69 7.95a17.87 17.87 0 0 0 1-3.44 20.08 20.08 0 0 0 .53-4.25 7.8 7.8 0 0 0-.77-3.69 2.73 2.73 0 0 0-2.62-1.44q-1.95 0-4.87 3.54t-5.59 7.13V64a40 40 0 0 1-4.06 3.32 11.65 11.65 0 0 1-5.32 2.12V35.58q0-2.15-2.05-2.15a4.64 4.64 0 0 0-2.15.67 12.66 12.66 0 0 0-2.8 2.21 29.7 29.7 0 0 1 5.81-7.59q4.19-4.21 6.19-4.2zm42.77 16.81a160.61 160.61 0 0 1 11.59-11.79q5.13-4.62 9.85-4.62h9.44a62.92 62.92 0 0 0-14.1 6.38 73.69 73.69 0 0 0-12 8.64q7.18 1.34 11.8 12t9.54 10.7a6.34 6.34 0 0 0 2.41-.59 18.32 18.32 0 0 0 3.47-2.05 19.5 19.5 0 0 1-4.87 6.33q-3.44 3.11-6.82 3.11-4.92 0-9.69-11t-10.62-11.67v12.57a10 10 0 0 1-2.87 7 9.29 9.29 0 0 1-7.08 3.09V18.28a20 20 0 0 1 4-12.58A12.59 12.59 0 0 1 363.28.51h9.23q-3.28 5.95-8.51 6.31t-5.23 1.9zM464 0v1.85q1.13-.1 1.95-.1a62 62 0 0 1 14.36 1.9 31.49 31.49 0 0 1 14.46 8.16q6.56 6.25 6.56 18.36 0 10.87-6.05 16.31T480 51.9q-5.75 0-9.18-2.21t-3.44-4.56a39.12 39.12 0 0 0 6 4 13.17 13.17 0 0 0 4.56.56 12.1 12.1 0 0 0 9.64-4.87q4-4.87 4-15.54 0-14.67-8.82-19.59a38.5 38.5 0 0 0-19.08-4.92v56.1q0 6.25 6.92 10.2t6.92 7.95a8.49 8.49 0 0 1-.1 1.54 10.32 10.32 0 0 0-6.35-5.56 38.12 38.12 0 0 0-10.87-1.28q-13 0-20.62 6.49T432 93.51a6.84 6.84 0 0 0 .77 3.66q.77 1.18 5 4.06-1.13.1-1.75.11a13.46 13.46 0 0 1-6.2-1.44Q427 98.46 427 94.35q0-5.33 6.15-11.7 5.75-5.34 11.49-10.58 6.25-6.26 6.26-11.09V28.85a54.8 54.8 0 0 1 1.95-12.47q1.95-7.86 6.67-11.56-22.15 0-29.95 5.74t-7.79 14.77q0 10.46 5.54 17.69t16.51 12.15q-13.23 0-20.2-6.77t-7-18.77q0-14.36 12.05-21.08t33.28-6.72zm77.84 25v38c.07.89.51 1.33 1.33 1.33a5 5 0 0 0 2.21-.67q1.28-.67 4.16-2.31a17.14 17.14 0 0 1-4.46 5.44 9.44 9.44 0 0 1-6 2.67q-1.64 0-4.25-2.25a7.58 7.58 0 0 1-2.62-6.05v-5.57q-6.26 6.26-10.56 10.05t-7.49 3.79q-3.49 0-6.21-4.1t-2.72-11q0-13.95 7.69-21.64t20-7.69zm-26.77 21.57q0 5 1.64 7.38a5.21 5.21 0 0 0 4.51 2.36 11.39 11.39 0 0 0 5.28-1.49 28.91 28.91 0 0 0 5.69-4.05V27.9a15.33 15.33 0 0 0-12.41 5.69 19.76 19.76 0 0 0-4.71 12.98zm45.47-22.05a3.42 3.42 0 0 1 3.62 2.72 40.16 40.16 0 0 1 .76 9.49v4.61q3.91-5.44 7.93-10.87 5-6 10-5.95a5.29 5.29 0 0 1 4.38 2 7.57 7.57 0 0 1 1.6 4.87q0 3.49-3.9 7.74t-7.69 7.95a17.84 17.84 0 0 0 1-3.44 20.21 20.21 0 0 0 .53-4.25 7.79 7.79 0 0 0-.77-3.69 2.72 2.72 0 0 0-2.62-1.44q-1.95 0-4.87 3.54t-5.59 7.13V64a40.41 40.41 0 0 1-4.06 3.32 11.66 11.66 0 0 1-5.38 2.09V35.58q0-2.15-2.05-2.15a4.65 4.65 0 0 0-2.15.67 12.64 12.64 0 0 0-2.77 2.21 29.72 29.72 0 0 1 5.81-7.59q4.18-4.21 6.22-4.2zm43.15 0a4.6 4.6 0 0 1 4.46 2.48 12.54 12.54 0 0 1 1.28 5.85v28.79q.41 2.87 2.15 2.87a4.86 4.86 0 0 0 2.87-1.33l2.15-1.74a20.84 20.84 0 0 1-5 6.09 9.18 9.18 0 0 1-5.69 1.91 5.08 5.08 0 0 1-4.31-2.25 8.79 8.79 0 0 1-1.6-5.32V31.69c0-1.29-.48-1.94-1.44-1.94q-2 0-6.05 3.49.51-1.95 4.21-5.33t6.97-3.39zM605 2.15A5.68 5.68 0 0 1 609.33 4a7 7 0 0 1 1.74 5 6.43 6.43 0 0 1-3.07 5.67 10.29 10.29 0 0 1-5.54 2.05 3.45 3.45 0 0 1-3.23-2.31A12.6 12.6 0 0 1 598.15 9q0-3.9 1.85-5.39a7.79 7.79 0 0 1 5-1.46zm44.22 22.03a22.32 22.32 0 0 0-2.56 5.55q-.82 2.78-1.44 5a22.59 22.59 0 0 0-6.16-5.21 14.31 14.31 0 0 0-6.67-1.48q-3.8 0-5.33 1.34a4.55 4.55 0 0 0-1.53 3.62q0 2.58 7.69 5.83a63.84 63.84 0 0 1 12.15 6.45q4.46 3.2 4.46 10.21 0 8.26-5.08 10.93t-12.87 2.68q-7.9 0-10.05-2.93t-2.14-14.27a25.74 25.74 0 0 0 6.31 9.64 14.58 14.58 0 0 0 10.57 4.31q7.08 0 7.08-6.39 0-3.1-7.48-6.5a62.4 62.4 0 0 1-11.7-6.6q-4.2-3.2-4.2-10.72 0-6.5 4-9T635 24.18a22.29 22.29 0 0 1 4.82.73 28.56 28.56 0 0 0 3.59.73 12.39 12.39 0 0 0 2.77-.26 15.89 15.89 0 0 0 3.04-1.2zm38.26 10.18v28.71c.07.89.48 1.34 1.23 1.34q1.54 0 5.85-3.08a17 17 0 0 1-4.26 5.61 9.29 9.29 0 0 1-6.3 2.5q-3.48 0-4.92-2.21a9.69 9.69 0 0 1-1.44-5.4V39.6a10.66 10.66 0 0 0-.41-3.34c-.27-.79-1.13-1.18-2.57-1.18q-3.38 0-7.08 5t-3.69 7.08v12.18a10 10 0 0 1-2.87 7 9.28 9.28 0 0 1-7.08 3.09V18.28a20 20 0 0 1 4-12.58A12.59 12.59 0 0 1 668.4.51h9.23q-3.28 5.95-8.51 6.31t-5.23 1.9v33.13Q669 33.23 673.64 29t7.81-4.21q3.68 0 4.85 2.05t1.18 7.52z"/></svg>