<svg xmlns="http://www.w3.org/2000/svg" viewBox="0 0 168.6 170.3"><style>.st0{fill:#a7a9ac}.st1{clip-path:url(#SVGID_2_);fill:#eee}.st2{fill:none;stroke:#fff;stroke-width:7.6739;stroke-miterlimit:3.8637}.st3{fill:#fff}.st4{fill:#eee}.st5{clip-path:url(#SVGID_4_);fill:#fff}.st6{fill-rule:evenodd;clip-rule:evenodd;fill:#fff}</style><path class="st0" d="M59.6 60.2h49.6v49.6H59.6V60.2z"/><path class="st1" d="M58.4 58.9h24.7v26.4H58.4V58.9zm27.6 0h24.7v26.4H86V58.9zM58.4 86.4h24.7v26.3H58.4V86.4zm27.6 0h24.7v26.3H86V86.4z"/><path class="st2" d="M58.3 84.9h52.2M84.3 112V59.8"/><path class="st3" d="M62.5 84.9c0-12 9.8-21.8 21.8-21.8s21.8 9.8 21.8 21.8-9.8 21.8-21.8 21.8S62.5 97 62.5 84.9z"/><path class="st4" d="M119 60.3h49.6v49.6H119V60.3z"/><path class="st3" d="M139.4 78.5c.8-1 1.7-.9 2.7.2-1 .5-1.9.5-2.7-.2z"/><path class="st3" d="M144.6 78.9c.8.6 1.6.5 2.4-.1l-2.4.1zm-4.8-2.7c.2-1.5 1.4-2.6 3.4-3.4 1 1.3 2.2 2.5 3.7 3.6.8.7 1.2 1.5 1.2 2.4.2 3.1-.2 5.3-1.3 6.6-1.2 1.1-2.5 1.8-3.8 2.2l-.1-8.9c.3-1.4-.7-2.2-3.1-2.5z"/><path class="st3" d="M138.8 79.5l3.5.4-.1 5.2c-2.3-1.2-3.4-3-3.4-5.6zm-3.1-3.2c1.7-1.7 3.6-2.9 5.5-3.6 2-.6 3.1-1.6 3.5-3.2-3.5-1.4-7.1 1-9 6.8zm8.5-3.9c.6-1.6 1.1-2.3 1.6-2 1.8 1 3 3 3.5 5.9-2.1-.6-3.8-1.9-5.1-3.9zm-8.9 6.5l2.4-1.9.3 4.6 1.3 4.2c-2.1 0-3.4-1.4-4.1-4.3l.1-2.6zm13.9 0c.5.4.6 1.6.4 3.5h-.8l-.3-.9c.1-1.3.3-2.2.7-2.6zm-1.4 9.6l1.2-3.8c.4-.9.8-.8 1 .2 1.9 5.9 4.1 10.8 6.6 14.7.9 1.2.7 1.6-.4 1.2-2.4-.4-4.5-1.3-6.4-2.5-1.3-3.5-2-6.7-2-9.8zm-13.7-4.3c4.6 4.8 8.7 7.2 12.3 7.2l.8 5.5c-4.6-1.5-8.8-3.9-12.5-7.3l-.6-5.4z"/><path class="st3" d="M131.9 91.5l1.3-2c4.9 4.5 9.9 7.6 15.1 9.2l-.2 1.6-6.4 2.5-4.5-3.3-5.3-8zm-.8 1.1c2.1 4.4 4.5 8.2 7.2 11.2l-1.8.9-6.3-1.3-4.4-2.2-.1-1.4c1.3-4 3.1-6.4 5.4-7.2zm-7.2 10.1l6.7 3.1c-2 2-4.8 3-8.3 2.9.1-3 .6-5 1.6-6zm27.2-1.9c3.4 1.8 6.7 3.1 10 3.9 2.1 1.1 3.7 2.8 4.8 5.2h-6.3c-2.9-.4-5.1-1.3-6.6-2.9l-1.9-6.2zm-25.4 9c13.4-4.8 21.1-7.8 23.2-9l.2 2.1c-4.1 2.2-10.2 4.5-18.5 7l-4.9-.1zm7.4-45l3.5-2.2 2.5 4.9c-1.2.4-2 1-2.4 1.7l-3.6-4.4zm5.9-2.6l1.1 4.8 3.1-.3 1-5.4c-3.3-.4-5-.1-5.2.9zm6.4-.7l-.6 5.1 1.8.5 1.8-5.1c-1.3-.8-2.3-1-3-.5zm2.4 6.1l2.2-4.4c2.6 1.2 4.5 3 5.7 5.4l-4.6 2.9c-1.1-2.1-2.2-3.4-3.3-3.9zm3.8 4.9l5.4-2.2.9 3.2-6.4.5.1-1.5zm.9 2.4l5.8.1-.4 3.3-6-.9.6-2.5zm.3 4.5h4.4l-1.1 1.9c-2.1-.4-3.2-1.1-3.3-1.9zm.1 1.9l2.6.9c-.2.8-.8 1.7-1.8 2.6l-.8-3.5zm-21.4-15.1l4.4 3.9c-1 1-1.8 2.3-2.2 3.8l-4.7-.7c.3-3 1.1-5.3 2.5-7zm-2.4 8.4c1.6-.1 3 0 4.3.4v2.5l-4.2.2c-.4-1.5-.4-2.5-.1-3.1zm1 4.7c.8 2 1.7 3.2 2.9 3.6l.3-4.6-3.2 1z"/><path class="st3" d="M126 69.8l2 .7c-1.2 6.8.5 11.6 5.3 14.5l-1 2.5c-6-4.5-8.1-10.4-6.3-17.7zm3-1.8c1.1-3 4.1-5.5 9-7.6l-3.8-.2c-3.7 2.2-6 4.5-6.9 7l1.7.8zm23.7-7.6l-.7 1.4c3.7 3.6 6.1 7.3 7 10.9l1.8-.1c-1.1-5.3-3.8-9.4-8.1-12.2zm6.7 13.6l1.5-.1c0 6.3-1.8 10.6-5.6 12.8l-1.1-1.5c3.6-3.6 5.3-7.3 5.2-11.2z"/><path class="st4" d="M0 60.2h49.6v49.6H0V60.2z"/><path class="st3" d="M22.4 65.3c-.5-1.3-1.3-2.5-2.4-3.6-2.9 2.6-4.5 4.7-5.6 7.5.5.6 1.1 1 2.2 1.1 2.9-2.2 4.6-3.4 5.8-5z"/><path class="st3" d="M28.6 60.2c.1 4.5-.8 7.8-1.6 11.2-4.5 1.5-8.1 2.7-11.3 3.4l-1.8-3.2c1.5.4 2.5.5 3.1.3 5.2-4.7 8.6-8.6 10.5-11.7h1.1zm-1.8 12.9l-.5 3.2c-4.6.4-8 1.3-10.6 2.1l.3-2 10.8-3.3zm6.2 3.2l-.8-1.8c-.3 1.7-.7 2.5-.9 3 .9.3 1.2.7 1.4 1.2l.3-2.4zm-5.5.5c1.1 0 2.1.2 2.9.4.1-.4.4-1.6.8-3.5l.7-10c-.8-1.9-1.6-2.9-2.3-3.1-.2 6.4-.9 11.8-2.1 16.2zm6-2l-1.2-1.9.7-7.4c1 1.9 1.6 3.7 1.8 5.3l-1.3 4zm-10 3c1.1-.1 1.2.1.4.7-1.7 1.4-2.9 3.6-3.6 6.8-.2 1-.9.9-2.1-.1L17 83.7c.2-.9.5-2.1 1.5-2.9 1.1-1.3 2.6-2.5 5-3z"/><path class="st3" d="M19.2 78.2c1 0 1.6-.1 0 .7-2.1 1.4-3.2 2.9-3.2 4.5.1.7-.1.9-.8.5-1.6-1.2-1.5-2.8.4-4.9 1.6-.4 2.8-.7 3.6-.8zm.9 9.9c2.5 5.3 5.3 7.9 8.5 7.9 1.4-1.5 2-2.7 1.9-5.1L28.7 92c-3.7-1.3-6.3-3.7-7.6-5.7l-1 1.8zm5.9 9.3C21.3 94 18.2 89.5 15.5 85c-1 .7-1.4 1.8-1.1 3.5 3.4 4.4 6.5 7.2 9.4 8.5l2.2.4zm-10.2-5.1l-2.3-2.9c-.3-1.3-.5-2.6-.4-3.9-1.3 1.1-3.5 4.4-3.8 6.1l6.5.7z"/><path class="st3" d="M27.9 80.9c-.5-.7-1.4-.9-2.8-.8.5-.4 1-.6 1.4-.7.5-.1 1 0 1.4.1.4.3.6.6.6.9v.5c-.3.4-.8.7-1.4.7-.6 0-1.1-.1-1.4-.3l2.2-.4zm4.5-1.5c-.6-1.2-2.2-1.7-5.8-1.6-2.2.8-3.9 3.1-5.1 6.9 1.2 2.7 3.7 4.5 7.4 5.6 1.1-.3.8-4.2.8-4.2l1.5-.4-.6-4.4c.1-1.2.9-1.9 1.8-1.9z"/><path class="st3" d="M32.8 81.5c-.2-1.2-.8-1.3-1.8-.1l1.8.1zm-.1.8l-1.2.2-.1 1.9c1.1-.7 1.6-1.4 1.3-2.1zM18.4 95.5l-10.8.3 2.2-3 7.3 1.1 1.3 1.6zm12.9 13.1l-16.9-6.8-1.1 1.1 2.7 6.9 16.2.1-.9-1.3zm7 0c-1-.9-4.2-.9-5.1.2v1l4.8-.1.3-1.1zm10.1-7.9l-.9-1.2-7.4 8-.8 2.4h6.1c.8-2.4 2.1-5.6 3-9.2zm-2.3-1l-7.4 6.6c-.9-.5-1.7-.8-2.7-.8.2-1.7 3.1-4.3 5.5-5 2.2-1.1 2.7-1.8 3.2-2.3l1.4 1.5zm-12.3 6l-2.5.8-15-4.7 1.9-1.5c2.8 1.3 5.3 1.9 8.8 2.5 4.9.1 6.1 1.8 6.8 2.9zm-4.2-3.8l-.2-3c1.2-1.1 1.5-3.4 1.8-4.4 2.7 1.5 4.8 3.6 5.6 6.1l-3.1 1.3h-4.1zM27.4 99l1 2.9-4.9-1.3.1-2 3.8.4z"/><path class="st3" d="M21.3 97.3l.5 2.4-5.5-.5c-3.8 1.9-8.2 3.2-13.1 4 .5-1.9 1.8-4.1 4-6.5 7.3-.2 12 0 14.1.6zm-12.5 6.1l5.3 6.4H3.7c-1.2-1.4-1.2-3.4-.7-5.3l5.8-1.1zm35.7-27.5l-4.9 23.8-.7.2.6-5.8-1.5-3.5c1.4-6.3 4-13 5.2-14.1l1.3-.6zm.1 5.1c.4 5.9-1 11.5-2.9 12l2.9-12zm-2.8 14.3c2.6 0 3.2.7 1.8 2.3-1.3 1.4-2.2 1.8-2.9 1.1l1.1-3.4z"/><path class="st3" d="M38.7 95.5C37 93.8 36 94.2 36 96.7c.6 2.1 1.3 2.8 2.4 2l.3-3.2z"/><path class="st4" d="M59.5 1.1h49.7v49.6H59.5V1.1z"/><path class="st5" d="M74.2 11c-4.5-1.8-6.5-3.2-7.3-6 1-.4 2.1-.6 3.1-.8 1.5-.2 3.9 1.8 5 3l4.5 7.2c-.2.3-.4.8-.7.9-.6.1-1.6-.8-3.1-2.4L74.2 11zm-6.9 7.8l2 6.6c-.5.3-1.1.2-1.5-.2 0 0-1.5-2.9-2.9-6.5.8.1 1.6.1 2.4.1zm3.5-.3l2.1 8c0 .2-1.5.6-1.6.3l-3.1-8c.8 0 1.7-.1 2.6-.3zm2.8-.8l3 7.8c.1.5-1.3 1.4-1.6 1.1l-3.7-8.2c.8-.2 1.5-.4 2.3-.7zm2.8-1.5l2.8 7.4c-.1.5-1.2 1.1-1.2 1l-3.7-7.2 2.1-1.2zm-8.8-2.7c.2.9 1.1 1.5 1.9 1.3.8-.2 1.3-1.1 1-2-.2-.9-1.3-2.1-2.1-2-.8.2-1 1.8-.8 2.7zm-4.4-5.7c.8-1.1 1.8-1.9 2.9-2.4 1.2 3.7 4.2 6.3 9.2 8l.4.9.5 1.3c-2.1 1.5-6.3 2.3-9.4 1.4-1.2-.4-2.3-1-3.1-1.9-.9-3-1.3-5.7-.5-7.3zm.1-29.2l6.4 24.2c-2.8.5-5 1.9-6.8 3.8L53.4-14l9.9-7.4zM81.5 41c-2.4-2.9-4.3-5.7-4.3-5.7-.2-.6.1-1.1.5-1.5l4.8 4.9v-.1c.1-.2.2-.4.4-.6l-5.5-6.6c-.2-.2.9-1.4 1.1-1.3l6 5.7c-.6.7-1.1 1.4-1.6 2.2-.1.2-.2.4-.4.6v.1c-.3.8-.7 1.6-1 2.3zm5.7-7.5l-4.5-6.8c-.1-.1 1-.7 1.5-.5l5.2 6c-.9.4-1.6.8-2.2 1.3zm-2.3 2.1l-5.4-7.2c-.1-.4 1.4-1.2 1.8-.8l5.4 6.4c-.7.4-1.3 1-1.8 1.6zm11.8 7.9c-.7.8-1.4 1.6-2.2 2.3-2.1-2-2.3-4.5-1.8-9.3h.1l-.9-2.2c-.6-2.1-.9-3.4-.6-3.9.2-.3.7-.1 1.1-.2l4.1 7.4c.5 1.7 1.1 4.7.2 5.9zm-6.1-9.8l.6.8c-.9 5.2-.1 9.1 2.5 11.9-1 .7-2.1 1.2-3.5 1.3-1.8 0-4-1.7-6.1-3.9-.4-1.1-.4-2.4-.2-3.6.7-3.2 3.4-6.5 5.8-7.6l.9 1.1zm25.3 28.1L97.7 44.5c-1.9 2.2-4.1 3.5-6.6 4.1l13.4 18.3 11.4-5.1zM92.5 25.5c-1-.8-2.2-1.4-3.5-1.8-1.4-1.4-2.7-2-3.7-2.6-.2-.1.3-1.4.8-1.1l3.1 1.9 3.8 1.4c-.2.7-.4 1.5-.5 2.2zm.3 2.7c-1-.6-2.1-1-3.3-1.3-1.7-1.4-3.2-2.1-3.2-2.1-.5-.4-.5-.9-.3-1.3l3.3 1.7 3.2.9c.1.6.2 1.4.3 2.1zm1.5-7.8c-.6-.8-1.6-1.3-2.8-1.9-.7-1.3-1.6-1.9-2.6-2.8-.1 0 .4-.7.9-.8l2.9 2.2 2.9 1.6c-.4.5-.9 1.1-1.3 1.7zm-1.2 2.5c-.9-.8-2.2-1.4-3.7-2-.9-1.4-2.1-2-3-2.8-.3-.3.3-1.4.8-1.2l3.1 2.3 3.7 1.7c-.3.7-.6 1.3-.9 2zm14.1 2.9c-.3.9-.6 1.8-1 2.6-2.8-1-3.9-3-5.5-7.1l-.8-1.9c-1.5-.9-2.5-1.9-2.4-2.4 0-.3.1-.7.5-.9.9.7 2.3 1.4 3.4 1.8.9 1 1.5 2 3.2 3.1 1 1.2 2.8 3.5 2.6 4.8zm-8.4-5.6c.3 4.8 3.4 7.3 6.9 8.9-.6.9-1.4 1.6-2.6 2.2-1.6.5-4.2-1.1-7.3-1.9-1.1-.7-1.3-1.2-1.5-2.3-.7-2.9.3-6.4 2-8l2.5 1.1zm33.3 14.7C117.4 31 110 28.5 108.3 27c-.7 2.4-1.6 4-3.6 5.2 8.1 4.1 11.2 7.3 18.9 12.1l8.5-9.4zm-63.3 5.3l.3-5.7c0-.2 1.2-.4 1.2-.2l.4 5.4c-.6.2-1.3.3-1.9.5zm-2.2 1.1c0-2.9.1-4.3.1-4.3.2-.5.5-.7.9-.6l.5 4.1c-.5.2-1 .5-1.5.8zm6.7-1.5l1.4-4.7c0-.1.8.2 1 .5l-.7 4.7c-.5-.3-1.1-.4-1.7-.5zm-2.2 0l.9-5.9c.1-.3 1.3.1 1.3.5l-.5 5.4c-.6-.1-1.1-.1-1.7 0zm2.5 8.2c-.8.1-1.5.1-2.3.1 0-2.2 1-2.9 3.7-5.2l.7-1.7c.8-1.5 1-1.3 1.5-1.4.2 0 .4.3.6.5l-1.5 5.2c-.3 1-.4 2.1-2.7 2.5zm1.4-6.6v.3c-3.1 2.3-4.4 3.6-4.6 6.5-.8-.2-1.8-.3-2.5-.9-.9-.6-2.2-2.2-1.2-4.3.4-.8.9-1 1.7-1.6 2-1.3 4.9-.9 6.6-.2v.2zm-.9 12.2l.5-4.8c-2.1.6-5.6.4-7.2-.6l-.5 3.8 7.2 1.6z"/><path class="st3" d="M82.9 44.7c-1.5.9-3.5 1.5-5.3 1.5.2-.5.3-.7.3-1.3 0-.3 0-1-.1-1.3 1.2 0 2.8.2 4.2-.1.3.3.4.4.9 1.2zM99.7 32c-.5 1.3-1 2.5-2 3.7-.5-.8-1.1-1.4-1.7-2 .9-.9 1.5-1 2-1.9.5-.2 1.6-.1 1.7.2zm-41.1 5.2c1.8 1.7 4.1 2.6 6.3 3.7l-.4 1.3.1 1.5c-2.1-.9-4-2.1-5.7-3.4l-.3-3.1zM96.4 0c1.3 1.4 2 2.5 3 4.2 2.1 3.7 3.9 8.4 4.2 12.9l-1.4-.7-1.4-.3c-.2-2.6-.7-5.4-1.7-7.7-1.4-3.4-3.7-6-6.4-8.4h3.7zM59.5 0c-.2.2-.4.4-.7.6V0h.7z"/><path class="st4" d="M109.1 119.1v49.1H59.5v-49.1"/><path class="st6" d="M72.8 147.3L84 136.9l12.6 8.7 1.7 18.1-17.1 3.4-8.4-19.8zm4.5 23L69 150.7l-4.7 2-3.1-.7 21.7-21 28.4 17.9-3.5 2.5-5.5-2.8-.5 17.2-24.5 4.5z"/><path class="st3" d="M82.8 165.3c-2.8-3.6-4.1-5.9-5.6-10.2-.3-.8-.4-1.3-.7-2.1-.5-.9 0-2 .9-2.3.9-.3 1.8.2 2.1 1.1l1.3 3.6-.4-7.2c-.2-1.3-.4-2.4.7-2.9 1.2-.5 2.1.9 2.3 2.5l.8 6.2.6-8.9c0-1.2 3.1-1.4 3.2-.2v.4l-.4 8.5 2-8.5c.5-.9 1.9-1.1 2.6-.4.4.4.5.8.5 1.3l-1.6 7.8 2.7-6.8c.6-.6 1.8-.4 2.2.4.1.3.1.5.1.7l-1.9 7.2c-.7 4.2-2.3 9.3-3.4 9.8-2.7 1.2-5.2 1.5-8 0zm.3-30.7l-1.7-7.8-3.3 1.2-1.3-3.2 4.1-1.2v-5.3l3.1.1-.1 4.4 4.3-.8 1 1.8-5.2 2 .7 8.9-1.6-.1z"/></svg>