<svg id="Layer_1" xmlns="http://www.w3.org/2000/svg" xmlns:xlink="http://www.w3.org/1999/xlink" viewBox="0 0 522 522"><style>.st0{fill:#fff}.st1{clip-path:url(#SVGID_2_)}.st2{fill:#b73536}.st3{fill:#007ac2}.st4{fill:#006351}.st5{fill:#342a7a}.st6,.st7{clip-path:url(#SVGID_4_)}.st7{fill:#b73536;stroke:#b73536;stroke-miterlimit:10}.st8{clip-path:url(#SVGID_6_)}.st10,.st9{clip-path:url(#SVGID_8_)}.st10{fill:#006351;stroke:#006351;stroke-miterlimit:10}.st11{clip-path:url(#SVGID_10_)}.st12{fill:#a7a9ac}.st13{clip-path:url(#SVGID_12_)}.st14{fill:none;stroke:#fff;stroke-width:13.21;stroke-miterlimit:3.86}.st15{fill:#231f20}.st16{clip-path:url(#SVGID_14_)}.st17{clip-path:url(#SVGID_16_)}.st18{clip-path:url(#SVGID_18_)}.st19{font-family:&amp;apos;OpenSans-Bold&amp;apos;}.st20{font-size:4.99px}.st21{fill:#006351;stroke:#006351}.st21,.st22,.st23,.st24{stroke-miterlimit:10}.st22{fill:#342a7a;stroke:#342a7a}.st23{fill:#007ac2;stroke:#007ac2}.st24{fill:#b73536;stroke:#b73536}</style><title>cc_website_logo_icon</title><path class="st0" d="M0 0h522v522H0z"/><defs><path id="SVGID_1_" d="M45 45h432v432H45z"/></defs><clipPath id="SVGID_2_"><use xlink:href="#SVGID_1_" overflow="visible"/></clipPath><g class="st1"><path class="st2" d="M486 486V260.1H260.2V486H486"/><path class="st3" d="M486 261.2V36H260.2v225.2H486"/><path class="st4" d="M261.3 486V260.1H36V486h225.3"/><path class="st5" d="M261.3 261.2V36H36v225.2h225.3"/></g><defs><path id="SVGID_3_" d="M438.5 435.5H263.3V262.2h175.2v173.3"/></defs><use xlink:href="#SVGID_3_" overflow="visible" fill="#b73536"/><clipPath id="SVGID_4_"><use xlink:href="#SVGID_3_" overflow="visible"/></clipPath><image width="369" height="365" xlink:href="83BC858F.jpg" transform="translate(262.74 261.74) scale(.4774)" overflow="visible" class="st6"/><path class="st7" d="M262.7 434h176.2v2H262.7z"/><use xlink:href="#SVGID_3_" overflow="visible" fill="none" stroke="#b73536" stroke-miterlimit="10"/><defs><path id="SVGID_5_" d="M438.5 260.2H263.3V86.5h175.2v173.7"/></defs><use xlink:href="#SVGID_5_" overflow="visible" fill="#007ac2"/><clipPath id="SVGID_6_"><use xlink:href="#SVGID_5_" overflow="visible"/></clipPath><image width="369" height="365" xlink:href="83BC858D.jpg" transform="matrix(.4774 0 0 .4787 262.74 85.98)" overflow="visible" class="st8"/><use xlink:href="#SVGID_5_" overflow="visible" fill="none" stroke="#007ac2" stroke-miterlimit="10"/><defs><path id="SVGID_7_" d="M259.3 435.5H84.1V262.2h175.2v173.3"/></defs><use xlink:href="#SVGID_7_" overflow="visible" fill="#006351"/><clipPath id="SVGID_8_"><use xlink:href="#SVGID_7_" overflow="visible"/></clipPath><image width="369" height="365" xlink:href="83BC8593.jpg" transform="translate(83.54 261.74) scale(.4774)" overflow="visible" class="st9"/><path class="st10" d="M81.7 434h179.7v3.3H81.7z"/><path class="st10" d="M82.5 260.7h1V436h-1z"/><use xlink:href="#SVGID_7_" overflow="visible" fill="none" stroke="#006351" stroke-miterlimit="10"/><defs><path id="SVGID_9_" d="M258.3 260.2H83.1V86.5h175.2v173.7"/></defs><use xlink:href="#SVGID_9_" overflow="visible" fill="#342a7a"/><clipPath id="SVGID_10_"><use xlink:href="#SVGID_9_" overflow="visible"/></clipPath><image width="369" height="365" xlink:href="83BC8595.jpg" transform="matrix(.4774 0 0 .4787 82.54 85.98)" overflow="visible" class="st11"/><use xlink:href="#SVGID_9_" overflow="visible" fill="none" stroke="#342a7a" stroke-miterlimit="10"/><path class="st0" d="M320.5 203.2V102.4H202v100.2H101.1v118.3h101.6v99h116.8v-98.6h102.1V203.2H320.5z"/><path class="st12" d="M219.1 219.4h85.4v85.4h-85.4z"/><path class="st12" d="M219.1 219.4h85.4v85.4h-85.4z"/><defs><path id="SVGID_11_" d="M219.1 219.4h85.4v85.4h-85.4z"/></defs><clipPath id="SVGID_12_"><use xlink:href="#SVGID_11_" overflow="visible"/></clipPath><g class="st13"><path class="st12" d="M217.1 217.3h42.5v45.3h-42.5zm47.5 0h42.5v45.3h-42.5zm-47.5 47.2h42.5v45.3h-42.5zm47.5 0h42.5v45.3h-42.5z"/></g><path class="st14" d="M261.6 308.8v-89.9M216.8 262h89.9"/><path class="st0" d="M224.1 262c0-20.7 16.8-37.5 37.5-37.5s37.5 16.8 37.5 37.5-16.8 37.5-37.5 37.5-37.5-16.8-37.5-37.5"/><path class="st15" d="M237.9 285.2c-.3-.2-.6-.4-.8-.7-.6-.7-.5-1.7.1-2.2l.1-.1c.6-.6 1.6-.6 2.3 0l.1.1c.3.3.4.6.5 1l.7-.5c-.1-.4-.3-.7-.6-1-.7-1.1-2.2-1.4-3.3-.7-.1.1-.3.2-.4.3-1.3 1-1.1 2.4-.1 3.6.2.3.5.5.8.7l.6-.5zm3.7 1.4c.5-.7 1.4-1.1 2.1-.6.6.6.6 1.5.1 2.1l-.1.1c-.5.7-1.3 1.2-2.1.6s-.6-1.5 0-2.2m-.8-.6c-.7 1.1-.5 2.6.6 3.3 1.1.7 2.6.5 3.3-.6.7-1 .5-2.5-.5-3.2-.9-.8-2.4-.7-3.2.3-.1 0-.2.1-.2.2m5.2 6.6l.8.4 1.6-3.7-.4 4.2.9.4 2.8-3.1-1.6 3.6.8.4 2-4.4-1.5-.6-2.5 2.8.4-3.8-1.4-.6zm8.7 3.2l.9.2.6-4 .7 4.1.9.2 1.9-3.8-.6 4 1 .1.6-4.8-1.5-.2-1.7 3.4-.6-3.7-1.5-.3zm8.9-1c.2 1.3 1 1.7 2.2 1.6s1.9-.8 1.7-2l-.4-3.1-1 .1.3 2.8c.1.8-.1 1.4-.8 1.5s-1.1-.4-1.2-1.2l-.3-2.8-1 .1.5 3zm7.5.6l.8-.3-1.1-3.4 2.9 2.8 1.1-.3-1.5-4.6-.8.3 1.1 3.4-2.9-2.9-1.1.4z"/><path transform="rotate(-27.99 277.013 290.444)" class="st15" d="M276.5 288h1v4.8h-1z"/><path class="st15" d="M281.9 290.2l.8-.6-2.4-3.2 1.1-.9-.4-.6-3 2.2.4.6 1.1-.8zm4.9-4.3l.7-.7-1.4-1.3-1-3.2-.6.7.6 2.2-2.2-.5-.8.8 3.4.7zm-52.5-12.2l-.3-.9-2 .6-.6-1.8 2-.7-.3-.9-4.6 1.5.3.9 1.9-.6.6 1.8-1.9.6.3.9zm-4.3-6.9c-.9.1-1.8-.2-1.8-1.2s.8-1.4 1.6-1.5 1.8.2 1.9 1.2-.8 1.4-1.7 1.5m.1 1c1.3-.2 2.2-1.4 2-2.7-.2-1.3-1.4-2.2-2.7-2-1.3.2-2.2 1.3-2 2.6 0 1.2 1.1 2.2 2.3 2.2.2-.1.3-.1.4-.1m2.1-7.4l.4-2.8-.8-.1-.2 1.9-4-.5-.2 1zm.8-4.8l.7-2.7-.7-.2-.5 1.8-3.9-1.1-.3 1zm1.2-4.3l.4-.9-.8-.9.9-1.8 1.2.1.5-1-5.2-.4-.5 1 3.5 3.9zm-.3-3.6l-.6 1.3-1.5-1.5 2.1.2zm3.7-2.5l.6-.8-2.8-2.2 4 .8.7-.9-3.7-3-.6.7 2.8 2.2v.1l-4-.9-.7.9zm2.6-8.7l.4-.3c.7-.6 1.8-.5 2.3.2.6.7.5 1.8-.2 2.3l-.4.3-2.1-2.5zm1.8 3.8l1-.8c1.1-.9 1.9-2.1.6-3.6s-2.5-1.1-3.7-.1l-1 .8 3.1 3.7zm7.8-5.2l.9-.3v-1.2l1.9-.6.8.9 1-.4-3.4-3.9-1 .4-.2 5.1zm2.3-2.8l-1.3.5v-2.1l1.3 1.6zm4.3.7l1-.1-.3-2h.3c.4-.1.5.1.7.4l.8 1.4 1.1-.1-1-1.8c-.1-.2-.3-.4-.6-.4.6-.1.9-.7.8-1.3-.2-1.3-1.4-1.1-2.4-1l-1 .1.6 4.8zm.4-4.2h.3c.5-.1 1-.1 1.1.5s-.5.7-.9.8h-.3l-.2-1.3zm5.4 3.7l2.8.1.1-.8h-1.9v-1.4l1.8.1v-.8h-1.7v-1.2h1.9v-.7l-2.8-.1zm4.9.4l1 .2.7-1 1.9.5.1 1.2 1 .3-.7-5.1-1.1-.3-2.9 4.2zm3.4-1.1l-1.4-.3 1.2-1.8.2 2.1zm9.7 5.6c-.4-.1-.7-.2-1-.4-.8-.4-1-1.4-.6-2.2 0-.1.1-.1.1-.2.4-.8 1.4-1.1 2.2-.7 0 0 .1 0 .1.1.3.2.6.4.8.8l.5-.6c-.2-.3-.5-.5-.8-.8-1-.8-2.5-.6-3.4.4-.1.1-.2.3-.3.4-.9 1.4-.4 2.6 1 3.4.3.2.7.3 1 .4l.4-.6zm1 1.8l.7.7 1.1-.5 1.4 1.4-.5 1.1.8.8 2-4.8-.8-.8-4.7 2.1zm3.5.9l-1-1 1.9-.9-.9 1.9zm1.4 4.5l.6.8 3.3-2.4.8 1.1.6-.5-2.2-3-.6.5.8 1.1zm2.5 3.7l.4.9 1.9-.9.8 1.8-1.9.9.4.9 4.4-2.1-.4-.9-1.8.9-.8-1.8 1.8-.8-.4-.9zm5 6.4c.8-.2 1.8.1 2 1 .2.9-.6 1.5-1.4 1.7s-1.8 0-2-1 .5-1.5 1.4-1.7m-.2-1c-1.3.3-2 1.6-1.7 2.9.3 1.3 1.6 2 2.9 1.7 1.2-.3 2-1.5 1.8-2.8-.2-1.2-1.3-2.1-2.5-1.9-.3.1-.4.1-.5.1m-1.4 7.5l.1 2.9h.8l-.1-1.9 4.1-.1v-1z"/><path transform="rotate(-82.051 294.148 266.861)" class="st15" d="M293.7 264.5h1v4.8h-1z"/><defs><path id="SVGID_13_" d="M116.5 115.8h289.7v293.3H116.5z"/></defs><clipPath id="SVGID_14_"><use xlink:href="#SVGID_13_" overflow="visible"/></clipPath><g class="st16"><path class="st15" d="M291.1 273.1c0-.4 0-.7.1-1.1.2-.8 1.1-1.3 2-1.1.1 0 .1 0 .2.1.9.2 1.4 1 1.2 1.9v.2c-.1.4-.3.7-.5.9l.8.3c.2-.3.4-.6.5-1 .5-1.2 0-2.6-1.2-3.1-.1-.1-.3-.1-.5-.1-1.6-.5-2.6.3-3.1 1.8-.1.4-.2.7-.2 1.1l.7.1z"/><path class="st3" d="M321.3 219.6h85.4V305h-85.4z"/></g><path class="st0" d="M356.6 251.1c1.3-1.7 2.9-1.6 4.7.3-1.5.9-3.4.8-4.7-.3"/><path class="st0" d="M357.2 247c.4-2.5 2.4-4.5 5.9-5.9 1.8 2.4 4 4.5 6.4 6.2 1.3 1 2 2.6 2 4.2.4 5.3-.4 9.1-2.2 11.3-1.9 1.8-4.1 3-6.5 3.7l-.2-15.3c.4-2.2-1.4-3.7-5.4-4.2m8.3 4.7c1.2 1 3 .9 4.2-.2l-4.2.2z"/><path class="st0" d="M355.5 252.6l6.1.8-.2 8.9c-3.8-1.6-6.2-5.5-5.9-9.7m-5.3-5.4c2.7-2.7 5.9-4.8 9.5-6.2 3.4-1 5.4-2.8 6-5.4-6-2.5-12.2 1.6-15.5 11.6m14.7-6.7c1.1-2.8 1.9-4 2.8-3.4 3.2 1.8 5.2 5.1 6.1 10.1-3.8-1-7-3.4-8.9-6.7m-15.4 11.2l4.2-3.3.5 7.9 2.2 7.2c-3.6 0-5.9-2.5-7.1-7.5l.2-4.3zm23.9 0c.8.8 1 2.8.6 6.1h-1.4l-.4-1.5c.1-2.4.6-3.9 1.2-4.6m-2.5 16.5l2-6.5c.7-1.5 1.3-1.4 1.7.3 2.7 8.9 6.5 17.4 11.3 25.4 1.5 2 1.3 2.7-.8 2-3.9-.7-7.7-2.2-11.1-4.3-1.8-5.5-2.9-11.1-3.1-16.9m-23.5-7.5c7.9 8.2 15 12.4 21.2 12.5l1.4 9.5c-8-2.6-15.3-6.9-21.5-12.6l-1.1-9.4z"/><path class="st0" d="M343.7 273.4l2.2-3.4c8.4 7.8 17.1 13.1 26 15.9l-.3 2.7-11.1 4.3-7.8-5.6-9-13.9zm-1.4 1.8c3.2 7 7.4 13.5 12.5 19.3l-3.1 1.5-10.9-2.2-7.6-3.7-.2-2.5c2.1-6.8 5.3-10.9 9.3-12.4m-12.5 17.5l11.5 5.3c-3.5 3.5-8.3 5.2-14.4 5 .3-5.1 1.2-8.5 2.9-10.3m46.9-3.3c5.4 3 11.2 5.2 17.1 6.7 3.7 2 6.6 5.1 8.2 8.9h-10.9c-4.9-.7-8.7-2.3-11.4-5l-3-10.6zm-43.8 15.5c23-8.3 36.4-13.4 40-15.5l.3 3.6c-7 3.7-17.6 7.7-31.8 12l-8.5-.1zm12.8-77.5l6.1-3.9 4.3 8.4c-1.7.5-3.2 1.5-4.2 3l-6.2-7.5zm10.1-4.5l1.9 8.2 5.3-.5 1.7-9.3c-5.6-.6-8.5-.1-8.9 1.6m11.1-1.1l-1.1 8.7 3.1.9 3.1-8.7c-2.1-1.4-3.9-1.8-5.1-.9m4 10.4l3.7-7.6c4.3 1.8 7.8 5.1 9.8 9.3l-8 5c-1.7-3.6-3.6-5.8-5.5-6.7m6.6 8.4l9.3-3.7 1.6 5.5-11.1.9zm1.5 4.3l10.1.1-.7 5.6-10.3-1.5zm.6 7.6h7.6l-1.9 3.3c-3.7-.7-5.6-1.8-5.7-3.3m.2 3.3l4.5 1.5c-.6 1.8-1.7 3.3-3.1 4.5l-1.4-6zm-36.9-26l7.6 6.7c-1.8 1.8-3.1 4.1-3.7 6.5l-8.1-1.3c.5-5 1.9-9 4.2-11.9m-4 14.4c2.5-.2 4.9 0 7.3.6v4.4l-7.2.3c-.7-2.5-.7-4.2-.1-5.3m1.6 8.1c1.3 3.5 3 5.5 5 6.2l.5-8-5.5 1.8z"/><path class="st0" d="M333.4 236l3.4 1.2c-2.1 11.7.9 20.1 9.1 25l-1.7 4.3c-10.3-7.7-13.9-17.9-10.8-30.5m5.3-3.1c1.9-5.1 7-9.4 15.4-13.1l-6.5-.3c-6.4 3.8-10.4 7.8-11.8 12l2.9 1.4zm40.8-13.1l-1.2 2.5c6.4 6.3 10.4 12.5 12 18.8l3.1-.2c-1.9-9.2-6.5-16.3-13.9-21.1m11.4 23.5l2.6-.1c0 10.9-3.2 18.2-9.7 22l-1.9-2.7c6.3-6.1 9.3-12.5 9-19.2"/><path class="st15" d="M312.8 220.3c.6 0 1.3.3 1.3.9s-.6.9-1.3.9-1.3-.2-1.3-.9.7-.9 1.3-.9m0-.7c-1.1 0-1.8.5-1.8 1.6s.8 1.6 1.8 1.6 1.8-.6 1.8-1.6-.7-1.6-1.8-1.6m-.5 4.3c-.7 0-1.3.6-1.3 1.3 0 .7.6 1.3 1.3 1.3h2.2v-.6h-2c-.6 0-1-.2-1-.7s.4-.7 1-.7h2v-.6h-2.2zm-1.2 4v.6h1.5v.2c0 .3-.1.4-.4.4l-1.1.4v.7l1.4-.5c.1-.1.4-.2.4-.3.1.4.4.7.8.6 1 0 1-.8 1-1.5v-.7l-3.6.1zm3 .6v.2c0 .3 0 .7-.5.7s-.5-.4-.5-.7v-.2h1zm-3 4.8v1.8h.5v-1.2h3v-.6zm0 2.6v.7l.8.3v1.3l-.8.3v.7l3.5-1.2v-.7l-3.5-1.4zm1.3 2v-.9l1.5.5-1.5.4zm1.6 2.9v.4c-.1.7-.7 1.1-1.4 1-.5-.1-1-.5-1-1v-.4h2.4zm-3-.7v.9c0 1 .4 1.8 1.8 1.8s1.8-.9 1.8-1.8v-.9H311zm.1 4.8v.7h1.4l2.1 1.1v-.7l-1.5-.7 1.5-.8v-.7l-2.1 1.1zm1.7 5.3c.6 0 1.3.3 1.3.9s-.6.9-1.3.9-1.3-.2-1.3-.9.7-.9 1.3-.9m0-.6c-1.1 0-1.8.5-1.8 1.6s.8 1.6 1.8 1.6 1.8-.6 1.8-1.6-.7-1.6-1.8-1.6m-1.7 4.3v.6h1.5v1.1h.6v-1.1h.8v1.2h.6v-1.8zm0 5.5v.6h2.9v.9h.6v-2.5h-.6v1zm0 2.6v.6h1.5v1.3h-1.5v.6h3.5v-.6h-1.4v-1.3h1.4v-.6zm0 3.9v1.9h.5v-1.3h1v1.2h.6v-1.2h.8v1.3h.6v-1.9zm0 5.1v1.9h.5v-1.2h3v-.7zm0 2.6v.7l.8.3v1.3l-.8.3v.7l3.5-1.2v-.7l-3.5-1.4zm1.3 2v-.9l1.5.5-1.5.4zm-1.3 2.3v.6h1.6l-1.6 1.2v.8l1.8-1.3 1.7 1.3v-.8l-1.5-1.2h1.5v-.6zm0 3.7v1.9h.5v-1.3h1v1.2h.6v-1.2h.8v1.3h.6v-1.9zm0 5.1v.6h1.3v.3c0 .7.3 1.2 1.1 1.2s1.1-.6 1.1-1.3v-.8h-3.5zm3 .6v.2c0 .3-.1.6-.5.6s-.5-.3-.5-.6v-.2h1zm-3 1.9v.7l.8.3v1.3l-.8.3v.7l3.5-1.2v-.7l-3.5-1.4zm1.3 2v-.9l1.5.5-1.5.4zm-1.3 2.3v.6h1.5v.2c0 .3-.1.4-.4.4l-1.1.4v.7l1.4-.5c.1-.1.4-.2.4-.3.1.4.4.7.8.6 1 0 1-.8 1-1.5v-.7h-3.6zm3 .6v.2c0 .3 0 .7-.5.7s-.5-.4-.5-.7v-.2h1zm-3 2.8h3.5v.6h-3.5zm3.4 3.7c.1-.2.1-.5.1-.8.1-.5-.3-1-.9-1.1h-.2c-1.2 0-.9 1.4-1.5 1.4-.3 0-.5-.3-.5-.6s.1-.5.2-.7l-.6-.1c-.1.3-.1.5-.1.8 0 .6.3 1.2 1.1 1.2 1.2 0 .9-1.4 1.5-1.4.3 0 .5.2.5.4v.1c0 .2-.1.4-.1.6l.5.2zm-3.4 1.5v.6h1.5v1.3h-1.5v.6h3.5v-.6h-1.4v-1.3h1.4v-.6zM209 303.4c-.1.2-.1.5-.1.8-.1.5.3 1 .9 1.1h.2c1.2 0 .9-1.4 1.6-1.4.3 0 .4.3.4.6s-.1.5-.2.7l.6.1c.1-.3.1-.5.1-.8 0-.6-.3-1.2-1.1-1.2-1.2 0-.9 1.4-1.5 1.4-.3 0-.5-.2-.5-.4v-.1c0-.2.1-.4.1-.6l-.5-.2zm3.4-2.2v-.7h-2.9v-.9h-.6v2.5h.6v-.9zm-.7-2.9h.7v.6h-.7zm.7-3.7v-.6h-1.5v-1.1h-.6v1.1h-.8v-1.1h-.6v1.7zm0-3.1v-.6H211v-.2c0-.3.1-.4.4-.4l1.1-.4v-.7l-1.4.5c-.2.1-.4.2-.4.3-.1-.4-.4-.7-.8-.6-1 0-.9.8-.9 1.5v.7l3.4-.1zm-3-.6v-.2c0-.3 0-.7.5-.7s.5.4.5.7v.2h-1zm3-2.7v-.7l-.8-.3V286l.8-.3v-.7l-3.5 1.2v.8l3.5 1.2zm-1.3-2v.9l-1.4-.5 1.4-.4zm1.3-2.4v-.7h-2.6l2.6-1.2v-.7h-3.5v.6h2.6l-2.6 1.2v.8zm-.6-6.5c.1.2.2.5.1.7 0 .6-.5 1.1-1.1 1.1h-.1c-.7 0-1.3-.4-1.3-1.1 0-.2.1-.5.2-.7h-.6c-.1.2-.1.5-.1.7 0 .9.7 1.7 1.6 1.7h.3c.9.1 1.7-.5 1.7-1.4v-.3c0-.2 0-.5-.1-.7h-.6zm-2.9-1.9h3.5v.6h-3.5zm.1-3.3c-.1.2-.1.5-.1.8-.1.5.3 1 .9 1.1h.2c1.2 0 .9-1.4 1.6-1.4.3 0 .4.3.4.6s-.1.5-.2.7l.6.1c.1-.3.1-.5.1-.8 0-.6-.3-1.2-1.1-1.2-1.2 0-.9 1.4-1.5 1.4-.3 0-.5-.2-.5-.4v-.1c0-.2.1-.4.1-.6l-.5-.2zm.5-4.4v-.4c.1-.7.7-1.1 1.4-1 .5.1 1 .5 1 1v.4h-2.4zm3 .6v-.9c0-1-.4-1.8-1.8-1.8s-1.8.9-1.8 1.8v.9h3.6zm-.1-4.1v-1.9h-.5v1.3h-1v-1.2h-.6v1.2h-.8v-1.3h-.6v1.9zm-3.4-7.3c-.1.2-.1.5-.1.8-.1.5.3 1 .9 1.1h.2c1.2 0 .9-1.4 1.6-1.4.3 0 .4.3.4.6s-.1.5-.2.7l.6.1c.1-.3.1-.5.1-.8 0-.6-.3-1.2-1.1-1.2-1.2 0-.9 1.4-1.5 1.4-.3 0-.5-.2-.5-.4v-.1c0-.2.1-.4.1-.6l-.5-.2zm3.4-1.3v-.6l-.8-.3v-1.3l.8-.3v-.7l-3.5 1.2v.7l3.5 1.3zm-1.3-2v.9l-1.4-.5 1.4-.4zm1.3-2.4v-1.9h-.5v1.2h-3v.7zm0-3.2v-1.8h-.5v1.2h-1v-1.1h-.6v1.1h-.8v-1.2h-.6v1.8zm-3.4-5.1c-.1.2-.1.5-.1.8-.1.5.3 1 .9 1.1h.2c1.2 0 .9-1.4 1.6-1.4.3 0 .4.3.4.6s-.1.5-.2.7l.6.1c.1-.3.1-.5.1-.8 0-.6-.3-1.2-1.1-1.2-1.2 0-.9 1.4-1.5 1.4-.3 0-.5-.2-.5-.4v-.1c0-.2.1-.4.1-.6l-.5-.2zm3.4-3.7v-.6h-1.3v-.3c0-.7-.3-1.2-1.1-1.2s-1.1.6-1.1 1.3v.8h3.5zm-3-.6v-.2c0-.3.1-.6.6-.6s.5.3.5.6v.2h-1.1zm3-2.2v-.7l-.8-.3v-1.3l.8-.3v-.7l-3.5 1.2v.7l3.5 1.4zm-1.3-2v.9l-1.4-.5 1.4-.4zm1.3-2.4v-.6H211v-.2c0-.3.1-.4.4-.4l1.1-.4v-.7l-1.4.5c-.2.1-.4.2-.4.3-.1-.4-.4-.7-.8-.6-1 0-.9.8-.9 1.5v.7h3.4zm-3-.6v-.2c0-.3 0-.7.5-.7s.5.4.5.7v.2h-1zm-.5-3.6h3.5v.6h-3.5zm.1-3.3c-.1.2-.1.5-.1.8-.1.5.3 1 .9 1.1h.2c1.2 0 .9-1.4 1.6-1.4.3 0 .4.3.4.6s-.1.5-.2.7l.6.1c.1-.3.1-.5.1-.8 0-.6-.3-1.2-1.1-1.2-1.2 0-.9 1.4-1.5 1.4-.3 0-.5-.2-.5-.4v-.1c0-.2.1-.4.1-.6l-.5-.2zm3.4-1.7v-.6h-1.5v-1.3h1.5v-.6h-3.5v.6h1.4v1.3h-1.4v.6zm8.9-10.7c-.2.1-.5.2-.7.1-.6 0-1.1-.5-1.1-1.1v-.1c-.1-.6.3-1.2 1-1.3h.1c.2 0 .5.1.7.2v-.6c-.2-.1-.5-.1-.7-.1-.9-.1-1.7.6-1.7 1.6v.3c-.1.9.5 1.7 1.4 1.7h.3c.2 0 .5 0 .7-.1v-.6zm1.3-1.1c0-.6.3-1.3.9-1.3s.9.6.9 1.3-.2 1.3-.9 1.3-.9-.7-.9-1.3m-.6 0c0 1.1.5 1.8 1.5 1.8s1.5-.8 1.5-1.8-.6-1.8-1.5-1.8-1.5.7-1.5 1.8m4 1.8h.6v-1.4h.2c.3 0 .4.1.4.4l.4 1.1h.7l-.5-1.4c-.1-.1-.2-.4-.3-.4.4-.1.7-.4.6-.8 0-1-.8-.9-1.5-.9h-.6v3.4zm.6-3h.2c.3 0 .7 0 .7.5s-.4.5-.7.5h-.2v-1zm2.5 3h.6v-1.3h.3c.7 0 1.2-.3 1.2-1.1s-.6-1.1-1.3-1.1h-.8v3.5zm.7-3h.3c.3 0 .6.1.6.6s-.3.5-.6.5h-.2l-.1-1.1zm2.2 1.7c-.1.7.5 1.3 1.2 1.4.7.1 1.3-.5 1.4-1.2v-2.4h-.6v2c0 .6-.2 1-.6 1s-.6-.4-.6-1v-2h-.8v2.2zm5.5-2.2c-.2-.1-.5-.1-.8-.1-.5-.1-1 .3-1.1.9v.2c0 1.2 1.4.9 1.4 1.6 0 .3-.3.4-.6.4s-.5-.1-.7-.2l-.1.6c.3.1.5.1.8.1.6 0 1.2-.3 1.2-1.1 0-1.2-1.4-.9-1.4-1.5 0-.3.2-.5.4-.5h.1c.2 0 .4.1.6.1l.2-.5zm5 2.8c-.2.1-.5.2-.7.1-.6 0-1.1-.5-1.1-1.1v-.1c-.1-.6.3-1.2 1-1.3h.1c.2 0 .5.1.7.2v-.6c-.2-.1-.5-.1-.7-.1-.9-.1-1.7.6-1.7 1.6v.3c-.1.9.5 1.7 1.4 1.7h.3c.2 0 .5 0 .7-.1v-.6zm.9.7h.6v-1.6h1.3v1.6h.6v-3.5h-.6v1.4H244v-1.4h-.6zm3.6 0h.6v-1.4h.2c.3 0 .4.1.4.4l.4 1.1h.7l-.5-1.4c-.1-.1-.2-.4-.3-.4.4-.1.7-.4.6-.8 0-1-.8-.9-1.5-.9h-.6v3.4zm.6-3h.2c.3 0 .7 0 .7.5s-.4.5-.7.5h-.2v-1zm2.5-.5h.6v3.5h-.6zm3.4 0c-.2-.1-.5-.1-.8-.1-.5-.1-1 .3-1.1.9v.2c0 1.2 1.4.9 1.4 1.6 0 .3-.3.4-.6.4s-.5-.1-.7-.2l-.1.6c.3.1.5.1.8.1.6 0 1.2-.3 1.2-1.1 0-1.2-1.4-.9-1.4-1.5 0-.3.2-.5.4-.5h.1c.2 0 .4.1.6.1l.2-.5zm1.7 3.5h.7v-3h.9v-.5h-2.5v.5h.9zm2.3-3.5h.6v3.5h-.6zm5.6 2.8c-.2.1-.5.2-.7.1-.6 0-1.1-.5-1.1-1.1v-.1c-.1-.6.4-1.2 1-1.3h.1c.2 0 .5.1.7.2v-.6c-.2-.1-.5-.1-.7-.1-.9-.1-1.7.6-1.7 1.6v.3c-.1.9.5 1.7 1.4 1.7h.3c.2 0 .5 0 .7-.1v-.6zm.5.7h.7l.3-.8h1.3l.3.8h.7l-1.2-3.5h-.7l-1.4 3.5zm2-1.4h-.9l.5-1.4.4 1.4zm2.2 1.4h.6v-3h.9v-.5h-2.4v.5h.9zm2.3 0h.7v-1.6h1.2v1.6h.6v-3.5h-.6v1.4h-1.2v-1.4h-.7zm4.2-1.8c0-.6.3-1.3.9-1.3s.9.6.9 1.3-.2 1.3-.9 1.3-.9-.7-.9-1.3m-.7 0c0 1.1.5 1.8 1.5 1.8s1.5-.8 1.5-1.8-.6-1.8-1.5-1.8-1.5.7-1.5 1.8m4.1 1.8h1.8v-.6h-1.2v-2.9h-.6zm2.5-3.5h.6v3.5h-.6zm4 2.8c-.2.1-.5.2-.7.1-.6 0-1.1-.5-1.1-1.1v-.1c-.1-.6.3-1.2 1-1.3h.1c.2 0 .5.1.7.2v-.6c-.2-.1-.5-.1-.7-.1-.9-.1-1.7.6-1.7 1.6v.3c-.1.9.5 1.7 1.4 1.7h.3c.2 0 .5 0 .7-.1v-.6zm4.8 0c-.2.1-.5.2-.7.1-.6 0-1.1-.5-1.1-1.1v-.2c-.1-.6.3-1.2 1-1.3h.1c.2 0 .5.1.7.2v-.6c-.2-.1-.5-.1-.7-.1-.9-.1-1.7.6-1.7 1.6v.3c-.1.9.5 1.7 1.4 1.7h.3c.2 0 .5 0 .7-.1v-.5zm.8.7h1.9v-.6h-1.2v-1h1.1v-.5h-1.1v-.9h1.2v-.5h-1.9zm2.9 0h.6v-2.7l1.2 2.7h.8v-3.5h-.6v2.6l-1.2-2.6h-.8zm4.2 0h.7v-3h.9v-.5H296v.5h.9zm2.4 0h1.8v-.6h-1.2v-1h1.1v-.5h-1.1v-.9h1.2v-.5h-1.8zm2.8 0h.6v-1.4h.2c.3 0 .4.1.4.4l.4 1.1h.7l-.5-1.4c-.1-.1-.2-.4-.3-.4.4-.1.7-.4.6-.8 0-1-.8-.9-1.5-.9h-.7l.1 3.4zm.6-3h.2c.3 0 .7 0 .7.5s-.4.5-.7.5h-.2v-1z"/><path class="st4" d="M116.5 219.6h85.4V305h-85.4z"/><path class="st0" d="M155.1 228.2c-1-2.3-2.4-4.4-4.1-6.1-4.9 4.5-7.8 8-9.7 12.9.9 1.2 2.3 1.9 3.8 1.9 4.9-3.7 7.9-5.8 10-8.7"/><path class="st0" d="M165.8 219.4c.1 7.8-1.4 13.5-2.8 19.3-7.7 2.6-14 4.7-19.5 5.9l-3.1-5.6c2.6.7 4.4.8 5.3.5 8.9-8.1 14.9-14.8 18-20.1h2.1zm-3.1 22.3l-.8 5.5c-6.2.5-12.4 1.7-18.3 3.6l.4-3.5 18.7-5.6zm10.6 5.6l-1.4-3.2c-.6 2.9-1.3 4.2-1.5 5.1 1.1.3 2 1.1 2.4 2.1l.5-4zm-9.5.8c1.7 0 3.4.2 5 .6.2-.7.6-2.7 1.4-6.1l1.2-17.2c-1.3-3.2-2.7-5-4-5.4-.2 11.2-1.4 20.5-3.6 28.1m10.3-3.5l-2-3.3 1.2-12.8c1.6 2.8 2.7 5.9 3.1 9.2l-2.3 6.9zm-17.1 5.3c1.9-.2 2.1.2.8 1.3-3 2.4-5.1 6.3-6.2 11.7-.4 1.7-1.6 1.6-3.6-.3l-2.2-2.6c.4-1.6.8-3.7 2.6-4.9 2.1-2.8 5.2-4.6 8.6-5.2"/><path class="st0" d="M149.6 250.5c1.7 0 2.8-.1 0 1.3-3.6 2.4-5.5 5-5.5 7.8.2 1.2-.3 1.5-1.4.9-2.8-2-2.6-4.8.6-8.4 2-.7 4.2-1.2 6.3-1.6m1.5 17.1c4.3 9.1 9.2 13.6 14.6 13.6 2.3-2.5 3.5-4.6 3.3-8.8l-3 1.9c-5.3-1.9-9.8-5.3-13.1-9.8l-1.8 3.1zm10.2 15.9c-8-5.9-13.4-13.5-18-21.3-1.7 1.2-2.3 3-2 6 5.8 7.6 11.2 12.5 16.2 14.6l3.8.7zm-17.6-8.8l-4-5c-.6-2.2-.8-4.4-.6-6.6-2.3 2-6.1 7.6-6.5 10.4l11.1 1.2z"/><path class="st0" d="M172.2 252.6c-1-2.1-3.7-2.9-10.1-2.8-3.8 1.4-6.8 5.4-8.8 12 2.1 4.6 6.3 7.8 12.7 9.6 1.9-.5 1.3-7.1 1.3-7.1l2.6-.7-1-7.7c.4-2.1 1.8-3.3 3.3-3.3m-7.6 2.6c-.8-1.1-2.4-1.6-4.8-1.4.7-.5 1.5-.9 2.4-1.1.8-.1 1.7-.1 2.5.2.6.4.9.9 1 1.6v.8c-.6.8-1.5 1.2-2.5 1.2-.9 0-1.7-.2-2.5-.6l3.9-.7z"/><path class="st0" d="M172.9 256.1c-.3-2.1-1.4-2.2-3.1-.1l3.1.1zm-.1 1.4l-2 .4-.2 3.3c2-1.2 2.7-2.4 2.2-3.7m-24.6 22.7l-18.5.6 3.7-5.2 12.6 1.9zm22.3 22.7l-29.2-11.8-1.9 2 4.7 11.9 27.8.1zm12 0c-1.8-1.6-7.2-1.6-8.8.4v1.7l8.2-.1.6-2zm17.4-13.7l-1.5-2.1-12.8 13.8-1.4 4.1h10.4c2-5.2 3.8-10.4 5.3-15.8m-4.1-1.6L183.1 299c-1.4-.9-3-1.4-4.6-1.4.3-3 5.3-7.4 9.5-8.6 2.1-.9 4-2.3 5.5-4l2.3 2.6zm-21 10.2l-4.3 1.4-25.8-8.1 3.3-2.7c4.8 2.2 9.9 3.6 15.1 4.3 8.4.3 10.3 3.3 11.7 5.1m-7.4-6.5l-.4-5.1c2-1.9 2.6-5.8 3.1-7.6 4.7 2.7 8.2 6.3 9.6 10.4l-5.3 2.3h-7zm-3.7-5l1.8 5-8.5-2.3.2-3.5z"/><path class="st0" d="M153.2 283.4l.9 4.2-9.5-.9c-7.2 3.4-14.8 5.7-22.6 6.9.9-3.3 3.2-7.1 6.9-11.3 12.6-.3 20.7.1 24.3 1.1m-21.6 10.5l9.1 11h-17.9c-2-2.5-2.1-5.9-1.2-9.2l10-1.8zm61.6-47.4l-8.4 40.9-1.2.4 1-10-2.7-5.9c2.3-10.8 7-22.4 9-24.3l2.3-1.1zm.2 8.8c.7 10.1-1.8 19.8-4.9 20.7l4.9-20.7zm-4.9 24.7c4.5 0 5.5 1.3 3.1 3.9-2.2 2.5-3.9 3.1-4.9 1.8l1.8-5.7z"/><path class="st0" d="M183.1 280.2c-3-2.9-4.6-2.2-4.7 2 .9 3.6 2.3 4.8 4.1 3.5l.6-5.5z"/><path class="st5" d="M219 117.8h85.5v85.3H219z"/><defs><path id="SVGID_15_" d="M219 117.8h85.5v85.3H219z"/></defs><clipPath id="SVGID_16_"><use xlink:href="#SVGID_15_" overflow="visible"/></clipPath><g class="st17"><path class="st0" d="M225.4 129.3c1.3-1.8 3-3.2 5-4.2 2.1 6.3 7.2 10.8 15.8 13.7l.7 1.5.9 2.3c-3.6 2.6-10.8 3.9-16.2 2.3-2.1-.5-3.9-1.7-5.4-3.3-1.5-4.9-2.3-9.6-.8-12.3m7.5 9.8c.2 1.4 1.5 2.4 2.9 2.2s2.4-1.5 2.2-2.9c0-.2-.1-.4-.1-.5-.4-1.6-2.2-3.7-3.6-3.4s-1.7 2.9-1.4 4.6m15.2 4.6l4.8 12.8c-.4.8-1.1 1.4-2 1.7l-6.4-12.4c1.2-.6 2.4-1.3 3.6-2.1m-4.8 2.6l5.1 13.5c.2.8-2.2 2.5-2.7 2l-6.3-14.2c1.3-.4 2.6-.8 3.9-1.3m-4.8 1.4l3.5 13.7c.1.4-2.6 1-2.8.5l-5.4-13.7c1.5-.1 3.1-.2 4.6-.5m-6 .6l3.6 11.3c-.9.5-2 .3-2.6-.4 0 0-2.6-5.1-5-11.2 1.3.2 2.7.3 4 .3m12-13.5v.2c-7.7-3.3-11.2-5.6-12.5-10.5 1.7-.6 3.5-1.1 5.4-1.4 2.5-.3 6.6 3.2 8.5 5.3l7.8 12.4c-.4.6-.6 1.4-1.2 1.5-1 .1-2.7-1.4-5.3-4.1l-2.7-3.4zm-18.9-55.7l11 41.7c-4.5.8-8.6 3.1-11.6 6.5l-16.3-35.5 16.9-12.7zm47.1 94.8l1 1.3c-1.6 8.9-.1 15.6 4.4 20.5-1.8 1.2-3.9 2-6.1 2.3-3 0-6.9-3-10.5-6.7-.7-2-.8-4.2-.3-6.3 1.3-5.5 5.9-11.1 9.9-13l1.6 1.9zm10.4 16.9c-1.2 1.4-2.5 2.8-3.9 4-3.6-3.5-4-7.7-3.1-16h.1l-1.5-3.8c-1.1-3.6-1.6-5.8-1-6.6.3-.4 1.2-.2 1.9-.3l7.1 12.8c.9 2.6 2 7.8.4 9.9m-20.4-13.7l-9.4-12.4c-.2-.7 2.4-2.1 3-1.4l9.3 11c-1 .9-2 1.8-2.9 2.8m4-3.6l-7.7-11.6c.7-.6 1.6-1 2.5-.9l8.9 10.3c-1.3.6-2.5 1.4-3.7 2.2m-9.7 13c-4.2-5-7.3-9.8-7.3-9.8-.3-.9.1-2 .9-2.5l8.2 8.5.1-.1c.2-.4.4-.7.6-1l-9.4-11.4c-.3-.4 1.6-2.4 1.8-2.2l10.2 9.7c-1 1.2-1.9 2.4-2.7 3.7-.2.3-.4.7-.6 1l-.1.1c-.7 1.2-1.3 2.5-1.8 3.8m59.2 36l-31.2-29.9c-2.9 3.5-6.9 6-11.4 7l23.1 31.5 19.5-8.6zm-29.4-71.7c.6 8.2 5.8 12.6 11.9 15.3-1.1 1.6-2.7 2.9-4.5 3.8-2.7.9-7.2-1.9-12.5-3.3-2-1.2-2.2-2.1-2.7-4-1.2-5 .5-11 3.4-13.8l4.4 2zm14.4 9.6c-.4 1.6-1 3.1-1.8 4.5-4.8-1.8-6.7-5.1-9.4-12.3l-1.4-3.2c-2.6-1.5-4.2-3.2-4.1-4.1 0-.6.3-1.2.8-1.5 1.8 1.3 3.8 2.4 5.8 3.2 1.5 1.7 2.5 3.5 5.4 5.3 2 1.9 5.2 5.9 4.7 8.1m-24.1-5c-1.9-1.5-4.1-2.7-6.4-3.4-1.6-2.4-3.6-3.4-5.1-4.8-.5-.5.5-2.4 1.4-2.1l5.4 4 6.3 3c-.7 1-1.2 2.1-1.6 3.3m2-4.3c-1-1.4-2.7-2.2-4.8-3.3-1.2-2.1-2.8-3.4-4.4-4.8-.2-.1.7-1.3 1.5-1.3l5 3.8 5 2.7c-.8.9-1.6 1.9-2.3 2.9m-2.6 13.4c-1.7-1.1-3.6-1.8-5.6-2.2-1.7-1.4-3.6-2.6-5.5-3.6-.7-.5-1-1.5-.5-2.3l5.7 2.9 5.5 1.6c0 1.2.1 2.4.4 3.6m-.5-4.5c-1.8-1.4-3.8-2.5-6-3.1-1.9-1.8-4.1-3.3-6.4-4.5-.4-.3.5-2.4 1.4-1.9l5.4 3.3 6.5 2.4c-.5 1.2-.8 2.5-.9 3.8M344 176c-25.3-6.7-38.1-11-41-13.6-1.3 4.1-2.8 6.8-6.2 9 13.9 7 19.3 12.6 32.5 20.9L344 176zm-98.4 11v.4c-5.4 4-7.6 6.3-7.9 11.2-1.6-.1-3.1-.6-4.4-1.5-2.5-1.6-3.4-4.8-2.1-7.4.6-1.4 1.5-1.8 2.9-2.7 3.5-2.3 8.4-1.5 11.4-.4l.1.4zm-2.4 11.5c-1.3.2-2.7.2-4 .1 0-3.8 1.7-5 6.4-9v.1l1.2-2.9c1.3-2.5 1.8-2.3 2.5-2.5.4-.1.7.5 1.1.8l-2.7 9c-.4 1.8-.5 3.7-4.5 4.4m-4.4-14.2l1.6-10.1c.2-.5 2.3.2 2.3.8l-.9 9.3h-3m3.9 0l2.4-8c.7.1 1.3.4 1.7.9l-1.1 8c-1.1-.3-2-.6-3-.9m-11.5 2.7c-.1-2.5 0-4.9.3-7.4.2-.7.9-1.2 1.6-1.1l.8 7c-.9.4-1.8.9-2.7 1.5m3.8-1.9l.5-9.8c0-.4 2-.6 2-.4l.7 9.4c-1.1.1-2.2.4-3.2.8m9.1 23l.9-8.3c-3.7 1.1-9.7.7-12.3-1l-1 6.6 12.4 2.7z"/></g><defs><path id="SVGID_17_" d="M116.5 115.8h289.7v293.3H116.5z"/></defs><clipPath id="SVGID_18_"><use xlink:href="#SVGID_17_" overflow="visible"/></clipPath><g class="st18"><path class="st0" d="M219 115.8c-.4.3-.8.7-1.1 1v-1h1.1zm63.5 0c2 2.2 3.8 4.6 5.2 7.2 3.7 6.3 6.8 14.5 7.2 22.2l-2.4-1.1-2.4-.5c-.3-4.5-1.2-9-2.9-13.3-2.4-5.8-6.4-10.4-11-14.5h6.3zm-65.1 64c3.1 2.9 7 4.5 10.8 6.4l-.7 2.2.1 2.5c-3.5-1.6-6.8-3.5-9.8-5.9l-.4-5.2zm70.7-8.9c-.8 2.3-1.9 4.5-3.4 6.4-.8-1.3-1.8-2.5-3-3.5 1.5-1.5 2.6-1.8 3.5-3.3.9-.3 2.8 0 2.9.4m-29 21.8c-2.8 1.6-5.9 2.5-9.1 2.5.4-.7.5-1.5.5-2.2 0-.8 0-1.5-.1-2.3 2.4.3 4.9.2 7.3-.2.5.8.9 1.5 1.4 2.2"/></g><path class="st2" d="M304.4 320.9v84.5H219v-84.5"/><path class="st0" d="M249.6 409.1l-14.4-33.8-8.1 3.4-5.3-1.3 37.4-36.2L308 372l-6 4.3-9.4-4.9-.9 29.6-42.1 8.1zm-7.8-39.7l19.2-17.8 21.7 15 2.9 31.2-29.4 5.9-14.4-34.3z"/><path class="st0" d="M259.1 400.4c-4.3-5.2-7.6-11.2-9.7-17.6-.5-1.4-.8-2.2-1.1-3.7-.7-1.4-.2-3.1 1.3-3.8.1-.1.2-.1.4-.2 1.5-.5 3.1.4 3.5 1.9l2.3 6.3-.6-12.5c-.3-2.2-.7-4.2 1.1-5 2.1-.9 3.6 1.6 4 4.3l1.4 10.7 1-15.3c0-2.1 5.3-2.4 5.5-.3v.6l-.6 14.7 3.4-14.7c.9-1.4 2.7-1.8 4.1-.9.1.1.3.2.4.3.6.6.9 1.4.8 2.2l-2.8 13.4 4.7-11.6c1-.9 2.5-.8 3.4.2.1.1.2.3.3.4.2.4.2.8.2 1.3l-3.2 12.3c-1.3 7.2-4 16-5.8 16.8-5 2.3-9.3 2.8-14 .2m.5-52.8l-2.9-13.5-5.7 2.2-2.3-5.6 7.1-2v-9.2l5.3.3-.1 7.4 7.3-1.3 1.8 3.1-9 3.4 1.3 15.4z"/><text transform="matrix(.97 0 0 1 219.29 314.84)" class="st15 st19 st20">CORPUS CHRISTI CATHOLIC SCHOOL</text><path class="st21" d="M81 262.7h4.8v190.6H81z"/><path class="st22" d="M81.5 63.3h3.6v196.1h-3.6z"/><path class="st23" d="M437 57.8h4v201.9h-4z"/><path class="st24" d="M435.7 262.6h7v176.7h-7z"/></svg>