<svg xmlns="http://www.w3.org/2000/svg" viewBox="0 0 432 432"><defs><clipPath id="a"><path fill="none" d="M0 0h432v432H0z"/></clipPath><clipPath id="b"><path fill="none" d="M175.07 169.45h85.4v85.4h-85.4z"/></clipPath><clipPath id="c"><path fill="none" d="M72.51 65.84h289.74v293.28H72.51z"/></clipPath><clipPath id="d"><path fill="none" d="M174.97 67.78h85.51v85.3h-85.51z"/></clipPath></defs><title>ccfzh-website-logo-2017</title><g clip-path="url(#a)"><path fill="#b73536" d="M441 441V215.07H215.18V441H441"/><path fill="#007ac2" d="M441 216.21V-9H215.18v225.21H441"/><path fill="#006351" d="M216.31 441V215.07H-9V441h225.31"/><path fill="#342a7a" d="M216.31 216.21V-9H-9v225.21h225.31"/></g><path fill="#fff" d="M276.48 153.24V52.4H158.03v100.2H57.11v118.26h101.56v98.99h116.79V271.3h102.11V153.24H276.48z"/><path fill="#a7a9ac" d="M175.07 169.45h85.4v85.4h-85.4z"/><path fill="#a7a9ac" d="M175.07 169.45h85.4v85.4h-85.4z"/><g clip-path="url(#b)" fill="#a7a9ac"><path d="M173.1 167.32h42.47v45.3H173.1zm47.5 0h42.47v45.3H220.6zm-47.5 47.2h42.47v45.3H173.1zm47.5 0h42.47v45.3H220.6z"/></g><path d="M217.59 258.75v-89.92m-44.78 43.22h89.91" fill="none" stroke="#fff" stroke-miterlimit="3.864" stroke-width="13.213"/><path d="M180.08 212a37.54 37.54 0 1 1 37.54 37.54A37.54 37.54 0 0 1 180.08 212" fill="#fff"/><path d="M193.85 235.18a2.68 2.68 0 0 1-.83-.68 1.59 1.59 0 0 1 .26-2.36 1.61 1.61 0 0 1 2.38.12 2 2 0 0 1 .48 1l.67-.47a3.19 3.19 0 0 0-.55-1 2.39 2.39 0 0 0-3.67-.37c-1.25 1-1.15 2.38-.15 3.58a4.87 4.87 0 0 0 .82.74zm3.73 1.4c.51-.68 1.35-1.14 2.12-.56a1.49 1.49 0 0 1 0 2.19c-.52.7-1.34 1.18-2.13.58s-.55-1.52 0-2.21m-.81-.61a2.37 2.37 0 1 0 3.38-.56 2.25 2.25 0 0 0-3.38.56m5.2 6.62l.85.38 1.61-3.63.02-.01-.44 4.17.85.38 2.81-3.11h.01l-1.62 3.64.85.37 1.96-4.4-1.42-.63-2.53 2.87h-.01l.43-3.81-1.41-.63-1.96 4.41zm8.74 3.24l.92.13.55-3.93.02-.01.73 4.12.92.13 1.84-3.76h.01l-.55 3.94.92.13.67-4.78-1.54-.21-1.64 3.46h-.02l-.62-3.78-1.53-.22-.68 4.78zm8.95-1.01c.16 1.28.95 1.72 2.18 1.57s1.89-.77 1.73-2l-.37-3.06-1 .12.34 2.76c.1.82-.09 1.38-.83 1.47s-1.06-.41-1.16-1.23l-.34-2.77-1 .12zm7.41.57l.88-.28-1.12-3.43.02-.01 2.86 2.86 1.13-.36-1.49-4.59-.88.29 1.11 3.42-.01.01-2.87-2.86-1.13.37 1.5 4.58zm4.401-6.914l.857-.455 2.263 4.256-.857.455zm6.439 1.744l.79-.57-2.39-3.29 1.11-.81-.44-.62-3.02 2.2.45.61 1.11-.81 2.39 3.29zm4.94-4.3l.66-.71-1.39-1.3-.95-3.25-.7.75.69 2.23-2.26-.55-.77.83 3.33.7 1.39 1.3zm-52.55-12.26l-.29-.91-2.01.65-.6-1.84 2.01-.65-.3-.93-4.59 1.49.3.93 1.85-.61.6 1.84-1.85.61.3.91 4.58-1.49zm-4.29-6.87c-.85.07-1.75-.24-1.83-1.2s.75-1.42 1.6-1.5 1.77.21 1.86 1.2-.76 1.43-1.62 1.5m.09 1a2.37 2.37 0 1 0-2.68-2.14 2.25 2.25 0 0 0 2.68 2.14m2.14-7.35l.34-2.82-.75-.09-.23 1.86-4.03-.5-.12.96 4.79.59zm.73-4.84l.73-2.75-.73-.19-.48 1.81-3.93-1.05-.25.93 4.66 1.25zm1.27-4.3l.44-.9-.81-.86.86-1.76 1.18.11.47-1-5.16-.41-.48 1zm-.31-3.61l-.62 1.27-1.48-1.5zm3.69-2.53l.59-.71-2.81-2.27.01-.02 3.97.84.74-.92-3.75-3.03-.58.72 2.8 2.27-.01.01-3.96-.84-.75.92 3.75 3.03zm2.56-8.68l.42-.34a1.65 1.65 0 0 1 2.08 2.57l-.42.34zm1.81 3.77l1-.83c1.15-.93 1.85-2.14.65-3.63s-2.53-1.05-3.68-.12l-1 .83zm7.82-5.2l.95-.33v-1.18l1.85-.64.75.91 1-.35-3.36-3.94-1 .36zm2.33-2.78l-1.33.46v-2.11zm4.28.73l1-.13-.28-2h.31c.41-.06.55.06.73.4l.78 1.41 1.07-.15-1-1.76c-.13-.2-.31-.44-.58-.42a1.11 1.11 0 0 0 .83-1.25c-.19-1.33-1.41-1.12-2.43-1l-1 .15zm.39-4.16h.31c.48-.07 1-.09 1.1.48s-.45.74-.92.81h-.31zm5.38 3.66l2.86.1.03-.76-1.89-.06.04-1.36 1.72.06.03-.76-1.72-.06.04-1.18 1.88.06.03-.76-2.85-.1-.17 4.82zm4.89.35l1 .24.68-1 1.9.47.13 1.17 1 .26-.67-5.14-1.06-.26zm3.47-1.06l-1.37-.34 1.16-1.76zm9.64 5.62a2.68 2.68 0 0 1-1-.39 1.59 1.59 0 0 1-.47-2.33 1.61 1.61 0 0 1 2.3-.62 2 2 0 0 1 .75.77l.49-.66a3.27 3.27 0 0 0-.82-.75 2.39 2.39 0 0 0-3.61.79c-.86 1.38-.36 2.62 1 3.45a4.94 4.94 0 0 0 1 .45zm.99 1.82l.72.7 1.07-.5 1.41 1.36-.47 1.08.77.75 2-4.78-.78-.76zm3.53.82l-1-1 1.89-.94zm1.43 4.53l.57.78 3.28-2.39.82 1.12.61-.44-2.19-3.02-.62.44.81 1.12-3.28 2.39zm2.44 3.76l.41.88 1.91-.9.82 1.76-1.92.89.41.88 4.37-2.04-.41-.88-1.76.82-.82-1.75 1.77-.82-.41-.88-4.37 2.04zm5.02 6.39c.83-.16 1.76.06 1.95 1s-.6 1.5-1.43 1.66-1.79 0-2-1 .6-1.5 1.46-1.66m-.19-1a2.37 2.37 0 1 0 2.89 1.85 2.25 2.25 0 0 0-2.89-1.85m-1.35 7.5l.05 2.84.76-.01-.03-1.87 4.06-.08-.01-.96-4.83.08zm-.01 6.233l.136-.96 4.772.674-.136.96z" fill="#231f20"/><g clip-path="url(#c)"><path d="M247.09 223.06a2.72 2.72 0 0 1 .12-1.07 1.59 1.59 0 0 1 2.12-1.06 1.61 1.61 0 0 1 1.2 2.06 2 2 0 0 1-.55.92l.76.31a3.19 3.19 0 0 0 .51-1 2.39 2.39 0 0 0-1.69-3.29c-1.56-.48-2.62.33-3.08 1.83a4.91 4.91 0 0 0-.18 1.1z" fill="#231f20"/><path fill="#007ac2" d="M277.34 169.59h85.4v85.4h-85.4z"/></g><path d="M312.59 201.08q2-2.57 4.69.32a4 4 0 0 1-4.69-.32" fill="#fff"/><path d="M313.22 197q.63-3.77 5.91-5.91a31.64 31.64 0 0 0 6.39 6.23 5.37 5.37 0 0 1 2 4.22q.55 7.92-2.2 11.35a15.92 15.92 0 0 1-6.55 3.75l-.16-15.26q.65-3.57-5.44-4.37m8.28 4.69a3.23 3.23 0 0 0 4.18-.16z" fill="#fff"/><path d="M311.53 202.65l6.07.75-.16 8.91a9.71 9.71 0 0 1-5.91-9.66m-5.32-5.47a27.14 27.14 0 0 1 9.5-6.23q5.06-1.51 5.95-5.44c-6-2.4-12.18 1.7-15.45 11.67m14.66-6.71c1.11-2.82 1.93-4 2.8-3.43q4.75 2.65 6.07 10.13a14.07 14.07 0 0 1-8.87-6.7m-15.41 11.24l4.18-3.27.47 7.92 2.17 7.18q-5.34 0-7.14-7.46zm23.97 0q1.19 1.14.63 6.07h-1.42l-.44-1.54q.22-3.55 1.22-4.53m-2.48 16.52l2-6.54q1.09-2.26 1.73.31A110.83 110.83 0 0 0 342 237.38q2.27 3-.75 2a30.12 30.12 0 0 1-11.08-4.34 54.44 54.44 0 0 1-3.27-16.83" fill="#fff"/><path d="M303.41 210.74q11.84 12.34 21.2 12.46l1.38 9.5a58.6 58.6 0 0 1-21.48-12.61z" fill="#fff"/><path d="M299.66 223.35l2.2-3.43q12.58 11.72 26 15.89l-.32 2.68-11.07 4.34-7.77-5.6zm-1.38 1.89a79.16 79.16 0 0 0 12.46 19.32l-3.11 1.54-10.92-2.17-7.61-3.74-.16-2.49q3.32-10.32 9.34-12.46m-12.46 17.43l11.52 5.33q-5.22 5.28-14.35 5 .3-7.64 2.84-10.29m46.87-3.32a72.49 72.49 0 0 0 17.15 6.7 18.55 18.55 0 0 1 8.24 8.91H347.2q-7.41-1-11.39-5zm-43.76 15.46q34.56-12.4 40-15.45l.31 3.59q-10.54 5.56-31.77 12zm12.77-77.46l6.07-3.87 4.34 8.4a7.36 7.36 0 0 0-4.18 3zm10.13-4.5l1.86 8.24 5.28-.47 1.73-9.34q-8.4-1-8.87 1.57m11.04-1.1l-1.07 8.71 3.11.94 3.11-8.71q-3.26-2.2-5.16-.95m4.07 10.45l3.75-7.65a19.2 19.2 0 0 1 9.81 9.34l-8 5q-2.67-5.4-5.6-6.7m6.59 8.41l9.34-3.74 1.57 5.48-11.07.91.16-2.65zm1.53 4.22l10.13.16-.75 5.59-10.28-1.54.9-4.21zm.63 7.65h7.65l-1.85 3.27q-5.72-1-5.79-3.27m.15 3.27l4.53 1.54a9.78 9.78 0 0 1-3.12 4.53zm-36.9-26.02l7.61 6.7a14.78 14.78 0 0 0-3.74 6.54l-8.08-1.26q.75-7.6 4.22-12m-4.07 14.49a20.29 20.29 0 0 1 7.33.63v4.37l-7.17.32q-1-3.77-.16-5.32m1.7 8.12q2 5.2 5 6.23l.47-8z" fill="#fff"/><path d="M289.38 186l3.43 1.22q-3.14 17.58 9.06 25l-1.73 4.34q-15.32-11.61-10.76-30.56m5.32-3.14q2.84-7.62 15.42-13.09l-6.55-.31q-9.66 5.69-11.83 12zm40.8-13.08l-1.23 2.49q9.64 9.38 12 18.84l3.11-.16q-2.84-13.87-13.87-21.17m11.38 23.5l2.64-.12q.05 16.36-9.66 22l-1.87-2.69q9.33-9.08 8.87-19.19" fill="#fff"/><path d="M268.84 170.27c.62 0 1.25.26 1.25.89s-.64.89-1.25.89-1.27-.24-1.27-.89.64-.89 1.27-.89m0-.66c-1.08 0-1.83.53-1.83 1.55s.76 1.55 1.83 1.55 1.81-.56 1.81-1.55-.73-1.55-1.81-1.55m-.5 4.33a1.29 1.29 0 1 0 0 2.58h2.24v-.63h-2c-.6 0-1-.17-1-.66s.39-.66 1-.66h2v-.63zm-1.26 3.91v.63h1.46v.21c0 .27-.1.35-.36.44l-1.1.38v.71l1.37-.51c.15-.06.35-.16.36-.33a.78.78 0 0 0 .81.65c1 0 .95-.81.95-1.49v-.68zm3 .63v.21c0 .31 0 .67-.46.67s-.49-.36-.49-.67v-.21zm-3.01 4.79v1.86h.56v-1.23h2.95v-.63h-3.51zm.01 2.61v.66l.81.28v1.28l-.81.27v.7l3.51-1.24v-.72zm1.36 2V187l1.45.46zm1.56 2.9v.35a1.21 1.21 0 0 1-2.41 0v-.35zm-3-.63v.85c0 1 .36 1.82 1.76 1.82s1.75-.86 1.75-1.82v-.86zm.07 4.78v.63h1.39l2.12 1.13v-.67l-1.47-.76 1.47-.75v-.74l-2.12 1.16h-1.39zm1.77 5.29c.62 0 1.25.26 1.25.89s-.64.89-1.25.89-1.27-.24-1.27-.89.64-.89 1.27-.89m0-.66c-1.08 0-1.83.53-1.83 1.55s.76 1.55 1.83 1.55 1.81-.56 1.81-1.55-.73-1.55-1.81-1.55m-1.77 4.35v.63h1.54v1.07h.56v-1.07h.86v1.12h.55v-1.75h-3.51zm0 5.44v.63h2.96v.91h.55v-2.45h-.55v.91h-2.96zm0 2.61v.64h1.54v1.26h-1.54v.64h3.51v-.64h-1.41v-1.26h1.41v-.64h-3.51zm0 3.95v1.87h.56v-1.24h.98v1.13h.56v-1.13h.86v1.23h.55v-1.86h-3.51zm0 5.11v1.86h.56v-1.22h2.95v-.64h-3.51zm.01 2.62v.66l.81.28v1.28l-.81.27v.7l3.51-1.24v-.72zm1.36 2v-.93l1.45.46zm-1.37 2.26v.64h1.63l-1.63 1.14v.83l1.86-1.35 1.65 1.3v-.78l-1.5-1.14h1.5v-.64h-3.51zm0 3.69v1.88h.56v-1.24h.98v1.13h.56v-1.13h.86v1.23h.55v-1.87h-3.51zm.01 5.07v.63h1.33v.26c0 .68.3 1.22 1.12 1.22s1.06-.63 1.06-1.32v-.8zm3 .63v.22c0 .33-.14.6-.55.6s-.52-.29-.52-.6v-.22zm-3 1.95v.66l.81.28v1.28l-.81.27v.7l3.51-1.24v-.72zm1.36 2v-.93l1.45.46zm-1.36 2.22v.63h1.46v.21c0 .27-.1.35-.36.44l-1.1.38v.71l1.37-.51c.15-.06.35-.16.36-.34a.78.78 0 0 0 .81.65c1 0 .95-.81.95-1.49v-.68zm3 .63v.21c0 .32 0 .67-.46.67s-.49-.36-.49-.67v-.21zm-3 2.8h3.51v.63h-3.51zm3.44 3.75a2.15 2.15 0 0 0 .13-.75 1 1 0 0 0-1.07-1.11c-1.16 0-.89 1.39-1.56 1.39-.32 0-.45-.32-.45-.56a1.41 1.41 0 0 1 .22-.72l-.63-.06a2.54 2.54 0 0 0-.14.81c0 .64.29 1.19 1.06 1.19 1.18 0 .92-1.38 1.53-1.38a.46.46 0 0 1 .49.5 1.47 1.47 0 0 1-.15.64zm-3.45 1.43v.63h1.54v1.27h-1.54v.63h3.51v-.63h-1.41v-1.27h1.41v-.63h-3.51zM165 253.37a2.17 2.17 0 0 0-.13.76 1 1 0 0 0 1.07 1.1c1.16 0 .89-1.38 1.56-1.38.32 0 .45.32.45.56a1.43 1.43 0 0 1-.22.72l.63.06a2.58 2.58 0 0 0 .14-.81c0-.64-.29-1.19-1.06-1.19-1.18 0-.92 1.38-1.53 1.38a.46.46 0 0 1-.49-.5 1.51 1.51 0 0 1 .15-.64zm3.43-2.2v-.63h-2.96v-.91h-.55v2.45h.55v-.91h2.96zm-.71-2.88h.7v.63h-.7zm.71-3.67v-.63h-1.54v-1.07h-.55v1.07h-.87v-1.13h-.55v1.76h3.51zm0-3.07v-.63H167v-.2c0-.27.1-.35.36-.44l1.1-.38v-.71l-1.37.51c-.16.06-.35.16-.36.34a.78.78 0 0 0-.81-.65c-1 0-.95.81-.95 1.49v.68zm-3-.63v-.21c0-.32 0-.67.46-.67s.49.36.49.67v.21zm3-2.73v-.66l-.8-.28V236l.8-.27V235l-3.51 1.24v.76zm-1.36-2v.93l-1.45-.46zm1.36-2.43v-.61h-2.63v-.01l2.63-1.21v-.77h-3.51v.61h2.62v.01l-2.62 1.2v.78h3.51zm-.64-6.44a1.61 1.61 0 0 1 .15.69 1.11 1.11 0 0 1-1.25 1.07c-.72 0-1.27-.41-1.27-1.06a1.2 1.2 0 0 1 .19-.68h-.59a1.91 1.91 0 0 0-.15.72 1.66 1.66 0 0 0 1.88 1.74 1.59 1.59 0 0 0 1.75-1.74 2.89 2.89 0 0 0-.11-.72zm-2.87-1.94h3.51v.63h-3.51zm.08-3.3a2.18 2.18 0 0 0-.13.76 1 1 0 0 0 1.07 1.1c1.16 0 .89-1.38 1.56-1.38.32 0 .45.32.45.56a1.43 1.43 0 0 1-.22.72l.63.06a2.58 2.58 0 0 0 .14-.81c0-.64-.29-1.19-1.06-1.19-1.18 0-.92 1.38-1.53 1.38a.46.46 0 0 1-.49-.5 1.51 1.51 0 0 1 .15-.64zm.47-4.38v-.35a1.21 1.21 0 0 1 2.4 0v.35zm3 .63v-.86c0-1-.36-1.82-1.76-1.82s-1.75.86-1.75 1.82v.86zm-.04-4.13v-1.88h-.55v1.24h-.99v-1.12h-.55v1.12h-.87v-1.23h-.55v1.87h3.51zm-3.43-7.26a2.17 2.17 0 0 0-.13.75 1 1 0 0 0 1.07 1.11c1.16 0 .89-1.39 1.56-1.39.32 0 .45.32.45.56a1.43 1.43 0 0 1-.22.72l.63.06a2.56 2.56 0 0 0 .14-.81c0-.64-.29-1.19-1.06-1.19-1.18 0-.92 1.38-1.53 1.38a.46.46 0 0 1-.49-.5 1.5 1.5 0 0 1 .15-.64zm3.43-1.3V205l-.8-.28v-1.28l.8-.27v-.7l-3.51 1.24v.72zm-1.36-2v.92l-1.45-.46zm1.36-2.46v-1.87h-.55v1.23h-2.96v.64h3.51zm0-3.14v-1.87h-.55v1.24h-.99v-1.13h-.55v1.13h-.87v-1.23h-.55v1.86h3.51zm-3.43-5.13a2.18 2.18 0 0 0-.13.76 1 1 0 0 0 1.07 1.1c1.16 0 .89-1.39 1.56-1.39.32 0 .45.32.45.56a1.43 1.43 0 0 1-.22.72l.63.06a2.58 2.58 0 0 0 .14-.81c0-.64-.29-1.19-1.06-1.19-1.18 0-.92 1.38-1.53 1.38a.46.46 0 0 1-.49-.5 1.51 1.51 0 0 1 .15-.64zm3.43-3.7v-.63h-1.33v-.27c0-.68-.3-1.22-1.12-1.22s-1.06.63-1.06 1.31v.8zm-3-.63v-.22c0-.32.14-.6.55-.6s.52.29.52.6v.22zm3-2.14v-.66l-.8-.28v-1.28l.8-.27v-.7l-3.51 1.24v.72zm-1.36-2v.92l-1.45-.46zm1.36-2.44v-.63H167v-.2c0-.27.1-.35.36-.44l1.1-.38v-.71l-1.37.51c-.16.06-.35.16-.36.33a.78.78 0 0 0-.81-.65c-1 0-.95.81-.95 1.49v.68zm-3-.63v-.21c0-.32 0-.67.46-.67s.49.36.49.67v.21zm-.51-3.61h3.51v.63h-3.51zm.08-3.3a2.19 2.19 0 0 0-.13.76 1 1 0 0 0 1.07 1.1c1.16 0 .89-1.39 1.56-1.39.32 0 .45.32.45.56a1.43 1.43 0 0 1-.22.72l.63.06a2.57 2.57 0 0 0 .14-.81c0-.64-.29-1.19-1.06-1.19-1.18 0-.92 1.39-1.53 1.39a.46.46 0 0 1-.49-.5 1.51 1.51 0 0 1 .15-.64zm3.43-1.62v-.64h-1.54v-1.26h1.54v-.64h-3.51v.64h1.42v1.26h-1.42v.64h3.51zm8.84-10.73a1.61 1.61 0 0 1-.69.15 1.11 1.11 0 0 1-1.07-1.25 1.12 1.12 0 0 1 1.06-1.27 1.2 1.2 0 0 1 .68.19v-.59a1.93 1.93 0 0 0-.71-.15 1.65 1.65 0 0 0-1.73 1.87 1.59 1.59 0 0 0 1.73 1.75 2.88 2.88 0 0 0 .72-.11zm1.38-1.11c0-.62.26-1.25.88-1.25s.88.63.88 1.25-.24 1.27-.88 1.27-.88-.64-.88-1.27m-.66 0c0 1.08.53 1.82 1.54 1.82s1.54-.76 1.54-1.82-.55-1.8-1.54-1.8-1.54.73-1.54 1.8m4.01 1.75h.63v-1.45h.2c.27 0 .35.1.44.36l.38 1.09h.71l-.51-1.37c-.06-.16-.16-.35-.33-.36a.78.78 0 0 0 .65-.81c0-1-.81-.95-1.49-.95H182zm.63-3h.21c.31 0 .67 0 .67.46s-.36.49-.67.49h-.21zm2.49 3h.63v-1.33h.25c.68 0 1.22-.3 1.22-1.11s-.63-1.06-1.32-1.06h-.8zm.63-3h.25c.33 0 .6.14.6.55s-.28.52-.6.52h-.22zm2.25 1.73a1.29 1.29 0 1 0 2.57 0v-2.24H190v2c0 .6-.17 1-.65 1s-.65-.39-.65-1v-2h-.7zm5.46-2.17a2.19 2.19 0 0 0-.75-.13 1 1 0 0 0-1.1 1.07c0 1.16 1.38.88 1.38 1.55 0 .31-.32.45-.56.45a1.4 1.4 0 0 1-.71-.22l-.06.63a2.55 2.55 0 0 0 .81.14c.64 0 1.19-.29 1.19-1.06 0-1.18-1.38-.92-1.38-1.53a.46.46 0 0 1 .5-.49 1.5 1.5 0 0 1 .64.15zm5.03 2.8a1.61 1.61 0 0 1-.69.15 1.11 1.11 0 0 1-1.07-1.25 1.12 1.12 0 0 1 1.06-1.27 1.21 1.21 0 0 1 .68.19v-.59a1.93 1.93 0 0 0-.71-.15 1.65 1.65 0 0 0-1.73 1.87 1.59 1.59 0 0 0 1.73 1.75 2.86 2.86 0 0 0 .72-.11zm.88.64h.63v-1.54h1.26v1.54h.63v-3.5h-.63v1.41H200v-1.41h-.63v3.5zm3.63 0h.63v-1.45h.2c.27 0 .35.1.44.36l.38 1.09h.7l-.51-1.37c-.06-.16-.16-.35-.33-.36a.78.78 0 0 0 .65-.81c0-1-.81-.95-1.49-.95H203zm.63-3h.21c.31 0 .67 0 .67.46s-.36.49-.67.49h-.21zm2.46-.5h.63v3.5h-.63zm3.44.06a2.2 2.2 0 0 0-.75-.13 1 1 0 0 0-1.1 1.07c0 1.16 1.38.88 1.38 1.55 0 .31-.32.45-.56.45a1.39 1.39 0 0 1-.71-.22l-.06.63a2.56 2.56 0 0 0 .81.14c.64 0 1.18-.29 1.18-1.06 0-1.18-1.38-.92-1.38-1.53a.46.46 0 0 1 .5-.49 1.5 1.5 0 0 1 .64.15zm1.71 3.44h.63v-2.95h.91v-.55h-2.44v.55h.9v2.95zm2.26-3.5h.63v3.5h-.63zm5.58 2.86a1.61 1.61 0 0 1-.69.15 1.11 1.11 0 0 1-1.07-1.25 1.13 1.13 0 0 1 1.06-1.27 1.2 1.2 0 0 1 .68.19v-.59a1.93 1.93 0 0 0-.71-.15 1.65 1.65 0 0 0-1.73 1.87 1.59 1.59 0 0 0 1.73 1.75 2.86 2.86 0 0 0 .72-.11zm.55.64h.66l.28-.8h1.28l.27.8h.7l-1.24-3.5h-.71zm2-1.36h-.92l.45-1.44zm2.18 1.36h.63v-2.95h.9v-.55h-2.43v.55h.9v2.95zm2.31 0h.64v-1.54h1.26v1.54h.63v-3.5h-.63v1.41h-1.26v-1.41h-.64v3.5zm4.15-1.75c0-.62.26-1.25.89-1.25s.88.63.88 1.25-.24 1.27-.88 1.27-.89-.64-.89-1.27m-.66 0c0 1.08.53 1.82 1.55 1.82s1.54-.76 1.54-1.82-.56-1.8-1.54-1.8-1.55.73-1.55 1.8m4.05 1.75h1.86v-.55h-1.23v-2.95h-.63v3.5zm2.59-3.5h.63v3.5h-.63zm3.95 2.86a1.61 1.61 0 0 1-.69.15 1.11 1.11 0 0 1-1.07-1.25 1.12 1.12 0 0 1 1.06-1.27 1.2 1.2 0 0 1 .68.19v-.59a1.93 1.93 0 0 0-.71-.15 1.65 1.65 0 0 0-1.73 1.87 1.59 1.59 0 0 0 1.73 1.75 2.87 2.87 0 0 0 .72-.11zm4.8 0a1.61 1.61 0 0 1-.69.15 1.11 1.11 0 0 1-1.11-1.26 1.12 1.12 0 0 1 1.06-1.27 1.21 1.21 0 0 1 .68.19v-.59a1.92 1.92 0 0 0-.71-.15 1.65 1.65 0 0 0-1.73 1.87 1.59 1.59 0 0 0 1.73 1.75 2.87 2.87 0 0 0 .72-.11zm.84.64h1.87v-.55h-1.24v-.99h1.12v-.55h-1.12v-.86h1.23v-.55h-1.86v3.5zm2.85 0h.61v-2.62h.01l1.2 2.62h.78v-3.5h-.61v2.62h-.01l-1.2-2.62h-.78v3.5zm4.25 0h.63v-2.95h.91v-.55h-2.44v.55h.9v2.95zm2.32 0h1.87v-.55h-1.24v-.99h1.13v-.55h-1.13v-.86h1.23v-.55h-1.86v3.5zm2.83 0h.63v-1.45h.2c.27 0 .35.1.44.36l.38 1.09h.71l-.51-1.37c-.06-.16-.16-.35-.33-.36a.78.78 0 0 0 .65-.81c0-1-.81-.95-1.49-.95h-.68zm.63-3h.21c.31 0 .67 0 .67.46s-.36.49-.67.49h-.21z" fill="#231f20"/><path fill="#006351" d="M72.51 169.57h85.4v85.4h-85.4z"/><path d="M111.13 178.21a18.77 18.77 0 0 0-4.15-6.14c-4.92 4.5-7.78 8-9.66 12.85a4.73 4.73 0 0 0 3.77 1.87c4.93-3.62 7.92-5.73 10-8.58" fill="#fff"/><path d="M121.82 169.42c.14 7.79-1.42 13.48-2.81 19.28-7.7 2.57-14 4.69-19.53 5.93l-3.05-5.58q3.92 1 5.27.5 13.33-12.17 18-20.13zm-3.13 22.24l-.82 5.52a78 78 0 0 0-18.28 3.64l.43-3.49zm10.64 5.63l-1.43-3.17c-.59 2.86-1.29 4.22-1.47 5.1a3.39 3.39 0 0 1 2.44 2.14zm-9.51.8a24.37 24.37 0 0 1 5 .6l1.37-6.06 1.18-17.17q-2-4.8-4-5.42-.29 16.69-3.52 28m10.28-3.47l-2-3.32 1.16-12.77a24.59 24.59 0 0 1 3.15 9.17zm-17.13 5.3q2.78-.36.75 1.25-4.52 3.53-6.17 11.71-.53 2.57-3.65-.25l-2.23-2.6c.41-1.61.82-3.67 2.65-4.92a14 14 0 0 1 8.65-5.19" fill="#fff"/><path d="M105.58 200.49c1.7 0 2.77-.13 0 1.27q-5.42 3.6-5.52 7.79.32 1.86-1.4.87-4.24-3 .62-8.42a55.5 55.5 0 0 1 6.3-1.52m1.53 17.12q6.48 13.6 14.59 13.61c2.32-2.54 3.52-4.63 3.29-8.81l-3 1.88a27.38 27.38 0 0 1-13.11-9.83z" fill="#fff"/><path d="M117.26 233.48c-8-5.87-13.43-13.55-18-21.27-1.74 1.23-2.33 3-2 6q8.71 11.41 16.24 14.59zm-17.58-8.79l-4-5a19.57 19.57 0 0 1-.61-6.65c-2.3 1.95-6.06 7.6-6.54 10.43zm28.56-22.13c-1-2.09-3.74-2.88-10.07-2.81q-5.77 2.14-8.82 12 3.14 6.92 12.71 9.57c1.86-.45 1.34-7.15 1.34-7.15l2.55-.68-1-7.66c.36-2 1.71-3.27 3.28-3.23m-7.64 2.61q-1.24-1.69-4.8-1.44a6.73 6.73 0 0 1 2.4-1.12 5.77 5.77 0 0 1 2.48.16 2.23 2.23 0 0 1 1 1.6v.8a3 3 0 0 1-2.48 1.2 5 5 0 0 1-2.48-.56z" fill="#fff"/><path d="M128.91 206.15q-.5-3.21-3.12-.1zm-.09 1.37l-2 .41-.16 3.27q2.86-1.81 2.2-3.68m-24.69 22.69l-18.5.61 3.68-5.21 12.68 1.94 2.14 2.66zm22.29 22.7l-29.13-11.76-1.95 1.94 4.7 11.86 27.82.11-1.44-2.15zm12.07 0c-1.79-1.63-7.18-1.56-8.79.41v1.74l8.18-.1zm17.38-13.7l-1.53-2.14-12.78 13.8-1.43 4.13h10.43a154.63 154.63 0 0 0 5.32-15.75m-4.1-1.68l-12.68 11.35a9.52 9.52 0 0 0-4.6-1.43c.31-3 5.32-7.36 9.51-8.59a16.55 16.55 0 0 0 5.52-4zm-21.06 10.23l-4.29 1.43-25.77-8.08 3.27-2.66a53 53 0 0 0 15.13 4.29c8.39.25 10.33 3.17 11.66 5m-7.36-6.53l-.41-5.11c2-1.91 2.58-5.8 3.07-7.57 4.7 2.66 8.19 6.25 9.61 10.43l-5.32 2.25zm-3.68-4.91l1.73 4.91-8.48-2.25.2-3.47 6.55.81z" fill="#fff"/><path d="M109.18 233.38l.92 4.2-9.51-.92A81 81 0 0 1 78 243.5q1.35-5 6.85-11.25 19-.33 24.33 1.12m-21.57 10.54l9.1 11H78.82c-2-2.45-2.14-5.9-1.23-9.2zm61.55-47.44l-8.39 40.9-1.23.41 1-10-2.66-5.93c2.33-10.78 7-22.44 9-24.33zm.21 8.79c.67 10.11-1.78 19.85-4.91 20.65zM144.46 230q6.74 0 3.07 3.88-3.33 3.73-4.91 1.84z" fill="#fff"/><path d="M139.14 230.21q-4.49-4.31-4.7 2 1.42 5.46 4.09 3.48z" fill="#fff"/><path fill="#342a7a" d="M174.97 67.78h85.51v85.3h-85.51z"/><g clip-path="url(#d)" fill="#fff"><path d="M181.36 79.3a13.51 13.51 0 0 1 5-4.17c2.06 6.3 7.23 10.83 15.83 13.74l.69 1.5.85 2.28c-3.64 2.62-10.76 3.9-16.22 2.34a10.67 10.67 0 0 1-5.36-3.26c-1.48-5-2.21-9.78-.76-12.44m7.55 9.76a2.59 2.59 0 1 0 5-1.24c-.39-1.55-2.23-3.7-3.61-3.36s-1.78 3-1.39 4.6m15.17 4.61l4.75 12.78a3.49 3.49 0 0 1-2 1.73l-6.45-12.4a25.52 25.52 0 0 0 3.73-2.11m-4.87 2.6l5.11 13.46c.24.83-2.24 2.5-2.74 2l-6.33-14.18a26.78 26.78 0 0 0 4-1.25m-4.8 1.43l3.49 13.71c.06.35-2.61 1-2.84.52l-5.38-13.72a29.28 29.28 0 0 0 4.59-.54m-5.94.56l3.5 11.28a2.15 2.15 0 0 1-2.65-.43s-2.65-5.06-5-11.15a31.44 31.44 0 0 0 4.18.3m11.82-13.42V85c-7.71-3.26-11.17-5.56-12.5-10.46a31.66 31.66 0 0 1 5.37-1.54c2.54-.31 6.62 3.2 8.5 5.27l7.79 12.36c-.42.57-.65 1.44-1.19 1.49-1 .1-2.69-1.4-5.34-4.11zm-18.73-55.77l11 41.7a20.71 20.71 0 0 0-11.64 6.53l-16.35-35.46zm47.01 94.88l1 1.33c-1.61 8.91-.15 15.62 4.38 20.48a13.55 13.55 0 0 1-6.06 2.31c-3 0-6.89-3-10.54-6.69a10.61 10.61 0 0 1-.26-6.25c1.27-5.52 5.85-11.12 9.92-13zM239 140.8a31.58 31.58 0 0 1-3.87 4c-3.65-3.53-4-7.66-3.11-16h.1l-1.49-3.8c-1.1-3.63-1.6-5.8-1-6.65.31-.45 1.17-.23 1.88-.32l7.06 12.79c.9 2.64 2 7.9.49 10m-20.44-13.69l-9.37-12.4c-.22-.69 2.44-2.05 3.05-1.44l9.32 11a26.8 26.8 0 0 0-3 2.85m4-3.61l-7.74-11.64a3.48 3.48 0 0 1 2.5-.94l8.9 10.34a25.51 25.51 0 0 0-3.66 2.23m-9.7 13c-4.19-5-7.34-9.8-7.34-9.8a2.14 2.14 0 0 1 .91-2.52l8.2 8.52.07-.13c.19-.35.39-.7.6-1l-9.41-11.35c-.27-.41 1.56-2.45 1.84-2.22l10.21 9.74a29.14 29.14 0 0 0-2.7 3.74c-.21.34-.41.69-.6 1l-.07.13a31.42 31.42 0 0 0-1.76 3.79M272 172.25l-31.22-29.85a20.72 20.72 0 0 1-11.37 7l23.15 31.49zm-29.39-71.65c.58 8.19 5.78 12.64 11.91 15.25a11.42 11.42 0 0 1-4.47 3.79c-2.74.92-7.24-1.88-12.53-3.33-2-1.16-2.19-2.08-2.66-4-1.19-5 .55-11 3.4-13.83zm14.39 9.58a23.61 23.61 0 0 1-1.79 4.49c-4.78-1.79-6.7-5.12-9.43-12.25l-1.37-3.19c-2.64-1.48-4.24-3.23-4.13-4.12a2 2 0 0 1 .8-1.54 26 26 0 0 0 5.84 3.17c1.49 1.66 2.52 3.52 5.44 5.33 1.93 1.91 5.14 5.91 4.67 8.09m-24.18-5a22.52 22.52 0 0 0-6.41-3.44c-1.6-2.37-3.59-3.45-5.15-4.78-.49-.5.55-2.37 1.36-2.05l5.41 4 6.3 3a20.31 20.31 0 0 0-1.5 3.28m2.07-4.22c-1.05-1.41-2.72-2.24-4.75-3.31-1.21-2.15-2.81-3.35-4.41-4.83-.17-.05.67-1.26 1.53-1.33l5 3.81 5 2.68a20.15 20.15 0 0 0-2.35 3m-2.66 13.35a15.6 15.6 0 0 0-5.61-2.18 37.33 37.33 0 0 0-5.48-3.62 1.75 1.75 0 0 1-.5-2.32l5.69 2.85 5.48 1.61a24.3 24.3 0 0 0 .41 3.66m-.49-4.5a17.59 17.59 0 0 0-6-3.14 25.45 25.45 0 0 0-6.41-4.49c-.42-.25.52-2.35 1.35-1.93l5.42 3.25 6.47 2.39a21.92 21.92 0 0 0-.84 3.92M300 126c-25.31-6.69-38.06-11-41-13.56-1.26 4.14-2.83 6.83-6.24 9 13.93 7 19.33 12.56 32.49 20.9zm-98.36 11v.44c-5.36 4-7.61 6.25-7.85 11.24a9 9 0 0 1-4.37-1.53 5.77 5.77 0 0 1-2.09-7.45c.61-1.43 1.54-1.81 2.9-2.71 3.46-2.31 8.43-1.47 11.43-.36zm-2.46 11.48a21.17 21.17 0 0 1-4 .12c0-3.82 1.73-5 6.41-9v.08l1.2-2.88c1.31-2.53 1.81-2.32 2.53-2.47.38-.08.7.49 1.1.82l-2.67 9c-.44 1.77-.59 3.64-4.65 4.37m-4.27-14.22l1.6-10.08c.24-.49 2.26.17 2.25.83l-.89 9.3a18 18 0 0 0-3 0m3.88 0l2.36-8a2.37 2.37 0 0 1 1.68.9l-1.12 8a17.15 17.15 0 0 0-2.91-.88M187.21 137a55.78 55.78 0 0 1 .25-7.41 1.57 1.57 0 0 1 1.63-1.09l.79 7a22.58 22.58 0 0 0-2.68 1.47m3.81-1.88l.52-9.8c0-.37 2-.65 2-.38l.66 9.35a20.2 20.2 0 0 0-3.21.84m9.17 22.98l.93-8.27c-3.66 1.09-9.68.73-12.31-1l-1 6.56z"/></g><path d="M175 65.84q-.58.51-1.13 1v-1zm63.53 0A36.29 36.29 0 0 1 243.8 73c3.69 6.3 6.79 14.51 7.22 22.22l-2.44-1.13-2.41-.51a45.46 45.46 0 0 0-2.85-13.26c-2.44-5.8-6.42-10.4-11-14.52zm-65.1 64c3.05 2.91 7 4.46 10.78 6.37l-.67 2.18.16 2.5a46.7 46.7 0 0 1-9.83-5.9zm70.72-8.91a23.63 23.63 0 0 1-3.39 6.44 15.16 15.16 0 0 0-3-3.48c1.55-1.49 2.58-1.76 3.46-3.26.92-.46 2.81-.15 2.92.31m-29 21.79a18.06 18.06 0 0 1-9.1 2.51 4.69 4.69 0 0 0 .51-2.23 15.25 15.25 0 0 0-.12-2.29 26.07 26.07 0 0 0 7.29-.24 25.48 25.48 0 0 0 1.42 2.26" fill="#fff"/><path fill="#b73536" d="M260.37 270.86v84.57h-85.4v-84.57"/><path d="M205.62 359.12l-14.35-33.79-8.14 3.41-5.28-1.27 37.36-36.24L264 322l-6 4.28-9.41-4.86-.85 29.58zm-7.77-39.69l19.22-17.82 21.68 15 2.86 31.19-29.36 5.87z" fill="#fff" fill-rule="evenodd"/><path d="M215.14 350.37a51.72 51.72 0 0 1-9.68-17.59c-.5-1.42-.75-2.23-1.15-3.68a2.86 2.86 0 0 1 1.63-4 2.83 2.83 0 0 1 3.53 1.91l2.27 6.25-.64-12.48c-.32-2.23-.72-4.18 1.12-5 2.13-.9 3.56 1.59 4 4.32l1.44 10.7 1-15.34c0-2.13 5.26-2.44 5.51-.32a2.34 2.34 0 0 1 0 .64l-.64 14.7 3.37-14.7a3 3 0 0 1 4.52-.64 2.54 2.54 0 0 1 .83 2.23l-2.75 13.43 4.68-11.65a2.41 2.41 0 0 1 3.72.64 2 2 0 0 1 .16 1.27l-3.24 12.32c-1.28 7.21-4 16-5.8 16.8-4.9 2.28-9.17 2.79-13.88.15m.46-52.76l-2.91-13.44-5.7 2.14-2.27-5.54 7.12-2.03v-9.16l5.28.21-.11 7.47 7.3-1.3 1.84 3.09-9.03 3.41 1.28 15.36-2.8-.21z" fill="#fff"/><path d="M177.19 261.86a.73.73 0 0 0-.64.32 1.53 1.53 0 0 0-.23.89q0 1.19.86 1.19a2.65 2.65 0 0 0 .88-.19v.63a2.36 2.36 0 0 1-.95.18 1.42 1.42 0 0 1-1.15-.47 2 2 0 0 1-.4-1.35 2.28 2.28 0 0 1 .2-1 1.44 1.44 0 0 1 .56-.64 1.61 1.61 0 0 1 .86-.22 2.24 2.24 0 0 1 1 .25l-.24.61-.39-.17a1.13 1.13 0 0 0-.36-.03zm4.72 1.2a2 2 0 0 1-.42 1.36 1.79 1.79 0 0 1-2.43 0 2 2 0 0 1-.42-1.37 2 2 0 0 1 .42-1.36 1.56 1.56 0 0 1 1.22-.47 1.54 1.54 0 0 1 1.21.47 2 2 0 0 1 .42 1.37zm-2.51 0a1.53 1.53 0 0 0 .22.9.75.75 0 0 0 .65.3q.87 0 .87-1.2t-.87-1.2a.76.76 0 0 0-.66.3 1.52 1.52 0 0 0-.21.9zm3.94.42v1.37h-.73v-3.56h1a1.67 1.67 0 0 1 1 .26 1.08 1.08 0 0 1 .17 1.36 1.11 1.11 0 0 1-.47.38l1 1.55h-.81l-.82-1.37zm0-.61h.24a.87.87 0 0 0 .51-.12.43.43 0 0 0 .16-.38.39.39 0 0 0-.17-.36 1 1 0 0 0-.52-.11h-.22zm4.81-.48a1.11 1.11 0 0 1-.35.88 1.45 1.45 0 0 1-1 .3h-.31v1.27h-.73v-3.56h1.1a1.42 1.42 0 0 1 1 .28 1 1 0 0 1 .29.83zm-1.65.57h.24a.78.78 0 0 0 .5-.14.49.49 0 0 0 .17-.4.51.51 0 0 0-.14-.39.64.64 0 0 0-.44-.13h-.33zm5.08-1.68v2.31a1.37 1.37 0 0 1-.17.69 1.13 1.13 0 0 1-.49.46 1.71 1.71 0 0 1-.76.16 1.43 1.43 0 0 1-1-.35 1.27 1.27 0 0 1-.37-1v-2.3h.73v2.18a.94.94 0 0 0 .16.61.65.65 0 0 0 .53.19.64.64 0 0 0 .52-.19.94.94 0 0 0 .16-.61v-2.18zm2.86 2.57a.93.93 0 0 1-.34.76 1.42 1.42 0 0 1-.93.28 2.12 2.12 0 0 1-1-.21V264a3.91 3.91 0 0 0 .59.23 1.68 1.68 0 0 0 .44.07.61.61 0 0 0 .37-.1.33.33 0 0 0 .13-.28.32.32 0 0 0-.06-.19.63.63 0 0 0-.17-.16 4.16 4.16 0 0 0-.45-.24 2.12 2.12 0 0 1-.47-.3 1.11 1.11 0 0 1-.25-.33 1 1 0 0 1-.09-.44.94.94 0 0 1 .31-.74 1.26 1.26 0 0 1 .86-.27 2 2 0 0 1 .51.07 3.41 3.41 0 0 1 .51.19l-.24.59a3.54 3.54 0 0 0-.46-.16 1.45 1.45 0 0 0-.35 0 .46.46 0 0 0-.32.1.36.36 0 0 0-.07.44.51.51 0 0 0 .14.14 4.39 4.39 0 0 0 .46.25 1.86 1.86 0 0 1 .66.48 1 1 0 0 1 .22.5zm3.31-1.99a.73.73 0 0 0-.64.32 1.53 1.53 0 0 0-.23.89q0 1.19.86 1.19a2.65 2.65 0 0 0 .88-.19v.63a2.36 2.36 0 0 1-.95.18 1.42 1.42 0 0 1-1.15-.47 2 2 0 0 1-.4-1.35 2.28 2.28 0 0 1 .2-1 1.44 1.44 0 0 1 .56-.64 1.61 1.61 0 0 1 .86-.22 2.24 2.24 0 0 1 1 .25l-.24.61-.39-.17a1.13 1.13 0 0 0-.36-.03zm4.41 2.98h-.73v-1.54h-1.36v1.54h-.73v-3.56h.73v1.4h1.36v-1.4h.73zm1.59-1.36v1.37H203v-3.56h1a1.67 1.67 0 0 1 1 .26 1.08 1.08 0 0 1 .17 1.36 1.11 1.11 0 0 1-.47.38l1 1.55h-.7l-.82-1.37zm0-.61h.25a.87.87 0 0 0 .51-.12.43.43 0 0 0 .16-.38.39.39 0 0 0-.17-.36 1 1 0 0 0-.52-.11h-.22zm2.43 1.97v-3.56h.73v3.56zm3.61-.99a.93.93 0 0 1-.34.76 1.42 1.42 0 0 1-.93.28 2.12 2.12 0 0 1-1-.21V264a3.91 3.91 0 0 0 .59.23 1.68 1.68 0 0 0 .44.07.61.61 0 0 0 .37-.1.33.33 0 0 0 .13-.28.32.32 0 0 0-.06-.19.63.63 0 0 0-.17-.16 4.14 4.14 0 0 0-.45-.24 2.12 2.12 0 0 1-.47-.3 1.11 1.11 0 0 1-.25-.33 1 1 0 0 1-.09-.44.93.93 0 0 1 .31-.74 1.26 1.26 0 0 1 .86-.27 2 2 0 0 1 .51.07 3.41 3.41 0 0 1 .51.19l-.24.59a3.55 3.55 0 0 0-.46-.16 1.45 1.45 0 0 0-.35 0 .46.46 0 0 0-.32.1.36.36 0 0 0-.07.44.51.51 0 0 0 .14.14 4.37 4.37 0 0 0 .46.25 1.86 1.86 0 0 1 .66.48 1 1 0 0 1 .22.5zm1.94.99H211v-2.94h-.93v-.63h2.6v.63h-.93zm1.45 0v-3.56h.73v3.56zm4.28-2.98a.73.73 0 0 0-.64.32 1.53 1.53 0 0 0-.23.89q0 1.19.86 1.19a2.65 2.65 0 0 0 .88-.19v.63a2.36 2.36 0 0 1-.95.18 1.42 1.42 0 0 1-1.15-.47 2 2 0 0 1-.4-1.35 2.28 2.28 0 0 1 .2-1 1.44 1.44 0 0 1 .56-.64 1.62 1.62 0 0 1 .86-.22 2.24 2.24 0 0 1 1 .25l-.24.61-.39-.17a1.13 1.13 0 0 0-.36-.03zm3.7 2.98l-.25-.85h-1.25l-.25.85h-.79l1.21-3.58h.89l1.22 3.58zm-.42-1.48l-.39-1.3c0-.1 0-.18-.06-.24q-.08.31-.44 1.54zm2.95 1.48H223v-2.94h-1v-.63h2.6v.63h-.93zm4.31 0h-.73v-1.54h-1.36v1.54h-.73v-3.56h.73v1.4h1.36v-1.4h.73zm3.93-1.78a2 2 0 0 1-.42 1.36 1.79 1.79 0 0 1-2.43 0 2 2 0 0 1-.42-1.37 2 2 0 0 1 .42-1.36 1.56 1.56 0 0 1 1.22-.47 1.53 1.53 0 0 1 1.21.47 2 2 0 0 1 .42 1.37zm-2.51 0a1.52 1.52 0 0 0 .22.9.75.75 0 0 0 .65.3q.87 0 .87-1.2t-.87-1.2a.76.76 0 0 0-.66.3 1.52 1.52 0 0 0-.21.9zm3.21 1.78v-3.56h.73v2.94h1.4v.62zm2.71 0v-3.56h.73v3.56zm3.04-2.98a.73.73 0 0 0-.64.32 1.53 1.53 0 0 0-.23.89q0 1.19.86 1.19a2.65 2.65 0 0 0 .88-.19v.63a2.36 2.36 0 0 1-.95.18 1.42 1.42 0 0 1-1.15-.47 2 2 0 0 1-.4-1.35 2.27 2.27 0 0 1 .2-1 1.44 1.44 0 0 1 .56-.64 1.62 1.62 0 0 1 .86-.22 2.24 2.24 0 0 1 1 .25l-.24.61-.39-.17a1.13 1.13 0 0 0-.36-.03zm4.86 1.99a.93.93 0 0 1-.34.76 1.42 1.42 0 0 1-.93.28 2.12 2.12 0 0 1-1-.21V264a3.91 3.91 0 0 0 .59.23 1.69 1.69 0 0 0 .44.07.61.61 0 0 0 .37-.1.33.33 0 0 0 .13-.28.32.32 0 0 0-.06-.19.62.62 0 0 0-.17-.16 4.09 4.09 0 0 0-.45-.24 2.11 2.11 0 0 1-.47-.3 1.1 1.1 0 0 1-.25-.33 1 1 0 0 1-.09-.44.94.94 0 0 1 .31-.74 1.25 1.25 0 0 1 .86-.27 2 2 0 0 1 .51.07 3.43 3.43 0 0 1 .51.19l-.24.59a3.55 3.55 0 0 0-.46-.16 1.43 1.43 0 0 0-.35 0 .46.46 0 0 0-.32.1.33.33 0 0 0-.11.26.34.34 0 0 0 0 .17.51.51 0 0 0 .14.14 4.41 4.41 0 0 0 .46.25 1.85 1.85 0 0 1 .66.48 1 1 0 0 1 .26.51zm2.07-1.99a.73.73 0 0 0-.64.32 1.53 1.53 0 0 0-.23.89q0 1.19.86 1.19a2.65 2.65 0 0 0 .88-.19v.63a2.36 2.36 0 0 1-.95.18 1.42 1.42 0 0 1-1.15-.47 2 2 0 0 1-.4-1.35 2.27 2.27 0 0 1 .2-1 1.44 1.44 0 0 1 .56-.64 1.62 1.62 0 0 1 .86-.22 2.24 2.24 0 0 1 1 .25l-.24.61-.39-.17a1.13 1.13 0 0 0-.36-.03zm4.42 2.98H249v-1.54h-1.36v1.54h-.73v-3.56h.73v1.4H249v-1.4h.73zm3.97-1.78a2 2 0 0 1-.42 1.36 1.79 1.79 0 0 1-2.43 0 2 2 0 0 1-.42-1.37 2 2 0 0 1 .42-1.36 1.56 1.56 0 0 1 1.22-.47 1.53 1.53 0 0 1 1.21.47 2 2 0 0 1 .42 1.37zm-2.51 0a1.52 1.52 0 0 0 .22.9.75.75 0 0 0 .65.3q.87 0 .87-1.2t-.87-1.2a.76.76 0 0 0-.66.3 1.52 1.52 0 0 0-.21.9zm6.33 0a2 2 0 0 1-.42 1.36 1.79 1.79 0 0 1-2.43 0 2 2 0 0 1-.42-1.37 2 2 0 0 1 .42-1.36 1.56 1.56 0 0 1 1.22-.47 1.53 1.53 0 0 1 1.21.47 2 2 0 0 1 .42 1.37zm-2.51 0a1.52 1.52 0 0 0 .22.9.75.75 0 0 0 .65.3q.87 0 .87-1.2t-.87-1.2a.76.76 0 0 0-.66.3 1.52 1.52 0 0 0-.22.9zm3.21 1.78v-3.56h.78v2.94h1.4v.62z" fill="#231f20"/></svg>