<svg data-name="Layer 1" xmlns="http://www.w3.org/2000/svg" viewBox="0 0 75.1 85.54"><defs><style>.cls-1{fill:#404040}</style></defs><title>logo-saint-2</title><path class="cls-1" d="M29.6 31.62q2-2.57 4.69.32a4 4 0 0 1-4.69-.32"/><path class="cls-1" d="M30.23 27.56q.63-3.77 5.91-5.91a31.64 31.64 0 0 0 6.39 6.23 5.37 5.37 0 0 1 2 4.22q.55 7.92-2.2 11.35a15.92 15.92 0 0 1-6.55 3.74l-.16-15.26q.65-3.57-5.44-4.37m8.28 4.69a3.23 3.23 0 0 0 4.18-.16z"/><path class="cls-1" d="M28.54 33.19l6.07.75-.16 8.9a9.71 9.71 0 0 1-5.91-9.66m-5.32-5.46a27.14 27.14 0 0 1 9.5-6.23Q37.78 20 38.67 16c-6-2.4-12.18 1.7-15.45 11.67M37.88 21c1.11-2.82 1.93-4 2.8-3.43q4.75 2.65 6.07 10.13a14.07 14.07 0 0 1-8.87-6.7M22.47 32.25L26.65 29l.47 7.93 2.17 7.18q-5.34 0-7.14-7.46zm23.97 0q1.19 1.14.63 6.07h-1.42l-.44-1.54q.22-3.55 1.22-4.53M44 48.76l2-6.54q1.09-2.26 1.73.32A110.83 110.83 0 0 0 59 67.92q2.27 3-.75 2a30.12 30.12 0 0 1-11.03-4.32A54.44 54.44 0 0 1 44 48.76"/><path class="cls-1" d="M20.42 41.27q11.84 12.34 21.2 12.46l1.38 9.5a58.61 58.61 0 0 1-21.48-12.61z"/><path class="cls-1" d="M16.67 53.89l2.2-3.43q12.58 11.72 26 15.89L44.58 69l-11.07 4.36-7.77-5.6zm-1.38 1.89A79.16 79.16 0 0 0 27.75 75.1l-3.12 1.54-10.91-2.17-7.61-3.75-.16-2.49q3.32-10.32 9.34-12.46M2.83 73.21l11.51 5.32Q9.13 83.81 0 83.5q.3-7.64 2.83-10.29m46.88-3.28a72.49 72.49 0 0 0 17.15 6.7 18.55 18.55 0 0 1 8.24 8.91H64.21q-7.41-1-11.39-5zM5.95 85.38Q40.51 73 46 69.93l.32 3.59q-10.54 5.56-31.77 12zM18.72 7.93l6.07-3.86 4.34 8.4a7.36 7.36 0 0 0-4.18 3zm10.13-4.5l1.86 8.24L36 11.2l1.73-9.34q-8.4-1-8.87 1.57m11.03-1.1L38.82 11l3.11.94 3.11-8.71q-3.26-2.2-5.16-.95M44 12.77l3.7-7.64a19.2 19.2 0 0 1 9.81 9.34l-8 5q-2.67-5.4-5.6-6.7m6.59 8.4l9.34-3.74 1.57 5.47-11.07.91.16-2.64zm1.53 4.22l10.14.16-.76 5.59-10.28-1.54.9-4.21zm.63 7.61h7.65l-1.85 3.27q-5.72-1-5.79-3.27m.15 3.31l4.53 1.54a9.78 9.78 0 0 1-3.11 4.53zm-36.9-26.02L23.53 17a14.78 14.78 0 0 0-3.74 6.54l-8.08-1.26q.75-7.6 4.22-12m-4.07 14.48a20.29 20.29 0 0 1 7.33.63v4.37l-7.19.32q-1-3.77-.16-5.32m1.72 8.12q2 5.2 5 6.23l.47-8z"/><path class="cls-1" d="M6.39 16.52l3.43 1.23q-3.14 17.58 9.06 25L17.15 47Q1.83 35.49 6.39 16.52m5.32-3.12Q14.54 5.78 27.12.32L20.58 0Q10.91 5.69 8.75 12zM52.51.32L51.28 2.8q9.64 9.38 12 18.84l3.11-.16Q63.54 7.62 52.51.32M63.9 23.81l2.64-.12q.05 16.36-9.66 22L55 43q9.33-9.08 8.87-19.19"/></svg>