<svg data-name="Layer 1" xmlns="http://www.w3.org/2000/svg" viewBox="0 0 86.17 89.58"><defs><style>.cls-1,.cls-2{fill:#404040}.cls-1{fill-rule:evenodd}</style></defs><title>logo-hand</title><path class="cls-1" d="M27.77 89.58L13.42 55.8l-8.14 3.4L0 57.93l37.36-36.24 48.81 30.8-6 4.28-9.41-4.86-.86 29.57zM20 49.89l19.22-17.82 21.68 15 2.86 31.19-29.36 5.85z"/><path class="cls-2" d="M37.29 80.84a51.72 51.72 0 0 1-9.68-17.59c-.5-1.42-.75-2.23-1.15-3.68a2.86 2.86 0 0 1 1.63-4 2.83 2.83 0 0 1 3.53 1.91l2.27 6.26-.64-12.48c-.32-2.23-.72-4.18 1.12-5 2.13-.9 3.56 1.59 4 4.32l1.44 10.7 1-15.34c0-2.13 5.26-2.44 5.51-.32a2.34 2.34 0 0 1 0 .64L45.69 61l3.37-14.7a3 3 0 0 1 4.52-.64 2.54 2.54 0 0 1 .83 2.23l-2.76 13.43 4.68-11.65a2.41 2.41 0 0 1 3.72.64 2 2 0 0 1 .16 1.27L57 63.88c-1.28 7.21-4 16-5.8 16.8-4.9 2.28-9.17 2.79-13.89.15m.44-52.8L34.84 14.6l-5.7 2.13-2.26-5.54 7.11-2.03V0l5.28.21-.11 7.47 7.31-1.29 1.84 3.09-9.04 3.4 1.28 15.37-2.8-.22z"/></svg>