<svg data-name="Layer 1" xmlns="http://www.w3.org/2000/svg" viewBox="0 0 78.87 85.63"><defs><style>.cls-1{fill:#404040}</style></defs><title>logo-saint-1</title><path class="cls-1" d="M34.09 8.79a18.77 18.77 0 0 0-4.15-6.14c-4.92 4.5-7.78 8-9.66 12.85a4.73 4.73 0 0 0 3.77 1.87c4.93-3.62 7.92-5.73 10-8.58"/><path class="cls-1" d="M44.78 0c.14 7.79-1.42 13.48-2.82 19.28-7.7 2.57-14 4.69-19.53 5.93l-3.05-5.58q3.92 1 5.27.5Q38 8 42.66 0zm-3.12 22.24l-.82 5.52a78 78 0 0 0-18.28 3.64l.44-3.48zm10.63 5.63l-1.43-3.17c-.59 2.86-1.29 4.22-1.47 5.1a3.39 3.39 0 0 1 2.44 2.14zm-9.51.8a24.37 24.37 0 0 1 5 .6l1.37-6.06L50.32 6q-2-4.8-4-5.42-.29 16.69-3.52 28m10.3-3.43l-2-3.32 1.12-12.76a24.59 24.59 0 0 1 3.15 9.17zM36 30.45q2.78-.36.75 1.25-4.52 3.53-6.17 11.71-.58 2.59-3.66-.25l-2.23-2.6c.41-1.61.82-3.67 2.65-4.92A14 14 0 0 1 36 30.45"/><path class="cls-1" d="M28.55 31.07c1.7 0 2.77-.13 0 1.27q-5.42 3.6-5.52 7.79.32 1.86-1.4.87-4.24-3 .62-8.42a55.5 55.5 0 0 1 6.3-1.52m1.52 17.12q6.48 13.6 14.59 13.61c2.34-2.54 3.52-4.63 3.29-8.79l-3 1.88A27.38 27.38 0 0 1 31.82 45z"/><path class="cls-1" d="M40.22 64.06c-8-5.87-13.43-13.55-18-21.27-1.74 1.23-2.33 3-2 6Q29 60.24 36.49 63.41zm-17.58-8.79l-4-5a19.57 19.57 0 0 1-.64-6.66c-2.26 1.95-6 7.6-6.51 10.39zM51.2 33.14c-1-2.09-3.74-2.88-10.07-2.81q-5.77 2.14-8.82 12Q35.45 49.2 45 51.85c1.86-.45 1.34-7.15 1.34-7.15l2.58-.7-1-7.66c.36-2 1.71-3.27 3.28-3.23m-7.64 2.61q-1.24-1.69-4.8-1.44a6.73 6.73 0 0 1 2.4-1.12 5.77 5.77 0 0 1 2.48.16 2.23 2.23 0 0 1 1 1.6v.8a3 3 0 0 1-2.48 1.2 5 5 0 0 1-2.48-.56z"/><path class="cls-1" d="M51.87 36.73q-.5-3.21-3.12-.1zm-.08 1.37l-2 .41-.16 3.27q2.86-1.81 2.2-3.68M27.14 60.79l-18.51.61 3.68-5.21 12.68 1.94 2.15 2.66zm22.29 22.7L20.29 71.73l-1.95 1.94 4.71 11.86 27.81.11-1.43-2.15zm12.06 0c-1.8-1.63-7.18-1.57-8.79.41v1.74l8.18-.1zm17.38-13.7l-1.53-2.14-12.78 13.79-1.43 4.09h10.43a154.62 154.62 0 0 0 5.32-15.75m-4.1-1.63L62.1 79.5a9.52 9.52 0 0 0-4.6-1.43c.31-3 5.32-7.36 9.51-8.59a16.55 16.55 0 0 0 5.52-4zM53.72 78.38l-4.29 1.43-25.77-8.08 3.27-2.66a53 53 0 0 0 15.13 4.29c8.39.25 10.33 3.17 11.66 5m-7.36-6.53L46 66.72c2-1.91 2.58-5.8 3.07-7.57 4.7 2.66 8.19 6.25 9.61 10.43l-5.32 2.25zm-3.68-4.91l1.74 4.91-8.49-2.25.2-3.47 6.55.81z"/><path class="cls-1" d="M32.15 64l.92 4.19-9.51-.92A81 81 0 0 1 1 74.08q1.35-5 6.85-11.25 19-.33 24.33 1.12M10.57 74.49l9.1 11H1.78c-2-2.45-2.14-5.9-1.23-9.2zM72.13 27l-8.38 40.9-1.23.41 1-10-2.66-5.93c2.33-10.78 7-22.44 9-24.33zm.2 8.84C73 45.95 70.55 55.7 67.42 56.5zm-4.91 24.75q6.74 0 3.07 3.88-3.33 3.73-4.91 1.84z"/><path class="cls-1" d="M62.1 60.79q-4.49-4.31-4.7 2 1.42 5.46 4.09 3.48z"/></svg>