<svg xmlns="http://www.w3.org/2000/svg" viewBox="0 0 60 60" width="512" height="512"><path d="M13 0c-1.5 0-3 0.7-4.1 1.8C7.9 3 7.4 4.5 7.5 6H7.5v49C7.5 57.7 9.8 60 12.5 60H52.5V11 9 0H13zM9.5 55V10c0.8 0.6 1.9 1 3 1v47C10.8 58 9.5 56.6 9.5 55zM50.5 58h-36V11h3v25.2c0 0.7 0.4 1.3 1.1 1.4 0.1 0 0.3 0.1 0.4 0.1 0 0 0 0 0 0 0 0 0.1 0 0.1 0 0.1 0 0.2 0 0.3-0.1 0 0 0.1 0 0.1-0.1 0.1 0 0.2-0.1 0.3-0.2 0 0 0.1 0 0.1-0.1 0.1-0.1 0.2-0.2 0.3-0.3l4.2-7 4.2 7c0.3 0.5 0.9 0.8 1.6 0.7 0 0 0.1 0 0.1 0 0.7-0.2 1.1-0.8 1.1-1.4V11h19V58zM29.6 9.5l0 0L29.5 9.8v0l-0.1 0.2 0.1 0.2v0.1V34.4l-5-8.3 -5 8.3V10.2L21.1 7h9.8L29.6 9.5zM32.1 9l2-4H19.9l-2 4h-4.7c-1.9 0-3.5-1.4-3.7-3.1 -0.1-1 0.2-2 0.9-2.7C11.1 2.4 12 2 13 2h37.5v1h-5c-0.6 0-1 0.4-1 1s0.4 1 1 1h5v1h-4c-0.6 0-1 0.4-1 1s0.4 1 1 1h4v1H32.1z" fill="#37591d"/></svg>
