<svg xmlns="http://www.w3.org/2000/svg" viewBox="0 0 60 60" width="512" height="512"><path d="M46.7 25l10.6-15.4c0.2-0.3 0.2-0.7 0.1-1C57.2 8.2 56.9 8 56.5 8h-30V4c0-0.6-0.4-1-1-1h-21V1c0-0.6-0.4-1-1-1s-1 0.4-1 1v3 29 26c0 0.6 0.4 1 1 1s1-0.4 1-1V34h11c-0.6 0.8-1 1.9-1 3 0 2.8 2.2 5 5 5h37c0.4 0 0.7-0.2 0.9-0.5 0.2-0.3 0.1-0.7-0.1-1L46.7 25zM4.5 5h20v4 23h-5 -15V5zM19.5 40c-1.7 0-3-1.3-3-3s1.3-3 3-3h6c0.6 0 1-0.4 1-1V10h28.1l-9.9 14.4c-0.2 0.3-0.2 0.8 0 1.1L54.6 40H19.5z" fill="#37591d"/></svg>
