<svg xmlns="http://www.w3.org/2000/svg" viewBox="0 0 325 325" width="512" height="512"><path d="M289.3 122.3c15.7-15.7 13.9-42.9-3.9-60.7 -6.7-6.7-14.7-11.1-22.8-13.3V6c0-3.3-2.7-6-6-6H31c-3.3 0-6 2.7-6 6v313c0 3.3 2.7 6 6 6h189.5c0.2 0 0.4 0 0.6 0 0 0 0.1 0 0.1 0 0.2 0 0.4 0 0.5-0.1 0 0 0.1 0 0.1 0 0.2 0 0.3-0.1 0.5-0.1 0 0 0.1 0 0.1 0 0.2-0.1 0.3-0.1 0.4-0.2 0.1 0 0.1 0 0.2-0.1 0.1-0.1 0.3-0.1 0.4-0.2 0.1 0 0.1-0.1 0.2-0.1 0.1-0.1 0.2-0.1 0.3-0.2 0.1 0 0.1-0.1 0.2-0.1 0.1-0.1 0.2-0.1 0.3-0.2 0.1-0.1 0.1-0.1 0.2-0.2 0.1-0.1 0.2-0.2 0.3-0.3 0 0 0.1-0.1 0.1-0.1l36.1-40.4c0 0 0 0 0-0.1 0.2-0.2 0.4-0.5 0.6-0.8 0 0 0-0.1 0.1-0.1 0.2-0.3 0.3-0.6 0.4-0.9 0 0 0-0.1 0-0.1 0.1-0.3 0.2-0.6 0.3-1 0 0 0-0.1 0-0.1 0.1-0.3 0.1-0.7 0.1-1V149.1l26.5-26.6C289.2 122.5 289.3 122.4 289.3 122.3zM284.5 109l-46.7-46.8c4.8-2.8 10.6-3.9 16.5-3.3 0.7 0.3 1.4 0.4 2.2 0.4 0.2 0 0.4 0 0.6 0 7 1.3 14 4.9 19.8 10.7C288.3 81.5 291.1 97.8 284.5 109zM226.5 303.3v-18.7h16.7L226.5 303.3zM250.6 272.6h-30.1c-3.3 0-6 2.7-6 6V313H37V12h213.6v34.9c-9.3 0.1-18.3 3.3-25.1 9.7 -0.3 0.2-0.7 0.5-1 0.8L79.9 202.2c-0.3 0.3-0.5 0.6-0.7 0.9 -0.1 0.1-0.1 0.2-0.2 0.3 -0.1 0.2-0.2 0.4-0.3 0.6 -0.1 0.1-0.1 0.3-0.2 0.4 -0.1 0.2-0.1 0.4-0.2 0.6 0 0.1-0.1 0.3-0.1 0.4 0 0.1 0 0.1 0 0.2L69.6 270.1c-0.2 1.8 0.4 3.7 1.7 5 1.1 1.1 2.7 1.8 4.3 1.8 0.2 0 0.5 0 0.7 0l64.9-8.1c0.1 0 0.1 0 0.2 0 0.1 0 0.3-0.1 0.4-0.1 0.2 0 0.4-0.1 0.6-0.2 0.1-0.1 0.3-0.1 0.4-0.2 0.2-0.1 0.4-0.2 0.6-0.3 0.1-0.1 0.2-0.1 0.3-0.2 0.3-0.2 0.6-0.4 0.8-0.7 0 0 0 0 0 0 0 0 0 0 0 0 0 0 0 0 0 0l105.9-106V272.6zM88.5 219.2l39.1 39.1 -45 5.6L88.5 219.2zM140.5 254.3l-47.9-47.9L228.7 70.1l47.9 47.9L140.5 254.3z" fill="#37591d"/></svg>
