<svg xmlns="http://www.w3.org/2000/svg" xmlns:xlink="http://www.w3.org/1999/xlink" viewBox="0 0 36.22 36.21"><defs><style>.cls-1,.cls-3{fill:none;}.cls-2{clip-path:url(#clip-path);}.cls-3{stroke:#000;stroke-miterlimit:10;stroke-width:2px;}</style><clipPath id="clip-path"><rect class="cls-1" width="36.22" height="36.21"/></clipPath></defs><g class="cls-2"><path class="cls-3" d="M23.68,23.63C36.86,10.45,35.91,6.75,34.33,4.1S31,1.08,30.47,1c-1.74.07-3.56,1.6-5.48,3.51S21.55,8.25,21.48,10c.15.91,2,2.34,2.27,2.42s.41,3.13-3.9,7.43-7.36,4.2-7.43,3.9S10.9,21.63,10,21.48c-1.74.07-3.56,1.6-5.48,3.51S1.07,28.73,1,30.47c.08.53.45,2.27,3.1,3.86s6.37,2.51,19.55-10.67Z"/></g></svg>