<svg class="svg-icon svg-icon__camera" xmlns="http://www.w3.org/2000/svg" viewBox="0 0 173.34 152.71">
    <path d="M126.07,138.87c0,3.29-3.76,6-8.4,6H8.4c-4.64,0-8.4-2.67-8.4-6V61.48c0-3.29,3.76-6,8.4-6H117.66c4.64,0,8.4,2.67,8.4,6Zm0,0" style="fill:#fff"/>
    <path d="M52.53,31.52a21,21,0,1,1-21-21,21,21,0,0,1,21,21Zm0,0" style="fill:#fff"/>
    <path d="M115.56,26.27A26.26,26.26,0,1,1,89.3,0a26.26,26.26,0,0,1,26.26,26.27Zm0,0" style="fill:#fff"/>
    <path d="M173.34,147.45s-.7,5.25-5.6,5.25-36.42-29.4-36.42-33.27V80.92c0-3.87,30.82-33.27,36.42-33.27a5.26,5.26,0,0,1,5.6,5.25Zm0,0" style="fill:#fff"/>
</svg>