<svg class="svg-icon svg-icon__church" xmlns="http://www.w3.org/2000/svg" viewBox="0 0 162.97 151.89">
    <path d="M133.2,102.89v49H163v-31.8Zm0,0" style="fill:#fff"/>
    <path d="M0,151.89H29.77v-49L0,120.09Zm0,0" style="fill:#fff"/>
    <path d="M35,86.23v65.5H65.54V124a15.77,15.77,0,0,1,15.77-15.77h.35A15.77,15.77,0,0,1,97.43,124v27.77h30.52V86.23L81.48,47.69Zm0,0" style="fill:#fff"/>
    <path d="M14.46,79.41,22.34,89,81.48,40.24,140.63,89l7.89-9.57L85.17,27.21V15.6H96.54V8.24H85.17V0H77.8V8.24H66.43V15.6H77.8V27.21Zm0,0" style="fill:#fff"/>
</svg>