<svg class="svg-icon svg-icon__lamb" xmlns="http://www.w3.org/2000/svg" viewBox="0 0 183.77 151.89">
    <path d="M143.68,129.91c1.84,4.29,3.35,7.68,4.75,11.12a7.67,7.67,0,0,1-13.71,6.85,87.65,87.65,0,0,1-5.09-11.19c-1.26-3.39-3.09-4.75-6.91-4.61a22.7,22.7,0,0,0-9,1.94c-4.95,2.37-9.19.24-13.65-1.11a1.33,1.33,0,0,1-.33-.18c-3.32-2.18-6.47-3.28-10.71-1.63-3.09,1.19-6.89.61-10.2-.93a7.11,7.11,0,0,0-7.41.39c-3.08,2-6.67,1.72-10.16,1.67-1.23,0-2.46,0-3.72,0-2.26,5.18-4.25,10.26-6.66,15.14-2.81,5.7-10.24,5.94-13.67.58a5.53,5.53,0,0,1-.71-5.63c1.73-3.85,3.26-7.79,4.86-11.7.6-1.48,1.65-3.09-.63-4.07a3.57,3.57,0,0,0-5,1.82c-1,2.28-1.68,4.68-2.75,6.91a19.7,19.7,0,0,1-3.16,5c-2.84,3-6.38,3.22-9.74.82a8,8,0,0,1-2.37-9.37c1.3-2.95,2.58-5.91,4-8.82,1.79-3.78,1.23-5.55-2.73-8.46a33.48,33.48,0,0,0-4.32-2.21C5.39,107.3.57,99.6.18,89.15c-.12-3.34-.25-6.71,1.48-9.82,1.26-2.26.78-4.52-.11-6.82-4.7-12.09,1.88-26.28,11.63-31.56a17.84,17.84,0,0,1,2.63-1.41,6.61,6.61,0,0,0,4.14-4.49c3.26-9.24,9.58-15.46,18.54-19.26a9.34,9.34,0,0,0,3.83-3.36C48.23,3.46,61.1.09,70.8,5a5.13,5.13,0,0,0,5.87-.49A26.21,26.21,0,0,1,89.53.07c6.06-.48,11.74,1.48,16.85,4.87a10.55,10.55,0,0,1,1.15.95c2.17,1.94,4.13,2.76,7.27,1.19,8.09-4.07,15.79-1.77,22.68,3.11,2.43,1.72,4.16,4.59,5.79,7.2a7.46,7.46,0,0,0,4.54,3.5,30.14,30.14,0,0,1,13,7.69,26.35,26.35,0,0,1,6.74,12.65,5.59,5.59,0,0,0,2.84,4c4.13,2.36,7.83,5.24,10.32,9.48,5.16,8.77,3.76,21.54-4.2,28.18a4,4,0,0,0-1.35,4.3c1.71,9.18-1.6,16.26-9,21.66-1.49,1.09-3.53,2.06-4.11,3.55-.45,1.16,1,3.06,1.58,4.62,1.53,3.78,3.13,7.52,4.61,11.32a6.82,6.82,0,0,1-6.36,9.32c-5.25.17-6.7-.78-8.72-5.73-.28-.69-.63-1.36-.88-2.06-.8-2.25-2.33-2.76-4.42-1.86C146.45,128.61,145.07,129.28,143.68,129.91ZM77.57,77.5a21.07,21.07,0,0,0,11.81,6.88A25.11,25.11,0,0,0,107,81.91c2.45-1.32,3.61-.74,4.42,1.87a80.57,80.57,0,0,0,10.7,21.56,21.27,21.27,0,0,0,9.19,7.93c3.89,1.64,11.05,1.9,15.2-2.72,4-4.4,4.91-9.68,5.27-15.15.49-7.5-.87-14.87-2.62-22.12-.55-2.28,0-3.29,2.13-3.78,1-.23,1.92-.5,2.88-.76,6.89-1.88,11.89-6,14.69-12.61,1.16-2.76.72-3.81-1.94-4.36-6.29-1.31-12.54-1.94-18.58,1.14a5.37,5.37,0,0,1-6.29-.75c-5-4.44-11.11-4.85-17.23-4.2-7.4.78-14,4.18-17.31,10.83-2.39,4.74-4.79,6.91-10.21,7C88.93,65.87,83.66,72,77.57,77.5Z" style="fill:#fff;fill-rule:evenodd"/>
</svg>