<svg id="Layer_1" data-name="Layer 1" xmlns="http://www.w3.org/2000/svg" viewBox="0 0 535 535"><defs><style>.cls-1{fill:#f2f2f2}.cls-2{fill:#1a1a1a}.cls-3{fill:#fff}.cls-4{fill:#c1272d}.cls-5{fill:#1b1464}.cls-6{fill:none}</style></defs><title>site-logo</title><circle class="cls-1" cx="269" cy="266.05" r="257.5"/><path class="cls-2" d="M267.5 535A267.5 267.5 0 0 1 78.35 78.35a267.5 267.5 0 0 1 378.3 378.3A265.75 265.75 0 0 1 267.5 535zm0-515C131 20 20 131 20 267.5S131 515 267.5 515 515 404 515 267.5 404 20 267.5 20z"/><path class="cls-3" d="M180.62 200.6c.33-.47.64-1 .93-1.43-.29.48-.55.96-.93 1.43zm3.66-8.6c-.1.55-.22 1.09-.36 1.63.14-.56.26-1.1.36-1.63zm248.22 92.8zM77.47 265.61h.01l-.01.01v-.01zm105.76-69.86q-.28.73-.61 1.44.38-.71.61-1.44zm-98.51 59.67l.1-.07zm-6.39 9.16a4.83 4.83 0 0 1-.51.67 4.32 4.32 0 0 0 .51-.67zm9.07-10.98q1.37-.9 2.8-1.8-1.43.9-2.8 1.8zm95.13-56.23c-.24.5-.51 1-.8 1.48.27-.48.56-.97.8-1.48zm-4.16 6.01a27.7 27.7 0 0 0 2.21-2.73l-1-.62zM426.88 274q.79 1.37 1.54 2.76-.76-1.39-1.54-2.76zm-242.42-87.9zm.12 2.15q0 .86-.05 1.69.06-.84.05-1.69zm-.08 2c0 .54-.11 1.08-.2 1.61.09-.53.15-1.07.2-1.61zm-.67 3.69c-.15.53-.31 1-.5 1.56.19-.5.35-1.03.5-1.56zM65.5 153.92h.06l.53-1.06zm366.74 132.64l-4.66-8c1.83 3.26 3.5 6.02 4.66 8z"/><path class="cls-4" d="M325.5 399.55l-6.13-37.49-1.66-.87-3.71 3.45-2.7-6-4.07.24-2-3.16c-1.57 2.23-5 5.69-5.46 5.55l-1.94-9.79c-.89 0-2.79 1.07-4.27 1.07-.92-1.59-1-3-2.08-6.14-.88 0-3.92 2.14-3.91 2 0 .14.1-3.78-.39-4.75-.87 0-2.61.9-3.61.9a27.21 27.21 0 0 0-.3-6.07l-3.54-.66 1.76-8.11-3.35-.86-1.55-5.62a56 56 0 0 0-4.07 4.23q-10.94 14.27-21.78 28.62l-4.18 5.5-14 19c-2.5 3.93-4.83 7.95-7.56 11.67-10.44 14.24-21 28.36-31.55 42.55l-30.89 41.72q9.27 4.7 19 8.58c33.91-51.48 66.26-100.11 68.36-102.31.1.12-36 73.12-53.45 107.65a230.73 230.73 0 0 0 23.2 6.14c10.53-28.28 32.25-84.72 32.57-84.66.09 2.13-8.34 40.12-19.07 87.07q8.55 1.27 17.29 1.91c7.76-37.29 13.86-65.78 14.85-68.37 0 5.26.18 9.83 0 14.39-.85 18.13-1.82 36.26-2.77 54.39v.16c1.69 0 3.39.06 5.09.06q5.93 0 11.79-.3c1.18-14.19 5.46-67.08 7-79.29 1.33-10.68 5.69-33.36 6.6-34.22.18 1 .62 38.75-1.37 58.93-.55 5.59-5.85 41.8-8 54.31q8.19-.56 16.21-1.67l3.82-27.41c1.18-8.42 4.18-27.05 5.32-28 .19 2.06.88 22.17 1 30.16s.17 15.72.26 23.58q8-1.48 15.78-3.48l-.7-14.75c-.41-8.64-1.36-31.54-1.36-34.81.79 1.71 4.83 20.8 10.18 47.28q9.34-2.78 18.34-6.3c-8.54-26.79-15.57-49.26-18.6-59.62z"/><path class="cls-2" d="M121.29 87.53c17.77 1.36 35.56 2.4 53.35 3.53 13 .83 25.93 1.61 38.9 2.43 3 .19 5.95.43 9.12.66 1.64-2.52 3.55-4.89 4.79-7.56a9.12 9.12 0 0 0 .25-5.23c-2.74-14-5.6-28-8.4-42a231.62 231.62 0 0 0-100.5 48.18 16.81 16.81 0 0 1 2.49-.01zm209.55-15.76c1 1.81 1.73 3.77 2.56 5.68l.14.1v.15l11.2 13.3c2.49 0 5 .15 7.42 0 20.59-1.45 41.18-2.85 61.75-4.51a18.65 18.65 0 0 1 2.14-.05 231.81 231.81 0 0 0-87.37-44.94c-1 5.33-2 10.65-3.16 15.94a10.15 10.15 0 0 0 1.53 8.47c1.32 1.9 2.67 3.82 3.79 5.86zM194.69 414.85a59.87 59.87 0 0 0-11.12-27.52c-1.76-2.34-4.06-4.26-6.46-6.75-1.58 1.5-2.81 2.52-3.88 3.7-8.13 8.93-17 16.93-27.89 22.43a57.4 57.4 0 0 1-21.51 6 78.41 78.41 0 0 0-9.33 1.61c-2.61.53-5.17 1.33-7.78 1.86-6.29 1.27-12.28.66-17.69-3.13-2.87-2-5.8-4-8.65-6A233.6 233.6 0 0 0 156 473.18l5.59-7.63c10.43-14.25 20.78-28.57 31.26-42.78a9.75 9.75 0 0 0 1.84-7.92zM184 366.76c-3.34 3.08-3.4 3.17-5.61 8.68l7.77 4.93a30.51 30.51 0 0 0-2.16-13.61zm57.47-118.25a4.87 4.87 0 0 0-5.06-1.22c-1.73.52-3.44 1.13-5.23 1.72-1.83 9-3.77 37.53-2.76 41.55 10.72 1.23 21.62.89 33 1.09-1.88-2.15-3.89-2.11-6.23-3.73l6.18-2.31c-1.68-1-2.77-1.69-3.84-2.37s-2-1.34-3-2c.08-.33 5.63-1 8.83-1-.56-1.47-.9-2.2-1.12-3s-.41-1.79-.71-3.13h6.29c-.54-.78-17.91-17.6-26.35-25.6zm62.97-85.67a19.46 19.46 0 0 1-12.25.62c-3.7-.9-6.44-.12-9.48 1.94.5 2.62 2.53 3.13 4.46 3a50.39 50.39 0 0 0 7.78-1.58c2.11-.53 4-1 6.29-.09 4.1 1.64 5.13 1 7.74-3.35-2.73-1.12-2.79-1.27-4.54-.54z"/><path class="cls-3" d="M421.57 308.75l.61.13v-.16l-1-.12z"/><path class="cls-2" d="M498.21 232a230.85 230.85 0 0 0-23.3-71q-2.18-4.19-4.51-8.28a.81.81 0 0 0-1-.34c-5.44 2.3-11.3 4.25-12.8 4.27-5.65.09-11.32.06-17-.26-14.12-.8-28.23-1.8-42.35-2.72q-22.92-1.49-45.84-2.95c-1.5-.09-3 0-4.58 0a.82.82 0 0 0-.68.37 10.22 10.22 0 0 0-1.22 8.78c1.48 4.75 1.8 6 3.56 10.68.37 1 1 5 2.7 6.31 8.09 6.87 10.82 14.52 11.19 17.47a6.51 6.51 0 0 0 1.62 4.07 10.83 10.83 0 0 0 5.56 3.67 50.13 50.13 0 0 1 15.73 8.42c8.23 6.17 17.07 11.56 24 19.39 4.74 5.38 15.13 36.34 18.63 43.12.51.9 10.22 16 10.61 16.58.3.4 6 8.09 6 12v9.18a.8.8 0 0 0 .62.78c12.53 2.87 26.3 7.41 30.38 14 5.37 8.72 10.28 12.94 12.94 14.77a.81.81 0 0 0 1.23-.42A233.84 233.84 0 0 0 498.21 232z"/><path class="cls-3" d="M428.42 276.76c.32.6.64 1.2 1 1.8-.36-.56-.68-1.2-1-1.8zm4.68 9.29l-.6-1.26zm-356.62-19.7l-.16.09zm-1.27.6a7.48 7.48 0 0 0 1.12-.51l.16-.09a5.73 5.73 0 0 0 1-.72c-.19.08-1.05.57-2.28 1.32zm106.52-68.09c.28-.49.55-1 .8-1.48l.09-.19q.34-.71.61-1.44l.1-.25c.19-.51.36-1 .5-1.56l.09-.33c.14-.54.27-1.08.36-1.63v-.12c.09-.53.15-1.07.2-1.61v-.31q.06-.84.05-1.69v-.35c0-.59 0-1.19-.11-1.8l-4.87 13.9 1 .62v-.05c.33-.47.64-1 .93-1.43zM45.51 325.55v-.13l-.05-.24z"/><path class="cls-2" d="M43.5 338.55c0 1 1-1 1-2S44 331 44 331a130.26 130.26 0 0 1 2.55-34.44c4-19 21-31 21-31s10-6.47 15.22-10.13l.1-.07q1.26-.88 2.57-1.75t2.8-1.8c-.64 3.33-1.93 5.25-4.07 6.21a16.06 16.06 0 0 0-7.8 6.57 4.32 4.32 0 0 1-.51.67 5 5 0 0 1-.35.36 5.6 5.6 0 0 1-1 .72l-.16.09a7.68 7.68 0 0 1-1.12.51c-2.87 1.76-7.67 4.93-9.71 7.65-3 4-12 17-14 26-1.89 8.41-2.59 41.54-2.41 47.41 0 .47.08.94.12 1.41q3.06 8.31 6.72 16.3c.1-1.74.22-3.48.41-5.2a56.92 56.92 0 0 1 2.38-9.64c1.65-5.58 3.59-11.08 5.11-16.7a53 53 0 0 0 1.08-22.79c-.53-3.19.19-6.59.31-9.89.07-2.1.07-4.21.08-6.31 0-.16 1.08-14.51 6-20.18a6.48 6.48 0 0 1 1.57-.87 6.22 6.22 0 0 1 .25 2c-3.2 12.7-1 25.6-.78 38.49-.56 5.32-.53 10.42 1.92 15 4 7.49 4.84 15.84 6.13 24.28 2.13 6 2.43 12.74 6.92 17.83a17.79 17.79 0 0 1 2.38 4.27q4.62 10 9.16 20c.51 1.12.83 2.33 1.44 4.07l-10.22-.78c-7.63-8.24-16.24-16.52-21-27.88l-1 .35c.28 2 .43 4 .88 6 .83 3.59.33 6.59-2.09 8.86q3.92 6.68 8.26 13.08c4.19 3.45 8.49 6.75 14.07 8a3.62 3.62 0 0 1 2.01 1.3c3.51 5.22 9.75 2.68 14.89 2.83 7-1.12 14-2.63 21-4.14a23.56 23.56 0 0 0 12.57-7.69 3.62 3.62 0 0 0 .65-1.33 5.31 5.31 0 0 0 0-1.28 13.77 13.77 0 0 0-3.21-2.47c-6.81-5.6-13.29-11.58-19.82-17.5-2.1-1.9-4.11-3.9-6.22-5.78-3.43-3-6.37-6.3-6.83-11.22-.13-1.38-1.25-2.68-2-4-1.74-3.21-3.51-6.4-5.25-9.61-.47-.86-.88-1.76-1.31-2.64l-1.22.77c-.21.55-.74 1.22-.58 1.62 3.61 9.24 5.39 19.34 12.24 27.1 3.64 4.12 7.39 8.14 11.13 12.17 3.17 3.42 6.49 6.71 9.54 10.23.95 1.1 1.21 2.79 2 4.82-6.22 1.08-11.59 1.57-16.93-.31-2.87-1-4.61-3.33-5.82-5.92-5.85-12.51-12.81-24.51-16.94-37.8-.91-2.93-1.91-5.84-3-8.7-5.32-13.81-7.11-28.15-6.85-42.92a106.73 106.73 0 0 0-1.06-13.36c-.73-6.75.51-13.27 2.18-19.72 1.16-4.48 3.94-7.78 8.86-10.46-.82 5.21-1.5 9.6-2.19 14-1.8 11.35-4 22.65-3.79 34.23 0 2.16.11 4.33.33 6.49.17 1.65.6 3.28 2.77 4 2-2 1.76-4.57 1.73-6.94-.07-6-.53-12-.56-18a106.62 106.62 0 0 1 5-32 19.47 19.47 0 0 1 2.69-5.88c4-5.34 8.15-10.53 12.37-15.69.87-1.07 2.25-1.73 3.7-2.8l4.8 7.51c4.62-4.88 5.46-11.16 8.26-17a5.56 5.56 0 0 1 .57 5.83 16.31 16.31 0 0 0-1.35 5.66c0 5.49.51 11 .66 16.47.21 7.83.4 15.66.4 23.49 0 10.61 1.25 20.88 6.08 30.58 3.18 6.39 3.4 13.55 3.87 20.51a87.32 87.32 0 0 1-2.37 27.29 26.31 26.31 0 0 0-1.15 6.37 16.14 16.14 0 0 0 1.25 6.71 55.56 55.56 0 0 0 5.77 9.34c2.31 3.07 4.92 5.83 5.53 9.87.32 2.12 2.06 2.92 4.08 2.94a7.49 7.49 0 0 0 3-.34c8.38-3.63 16.23-7.91 19.76-17.15.83-2.18 1.83-4.31 2.45-6.55a33.6 33.6 0 0 0 .62-5.29c-3.05-.59-3.55 1.33-4.38 2.91a21.37 21.37 0 0 1-16.84 11.86c-4.74.65-7-.34-8.27-5a82.14 82.14 0 0 1-2.28-13.25Q138.1 347 136.91 332c-.89-11.09-.21-22 4.62-32.29 3.93-8.35 5.36-17.47 8.46-26.06 1.36-3.76 2.67-7.55 4.34-11.17.71-1.55 2-3.41 3.51-3.92 5.63-2 8.27-5.41 6.6-11.71h1.09c.73 1.69 1.47 3.37 2.2 5.06 1.82 4.24 3 8.68 7.1 11.77 1.68 1.26 2.48 4.36 2.75 6.72.62 5.61.66 11.29 1 16.94.11 2 .33 4 .55 5.94.24 2.14.74 4.26.79 6.4.21 8.15.31 16.31.38 24.47a47.27 47.27 0 0 1-.39 8c-.76 4.64-1.31 9.2.11 13.83.37 1.2 0 2.62 0 3.94 0 2.94 1.87 5.31 5 6.32 1.8-1.12 1.42-2.9 1.14-4.49-2.86-16.34-2.71-32.84-2.76-49.34a240 240 0 0 0-1.18-25.44c-1-8.93-2.8-17.75-8-25.49-.94-1.4-.92-3.43-1.38-5.16-.76-2.89-1.63-5.75-2.3-8.66a10.3 10.3 0 0 1-.21-3.91c.46-2.75 1.19-5.45 2-8.79 1.06-.08 2.48-.26 3.9-.29 4.8-.11 9.09-1.3 12.86-4.59 1.76-1.53 4.33-2.14 6.93-3.35a47.07 47.07 0 0 0-8.93.35c-3.81.4-7.62.87-11.44 1.13a45.77 45.77 0 0 1-5.78-.37l1.16-3.57a93.89 93.89 0 0 0 25.56-.25c5.9-.79 12.33-7.67 15.38-14.76a20.23 20.23 0 0 0 .73-3.2 34.7 34.7 0 0 1 3.69-3.44c5-3.52 5.32-3.67 5.09-9-2.83-9-3.85-24.08-4.28-31.63-3.34-.94-22.32-.53-27.43.54l-4.3 22.64a56.8 56.8 0 0 1 1.57-18.65c1.21-4.67-1-7.15-6.58-8.33-3.67 1.88-2.64 6.25-3.42 9.3-.43 1.69-.41 3.11-3.27 3.86v-7.74c-3.2-1.2-13.63-1.22-18.45 0-.1.13-.28.24-.3.38-1 6.85 4.8 18 10.94 20.76 2.57 1.16 5.35 1.84 8 2.9a11.75 11.75 0 0 1 2.46 1.91c-.71.59-1 1-1.2 1-5.43-2-10.87-3.92-16.18-6.16-1.79-6.78-7-12.53-6.22-20.1a9.38 9.38 0 0 0-.23-2.48 12.22 12.22 0 0 0-.74-1.87c-3.63 2.76-7.14 4.93-8.2 9.93-1.89 8.89-.68 17.57.7 26.29a13.32 13.32 0 0 0 1.92 4.56c2.52 4.19 4.53 8.45 4.33 13.55-.06 1.65.68 3.34 1.23 5.82 2.13-4.09 4.07-7.1 5.24-10.38.6-1.68 0-3.88-.35-5.8-.49-2.77-1.52-5.47-1.81-8.26-.31-3 0-6 3.91-8.1 4 1.83 8.55 3.47 12.61 5.94 3.35 2 3.51 5.89 2.83 9.47a55.66 55.66 0 0 1-9.41 21.31 33 33 0 0 0-3.14 4.49c-.81 1.76-1.75 3.85-1.48 5.63.47 3.18-.33 5.87-1.46 8.68-3.23 8-5.92 16.31-9.66 24.08-4.38 9.1-10.09 17.54-14.13 26.86-.49 1.14-1.57 2-2.69 3.42a9.57 9.57 0 0 1-1.25-2.45c-1.12-9.43-2.3-18.87-.3-28.33a18.71 18.71 0 0 1 1.11-3.83c2.45-5.42 5-10.79 7.5-16.19 1.22-5.48 2.43-11 3.67-16.58-1.86-2.15-4.31-1.53-6.43-.88-4.29 1.32-8.49 2.93-12.67 4.57a57.25 57.25 0 0 1-8.16 3 18.23 18.23 0 0 1 2.22-1.94 11 11 0 0 1 3.14-1.5c9.34-2.29 12.05-9.54 13.47-17.79.22-1.28.43-2.55.73-4.3l3.87 3.07a2.41 2.41 0 0 0 2.3-3 10.61 10.61 0 0 0-1.13-4.28c-4.5-7.45-4.4-15.94-5.55-24.13a8.45 8.45 0 0 1 2.43-7.71c2-2 3.14-5.07 4.34-7.8a24.47 24.47 0 0 1 8.32-9.76 67 67 0 0 0 15.14-16.2c1.91-3.35 4.74-6.92 2.18-10.79-4.78-7.23-27.88 17.17-31.39 28.87-3.28 10.92-3.64 22.25-4.33 33.74-.3-1.31-1.87-2.61-1.86-3.92 0-6.65 1.23-13.3 1.41-19.95 0-1.61.24-3.22.43-5.53-20.37.19-40.21 1.48-60.79 1.63a46.28 46.28 0 0 1-7-1.51 389.18 389.18 0 0 0-23.63 58.65 233.83 233.83 0 0 0 3.44 125.78v.17zm135.08-137.9a27.7 27.7 0 0 1-2.21 2.73l1.18-3.35 4.91-13.93c.06.61.09 1.21.11 1.8v.35q0 .86-.05 1.69v.31c0 .54-.11 1.08-.2 1.61v.12c-.1.55-.22 1.09-.36 1.63l-.09.33c-.15.53-.31 1-.5 1.56l-.1.25q-.28.73-.61 1.44l-.09.19c-.24.5-.51 1-.8 1.48l-.18.31c-.29.48-.6 1-.93 1.43z"/><path class="cls-3" d="M76.48 266.35a5.6 5.6 0 0 0 1-.72 5.73 5.73 0 0 1-1 .72zm8.34-11q1.26-.88 2.57-1.75-1.31.87-2.57 1.75zm-7 9.89c-.11.13-.23.25-.35.36a5 5 0 0 0 .35-.36zm-2.61 1.71a7.68 7.68 0 0 0 1.12-.51 7.48 7.48 0 0 1-1.12.51zm9.51-11.53a79.35 79.35 0 0 0-14 12.11 79.47 79.47 0 0 1 14-12.11zm99.85-67.52v.35c.01-.12 0-.25 0-.35zm-5.02 12.1l4.91-13.93zm4.75-8.14v.12zm-3.72 8.79v-.05.05zm3.95-10.71v.31c-.02-.1-.01-.25 0-.31zm-.61 3.67l-.09.33zm-2.19 5.25l-.18.31zm.88-1.67l-.09.19zm.72-1.69l-.1.25zM45.53 325.76v-.21zm31.92-60.13zm0 0zm246.26 92.13l-.21-4.21m-4.13 8.51l1.6.84"/><path class="cls-5" d="M338.5 362.55l47.93 61.35c3.41-7.67 6.76-15.31 10.36-22.84-1.51-1.62-2.6-2.86-3.76-4q-19.95-20-39.92-39.94c-5.65-5.64-11.71-10.92-13.93-19.1a5.52 5.52 0 0 0-4.65-4.13c-1.18 2.94-5.31 11.56-6.82 15.19l-3.77 4.92.29 2.79-.52 1 3.12 29.45a67.38 67.38 0 0 0 2.52 12.45l8.33 27.49s12.6 30.73 23.75 54.68q8.13-3.59 15.92-7.78c-3.8-7-7.58-14-11.29-21.11-8.19-15.63-15.31-31.3-23.09-47.13-1.94-3.94-3.48-8.26-5.18-12.65 2.81 5 23.73 35.7 24.7 37.39 4 7 7 12 11.75 19.41 2.9-5.68 5.56-11.37 8.15-17.05l-29.89-44.39z"/><path class="cls-6" d="M400.33 260.32c2.4-3.26 3.5-7.05 4.85-10.82 1.49-4.17.92-7.84-.67-11.58-.38-.89-1.46-1.48-3-2.91-2.36 9.38-5.53 17.67-3.21 27.42a27.55 27.55 0 0 0 2.03-2.11zM308.78 159.3c-9.07-1.4-17.77 1.27-26.59 2.5a6.82 6.82 0 0 0-2.24 1c-4.24 2.43-4.71 7.08-1 10.22 1.74 1.49 3.53 2.93 5.79 4.8A16.41 16.41 0 0 0 289 177c5.69-2.71 11.4-3.17 17-.67.6-.21 1-.23 1.21-.45 3.17-3.88 4.36-8.71 6.11-13.25.24-.61-.85-2-1.66-2.65a6.56 6.56 0 0 0-2.88-.68zM390.91 310a8.43 8.43 0 0 0-3.43-2 36.56 36.56 0 0 1-16.25-9.84l-6.62-.39 2.55-2.67c-.53-2.45-2.33-3.43-4.22-4.06a70.76 70.76 0 0 0-8.65-2.37c-6.36-1.26-12.76-2.36-19.16-3.43a18.6 18.6 0 0 0-4.95-.16c-1.89.2-3.66.95-3.89 3.2a3.7 3.7 0 0 0 3 4.07 43.41 43.41 0 0 0 8.3 1.54c6 .42 11.81 1.28 17.18 4.83l-.55 3.06-5.22-1.89a99.35 99.35 0 0 0-9.9-3.41c-4.14-1-6.75 1-7.19 4.76-.46 4 1.38 6.09 5.62 6.49 3.81.36 7.63.67 11.42 1.18 1.81.24 3.93.23 5 2.51-2.29 1.56-4.38.86-6.39.21-2.22-.72-4.34-1.71-6.56-2.41-3.07-1-6.13-1.17-9.07.74-.32 4.78 1.91 7.68 6.13 9.15-.09 5.18 3 8 7.11 9.38 5.51 1.81 11.25 3.22 17.14 2.33a11.05 11.05 0 0 1 7.21 1.2c3.52 1.89 7 3.78 10.6 5.59a9.58 9.58 0 0 0 7.75.81 69.44 69.44 0 0 0 10.5-4.59 8.53 8.53 0 0 0 2.36-13.26c-3.07-3.7-6.44-7.17-9.82-10.57zm-32.49-87.14c3.71-1.44 7.39-3.54 9.75-7.48-4.65-3-9-3.92-13.93-1.56a10.61 10.61 0 0 1-9.2 0c-2.85-1.27-5.76-2.4-9.14-3.8l-2.9-3.5c-3.22 1.1-4.62 3.41-6.35 5.39-2.69 3.1-5.12 3.4-8.22.91-4.2-3.37-7-7.55-6.89-13.23 0-1.78-.18-3.56-.33-6.29-4.75 2.67-9.06 3.17-13.21.8-1 .49-1.72.82-2.43 1.24-3.22 1.89-6.31 2-10 .64s-6.65-3.66-9.71-5.94c-4.21-3.13-8.52-6.13-12.79-9.19l-1.07.86a8.7 8.7 0 0 0 .24 2.8 77.11 77.11 0 0 0 4 8c3.69 6.24 2.18 13.22 3 19.87.11.9-1 1.94-1.3 2.46l-13 2.4c-1.57 1.51-2.89 3.37-4.69 4.38a89.55 89.55 0 0 1-9.3 4l-3.23-2-6.34 2.94c4.48 1.39 8.11 2 11.26 3.61 5.13 2.59 10.25 2.4 15.56 1.32a90.19 90.19 0 0 1 34.76-.13c22.67 4.2 44.34-.36 65.46-8.5z"/><path class="cls-6" d="M368.5 225.3c-1.31 1.19-2.8 2.6-4.42 3-8.1 1.85-16.2 4.07-24.43 4.9-15.72 1.59-31.52 2.31-47.29 3.41-2.49.17-5 .48-7.45.69a30.86 30.86 0 0 0-6.88 1 15.8 15.8 0 0 0 4.88 1.38c7.09 1 14.16 2.21 21.28 2.71 12.1.86 24.24 1.77 36.13-2 5.86-1.87 11.77-3.63 17.74-5.08 7.61-1.85 13.16-6.88 18.94-11.6.33-.27.37-.88.68-1.66l-3.16-2.9c-2.34 2.36-4.07 4.37-6.02 6.15zM260 150.93h4.79l8 11.83c2-1.06 3.6-1.81 5.09-2.76 3.5-2.24 6.92-4.63 10.43-6.87a17 17 0 0 1 2.87-1.22c2.39 1.73 2.38 5.36 6.29 5.62l4.39-6.59c-1.62-2.95-3-5.58-1.44-9 2.75 1.66 3.27 4.35 4.23 6.71 1.82 4.48 5.47 6.22 10 7.51 2-11 6-21 5.15-32.1-3.67-2.48-7.51 1.35-10.83.4l-4.5-2.83c-2.48 3-3.55 5.53-1.93 9s1.13 4.57-2.74 7.94c-.81-2.83-1.73-5-2-7.15-1.12-9.52.61-11.48 9.66-13.37a32.16 32.16 0 0 1 6-.18c2.16 0 4.34.09 6.48-.12a11.48 11.48 0 0 0 3.05-1.26c-2.31-3.21-2.43-3.53-4.68-3.77-3.93-.42-7.94-1.28-11.7 1-.58.35-1.65-.11-3.41-.29 5.41-5.45 12-4.61 17.79-6.08l1.41-5.89c-3.2-3.94-6.15-8-9.5-11.62-4.47-4.87-9.06-9.3-15.74-11.74-7.61-2.79-13.58-1.67-19.23 3.62-1.09 1-2.21 2-3.22 3.13a88.92 88.92 0 0 0-13.68 20.81 16.44 16.44 0 0 0-1.49 4.74c-.42 2.75.92 4.14 3.64 4 1 0 1.95-.43 2.94-.56 5.48-.73 10.58.65 15.46 3 1.67.8 3.09 2 2.24 4.25-2.67 1-4.18-.71-5.91-1.93-5.32-3.77-13.41-3.15-17.95 1.4-1.24 1.24-2.62 2.55-1.82 4.7 13.59-5.28 19.25-5.1 23.3.93-1.64-.13-3.41-.84-4.41-.25-3.3 2-6.74 1.34-9.34 1.2-2 1.47-3.39 2.49-4.79 3.49-1.75 1.24-3.73 2.25-5.21 3.75-1.92 2-3.06 4.5-1.93 7.31 1.31 3.13 2.81 6.09 4.24 9.24zm160.34 140.02c-.06-4.33 0-8.66 0-13.08-4.24-.77-5.36 4.54-9.27 4.92a6.83 6.83 0 0 1-.27-2c.46-2.61 1.22-5.19 1.52-7.82a59.09 59.09 0 0 0 .5-9.81 4.54 4.54 0 0 0-4.25-4.6c-6.81 5.72-10.62 15.56-9.93 24.58.31 4.12.07 8.27.12 12.41 0 1.93.12 3.86.2 6.14l14.19 3.67c1.85-3 2.94-5.29 4.51-7.17a10.57 10.57 0 0 0 2.68-7.24zm42.89 48.51c1.19 6.23 5.85 9.68 10.52 13.12a33.13 33.13 0 0 0-10.52-13.12zm-32.14-42.68c-6.1 1.43-9.77 6.35-14.48 9.77l.24 1.23 4.72 1 .87.31c-.26-.6-.48-1.11-.5-1.22l7.58-5.12 2.59-5z"/><path class="cls-2" d="M341.63 320c2.7 2.38 5.07 3.84 7.7 3.14 4-1.05 7.46-.14 11.11 1.1 2.27.77 4.72 1.77 7.87-.6-8.67-4-17.16-4.2-26.68-3.64z"/><path class="cls-2" d="M472.5 326.6c-6.15-9.22-27.44-12.54-41.36-15.4a44.61 44.61 0 0 1 11.17 1 43.93 43.93 0 0 1-.81-8.56c0-5-12.09-21.78-13.92-25-2.61-4.46-8.08-21-10.08-26a76 76 0 0 0-3.42-8.67 69 69 0 0 0-29.33-29.48c-3.49-2.46-7.5-4.18-11.34-6.12-1.92-1-4-1.6-6-2.5-4.85-2.24-6.94-9.23-8-11.31l-6.94-11.78a43.89 43.89 0 0 0-4.2-5.91c-3.42-4.08-6.38-8.37-5.83-14.43.93-10.17-1.57-19.94-4.36-29.63-.27-.92-.58-1.83-.89-2.74-2.3-6.79-2.28-13.42 1-19.83a2.81 2.81 0 0 0 .39-.92c.7-7.24 1.34-14.48-2.92-21-1.52-2.33-1.22-4.61-3.22-6.61l-1.1-1.16a8 8 0 0 1-1.83-2.25 25.52 25.52 0 0 1-2.68-4.79c-4.14-9.16-10.79-16.37-18.12-23a16.89 16.89 0 0 0-12.24-4.77c-8.13.42-16.28.7-24.37 1.54-7.1.73-13.55 3.27-18.57 8.76-3 3.32-6.54 6.21-9.46 9.62a73.47 73.47 0 0 0-6.17 9c-1.32 2.11-2.29 4.44-3.54 6.59-4.84 8.3-7.43 17.46-9.7 26.66a24.14 24.14 0 0 0 1.06 14.29 27 27 0 0 1-.74 21.36 44.79 44.79 0 0 0-2.88 8 29.54 29.54 0 0 0-.86 8.31c.24 4.14 1.1 8.25 1.6 12.38.15 1.27 1.15 7.5 1.51 11.42 2.66 2.51 2.69 5.67-.39 8.1-2.65 2.09-5.8 3.53-8.73 5.26-.27.68-.5 1.25-.7 1.74.22 4.27-1.8 11.06-3.73 13.06-2.17 2.25-4.93 4.22-3.29 8.09 1.78 4.2 4.26 7.55 9.06 8.45l4.57.86a24.71 24.71 0 0 1-.26 3.66c-1.08 4.71-2.19 9.41-3.42 14.08a163.37 163.37 0 0 0-5.31 34.43c-.7 15.3 1.86 30.21 2.9 45.29 0 .33.17.66.17 1-.16 11 4 20.76 8.37 30.53 3 6.77 4.69 11.72 7.61 18.9l13.14-15.85c-2.85-4.38-6.14-12.88-7.29-19 3.69 4.45 5.36 9.36 8.74 14.21 3.63-4.85 5.61-7.83 8.27-11.71s5.15-7.78 7.66-11.71 5.1-8.11 7.88-12.54l-3.74-.39.71-5.92h-6.37l3.31-5.61h-7.18c3.09-3 5.09-4 6.9-6.33-5.53-1.07-30.47-.56-34.59.83l-.46 7.54c-10-29.08-1.9-64.44 4.75-73.61a13.31 13.31 0 0 1 2.79-.26c3.8.39 7.58.9 11.11 1.33 6.12 8.38 26.21 29 30.53 31.33l.63-4.27 4.1 3 5.84-.52a7.31 7.31 0 0 0 2.69-7.84 57 57 0 0 1-1-7.42c-.15-1.59 0-3.2 0-4.82 5.8.43 4.2.4 6.62 9.39a101.62 101.62 0 0 1 2.25 11.54 51.41 51.41 0 0 0 1.27 5.32l6.13 1c.45-1.93 1-4 1.4-6.05 1.06-5.22 2.07-10.46 3.11-15.69.44-2.19 1.37-3.79 4.61-3 1.56 5.34 0 10.92 0 16.53l5.21 1.8 2.31-1.87 3.14 1.16c7.63-6.55 15.17-13.09 22.79-19.53 1.37-1.16 2.94-2.47 4.59-2.81 6.22-1.28 12.3-2.75 17.31-7.15l.62 1L336.1 268l2 3.8c8.63.79 16.36 4.69 24.14 8.56 2.15 1.07 4.74 1.34 7.17 1.7 6.92 1 13.85 1.87 20.78 2.82a6.51 6.51 0 0 1 1.62.87c1.12 4.31 0 8.6-.64 13-3.55.26-5.66-1.84-8.08-3.15-3.35-1.81-6.66-3.73-10.09-5.38-5.7-2.75-11.48-5.3-17.22-8-2.46-1.15-4.91-2.11-8-1.15l-2.88 3.26c-2.76.5-5.46.35-6.85-2.51-5-10.4-19.11-10.19-27.51-4.26-1.89 1.33-3.69 2.8-5.78 4.38a52 52 0 0 0-5.6-2c-3.7-.87-7.44-2.08-11.18-2.15-12.63-.22-20.33 10.07-16.72 22.29a38 38 0 0 0 4.89 10.32c6.54 9.7 13.93 18.68 23.41 25.77 4.66 3.49 9.11 7.27 13.73 10.82a49.57 49.57 0 0 0 5 3c.93-1.76 1.7-3 2.26-4.31 2.33-5.53 4.57-11.09 6.91-16.61.72-1.7 1.62-3.33 2.44-5a.29.29 0 0 1 .35-.14 5.64 5.64 0 0 1 1.71.56C349.2 339 366.4 353.4 383.7 367.73c1.06.88 1.8 2.83 2.29 4.89a17.21 17.21 0 0 0 5.33 8.77 21.22 21.22 0 0 1 3.44 4.35c2.18 3.35 4.44 6.66 6.89 9.81a8.42 8.42 0 0 1 1.38 8.78c-6 17.14-11.7 34.37-17.53 51.56-1.12 3.31-2.3 6.59-3.59 10.29.64 1.41 1.28 2.84 1.92 4.28q4.44-2.57 8.76-5.33c-.62-.8-1.27-1.65-1.94-2.6 6.31-17.85 12-37 22-55 5 1.18 9.94 4.94 16.43 3.31l2.81-6.62c-2.6-.29-4.47-.52-6.35-.71-3.63-.37-7.28-.65-10.9-1.1a5.8 5.8 0 0 1-5.11-4.15c-2.71-7.86-7.49-14.43-12.95-20.59a6.56 6.56 0 0 1-1.81-4.37c.77-6.77 1.92-13.51 3-20.25.07-.42.54-.78 1-1.38 3.38.63 5.13 3 5.82 6a44.19 44.19 0 0 1 .89 8.89c.09 3.83-.2 7.66-.17 11.49 0 1.77.57 3.54.76 5.31l.42.11c1.19-1.85 2.07-3.93 3.4-5.67 2.59-3.38 5-3.38 7.58.09a53.64 53.64 0 0 1 3.44 6.06c.77 1.4 1 3.3 3.42 3.52a12 12 0 0 0 3.89-6.25 10.25 10.25 0 0 0 .45-2.16c.83-8.6 1.66-17.2 2.4-25.81a9.07 9.07 0 0 0-.5-3.43c-1.23-3.83-4.28-4.92-7.86-2.87-1 .57-1.92 1.26-3.3 2.17-1.26-1-2.85-1.7-3.72-2.94-1.86-2.66-4.43-3.31-7.36-3.44l-8.08-.36c.19-2.23 1.82-2.07 2.9-2.47 7-2.59 8.53-5.26 7.47-12.5A24.84 24.84 0 0 0 404.4 314a53.77 53.77 0 0 1-3.58-5.23c6.63.45 10.28 4.67 15 6.33 5.17 1.83 7.09 7.22 11.6 10.49l.92-4c5.94 1 10.74 3.51 14 9.09l-5.68 3.23c.83 4.64 4.94 5.17 7.52 7.23 3.19 2.56 6.62.89 10.05-.66a23.58 23.58 0 0 1 2.42 3.22 38.18 38.18 0 0 0 9.25 11.64c4.49 3.87 6.37 8.69 6.39 15.66-1-2-1.66-3.17-2.2-4.37a20.73 20.73 0 0 0-11.52-11.24c-7.58-3.05-14.13-8-20.73-12.8-.38-.28-.86-.24-2.28-.56 1 2.14 1.67 3.78 2.55 5.29 5.38 9.18 10.19 18.69 17.11 27 5 6 3.88 10.63-2.71 14.94l-7.68 5c.46 5.06-1.16 10 3 13.71 2 .8 3.24-.07 4.55-1.73a46.87 46.87 0 0 1 7-7.67c1-.84 2-1.69 3-2.58a231.7 231.7 0 0 0 25.31-52 82.45 82.45 0 0 1-15.19-17.39zM257.76 134.44c1.47-1.51 3.46-2.51 5.21-3.75 1.39-1 2.76-2 4.79-3.49 2.6.14 6 .77 9.34-1.2 1-.59 2.77.12 4.41.25-4.05-6-9.71-6.21-23.3-.93-.8-2.15.58-3.46 1.82-4.7 4.54-4.54 12.63-5.17 17.95-1.4 1.73 1.22 3.24 3 5.91 1.93.85-2.28-.57-3.44-2.24-4.25-4.87-2.35-10-3.73-15.46-3-1 .13-2 .51-2.94.56-2.73.13-4.06-1.26-3.64-4a16.44 16.44 0 0 1 1.49-4.74 88.92 88.92 0 0 1 13.68-20.82c1-1.11 2.13-2.11 3.22-3.13 5.64-5.29 11.61-6.41 19.23-3.62C303.91 80.59 308.5 85 313 89.89c3.35 3.66 6.31 7.68 9.5 11.62l-1.41 5.89c-5.82 1.47-12.38.63-17.79 6.08 1.76.18 2.83.64 3.41.29 3.76-2.31 7.76-1.45 11.7-1 2.25.24 2.37.55 4.68 3.77a11.48 11.48 0 0 1-3.05 1.26c-2.15.21-4.32.08-6.48.12a32.16 32.16 0 0 0-6 .18c-9.05 1.88-10.78 3.84-9.66 13.37.26 2.2 1.18 4.31 2 7.15 3.86-3.37 4.38-4.4 2.74-7.94s-.56-6 1.93-9l4.5 2.83c3.33.95 7.17-2.88 10.83-.4.84 11.1-3.2 21.12-5.15 32.1-4.56-1.29-8.22-3-10-7.51-1-2.36-1.48-5-4.23-6.71-1.59 3.43-.18 6.07 1.44 9l-4.39 6.59c-3.9-.26-3.9-3.89-6.29-5.62a17 17 0 0 0-2.87 1.22c-3.51 2.24-6.92 4.62-10.43 6.87-1.49 1-3.12 1.7-5.09 2.76l-8-11.83H260c-1.45-3.16-3-6.11-4.19-9.18-1.11-2.86.04-5.39 1.95-7.36zm55.53 28.18c-1.75 4.54-2.94 9.37-6.11 13.25-.18.22-.6.23-1.21.45-5.59-2.5-11.3-2-17 .67a16.41 16.41 0 0 1-4.28.88c-2.25-1.86-4-3.3-5.79-4.8-3.68-3.15-3.21-7.8 1-10.22a6.82 6.82 0 0 1 2.24-1c8.83-1.23 17.52-3.91 26.59-2.5a6.56 6.56 0 0 1 2.85.67c.86.57 1.95 1.98 1.72 2.6zm-55.18 68.83c-5.3 1.07-10.42 1.25-15.54-1.33-3.15-1.59-6.78-2.22-11.26-3.61l6.34-2.94 3.23 2a89.55 89.55 0 0 0 9.3-4c1.8-1 3.12-2.87 4.69-4.38l13-2.4c.29-.52 1.41-1.56 1.3-2.46-.79-6.64.72-13.63-3-19.87a77.11 77.11 0 0 1-4-8 8.7 8.7 0 0 1-.24-2.8l1.07-.86c4.27 3.06 8.58 6.06 12.79 9.19 3.06 2.28 6 4.56 9.71 5.94s6.74 1.26 10-.64c.71-.42 1.47-.76 2.43-1.24 4.15 2.37 8.47 1.87 13.21-.8.15 2.73.37 4.51.33 6.29-.11 5.68 2.68 9.86 6.89 13.23 3.1 2.49 5.53 2.18 8.22-.91 1.48-1.7 2.72-3.64 5.07-4.85a1.74 1.74 0 0 1 2.12.47 13 13 0 0 0 5.1 3.73c2.16.88 4.15 1.68 6.11 2.56a10.61 10.61 0 0 0 9.2 0c4.36-2.08 8.27-1.57 12.35.63a1.66 1.66 0 0 1 .53 2.46 19.56 19.56 0 0 1-8.7 5.95c-20.9 8.08-42.33 12.6-64.8 8.59a95.08 95.08 0 0 0-35.44.06zM377 223.64c-5.89 4.81-11.53 9.93-19.35 11.7-5.8 1.31-11.47 3.1-17.13 4.92-11.95 3.86-24.16 2.95-36.33 2.08-7.12-.51-14.19-1.76-21.28-2.71a15.8 15.8 0 0 1-4.87-1.38 30.86 30.86 0 0 1 6.88-1c2.49-.21 5-.52 7.45-.69 15.77-1.1 31.57-1.83 47.29-3.41 8.23-.83 16.33-3 24.43-4.9 1.62-.37 3.11-1.78 4.42-3 1.8-1.64 3.41-3.47 5.47-5.66a.79.79 0 0 1 1.1 0l2.59 2.38c-.31.79-.35 1.4-.67 1.67zM401.54 235c1.49 1.43 2.58 2 3 2.91 1.6 3.74 2.16 7.41.67 11.58-1.35 3.77-2.45 7.56-4.85 10.82a27.55 27.55 0 0 1-2 2.11c-2.36-9.75.82-18.03 3.18-27.42zm-71 72.54c-2 1-1 6-1 8s-13 29-13 29-26-17-36-32-6-26 1-30 22 2 22 2l2 1s9-9 17-9 10 6 10 6c-4 0-8 1-9 5s3 7 8 8c-5.04 3.01-2.04 9.01-1.04 12.01zm67.88 26.27a67.51 67.51 0 0 1-10.11 4.45 9.75 9.75 0 0 1-7.79-.49c-3.68-1.87-7.32-3.82-11-5.77a11.05 11.05 0 0 0-7.21-1.2c-5.89.89-11.63-.51-17.14-2.33-4.13-1.36-7.21-4.21-7.11-9.38-3.14-1.09-5.18-3-5.88-5.84a3.73 3.73 0 0 1 3-4.61 12.14 12.14 0 0 1 5.86.56c2.22.69 4.35 1.69 6.56 2.41 2 .65 4.1 1.35 6.39-.21-1.35-2.75-4.15-2.17-6.11-2.72a30.76 30.76 0 0 0-7.35-1.14c-6-.2-9.19-1.51-8.63-6.32.44-3.8 3.06-5.74 7.19-4.76a99.35 99.35 0 0 1 9.9 3.41l5.24 1.88.55-3.06c-5.36-3.55-11.18-4.41-17.18-4.83a43.41 43.41 0 0 1-8.3-1.54 3.7 3.7 0 0 1-3-4.07c.23-2.25 2-3 3.89-3.2a18.6 18.6 0 0 1 4.95.16c6.31 1 12.62 2.14 18.89 3.38a47.34 47.34 0 0 1 6 1.56c2.55.86 6.31 1.2 7.13 4.93l-2.55 2.67 6.62.39a36.56 36.56 0 0 0 16.25 9.86 8.43 8.43 0 0 1 3.43 2c3.38 3.44 6.75 6.9 9.84 10.6a8.53 8.53 0 0 1-2.37 13.22zm14.74-28.43l-14.19-3.67c-.08-2.28-.18-4.21-.2-6.14 0-4.14.2-8.3-.12-12.41-.69-9 3.12-18.87 9.93-24.58a4.54 4.54 0 0 1 4.25 4.6 59.09 59.09 0 0 1-.5 9.81c-.3 2.63-1.06 5.2-1.52 7.82a6.83 6.83 0 0 0 .27 2c3.91-.37 5-5.69 9.27-4.92v13.08a10.57 10.57 0 0 1-2.7 7.26c-1.59 1.86-2.65 4.15-4.52 7.16zm8.82 2.46c0 .11.24.61.5 1.22l-.87-.31-4.72-1-.24-1.23c4.71-3.42 8.38-8.34 14.48-9.77l1 .94-2.59 5zm41.29 31.62a33.13 33.13 0 0 1 10.52 13.12c-4.7-3.44-9.37-6.89-10.56-13.12z"/><path class="cls-4" d="M327.6 296.1c-4.48-.9-8.07-4.59-7.17-8.17s4.07-6.38 10.07-6.38c0 0-.83-3-8-3s-16 11-16 11l-4-2.31s-12.45-5.38-18.72-1.79-9.86 13.45-.9 26.9S315.15 341 315.15 341s11.66-24.21 11.66-26-1.1-7.59.69-8.48c-.9-2.66-4.38-7.73.1-10.42z"/></svg>