<svg class="svg-icon svg-icon__email-circ" xmlns="http://www.w3.org/2000/svg" viewBox="0 0 489.6 489.6"><path d="M244.8 489.6a239.36 239.36 0 0 1-65.12-8.81 248.35 248.35 0 0 1-58.51-24.73 245.11 245.11 0 0 1-87.64-87.64 248.32 248.32 0 0 1-24.72-58.5 245 245 0 0 1 0-130.23 248.24 248.24 0 0 1 24.73-58.51 245.11 245.11 0 0 1 87.64-87.64 248.21 248.21 0 0 1 58.5-24.73A244.46 244.46 0 0 1 340 19.34a244.53 244.53 0 0 1 130.26 130.23 244.46 244.46 0 0 1 10.53 160.34 248.43 248.43 0 0 1-24.73 58.51 245.1 245.1 0 0 1-87.64 87.64 248.38 248.38 0 0 1-58.51 24.73 239.34 239.34 0 0 1-65.11 8.81zm118-345.66H130.72a8.48 8.48 0 0 0-5.87 2.2 7.81 7.81 0 0 0-2.45 6.12v25.95c0 1.3.49 2 1.47 2l121.91 69.49 1 .49a2 2 0 0 0 1.47-.49l118-69.52a3.78 3.78 0 0 1 1.47-.49 3.78 3.78 0 0 0 1.47-.49 1.73 1.73 0 0 0 2-2v-25a7.81 7.81 0 0 0-2.45-6.12 8.48 8.48 0 0 0-5.87-2.2zM196.33 248.23a2 2 0 0 0 .49-1.47q0-1.47-1-1.47l-70-40.15a3.17 3.17 0 0 0-2.45 0c-.65 0-1 .49-1 1.47v105.26a1.92 1.92 0 0 0 1.47 2h1c.65 0 1-.16 1-.49zm85.19 7.84c-.32-1-1.14-1.14-2.45-.49l-26.93 15.67q-4.89 2.94-10.28 0L218.36 258c-1-.65-1.79-.65-2.45 0l-89.59 83.23a2.81 2.81 0 0 0-.49 2c0 .32.33.82 1 1.47a16.05 16.05 0 0 0 3.92 1h229.59a2.82 2.82 0 0 0 2-1 3.87 3.87 0 0 0-.49-2.45zm88.13-52.88h-2l-66.59 39.66c-.65 0-1 .49-1 1.47-.32.33-.16.82.49 1.47l66.59 72c.65.65 1.14 1 1.47 1h1q1.47-1.47 1.47-2V205.14q0-1-1.47-2zm0 0" fill="#b99f30"/></svg>