<svg class="svg-icon svg-icon__fax-circ-white" xmlns="http://www.w3.org/2000/svg" viewBox="0 0 442.23 442.22"><path fill="#fff" d="M152.11 240.39h138.01v75.2H152.11z"/><circle cx="128.31" cy="177.57" r="8.33" fill="#fff"/><path d="M280.6 126.64h-119a9.52 9.52 0 0 0-9.52 9.52v16.18h138v-16.18a9.52 9.52 0 0 0-9.48-9.52z" fill="#fff"/><path d="M221.11 0C99 0 0 99 0 221.11s99 221.11 221.11 221.11 221.11-99 221.11-221.11S343.23 0 221.11 0zm116.6 255.14a9.52 9.52 0 0 1-9.52 9.52h-28.55v50.15c0 3.17-.64 5.54-3.09 7.79a9.16 9.16 0 0 1-3.85 2.15 15 15 0 0 1-4.14.35H153.67a14.93 14.93 0 0 1-4.14-.35 9.15 9.15 0 0 1-3.85-2.14c-2.46-2.24-3.1-4.61-3.1-7.78v-50.17H114a9.52 9.52 0 0 1-9.52-9.52v-93.28a9.52 9.52 0 0 1 9.52-9.52h28.56v-25.7a9.52 9.52 0 0 1 9.52-9.52h138a9.52 9.52 0 0 1 9.52 9.52v25.7h28.6a9.52 9.52 0 0 1 9.52 9.52z" fill="#fff"/></svg>