<svg class="svg-icon svg-icon__gce-cal" xmlns="http://www.w3.org/2000/svg" viewBox="0 0 108.46 116.8"><path fill="#fff" d="M6 36h97.33v76.33H6z"/><path d="M106 19.16a8 8 0 0 0-5.86-2.48h-8.37v-6.25a10 10 0 0 0-3.06-7.37A10.06 10.06 0 0 0 81.34 0h-4.17a10.05 10.05 0 0 0-7.36 3.06 10 10 0 0 0-3.07 7.37v6.26h-25v-6.26a10 10 0 0 0-3.06-7.37A10.06 10.06 0 0 0 31.29 0h-4.18a10.05 10.05 0 0 0-7.36 3.06 10 10 0 0 0-3.06 7.37v6.26H8.34a8 8 0 0 0-5.87 2.48A8 8 0 0 0 0 25v83.43a8 8 0 0 0 2.48 5.87 8 8 0 0 0 5.87 2.47h91.77a8.45 8.45 0 0 0 8.34-8.34V25a8 8 0 0 0-2.46-5.84zm-30.91-8.73a2 2 0 0 1 2.09-2.09h4.17a2 2 0 0 1 2.09 2.09V29.2a2 2 0 0 1-2.09 2.09h-4.18a2 2 0 0 1-2.09-2.09zm-50.09 0a2 2 0 0 1 2.08-2.09h4.17a2 2 0 0 1 2.09 2.09V29.2a2 2 0 0 1-2.09 2.09h-4.14A2 2 0 0 1 25 29.2zm75.08 98H8.34V41.72h91.77zm0 0" fill="#505150"/></svg>