<svg class="svg-icon svg-icon__giving" xmlns="http://www.w3.org/2000/svg" viewBox="0 0 152.91 152.27"><path d="M104.82 5.45a18.61 18.61 0 0 0-26.26 0A18.6 18.6 0 0 0 52.3 31.76l23.94 23.82a3.24 3.24 0 0 0 4.63 0c6.36-6.31 23.6-23.48 23.94-23.82a18.6 18.6 0 0 0 0-26.31zm42.63 94.22L125 78.57A27.93 27.93 0 0 0 105.87 71H62a8.41 8.41 0 1 0 0 16.83h31.8a5.24 5.24 0 0 1 0 10.48H39.66a5.28 5.28 0 0 1-3.24-1.11l-22.8-17.94A8.42 8.42 0 1 0 3.21 92.49l35.08 27.59a8.44 8.44 0 0 0 5.2 1.8h63.21a5.27 5.27 0 0 1 3.66 1.49l27.08 26.33a9.11 9.11 0 0 0 15.47-6.54V113a19.06 19.06 0 0 0-5.46-13.36zm0 0" fill="#fff"/></svg>