<svg class="svg-icon svg-icon__instagram-circ" xmlns="http://www.w3.org/2000/svg" viewBox="0 0 285.8 285.8"><path d="M185.5 76h-85.18a24.68 24.68 0 0 0-24.66 24.7v85.17a24.69 24.69 0 0 0 24.66 24.67h85.18a24.7 24.7 0 0 0 24.66-24.67V100.7A24.69 24.69 0 0 0 185.5 76zm-42.6 111.57a44.28 44.28 0 1 1 44.28-44.28 44.34 44.34 0 0 1-44.28 44.28zm45.71-79.41a10.48 10.48 0 1 1 10.48-10.48 10.48 10.48 0 0 1-10.48 10.48zm0 0" fill="#fff"/><path d="M142.9 117.73a25.57 25.57 0 1 0 25.58 25.56 25.59 25.59 0 0 0-25.58-25.56zm0 0" fill="#fff"/><path d="M142.9 0a142.9 142.9 0 1 0 142.9 142.9A142.9 142.9 0 0 0 142.9 0zm86 185.88a43.41 43.41 0 0 1-43.36 43.38h-85.22a43.42 43.42 0 0 1-43.38-43.38V100.7a43.43 43.43 0 0 1 43.38-43.38h85.18a43.42 43.42 0 0 1 43.36 43.38zm0 0" fill="#fff"/></svg>