<svg class="svg-icon svg-icon__phone-circ" xmlns="http://www.w3.org/2000/svg" viewBox="0 0 442.23 442.22"><path d="M221.11 0C99 0 0 99 0 221.11s99 221.11 221.11 221.11 221.11-99 221.11-221.11S343.23 0 221.11 0zM322 290.06l-29.3 29.07a16.52 16.52 0 0 1-5.17 3.75 21.45 21.45 0 0 1-6.28 2q-.22 0-1.32.11t-2.86.11a101.79 101.79 0 0 1-13.55-1.43q-9.36-1.43-22.91-7t-30.73-16.85q-17.18-11.23-36.56-30.84a241.54 241.54 0 0 1-25.55-29.08 207.08 207.08 0 0 1-16.3-25.66 138 138 0 0 1-9.25-21.37 113.24 113.24 0 0 1-4.22-16.58 54.51 54.51 0 0 1-.88-10.9q.22-4 .22-4.4a21.39 21.39 0 0 1 2-6.28 16.47 16.47 0 0 1 3.74-5.18l29.3-29.3a9.7 9.7 0 0 1 7-3.08 8.21 8.21 0 0 1 5.06 1.65 15.33 15.33 0 0 1 3.75 4.08l23.57 44.71a10.72 10.72 0 0 1 1.1 7.71 13.72 13.72 0 0 1-3.74 7l-10.79 10.79a3.7 3.7 0 0 0-.77 1.43 5.47 5.47 0 0 0-.33 1.65 39.73 39.73 0 0 0 4 10.57 97 97 0 0 0 8.15 12.89A143.13 143.13 0 0 0 205 237.19a145.89 145.89 0 0 0 17.62 15.75 101.92 101.92 0 0 0 12.88 8.26 34.36 34.36 0 0 0 7.93 3.19l2.75.55a5.26 5.26 0 0 0 1.43-.33 3.66 3.66 0 0 0 1.43-.77l12.55-12.77a13.49 13.49 0 0 1 9.25-3.53 11.51 11.51 0 0 1 5.95 1.32h.21L319.54 274q4.62 2.87 5.51 7.27a10.06 10.06 0 0 1-3.05 8.79z" fill="#b99f30"/></svg>