<svg class="svg-icon svg-icon__pinterest-circ" xmlns="http://www.w3.org/2000/svg" viewBox="0 0 252.82 252.82"><path d="M126.36 0a126.41 126.41 0 1 0 126.46 126.37A126.42 126.42 0 0 0 126.36 0zm9.88 160.55c-9.25-.7-13.12-5.27-20.37-9.64-3.94 20.81-8.79 40.89-23.23 51.29-4.47-31.54 6.56-55.24 11.66-80.37-8.72-14.66 1-44.07 19.36-36.8 22.53 8.87-19.59 54.39 8.72 60 29.47 5.94 41.51-51.15 23.22-69.75-26.46-26.85-76.93-.62-70.75 37.81 1.54 9.34 11.26 12.19 3.93 25.15-17-3.72-22-17-21.37-34.88 1.08-29.07 26.15-49.45 51.39-52.3 31.85-3.56 61.71 11.65 65.88 41.65 4.63 33.8-14.35 70.52-48.45 67.82zm0 0" fill="#fff"/></svg>