<svg id="Layer_1" data-name="Layer 1" xmlns="http://www.w3.org/2000/svg" viewBox="0 0 1820.61 385.33"><defs><style>.cls-1{fill:#8e1e18}</style></defs><title>logo-horizontal-red</title><path class="cls-1" d="M510.9 85.62h66.73q0 7.26 8.57 23t9.37 19.15q-17.94-20-34.77-28.53t-42.23-8.57q-18.75 0-27.72 7.66a24.37 24.37 0 0 0-9 19.35q0 20.56 31.25 28T574.6 160q32.65 12.5 32.66 44.15 0 25-15.93 42.44T537.91 264a175.35 175.35 0 0 1-39-4 61.17 61.17 0 0 1-30.54-17.14q-12.91-13.11-12.91-38.51a57.52 57.52 0 0 1 2.22-17.13 19.05 19.05 0 0 1 9.47-11.09 17.19 17.19 0 0 0-4.15 8.17 57.12 57.12 0 0 0-.91 11q0 24.19 24.69 39.61t62.79 15.42q23.78 0 34.78-8.47t11-26q0-25.8-31.85-35.48l-59.27-13.71q-32.06-11.09-32.05-40.52a39.72 39.72 0 0 1 11.49-28.63q11.51-11.9 27.23-11.9zm132.24 44.75h16.53q-2.62 5.84-7.36 7.14a41.48 41.48 0 0 1-9.17 1.51v60.92q0 4.42 3.43 4.42 2.81 0 7.15-2.67a72.55 72.55 0 0 0 10.38-8.21A63.25 63.25 0 0 1 650.8 211q-7.66 6.9-15.52 6.9-6 0-8.36-4.92t-2.32-17.59v-56.32h-11.9q.6-4.63 10.78-10.36t19.65-29.85zm48.38 67.33q3.63 0 9.07 4.61a48.62 48.62 0 0 1 9.27 10.4l-16.73 16.6a107.22 107.22 0 0 0-9.17-8 112 112 0 0 0-9.37-6.2q1.81-3.2 8-10.1t8.93-7.31zM848.16 82.59q13.91 0 21.77 10.18a68.6 68.6 0 0 1 11.7 24.5q3.83 14.32 7.16 26.21t6.15 19.76q3.82-12.9 7.86-26 8.26-22.78 21.07-38.71t31.73-15.94q8.87 0 14.22 3.42a21.24 21.24 0 0 1 8 9.07 25.26 25.26 0 0 0-9.27-6.56 29.41 29.41 0 0 0-11.09-2.11q-12.5 0-19.55 11.72a48.81 48.81 0 0 0-7.06 25.66q0 17.18 9.78 46.48a214.46 214.46 0 0 0 28 55.36q18.25 26.06 42.64 36h-18.78q-35.48 0-53-28.92t-23.38-67.74l-2.82-34q-5.44 10.69-12.9 36.89t-10.68 40.92a155.59 155.59 0 0 1-9.77-21.67q-5.35-14-12.1-33.87t-9.58-27.92q0 17.54-7.66 50.7t-22.2 59.38q-14.51 26.21-34.27 26.2-12.3 0-21.17-11.49t-8.87-27.21a42.24 42.24 0 0 0 13.61 10.78 38.58 38.58 0 0 0 18 4.34q21.15 0 34-22.17a157.63 157.63 0 0 0 18-49.39q5.3-27.22 5.3-42.74 0-19.55-4-27.41t-17.74-7.86q-24.79 0-39.31 12.7t-14.55 34.46q0 16.12 6.25 28.22 6.86 9.48 13.91 18.75 0 2.62-4.33 4.64a18.2 18.2 0 0 1-7.36 2 64.53 64.53 0 0 1-12.4-14.11q-6.15-9.07-6.15-29.63 0-31 21.07-47t59.77-15.89z"/><path class="cls-1" d="M1039.87 130.57v74.58q.2 2.63 2.62 2.62a9.75 9.75 0 0 0 4.33-1.31q2.53-1.31 8.17-4.54a33.69 33.69 0 0 1-8.77 10.69q-6.16 5.24-11.79 5.24-3.23 0-8.36-4.43a14.92 14.92 0 0 1-5.14-11.89v-10.89q-12.3 12.3-20.76 19.76t-14.72 7.46q-6.85 0-12.19-8.06t-5.34-21.57q0-27.42 15.12-42.54t39.31-15.11zm-52.62 42.33q0 9.88 3.23 14.51a10.24 10.24 0 0 0 8.87 4.64 22.41 22.41 0 0 0 10.38-2.93 56.88 56.88 0 0 0 11.18-8v-45q-15.11 0-24.39 11.19a38.85 38.85 0 0 0-9.27 25.6zm89.36-43.33q5.61 0 7.11 5.34t1.5 18.65v9.07q7.69-10.68 15.59-21.37 9.92-11.69 19.64-11.69a10.41 10.41 0 0 1 8.6 3.93 14.89 14.89 0 0 1 3.14 9.58q0 6.85-7.66 15.22t-15.12 15.62a35.13 35.13 0 0 0 2-6.76 39.59 39.59 0 0 0 1-8.36 15.35 15.35 0 0 0-1.51-7.26 5.36 5.36 0 0 0-5.14-2.82q-3.83 0-9.57 7t-11 14v37.54a78.52 78.52 0 0 1-8 6.53 22.87 22.87 0 0 1-10.56 4.11v-66.58q0-4.22-4-4.22a9.14 9.14 0 0 0-4.23 1.31 24.92 24.92 0 0 0-5.44 4.33q3.2-6.66 11.42-14.92t12.23-8.25zm84.01 33.05a315.57 315.57 0 0 1 22.78-23.18q10.08-9.07 19.35-9.08h18.55a123.62 123.62 0 0 0-27.72 12.54 144.67 144.67 0 0 0-23.49 17q14.11 2.63 23.18 23.65t18.75 21a12.48 12.48 0 0 0 4.74-1.15 36 36 0 0 0 6.76-4.09 38.29 38.29 0 0 1-9.57 12.44q-6.76 6.11-13.41 6.11-9.68 0-19-21.66t-20.87-22.89V198a19.71 19.71 0 0 1-5.64 13.77 18.25 18.25 0 0 1-13.91 6.07V117.31q0-14.53 7.86-24.73a24.75 24.75 0 0 1 20.56-10.2h18.14q-6.45 11.69-16.73 12.4t-10.28 3.73zm206.83-81.24V85c1.48-.13 2.75-.2 3.83-.2a122 122 0 0 1 28.22 3.73q15.52 3.73 28.42 16t12.9 36.08q0 21.37-11.89 32.05t-30 10.69q-11.29 0-18-4.34t-6.75-9q9.07 6.85 11.79 8t9 1.11q11.08 0 19-9.57t7.86-30.54q0-28.83-17.34-38.51a75.7 75.7 0 0 0-37.49-9.68v110.31q0 12.3 13.61 20.06t13.61 15.62a16.8 16.8 0 0 1-.2 3q-4.23-8.47-12.5-11t-21.52-2.48q-25.61 0-40.52 12.75t-14.92 26.1q0 4.86 1.51 7.19t9.78 8q-2.22.2-3.43.21a26.45 26.45 0 0 1-12.2-2.83q-5.55-2.83-5.54-10.9 0-10.49 12.09-23 11.29-10.5 22.58-20.79 12.29-12.31 12.3-21.8v-63.18q0-9.09 3.83-24.51t13.1-22.71q-43.54 0-58.86 11.29t-15.32 29q0 20.57 10.89 34.78t32.45 23.89q-26 0-39.71-13.31t-13.71-36.89q0-28.22 23.69-41.43t65.4-13.19zm153.01 49.19v74.58c.13 1.75 1 2.62 2.61 2.62a9.78 9.78 0 0 0 4.34-1.31q2.52-1.31 8.17-4.54a33.66 33.66 0 0 1-8.77 10.69q-6.16 5.24-11.8 5.24-3.23 0-8.36-4.43a14.9 14.9 0 0 1-5.14-11.89v-10.89q-12.3 12.3-20.76 19.76t-14.75 7.46q-6.85 0-12.2-8.06t-5.34-21.57q0-27.42 15.12-42.54t39.31-15.11zm-52.62 42.33q0 9.88 3.23 14.51a10.24 10.24 0 0 0 8.87 4.64 22.39 22.39 0 0 0 10.38-2.93 56.86 56.86 0 0 0 11.19-8v-45q-15.12 0-24.39 11.19a38.84 38.84 0 0 0-9.28 25.6zm89.36-43.33q5.61 0 7.11 5.34t1.5 18.65v9.07q7.69-10.68 15.59-21.37 9.92-11.69 19.64-11.69a10.4 10.4 0 0 1 8.6 3.93 14.89 14.89 0 0 1 3.14 9.58q0 6.85-7.66 15.22T1590 173.91a35.18 35.18 0 0 0 2-6.76 39.61 39.61 0 0 0 1-8.36 15.32 15.32 0 0 0-1.51-7.26 5.35 5.35 0 0 0-5.14-2.82q-3.83 0-9.57 7t-11 14v37.54a79.31 79.31 0 0 1-8 6.53 22.91 22.91 0 0 1-10.57 4.11v-66.57q0-4.22-4-4.22a9.14 9.14 0 0 0-4.23 1.31 24.87 24.87 0 0 0-5.44 4.33q3.21-6.66 11.42-14.92t12.24-8.25zm84.8 0q6.25 0 8.77 4.84a24.62 24.62 0 0 1 2.52 11.49v56.64q.8 5.65 4.23 5.65 2.42 0 5.65-2.62l4.23-3.43q-4.84 8.22-9.78 12a18 18 0 0 1-11.19 3.75 10 10 0 0 1-8.47-4.42 17.27 17.27 0 0 1-3.22-10.46v-59.35c0-2.54-.94-3.82-2.82-3.82q-3.84 0-11.9 6.85 1-3.82 8.27-10.48t13.71-6.64zm2.62-43.95a11.18 11.18 0 0 1 8.47 3.63q3.42 3.63 3.43 9.88a12.64 12.64 0 0 1-6 11.08q-6 4-10.89 4-4.23 0-6.35-4.54a24.78 24.78 0 0 1-2.12-10.58q0-7.66 3.63-10.59t9.84-2.88zm86.89 43.29a43.92 43.92 0 0 0-5 10.91q-1.62 5.46-2.82 9.9-6.46-7.31-12.1-10.23a28.11 28.11 0 0 0-13.1-2.92q-7.46 0-10.48 2.63a8.94 8.94 0 0 0-3 7.1q0 5.07 15.12 11.46t23.87 12.67q8.77 6.28 8.77 20.06 0 16.23-10 21.49t-25.3 5.27q-15.52 0-19.76-5.75t-4.23-28.12a50.62 50.62 0 0 0 12.5 18.95 28.67 28.67 0 0 0 20.76 8.47q13.91 0 13.91-12.57 0-6.09-14.71-12.77t-23-13q-8.26-6.28-8.26-21.08 0-12.77 7.86-17.64t21-4.87a43.84 43.84 0 0 1 9.48 1.43 56.21 56.21 0 0 0 7.05 1.44 24.39 24.39 0 0 0 5.44-.52 31.21 31.21 0 0 0 6-2.31zm75.19 20.01v56.43q.2 2.64 2.42 2.63 3 0 11.49-6a33.36 33.36 0 0 1-8.36 11 18.25 18.25 0 0 1-12.4 4.9q-6.85 0-9.67-4.35a19 19 0 0 1-2.82-10.61v-43.7a21 21 0 0 0-.81-6.57q-.81-2.32-5-2.32-6.65 0-13.91 9.88t-7.26 13.91V198a19.69 19.69 0 0 1-5.64 13.77 18.24 18.24 0 0 1-13.91 6.07V117.31q0-14.53 7.86-24.73a24.75 24.75 0 0 1 20.56-10.2h18.14q-6.45 11.69-16.73 12.4t-10.28 3.73v65.12q10-16.93 19.17-25.2t15.35-8.27q7.22 0 9.54 4t2.26 14.76zM161.04 218.91l5.54 5.55h7.57v-7.57l-5.55-5.55 7.4-7.39 7.4 7.39-5.55 5.55v7.57h7.57l5.54-5.55 7.4 7.4-7.4 7.39-5.54-5.55h-7.57v7.57l5.55 5.55-7.4 52.21-7.4-52.21 5.55-5.55v-7.57h-7.57l-5.54 5.55-7.4-7.39 7.4-7.4z"/><path class="cls-1" d="M0 0v88c0 191 83.16 269.48 176 297.33C268.84 357.48 352 279 352 88V0zm210.54 60.21c.47-1.25 1.69-2.09 2.41-2 1.66.23 2.32 1.69 2.17 3.88L213.45 60c-.2.55-.22 1-.45 1.15a22.11 22.11 0 0 1-2.07 1.16c-.15-.75-.56-1.64-.39-2.1zm-12.44 14.2c1-.81 2.1-1.41 3.07-2.21a7.07 7.07 0 0 0 1.57-1.8c.89-1.48 1.66-3 2.75-5-.64-1.6.22-3.31 3.07-4.44-.82 1.89-.12 2.56 1.71 2.21 3.38-.65 6.2.13 8.3 3.54.33-2.15 1.28-1.17 2.18-.41.2-1.92-.55-2.74-1.91-3.14-.57-.17-1.4-.15-1.66-.53a8 8 0 0 1-1.33-3.05c0-.27 1.32-1.07 2.07-1.12a15 15 0 0 1 3.34.48 3.35 3.35 0 0 1-1.49 1c2.36 1.08 4.68 2 6.88 3.19 2 1.08 4 2.39 6.06 3.68.11 3.69.72 4.44 4.85 5.4l-1 2c1.21-.22 2.38-.09 2.79-.59a4 4 0 0 0 1-2.92c-1-4.32-2.19-8.58-3.36-13h1.41c0-.58.1-1.21.16-1.85.32-3.46 1.81-6.07 5.22-7.36a52.39 52.39 0 0 1 7.74-.89c2.14.58 4.26 1.24 6.41 1.74 7.86 1.81 15.69.8 23.5-.41.29 0 .84-.25 1.5-.4a15 15 0 0 1-1.65 2.3c3.28-.42 7.14-1 10.31-1.38.16.33-1.29 1.67-2.3 2.15l20.68 2.5a29.55 29.55 0 0 0-4.14 3l5.93.35c0 .3-3.37 2.36-5 3.09v6.6L302.25 64a29.53 29.53 0 0 0 2.75 4.66h-7.25l.7 2.56c-4.92-2.16-10.54-1.6-14-6.35 3 4.56 6.11 5.84 10.19 7.18-3.56 1.4-6.62.11-9.63-1.54a20.29 20.29 0 0 0 3.91 3c-1.61 2.1-3.74 1.57-5.64 1.17-1.31-.27-2.36-.75-3.77 0-.65.35-2-.29-2.85-.72a17.45 17.45 0 0 1-2.5-1.76c-.18.16 1 2.45 2 3.69-3.72.65-6.17-1.06-8.2-3.84-.19.2 1.1 2.87 2 4.15-2.52.81-4.42-.67-6.63-1.61l.7 2.74a35.38 35.38 0 0 0-3.55-1.33 24.12 24.12 0 0 0-5.38-1c-3.22 0-3.75.77-2.87 3.91a5.14 5.14 0 0 0-1.43.21 16.52 16.52 0 0 0-1.86 1.16c.67.42 1.3 1.09 2 1.2a6.55 6.55 0 0 0 2.85-.3c8.12-2.54 15.82-1 23.47 2.06 6.23 2.5 10.73 6.3 13.28 12.87 1.22 3.15 4.38 5.73 7.09 8.06a4.3 4.3 0 0 0 6.34-.86c1.5-2 1.52-6.36-.17-7.71s-3.57-2.41-5.73-3.84l2.14-1.1c-2.12 0-3.14-1.2-3.21-3.24a45.39 45.39 0 0 1 .26-6.81l1.38 3.12c-.07-5.11-.07-5.11 1.45-5.93-1 2.22.34 3.26 1.46 4.59a22.72 22.72 0 0 1 2.27 4.22l-.35-3.83c.64.6 1.17.86 1.28 1.24.9 3.15 2.81 6.23.69 9.63-.27.43 0 1.22.09 1.83a31 31 0 0 1 .81 5.46 5.82 5.82 0 0 1-8.08 5.3c-2.3-.93-4.35-2.47-7-4a12.4 12.4 0 0 0 1 2c2.89 3.49 6.38 6 11 6.59l1.1.15c4.43.51 4.53.73 4 5.09-.37 3.37-.09 6.85-.84 10.11-.45 1.93-2.14 3.75-3.69 5.17-.93.86-2-.23-2.47-2.52-1.19.59-.27 3.93-2.84 2.42-1.71-1-.93-2.52-.37-4.06l-1.62 2.34c-1.62-1.8-1.17-3.69 1.16-4.38.78-.23 1.59-.38 2.39-.56 1.68-.39 2.9-1.32 2.94-3.14s-.78-3.64-2.8-4a33.47 33.47 0 0 0-6.18-.41 22.22 22.22 0 0 0-4 .49c-4.92.89-8.54-.68-10.87-5.27-1.42-2.81-1.7-2.91-4.28-.89a41.35 41.35 0 0 0-6.12 6c-1.23 1.46-1.09 3.27.21 4.92a2.77 2.77 0 0 1-1.72 4.65 6.81 6.81 0 0 0-4.8 2.88 3.17 3.17 0 0 1-1.71 1.29 12.64 12.64 0 0 1-3-.1l.59-3c-.47.77-.78 1.31-1.12 1.82s-.69 1.36-1.21 1.55a1.79 1.79 0 0 1-1.56-.83 3.38 3.38 0 0 1 0-2.27c.21-.54 1-.87 1.73-1.52-2.42 0-2.48 2-3.32 3.23a2.47 2.47 0 0 1-.9-3.69c.77-1.41 1.74-2.72 3.87-2.25a20.91 20.91 0 0 0 5.46.45c2-.1 2.65-1.5 1.69-3.31s-1.88-3.38-2.87-5c-2.49-4.16-2.21-6 1.49-9.25a4.49 4.49 0 0 0 1.11-1.32c-5.5 3.82-11 7.44-18.49 5.56a23.24 23.24 0 0 0 .5 11.86 7.25 7.25 0 0 1-3.08 8.61c-1.59 1-3 .21-4-2.5l-.71 3.34H235l-.77-3.64-1.4 2.15c-1.82-1.73-1.53-3.63.79-4.55 1.31-.52 2.72-.78 4-1.32 1.65-.7 2.59-2.06 1.7-3.75-1.81-3.45-3.87-6.76-6-10.35l-1.06 1.37c-1.14-.33-1.56-2.78-2.78-1.07l-4.87-4.09c.72 3.17 3.73 5.46 1.32 8.95 0-2.52-1.24-3.07-3-3-1.5 0-2.29.54-2.19 2.29.14 2.63-.11 2.79-2.93 2.94 1.87-3.1-.21-4.55-2.24-6.25a52.73 52.73 0 0 1-4.76-5.17l-2.17 1.84-1.07-4.91-3.79 2.54c1.1-1.94 2.14-3.75 1-6.53l-2.57 2.94a25 25 0 0 1 .33-4c.38-1.47.54-2.6-1.35-3a10.69 10.69 0 0 1-2-.87l.75-.75c.81-.76 2.54-.56 3-1.33s-.36-2-.62-3.13c3.86.21 5.81-1.13 7.06-4.9.12-.36-.51-1.38-.76-1.37a10.12 10.12 0 0 0-3.62.64c-1.71.78-3.08 1-4.18-.86a4.9 4.9 0 0 0-1.13-1.06c-1.45-1.24-2.71-2.48-.76-4.37.28-.28.16-1 .22-1.48a6.25 6.25 0 0 0-1.78 2.58c-.8-2.13-.58-3.46.73-4.57zM194.56 126a2.8 2.8 0 0 1 3.05-1.2c3.61.58 6-.67 7.57-3.94 1.89-3.91 4-7.73 6-11.62l4.29 4.75c-1.81 3.35-3.55 6.57-5.31 9.79a17.45 17.45 0 0 1-1.07 1.65 30.67 30.67 0 0 0-2.85 4.1c-1 2.05-2.79 1.86-4.37 1.76-.78 0-1.49-1.26-2.37-2.08-.62.37-.62 3.09-2.56 1.5-.72-.59-.6-2.22-.84-3.28-.28.14-1-.37-1.93 1a3.87 3.87 0 0 1 .39-2.43zM93 72.26s8.61-8 20.84-8 25 10.19 33.13 10.19l-.57 47.68c-8.09 0-20.32-10.85-32.55-10.85S93 120.64 93 120.64zm-22-8c12.23 0 20.84 8 20.84 8v48.38S83.23 111.3 71 111.3s-24.48 10.8-32.57 10.8l-.57-47.68c8.09 0 20.89-10.2 33.14-10.2zM33.45 80.35a5.76 5.76 0 0 1 1.65-.7v47.79c8.64 0 21.71-11.59 34.76-11.59a37.63 37.63 0 0 1 22.26 7.73H93a37.63 37.63 0 0 1 22.26-7.73c13.06 0 26.12 11.59 34.76 11.59V79.65a5.77 5.77 0 0 1 1.66.7c1.66 1.29 1.47 26.85 1.47 30.17s0 19.13-1.47 20-55-5.7-55-5.7 1.1 2.58-3.68 2.58h-.92c-4.78 0-3.68-2.58-3.68-2.58s-53.53 6.62-55 5.7-1.4-16.7-1.4-20.01-.2-28.88 1.45-30.16zm188.22 276a22.16 22.16 0 0 1-4.57.5c-5.38 0-10.44-1.79-13.7-4.71-3.26 2.92-8.32 4.71-13.7 4.71s-10.45-1.79-13.7-4.71c-3.26 2.92-8.32 4.71-13.7 4.71s-10.45-1.79-13.7-4.71c-3.26 2.92-8.32 4.71-13.7 4.71a21.9 21.9 0 0 1-4.62-.53q-6.55-3.6-12.9-7.71a9.58 9.58 0 0 0 1.88-2l1.94-2.83 1.95 2.83c2.17 3.15 6.78 5.19 11.75 5.19s9.59-2 11.76-5.19l1.95-2.83 1.95 2.83c2.17 3.15 6.78 5.19 11.76 5.19s9.59-2 11.76-5.19l1.95-2.83 1.95 2.83c2.17 3.15 6.78 5.19 11.76 5.19s9.59-2 11.76-5.19l1.95-2.83 1.95 2.83c2.17 3.15 6.78 5.19 11.76 5.19s9.59-2 11.76-5.19l1.95-2.83 1.94 2.83a9.61 9.61 0 0 0 1.88 2q-6.43 4.11-13.01 7.73zm29.78-19.88a23.59 23.59 0 0 1-6.95 1.05c-5.38 0-10.44-1.79-13.7-4.72-3.26 2.92-8.32 4.72-13.7 4.72s-10.44-1.79-13.7-4.71c-3.26 2.92-8.32 4.71-13.7 4.71s-10.45-1.79-13.7-4.71c-3.26 2.92-8.32 4.71-13.7 4.71s-10.45-1.79-13.7-4.71c-3.26 2.92-8.32 4.71-13.7 4.71s-10.44-1.79-13.7-4.71c-3.26 2.92-8.32 4.71-13.7 4.71a23.57 23.57 0 0 1-6.94-1.05q-4.85-3.89-9.53-8.15a9 9 0 0 0 .83-1l1.95-2.83 1.94 2.83c2.17 3.16 6.78 5.19 11.76 5.19s9.59-2 11.76-5.19l1.94-2.83 1.95 2.83c2.17 3.16 6.78 5.19 11.75 5.19s9.59-2 11.76-5.19l1.95-2.83 1.95 2.83c2.17 3.16 6.78 5.19 11.76 5.19s9.59-2 11.76-5.19l1.95-2.83 1.95 2.83c2.17 3.16 6.78 5.19 11.76 5.19s9.59-2 11.76-5.19l1.95-2.83 1.95 2.83c2.17 3.16 6.78 5.19 11.76 5.19s9.59-2 11.76-5.19l1.95-2.83 1.94 2.83c2.17 3.16 6.79 5.19 11.76 5.19s9.59-2 11.76-5.19l1.95-2.83 1.95 2.83a9 9 0 0 0 .83 1q-4.76 4.25-9.62 8.14zm23.68-22.36c-4.56-.9-8.32-3.15-10.35-6.1-2.65 3.86-8.29 6.54-14.8 6.54s-12.15-2.67-14.8-6.54c-2.65 3.86-8.29 6.54-14.8 6.54s-12.14-2.67-14.8-6.54c-2.66 3.86-8.29 6.54-14.8 6.54S178.65 311.86 176 308c-2.65 3.86-8.29 6.54-14.8 6.54s-12.14-2.67-14.8-6.54c-2.65 3.86-8.29 6.54-14.8 6.54s-12.14-2.67-14.8-6.54c-2.65 3.86-8.29 6.54-14.8 6.54s-12.14-2.67-14.8-6.54c-2 2.95-5.79 5.2-10.35 6.1-26.6-29.51-47.48-69.91-58.56-124.62H333.7c-11.08 54.71-31.96 95.11-58.56 124.62z"/></svg>