<svg class="svg-icon svg-icon__avatar-plus" xmlns="http://www.w3.org/2000/svg" viewBox="0 0 399.22 409.6">
    <path d="M318.66,246.49c-1.35-1.44-2.71-2.87-4.11-4.27a183.09,183.09,0,0,0-84.8-48.34,102.29,102.29,0,1,0-91,0A184.46,184.46,0,0,0,0,372.52a8.16,8.16,0,0,0,8.16,8.16H255.42a81.54,81.54,0,1,0,63.25-134.18ZM98.29,102.29a86,86,0,1,1,86,86,86.07,86.07,0,0,1-86-86ZM16.51,364.36c4.27-88.83,77.88-159.78,167.75-159.78a167.27,167.27,0,0,1,113.57,44.34,81.53,81.53,0,0,0-53.18,115.44Zm301.15,28.92A65.24,65.24,0,1,1,382.91,328a65.32,65.32,0,0,1-65.24,65.24Zm0,0" style="fill:#fff"/><path d="M116.74,243.33a8.16,8.16,0,0,0-11.19-2.82,154.62,154.62,0,0,0-70.72,96,8.16,8.16,0,0,0,6,9.84,8.06,8.06,0,0,0,1.91.23,8.16,8.16,0,0,0,7.93-6.26,138.2,138.2,0,0,1,63.22-85.78,8.16,8.16,0,0,0,2.82-11.19Zm0,0"/>
    <path d="M184.26,218.85A154.37,154.37,0,0,0,148.65,223a8.16,8.16,0,0,0,1.88,16.1,8.3,8.3,0,0,0,1.89-.22,138.05,138.05,0,0,1,31.84-3.71,8.16,8.16,0,1,0,0-16.32Zm0,0"/>
    <path d="M351.3,321.36H325.94V296a8.16,8.16,0,1,0-16.32,0v25.36H284.27a8.16,8.16,0,1,0,0,16.32h25.36V363a8.16,8.16,0,0,0,16.32,0V337.68H351.3a8.16,8.16,0,1,0,0-16.32Zm0,0"/>
</svg>