<svg class="svg-icon svg-icon__form" xmlns="http://www.w3.org/2000/svg" viewBox="0 0 337.79 347.34"><path d="M261.09,184.16V28H28V319.36H135.2a14,14,0,1,1,0,28H14a14,14,0,0,1-14-14V14A14,14,0,0,1,14,0H275.07a14,14,0,0,1,14,14V184.16a14,14,0,1,1-28,0Zm72,34a14,14,0,0,0-19.81,1.16l-76.7,85.32-38.46-37.07a14,14,0,1,0-19.35,20.28l49,47.09a13.74,13.74,0,0,0,9.79,4H238a14,14,0,0,0,9.79-4.66l86.25-96a14.06,14.06,0,0,0-.93-20ZM209.8,81.59H83.92a14,14,0,1,0,0,28H209.8a14,14,0,0,0,0-28Zm14,90.91a14,14,0,0,0-14-14H83.92a14,14,0,1,0,0,28H209.8a14,14,0,0,0,14-14ZM83.92,233.11a14,14,0,1,0,0,28h37.3a14,14,0,0,0,0-28Zm0,0" style="fill:#fff"/></svg>