<svg class="svg-icon svg-icon__speech-blurb" xmlns="http://www.w3.org/2000/svg" viewBox="0 0 354.27 325.16">
    <path d="M288.85,0H65.42A65.49,65.49,0,0,0,0,65.42v136a65.49,65.49,0,0,0,65.42,65.42H219.66l55.75,55.74a8.72,8.72,0,0,0,14.89-6.17V266.85a65.5,65.5,0,0,0,64-65.4v-136A65.49,65.49,0,0,0,288.85,0Zm48,201.45a48,48,0,0,1-48,48h-7.27a8.72,8.72,0,0,0-8.72,8.72v37.24L229.44,252a8.72,8.72,0,0,0-6.16-2.55H65.42a48,48,0,0,1-48-48v-136a48,48,0,0,1,48-48H288.85a48,48,0,0,1,48,48Zm0,0"/>
    <path d="M95.36,114.45A19.63,19.63,0,1,0,115,134.07a19.63,19.63,0,0,0-19.62-19.63Zm0,0"/>
    <path d="M177.13,114.45a19.63,19.63,0,1,0,19.62,19.63,19.63,19.63,0,0,0-19.62-19.63Zm0,0"/>
    <path d="M258.91,114.45a19.63,19.63,0,1,0,19.62,19.63,19.63,19.63,0,0,0-19.62-19.63Zm0,0"/>
></svg>