<svg id="Layer_1" data-name="Layer 1" xmlns="http://www.w3.org/2000/svg" viewBox="0 0 331 331"><title>twitter-circ</title><circle cx="165.5" cy="165.5" r="160.5" style="fill:none;stroke:#fff;stroke-miterlimit:10;stroke-width:10px"/><path d="M256.31,109.18a74.37,74.37,0,0,1-21.39,5.89,37.57,37.57,0,0,0,16.41-20.63,74.23,74.23,0,0,1-23.72,9A37.25,37.25,0,0,0,163.2,129a38.37,38.37,0,0,0,.95,8.49A105.8,105.8,0,0,1,87.33,98.54a37.26,37.26,0,0,0,11.52,49.72A36.6,36.6,0,0,1,82,143.6v.46a37.34,37.34,0,0,0,29.87,36.57,38.12,38.12,0,0,1-9.8,1.27,37.33,37.33,0,0,1-7-.66,37.37,37.37,0,0,0,34.8,25.88A74.85,74.85,0,0,1,83.56,223a78.63,78.63,0,0,1-8.87-.5,105.44,105.44,0,0,0,57.13,16.74c68.51,0,106-56.75,106-106l-.11-4.82a75.06,75.06,0,0,0,18.62-19.29Zm0,0" style="fill:#fff"/></svg>