<svg class="svg-icon svg-icon__vimeo-circ" xmlns="http://www.w3.org/2000/svg" viewBox="0 0 331 331">
    <circle cx="165.5" cy="165.5" r="160.5" style="fill:none;stroke-miterlimit:10;stroke-width:10px"/>
    <path d="M225.86,91.61q-35.58-1.15-48.17,39.92a33.16,33.16,0,0,1,12.63-2.68q13,0,11.46,14.58-.76,8.84-11.46,25.73t-16,16.9q-6.91,0-12.63-26.11-1.93-7.68-6.87-39.17-4.62-29.18-24.48-27.26-8.42.78-25.21,15.36Q92.83,120,80.21,131.17l8,10.35c7.65-5.39,12.13-8.06,13.37-8.06q8.8,0,16.46,27.63,6.86,25.36,13.78,50.69c6.84,18.43,15.28,27.64,25.2,27.64q24.08,0,58.89-45.29,33.62-43.38,34.78-68.36,1.54-33.39-24.85-34.16Zm0,0" style="stroke: none"/>
</svg>