<svg class="svg-logo svg-logo__colored" xmlns="http://www.w3.org/2000/svg" viewBox="0 0 1066.6667 800" height="800" width="1066.667"><path d="M38.71 43.992h211.027v298.69H38.71z" fill="#fbb03b"/><path d="M249.737 43.992H38.71v298.69h211.028zm-11.48 287.21H50.188V55.473h188.07z" fill="#c1272d"/><g clip-path="url(#clipPath22)" transform="matrix(1.33333 0 0 -1.33333 0 800)"><path d="M81.04 374.406c4.604-3.398 5.338-13.26-3.96-18.08 5.683-1.205 9.31-.922 14.293 1.894 3.96 2.239 5.336 3.96 6.886 9.126 1.506 5.016.173 8.093.173 8.093s10.503-14.464 33.06-2.927c-10.847 2.066-12.053 4.477-13.602 8.437 6.197-1.205 23.42 1.06 39.086 16.53 13.603 13.43 14.464 24.279 12.742 32.027-5.338-6.543-10.312-7.864-12.914-1.033-4.133 10.848 8.954 11.192 12.742 17.563 3.984 6.702 2.755 11.02 2.755 11.02s-9.7-14.168-14.12-2.583c-4.993 13.087 8.782 8.266 8.782 8.266-2.583 5.51-4.132 9.298-19.113 14.119-14.98 4.82-13.258 14.808-10.16 19.113 4.81 6.68 12.054 4.649 12.054 4.649s-3.1 5.854-11.364 2.927c-8.23-2.914-25.312-8.437-27.55 9.643-2.24 18.08 17.39 39.775 17.39 39.775s-10.844-2.767-19.112-11.708c-8.301-8.976-14.302-14.261-15.67-34.266-1.374-20.111 2.907-36.627-2.926-42.703-4.133-4.304-10.2-4.142-11.28.259-1.118 4.563 3.1 10.503 3.1 10.503s-15.841-1.55-29.616-27.722c-13.775-26.173-8.954-40.637-2.497-49.332 4.16-5.603 10.13-8.45 14.722-10.245 5.94-2.325 7.663-2.153 7.663-2.153-5.682-.172-9.901-3.874-10.417-16.616 4.907 6.629 11.622 10.762 18.854 5.424" fill="#c1272d"/><path d="M91.028 391.108c1.884 5.102 3.354 6.212 5.337 6.543 1.985.33 4.788-5.186 17.392-5.337 10.448-.126 26.405 5.374 32.342 27.605 6.055 22.673 3.805 23.295 2.976 23.477-1.053.23-8.597-8.598-16.863-14.715-8.267-6.117-26.072-9.217-25.515-6.062.827 4.794 3.69 14.163 19.728 28.878 16.037 14.714 7.485 11.91 3.518 11.414-3.97-.496-7.707.22-10.85 1.377-3.14 1.157-5.233 4.569-6.721 3.576-1.488-.991-.165-2.976-1.984-9.258-1.137-3.93-4.176-11.112-6.778-20.005-1.985-6.78-4.207-17.704-5.695-17.704-1.488 0-4.794 3.744-4.132 15.152.645 11.138 5.143 21.362 3.544 21.895-2.48.827-13.227-4.96-21.328-18.186-8.101-13.226 4.299-30.917 5.62-33.727 1.324-2.811 1.24-3.748.828-5.456-.373-1.546-4.161-3.268-3.99-7.401.14-3.345 2.584-8.437 10.505-9.986-3.961 6.715.383 3.365 2.066 7.92" fill="#fff"/><path d="M241.025 459.292c2.441.162 4.785.806 7.031 1.929 2.246 1.123 4.053 2.774 5.42 4.956 1.432 2.31 2.15 5.11 2.15 8.398v.537c-.099 3.385-1.369 5.957-3.81 7.715-1.107.846-2.458 1.497-4.053 1.953a70.797 70.797 0 0 1-10.522 1.978c-3.63.406-7.137 1.424-10.523 3.052-3.125 1.464-5.444 3.604-6.958 6.42-1.513 2.816-2.27 5.851-2.27 9.107 0 6.348 2.23 11.556 6.69 15.625 4.621 4.264 10.432 6.396 17.431 6.396h1.514c7.52-.325 14.094-2.311 19.726-5.957l-1.22-10.791c-.13-1.172-.847-1.757-2.149-1.757h-.244c-.977.064-1.758.732-2.344 2.002-1.302 2.798-3.198 5.159-5.688 7.08-2.49 1.92-5.136 2.945-7.935 3.076h-.732c-2.8 0-5.258-.489-7.373-1.465-1.4-.716-2.507-1.498-3.32-2.344-.782-.847-1.482-1.889-2.1-3.125-.489-1.01-.863-2.197-1.123-3.564-.228-1.01-.342-1.953-.342-2.832 0-1.172.18-2.263.537-3.272.618-1.986 1.676-3.5 3.174-4.541a9.777 9.777 0 0 1 3.662-1.758c.813-.228 1.79-.439 2.93-.634 1.14-.196 2.343-.391 3.613-.586 1.855-.293 3.833-.603 5.932-.928 2.1-.326 4.16-.781 6.177-1.367 3.483-1.14 6.087-2.637 7.813-4.492a21.232 21.232 0 0 0 3.076-4.688c.911-2.246 1.367-4.704 1.367-7.373 0-7.227-2.946-13.249-8.838-18.066a31.01 31.01 0 0 0-10.156-5.567c-2.995-.943-6.185-1.48-9.57-1.611a48.184 48.184 0 0 0-2.149-.049c-4.655 0-9.326.717-14.013 2.148l-4.786 13.331c-.097.259-.146.52-.146.781 0 .488.163.96.488 1.416.488.781 1.253 1.172 2.295 1.172.88-.229 1.595-.912 2.15-2.051 1.984-4.33 4.442-7.194 7.372-8.594 2.408-1.172 5.501-1.758 9.277-1.758.813 0 1.66.033 2.54.098m65.331 33.545c-1.042.977-2.58 1.953-4.614 2.93-2.035.976-3.8 1.497-5.298 1.562h-.147c-.456 0-.944-.097-1.464-.293a224.82 224.82 0 0 1-3.492-1.294 220.963 220.963 0 0 0-3.49-1.294c-.62-.26-1.108-.586-1.466-.976-1.888-2.02-3.157-4.477-3.808-7.373a28.467 28.467 0 0 1-.83-6.74c0-.682.032-1.4.097-2.147.358-4.525 1.58-8.187 3.662-10.986 2.018-2.832 4.525-4.656 7.52-5.47a11.856 11.856 0 0 1 4.443-.44c.586.066 1.32.246 2.198.539.748.259 1.92.69 3.515 1.294l3.174 1.196zm0-34.473l-11.719-4.297c-1.204-.422-2.23-.634-3.076-.634h-2.05c-5.014.26-9.278 2.246-12.794 5.957-3.548 3.775-5.566 8.349-6.054 13.72a41.992 41.992 0 0 0-.196 4.004c0 1.725.114 3.402.342 5.03.423 2.896 1.546 5.777 3.37 8.642.878 1.53 2.408 3.125 4.59 4.785a16.34 16.34 0 0 0 2.685 1.465c2.636.977 5.265 1.953 7.885 2.93 2.621.976 5.25 1.953 7.886 2.93.716.259 1.4.39 2.051.39h.293c2.213-.097 4.883-.651 8.008-1.66.325-.098.52-.18.586-.244a39.115 39.115 0 0 1 2.49-.88c.26-.097.504-.145.732-.145a.79.79 0 0 1 .49.146c.617.52 1.04.943 1.268 1.27.423.552.993.83 1.71.83.357 0 .683-.066.976-.196 1.204-.424 1.806-1.042 1.806-1.855v-37.793c0-1.693.814-2.824 2.442-3.394 1.627-.57 2.441-1.473 2.441-2.71 0-1.334-.749-2.002-2.246-2.002h-11.865c-1.367 0-2.05.538-2.05 1.612zm37.598 40.479c.651.228 1.66.602 3.027 1.123 1.368.52 2.67.992 3.907 1.416a40.77 40.77 0 0 0 9.668 2.148c.455.033.911.049 1.367.049 3.06 0 5.94-1.025 8.642-3.076 4.2-3.222 6.3-9.945 6.3-20.166v-17.578c0-1.693.813-2.824 2.441-3.394 1.627-.57 2.441-1.473 2.441-2.71 0-1.333-.732-2.001-2.197-2.001h-11.866c-1.367 0-2.05.537-2.05 1.61v24.073c0 6.9-1.384 11.702-4.15 14.404-1.66 1.627-3.663 2.442-6.007 2.442-1.399 0-2.946-.277-4.638-.83-.717-.261-1.62-.595-2.71-1.001a135.622 135.622 0 0 1-2.857-1.1c-.749-.26-1.188-.423-1.318-.487v-31.006c0-1.693.813-2.824 2.441-3.394 1.628-.57 2.442-1.473 2.442-2.71 0-1.333-.733-2.001-2.197-2.001h-16.553c-1.498 0-2.246.668-2.246 2 0 1.238.813 2.14 2.441 2.71 1.628.57 2.442 1.702 2.442 3.395v31.25c0 1.627-.814 2.734-2.442 3.32-1.628.586-2.44 1.514-2.44 2.784 0 1.334.731 2 2.196 2a28.4 28.4 0 0 1 6.08.978c2.033.553 4.646 1.367 7.836 2.44zm48.145-2.979c-.391 0-1.823-.065-4.297-.195h-.293c-1.4 0-2.132.65-2.197 1.953v.097c0 .88.52 1.563 1.562 2.051.619.293 1.937.992 3.955 2.1.52.26 1.058.504 1.612.732.097.033.146.065.146.098 0 .032-.163.05-.488.05v7.372c0 1.855.407 3.165 1.22 3.93.814.765 2.474 1.75 4.98 2.955 1.075.52 1.987.781 2.736.781 1.562 0 2.343-.749 2.343-2.246v-12.598l10.4.195h.05c1.3 0 1.953-.749 1.953-2.246 0-.488-.066-1.09-.196-1.806-.456-2.084-1.595-3.125-3.418-3.125l-8.79.048v-29.638c0-2.67.92-4.655 2.76-5.957 1.839-1.303 3.719-2.084 5.64-2.344v-3.369c-5.795 0-10.523.505-14.185 1.514-3.662 1.008-5.493 4.882-5.493 11.621zm62.109-3.027c-1.042.977-2.58 1.953-4.614 2.93-2.035.976-3.801 1.497-5.298 1.562h-.147c-.456 0-.944-.097-1.464-.293a224.82 224.82 0 0 1-3.492-1.294 224.698 224.698 0 0 0-3.491-1.294c-.619-.26-1.107-.586-1.465-.976-1.888-2.02-3.158-4.477-3.808-7.373a28.467 28.467 0 0 1-.83-6.74c0-.682.032-1.4.097-2.147.358-4.525 1.578-8.187 3.662-10.986 2.018-2.832 4.525-4.656 7.52-5.47a11.856 11.856 0 0 1 4.443-.44c.586.066 1.319.246 2.198.539.748.259 1.919.69 3.515 1.294l3.174 1.196zm0-34.473l-11.719-4.297c-1.205-.422-2.23-.634-3.076-.634h-2.051c-5.013.26-9.277 2.246-12.793 5.957-3.549 3.775-5.566 8.349-6.054 13.72a41.992 41.992 0 0 0-.196 4.004c0 1.725.114 3.402.342 5.03.423 2.896 1.546 5.777 3.369 8.642.879 1.53 2.408 3.125 4.59 4.785a16.34 16.34 0 0 0 2.686 1.465c2.636.977 5.264 1.953 7.885 2.93 2.621.976 5.249 1.953 7.886 2.93.716.259 1.4.39 2.051.39h.293c2.213-.097 4.883-.651 8.008-1.66.325-.098.52-.18.586-.244.65-.261 1.48-.554 2.49-.88.26-.097.504-.145.732-.145a.79.79 0 0 1 .489.146c.618.52 1.041.943 1.269 1.27.423.552.992.83 1.709.83.358 0 .684-.066.977-.196 1.204-.424 1.806-1.042 1.806-1.855v-37.793c0-1.693.814-2.824 2.442-3.394 1.627-.57 2.441-1.473 2.441-2.71 0-1.334-.749-2.002-2.246-2.002H456.26c-1.367 0-2.051.538-2.051 1.612zm106.104 53.272c0-1.335-.75-2.002-2.246-2.002-.75 0-1.726.814-2.93 2.44-1.628 2.214-2.963 3.867-4.004 4.958-1.042 1.09-2.343 1.635-3.906 1.635h-11.035v-55.908c0-1.693.813-2.832 2.44-3.418 1.628-.586 2.443-1.498 2.443-2.734 0-1.302-.733-1.953-2.198-1.953h-16.552c-1.498 0-2.246.65-2.246 1.953 0 1.236.813 2.148 2.44 2.734 1.628.586 2.442 1.725 2.442 3.418v55.908h-11.23c-1.563 0-2.881-.545-3.955-1.635-1.074-1.091-2.41-2.744-4.004-4.957-1.14-1.627-2.1-2.441-2.881-2.441-1.498 0-2.246.667-2.246 2.002v9.033c0 2.083.439 3.394 1.318 3.93.879.538 2.702.807 5.469.807h46.094c2.994 0 4.874-.253 5.64-.757.764-.505 1.147-1.831 1.147-3.98zm7.861-28.028h23.242c0 3.19-.863 6.38-2.588 9.57-1.498 2.767-4.281 4.151-8.35 4.151h-.536c-4.07-.13-7.024-1.669-8.863-4.615-1.84-2.946-2.807-5.98-2.905-9.106m-11.768-.879c.944 6.217 3.467 11.231 7.569 15.04 4.1 3.808 9.505 5.744 16.21 5.81h.196c6.803 0 12.027-1.953 15.674-5.86 3.548-3.906 5.322-8.935 5.322-15.088-.033-1.335-.098-2.425-.195-3.27-.098-.848-1.156-1.27-3.174-1.27h-29.883c.098-4.46 1.359-8.326 3.784-11.597 2.425-3.272 5.428-5.266 9.009-5.982 1.04-.228 2.1-.34 3.174-.34 2.864 0 5.843.844 8.936 2.538 2.083 1.106 3.564 1.66 4.443 1.66.455 0 .879-.13 1.269-.39.326-.327.489-.7.489-1.124 0-.554-.244-1.269-.733-2.148-.424-.879-.773-1.465-1.05-1.758a39.344 39.344 0 0 0-.756-.78c-3.81-3.289-8.936-4.933-15.381-4.933-8.985.065-15.707 2.93-20.166 8.594-3.451 4.361-5.176 9.505-5.176 15.43 0 1.757.146 3.58.439 5.468m67.481 1.954v-21.924c0-1.693.806-2.824 2.417-3.393 1.61-.571 2.417-1.474 2.417-2.71 0-1.334-.732-2.002-2.197-2.002H609.97c-1.498 0-2.246.668-2.246 2.002 0 1.236.813 2.139 2.44 2.71 1.628.569 2.443 1.7 2.443 3.393v31.25c0 1.627-.815 2.735-2.442 3.32-1.628.586-2.441 1.514-2.441 2.784 0 1.334.732 2.002 2.197 2.002 2.018.097 4.044.422 6.079.976 2.034.553 4.663 1.367 7.886 2.442v-6.348l5.078 1.904c2.506.944 4.476 1.66 5.908 2.149a7.321 7.321 0 0 0 1.953.244c1.368 0 3.32-.44 5.86-1.32l-1.221-13.866h-4.346c-1.27 4.752-3.385 7.129-6.347 7.129a8.06 8.06 0 0 1-.928-.05c-1.986-.227-3.451-1.341-4.395-3.343-.944-2.002-1.464-4.453-1.562-7.35m33.887-1.074h23.242c0 3.19-.863 6.38-2.588 9.57-1.498 2.767-4.28 4.151-8.349 4.151h-.537c-4.07-.13-7.024-1.669-8.863-4.615-1.84-2.946-2.807-5.98-2.905-9.106m-11.768-.879c.944 6.217 3.467 11.231 7.57 15.04 4.1 3.808 9.504 5.744 16.21 5.81h.195c6.803 0 12.027-1.953 15.674-5.86 3.548-3.906 5.322-8.935 5.322-15.088-.033-1.335-.098-2.425-.195-3.27-.098-.848-1.156-1.27-3.174-1.27h-29.883c.098-4.46 1.36-8.326 3.784-11.597 2.425-3.272 5.428-5.266 9.01-5.982 1.04-.228 2.1-.34 3.173-.34 2.864 0 5.843.844 8.936 2.538 2.083 1.106 3.564 1.66 4.443 1.66.455 0 .88-.13 1.27-.39.325-.327.488-.7.488-1.124 0-.554-.244-1.269-.733-2.148-.424-.879-.773-1.465-1.05-1.758a39.344 39.344 0 0 0-.756-.78c-3.809-3.289-8.936-4.933-15.38-4.933-8.986.065-15.708 2.93-20.167 8.594-3.45 4.361-5.176 9.505-5.176 15.43 0 1.757.146 3.58.44 5.468m70.605 20.655c5.013-.261 9.928-1.89 14.746-4.883l-1.074-9.082c-.163-1.074-.83-1.611-2.002-1.611h-.195c-.945.064-1.677.667-2.198 1.806a14.485 14.485 0 0 1-4.712 5.713c-2.067 1.497-4.256 2.295-6.567 2.393h-.146c-1.79 0-3.549-.456-5.274-1.367-1.693-.88-2.734-2.246-3.125-4.102-.163-.683-.244-1.286-.244-1.806 0-1.694.716-2.881 2.148-3.565 2.213-1.107 4.801-2.002 7.764-2.685 4.297-.945 8.276-2.271 11.94-3.98 3.661-1.71 5.67-5.298 6.03-10.767v-.488c0-2.572-.994-5.143-2.98-7.715-2.148-2.8-5.257-4.9-9.326-6.3-2.507-.844-5.273-1.317-8.3-1.415h-1.368c-4.135 0-8.285.603-12.45 1.807l-4.2 11.377.146 1.172c.065 1.074.765 1.61 2.1 1.61h.244c.814-.162 1.481-.764 2.002-1.805 1.432-3.061 3.133-5.201 5.103-6.421 1.968-1.221 4.467-1.88 7.495-1.978h.586c2.115 0 4.475.504 7.08 1.514 2.571 1.009 3.906 2.832 4.004 5.469v.293c0 3.059-1.384 4.98-4.15 5.76a2302.33 2302.33 0 0 0-9.083 2.589c-3.353.91-6.51 2.376-9.473 4.395-3.092 2.083-4.638 5.127-4.638 9.13v.245c.032 5.37 2.164 9.228 6.396 11.572 3.743 2.115 7.894 3.174 12.451 3.174.423 0 .846-.017 1.27-.05m56.836-10.546c-1.042.977-2.58 1.953-4.614 2.93-2.035.976-3.8 1.497-5.298 1.562h-.147c-.456 0-.944-.097-1.464-.293a224.82 224.82 0 0 1-3.492-1.294 224.698 224.698 0 0 0-3.49-1.294c-.62-.26-1.108-.586-1.466-.976-1.888-2.02-3.158-4.477-3.808-7.373a28.467 28.467 0 0 1-.83-6.74c0-.682.032-1.4.097-2.147.358-4.525 1.578-8.187 3.662-10.986 2.018-2.832 4.525-4.656 7.52-5.47a11.856 11.856 0 0 1 4.443-.44c.586.066 1.32.246 2.198.539.748.259 1.92.69 3.515 1.294l3.174 1.196zm0-34.473l-11.719-4.297c-1.205-.422-2.23-.634-3.076-.634h-2.05c-5.014.26-9.278 2.246-12.794 5.957-3.549 3.775-5.566 8.349-6.054 13.72a41.992 41.992 0 0 0-.196 4.004c0 1.725.114 3.402.342 5.03.423 2.896 1.546 5.777 3.37 8.642.878 1.53 2.407 3.125 4.59 4.785a16.34 16.34 0 0 0 2.685 1.465c2.636.977 5.264 1.953 7.885 2.93 2.621.976 5.25 1.953 7.886 2.93.716.259 1.4.39 2.051.39h.293c2.213-.097 4.883-.651 8.008-1.66.325-.098.52-.18.586-.244.65-.261 1.48-.554 2.49-.88.26-.097.504-.145.732-.145a.79.79 0 0 1 .49.146c.617.52 1.04.943 1.268 1.27.423.552.992.83 1.71.83.357 0 .683-.066.976-.196 1.204-.424 1.806-1.042 1.806-1.855v-37.793c0-1.693.814-2.824 2.442-3.394 1.627-.57 2.441-1.473 2.441-2.71 0-1.334-.749-2.002-2.246-2.002h-11.865c-1.367 0-2.05.538-2.05 1.612zm-535.674-75.728c-5.497 0-10.366 1.755-14.609 5.264-4.244 3.509-6.365 8.36-6.365 14.556 0 6.034 2.063 10.87 6.19 14.515 4.127 3.644 9.055 5.466 14.784 5.466 2.06 0 4.248-.23 6.566-.686 2.32-.456 4.525-1.355 6.62-2.7l-.644-5.638c-.072-.322-.25-.484-.538-.484h-.08c-.215.019-.448.269-.698.752-1.039 2.238-2.597 3.886-4.673 4.94a13.825 13.825 0 0 1-6.177 1.425h-.564c-4.834-.215-8.612-2.148-11.333-5.801-2.453-3.276-3.679-6.902-3.679-10.877 0-.447.017-.894.054-1.341.25-4.12 1.7-7.87 4.35-11.253 2.65-3.384 6.248-5.183 10.796-5.398.43-.018.841-.027 1.235-.027 2.292 0 4.181.35 5.667 1.047 1.72.824 3.16 2.48 4.324 4.969.232.5.52.75.86.75a.84.84 0 0 0 .214-.026c.286-.107.43-.312.43-.617 0-.144-.037-.305-.108-.483l-2.336-6.527a21.33 21.33 0 0 0-5.237-1.45 36.083 36.083 0 0 0-5.049-.376m36.363 21.646c-.734.68-1.701 1.311-2.9 1.893-1.2.582-2.266.89-3.196.926h-.108c-.358 0-.716-.07-1.074-.215a111.76 111.76 0 0 1-1.92-.71 111.76 111.76 0 0 0-1.92-.712c-.448-.18-.806-.412-1.074-.7-1.111-1.18-1.853-2.613-2.23-4.296a16.187 16.187 0 0 1-.456-3.787c0-.393.018-.796.054-1.208.197-2.578.895-4.673 2.095-6.285 1.199-1.664 2.703-2.748 4.51-3.249a7.4 7.4 0 0 1 2.74-.268c.394.036.86.152 1.397.35.412.142 1.056.38 1.934.71.877.331 1.593.605 2.148.82zm0-18.316l-7.385-2.712c-.573-.198-1.048-.296-1.424-.296h-1.101c-2.542.126-4.736 1.164-6.58 3.115-1.843 1.952-2.891 4.352-3.141 7.197a22.857 22.857 0 0 0-.108 2.176c0 .931.063 1.835.188 2.713.215 1.521.806 3.043 1.773 4.564.465.788 1.262 1.612 2.39 2.471.393.27.832.511 1.316.726a2239.572 2239.572 0 0 0 8.647 3.222c.304.108.59.161.86.161h.134c1.145-.053 2.533-.339 4.162-.859a28.796 28.796 0 0 1 1.719-.644c.233-.072.447-.108.645-.108.286 0 .537.08.752.242.376.323.644.59.805.805.09.126.206.19.349.19.09 0 .179-.019.269-.055.394-.144.59-.322.59-.537v-20.786c0-1.165.448-1.903 1.344-2.216.895-.314 1.342-.694 1.342-1.14 0-.378-.188-.565-.564-.565h-6.525c-.305 0-.457.116-.457.35zm15.174 20.357c-.682-.019-1.702-.063-3.063-.135h-.134c-.34 0-.519.18-.537.537v.054c0 .286.17.511.51.671.358.162 1.101.547 2.23 1.155.268.144.527.27.778.376a.692.692 0 0 0 .215.028v4.591c0 .896.184 1.518.55 1.867.367.35 1.213.836 2.538 1.463.484.233.87.35 1.155.35.412 0 .618-.233.618-.699v-7.492l6.391.134h.027c.27 0 .403-.233.403-.699 0-.25-.036-.555-.107-.912-.179-.842-.582-1.263-1.209-1.263l-5.505.027v-16.838c0-1.629.568-2.847 1.705-3.652 1.137-.806 2.108-1.262 2.914-1.37v-.859c-2.668 0-4.915.25-6.74.752-1.827.501-2.74 2.48-2.74 5.935zm22.477-18.773c0-1.163.447-1.901 1.343-2.215.895-.313 1.343-.693 1.343-1.14 0-.377-.18-.565-.538-.565h-9.104c-.376 0-.564.188-.564.565 0 .447.448.827 1.343 1.14.895.314 1.343 1.052 1.343 2.216v29.837c0 1.145-.448 1.879-1.343 2.2-.895.323-1.343.718-1.343 1.183 0 .377.188.564.564.564 1.182.054 2.351.233 3.505.537 1.155.305 2.305.654 3.451 1.047v-16.381l2.605.993a66.33 66.33 0 0 0 2.148.779 22.46 22.46 0 0 0 5.13 1.129 8.5 8.5 0 0 0 .671.026c1.504 0 2.936-.511 4.297-1.53 2.166-1.666 3.25-5.238 3.25-10.716v-9.668c0-1.164.447-1.902 1.342-2.216.895-.313 1.343-.693 1.343-1.14 0-.377-.179-.565-.537-.565h-6.526c-.305 0-.456.116-.456.35v13.239c0 3.92-.815 6.678-2.444 8.27-1.039 1.022-2.31 1.532-3.814 1.532-.859 0-1.799-.17-2.82-.51a504.425 504.425 0 0 1-3.034-1.128c-.43-.161-.815-.305-1.155-.43zm37.625 19.955h-.322c-2.095 0-3.894-1.012-5.398-3.035-1.594-2.15-2.39-4.79-2.39-7.922 0-3.134.783-5.851 2.349-8.151 1.567-2.301 3.469-3.505 5.707-3.613h.376c2.077 0 3.867 1.012 5.37 3.035 1.577 2.13 2.365 4.763 2.365 7.896s-.788 5.85-2.364 8.15c-1.575 2.3-3.473 3.514-5.693 3.64m.564 1.799c3.49-.144 6.445-1.49 8.862-4.042 2.417-2.551 3.653-5.6 3.706-9.144v-.162c0-3.58-1.262-6.605-3.786-9.076-2.578-2.507-5.721-3.814-9.427-3.922h-.43c-3.437 0-6.4 1.272-8.888 3.815-2.58 2.613-3.868 5.702-3.868 9.264v.08c.018 3.92 1.495 7.216 4.432 9.884.339.322.846.6 1.517.832.672.233 1.669.59 2.994 1.074.788.286 1.656.6 2.605.94.895.304 1.629.457 2.202.457zm24.492-21.754c0-1.163.447-1.901 1.343-2.215.895-.313 1.343-.693 1.343-1.14 0-.377-.18-.565-.538-.565h-9.104c-.376 0-.564.188-.564.565 0 .447.448.827 1.343 1.14.895.314 1.343 1.052 1.343 2.216v29.837c0 1.145-.448 1.879-1.343 2.2-.895.323-1.343.718-1.343 1.183 0 .377.188.564.564.564 1.182.054 2.35.233 3.505.537 1.155.305 2.305.654 3.45 1.047zm13.884 33.678c1.951 0 2.927-.984 2.927-2.954 0-1.987-.976-2.982-2.927-2.982-1.952 0-2.927.995-2.927 2.982 0 1.97.975 2.954 2.927 2.954m2.417-33.677c0-1.164.447-1.902 1.343-2.216.895-.313 1.343-.693 1.343-1.14 0-.377-.18-.565-.538-.565h-9.104c-.376 0-.564.188-.564.565 0 .447.448.827 1.343 1.14.895.314 1.343 1.052 1.343 2.216v17.188c0 1.128-.448 1.852-1.343 2.175-.895.322-1.343.716-1.343 1.18 0 .377.188.565.564.565 1.182.053 2.351.237 3.505.55 1.155.313 2.305.667 3.451 1.061zm20.302 21.753h.564c2.918 0 5.604-.788 8.057-2.363l-.457-4.54c-.035-.232-.15-.348-.349-.348h-.08c-.179.018-.34.197-.483.537-.717 1.558-1.656 2.686-2.82 3.384-1.146.68-2.542 1.02-4.19 1.02h-.644c-1.952-.107-3.465-.67-4.539-1.692a8.47 8.47 0 0 1-2.094-3.356c-.466-1.307-.699-2.767-.699-4.378 0-.537.027-1.083.081-1.638.178-2.668.904-4.852 2.174-6.553 1.666-2.238 3.528-3.51 5.586-3.813.341-.054.69-.08 1.048-.08 1.612 0 3.393.537 5.345 1.61 1.02.556 1.71.833 2.067.833.09 0 .162-.018.215-.054.036-.036.054-.107.054-.215 0-.214-.107-.554-.322-1.02-.269-.537-.574-.958-.913-1.262-1.02-.914-2.274-1.545-3.76-1.893-1.487-.35-2.9-.525-4.243-.525-3.33.019-6.128.945-8.393 2.78-2.265 1.836-3.549 4.462-3.853 7.882a25.388 25.388 0 0 0-.108 2.31c0 .967.063 1.907.188 2.819.233 1.576.841 3.152 1.826 4.727 1.04 1.666 2.484 3.026 4.338 4.082 1.852 1.057 3.988 1.639 6.404 1.746m47.481-26.668c-5.496 0-10.366 1.755-14.61 5.264-4.243 3.509-6.365 8.36-6.365 14.556 0 6.034 2.064 10.87 6.19 14.515 4.128 3.644 9.056 5.466 14.785 5.466 2.059 0 4.247-.23 6.566-.686 2.319-.456 4.526-1.355 6.62-2.7l-.645-5.638c-.071-.322-.25-.484-.537-.484h-.08c-.215.019-.447.269-.698.752-1.038 2.238-2.596 3.886-4.673 4.94a13.822 13.822 0 0 1-6.177 1.425h-.563c-4.834-.215-8.613-2.148-11.334-5.801-2.453-3.276-3.68-6.902-3.68-10.877 0-.447.018-.894.055-1.341.25-4.12 1.7-7.87 4.35-11.253 2.65-3.384 6.248-5.183 10.796-5.398.43-.018.842-.027 1.235-.027 2.292 0 4.18.35 5.667 1.047 1.719.824 3.16 2.48 4.324 4.969.232.5.519.75.859.75a.834.834 0 0 0 .215-.026c.286-.107.429-.312.429-.617 0-.144-.036-.305-.107-.483l-2.337-6.527a21.322 21.322 0 0 0-5.236-1.45 36.072 36.072 0 0 0-5.05-.376m24.68 4.914c0-1.163.447-1.901 1.343-2.215.895-.313 1.343-.693 1.343-1.14 0-.377-.179-.565-.538-.565h-9.104c-.375 0-.564.188-.564.565 0 .447.448.827 1.343 1.14.896.314 1.343 1.052 1.343 2.216v29.837c0 1.145-.447 1.879-1.343 2.2-.895.323-1.343.718-1.343 1.183 0 .377.19.564.564.564 1.182.054 2.351.233 3.505.537 1.155.305 2.305.654 3.451 1.047v-16.381l2.604.993c.752.287 1.47.546 2.15.779a22.46 22.46 0 0 0 5.13 1.129 8.5 8.5 0 0 0 .67.026c1.504 0 2.936-.511 4.297-1.53 2.167-1.666 3.25-5.238 3.25-10.716v-9.668c0-1.164.447-1.902 1.342-2.216.896-.313 1.343-.693 1.343-1.14 0-.377-.179-.565-.537-.565h-6.525c-.305 0-.457.116-.457.35v13.239c0 3.92-.815 6.678-2.444 8.27-1.039 1.022-2.31 1.532-3.814 1.532-.86 0-1.799-.17-2.82-.51-.393-.144-.89-.327-1.49-.551-.6-.223-1.114-.416-1.544-.577-.429-.161-.815-.305-1.155-.43zm50.623 0c0-1.163.447-1.901 1.343-2.215.895-.313 1.343-.693 1.343-1.14 0-.377-.188-.565-.565-.565h-6.526c-.305 0-.457.116-.457.35v1.745c-.985-.376-1.858-.712-2.618-1.007a45.848 45.848 0 0 0-2.109-.766 23.852 23.852 0 0 0-5.129-1.101 10.125 10.125 0 0 0-.724-.027c-1.487 0-2.9.5-4.245 1.504-2.183 1.648-3.275 5.219-3.275 10.716v9.694c0 1.128-.448 1.853-1.344 2.175-.894.323-1.34.717-1.34 1.182 0 .377.186.564.562.564 1.182.054 2.35.238 3.505.55a59.88 59.88 0 0 1 3.477 1.062v-15.227c0-3.94.815-6.696 2.445-8.271 1.038-1.022 2.308-1.532 3.812-1.532.86 0 1.8.17 2.821.51.376.126.868.305 1.476.537.61.234 1.13.43 1.56.592.088.035.235.089.441.16.206.073.435.162.685.27v17.428c0 1.128-.448 1.853-1.342 2.175-.896.323-1.344.717-1.344 1.182 0 .377.19.564.565.564 1.181.054 2.35.238 3.504.55 1.155.314 2.314.668 3.478 1.062zm16.166 12.058V387.55c0-1.164.443-1.902 1.33-2.215.886-.314 1.329-.694 1.329-1.14 0-.378-.18-.566-.537-.566h-9.105c-.375 0-.564.188-.564.565 0 .447.447.827 1.343 1.141.895.313 1.343 1.051 1.343 2.215v17.188c0 1.128-.448 1.852-1.343 2.175-.896.322-1.343.716-1.343 1.181 0 .377.19.565.564.565 1.181.053 2.35.237 3.504.551 1.156.312 2.315.667 3.478 1.06v-3.545l3.733 1.424a81.91 81.91 0 0 0 3.223 1.154c.232.072.511.108.833.108.662 0 1.504-.179 2.524-.537l-.59-6.74h-1.237c-.697 2.613-2.04 3.92-4.027 3.92-.197 0-.395-.009-.592-.027-1.36-.16-2.332-.856-2.913-2.08-.582-1.228-.899-2.673-.954-4.339m26.399 9.696h.564c2.918 0 5.604-.788 8.057-2.363l-.457-4.54c-.035-.232-.151-.348-.349-.348h-.081c-.178.018-.339.197-.482.537-.717 1.558-1.656 2.686-2.82 3.384-1.146.68-2.542 1.02-4.19 1.02h-.644c-1.952-.107-3.465-.67-4.539-1.692a8.47 8.47 0 0 1-2.094-3.356c-.466-1.307-.699-2.767-.699-4.378 0-.537.027-1.083.081-1.638.178-2.668.904-4.852 2.174-6.553 1.666-2.238 3.528-3.51 5.586-3.813.341-.054.69-.08 1.048-.08 1.612 0 3.393.537 5.345 1.61 1.02.556 1.709.833 2.067.833.09 0 .162-.018.215-.054.036-.036.054-.107.054-.215 0-.214-.107-.554-.322-1.02-.269-.537-.574-.958-.913-1.262-1.021-.914-2.274-1.545-3.76-1.893-1.487-.35-2.901-.525-4.243-.525-3.33.019-6.128.945-8.393 2.78-2.265 1.836-3.549 4.462-3.853 7.882a25.388 25.388 0 0 0-.108 2.31c0 .967.063 1.907.188 2.819.233 1.576.841 3.152 1.826 4.727 1.039 1.666 2.484 3.026 4.338 4.082 1.852 1.057 3.988 1.639 6.404 1.746m19.659-21.754c0-1.163.447-1.901 1.343-2.215.895-.313 1.343-.693 1.343-1.14 0-.377-.179-.565-.538-.565h-9.104c-.375 0-.564.188-.564.565 0 .447.448.827 1.343 1.14.896.314 1.343 1.052 1.343 2.216v29.837c0 1.145-.447 1.879-1.343 2.2-.895.323-1.343.718-1.343 1.183 0 .377.19.564.564.564 1.182.054 2.351.233 3.505.537 1.155.305 2.305.654 3.451 1.047v-16.381l2.604.993c.752.287 1.47.546 2.15.779a22.46 22.46 0 0 0 5.13 1.129 8.5 8.5 0 0 0 .67.026c1.504 0 2.936-.511 4.297-1.53 2.167-1.666 3.25-5.238 3.25-10.716v-9.668c0-1.164.447-1.902 1.342-2.216.896-.313 1.343-.693 1.343-1.14 0-.377-.179-.565-.537-.565h-6.525c-.305 0-.457.116-.457.35v13.239c0 3.92-.815 6.678-2.444 8.27-1.039 1.022-2.31 1.532-3.814 1.532-.86 0-1.799-.17-2.82-.51-.393-.144-.89-.327-1.49-.551-.6-.223-1.114-.416-1.544-.577-.429-.161-.815-.305-1.155-.43z" fill="#fbb03b"/></g></svg>