<svg xmlns="http://www.w3.org/2000/svg" fill="#fff" viewBox="0 0 512 512"><path d="M256 177.4c-20.1 0-36.5 16.4-36.5 36.5v53.4c0 4.5 3.6 8.1 8.1 8.1h56.8c4.5 0 8.1-3.6 8.1-8.1v-53.4c0-20.1-16.4-36.5-36.5-36.5zm20.3 81.9h-40.7V214c0-11.2 9.1-20.3 20.3-20.3 11.2 0 20.3 9.1 20.3 20.3v45.3zM98.8 375.1c-18.2 0-33 14.8-33 33V455c0 4.5 3.6 8.1 8.1 8.1h49.9c4.5 0 8.1-3.6 8.1-8.1v-46.9c-.1-18.2-14.9-33-33.1-33zm16.8 71.9H81.9v-38.8c0-9.3 7.6-16.9 16.9-16.9 9.3 0 16.9 7.6 16.9 16.9V447zm297.6-71.9c-18.2 0-33 14.8-33 33V455c0 4.5 3.6 8.1 8.1 8.1h49.9c4.5 0 8.1-3.6 8.1-8.1v-46.9c0-18.2-14.8-33-33.1-33zm16.9 71.9h-33.8v-38.8c0-9.3 7.6-16.9 16.9-16.9s16.9 7.6 16.9 16.9V447z" class="a"/><path d="M492.1 341.5c-.6-2.2-2.1-4-4.1-5l-42-21.2c-4-2-8.8-.4-10.8 3.6s-.4 8.8 3.6 10.8L473 347l-8.7 14.2-2.6-1.3L346 301.4v-18.6l62.4 31.6c4 2 8.8.4 10.8-3.6s.4-8.8-3.6-10.8l-69.7-35.3v-80.2l27.9-14.1c2.5-1.3 4.2-3.7 4.4-6.5.2-2.8-1-5.5-3.3-7.2L264.1 75.5V41.1h16.6c4.5 0 8.1-3.6 8.1-8.1s-3.6-8.1-8.1-8.1h-16.6V8.1c0-4.5-3.6-8.1-8.1-8.1s-8.1 3.6-8.1 8.1V25h-16.6c-4.5 0-8.1 3.6-8.1 8.1s3.6 8.1 8.1 8.1h16.6v34.4l-110.7 81c-2.3 1.7-3.5 4.4-3.3 7.2.2 2.8 1.9 5.3 4.4 6.5l27.9 14.1v23.5c0 4.5 3.6 8.1 8.1 8.1s8.1-3.6 8.1-8.1v-24.4l37.1-27.1 36.6-26.7 34.4 25.2 39.3 28.7V496h-25.2V365.7c0-4.5-3.6-8.1-8.1-8.1h-81.1c-4.5 0-8.1 3.6-8.1 8.1v130.1h-25V240.1c0-4.5-3.6-8.1-8.1-8.1s-8.1 3.6-8.1 8.1v24.4L24 336.4c-2 1-3.5 2.8-4.1 5-.6 2.2-.3 4.5.9 6.4l16 26v130c0 4.5 3.6 8.1 8.1 8.1h422.3c4.5 0 8.1-3.6 8.1-8.1V373.9l16-26c1.1-1.9 1.4-4.3.8-6.4zM166.2 495.9H52.9V376.6l113.3-57.3v176.6zm0-194.7L50.5 359.7l-2.6 1.3-8.7-14.2 127.1-64.3v18.7zm122.3 194.7h-65V373.8h65v122.1zm22.9-345.8L260.7 113a7.95 7.95 0 0 0-9.5 0l-33.9 24.8-43.9 32.1-16.1-8.2L256 89.6l98.6 72.1-16.1 8.2-27.1-19.8zm147.7 345.8H345.8V319.3l113.3 57.3v119.3z" class="a"/></svg>