<svg xmlns="http://www.w3.org/2000/svg" viewBox="0 0 240.2 239.2"><path d="M164.6 8.6a29.2 29.2 0 0 0-41.2-.1 29.2 29.2 0 0 0-41.2 41.4l37.6 37.4a5.1 5.1 0 0 0 7.3 0c10-9.9 37.1-36.9 37.6-37.4a29.2 29.2 0 0 0 0-41.3zm67 148l-35.3-33.1a43.9 43.9 0 0 0-30-11.9H97.4a13.2 13.2 0 1 0 0 26.4h49.9a8.2 8.2 0 0 1 0 16.5h-85a8.3 8.3 0 0 1-5.1-1.7l-35.8-28.3A13.2 13.2 0 0 0 5 145.3l55.1 43.3a13.3 13.3 0 0 0 8.2 2.8h99.3a8.3 8.3 0 0 1 5.8 2.3l42.5 41.4a14.3 14.3 0 0 0 24.3-10.3v-47.3a29.9 29.9 0 0 0-8.6-21zm0 0"/></svg>