<svg xmlns="http://www.w3.org/2000/svg" viewBox="0 0 106.81 110.42"><path d="M106.74 49.74C106 36.14 101 23.21 91.1 13.65A48.78 48.78 0 0 0 54 .14 61.41 61.41 0 0 0 17.36 16 53.83 53.83 0 0 0 .1 51.5a42.26 42.26 0 0 0 5 23 43.55 43.55 0 0 0 7.6 10.29A55 55 0 0 0 17.59 89a48.4 48.4 0 0 1 4.89 3.76c1.87 1.88 3.25 4.85 2 7.44s-4.33 3-6.42 4.65c-1.06.86-2.6 2.59-1.56 4 1.53 2.06 5.74 1.51 7.86 1.29 5.52-.56 11.52-2.74 13.88-8.17 2-4.53.86-9.79-1.32-14-3.44-6.69-10-10.12-15.41-15a33 33 0 0 1-10.45-21.43c-1.22-13.82 6.82-25.77 18.85-32.06S56.37 12 69 17.22a43 43 0 0 1 25.36 28.64c3 11.61 2.21 26.86-8 34.87a25.77 25.77 0 0 1-17.69 5A12.21 12.21 0 0 1 60 81.68a27.66 27.66 0 0 1-5.62-10.09 49.4 49.4 0 0 1-2.15-12.17c0-.51-.06-1-.08-1.54 0-.72-.32-1 .52-1.07 1.1-.09 2.19-.2 3.28-.32q3.52-.42 7-1.19a53.21 53.21 0 0 0 12.55-4.44 9.28 9.28 0 0 0 4.19-4.92c1-2.31 2.58-9.7-2.31-8.46a33.51 33.51 0 0 0-4.47 2 43.09 43.09 0 0 1-6.58 2.14 63.41 63.41 0 0 1-13.63 1.65c.45-4.61 1.1-9.2 1.76-13.79.29-2 1.38-5.82-.82-7.22-1.57-1-3.75.09-5.08 1a10.72 10.72 0 0 0-4.18 5.45 29 29 0 0 0-.73 4.56q-.45 3.38-.85 6.73-.1.86-.19 1.71c-.08.78.21 1.2-.71 1.12q-1.77-.17-3.53-.38c-2.2-.27-4.46-.88-6.67-1-4.45-.15-7.7 6.19-7.7 9.94a3.77 3.77 0 0 0 3.51 4.1A112.65 112.65 0 0 0 41.58 57a89.11 89.11 0 0 0 1.54 20.19c1.21 5.75 3.31 11.6 7.35 16a21 21 0 0 0 15.83 6.56A39.4 39.4 0 0 0 96.81 84c7.34-9.71 10.55-22.2 9.93-34.26z"/></svg>