<svg xmlns="http://www.w3.org/2000/svg" viewBox="0 0 462.49 462.18"><path d="M462.27 364.75q1.46 11.26-6.86 19.58L390.29 449a36.69 36.69 0 0 1-11.5 8.32 47.61 47.61 0 0 1-14 4.41q-.49 0-2.94.25t-6.36.25q-9.3 0-30.11-3.18t-50.88-15.72q-30.11-12.49-68.3-37.45t-81.27-68.54q-34.27-33.79-56.79-64.63t-36.23-57q-13.71-26.23-20.57-47.53T2 131.46Q-.41 116 .08 107.22t.49-9.79A47.57 47.57 0 0 1 5 83.48 36.65 36.65 0 0 1 13.3 72L78.42 6.86Q85.27 0 94.09 0a18.25 18.25 0 0 1 11.26 3.67 34.07 34.07 0 0 1 8.32 9.06l52.39 99.39a23.84 23.84 0 0 1 2.45 17.14 30.48 30.48 0 0 1-8.32 15.67l-24 24a8.18 8.18 0 0 0-1.71 3.18 12.11 12.11 0 0 0-.73 3.67q2 10.28 8.81 23.5 5.88 11.75 18.12 28.65t34.76 38.92q22 22.52 39.17 35t28.64 18.36q11.5 5.87 17.63 7.1l6.12 1.22a11.71 11.71 0 0 0 3.18-.73 8.11 8.11 0 0 0 3.18-1.71l27.91-28.39a30 30 0 0 1 20.56-7.84q8.33 0 13.22 2.94h.49L450 348.59q10.28 6.37 12.24 16.16zm0 0"/></svg>