<svg xmlns="http://www.w3.org/2000/svg" viewBox="0 0 390.7 295.9"><style type="text/css">  
	.st0{fill:#AA1D38;}
	.st1{font-family:&#39;ACaslonPro-Italic&#39;;}
	.st2{font-size:36.8933px;}
</style><path d="M56.5 64.6c-6.2 0-11.4 0-16.4 0 5.7 8.2 11.1 16 16.6 23.9 3.1 0 6 0 9.7 0 -2.9 8.4-2.7 27.1 6 30.5 0 5.3 0 10.2 0 16.1 3.8-10 7.3-14.8 9.1-20.3 1.9-5.9 3.9-12.6 2.8-19.7 -1.8-11.8-8.5-13.1-10.1-13.4 -0.3-1.9-0.2-3.7-0.9-5 -4.3-8.2-8.7-16.3-13.4-24.3 -5.8-9.9-13.2-18.6-20.5-27.3C28.3 12 4.7-0.7 0 0 30.1 16.2 55.4 61.8 56.5 64.6zM74.6 85.1c7.3 1.3 7.1 12.1 7 15.6 -0.1 6 0.1 13.4-7.5 13.2 -6.9-0.2-7.4-6.4-7.4-12.6C66.6 95.2 66.9 83.8 74.6 85.1z"/><path d="M91.7 107.4c-0.5 0.3-2.7 4.3 0.7 20.2 0.8 3.5 6.1 7.9 9.1 4.4 7-8 4.8-20.4 2.7-25.3 -1.4-3.4-7-5.1-8.4-4 0-2.1-0.4-3.6 0.1-4.6 3.6-7.4 6.8-15.2 11.4-22 7.9-11.8 19.1-29.4 39.2-50.4 -19.3 15.3-28.7 29.4-35.2 38.4 -1.9 0-3.5 0-5 0 -1-7.9-2.6-15.1-8.8-21.2 0-10.4 0-21.2 0-32 -8.6 0-16.8 0-25.3 0 0 16.4 0 32.6 0 48.4C77.1 67.7 90.2 103.2 91.7 107.4zM98.5 105.9c3.3 1.1 4 4.7 4.9 7.6 0.9 2.9 1 6.1 0.1 9 -0.8 2.9-1.7 6.9-5 8 -2.5 0.8-7.5-10.1-6.1-21.7 0.1-0.6 0.4-0.9 0.7-1.1 0.1-0.1 0.2-0.1 0.3-0.2l0 0h0C95.1 106.4 96.6 105.2 98.5 105.9zM84 57.3c1-3.2 2.4-9.4 7.1-9.9 10.6-1 10.9 21.3 8.5 27.1 -1.4 3.3-3.6 8.9-8.5 8.5 -4.2-0.3-6.2-5.1-7.4-8.7C82 69.4 82.2 62.9 84 57.3z"/><path d="M91.9 222.5c-6.3-13.3-12.1-26.9-16-41.2 -0.9-3.3-2.4-11.1-4-19.3 -0.1-1-8.2-35.8-10.1-41.6 -2.6-7.9-4.5-16.1-8.3-23.4C35.4 62.8 11.3 50.9 10.1 51.3c1.8 2.4 9.4 10.2 10.2 12.9 0 7.7 0 15.6 0 24.2 7.3 0 14.4 0 21.4 0 1 1.1 7.5 4.9 16.2 35.9 1.4 5.8 13.8 56.7 13.8 57 0.7 6.9 0.1 13.9 0.1 20.9 0 6.9 0.1 24 0.1 24s14 0 19.2 0c1.7 3.1 3.1 5.9 4.7 8.5 1.5 2.4 3.2 4.7 5.9 8.5 -0.2-2.9 0.1-4-0.3-4.7C98.3 233.1 94.6 228 91.9 222.5z"/><path d="M100.1 183.2c-0.3-5.8-1.3-11.6-3.2-16.7 -2-5.2-8.1-22.1-9.7-27.3 -1.8-5.9-3-9.4-4.2-11.8 -3.4 7.7-5.5 14.5-5.2 22 0.3 6.7 0 13.3 1.7 20.1 1.3 5.1 2.4 10.2 3.9 15.3 3.5 11.4 8.7 22.1 13.8 35.3 1.2-10.8-0.4-19.5 1.2-29.3 2.1 5.3 3.7 9.3 5.3 13.3 0.7-0.2 2.7-0.9 2.9-1 -0.6-1.8-1.4-3.3-1.9-4.9C103.2 193 100.3 188.2 100.1 183.2z"/><path d="M153.6 75.8c0-3.8-0.1-7.7-0.2-11.4 -10.1 0-19.3 0-28.2 0 -6.1 3.6-14.4 19.9-16.5 23.6 15.9 0 30.3 0 45 0C153.6 83.7 153.6 79.7 153.6 75.8z"/><path d="M115.8 111.9c-4.9 10.9-10.9 21.2-15.4 32.3 -2.1 5-3.1 9.1 0.6 14.1 6.2-16.5 13.4-36 20.1-53.9C118.5 106.7 116.2 111 115.8 111.9z"/><path class="st0" d="M172.8 104.9l1.3 19.2h-1.3c-1.7-5.8-4.2-9.9-7.4-12.4 -3.2-2.5-7-3.8-11.5-3.8 -2.9 0-5.6 0.5-8 1.6 -2.4 1.1-4.5 2.8-6.3 5.1 -1.8 2.3-3.1 5.1-4.1 8.6 -1 3.4-1.5 7.5-1.5 12.2 0 3.8 0.5 7.2 1.4 10.3 0.9 3.1 2.3 5.7 4.1 7.9 1.8 2.2 4 3.9 6.6 5s5.6 1.8 9 1.8c3.6 0 6.8-0.8 9.7-2.4 2.8-1.4 5.9-4.6 9.3-9.3l1.3 0.8c-2.9 5-6.2 8.7-9.9 11 -3.8 2.3-8.2 3.5-13.5 3.5 -4 0-7.7-0.7-11.1-2.1 -3.4-1.4-6.2-3.4-8.7-5.9 -2.4-2.5-4.3-5.6-5.7-9.1 -1.4-3.5-2.1-7.3-2.1-11.5 0-5.7 1.3-10.9 3.8-15.5 2.5-4.7 5.9-8.4 10.4-10.9 4.5-2.6 9.3-3.9 14.5-3.9 4.1 0 8.1 1 12.1 3 1.2 0.6 2 0.9 2.5 0.9 0.9 0 1.7-0.4 2.3-1.1 0.6-0.7 1-1.7 1.3-2.8H172.8z"/><path class="st0" d="M198.2 157.2c-2 1.5-3.6 2.7-4.8 3.6 -1.2 0.9-2.1 1.4-2.6 1.6 -1.5 0.7-3.1 1.1-4.8 1.1 -1.3 0-2.5-0.2-3.6-0.7 -1.1-0.5-2.1-1.1-2.9-2 -0.8-0.8-1.4-1.9-1.9-3.1 -0.5-1.2-0.7-2.5-0.7-4 0-1.7 0.3-3.3 1-4.7 0.7-1.4 1.7-2.6 3.2-3.8 1.4-1.1 3.3-2.2 5.6-3.1 3.6-1.7 7.4-3.2 11.5-4.7v-1.5c0-1.9-0.2-3.5-0.5-4.8 -0.3-1.3-0.8-2.3-1.4-3.1 -0.6-0.8-1.4-1.3-2.2-1.6 -0.9-0.3-1.9-0.5-3-0.5 -1.8 0-3.2 0.5-4.2 1.4 -1 1-1.6 2-1.6 3.2l0.1 2.4c0 1.3-0.3 2.3-1 3 -0.6 0.7-1.5 1-2.6 1 -1 0-1.9-0.4-2.5-1.1 -0.7-0.7-1-1.7-1-3 0-1.2 0.3-2.3 0.9-3.5 0.6-1.1 1.5-2.2 2.7-3.1 1.2-0.9 2.7-1.6 4.4-2.2s3.7-0.8 5.9-0.8c2.9 0 5.4 0.4 7.5 1.3 2.1 0.9 3.5 2.4 4.4 4.5 0.5 1.2 0.7 3.6 0.7 7.3v12.9c0 2.2 0 3.9 0.1 5.1 0.1 1.2 0.2 2 0.3 2.6 0.2 0.5 0.4 0.9 0.6 1 0.2 0.1 0.6 0.2 0.9 0.2 0.3 0 0.6 0 0.8-0.1 0.2-0.1 0.5-0.2 0.9-0.5 0.3-0.2 0.7-0.6 1.1-1 0.4-0.4 1-1 1.7-1.7v2.4c-3.1 4.1-6.1 6.2-8.9 6.2 -1.3 0-2.4-0.5-3.2-1.4C198.6 161.1 198.2 159.5 198.2 157.2zM198.2 154.5v-14.5c-2.9 1.2-6.2 2.7-9.9 4.5 -1.4 0.7-2.4 1.7-3.2 3 -0.8 1.3-1.2 2.7-1.2 4.3 0 1 0.2 1.9 0.5 2.8 0.3 0.9 0.8 1.6 1.3 2.2 0.5 0.6 1.2 1.1 1.9 1.5 0.7 0.4 1.5 0.5 2.3 0.5C191.9 158.7 194.7 157.3 198.2 154.5z"/><path class="st0" d="M221 112v12.5h8.9v2.9H221v24.7c0 1.2 0.1 2.3 0.3 3.1 0.2 0.8 0.5 1.5 0.8 1.9 0.4 0.5 0.8 0.8 1.2 1 0.5 0.2 1 0.3 1.5 0.3 1 0 1.9-0.3 2.7-0.8 0.8-0.6 1.5-1.4 2-2.5h1.6c-1 2.7-2.3 4.8-4.1 6.2 -1.8 1.4-3.6 2.1-5.5 2.1 -2.2 0-4-0.8-5.3-2.3 -1.3-1.5-2-4.2-2-7.9v-25.7h-6.1v-1.4c2.4-0.9 4.5-2.5 6.4-4.7 1.9-2.2 3.6-5.3 5.3-9.4H221z"/><path class="st0" d="M240.3 103.5v27.9c1.6-1.7 3-3.1 4.1-4.2 1.2-1 2.3-1.8 3.2-2.4 1-0.6 1.9-0.9 2.7-1.1 0.8-0.2 1.7-0.3 2.6-0.3 2.2 0 4 0.6 5.6 1.8 1.6 1.2 2.7 3.1 3.5 5.6 0.5 1.8 0.7 5.1 0.7 9.8v13.5c0 1.3 0 2.4 0.1 3.3 0.1 0.9 0.3 1.6 0.6 2.2 0.4 0.6 0.9 1 1.7 1.3 0.8 0.3 1.9 0.4 3.3 0.4v1.5h-18.7v-1.5h0.9c1.2 0 2.2-0.1 2.9-0.3 0.7-0.2 1.2-0.6 1.6-1.1 0.4-0.5 0.6-1.3 0.7-2.2 0.1-0.9 0.1-2.1 0.1-3.5v-13.5c0-2.5-0.1-4.6-0.3-6.2 -0.2-1.6-0.6-2.8-1.1-3.7 -0.5-0.9-1.1-1.5-1.9-1.8 -0.8-0.3-1.7-0.5-2.8-0.5 -0.7 0-1.4 0.1-2.1 0.2 -0.7 0.1-1.4 0.4-2.2 0.8 -0.8 0.4-1.6 1-2.4 1.7 -0.8 0.7-1.8 1.6-2.8 2.7v20.1c0 1.4 0 2.4 0.1 3.2 0.1 0.7 0.2 1.3 0.3 1.8 0.1 0.4 0.4 0.7 0.6 0.9s0.6 0.4 1 0.7c0.8 0.4 2.2 0.6 4.1 0.6v1.5h-18.9v-1.5c1 0 1.9-0.1 2.7-0.2 0.7-0.1 1.4-0.4 1.8-0.9 0.5-0.5 0.8-1.2 1-2.1 0.2-1 0.3-2.3 0.3-3.9v-34.5c0-2.7-0.1-4.7-0.2-6.1s-0.3-2.5-0.5-3.1c-0.2-0.7-0.5-1.1-0.9-1.2s-0.8-0.2-1.4-0.2c-0.7 0-1.7 0.2-2.9 0.7l-0.6-1.5 11.4-4.7H240.3z"/><path class="st0" d="M286 123.4c2.7 0 5.1 0.5 7.3 1.6 2.2 1 4.2 2.4 5.8 4.2 1.6 1.8 2.9 3.8 3.9 6.2 0.9 2.4 1.4 4.9 1.4 7.6 0 3.1-0.5 5.9-1.5 8.5 -1 2.6-2.4 4.8-4.1 6.6 -1.7 1.8-3.8 3.3-6 4.3s-4.7 1.5-7.1 1.5c-2.6 0-5-0.5-7.2-1.6s-4.1-2.5-5.7-4.4c-1.6-1.8-2.8-3.9-3.7-6.3 -0.9-2.4-1.3-4.9-1.3-7.6 0-2.7 0.5-5.3 1.4-7.8 1-2.5 2.3-4.7 3.9-6.6 1.7-1.9 3.6-3.4 5.8-4.5C281 124 283.4 123.4 286 123.4zM284.7 126.1c-1.2 0-2.4 0.3-3.5 0.8 -1.1 0.5-2.1 1.3-3 2.5 -0.9 1.1-1.6 2.6-2.1 4.4 -0.5 1.8-0.8 4-0.8 6.7 0 2.7 0.3 5.3 0.8 7.7 0.6 2.5 1.4 4.6 2.4 6.5 1 1.9 2.3 3.4 3.8 4.5 1.5 1.1 3.1 1.7 5 1.7 1.3 0 2.6-0.3 3.7-0.8 1.1-0.5 2.1-1.4 3-2.5 0.8-1.2 1.5-2.7 2-4.6 0.5-1.9 0.7-4.2 0.7-6.9 0-2.7-0.3-5.3-0.8-7.7 -0.5-2.4-1.3-4.5-2.3-6.3 -1-1.8-2.3-3.2-3.7-4.3C288.3 126.7 286.6 126.1 284.7 126.1z"/><path class="st0" d="M318.7 103.5v50.6c0 1.7 0.1 3.1 0.3 4 0.2 1 0.5 1.7 1 2.1 0.5 0.5 1.1 0.8 1.9 0.8 0.8 0.1 1.8 0.1 3 0.1v1.5h-18.7v-1.5c1.2 0 2.2-0.1 3-0.3 0.7-0.2 1.3-0.5 1.7-1.1 0.4-0.5 0.7-1.3 0.8-2.2 0.1-0.9 0.2-2.1 0.2-3.6v-34.6c0-2.6-0.1-4.6-0.2-6.1 -0.1-1.4-0.3-2.5-0.5-3.1 -0.2-0.7-0.5-1-0.9-1.2 -0.4-0.1-0.8-0.2-1.4-0.2 -0.8 0-1.7 0.2-2.7 0.7l-0.7-1.5 11.4-4.7H318.7z"/><path class="st0" d="M337.9 123.4v30.6c0 1.8 0.1 3.2 0.3 4.2 0.2 1 0.5 1.7 1 2.1 0.5 0.4 1.1 0.7 1.8 0.7 0.7 0.1 1.6 0.1 2.6 0.1v1.5h-18.5v-1.5c1.3 0 2.3-0.1 3.1-0.3 0.8-0.2 1.4-0.5 1.8-1.1 0.4-0.5 0.7-1.3 0.8-2.2 0.1-0.9 0.2-2.1 0.2-3.6v-14.7c0-2.4 0-4.3-0.1-5.7 -0.1-1.4-0.2-2.5-0.4-3.1 -0.2-0.7-0.5-1.1-0.9-1.3 -0.4-0.2-0.9-0.3-1.5-0.3 -0.4 0-0.8 0.1-1.3 0.2 -0.4 0.1-0.9 0.3-1.5 0.5l-0.6-1.5 11.5-4.7H337.9zM334.5 103.5c1.2 0 2.2 0.4 3 1.2 0.8 0.8 1.2 1.8 1.2 3 0 1.2-0.4 2.2-1.2 3 -0.8 0.8-1.8 1.2-3 1.2s-2.2-0.4-3-1.2c-0.8-0.8-1.2-1.8-1.2-3 0-1.2 0.4-2.2 1.2-3C332.3 103.9 333.3 103.5 334.5 103.5z"/><path class="st0" d="M376.4 148.2c-0.5 2.5-1.3 4.8-2.3 6.7 -1.1 1.9-2.3 3.6-3.7 4.9 -1.4 1.3-3 2.3-4.7 3 -1.7 0.7-3.4 1-5.2 1 -2.1 0-4.1-0.5-6.1-1.4 -1.9-1-3.7-2.3-5.2-4 -1.5-1.7-2.7-3.9-3.6-6.3 -0.9-2.5-1.3-5.3-1.3-8.4 0-3 0.5-5.7 1.5-8.2 1-2.5 2.3-4.6 3.9-6.4 1.7-1.8 3.6-3.2 5.8-4.2 2.2-1 4.5-1.5 7-1.5 1.9 0 3.6 0.3 5.1 0.8 1.6 0.6 2.9 1.3 4.1 2.2 1.2 0.9 2.1 1.9 2.7 3 0.6 1.1 1 2.2 1 3.2 0 1.1-0.3 1.9-1 2.6 -0.7 0.6-1.6 1-2.9 1 -1.3 0-2.3-0.3-3.2-1 -0.8-0.6-1.3-2-1.5-4 -0.3-3.3-2.2-5-5.7-5 -1.7 0-3.1 0.4-4.4 1.1 -1.3 0.7-2.3 1.8-3.2 3 -0.8 1.3-1.5 2.7-1.9 4.4 -0.4 1.7-0.7 3.5-0.7 5.3 0 2.2 0.3 4.3 0.8 6.4 0.6 2.1 1.4 3.9 2.5 5.5 1.1 1.6 2.4 2.9 3.9 3.9 1.5 1 3.3 1.5 5.2 1.5 1.2 0 2.3-0.1 3.3-0.4 1.1-0.3 2.1-0.8 3-1.5 1-0.7 1.9-1.7 2.8-3 0.9-1.3 1.8-2.9 2.6-4.8L376.4 148.2z"/><path class="st0" d="M172.8 172.8l1.3 19.2h-1.3c-1.7-5.8-4.2-9.9-7.4-12.4 -3.2-2.5-7-3.8-11.5-3.8 -2.9 0-5.6 0.5-8 1.6 -2.4 1.1-4.5 2.8-6.3 5.1 -1.8 2.3-3.1 5.1-4.1 8.6 -1 3.4-1.5 7.5-1.5 12.2 0 3.8 0.5 7.2 1.4 10.3 0.9 3.1 2.3 5.7 4.1 7.9 1.8 2.2 4 3.9 6.6 5s5.6 1.8 9 1.8c3.6 0 6.8-0.8 9.7-2.4 2.8-1.5 5.9-4.6 9.3-9.3l1.3 0.8c-2.9 5-6.2 8.7-9.9 11s-8.2 3.5-13.5 3.5c-4 0-7.7-0.7-11.1-2.1 -3.4-1.4-6.2-3.4-8.7-5.9 -2.4-2.5-4.3-5.6-5.7-9.1s-2.1-7.3-2.1-11.5c0-5.7 1.3-10.9 3.8-15.5 2.5-4.7 5.9-8.4 10.4-10.9 4.5-2.6 9.3-3.9 14.5-3.9 4.1 0 8.1 1 12.1 3 1.2 0.6 2 0.9 2.5 0.9 0.9 0 1.7-0.4 2.3-1.1 0.6-0.7 1-1.7 1.3-2.8H172.8z"/><path class="st0" d="M187.7 171.4v27.9c1.6-1.7 3-3.1 4.1-4.2 1.2-1 2.3-1.8 3.2-2.4 1-0.6 1.9-0.9 2.7-1.1 0.8-0.2 1.7-0.3 2.6-0.3 2.2 0 4 0.6 5.6 1.8 1.6 1.2 2.7 3.1 3.5 5.6 0.5 1.8 0.7 5.1 0.7 9.8V222c0 1.3 0 2.4 0.1 3.3 0.1 0.9 0.3 1.6 0.6 2.2 0.4 0.6 0.9 1 1.7 1.3s1.9 0.4 3.3 0.4v1.5h-18.7v-1.5h0.9c1.2 0 2.2-0.1 2.9-0.3 0.7-0.2 1.2-0.6 1.6-1.1 0.4-0.5 0.6-1.3 0.7-2.2 0.1-0.9 0.1-2.1 0.1-3.5v-13.5c0-2.5-0.1-4.6-0.3-6.2 -0.2-1.6-0.6-2.8-1.1-3.7 -0.5-0.9-1.1-1.5-1.9-1.8 -0.8-0.3-1.7-0.5-2.8-0.5 -0.7 0-1.4 0.1-2.1 0.2 -0.7 0.1-1.4 0.4-2.2 0.8 -0.8 0.4-1.6 1-2.4 1.7 -0.8 0.7-1.8 1.6-2.8 2.7V222c0 1.4 0 2.4 0.1 3.2 0.1 0.7 0.2 1.3 0.3 1.8 0.1 0.4 0.4 0.7 0.6 0.9s0.6 0.4 1 0.7c0.8 0.4 2.2 0.6 4.1 0.6v1.5H175v-1.5c1 0 1.9-0.1 2.7-0.2 0.7-0.1 1.4-0.4 1.8-0.9 0.5-0.5 0.8-1.2 1-2.1 0.2-1 0.3-2.3 0.3-3.9v-34.5c0-2.7-0.1-4.7-0.2-6.1s-0.3-2.5-0.5-3.1c-0.2-0.7-0.5-1.1-0.9-1.2s-0.8-0.2-1.4-0.2c-0.7 0-1.7 0.2-2.9 0.7l-0.6-1.5 11.4-4.7H187.7z"/><path class="st0" d="M236.4 225.1c-2 1.5-3.6 2.7-4.8 3.6 -1.2 0.9-2.1 1.4-2.6 1.6 -1.5 0.7-3.1 1.1-4.8 1.1 -1.3 0-2.5-0.2-3.6-0.7 -1.1-0.5-2.1-1.1-2.9-2 -0.8-0.8-1.4-1.9-1.9-3.1s-0.7-2.5-0.7-4c0-1.7 0.3-3.3 1-4.7 0.7-1.4 1.7-2.6 3.2-3.8s3.3-2.2 5.6-3.1c3.6-1.7 7.4-3.2 11.5-4.7v-1.5c0-1.9-0.2-3.5-0.5-4.8 -0.3-1.3-0.8-2.3-1.4-3.1 -0.6-0.8-1.4-1.3-2.2-1.6 -0.9-0.3-1.9-0.5-3-0.5 -1.8 0-3.2 0.5-4.2 1.4 -1 1-1.6 2-1.6 3.2l0.1 2.4c0 1.3-0.3 2.3-1 3s-1.5 1-2.6 1c-1 0-1.9-0.4-2.5-1.1 -0.7-0.7-1-1.7-1-3 0-1.2 0.3-2.3 0.9-3.5 0.6-1.1 1.5-2.2 2.7-3.1 1.2-0.9 2.7-1.6 4.4-2.2s3.7-0.8 5.9-0.8c2.9 0 5.4 0.4 7.5 1.3 2.1 0.9 3.5 2.4 4.4 4.5 0.5 1.2 0.7 3.6 0.7 7.3v12.9c0 2.2 0 3.9 0.1 5.1 0.1 1.2 0.2 2 0.3 2.6 0.2 0.5 0.4 0.9 0.6 1 0.2 0.1 0.6 0.2 0.9 0.2 0.3 0 0.6 0 0.8-0.1 0.2-0.1 0.5-0.2 0.9-0.5 0.3-0.2 0.7-0.6 1.1-1 0.4-0.4 1-1 1.7-1.7v2.4c-3.1 4.1-6.1 6.2-8.9 6.2 -1.3 0-2.4-0.5-3.2-1.4C236.8 229 236.4 227.4 236.4 225.1zM236.4 222.4v-14.5c-2.9 1.2-6.2 2.7-9.9 4.5 -1.4 0.7-2.4 1.7-3.2 3 -0.8 1.3-1.2 2.7-1.2 4.3 0 1 0.2 1.9 0.5 2.8 0.3 0.8 0.8 1.6 1.3 2.2 0.5 0.6 1.2 1.1 1.9 1.5 0.7 0.4 1.5 0.5 2.3 0.5C230.1 226.6 232.9 225.2 236.4 222.4z"/><path class="st0" d="M259.2 191.3v8.6c3.2-5.7 6.5-8.6 9.9-8.6 0.7 0 1.4 0.1 2.1 0.4 0.6 0.2 1.2 0.6 1.7 1 0.5 0.4 0.8 0.9 1.1 1.5s0.4 1.1 0.4 1.8c0 1.1-0.4 2-1.1 2.7 -0.7 0.7-1.6 1.1-2.6 1.1 -0.5 0-1-0.1-1.6-0.4 -0.6-0.3-1.2-0.6-1.7-1 -0.6-0.4-1.1-0.7-1.6-1 -0.5-0.3-0.8-0.4-1.1-0.4 -0.7 0-1.6 0.6-2.6 1.8 -1 1.2-2 2.7-2.9 4.6v18.3c0 1.1 0.1 2.1 0.2 3 0.1 0.9 0.4 1.7 0.9 2.3 0.5 0.6 1.1 1.1 2 1.5 0.9 0.4 2.1 0.5 3.6 0.5v1.5h-19.6v-1.5c1.2 0 2.2-0.1 3-0.2 0.8-0.2 1.4-0.5 1.8-1 0.5-0.5 0.8-1.2 0.9-2.1 0.2-0.9 0.2-2.2 0.2-3.7v-14.8c0-2.2 0-4-0.1-5.3 -0.1-1.3-0.1-2.2-0.2-2.6 -0.4-1.7-1.3-2.5-2.8-2.5 -0.5 0-0.9 0.1-1.4 0.2 -0.5 0.1-1 0.3-1.6 0.5L246 196l11.5-4.7H259.2z"/><path class="st0" d="M285.3 191.3V222c0 1.8 0.1 3.2 0.3 4.2 0.2 1 0.5 1.7 1 2.1 0.5 0.4 1.1 0.7 1.8 0.7 0.7 0.1 1.6 0.1 2.6 0.1v1.5h-18.5v-1.5c1.3 0 2.3-0.1 3.1-0.3 0.8-0.2 1.4-0.5 1.8-1.1 0.4-0.5 0.7-1.3 0.8-2.2 0.1-0.9 0.2-2.1 0.2-3.6v-14.7c0-2.4 0-4.3-0.1-5.7 -0.1-1.4-0.2-2.5-0.4-3.1 -0.2-0.7-0.5-1.1-0.9-1.3 -0.4-0.2-0.9-0.3-1.5-0.3 -0.4 0-0.8 0.1-1.3 0.2 -0.4 0.1-0.9 0.3-1.5 0.5l-0.6-1.5 11.5-4.7H285.3zM281.8 171.4c1.2 0 2.2 0.4 3 1.2 0.8 0.8 1.2 1.8 1.2 3 0 1.2-0.4 2.2-1.2 3 -0.8 0.8-1.8 1.2-3 1.2s-2.2-0.4-3-1.2c-0.8-0.8-1.2-1.8-1.2-3 0-1.2 0.4-2.2 1.2-3C279.6 171.8 280.6 171.4 281.8 171.4z"/><path class="st0" d="M302.4 179.9v12.5h8.9v2.9h-8.9v24.7c0 1.2 0.1 2.3 0.3 3.1 0.2 0.8 0.5 1.5 0.8 1.9 0.4 0.5 0.8 0.8 1.2 1 0.5 0.2 1 0.3 1.5 0.3 1 0 1.9-0.3 2.7-0.8 0.8-0.6 1.5-1.4 2-2.5h1.6c-1 2.7-2.3 4.8-4.1 6.2 -1.8 1.4-3.6 2.1-5.5 2.1 -2.2 0-4-0.8-5.3-2.3 -1.3-1.5-2-4.2-2-7.9v-25.7h-6.1V194c2.4-0.9 4.5-2.5 6.4-4.7 1.9-2.2 3.6-5.3 5.3-9.4H302.4z"/><path class="st0" d="M323.7 191.3V222c0 1.8 0.1 3.2 0.3 4.2 0.2 1 0.5 1.7 1 2.1 0.5 0.4 1.1 0.7 1.8 0.7 0.7 0.1 1.6 0.1 2.6 0.1v1.5H311v-1.5c1.3 0 2.3-0.1 3.1-0.3 0.8-0.2 1.4-0.5 1.8-1.1 0.4-0.5 0.7-1.3 0.8-2.2 0.1-0.9 0.2-2.1 0.2-3.6v-14.7c0-2.4 0-4.3-0.1-5.7 -0.1-1.4-0.2-2.5-0.4-3.1 -0.2-0.7-0.5-1.1-0.9-1.3 -0.4-0.2-0.9-0.3-1.5-0.3 -0.4 0-0.8 0.1-1.3 0.2 -0.4 0.1-0.9 0.3-1.5 0.5l-0.6-1.5 11.5-4.7H323.7zM320.2 171.4c1.2 0 2.2 0.4 3 1.2 0.8 0.8 1.2 1.8 1.2 3 0 1.2-0.4 2.2-1.2 3 -0.8 0.8-1.8 1.2-3 1.2s-2.2-0.4-3-1.2c-0.8-0.8-1.2-1.8-1.2-3 0-1.2 0.4-2.2 1.2-3C318 171.8 319 171.4 320.2 171.4z"/><path class="st0" d="M336.2 206.8c0 2.9 0.4 5.4 1.1 7.6 0.8 2.2 1.8 4.1 3 5.7 1.3 1.6 2.7 2.8 4.4 3.6 1.7 0.8 3.5 1.2 5.3 1.2 2.5 0 4.7-0.7 6.5-2.1 1.8-1.4 3.4-3.7 4.6-7.1l1.3 0.8c-0.3 1.9-0.9 3.7-1.7 5.5s-2 3.4-3.3 4.8 -2.9 2.6-4.7 3.5 -3.7 1.3-5.8 1.3c-2.3 0-4.4-0.5-6.4-1.4 -2-0.9-3.8-2.3-5.3-4 -1.5-1.7-2.7-3.8-3.6-6.2 -0.9-2.4-1.3-5.1-1.3-8.2 0-3.3 0.5-6.2 1.4-8.8 0.9-2.6 2.2-4.7 3.7-6.5 1.6-1.8 3.4-3.1 5.6-4 2.1-0.9 4.4-1.4 6.9-1.4 2.1 0 4.1 0.4 5.8 1.1 1.8 0.7 3.3 1.8 4.6 3.1 1.3 1.3 2.3 3 3.1 4.9 0.7 1.9 1.1 4 1.1 6.4H336.2zM336.2 204.4h17.7c-0.2-3.5-1-6.1-2.5-7.7 -1.5-1.6-3.4-2.5-5.8-2.5 -1.1 0-2.2 0.2-3.3 0.7 -1.1 0.5-2 1.1-2.9 2 -0.8 0.9-1.6 1.9-2.1 3.2C336.6 201.4 336.3 202.8 336.2 204.4z"/><path class="st0" d="M387.8 191.3v13h-1.4c-0.5-2-1.1-3.7-1.8-5.1 -0.7-1.4-1.4-2.4-2.3-3.2 -0.8-0.8-1.8-1.3-2.8-1.7 -1.1-0.3-2.2-0.5-3.5-0.5 -1 0-1.9 0.1-2.7 0.4 -0.8 0.3-1.5 0.7-2.1 1.1 -0.6 0.5-1 1-1.3 1.6 -0.3 0.6-0.5 1.2-0.5 1.8 0 0.8 0.1 1.5 0.3 2.2 0.2 0.7 0.5 1.3 1 1.9 0.5 0.6 1.2 1.2 2 1.7 0.8 0.6 1.9 1.2 3.3 1.9l6.1 3c5.6 2.7 8.5 6.4 8.5 10.9 0 1.7-0.4 3.3-1.1 4.8 -0.7 1.4-1.7 2.6-2.9 3.6 -1.2 1-2.6 1.8-4.1 2.3s-3.1 0.8-4.7 0.8c-1.2 0-2.5-0.1-3.8-0.3 -1.3-0.2-2.7-0.5-4.2-1 -0.5-0.1-0.9-0.2-1.2-0.3 -0.4-0.1-0.7-0.1-1-0.1 -0.6 0-1.1 0.4-1.5 1.1h-1.4v-13.6h1.4c0.4 1.9 1 3.7 1.7 5.1 0.8 1.5 1.7 2.7 2.7 3.7s2.2 1.7 3.5 2.2c1.3 0.5 2.6 0.7 3.9 0.7 1 0 1.8-0.1 2.6-0.4s1.5-0.7 2.1-1.2c0.6-0.5 1-1.1 1.4-1.8 0.3-0.7 0.5-1.5 0.5-2.2 0-1-0.1-1.8-0.4-2.6 -0.3-0.8-0.8-1.5-1.6-2.2 -0.7-0.7-1.8-1.5-3.1-2.3 -1.3-0.8-3-1.7-5.1-2.7 -2-1-3.7-1.9-4.9-2.8 -1.3-0.9-2.3-1.7-3-2.6 -0.7-0.9-1.2-1.8-1.5-2.7 -0.2-1-0.4-2-0.4-3.2 0-1.6 0.3-3 0.8-4.4 0.6-1.3 1.4-2.5 2.4-3.5 1-1 2.3-1.8 3.7-2.3 1.4-0.6 3-0.8 4.7-0.8 0.5 0 1.2 0.1 2.1 0.2 0.8 0.2 1.7 0.4 2.5 0.6 0.8 0.2 1.6 0.4 2.3 0.6 0.7 0.2 1.2 0.2 1.4 0.2 0.5 0 0.8-0.1 1-0.3 0.2-0.2 0.5-0.6 0.8-1.3H387.8z"/><text transform="matrix(1 0 0 1 121.0415 270.0735)" class="st1 st2">  of  Tennessee, Inc.</text></svg>