<svg xmlns="http://www.w3.org/2000/svg" width="150px" height="150px" viewBox="0 0 844.5 844.5"><style type="text/css">  
	.st0{fill:#F4F991;}
	.ollnp1{fill:#2889BF;}
	.ollnp2{fill:none;stroke:#FFFFFF;stroke-width:25;stroke-miterlimit:10;}
	.ollnp3{fill:none;}
	.ollnp4{fill:#FF6230;}
	.ollnp5{fill:#FF4E5C;}
	.ollnp6{fill:#D4557F;}
	.ollnp7{fill:#FFFFFF;}
	.ollnp8{fill:#FFFFFF;stroke:#D4557F;stroke-miterlimit:10;}
	.ollnp9{fill:#F6DEBA;}
	.ollnp10{fill:#F4EF8E;}
	.ollnp11{fill:#FFF24F;}
	.ollnp12{fill:#C35C31;}
	.ollnp13{fill:#EE9F3D;stroke:#D5663B;stroke-width:0.5;stroke-miterlimit:10;}
	.ollnp14{fill:#EE9F3D;}
	.ollnp15{fill:#4954A1;}
	.ollnp16{fill:#EDBF83;}
	.ollnp17{fill:#F6DEBA;stroke:#824402;stroke-miterlimit:10;}
	.ollnp18{fill:#CE8DA3;}
	.ollnp19{fill:#070028;}
	.ollnp20{fill:#1E1B4C;}
	.ollnp21{fill:#B5B5E2;}
	.ollnp22{fill:#161066;}
	.ollnp23{fill:#827EBC;}
	.ollnp24{fill:#010416;}
	.ollnp25{fill:#3275B2;}
	.ollnp26{fill:#380F00;}
	.ollnp27{fill:#CC6245;}
	.ollnp28{fill:#412D58;}
	.ollnp29{fill:#F6DEBA;stroke:#D5663B;stroke-miterlimit:10;}
	.ollnp30{fill:#D5663B;}
	.ollnp31{fill:#F1F2F2;}
	.ollnp32{fill:#8DC63F;}
	.ollnp33{fill:#6E9B34;}
	.ollnp34{fill:none;stroke:#003C66;stroke-width:45;stroke-miterlimit:10;}
</style><path class="st0" d="M22.5 397.4l17.6 111.4 773.3 8.6 0.2-167 -64.2-159.8c0 0-86.1-168.2-303.9-168.2 -213.8 0-350.4 189.4-350.4 189.4L22.5 397.4z"/><path class="ollnp1" d="M129.9 698.6c38 38 82.2 67.8 131.4 88.6 51 21.6 105.1 32.5 160.9 32.5s110-10.9 160.9-32.5c49.2-20.8 93.5-50.6 131.4-88.6 38-38 67.8-82.2 88.6-131.4 4.1-9.7 7.8-19.5 11.1-29.4 0.3-23.1 6.2-29.1 7.1-47.3 2-42.6 21.7-50.5-11-62.8 -33.2-12.5-33-13.9-68.5-13.9 -35.5 0-35.5 14.4-71 14.4 -35.5 0-35.5-14.4-71-14.4 -35.5 0-35.5 14.4-71 14.4 -35.5 0-35.5-14.4-71-14.4 -35.5 0-35.5 14.4-71 14.4 -35.5 0-35.5-14.4-71-14.4 -35.5 0-35.5 14.4-71 14.4 -35.5 0-35.5-14.4-71-14.4 -35.5 0-35.5 14.4-71 14.4 -35.5 0-40.3-26.4-73.6-13.9 -32.7 12.3-4.9 33.7-2.9 76.3 0.9 18.3 7.7 24.4 8.1 47.6 3.3 9.8 3 19.5 7 29.1C62.1 616.4 91.9 660.7 129.9 698.6z"/><path class="ollnp2" d="M810.4 427.7c-33.2-12.5-33-13.9-68.5-13.9 -35.5 0-35.5 14.4-71 14.4 -35.5 0-35.5-14.4-71-14.4 -35.5 0-35.5 14.4-71 14.4 -35.5 0-35.5-14.4-71-14.4 -35.5 0-35.5 14.4-71 14.4 -35.5 0-35.5-14.4-71-14.4 -35.5 0-35.5 14.4-71 14.4 -35.5 0-35.5-14.4-71-14.4 -35.5 0-35.5 14.4-71 14.4 -35.5 0-40.3-26.4-73.6-13.9"/><path class="ollnp3" d="M544.1 189.5c-7.3-0.5-4.7-5.1-3.1-5.8 9.6-4.2 6-18.2-0.9-18.6 -5.5-0.3-2.9-4.9-2-5.9 7.1-8.5-0.7-17.7-3.6-17.6 -7.2 0.2-6.5-2.1-5.2-4.2 5.2-8.5-3.8-19.7-9.2-17.9 -5.4 1.8-5-2.7-4.4-4 2.8-5.8-5.8-13.8-8.3-16 -0.3 0.3-0.5 0.5-0.8 0.8 -5.3 5-7.2 0.4-6.6-1.2 3.4-9.9-9.3-16.8-14.3-12 -3.9 3.8-5.6-1.1-5.7-2.5 -1.4-11-13.5-11.5-15.4-9.3 -4.7 5.4-5.9 3.3-6.6 1 -2.8-9.6-17.1-10.6-19.4-5.4 -2.3 5.2-5.6 1.9-5.9 0.6 -1.6-7.7-19.3-7.6-19.2-2.7 0.2 7.3-4.6 5.1-5.5 3.7 -5.2-9.1-18.7-4.2-18.4 2.7 0.2 5.5-4.5 3.4-5.7 2.6 -9.1-6.3-17.5 2.4-17.2 5.3 0.9 7.1-1.4 6.6-3.6 5.6 -9-4.3-19.3 5.7-16.9 10.9 2.3 5.2-2.2 5.3-3.5 4.8 -5.8-2.1-17.1 7-13.8 10.2 5.2 5.1 1.1 7.1-0.5 6.7 -10.2-2.4-15.9 10.8-10.6 15.3 4.2 3.6-0.6 5.6-2 5.9 -10.8 2.4-10.2 14.5-7.9 16.2 5.8 4.2 3.9 5.6 1.6 6.5 -9.3 3.6-8.9 18-3.6 19.8 5.3 1.8 2.5 5.4 1.1 5.8 -7.5 2.3-5.8 20-0.9 19.4 7.2-0.9 5.5 4.2 4.2 5.1 -8.6 6-2.5 19 4.4 18.1 5.5-0.7 3.8 4.2 3.1 5.5 -5.4 9.7 4 17.2 6.8 16.6 7-1.5 6.7 0.8 5.9 3.1 -3.5 9.4 7.5 18.7 12.4 15.9 4.9-2.8 5.5 1.7 5.1 3.1 -1.9 7.3 4.4 8.6 4.4 8.6s6.5 6.2 8.2 4.5c4.9-4.7 8.7-0.9 8.9 1.5 0.9 9.9 14.8 13.6 18 9 3.2-4.6 5.9-0.8 5.9 0.6 0.1 7.8 17.6 11.2 18.4 6.3 1.2-7.2 5.5-4.2 6.1-2.6 3.3 9.9 17.6 7.7 18.6 0.8 0.8-5.4 5.1-2.5 6.1-1.5 7.8 7.9 17.7 1 17.9-1.9 0.5-7.1 2.7-6.2 4.6-4.8 8 5.9 20-2 18.7-7.5 -1.3-5.5 3.2-4.8 4.4-4 5.3 3.2 18.1-3.6 15.5-7.4 -4.1-6 0.3-7.2 1.8-6.5 9.5 4.3 17.6-7.6 13.3-13 -3.4-4.3 1.7-5.4 3.1-5.5 11.1-0.3 12.8-12.3 10.8-14.4 -4.9-5.2-2.7-6.2-0.3-6.6 9.8-1.8 12.2-16 7.3-18.8 -4.9-2.8-1.4-5.8 0-6C547.4 207.5 549.1 189.9 544.1 189.5z"/><path class="ollnp4" d="M543.4 135.6c-0.9-2.7-7.1-15.3-16.4-27.3 -4.2-5.5-10-11.6-15.4-16.5 0 0-18-18-45.6-26.7 -3.5-1.5-24.1-7.8-45.3-6.8 -2.1 0.1-7.7 0.4-9.8 0.6 -4 0.3-25.6 1.9-51.1 16.2C356.6 77 340.2 87 327.1 102c-2.1 2.5-4.6 5.1-6.5 7.8 -1.7 2.1-17.2 21.7-23 48.5 -1.2 3.6-5.5 24.7-2.6 45.7 0.3 2.1 1.1 7.6 1.5 9.7 0.7 3.9 5.3 27.7 20.9 49.1 2.1 3.6 17.5 24.2 37.8 35.7l4.3 3.1c3.1 2.1 22.2 12.2 43.2 15.2 2.1 0.3 7.6 1.1 9.7 1.2 4 0.5 25.5 3 53.3-6.2 3.4-1.1 21.5-7.8 37.1-20 2.6-2 5.5-4.1 7.9-6.4 2.1-1.7 21.4-17.7 32.1-42.9 1.8-3.3 10.3-23.5 11.3-44.6 0.1-2.1 0.4-7.9 0.3-10C554.6 183.8 554.6 159.6 543.4 135.6zM539.6 208.4c-1.4 0.1-4.9 3.1 0 6 4.9 2.8 2.5 17-7.3 18.8 -2.4 0.4-4.6 1.4 0.3 6.6 2 2.1 0.3 14.1-10.8 14.4 -1.4 0-6.5 1.2-3.1 5.5 4.3 5.4-3.8 17.3-13.3 13 -1.5-0.7-6 0.5-1.8 6.5 2.6 3.8-10.2 10.6-15.5 7.4 -1.2-0.7-5.7-1.5-4.4 4C485 296 473 304 465 298c-2-1.5-4.2-2.4-4.6 4.8 -0.2 2.9-10.1 9.8-17.9 1.9 -1-1-5.3-4-6.1 1.5 -1 6.8-15.3 9.1-18.6-0.8 -0.5-1.6-4.9-4.6-6.1 2.6 -0.8 4.9-18.2 1.6-18.4-6.3 0-1.4-2.7-5.2-5.9-0.6 -3.2 4.6-17.1 1-18-9 -0.2-2.4-4.1-6.2-8.9-1.5 -1.7 1.6-14.5-5.8-12.6-13.1 0.4-1.4-0.2-5.9-5.1-3.1 -4.9 2.8-15.9-6.5-12.4-15.9 0.9-2.3 1.1-4.6-5.9-3.1 -2.8 0.6-12.2-7-6.8-16.6 0.7-1.2 2.4-6.2-3.1-5.5 -6.8 0.9-12.9-12.1-4.4-18.1 1.4-1 3.1-6-4.2-5.1 -4.9 0.6-6.6-17.1 0.9-19.4 1.4-0.4 4.3-4-1.1-5.8 -5.3-1.8-5.7-16.2 3.6-19.8 2.3-0.9 4.2-2.3-1.6-6.5 -2.4-1.7-2.9-13.8 7.9-16.2 1.4-0.3 6.2-2.4 2-5.9 -5.2-4.5 0.5-17.7 10.6-15.3 1.6 0.4 5.8-1.6 0.5-6.7 -3.3-3.2 8-12.3 13.8-10.2 1.3 0.5 5.8 0.4 3.5-4.8 -2.3-5.2 7.9-15.2 16.9-10.9 2.2 1.1 4.5 1.5 3.6-5.6 -0.4-2.9 8-11.5 17.2-5.3 1.2 0.8 6 2.9 5.7-2.6 -0.3-6.9 13.3-11.8 18.4-2.7 0.8 1.5 5.7 3.6 5.5-3.7 -0.1-5 17.6-5 19.2 2.7 0.3 1.4 3.6 4.6 5.9-0.6 2.3-5.2 16.6-4.2 19.4 5.4 0.7 2.3 1.9 4.4 6.6-1 1.9-2.2 14-1.7 15.4 9.3 0.2 1.4 1.8 6.4 5.7 2.5 4.9-4.8 17.6 2.1 14.3 12 -0.5 1.6 1.2 5 7.4 1.2 4.5-2.7 12.2 8.9 8.3 15.1 -0.8 1.2-0.9 5.8 4.4 4 5.4-1.8 14.3 9.4 9.2 17.9 -1.3 2.1-2 4.4 5.2 4.2 2.9-0.1 10.7 9.2 3.6 17.6 -0.9 1.1-3.5 5.6 2 5.9 6.9 0.4 10.4 14.4 0.9 18.6 -1.5 0.7-4.1 5.3 3.1 5.8C549.1 189.9 547.4 207.5 539.6 208.4z"/><polygon class="ollnp5" points="384.3 298.8 464.4 298.8 464.4 829.1 382.3 829.1 "/><path class="ollnp6" d="M386.5 301.9c0 0 37.1 22.3 75.3 0l0.7-17.8h-78.2L386.5 301.9z"/><path class="ollnp7" d="M395.9 293.6c0 0 0.7 13.5 11.5 4.2 0 0 1.2 12.3 10.7 1.8 0 0 4.6 12.3 11.1 0.3 0 0 7.9 11.3 10.7-1.7 0 0 8.7 10.3 11.3-3.3 0 0 9.1 6.7 8.7-4.5l-1.1-6.4h-71.3l-1 7.5C386.5 291.5 386.6 301.8 395.9 293.6z"/><path class="ollnp9" d="M388.2 259.8l-0.6 24.3c0 0 33.8 23.1 71.1-0.1v-24.2l-15.4-25.7H397L388.2 259.8z"/><polygon class="ollnp10" points="394.6 765.5 394.9 819.8 391.7 820.9 391.7 765.5 "/><polygon class="ollnp10" points="390.8 765.5 391 819.8 387.9 820.9 387.9 765.5 "/><polygon class="ollnp10" points="387 765.5 387.2 819.8 384.1 820.9 384.1 765.5 "/><path class="ollnp11" d="M388.2 469.4c0 0 5.7 2.5 6.5 5.6 0.5 1.9 0 290.4 0 290.4h-10.6l1.6-296.1H388.2z"/><path class="ollnp12" d="M386.9 469.4l2.5 14.6c0 0 0.8 0.7 1-0.5 0.2-1.2 0.1-8-2.9-13.5C384.5 464.6 386.9 469.4 386.9 469.4z"/><polygon class="ollnp13" points="394.2 467 458.5 467.8 458.5 455.9 394.2 455.9 "/><path class="ollnp12" d="M396.4 460.1c0 0 9.4 0.4 13.4 0.4 0.8 0-0.6 1.1-1.1 1.2 -3 0.6-12.3 0-12.3 0L396.4 460.1z"/><path class="ollnp13" d="M386.9 452c0 0 13.4-2.9 8.4 15.4l-8.4 2.9V452z"/><polygon class="ollnp14" points="470.1 266.2 458.8 261.7 458.8 769.8 470.1 770.1 "/><polygon class="ollnp14" points="376.4 261.7 388.2 261.7 384.1 770.1 374.7 766.6 "/><path class="ollnp15" d="M576.2 544.4l-32.1-81.8c0 0-48.3-185.2-53.1-191 -1.2-1.4-21.5-6.2-21.5-6.2l-1.5 559 108.2-31.2V544.4z"/><path class="ollnp15" d="M267.3 544.4l34-81.8c0 0 48.4-185.1 53.2-190.9 1.2-1.4 22.5-7.1 22.5-7.1l-2.3 566.9 -107.4-41.7V544.4z"/><path class="ollnp16" d="M407.3 254.9c2.8-1.6 24.1-6.4 36.4 0.9 3 1.8 1.1-15.8 1.1-15.8l-41.9-0.6C402.9 239.4 404.1 256.8 407.3 254.9z"/><path class="ollnp16" d="M438.6 179.7c0 0-11 0.3-8.8 20 0 0 9.4-7.4 19.8-4.4L438.6 179.7z"/><path class="ollnp16" d="M394.3 202.4c0 0 16.6-14 26.1-4.4l-1.8-9.7 -3.4-5.5 -3-2.2 -4.8-1.6 -7.8 4.2 -3.4 6.5L394.3 202.4z"/><path class="ollnp18" d="M436.9 179.9l1.4 2.3c0 0-4.2 0.5-4.9 2 0 0-1.1 0.3-1-0.7C432.7 182.5 435 180.7 436.9 179.9z"/><path class="ollnp18" d="M408.5 178.6c0 0-1.7 0.1 0.2 1.3 13.8 8.9 11.7 13.7 10.7 43.6 0 0.7 2.7 0.6 2.7-0.1C420.7 210.3 428.6 183.9 408.5 178.6z"/><path class="ollnp19" d="M487.7 212.3c0 0-53.9-166.6-124.8-5 0 0-18.5 27.6-0.9 61.3l46.3-12.7c0 0 2.8-8.1 1-15.4 0 0-17.8-20.8-12.2-46.2 0 0 19.4-20 27.7-33.5 0 0 14.4 29.2 28.5 40.6 0 0 2.6 21.2-13 38.3 0 0-0.1 15.6 2.7 17.1 2.4 1.3 37.7 11.5 49.1 17.6 2.1 1.1 13.4 51.4 27.2 104.5 4.2 16 9.2 32.3 13.5 47.5 4.2 14.9 7.9 28.9 11.9 40.6l17.7 41.5c0 0 81.8-130.2-10.3-237.3C552 271.4 555.6 242.7 487.7 212.3z"/><path class="ollnp20" d="M551.9 271.6c0 0 0.3-5.4-0.3-8.3 -2.7-13.4-22.6-31.7-65-51.4l2.1 7.9L551.9 271.6z"/><path class="ollnp21" d="M486.6 211.9l2.1 7.9c0 0-32.4-24-64.2-58.7"/><path class="ollnp22" d="M550.4 305c0 0 5.7-26.2 1.4-33.4 0 0-11.9-23.6-50.7-42.6 -6.6-3.3-38.8-31.4-52.4-44.3 -8.4-7.9-24.1-23.6-24.1-23.6l0 0 6.1 10.4c0 0 24.3 27.8 58.8 58.2C513.7 251.1 535.2 280.5 550.4 305z"/><path class="ollnp23" d="M544.4 467.4c4.2 10.7 18.7 43.3 18.7 43.3s82.6-134.6-11.1-242.2l-1.5 36.4c0 0 2.1 11.8 0.6 21.8 0 0 7.8 46.2-20.1 96.2C530.9 423 539.5 454.8 544.4 467.4z"/><path class="ollnp24" d="M542.3 297.9c0 0-11.5 22.7-18.2 26.5 -6.6 3.8 25-13.5 22.4-21.2C544 295.6 542.3 297.9 542.3 297.9z"/><path class="ollnp25" d="M424.5 161.2c0 0 14.4 29.2 28.5 40.6 0 0 18.6 17.9 28.3 26.9 11.9 11 61.8 48.6 69.7 98.1 0 0 7.7-43.8-34.2-75.9 0 0-26.7-22.6-35.5-30.1C465.5 207.2 454.1 198.5 424.5 161.2z"/><path class="ollnp26" d="M403.9 201.3h11.9c0 0-2.6 2.3-5.9 2.4C409.8 203.7 406.4 203.8 403.9 201.3z"/><path class="ollnp26" d="M434.7 201.3h11.9c0 0-2.6 2.3-5.9 2.4C440.6 203.7 437.2 203.8 434.7 201.3z"/><path class="ollnp27" d="M418.2 226c0.5 0.1 1.7 0.3 2.1 0.6 0.5 0.3 0.9 0.9 1.6 1.4 0.7 0.5 2.3 0.7 3.3-0.3 1-1 1.8-1 2.4-1.3 0.2-0.1 0.5-0.6 0.1-0.8 -0.4-0.2-1.2 0.1-1.6 0.3 -0.4 0.2-1.2 0.7-1.6 1 -0.4 0.3-1.3 0.2-1.7 0 -0.2-0.1-0.7-0.4-0.9-0.5 -0.2-0.1-0.9-0.5-1.2-0.7 -0.2-0.1-2-0.7-2.4-0.4C417.9 225.8 418.1 225.9 418.2 226z"/><path class="ollnp28" d="M547.7 313c0 0 9 36.6-29.8 61l13 49C530.9 423 582.3 359.2 547.7 313z"/><path class="ollnp29" d="M592.5 588.1l11.2 27.6 15.1 13.5c0 0 5.9 3 8.2 16.8 2.2 13.8 5.4 16 7.2 21.3 0.6 2-0.2 6.8-8.2 0.8 0 0 11.2 20.2 6.7 23.2 0 0-1.2 0.7-3.1 0.5 0 0-1.4 6.7-6 2.2 0 0-4.4 6.3-9.2-3.8 0 0-1.8 3.6-4.9 0.9 -3-2.7-19.3-28.4-19.3-28.4L592.5 588.1z"/><path class="ollnp30" d="M628 669.4c-4.6-3.3-8-4.7-8.6-16.1 0 0-1.5-6.4-6-4.8 -4.6 1.6-11.4-6.8-11.4-6.8s-0.5-2 0.5-1.7c0 0 6.6 7.9 9.9 7.1 3.9-1 8-2.1 9.3 13.2C621.8 663.4 630 670.8 628 669.4z"/><path class="ollnp30" d="M617.1 648.8c0.1 0.8-18.1 9.8-19.3 9.7 -1.5 0-1.8-0.4-1.3-0.6 6.7-3.9 17.9-9 18.9-9.2C616 648.6 617 648.1 617.1 648.8z"/><path class="ollnp30" d="M628.8 691.5c-0.5-1.6-13-32.6-15.9-34.9 -1.3-1 1.5-1 1.9-0.2 5 12 14.7 33 15.1 34.8C630.1 692.2 629.1 692.4 628.8 691.5z"/><path class="ollnp30" d="M622.7 693.7c-0.6-1.6-14.6-31.9-17.6-34.1 -1.3-1 1.5-1.1 1.9-0.3 5.6 11.8 16.3 32.2 16.8 34C624.1 694.4 623.1 694.6 622.7 693.7z"/><path class="ollnp30" d="M613.9 689.7c-0.5-1.3-12.5-25.3-15-27 -1.1-0.8 1.2-0.9 1.5-0.3 4.8 9.3 14 25.5 14.4 26.9C615 690.2 614.2 690.4 613.9 689.7z"/><path class="ollnp29" d="M252 588.1l-11.2 27.6 -15.1 13.5c0 0-5.9 3-8.2 16.8 -2.2 13.8-5.4 16-7.2 21.3 -0.6 2 0.2 6.8 8.2 0.8 0 0-11.2 20.2-6.7 23.2 0 0 1.2 0.7 3.1 0.5 0 0 1.4 6.7 6 2.2 0 0 4.4 6.3 9.2-3.8 0 0 1.8 3.6 4.9 0.9 3-2.7 19.3-28.4 19.3-28.4L252 588.1z"/><path class="ollnp30" d="M216.5 669.4c4.6-3.3 8-4.7 8.6-16.1 0 0 1.5-6.4 6-4.8 4.6 1.6 11.4-6.8 11.4-6.8s0.5-2-0.5-1.7c0 0-6.6 7.9-9.9 7.1 -3.9-1-8-2.1-9.3 13.2C222.7 663.4 214.5 670.8 216.5 669.4z"/><path class="ollnp30" d="M227.4 648.8c-0.1 0.8 18.1 9.8 19.3 9.7 1.5 0 1.8-0.4 1.3-0.6 -6.7-3.9-17.9-9-18.9-9.2C228.5 648.6 227.5 648.1 227.4 648.8z"/><path class="ollnp30" d="M215.7 691.5c0.5-1.6 13-32.6 15.9-34.9 1.3-1-1.5-1-1.9-0.2 -5 12-14.7 33-15.1 34.8C214.4 692.2 215.4 692.4 215.7 691.5z"/><path class="ollnp30" d="M221.8 693.7c0.6-1.6 14.6-31.9 17.6-34.1 1.3-1-1.5-1.1-1.9-0.3 -5.6 11.8-16.3 32.2-16.8 34C220.4 694.4 221.4 694.6 221.8 693.7z"/><path class="ollnp30" d="M230.6 689.7c0.5-1.3 12.5-25.3 15-27 1.1-0.8-1.2-0.9-1.5-0.3 -4.8 9.3-14 25.5-14.4 26.9C229.6 690.2 230.3 690.4 230.6 689.7z"/><polygon class="ollnp14" points="267.3 544.4 267.3 789.8 251.1 789.8 251.1 584.9 "/><polygon class="ollnp14" points="576.2 544.4 576.2 793.2 592.6 793.2 592.6 584.3 "/><path class="ollnp1" d="M261.3 803.2c51 21.6 105.1 32.5 160.9 32.5s110-10.9 160.9-32.5c49.2-20.8 93.5-50.6 131.4-88.6 9.7-9.7 18.9-19.9 27.6-30.4 0 0 0 0 0 0 -39.4 0-39.4-16-78.8-16 -39.4 0-39.4 16-78.8 16 -39.4 0-39.4-16-78.8-16 -39.4 0-39.4 16-78.8 16 -39.4 0-39.4-16-78.8-16 -39.4 0-39.4 16-78.8 16 -39.4 0-39.4-16-78.8-16 -39.4 0-39.4 16-78.8 16 -3.7 0-7.1-0.3-10.2-0.7 8.8 10.8 18.2 21.2 28.1 31.1C167.9 752.6 212.1 782.4 261.3 803.2z"/><path class="ollnp31" d="M397 616.8c0 0 14.5 24.6 9.2 39.3 -5.3 14.8 6.6 6 6.6 6l6.1-2.8C418.9 659.3 408.3 615.7 397 616.8z"/><path class="ollnp32" d="M301.9 706.9h234.2v3.8H422.3c0 0-21.8-3.8-40.6 59.6h-2.6c0 0 7.5-48.4 34.3-60.1l-111.6-0.2V706.9z"/><path class="ollnp33" d="M399.9 710.1c0 0 0.3 10.5 28.2 8.3 3.4-0.3 6.9 2.8 7.2 13.7 0.3 10.6-4.7 40-43 55.8 -4.2 1.7-16 5.9-24.4-9.9 -4.7-8.9-3.3-32.4-3.3-32.4s17.3-37 31.9-37.6L399.9 710.1z"/><path class="ollnp33" d="M390.7 705c-0.8-2.1 3.5-3.9 6.3-6.6 1.6-1.5 1.2-3.7-0.2-4.4 -13.4-7.1-63.5-27.3-102.4 8.4 -2.9 2.7-6.5 8.1-1.1 15.9 25 35.8 74.3 38 105.8 9.8 1-0.9 2-2.7-1.4-6.4 -2.5-2.7-7.5-7.2-7.1-11.8C390.6 708.9 391 706 390.7 705z"/><path class="ollnp33" d="M454.3 704.8c1.4-4.8-1.2-5-2.5-7 -1.1-1.7 0.8-3.9 1.5-4.2 4.5-2.5 48.9-30.6 97.2 14 0 0 7.2 9.3 1.5 16.9 -25 32.9-80.5 43.2-106.1 6.9 -0.8-1.1-3.1-5.6 0.2-9.2 2.5-2.7 7.9-4.7 7.5-9.3C453.5 711.8 454 705.8 454.3 704.8z"/><path class="ollnp31" d="M453.9 616.8c0 0-14.5 24.6-9.2 39.3 5.3 14.8-6.6 6-6.6 6l-6.1-2.8C432 659.3 442.6 615.7 453.9 616.8z"/><path class="ollnp7" d="M350.6 657.8c0 0 28.9-13 36.9 8.4 8.5 22.8 19.3 42.2 37.9 41.4 11.3-0.5 19.7 2.1 36-38.4 3.6-9 12.4-26.4 38.7-10.9 0 0-16.5-31.7-47.8 0.6 0 0-2.4-16.2 21.5-30.9 0 0-20-5.9-34.8 30 0 0-3-34.3-13.7-44.7 0 0-13.4 17-13.1 44.9 0 0-11.9-32.9-37-29.7 0 0 26 15.6 23.1 30.3C398.3 658.8 371.3 628.1 350.6 657.8z"/><path class="ollnp32" d="M404 718.5c0 0-18.4 13.6-22.8 51.9C389.2 747.4 388.6 739.8 404 718.5z"/><path class="ollnp32" d="M371 711c0 0-23.2-12.9-65.9 1C333.3 709.4 341 705 371 711z"/><path class="ollnp32" d="M465.3 712c0 0 23.2-12.9 65.9 1C503 710.4 495.3 706 465.3 712z"/><circle class="ollnp34" cx="422.3" cy="422.3" r="399.8"/><path class="ollnp29" d="M592.1 588.1l11.2 27.6 15.1 13.5c0 0 5.9 3 8.2 16.8 2.2 13.8 5.4 16 7.2 21.3 0.6 2-0.2 6.8-8.2 0.8 0 0 11.2 20.2 6.7 23.2 0 0-1.2 0.7-3.1 0.5 0 0-1.4 6.7-6 2.2 0 0-4.4 6.3-9.2-3.8 0 0-1.8 3.6-4.9 0.9 -3-2.7-19.3-28.4-19.3-28.4L592.1 588.1z"/><path class="ollnp30" d="M628 669.4c-4.6-3.3-8-4.7-8.6-16.1 0 0-1.5-6.4-6-4.8 -4.6 1.6-11.4-6.8-11.4-6.8s-0.5-2 0.5-1.7c0 0 6.6 7.9 9.9 7.1 3.9-1 8-2.1 9.3 13.2C621.8 663.4 630 670.8 628 669.4z"/><path class="ollnp30" d="M617.1 648.8c0.1 0.8-18.1 9.8-19.3 9.7 -1.5 0-1.8-0.4-1.3-0.6 6.7-3.9 17.9-9 18.9-9.2C616 648.6 617 648.1 617.1 648.8z"/><path class="ollnp30" d="M628.8 691.5c-0.5-1.6-13-32.6-15.9-34.9 -1.3-1 1.5-1 1.9-0.2 5 12 14.7 33 15.1 34.8C630.1 692.2 629.1 692.4 628.8 691.5z"/><path class="ollnp30" d="M622.7 693.7c-0.6-1.6-14.6-31.9-17.6-34.1 -1.3-1 1.5-1.1 1.9-0.3 5.6 11.8 16.3 32.2 16.8 34C624.1 694.4 623.1 694.6 622.7 693.7z"/><path class="ollnp30" d="M613.9 689.7c-0.5-1.3-12.5-25.3-15-27 -1.1-0.8 1.2-0.9 1.5-0.3 4.8 9.3 14 25.5 14.4 26.9C615 690.2 614.2 690.4 613.9 689.7z"/><path class="ollnp29" d="M252 588.1l-11.2 27.6 -15.1 13.5c0 0-5.9 3-8.2 16.8 -2.2 13.8-5.4 16-7.2 21.3 -0.6 2 0.2 6.8 8.2 0.8 0 0-11.2 20.2-6.7 23.2 0 0 1.2 0.7 3.1 0.5 0 0 1.4 6.7 6 2.2 0 0 4.4 6.3 9.2-3.8 0 0 1.8 3.6 4.9 0.9 3-2.7 19.3-28.4 19.3-28.4L252 588.1z"/><path class="ollnp30" d="M216.5 669.4c4.6-3.3 8-4.7 8.6-16.1 0 0 1.5-6.4 6-4.8 4.6 1.6 11.4-6.8 11.4-6.8s0.5-2-0.5-1.7c0 0-6.6 7.9-9.9 7.1 -3.9-1-8-2.1-9.3 13.2C222.7 663.4 214.5 670.8 216.5 669.4z"/><path class="ollnp30" d="M227.4 648.8c-0.1 0.8 18.1 9.8 19.3 9.7 1.5 0 1.8-0.4 1.3-0.6 -6.7-3.9-17.9-9-18.9-9.2C228.5 648.6 227.5 648.1 227.4 648.8z"/><path class="ollnp30" d="M215.7 691.5c0.5-1.6 13-32.6 15.9-34.9 1.3-1-1.5-1-1.9-0.2 -5 12-14.7 33-15.1 34.8C214.4 692.2 215.4 692.4 215.7 691.5z"/><path class="ollnp30" d="M221.8 693.7c0.6-1.6 14.6-31.9 17.6-34.1 1.3-1-1.5-1.1-1.9-0.3 -5.6 11.8-16.3 32.2-16.8 34C220.4 694.4 221.4 694.6 221.8 693.7z"/><path class="ollnp30" d="M230.6 689.7c0.5-1.3 12.5-25.3 15-27 1.1-0.8-1.2-0.9-1.5-0.3 -4.8 9.3-14 25.5-14.4 26.9C229.6 690.2 230.3 690.4 230.6 689.7z"/><path class="ollnp14" d="M267.3 544.4l-16.2 40.5v97.2c6.6-0.4 11.8-1.3 16.2-2.5V544.4z"/><path class="ollnp14" d="M592.6 584.3l-16.4-39.9v126.4c4.5-1.3 9.7-2.3 16.4-2.7V584.3z"/></svg>