<svg xmlns="http://www.w3.org/2000/svg" viewBox="0 0 1645.4 347.1"><style type="text/css">  
	.st0{fill:#008061;}
	.st1{enable-background:new    ;}
</style><title>  usccb</title><path class="st0" d="M163.5 240.7c0 18.5-0.1 37 0.1 55.4 0 4.1-0.6 5.3-5.1 4.7 -59-8.2-103.9-54.4-110.3-113.6 -0.8-7-0.8-7 6.2-7 34.6 0 69.3 0.1 103.9-0.1 4 0 5.4 0.8 5.3 5.1C163.4 203.7 163.6 222.3 163.5 240.7L163.5 240.7z"/><path class="st0" d="M186.8 240.5c0-18.7 0.1-37.3-0.1-56 0-3.5 0.9-4.4 4.4-4.4 35.5 0.1 71 0.1 106.5 0 4.1 0 4.8 1.2 4.5 5 -3.9 58.8-53.3 109.8-112 115.9 -4 0.4-3.4-1.8-3.4-4.1C186.8 278.2 186.8 259.4 186.8 240.5z"/><path class="st0" d="M105.8 156.9c-17.3 0-34.6-0.1-52 0.1 -3.8 0-5.1-0.4-4.3-4.9 10.4-55.5 53.1-96.3 109.4-104.3 3.9-0.6 4.7 0.5 4.7 4.3 -0.1 33.3-0.1 66.6 0 99.9 0 3.8-0.8 5.1-4.9 5.1C141.1 156.7 123.4 156.9 105.8 156.9z"/><path class="st0" d="M243.8 156.8c-17.5 0-35-0.1-52.5 0.1 -3.2 0-4.6-0.5-4.6-4.2 0.2-33.7 0.2-67.3 0-101 0-3.6 0.8-4.5 4.4-4 56.1 7.9 98.5 48.2 109.5 103.8 0.8 4.2 0.2 5.4-4.3 5.4C278.8 156.7 261.3 156.8 243.8 156.8z"/><path d="M110.9 307.6c-6 2.1-13.6 16.3-11.7 22l-9.5-5.6c2.9-0.6 5-1.2 5.8-3.3 0.8-2 3.6-4.2 2.4-5.6 -2.1-2.4-5.3-3.9-8.3-5.2 -1.7-0.7-5.3 6.8-4.5 9.4 0.2 0.7 1.3 1.1 0.6 2.4l-8.7-4.8c7.2-3.6 8.5-11.3 12.5-17 0.8-0.9 0.6-2.3-0.4-3.1 0 0-0.1 0-0.1-0.1 -2.1-1.5-2 1.6-3.5 1.7 -1.3-0.9 0.2-2-0.2-3.1 -0.7-1.7-2.1-3.1-3.8-3.8 -1.9-0.9-2.5 1.2-3.4 2.2 -2.4 2.8-4.7 5.7-7 8.5 -2 2.4-4.5 4.6-2.3 8.4l-8.8-7.3c3.9 1.3 5.7-1.2 7.6-3.6 2.3-2.9 4.8-5.6 6.9-8.5 0.9-1.2 3.7-2.3 1.5-4.4 -1.7-1.7-3.7-3.6-6.5-1.5 -0.4 0.2-0.9 0.5-1.3 0.6 2.6-5.5 3.3-5.5 7.7-1.9 6.8 5.5 13.2 11.7 22.1 15.9 -5.1 0.9-6.5 4.1-7.4 7.6 -0.2 0.9 8.3 5.5 9.2 5.2 2.1-0.7 3.5-6.3 2.4-10.2L110.9 307.6z"/><path d="M267.8 319.9l-8.6 5.5c0.3-7.1-8.4-19.6-14.3-20.4l8.5-5.6c-0.4 3.8 2.2 9.7 4.2 9.7 1.2 0 8.5-5.5 8.4-6.4 -0.1-2.7-4.3-5.9-8.7-5.8l9.2-6c-0.6 6.4 8.4 19.5 14.4 20.4l-8.4 5.5c-1.3-1.6 0.6-3-0.2-4.4 -1.4-2.4-2.5-6.4-4.8-6.5 -3-0.2-5.9 2.7-8.3 4.9 -1.7 1.5 3.4 8.2 6.4 8.4C266.2 319.3 267 318.5 267.8 319.9z"/><path d="M306.5 102.5l-3.9-7.7c6.7 1.3 20.2-6 21.7-11.7 3.2 3.2 3 6.4 1 10.3 -2.5 4.9-4.6 10-6.2 15.2 4.7-3.1 12-2.6 13.2-10.8l3.8 7.1c-9.3-0.5-15.4 6.9-24.4 9.3l10-23.3C316.3 94.1 308.2 93.7 306.5 102.5z"/><path d="M226.9 26.1c1.1-2.8 2.1-5.6 3.2-8.3s2.7-5.7-1-8.9c5.4 0.7 7.5 3 8.4 7.3 1.1 5.2 2.9 10.2 4.5 15.3 0.1 0.3 0.4 0.4 1.2 1.4 0.6-6.2 7.7-10.5 1.9-17.9l8.3 3.3c-7.5 5.6-7.3 15.2-12.8 22.7l-7.6-25.2 -5 11.6C226.9 27.5 226.4 27.2 226.9 26.1z"/><path d="M301 274.5c2.6-6.1 0.8-10-4.1-10.2 -1.7-0.2-3.3 0.7-4.2 2.2 -1.2 1.9 0.6 2.7 1.6 3.6 3.7 3.1 7.5 6 11.3 9 1.8 1.5 3.7 2.3 6.2 1l-6.4 8.3c-0.2-6-4.5-7.9-7.9-10.3s-5.7-7.5-12.2-4.3c2.7-3.7 4.7-6.6 6.8-9.4 2-2.6 4.5-4.6 8.1-3.6 2.7 0.7 4.7 2.8 5.3 5.5C306.3 269.8 304.7 272.3 301 274.5z"/><path d="M143.1 22.1c0.1 7.4-0.5 7.8-16 10.5 3.4-4.5 0.8-8.7-0.5-12.6s0.3-9.6-6.3-10.9c4.8-1.4 9.6-2.9 14.5-4 3.6-0.9 2.3 2.5 3.2 4.3 -3.2-2.7-6.9-3.2-9.2-0.1 -1.4 1.8-0.2 5.9 1.7 7.1 3 1.9 4.3-1.5 5.8-4.2l2.7 8.8c-2.8-2.7-5.1-4.1-7.7-1.9 -0.9 0.8 1.3 8.9 2.6 9.2C138.5 29.4 140.6 26 143.1 22.1z"/><path d="M21.7 105.5l9.4 3.7c-4.4 0.1-6.4 1.6-6.5 4.8 0 1.1 7.9 4.5 8.8 3.7 3.8-3.2 2.2-7 0.5-11.3 4.3 2.1 5.6 4.7 3.8 8.6 -1.6 3.4-3.1 6.9-4.7 10.4 -3.4-6-18.1-11.5-23.3-8.5 2-5 3.7-9.6 5.6-14.1 1.7-3.9 3.6-0.5 6.8-0.3 -5 1.3-8.4 5.2-7.1 7.3 1.5 2.3 4.7 3.8 6.8 3.1C25 111.9 23.8 108.8 21.7 105.5z"/><path d="M274.8 31.2c3.9 3 7.1 5.5 10.4 8 3.9 2.9 3.9 2.8-0.2 7.2 1.1-4.6-0.9-7-4.6-8.1 -1.1-0.3-5.4 5-5.2 6.2 0.3 1.6 3 2.5 7 1.9l-5.2 7.4c0.3-3.8 0.1-6.5-3.2-7.3 -1.1-0.3-6.4 6.4-5.9 7.5 2.1 4.1 5.8 4.2 11.1 3.3 -3.3 3.1-5.7 4.4-8.7 2.1 -3.3-2.4-6.4-5.1-9.6-7.8C267.4 49.7 276.5 36.9 274.8 31.2z"/><path d="M305.9 90.9c-10 3.6-9.1-7.7-14.6-10.8 5.5 0.7 8.5-3.3 12-5.9 3.2-2.5 8.6-3.6 6.9-10.5 3.7 4.8 7 8.8 9.8 13 2.2 3.2-1.9 2.9-2.9 4.5 -0.5-1.7 1.6-3.1 0.3-4.9 -1.1-1.4-1.5-3.9-3.5-3.8 -2.7 0.2-5.7 2.1-6.2 4.3 -0.6 3.2 2.7 3.7 6.1 3.9l-7.5 6c2.2-3.9 2.1-6.5-0.7-8.1 -0.9-0.5-8 4.4-7.8 5.6C298.4 88.7 302.1 89.7 305.9 90.9z"/><path d="M28.7 142.3c-1.2-3.8-4.1-4.5-7.3-5.2s-6.4-1.9-9.6-2.4c-1.6-0.3-3.8-2.6-5.1 0.5 -1 2.4-1.4 4.9 1.5 6.4 0.4 0.2 0.6 0.7 0.9 1.2 -6.6-0.8-6.5-0.8-4.8-6.9 1.2-3.8 2.1-7.7 2.9-11.6 0.7-4.4 2.8-4.5 6.1-2.7 -0.5 1.4-2.1 0.7-2.9 1.5 -1.2 1.4-1.9 3.2-1.8 5 0 1.9 2.1 1.8 3.4 2.2 3.7 1 7.4 2 11.1 2.9 2.8 0.7 5.7 1.8 8-1.7L28.7 142.3z"/><path d="M269.3 33.5c0.1-4.3-2.8-6-6.1-6.8 -1.2-0.3-4.9 5.5-4.3 6.7 1.6 3.2 4.4 1.8 7.4 0.9l-4.2 7.3c-0.5-1.8-0.1-3.7-1.9-4.8s-3.2-2-4.3 0.6c-1.4 3.1-5.4 5.8-2 10.3l-9.5-5.4c6.2-0.9 7.3-5.8 9.4-9.6 2.1-3.5 6.5-6.8 2.3-12.5 5.2 3 9.4 5.6 13.7 7.9C273.9 30.3 269.7 31.6 269.3 33.5z"/><path d="M346.1 145.4c-1.9-1.8-7.7-2.3-8.6-0.5 -1.7 3.3 1.1 4.6 3.7 6.3l-9 1.9c3.4-2.5 4.5-4.8 2.6-7.4 -0.7-1-9 0.3-9.4 1.6 -1.6 4.8 2.1 7.1 5.4 9.9 -4.5 0.4-6.9-1.2-7.5-5.2 -0.6-3.7-1-7.5-1.5-11.3 6.3 2.9 21.2-0.3 24.3-5.7l1.3 9.3C347.6 145.3 347.1 145.5 346.1 145.4z"/><path d="M74.8 38.2c-1.7-1.2-3.9-1.1-5.6 0.2 -2.3 1.7-3.1 3.1-0.8 5.5 2.7 2.9 5.2 6.1 7.6 9.2 1.8 2.3 3.6 4.5 7.4 3.2l-9.8 8.5c3.1-6.4-1-8.8-3.4-12 -1.4-1.9-2.8-3.7-4.5-5.3 -1.2-1.2-1.8-4.3-4.5-2.4 -2.1 1.4-4.1 3.1-2.4 6.2 0.2 0.4 0 0.9 0 1.5 -4.7-4.5-4.7-4.5 0.2-8.4 3.1-2.3 6-4.7 8.7-7.4C70.8 33.7 72.9 33.8 74.8 38.2z"/><path d="M119 15.4c-2.2-1-3.5-2.6-5.8-1.6 -2.5 1.1-4.1 1.9-2.4 5 1.7 3.4 3.2 7 4.5 10.6 1.1 2.9 2.4 5.6 6.4 5.6l-11.4 5.1c4.9-5.9 0.3-9.7-1-14.1 -0.4-1.4-1-2.8-1.8-4.1 -0.9-1.5-0.5-4.6-3.3-4.1 -2.6 0.5-5.2 1.8-4.4 5.5 0.1 0.3-0.3 0.8-0.6 1.3 -3-5.9-3-5.9 2.5-8.1 3.5-1.4 7.2-2.6 10.5-4.5C115.9 9.8 117.9 10.6 119 15.4z"/><path d="M188.5 339c-4.1 7.1-10 9.5-15.7 7.3 -5.2-2.1-8-8.7-6.5-15.2s6.6-10.7 12.3-10.3c7.1 0.6 8.4 1.8 8.9 8.9 -2.6-1.9-3.5-5.1-6.3-6.3 -3-1.3-5.8-1.5-8.3 0.9 -4 3.9-3.7 12.8 0.5 17.4C177.2 345.8 181.1 345.3 188.5 339z"/><path d="M40.3 273.2c-6.4 0.8-11.6-2.6-13-8.6 -1.3-5.5 2.3-11.5 8.7-14 6.6-2.6 13-0.6 15.9 5 3.3 6.5 3.1 7.6-2.8 11.7 0.1-3.1 2.5-5.5 1.9-8.5s-1.8-5.7-5.2-6.5c-5.3-1.2-12.4 3.5-14.3 9.3C29.6 266.9 31.9 269.8 40.3 273.2z"/><path d="M25 163.4c-3.7 4.9-9.2 7.8-13.8 11.8 -1.7 1.3-3.4 2.9-4.8 4.5 6.1-0.8 12.9 3.6 18.4-3v8c-5.9-4.4-20.5-4.3-24.2 0.1 -1-5.8-0.9-5.6 3.4-9.3s9.7-6.3 13.1-11.1C19.3 161.4 22.3 163.3 25 163.4z"/><path d="M313.4 264.4c2 0.1 4 0.1 6 0 2.1-0.3 3.7-1.8 4.2-3.8 0.5-1.7-0.1-3.5-1.5-4.4 -1.9-1.5-3.7-0.9-5.6 0.1 -2 1.1-4 2.4-6.1 3.4 -3.3 1.5-6.3 0.8-8.4-2.2s-1.4-5.8 0.8-8.7c2.8-3.7 5.5-4.5 9.3-0.6 -1.9 0-3.8 0.1-5.7 0.4 -2 0.5-3.5 2.1-3.9 4.1 -0.3 1.4 0.4 2.7 1.6 3.3 1.8 1.1 3.5 0.3 5.1-0.8 1.4-0.9 2.7-2 4.1-2.9 2.9-1.9 5.7-1.5 8.4 0.3 2.5 1.7 4 4 3.7 7.1 -0.4 3.2-2.5 6-5.5 7.3C317.8 268.1 315.4 266.4 313.4 264.4z"/><path d="M6 191.6c4.2-0.9 8.5-1.8 12.8-1.5 5.2 0.4 8.3 3.6 8.9 9 0.6 4.8-1.5 7.8-6.9 9.3 -3.1 0.8-6.1 1.4-9.3 1.8 -2.9 0.5-6.1 0.2-7.2 4l-1.5-9.1c4 2.3 17.3 0.7 20.4-2.1 1.9-1.7 2.5-4.5 1.5-6.9 -0.7-2.7-3.2-4.5-6-4.4 -3.5 0-6.9 0.6-10.4 0.9C7.5 192.7 6.1 193.6 6 191.6z"/><path d="M157.8 9.1c-2.1-3.1-3.5-5.4-6.5-5.7 -2-0.2-3.7 0.3-4.4 2.4 -0.6 1.8 0.3 3.7 2 4.4 0.1 0 0.1 0 0.2 0.1 1.7 0.7 3.5 1.1 5.2 1.6 5.1 1.7 7.4 6.1 5.6 10.9 -1.4 4-6.3 6-10.9 4.2 -3.3-1.3-2.9-4.6-3.5-7.5 1.4 1.6 2.6 3.3 4.1 4.8 1.6 1.6 4 1.9 6 0.8 1.4-0.7 2.2-2.1 2.2-3.6 0-2.4-1.6-3.5-3.5-4.3 -2.3-0.8-4.6-1.8-6.9-2.9 -3.1-1.7-4.4-4.6-3.2-8s3.9-4.8 7.5-4.5C157.4 2.3 157.4 2.3 157.8 9.1z"/><path d="M53.5 73.9c2.4-0.2 4.6 1.2 6.9 0.6 3-0.6 5.1-2.3 4.5-5.5s-3.1-4-6.1-3.1c-2.2 0.7-4.3 1.8-6.6 2.2 -3.6 0.8-6.7-0.4-8.2-4 -1.4-3.4 0-6 2.7-8.3 3.5-3 6.3-2.7 9.1 1.4 -2.4-0.1-4.5-1.5-6.7-0.7s-4.5 2.3-3.7 5.1 3.1 3.1 5.7 2c1.4-0.6 2.7-1.2 4.1-1.8 5-1.9 10 0.5 11.4 5.5 1.1 3.9-2 8.8-6.5 9.8C57.3 77.9 55.5 75.5 53.5 73.9z"/><path d="M245.8 312.5c-2.3-1.9-4.1-3.9-7-3.6 -2.3 0.3-4.4 1.2-4.4 3.9 0.1 2.4 1.9 3.4 4.1 3.5 1.7 0.1 3.3 0 5 0 5.2 0.1 8.8 4 8.4 9 -0.4 4.4-5.2 8-9.8 7.1 -2.9-0.6-3.5-3.5-4.7-6.1 1.5 1 3 2.2 4.6 3 2.2 1.2 4.5 1.3 6.5-0.5 1.3-1.1 1.8-2.9 1.2-4.5 -0.9-2.4-3-2.8-5.3-3 -2.3-0.1-4.6-0.3-6.9-0.8 -3.3-0.6-5.6-3.6-5.2-6.9 0.2-3.4 2.3-5.4 5.6-6.1C243.6 306 243.6 306 245.8 312.5z"/><path d="M345.1 205.4c-0.8-0.3-1.5-1-2.3-0.9 -2 0.2-4.2-2.3-5.9 0.1s0.1 4.3 1.7 6.1c-1.5 1-2.7-0.1-3.9-0.3s-2.7 0.5-3.9-1.2c2.8-1 5.2-2.7 3.8-5.9 -1.1-2.4-9.2-1.6-12.1 1.1 -0.8-2 0.6-3.5 0.7-5.2 0.2-1.7 0.5-3.4 0.8-5 5.6 5.2 20.3 7.2 24.9 2.9l-2.1 10.1C345 207.9 345.9 205.9 345.1 205.4z"/><path d="M135.9 316.6l10.2 2.2c-5 2.5-4.1 7.1-5.2 11 -0.5 1.6-0.8 3.2-1 4.9 -0.1 2.1-2.5 4.7 0.4 6.3 2.4 1.3 5.2 0.8 7.6-0.8 0.6-0.4 0.9-1.4 2.3-0.9 -1 3.5-2.9 5.4-6.8 4.6s-7.7-1.8-11.5-2.7C137 336.1 139.4 321.6 135.9 316.6z"/><path d="M181.9 2.2c-4.9 3.3-5.6 8.1-4.6 13.3 1.8 9 8.3 10.7 16.3 4.5 -1.3 3.9-4.5 6.3-9.1 6.4 -5 0.1-8.7-1.9-10.7-6.6 -3-7 0.1-15.1 6.9-18.5C181.8 0.8 182 1.3 181.9 2.2z"/><path d="M339 118.4c-4.8-2.7-9.4-1.8-13.7 1 -7.6 4.8-7 11.2 1.5 16.9 -4.5-0.2-7.4-2.3-9.1-6.5s-1.3-8.5 2.1-12c5.5-5.5 14.5-5.6 20.2-0.2C340.3 118.5 339.9 118.7 339 118.4z"/><path d="M162.7 346c-3.3-0.6-6.7-0.8-10.1-0.6 4.9-6.3 5.7-21.2 1.2-25.2L164 321C159.3 326.6 158.8 342 162.7 346z"/><path d="M227.8 311.8c-2.4 6.8 3.7 21.5 9.7 23.2l-10.2 3.6c1.5-6.8-3.6-21-9-23.2L227.8 311.8z"/><path d="M27.3 147.5l-1.4 10.6c-5.9-5-20.6-6.3-24.7-1.5l1.1-10.5C8.4 150.9 23.1 152 27.3 147.5z"/><path d="M25 163.4c-2.6 0.5-5.5-0.9-8 1 -3.2 0-6.3 0-9.5-0.2s-5.6 0.2-7.2 3.6v-8.4c2.1 2.7 4.9 2.9 7.9 3C13.9 162.7 19.5 161.7 25 163.4z"/><path d="M181.9 2.2l-1.2-1c4.7-3.1 9 0.2 13.1 1.4 2.3 0.7 0.3 4.3 0.8 6.7C191.2 5.2 188.4 0.5 181.9 2.2z"/><path d="M339 118.4l0.9-0.9c4.4 3.4 2.8 8.5 3.2 12.8 0.2 1.8-4 1.7-6.2 3C340.2 128.4 343.4 123.9 339 118.4z"/><path d="M226.9 26.1l1 1.2c-0.7 2.7-2.3 5.4 0.9 7.9l-8.3-3.3C224 30.9 225.4 28.6 226.9 26.1z"/><path d="M345.1 205.4l1.7 2c-0.1 1-0.3 1.9-0.3 2.9 0 4.7-2.2 5.7-6.8 3.3C344.8 212.6 345.3 209.2 345.1 205.4z"/><path d="M6 191.6l2.4 1.1c-2.7 0.8-5.8 1.1-6.8 4.9L0.3 190C2 191.1 4 191.7 6 191.6z"/><path d="M346.1 145.4l1-1.2c1 1 0.6 2.5 1.1 3.7 1.8 4.9-0.9 5.4-6 5.4C346.8 151.3 346.2 148.2 346.1 145.4z"/><path d="M218.1 328.4c-2.2-1-1.7-1.8-1.1-3.6 1.2-4.1-1.2-7.3-5.5-7.5 -5-0.1-9.3 2.3-14.1 3.1 5.2 2.2 9.1 17.9 5.1 24.8 5.4-2.6 10-2.2 14.2-3.8 2.6-0.8 4.5-3.2 4.7-5.9C221.7 332.5 221 329.7 218.1 328.4zM205.4 322c-0.6-2.1 1.3-2.8 3.2-2.7 3.5 0.2 4.9 2.6 5.1 5.6 0.2 3.2-2.5 3.4-5.3 3.8C205 327.9 206.1 324.4 205.4 322zM212.1 340.8c-4.7-0.3-3.5-4.9-4.2-7.7 -0.8-3.1 2-2.9 3.8-2.9 3.6-0.1 5.4 2 5.7 5.5C217.4 339.1 215.2 341 212.1 340.8L212.1 340.8z"/><path d="M301.4 53.8c-2.7-2.9-5.7-5.5-8.9-8.5 1.7 6-3.4 7.8-6.2 10.7s-5.3 7.2-10.7 7.2c2.8 2 4.4 4.9 7.3 6.8 -1.7-3.6 0.6-5.6 2.7-7.3 1.1-0.9 1.8-3.3 3.9-1.8 2 1.4 1.1 3.2 0.5 4.9 -0.8 2.2-1.6 4.4-2.1 6.6 -0.8 3.3 0.5 5.3 4.2 5.8 -1.7-4.7 1.3-8.3 2.1-12.2 0.3-1.3 1.2-1.1 2.3-0.9 3.3 0.6 5.3-1.3 6.7-4S303.3 55.8 301.4 53.8zM300.2 56.8c-0.1 3.2-2 5.1-5.1 5.8 -2.3-0.6-4.9-2.2-4.4-3.9 0.9-3.1 3.3-5.4 6.5-6.2C299.3 52.2 300.3 54.7 300.2 56.8L300.2 56.8z"/><path d="M42.2 81.3c-5.1-3.8-10.1-3.7-14.5 0.2s-5.8 9.6-8.7 14.4c4.9-2.2 19.1 5.7 21.2 12.3 2.3-3.7 4.4-6.8 6.1-10.2C49.4 92.1 47.7 85.4 42.2 81.3zM37.8 98.6c-3.7-2.2-7.3-4.5-11.1-6.6 -2.8-1.6-2.7-3.4-0.9-5.6 3-3.8 6.9-4.2 11.2-2.8 5.2 1.7 8.8 6.1 8.7 10.3C45.7 99.3 42.4 101.2 37.8 98.6z"/><path d="M285 277.7c-6.6-0.2-12.7 5.7-12.9 12.6 -0.2 7 6 13.6 12.9 13.9 6.6 0.2 12.7-5.7 12.9-12.6C298.1 284.4 292 277.9 285 277.7zM287.7 300.9c-6-0.3-13.4-7.6-13.1-13 0.3-4 3.7-7.1 7.7-6.9 6 0.2 13.6 7.3 13.5 12.7C295.4 297.9 291.9 301.1 287.7 300.9L287.7 300.9z"/><path d="M119.8 311.1c-7.4-0.1-13.3 5.9-13.4 13.7 0 6.9 5.7 12.5 12.6 12.4 0.1 0 0.2 0 0.3 0 7-0.1 12.8-6.4 12.9-13.9C132.1 316.5 126.9 311.3 119.8 311.1zM124.4 332.5c-1.7 2.4-4.6 3.6-7.5 2.9 -3.1-0.6-5.4-3-5.9-6.1 -0.7-3.6-0.2-7.4 1.5-10.7 1.8-3.7 4.3-6.5 8.9-5.7 4.1 0.7 6.5 4.3 6.4 10C127.7 326.3 126.4 329.7 124.4 332.5L124.4 332.5z"/><path d="M210.7 3.7c-7.3 0-13.1 6.4-12.9 14.3 0.2 7 5.5 12 12.8 11.9s12.8-6.1 12.7-13.9c0-6.7-5.4-12.2-12.2-12.3C210.9 3.7 210.8 3.7 210.7 3.7zM218.3 20c-1.3 5.7-4.5 8.7-8.9 8.3 -4.5-0.5-7.3-4.5-7.3-11.3 0.1-0.5 0.3-2 0.7-3.5 1.4-5.8 4.6-8.6 9-8 4.2 0.6 7 4.4 7 10C218.8 17 218.6 18.5 218.3 20z"/><path d="M337.1 168.3c-7.5 0-12.7 5-12.8 12.3s5.7 12.9 13.5 12.9c7.3 0 12.8-5.2 12.8-12.3C350.7 173.8 344.9 168.3 337.1 168.3zM345.9 186.3c-4.5 3.5-10.5 4.1-15.6 1.6 -5.3-2.4-5.8-9.1-1.2-12.7 2.1-1.6 5.4-2.6 9.2-2.6 2.1-0.1 4.2 0.3 6.1 1.2C349.8 176.1 350.7 182.8 345.9 186.3z"/><path d="M38 280.2l5.5 6.2c-2.3-4.8 1.4-6.1 4.4-6.4 3.3-0.3 5.5 3.1 6 5.6 0.6 3.3-1.3 6.2-6.2 5.4l6.8 7.4c1.6-9.6 7.7-16.9 10.7-26.1C55.6 274.3 47.5 279.3 38 280.2zM55.6 282.9c-1.7 0.8-3-2.3-4.3-4 1-0.5 1.9-1 2.8-1.4 1.5-0.6 3-1 5.2-1.8C58.2 278.7 57.7 281.9 55.6 282.9L55.6 282.9z"/><path d="M107 41.1c-8.6-4-15-10.8-23.6-16l3.5 28.3 6.3-3.9c-4.6 0.7-5.4-2.3-5.2-5.2 0.2-3.9 4.2-5.3 6.7-5.3 2.9-0.1 5.8 2.4 3.9 7.4L107 41.1zM87.9 39.9C85.9 38.1 86 35 86 32c2.8 1.1 4.7 2.9 7 4.9C91.2 38.5 88.8 40.8 87.9 39.9z"/><g class="st1"><path class="st0" d="M408.4 76c0.9 0 3.9-0.1 9.3-0.4 0.1 0.3 0.2 0.7 0.2 1.1 0 0.8-0.1 1.2-0.3 1.2 -0.5 0-1.5 0.2-2.9 0.6 -1.4 0.4-2.1 0.7-2.2 1.1 -0.5 1.9-0.7 4.3-0.7 7.4v17.8c0 6 1.3 10.8 3.8 14.4 2.6 3.6 6.2 5.3 10.8 5.3 9.1 0 13.6-6 13.6-17.9V86.6c0-3.2-0.2-5.6-0.6-7 -0.2-0.4-1.1-0.8-2.8-1.2 -1.7-0.4-2.9-0.6-3.5-0.6 -0.2 0-0.3-0.3-0.3-0.9 0-0.6 0.1-1 0.3-1.2 0.7 0.1 2.1 0.1 4.1 0.3 2.1 0.1 3.8 0.2 5.3 0.2 1.4 0 3.1-0.1 5.2-0.2s3.3-0.2 3.7-0.2c0.1 0.3 0.2 0.7 0.2 1.2 0 0.6-0.1 1-0.3 1 -0.5 0-1.7 0.2-3.5 0.6 -1.8 0.4-2.7 0.8-2.8 1.2 -0.4 1.6-0.6 4.1-0.6 7.4v19.4c0 8.2-1.7 14-5.2 17.2 -3.5 3.2-8.4 4.8-14.8 4.8 -6.3 0-11.2-1.9-14.6-5.6 -3.4-3.7-5.1-9.7-5.1-18V86.7c0-3.3-0.2-5.7-0.6-7.1 -0.2-0.4-0.9-0.8-2.3-1.2 -1.4-0.3-2.4-0.5-3.1-0.5 -0.2 0-0.3-0.3-0.3-1 0-0.6 0.1-1.1 0.3-1.3C405 75.8 408.2 76 408.4 76z"/><path class="st0" d="M497.2 86.6c0-3.2-0.2-5.6-0.6-7 -0.2-0.4-1.1-0.8-2.8-1.2s-2.9-0.6-3.5-0.6c-0.2 0-0.3-0.3-0.3-0.9 0-0.6 0.1-1 0.3-1.2 0.7 0.1 2.1 0.1 4.1 0.3 2.1 0.1 3.8 0.2 5.3 0.2 1.4 0 3.1-0.1 5.2-0.2 2.1-0.2 3.3-0.2 3.7-0.2 0.1 0.3 0.2 0.7 0.2 1.2 0 0.6-0.1 1-0.3 1 -0.5 0-1.7 0.2-3.5 0.6 -1.8 0.4-2.7 0.8-2.8 1.2 -0.4 1.6-0.6 4.1-0.6 7.4v30.3c0 3.3 0.1 7 0.2 11.2 -0.2 0.2-0.7 0.3-1.5 0.3 -0.9 0-1.8-0.6-2.6-1.8l-30.9-43.9v34.1c0 3.5 0.2 6 0.6 7.4 0.1 0.4 1 0.8 2.7 1.2s2.8 0.6 3.3 0.6c0.2 0 0.3 0.3 0.3 1 0 0.6 0 1.1-0.1 1.4 -5.3-0.3-8.4-0.4-9.2-0.4l-9.2 0.4c-0.2-0.2-0.2-0.6-0.2-1.2 0-0.7 0.1-1.1 0.2-1.1 0.7 0 2-0.2 3.6-0.6s2.6-0.8 2.8-1.3c0.5-1.4 0.8-3.9 0.8-7.5V85.5c0-2.6-0.2-4.6-0.6-6 -0.2-0.4-1.1-0.8-2.7-1.2 -1.6-0.3-2.8-0.5-3.6-0.5 -0.2 0-0.3-0.3-0.3-1 0-0.7 0.1-1.1 0.3-1.3 4.1 0.1 6.9 0.2 8.1 0.2 2.8 0 4.9-0.1 6.4-0.2 2 3.6 11 16.6 27 39.1 0.2-0.9 0.2-2 0.2-3.3V86.6z"/><path class="st0" d="M520 86.7c0-3.3-0.2-5.7-0.6-7.1 -0.2-0.4-0.9-0.8-2.3-1.2 -1.4-0.3-2.4-0.5-3.1-0.5 -0.2 0-0.3-0.3-0.3-1 0-0.6 0.1-1.1 0.3-1.3 6.1 0.3 9.3 0.4 9.6 0.4 0.8 0 3.9-0.1 9.3-0.4 0.1 0.3 0.2 0.7 0.2 1.2 0 0.7-0.1 1.1-0.3 1.1 -0.5 0-1.5 0.2-2.9 0.6 -1.4 0.4-2.1 0.7-2.2 1.1 -0.5 1.9-0.7 4.3-0.7 7.4v30.3c0 3.1 0.2 5.6 0.7 7.4 0.1 0.4 0.8 0.7 2.2 1.1 1.4 0.3 2.3 0.5 2.9 0.5 0.2 0 0.3 0.4 0.3 1.2 0 0.4-0.1 0.8-0.2 1.1 -5.3-0.3-8.4-0.4-9.3-0.4 -0.3 0-3.5 0.1-9.6 0.4 -0.2-0.2-0.3-0.6-0.3-1.2 0-0.7 0.1-1.1 0.3-1.1 0.7 0 1.7-0.2 3.1-0.5 1.4-0.3 2.1-0.7 2.3-1.1 0.4-1.4 0.6-3.8 0.6-7.1V86.7z"/><path class="st0" d="M553.9 75.9c3.6 0.1 6.6 0.2 9 0.2s5.3-0.1 9-0.2c3.7-0.1 6.5-0.2 8.5-0.2 1.3 0 3.2-0.3 5.5-0.9l1.5 11.4c-0.4 0.4-1 0.6-1.9 0.6 -0.5 0-0.7-0.1-0.8-0.4 -0.7-3-1.7-4.9-2.8-5.8 -1.1-0.9-3.2-1.3-6.2-1.3 -5.6 0-8.6 0.4-8.8 1.2 -0.5 1.7-0.7 4.4-0.7 8v28.8c0 3.1 0.2 5.6 0.7 7.4 0.1 0.4 0.9 0.7 2.2 1.1 1.4 0.3 2.3 0.5 2.9 0.5 0.2 0 0.3 0.4 0.3 1.2 0 0.4-0.1 0.8-0.2 1.1 -5.3-0.3-8.4-0.4-9.3-0.4 -0.3 0-3.5 0.1-9.6 0.4 -0.2-0.2-0.3-0.6-0.3-1.2 0-0.7 0.1-1.1 0.3-1.1 0.7 0 1.7-0.2 3.1-0.5 1.4-0.3 2.1-0.7 2.3-1.1 0.4-1.4 0.6-3.8 0.6-7.1V88.7c0-4.6-0.2-7.4-0.7-8.2 -0.4-0.8-3.3-1.2-8.6-1.2 -3 0-5.1 0.4-6.2 1.3 -1.1 0.9-2 2.8-2.8 5.8 -0.1 0.3-0.3 0.4-0.8 0.4 -0.9 0-1.5-0.2-1.9-0.6l1.5-11.4c2.3 0.6 4.2 0.9 5.5 0.9C547.4 75.7 550.2 75.8 553.9 75.9z"/><path class="st0" d="M601.6 76.1c2.4 0 6.5-0.1 12.4-0.3 5.9-0.2 10.3-0.3 13.3-0.3 0.2 1.5 0.6 3.6 1.2 6.1 0.6 2.5 1 4.1 1.1 4.7 -0.3 0.3-0.7 0.4-1.4 0.4 -0.7 0-1.1-0.2-1.1-0.6 -0.8-2.9-1.9-4.8-3.3-5.6 -1.4-0.8-3.4-1.2-5.9-1.2h-5.3c-4.6 0-6.9 0.3-7 1 -0.3 1.3-0.4 3.5-0.4 6.7v12.8c0 0.3 1.1 0.5 3.4 0.5h4.2c1.5 0 2.6 0 3.2 0 0.7 0 1.4-0.1 2.1-0.3 0.7-0.2 1.2-0.3 1.4-0.4 0.2-0.1 0.5-0.4 0.8-1 0.3-0.6 0.5-1.1 0.6-1.4 0.1-0.3 0.2-1 0.6-2.3 0.1-0.4 0.5-0.6 1.2-0.6 0.6 0 1.1 0.1 1.4 0.4v15.1c-0.2 0.2-0.6 0.3-1.3 0.3 -0.7 0-1.1-0.2-1.3-0.6 -0.4-1.4-0.7-2.5-1-3.2 -0.3-0.7-0.5-1.1-0.6-1.3 -0.1-0.1-0.4-0.3-0.7-0.5 -0.7-0.4-3.5-0.6-8.5-0.6 -3.8 0-5.7 0.2-5.7 0.7v12.4c0 3.5 0.2 5.9 0.7 7.3 0.2 0.5 2 0.8 5.4 0.8h3.8c4.9 0 8.3-0.5 10-1.4 0.8-0.4 1.7-1.4 2.7-2.8 1-1.5 1.8-3.2 2.4-5.2 0.1-0.3 0.5-0.5 1.1-0.5 1 0 1.7 0.2 2 0.5 -0.3 0.7-0.7 1.8-1.2 3.3 -0.6 1.5-1 2.7-1.3 3.7 -0.3 0.9-0.7 2-1 3.2 -0.4 1.2-0.6 2.2-0.7 3 -2.7 0-7-0.1-12.8-0.2 -5.8-0.1-10.6-0.2-14.4-0.2l-9.7 0.2c-0.2-0.2-0.2-0.6-0.2-1.3 0-0.7 0.1-1 0.2-1 0.7 0 1.7-0.2 3.1-0.6 1.4-0.4 2.2-0.8 2.4-1.3 0.4-0.6 0.6-3.1 0.6-7.5V86.8c0-3.1-0.2-5.4-0.6-6.9 -0.2-0.4-0.9-0.8-2.4-1.2 -1.4-0.4-2.5-0.6-3.2-0.6 -0.2 0-0.3-0.3-0.3-1 0-0.7 0.1-1.1 0.3-1.4C594.9 76 598 76.1 601.6 76.1z"/><path class="st0" d="M647.5 76.1c2 0 4.6 0 7.7-0.1 3.1-0.1 5.2-0.1 6.2-0.1 8.7 0 15.4 2.6 20.3 7.7 4.8 5.1 7.3 11.1 7.3 18 0 7.7-2.4 14.1-7.3 19.3 -4.9 5.2-11.6 7.7-20.3 7.7 -0.6 0-2.5-0.1-5.7-0.2 -3.2-0.1-5.8-0.1-7.9-0.1l-9.7 0.2c-0.2-0.2-0.2-0.6-0.2-1.2 0-0.7 0.1-1.1 0.2-1.1 0.7 0 1.7-0.2 3.1-0.6 1.4-0.4 2.2-0.8 2.4-1.3 0.4-0.6 0.6-3.1 0.6-7.5V86.8c0-3.1-0.2-5.4-0.6-6.9 -0.2-0.4-0.9-0.8-2.4-1.2 -1.4-0.4-2.5-0.6-3.2-0.6 -0.2 0-0.3-0.3-0.3-1 0-0.7 0.1-1.1 0.3-1.4C640.8 76 644 76.1 647.5 76.1zM651 85.7v31.6c0 2.2 0.4 4.3 1.2 6.1 0.2 0.5 1.6 0.9 4.3 1.2 2.6 0.3 4.7 0.4 6.1 0.4 12.2 0 18.3-7.9 18.3-23.7 0-6.1-1.6-11.2-4.8-15.5 -3.2-4.3-7.9-6.4-14.1-6.4h-0.4c-5.7 0-8.9 0.4-9.6 1.3C651.4 81.6 651 83.3 651 85.7z"/><path class="st0" d="M715.7 89.3c0-4.1 1.6-7.5 4.7-10.1 3.1-2.6 6.8-3.9 10.9-3.9 1.2 0 2.3 0.1 3.3 0.2 1 0.1 1.9 0.3 2.6 0.4 0.7 0.2 1.6 0.4 2.9 0.8 1.2 0.3 2.4 0.6 3.3 0.8 0.6 2.8 1 6.6 1 11.4 0 0.4-0.3 0.6-0.8 0.6 -1.3 0-2-0.3-2.1-0.8 -0.3-2.3-1.4-4.6-3.4-6.8 -2-2.2-4.4-3.3-7.3-3.3 -3.2 0-5.4 0.8-6.7 2.4 -1.3 1.6-2 3.6-2 5.9 0 1 0.2 2 0.6 2.9 0.4 0.9 0.7 1.7 1.1 2.3 0.4 0.6 1 1.3 2 2.1 1 0.8 1.7 1.4 2.2 1.7 0.5 0.3 1.4 0.9 2.7 1.8 1.4 0.9 2.2 1.4 2.6 1.6 0.3 0.2 1.2 0.7 2.8 1.7 1.6 1 2.7 1.7 3.3 2.1 0.6 0.4 1.5 1.1 2.8 2.2 1.2 1 2.2 2 2.7 2.8 0.6 0.8 1.1 1.8 1.6 3 0.5 1.2 0.8 2.4 0.8 3.7 0 4.3-1.7 7.8-5 10.5 -3.3 2.7-7.2 4.1-11.7 4.1 -1.3 0-2.6-0.1-4.1-0.3 -1.4-0.2-2.6-0.4-3.6-0.6 -1-0.2-2.2-0.5-3.6-0.8 -1.5-0.3-2.5-0.6-3.1-0.7 -1.3-6.5-2-10.8-2-12.7 0-0.3 0.4-0.5 1.3-0.5 1 0 1.6 0.2 2 0.7 1.8 7.7 6.2 11.5 13.2 11.5 2.7 0 4.9-0.8 6.8-2.4 1.9-1.6 2.8-3.9 2.8-6.8 0-1.1-0.2-2-0.5-3 -0.3-0.9-0.7-1.6-1-2.2 -0.3-0.6-1-1.2-1.8-1.9 -0.9-0.7-1.6-1.2-2-1.5 -0.5-0.3-1.4-0.8-2.6-1.5 -1.3-0.7-2.2-1.2-2.6-1.4 -1.5-0.9-2.6-1.5-3.2-1.9 -0.6-0.4-1.6-1-3-2 -1.4-0.9-2.4-1.8-3.1-2.5s-1.4-1.6-2.2-2.6 -1.4-2.1-1.8-3.3C715.9 91.8 715.7 90.6 715.7 89.3z"/><path class="st0" d="M767.8 75.9c3.6 0.1 6.6 0.2 9 0.2s5.3-0.1 9-0.2c3.7-0.1 6.5-0.2 8.5-0.2 1.3 0 3.2-0.3 5.5-0.9l1.5 11.4c-0.4 0.4-1 0.6-1.9 0.6 -0.5 0-0.7-0.1-0.8-0.4 -0.7-3-1.7-4.9-2.8-5.8 -1.1-0.9-3.2-1.3-6.2-1.3 -5.6 0-8.6 0.4-8.8 1.2 -0.5 1.7-0.7 4.4-0.7 8v28.8c0 3.1 0.2 5.6 0.7 7.4 0.1 0.4 0.9 0.7 2.2 1.1 1.4 0.3 2.3 0.5 2.9 0.5 0.2 0 0.3 0.4 0.3 1.2 0 0.4-0.1 0.8-0.2 1.1 -5.3-0.3-8.4-0.4-9.3-0.4 -0.3 0-3.5 0.1-9.6 0.4 -0.2-0.2-0.3-0.6-0.3-1.2 0-0.7 0.1-1.1 0.3-1.1 0.7 0 1.7-0.2 3.1-0.5 1.4-0.3 2.1-0.7 2.3-1.1 0.4-1.4 0.6-3.8 0.6-7.1V88.7c0-4.6-0.2-7.4-0.7-8.2 -0.4-0.8-3.3-1.2-8.6-1.2 -3 0-5.1 0.4-6.2 1.3 -1.1 0.9-2 2.8-2.8 5.8 -0.1 0.3-0.3 0.4-0.8 0.4 -0.9 0-1.5-0.2-1.9-0.6l1.5-11.4c2.3 0.6 4.2 0.9 5.5 0.9C761.3 75.7 764.1 75.8 767.8 75.9z"/><path class="st0" d="M832.5 75.7l16 42.1c1 2.5 1.7 4.4 2.3 5.7 0.3 0.8 1.1 1.4 2.5 2 1.3 0.5 2.3 0.8 3 0.8 0.2 0 0.3 0.5 0.3 1.5 0 0.2-0.1 0.5-0.2 0.8 -5.3-0.3-8.2-0.4-8.8-0.4 -0.1 0-3.1 0.1-9.3 0.4 -0.2-0.2-0.3-0.7-0.3-1.3 0-0.7 0.1-1 0.4-1 0.6 0 1.4-0.1 2.4-0.4 1-0.3 1.5-0.6 1.7-1 0.1-0.4 0.2-0.9 0.2-1.3 0-0.7-0.1-1.5-0.3-2.4 -0.2-0.9-0.4-1.7-0.5-2.2l-0.3-0.9 -3.3-9c-0.2-0.2-0.3-0.3-0.5-0.3 -2.1-0.2-4.1-0.2-6.1-0.2 -2.8 0-6.1 0.1-10.1 0.4l-0.4 0.2 -3.4 8.8c-0.9 2.7-1.4 4.5-1.4 5.5 0 0.7 0.2 1.3 0.6 1.6 0.5 0.4 1.2 0.7 2.3 0.9 1.1 0.2 1.8 0.4 2.3 0.4 0.2 0 0.3 0.3 0.3 1 0 0.6 0 1.1-0.1 1.4 -5.3-0.3-8.1-0.4-8.2-0.4 -1.1 0-2 0-2.8 0.1 -0.8 0.1-1.7 0.1-2.7 0.2 -1 0.1-1.9 0.1-2.8 0.2 -0.2-0.2-0.3-0.6-0.3-1.2 0-0.7 0.1-1.1 0.3-1.1 0.6 0 1.5-0.1 2.5-0.4 1-0.3 1.7-0.6 2.1-1.1 1.1-1.4 2.4-3.9 3.7-7.5l13.9-35.7c0.1-0.3 0.3-0.7 0.4-1.3 0.2-0.6 0.3-1 0.4-1.3 0.1-0.3 0.3-0.7 0.5-1.1 0.2-0.5 0.4-0.8 0.6-1 0.2-0.2 0.4-0.5 0.6-0.7 0.2-0.3 0.5-0.5 0.8-0.6 0.3-0.1 0.6-0.2 1-0.2L832.5 75.7zM823.2 104.5c2.8 0.1 4.7 0.2 5.7 0.2 2.3 0 4.8-0.1 7.3-0.2l0.2-0.4 -6.5-17.6 -6.9 17.8C823.1 104.4 823.1 104.5 823.2 104.5z"/><path class="st0" d="M875.7 75.9c3.6 0.1 6.6 0.2 9 0.2s5.3-0.1 9-0.2c3.7-0.1 6.5-0.2 8.5-0.2 1.3 0 3.2-0.3 5.5-0.9l1.5 11.4c-0.4 0.4-1 0.6-1.9 0.6 -0.5 0-0.7-0.1-0.8-0.4 -0.7-3-1.7-4.9-2.8-5.8 -1.1-0.9-3.2-1.3-6.2-1.3 -5.6 0-8.6 0.4-8.8 1.2 -0.5 1.7-0.7 4.4-0.7 8v28.8c0 3.1 0.2 5.6 0.7 7.4 0.1 0.4 0.9 0.7 2.2 1.1 1.4 0.3 2.3 0.5 2.9 0.5 0.2 0 0.3 0.4 0.3 1.2 0 0.4-0.1 0.8-0.2 1.1 -5.3-0.3-8.4-0.4-9.3-0.4 -0.3 0-3.5 0.1-9.6 0.4 -0.2-0.2-0.3-0.6-0.3-1.2 0-0.7 0.1-1.1 0.3-1.1 0.7 0 1.7-0.2 3.1-0.5 1.4-0.3 2.1-0.7 2.3-1.1 0.4-1.4 0.6-3.8 0.6-7.1V88.7c0-4.6-0.2-7.4-0.7-8.2 -0.4-0.8-3.3-1.2-8.6-1.2 -3 0-5.1 0.4-6.2 1.3 -1.1 0.9-2 2.8-2.8 5.8 -0.1 0.3-0.3 0.4-0.8 0.4 -0.9 0-1.5-0.2-1.9-0.6l1.5-11.4c2.3 0.6 4.2 0.9 5.5 0.9C869.2 75.7 872 75.8 875.7 75.9z"/><path class="st0" d="M923.4 76.1c2.4 0 6.5-0.1 12.4-0.3 5.9-0.2 10.3-0.3 13.3-0.3 0.2 1.5 0.6 3.6 1.2 6.1 0.6 2.5 1 4.1 1.1 4.7 -0.3 0.3-0.7 0.4-1.4 0.4 -0.7 0-1.1-0.2-1.1-0.6 -0.8-2.9-1.9-4.8-3.3-5.6 -1.4-0.8-3.4-1.2-5.9-1.2h-5.3c-4.6 0-6.9 0.3-7 1 -0.3 1.3-0.4 3.5-0.4 6.7v12.8c0 0.3 1.1 0.5 3.4 0.5h4.2c1.5 0 2.6 0 3.2 0 0.7 0 1.4-0.1 2.1-0.3 0.7-0.2 1.2-0.3 1.4-0.4 0.2-0.1 0.5-0.4 0.8-1 0.3-0.6 0.5-1.1 0.6-1.4 0.1-0.3 0.2-1 0.6-2.3 0.1-0.4 0.5-0.6 1.2-0.6 0.6 0 1.1 0.1 1.4 0.4v15.1c-0.2 0.2-0.6 0.3-1.3 0.3 -0.7 0-1.1-0.2-1.3-0.6 -0.4-1.4-0.7-2.5-1-3.2 -0.3-0.7-0.5-1.1-0.6-1.3 -0.1-0.1-0.4-0.3-0.7-0.5 -0.7-0.4-3.5-0.6-8.5-0.6 -3.8 0-5.7 0.2-5.7 0.7v12.4c0 3.5 0.2 5.9 0.7 7.3 0.2 0.5 2 0.8 5.4 0.8h3.8c4.9 0 8.3-0.5 10-1.4 0.8-0.4 1.7-1.4 2.7-2.8 1-1.5 1.8-3.2 2.4-5.2 0.1-0.3 0.5-0.5 1.1-0.5 1 0 1.7 0.2 2 0.5 -0.3 0.7-0.7 1.8-1.2 3.3 -0.6 1.5-1 2.7-1.3 3.7 -0.3 0.9-0.7 2-1 3.2 -0.4 1.2-0.6 2.2-0.7 3 -2.7 0-7-0.1-12.8-0.2 -5.8-0.1-10.6-0.2-14.4-0.2l-9.7 0.2c-0.2-0.2-0.2-0.6-0.2-1.3 0-0.7 0.1-1 0.2-1 0.7 0 1.7-0.2 3.1-0.6 1.4-0.4 2.2-0.8 2.4-1.3 0.4-0.6 0.6-3.1 0.6-7.5V86.8c0-3.1-0.2-5.4-0.6-6.9 -0.2-0.4-0.9-0.8-2.4-1.2 -1.4-0.4-2.5-0.6-3.2-0.6 -0.2 0-0.3-0.3-0.3-1 0-0.7 0.1-1.1 0.3-1.4C916.7 76 919.9 76.1 923.4 76.1z"/><path class="st0" d="M961.7 89.3c0-4.1 1.6-7.5 4.7-10.1 3.1-2.6 6.8-3.9 10.9-3.9 1.2 0 2.3 0.1 3.3 0.2 1 0.1 1.9 0.3 2.6 0.4 0.7 0.2 1.6 0.4 2.9 0.8 1.2 0.3 2.4 0.6 3.3 0.8 0.6 2.8 1 6.6 1 11.4 0 0.4-0.3 0.6-0.8 0.6 -1.3 0-2-0.3-2.1-0.8 -0.3-2.3-1.4-4.6-3.4-6.8 -2-2.2-4.4-3.3-7.3-3.3 -3.2 0-5.4 0.8-6.7 2.4 -1.3 1.6-2 3.6-2 5.9 0 1 0.2 2 0.6 2.9 0.4 0.9 0.7 1.7 1.1 2.3 0.4 0.6 1 1.3 2 2.1 1 0.8 1.7 1.4 2.2 1.7 0.5 0.3 1.4 0.9 2.7 1.8 1.4 0.9 2.2 1.4 2.6 1.6 0.3 0.2 1.2 0.7 2.8 1.7 1.6 1 2.7 1.7 3.3 2.1 0.6 0.4 1.5 1.1 2.8 2.2 1.2 1 2.2 2 2.7 2.8 0.6 0.8 1.1 1.8 1.6 3 0.5 1.2 0.8 2.4 0.8 3.7 0 4.3-1.7 7.8-5 10.5 -3.3 2.7-7.2 4.1-11.7 4.1 -1.3 0-2.6-0.1-4.1-0.3 -1.4-0.2-2.6-0.4-3.6-0.6 -1-0.2-2.2-0.5-3.6-0.8 -1.5-0.3-2.5-0.6-3.1-0.7 -1.3-6.5-2-10.8-2-12.7 0-0.3 0.4-0.5 1.3-0.5 1 0 1.6 0.2 2 0.7 1.8 7.7 6.2 11.5 13.2 11.5 2.7 0 4.9-0.8 6.8-2.4 1.9-1.6 2.8-3.9 2.8-6.8 0-1.1-0.2-2-0.5-3 -0.3-0.9-0.7-1.6-1-2.2 -0.3-0.6-1-1.2-1.8-1.9 -0.9-0.7-1.6-1.2-2-1.5 -0.5-0.3-1.4-0.8-2.6-1.5 -1.3-0.7-2.2-1.2-2.6-1.4 -1.5-0.9-2.6-1.5-3.2-1.9 -0.6-0.4-1.6-1-3-2 -1.4-0.9-2.4-1.8-3.1-2.5s-1.4-1.6-2.2-2.6 -1.4-2.1-1.8-3.3C961.9 91.8 961.7 90.6 961.7 89.3z"/><path class="st0" d="M1064.8 113.8c0 0.6-0.4 2.6-1.1 6.1 -0.7 3.5-1.3 5.3-1.6 5.5 -3.9 2.3-10.2 3.5-19.1 3.5 -7 0-13-2.6-17.9-7.7 -4.9-5.2-7.4-11.3-7.4-18.4 0-7.5 2.5-14 7.6-19.4 5.1-5.4 11.2-8.1 18.6-8.1 6.3 0 12.7 0.7 19.4 2 -0.1 7.1-0.2 11-0.2 11.5 0 0.8-0.6 1.2-1.7 1.2 -0.5 0-0.9-0.1-1-0.4 -0.2-0.7-0.4-1.4-0.6-2.1s-0.7-1.6-1.5-2.8c-0.8-1.1-1.7-2.1-2.8-3s-2.6-1.5-4.6-2.2c-2-0.6-4.2-0.9-6.7-0.9 -5.2 0-9.7 2.3-13.3 6.9 -3.7 4.6-5.5 9.8-5.5 15.6 0 4.3 0.7 8.3 2.2 11.9 1.5 3.6 3.8 6.6 7.1 9 3.2 2.4 7 3.5 11.4 3.5 5.3 0 9.3-1.5 12.2-4.6 0.7-0.8 1.4-1.8 2-3.2 0.6-1.3 1-2.4 1.3-3.3s0.5-1.3 0.7-1.3c0.3 0 0.7 0.1 1.2 0.2 0.5 0.1 0.8 0.2 1.1 0.3L1064.8 113.8z"/><path class="st0" d="M1077.5 121.3c-5-5.3-7.5-11.6-7.5-19.1 0-7.4 2.5-13.8 7.5-19.1 5-5.3 11-7.9 18-7.9s13 2.6 18 7.9c5 5.3 7.5 11.7 7.5 19.1 0 7.4-2.5 13.8-7.5 19.1 -5 5.3-11 7.9-18 7.9S1082.5 126.5 1077.5 121.3zM1094.3 78.5c-5.1 0-9 2.2-12 6.6 -2.9 4.4-4.4 9.5-4.4 15.3 0 4.3 0.7 8.3 2.1 12 1.4 3.8 3.5 6.9 6.5 9.5 2.9 2.5 6.4 3.8 10.3 3.8 3.4 0 6.4-1.1 8.9-3.3 2.6-2.2 4.4-4.9 5.6-8.2 1.2-3.3 1.8-6.8 1.8-10.5 0-4.3-0.7-8.3-2.1-12 -1.4-3.7-3.5-6.9-6.5-9.4C1101.7 79.8 1098.3 78.5 1094.3 78.5z"/><path class="st0" d="M1168.6 86.6c0-3.2-0.2-5.6-0.6-7 -0.2-0.4-1.1-0.8-2.8-1.2s-2.9-0.6-3.5-0.6c-0.2 0-0.3-0.3-0.3-0.9 0-0.6 0.1-1 0.3-1.2 0.7 0.1 2.1 0.1 4.1 0.3 2.1 0.1 3.8 0.2 5.3 0.2 1.4 0 3.1-0.1 5.2-0.2 2.1-0.2 3.3-0.2 3.7-0.2 0.1 0.3 0.2 0.7 0.2 1.2 0 0.6-0.1 1-0.3 1 -0.5 0-1.7 0.2-3.5 0.6 -1.8 0.4-2.7 0.8-2.8 1.2 -0.4 1.6-0.6 4.1-0.6 7.4v30.3c0 3.3 0.1 7 0.2 11.2 -0.2 0.2-0.7 0.3-1.5 0.3 -0.9 0-1.8-0.6-2.6-1.8l-30.9-43.9v34.1c0 3.5 0.2 6 0.6 7.4 0.1 0.4 1 0.8 2.7 1.2s2.8 0.6 3.3 0.6c0.2 0 0.3 0.3 0.3 1 0 0.6 0 1.1-0.1 1.4 -5.3-0.3-8.4-0.4-9.2-0.4l-9.2 0.4c-0.2-0.2-0.2-0.6-0.2-1.2 0-0.7 0.1-1.1 0.2-1.1 0.7 0 2-0.2 3.6-0.6s2.6-0.8 2.8-1.3c0.5-1.4 0.8-3.9 0.8-7.5V85.5c0-2.6-0.2-4.6-0.6-6 -0.2-0.4-1.1-0.8-2.7-1.2 -1.6-0.3-2.8-0.5-3.6-0.5 -0.2 0-0.3-0.3-0.3-1 0-0.7 0.1-1.1 0.3-1.3 4.1 0.1 6.9 0.2 8.1 0.2 2.8 0 4.9-0.1 6.4-0.2 2 3.6 11 16.6 27 39.1 0.2-0.9 0.2-2 0.2-3.3V86.6z"/><path class="st0" d="M1195.1 76.1c2.4 0 6.5-0.1 12.4-0.3 5.9-0.2 10.3-0.3 13.3-0.3 0.2 1.5 0.6 3.6 1.2 6.1 0.6 2.5 1 4.1 1.1 4.7 -0.3 0.3-0.7 0.4-1.4 0.4 -0.7 0-1.1-0.2-1.1-0.6 -0.8-2.9-1.9-4.8-3.4-5.6 -1.4-0.8-3.4-1.2-5.9-1.2h-5.3c-4.6 0-6.9 0.3-7 1 -0.3 1.3-0.4 3.5-0.4 6.7v13c0 0.3 1.1 0.5 3.3 0.5h4.2c3.6 0 5.7-0.3 6.5-0.8 0.8-0.5 1.5-2 2.1-4.3 0.1-0.3 0.1-0.6 0.2-0.7 0.1-0.4 0.5-0.6 1.2-0.6 0.6 0 1.1 0.1 1.4 0.4v15.5c-0.2 0.2-0.6 0.3-1.3 0.3 -0.7 0-1.1-0.2-1.3-0.6 -0.4-1.4-0.7-2.5-1-3.2 -0.3-0.7-0.5-1.1-0.6-1.3 -0.1-0.1-0.4-0.3-0.7-0.5 -0.7-0.4-3.5-0.6-8.5-0.6 -3.8 0-5.7 0.2-5.7 0.7v12.6c0 3.1 0.2 5.6 0.7 7.4 0.1 0.4 0.8 0.7 2.2 1.1s2.3 0.5 2.9 0.5c0.2 0 0.3 0.4 0.3 1.2 0 0.4-0.1 0.8-0.2 1.1 -5.3-0.3-8.4-0.4-9.3-0.4 -0.3 0-3.5 0.1-9.6 0.4 -0.2-0.2-0.3-0.6-0.3-1.2 0-0.7 0.1-1.1 0.3-1.1 0.7 0 1.7-0.2 3.1-0.5 1.4-0.3 2.1-0.7 2.3-1.1 0.4-1.4 0.6-3.8 0.6-7.2V86.8c0-3.1-0.2-5.4-0.6-6.9 -0.2-0.4-0.9-0.8-2.4-1.2 -1.4-0.4-2.5-0.6-3.2-0.6 -0.2 0-0.3-0.3-0.3-1 0-0.7 0.1-1.1 0.3-1.4C1188.4 76 1191.6 76.1 1195.1 76.1z"/><path class="st0" d="M1238.2 76.1c2.4 0 6.5-0.1 12.4-0.3 5.9-0.2 10.3-0.3 13.3-0.3 0.2 1.5 0.6 3.6 1.2 6.1 0.6 2.5 1 4.1 1.1 4.7 -0.3 0.3-0.7 0.4-1.4 0.4 -0.7 0-1.1-0.2-1.1-0.6 -0.8-2.9-1.9-4.8-3.3-5.6 -1.4-0.8-3.4-1.2-5.9-1.2h-5.3c-4.6 0-6.9 0.3-7 1 -0.3 1.3-0.4 3.5-0.4 6.7v12.8c0 0.3 1.1 0.5 3.4 0.5h4.2c1.5 0 2.6 0 3.2 0 0.7 0 1.4-0.1 2.1-0.3 0.7-0.2 1.2-0.3 1.4-0.4 0.2-0.1 0.5-0.4 0.8-1 0.3-0.6 0.5-1.1 0.6-1.4 0.1-0.3 0.2-1 0.6-2.3 0.1-0.4 0.5-0.6 1.2-0.6 0.6 0 1.1 0.1 1.4 0.4v15.1c-0.2 0.2-0.6 0.3-1.3 0.3 -0.7 0-1.1-0.2-1.3-0.6 -0.4-1.4-0.7-2.5-1-3.2 -0.3-0.7-0.5-1.1-0.6-1.3 -0.1-0.1-0.4-0.3-0.7-0.5 -0.7-0.4-3.5-0.6-8.5-0.6 -3.8 0-5.7 0.2-5.7 0.7v12.4c0 3.5 0.2 5.9 0.7 7.3 0.2 0.5 2 0.8 5.4 0.8h3.8c4.9 0 8.3-0.5 10-1.4 0.8-0.4 1.7-1.4 2.7-2.8 1-1.5 1.8-3.2 2.4-5.2 0.1-0.3 0.5-0.5 1.1-0.5 1 0 1.7 0.2 2 0.5 -0.3 0.7-0.7 1.8-1.2 3.3 -0.6 1.5-1 2.7-1.3 3.7 -0.3 0.9-0.7 2-1 3.2 -0.4 1.2-0.6 2.2-0.7 3 -2.7 0-7-0.1-12.8-0.2 -5.8-0.1-10.6-0.2-14.4-0.2l-9.7 0.2c-0.2-0.2-0.2-0.6-0.2-1.3 0-0.7 0.1-1 0.2-1 0.7 0 1.7-0.2 3.1-0.6 1.4-0.4 2.2-0.8 2.4-1.3 0.4-0.6 0.6-3.1 0.6-7.5V86.8c0-3.1-0.2-5.4-0.6-6.9 -0.2-0.4-0.9-0.8-2.4-1.2 -1.4-0.4-2.5-0.6-3.2-0.6 -0.2 0-0.3-0.3-0.3-1 0-0.7 0.1-1.1 0.3-1.4C1231.5 76 1234.6 76.1 1238.2 76.1z"/><path class="st0" d="M1295.8 75.7c1.8 0 3.6 0.3 5.5 0.8 1.9 0.5 3.7 1.3 5.5 2.4 1.8 1.1 3.3 2.6 4.5 4.5 1.2 2 1.8 4.3 1.8 6.9 0 2.2-0.8 4.6-2.5 7 -1.7 2.4-3.9 4.3-6.8 5.7 -0.5 0.2-0.7 0.5-0.5 0.8 2.7 5.6 5.7 10.3 9.2 14 5.1 5.6 9.3 8.4 12.4 8.4 0.2 0.3 0.2 0.7 0.2 1.1 0 0.5-0.1 0.9-0.2 1.2 -0.6 0.2-1.3 0.2-2.2 0.2 -7.4 0-13.9-3.8-19.4-11.5 -0.9-1.2-1.8-2.6-2.9-4.2 -1.1-1.6-1.9-2.8-2.4-3.5 -0.5-0.7-1.1-1.5-1.8-2.4 -0.7-0.8-1.3-1.5-1.8-1.9 -0.5-0.4-1-0.8-1.6-1 -0.6-0.2-1.6-0.3-3-0.3 -0.4 0-0.7 0-1 0 -0.2 0-0.4 0.1-0.6 0.4 -0.2 0.2-0.3 0.5-0.3 1V117c0 3.6 0.2 5.9 0.6 6.9 0.3 0.7 1.2 1.3 2.8 1.7 1.6 0.4 2.8 0.6 3.5 0.6 0.2 0 0.3 0.4 0.3 1.1 0 0.5-0.1 0.9-0.2 1.2 -5.3-0.3-8.8-0.4-10.4-0.4l-9.7 0.4c-0.2-0.2-0.2-0.6-0.2-1.4 0-0.7 0.1-1 0.2-1 0.7 0 1.8-0.2 3.1-0.5 1.3-0.3 2.1-0.7 2.4-1.2 0.4-0.6 0.6-3.1 0.6-7.5V86.8c0-3.1-0.2-5.4-0.6-6.9 -0.2-0.4-0.9-0.8-2.4-1.2 -1.4-0.4-2.5-0.6-3.2-0.6 -0.2 0-0.3-0.3-0.3-1 0-0.7 0.1-1.1 0.3-1.4l9.6 0.2c1.6 0 3.5-0.1 5.7-0.2C1292.4 75.8 1294.3 75.7 1295.8 75.7zM1294.5 79.2c-2.4 0-4.3 0.2-5.6 0.6 -0.2 0.1-0.4 0.3-0.5 0.6 -0.1 0.3-0.2 1.1-0.3 2.4 -0.1 1.3-0.1 3.2-0.1 5.8v9.7c0 1.5 2.3 2.3 6.9 2.3h2c1.9 0 3.8-0.9 5.8-2.8 2-1.9 3-4.3 3-7.4C1305.7 82.9 1302 79.2 1294.5 79.2z"/><path class="st0" d="M1336.4 76.1c2.4 0 6.5-0.1 12.4-0.3 5.9-0.2 10.3-0.3 13.3-0.3 0.2 1.5 0.6 3.6 1.2 6.1 0.6 2.5 1 4.1 1.1 4.7 -0.3 0.3-0.7 0.4-1.4 0.4 -0.7 0-1.1-0.2-1.1-0.6 -0.8-2.9-1.9-4.8-3.3-5.6 -1.4-0.8-3.4-1.2-5.9-1.2h-5.3c-4.6 0-6.9 0.3-7 1 -0.3 1.3-0.4 3.5-0.4 6.7v12.8c0 0.3 1.1 0.5 3.4 0.5h4.2c1.5 0 2.6 0 3.2 0 0.7 0 1.4-0.1 2.1-0.3 0.7-0.2 1.2-0.3 1.4-0.4 0.2-0.1 0.5-0.4 0.8-1 0.3-0.6 0.5-1.1 0.6-1.4 0.1-0.3 0.2-1 0.6-2.3 0.1-0.4 0.5-0.6 1.2-0.6 0.6 0 1.1 0.1 1.4 0.4v15.1c-0.2 0.2-0.6 0.3-1.3 0.3 -0.7 0-1.1-0.2-1.3-0.6 -0.4-1.4-0.7-2.5-1-3.2 -0.3-0.7-0.5-1.1-0.6-1.3 -0.1-0.1-0.4-0.3-0.7-0.5 -0.7-0.4-3.5-0.6-8.5-0.6 -3.8 0-5.7 0.2-5.7 0.7v12.4c0 3.5 0.2 5.9 0.7 7.3 0.2 0.5 2 0.8 5.4 0.8h3.8c4.9 0 8.3-0.5 10-1.4 0.8-0.4 1.7-1.4 2.7-2.8 1-1.5 1.8-3.2 2.4-5.2 0.1-0.3 0.5-0.5 1.1-0.5 1 0 1.7 0.2 2 0.5 -0.3 0.7-0.7 1.8-1.2 3.3 -0.6 1.5-1 2.7-1.3 3.7 -0.3 0.9-0.7 2-1 3.2 -0.4 1.2-0.6 2.2-0.7 3 -2.7 0-7-0.1-12.8-0.2 -5.8-0.1-10.6-0.2-14.4-0.2l-9.7 0.2c-0.2-0.2-0.2-0.6-0.2-1.3 0-0.7 0.1-1 0.2-1 0.7 0 1.7-0.2 3.1-0.6 1.4-0.4 2.2-0.8 2.4-1.3 0.4-0.6 0.6-3.1 0.6-7.5V86.8c0-3.1-0.2-5.4-0.6-6.9 -0.2-0.4-0.9-0.8-2.4-1.2 -1.4-0.4-2.5-0.6-3.2-0.6 -0.2 0-0.3-0.3-0.3-1 0-0.7 0.1-1.1 0.3-1.4C1329.7 76 1332.8 76.1 1336.4 76.1z"/><path class="st0" d="M1413.8 86.6c0-3.2-0.2-5.6-0.6-7 -0.2-0.4-1.1-0.8-2.8-1.2s-2.9-0.6-3.5-0.6c-0.2 0-0.3-0.3-0.3-0.9 0-0.6 0.1-1 0.3-1.2 0.7 0.1 2.1 0.1 4.1 0.3 2.1 0.1 3.8 0.2 5.3 0.2 1.4 0 3.1-0.1 5.2-0.2 2.1-0.2 3.3-0.2 3.7-0.2 0.1 0.3 0.2 0.7 0.2 1.2 0 0.6-0.1 1-0.3 1 -0.5 0-1.7 0.2-3.5 0.6 -1.8 0.4-2.7 0.8-2.8 1.2 -0.4 1.6-0.6 4.1-0.6 7.4v30.3c0 3.3 0.1 7 0.2 11.2 -0.2 0.2-0.7 0.3-1.5 0.3 -0.9 0-1.8-0.6-2.6-1.8l-30.9-43.9v34.1c0 3.5 0.2 6 0.6 7.4 0.1 0.4 1 0.8 2.7 1.2s2.8 0.6 3.3 0.6c0.2 0 0.3 0.3 0.3 1 0 0.6 0 1.1-0.1 1.4 -5.3-0.3-8.4-0.4-9.2-0.4l-9.2 0.4c-0.2-0.2-0.2-0.6-0.2-1.2 0-0.7 0.1-1.1 0.2-1.1 0.7 0 2-0.2 3.6-0.6s2.6-0.8 2.8-1.3c0.5-1.4 0.8-3.9 0.8-7.5V85.5c0-2.6-0.2-4.6-0.6-6 -0.2-0.4-1.1-0.8-2.7-1.2 -1.6-0.3-2.8-0.5-3.6-0.5 -0.2 0-0.3-0.3-0.3-1 0-0.7 0.1-1.1 0.3-1.3 4.1 0.1 6.9 0.2 8.1 0.2 2.8 0 4.9-0.1 6.4-0.2 2 3.6 11 16.6 27 39.1 0.2-0.9 0.2-2 0.2-3.3V86.6z"/><path class="st0" d="M1477.9 113.8c0 0.6-0.4 2.6-1.1 6.1 -0.7 3.5-1.3 5.3-1.6 5.5 -3.9 2.3-10.2 3.5-19.1 3.5 -7 0-13-2.6-17.9-7.7 -4.9-5.2-7.4-11.3-7.4-18.4 0-7.5 2.5-14 7.6-19.4 5.1-5.4 11.2-8.1 18.6-8.1 6.3 0 12.7 0.7 19.4 2 -0.1 7.1-0.2 11-0.2 11.5 0 0.8-0.6 1.2-1.7 1.2 -0.5 0-0.9-0.1-1-0.4 -0.2-0.7-0.4-1.4-0.6-2.1s-0.7-1.6-1.5-2.8c-0.8-1.1-1.7-2.1-2.8-3s-2.6-1.5-4.6-2.2c-2-0.6-4.2-0.9-6.7-0.9 -5.2 0-9.7 2.3-13.3 6.9 -3.7 4.6-5.5 9.8-5.5 15.6 0 4.3 0.7 8.3 2.2 11.9 1.5 3.6 3.8 6.6 7.1 9 3.2 2.4 7 3.5 11.4 3.5 5.3 0 9.3-1.5 12.2-4.6 0.7-0.8 1.4-1.8 2-3.2 0.6-1.3 1-2.4 1.3-3.3s0.5-1.3 0.7-1.3c0.3 0 0.7 0.1 1.2 0.2 0.5 0.1 0.8 0.2 1.1 0.3L1477.9 113.8z"/><path class="st0" d="M1491.8 76.1c2.4 0 6.5-0.1 12.4-0.3 5.9-0.2 10.3-0.3 13.3-0.3 0.2 1.5 0.6 3.6 1.2 6.1 0.6 2.5 1 4.1 1.1 4.7 -0.3 0.3-0.7 0.4-1.4 0.4 -0.7 0-1.1-0.2-1.1-0.6 -0.8-2.9-1.9-4.8-3.3-5.6 -1.4-0.8-3.4-1.2-5.9-1.2h-5.3c-4.6 0-6.9 0.3-7 1 -0.3 1.3-0.4 3.5-0.4 6.7v12.8c0 0.3 1.1 0.5 3.4 0.5h4.2c1.5 0 2.6 0 3.2 0 0.7 0 1.4-0.1 2.1-0.3 0.7-0.2 1.2-0.3 1.4-0.4 0.2-0.1 0.5-0.4 0.8-1 0.3-0.6 0.5-1.1 0.6-1.4 0.1-0.3 0.2-1 0.6-2.3 0.1-0.4 0.5-0.6 1.2-0.6 0.6 0 1.1 0.1 1.4 0.4v15.1c-0.2 0.2-0.6 0.3-1.3 0.3 -0.7 0-1.1-0.2-1.3-0.6 -0.4-1.4-0.7-2.5-1-3.2 -0.3-0.7-0.5-1.1-0.6-1.3 -0.1-0.1-0.4-0.3-0.7-0.5 -0.7-0.4-3.5-0.6-8.5-0.6 -3.8 0-5.7 0.2-5.7 0.7v12.4c0 3.5 0.2 5.9 0.7 7.3 0.2 0.5 2 0.8 5.4 0.8h3.8c4.9 0 8.3-0.5 10-1.4 0.8-0.4 1.7-1.4 2.7-2.8 1-1.5 1.8-3.2 2.4-5.2 0.1-0.3 0.5-0.5 1.1-0.5 1 0 1.7 0.2 2 0.5 -0.3 0.7-0.7 1.8-1.2 3.3 -0.6 1.5-1 2.7-1.3 3.7 -0.3 0.9-0.7 2-1 3.2 -0.4 1.2-0.6 2.2-0.7 3 -2.7 0-7-0.1-12.8-0.2 -5.8-0.1-10.6-0.2-14.4-0.2l-9.7 0.2c-0.2-0.2-0.2-0.6-0.2-1.3 0-0.7 0.1-1 0.2-1 0.7 0 1.7-0.2 3.1-0.6 1.4-0.4 2.2-0.8 2.4-1.3 0.4-0.6 0.6-3.1 0.6-7.5V86.8c0-3.1-0.2-5.4-0.6-6.9 -0.2-0.4-0.9-0.8-2.4-1.2 -1.4-0.4-2.5-0.6-3.2-0.6 -0.2 0-0.3-0.3-0.3-1 0-0.7 0.1-1.1 0.3-1.4C1485 76 1488.2 76.1 1491.8 76.1z"/><path class="st0" d="M1554.4 121.3c-5-5.3-7.5-11.6-7.5-19.1 0-7.4 2.5-13.8 7.5-19.1 5-5.3 11-7.9 18-7.9s13 2.6 18 7.9c5 5.3 7.5 11.7 7.5 19.1 0 7.4-2.5 13.8-7.5 19.1 -5 5.3-11 7.9-18 7.9S1559.4 126.5 1554.4 121.3zM1571.2 78.5c-5.1 0-9 2.2-12 6.6 -2.9 4.4-4.4 9.5-4.4 15.3 0 4.3 0.7 8.3 2.1 12 1.4 3.8 3.5 6.9 6.5 9.5 2.9 2.5 6.4 3.8 10.3 3.8 3.4 0 6.4-1.1 8.9-3.3 2.6-2.2 4.4-4.9 5.6-8.2 1.2-3.3 1.8-6.8 1.8-10.5 0-4.3-0.7-8.3-2.1-12 -1.4-3.7-3.5-6.9-6.5-9.4C1578.6 79.8 1575.1 78.5 1571.2 78.5z"/><path class="st0" d="M1614.5 76.1c2.4 0 6.5-0.1 12.4-0.3 5.9-0.2 10.3-0.3 13.3-0.3 0.2 1.5 0.6 3.6 1.2 6.1 0.6 2.5 1 4.1 1.1 4.7 -0.3 0.3-0.7 0.4-1.4 0.4 -0.7 0-1.1-0.2-1.1-0.6 -0.8-2.9-1.9-4.8-3.4-5.6 -1.4-0.8-3.4-1.2-5.9-1.2h-5.3c-4.6 0-6.9 0.3-7 1 -0.3 1.3-0.4 3.5-0.4 6.7v13c0 0.3 1.1 0.5 3.3 0.5h4.2c3.6 0 5.7-0.3 6.5-0.8 0.8-0.5 1.5-2 2.1-4.3 0.1-0.3 0.1-0.6 0.2-0.7 0.1-0.4 0.5-0.6 1.2-0.6 0.6 0 1.1 0.1 1.4 0.4v15.5c-0.2 0.2-0.6 0.3-1.3 0.3 -0.7 0-1.1-0.2-1.3-0.6 -0.4-1.4-0.7-2.5-1-3.2 -0.3-0.7-0.5-1.1-0.6-1.3 -0.1-0.1-0.4-0.3-0.7-0.5 -0.7-0.4-3.5-0.6-8.5-0.6 -3.8 0-5.7 0.2-5.7 0.7v12.6c0 3.1 0.2 5.6 0.7 7.4 0.1 0.4 0.8 0.7 2.2 1.1s2.3 0.5 2.9 0.5c0.2 0 0.3 0.4 0.3 1.2 0 0.4-0.1 0.8-0.2 1.1 -5.3-0.3-8.4-0.4-9.3-0.4 -0.3 0-3.5 0.1-9.6 0.4 -0.2-0.2-0.3-0.6-0.3-1.2 0-0.7 0.1-1.1 0.3-1.1 0.7 0 1.7-0.2 3.1-0.5 1.4-0.3 2.1-0.7 2.3-1.1 0.4-1.4 0.6-3.8 0.6-7.2V86.8c0-3.1-0.2-5.4-0.6-6.9 -0.2-0.4-0.9-0.8-2.4-1.2 -1.4-0.4-2.5-0.6-3.2-0.6 -0.2 0-0.3-0.3-0.3-1 0-0.7 0.1-1.1 0.3-1.4C1607.8 76 1610.9 76.1 1614.5 76.1z"/></g><g class="st1"><path d="M486.3 235.4c0 1-0.6 4.5-1.9 10.5 -1.3 6-2.2 9.1-2.7 9.4 -6.7 4-17.6 6-32.8 6 -12.1 0-22.3-4.4-30.8-13.3 -8.5-8.9-12.7-19.4-12.7-31.7 0-13 4.3-24.1 13-33.4 8.7-9.3 19.3-13.9 31.9-13.9 10.8 0 21.9 1.1 33.3 3.4 -0.2 12.3-0.3 18.8-0.3 19.7 0 1.4-1 2.1-2.9 2.1 -0.9 0-1.5-0.2-1.8-0.7 -0.3-1.2-0.6-2.4-1-3.6 -0.4-1.2-1.3-2.8-2.6-4.8 -1.3-2-2.9-3.7-4.8-5.1 -1.9-1.4-4.5-2.7-8-3.7 -3.4-1-7.3-1.6-11.6-1.6 -9 0-16.6 4-22.9 11.9 -6.3 7.9-9.5 16.8-9.5 26.8 0 7.4 1.3 14.2 3.8 20.4 2.6 6.2 6.6 11.4 12.1 15.4 5.5 4.1 12.1 6.1 19.7 6.1 9 0 16-2.7 21-8 1.3-1.4 2.4-3.2 3.4-5.4 1-2.2 1.7-4.1 2.2-5.6 0.5-1.5 0.9-2.3 1.2-2.3 0.5 0 1.2 0.1 2 0.3 0.8 0.2 1.4 0.4 1.9 0.5L486.3 235.4z"/><path d="M539.4 170l27.4 72.4c1.6 4.3 3 7.6 4 9.9 0.5 1.4 2 2.5 4.3 3.4 2.3 0.9 4 1.3 5.1 1.3 0.4 0 0.5 0.9 0.5 2.6 0 0.4-0.1 0.8-0.3 1.4 -9.1-0.5-14.2-0.7-15.1-0.7 -0.1 0-5.4 0.2-15.9 0.7 -0.4-0.4-0.5-1.1-0.5-2.3 0-1.1 0.3-1.7 0.6-1.7 1.1 0 2.5-0.2 4.1-0.7 1.6-0.5 2.6-1 2.9-1.8 0.2-0.7 0.3-1.5 0.3-2.2 0-1.2-0.2-2.6-0.5-4.2 -0.3-1.6-0.6-2.9-0.9-3.8l-0.5-1.5 -5.6-15.5c-0.3-0.4-0.5-0.5-0.8-0.5 -3.6-0.3-7-0.4-10.4-0.4 -4.8 0-10.6 0.2-17.4 0.7l-0.7 0.4 -5.9 15.1c-1.6 4.6-2.3 7.7-2.3 9.5 0 1.3 0.4 2.2 1.1 2.7 0.8 0.6 2.1 1.2 4 1.6 1.8 0.4 3.2 0.6 4 0.6 0.3 0 0.4 0.5 0.5 1.6 0 1.1 0 1.9-0.2 2.3 -9.1-0.5-13.8-0.7-14.1-0.7 -1.8 0-3.4 0-4.8 0.1 -1.4 0.1-2.9 0.2-4.6 0.3 -1.7 0.1-3.3 0.2-4.9 0.3 -0.4-0.4-0.5-1-0.5-2.1 0-1.3 0.2-1.9 0.5-1.9 1.1 0 2.5-0.2 4.3-0.7 1.7-0.5 2.9-1.1 3.6-1.9 1.9-2.5 4.1-6.8 6.4-12.9l23.9-61.3c0.2-0.5 0.4-1.2 0.8-2.2 0.3-1 0.6-1.8 0.8-2.3 0.2-0.5 0.5-1.1 0.8-1.9 0.4-0.8 0.7-1.3 1-1.7 0.3-0.4 0.6-0.8 1-1.2 0.4-0.5 0.9-0.8 1.4-1 0.5-0.2 1.1-0.3 1.7-0.3L539.4 170zM523.5 219.5c4.8 0.2 8 0.3 9.7 0.3 4 0 8.2-0.1 12.5-0.4l0.4-0.7L535 188.4l-11.8 30.6C523.2 219.3 523.3 219.5 523.5 219.5z"/><path d="M613.6 170.3c6.3 0.2 11.4 0.3 15.4 0.3 4 0 9.2-0.1 15.5-0.3 6.3-0.2 11.2-0.3 14.7-0.3 2.3 0 5.4-0.5 9.5-1.5l2.6 19.6c-0.6 0.6-1.7 1-3.3 1 -0.8 0-1.3-0.2-1.4-0.7 -1.3-5.1-2.9-8.4-4.7-9.9 -1.9-1.5-5.4-2.3-10.6-2.3 -9.7 0-14.7 0.7-15.1 2.1 -0.8 2.9-1.2 7.5-1.2 13.7v49.5c0 5.3 0.4 9.6 1.2 12.8 0.2 0.6 1.5 1.3 3.8 1.9 2.4 0.6 4 0.9 4.9 0.9 0.4 0 0.5 0.7 0.5 2.1 0 0.7-0.1 1.4-0.3 1.9 -9.1-0.5-14.4-0.7-15.9-0.7 -0.5 0-5.9 0.2-16.5 0.7 -0.4-0.4-0.5-1-0.5-2.1 0-1.3 0.2-1.9 0.5-1.9 1.2 0 2.9-0.3 5.3-0.8s3.6-1.2 3.9-1.9c0.6-2.5 1-6.5 1-12.2v-49.6c0-8-0.4-12.7-1.2-14.1 -0.7-1.4-5.7-2.1-14.8-2.1 -5.2 0-8.8 0.8-10.6 2.3 -1.9 1.5-3.5 4.8-4.7 9.9 -0.1 0.5-0.5 0.7-1.4 0.7 -1.6 0-2.7-0.3-3.3-1l2.6-19.6c4 1 7.2 1.5 9.5 1.5C602.5 170 607.4 170.1 613.6 170.3z"/><path d="M744.4 242v-24.1l-0.3-0.5c-8.6-0.2-15.4-0.3-20.3-0.3 -14.1 0-21.1 0.2-21.1 0.7v23.7c0 5.3 0.4 9.6 1.2 12.8 0.2 0.6 1.5 1.3 3.8 1.9 2.4 0.6 4 0.9 4.9 0.9 0.3 0 0.4 0.5 0.5 1.6 0 1.1 0 1.9-0.2 2.3 -9.1-0.5-14.4-0.7-15.9-0.7 -0.5 0-5.9 0.2-16.5 0.7 -0.4-0.4-0.5-1-0.5-2.1 0-1.3 0.2-1.9 0.5-1.9 1.2 0 2.9-0.3 5.3-0.8s3.6-1.2 3.9-1.9c0.6-2.5 1-6.5 1-12.2v-53.2c0-5.7-0.3-9.7-1-12.2 -0.3-0.7-1.6-1.4-3.9-2 -2.3-0.6-4.1-0.9-5.3-0.9 -0.4 0-0.5-0.6-0.5-1.8 0-1.1 0.2-1.8 0.5-2.2 1.2 0.1 3.6 0.3 7.3 0.5 3.7 0.2 6.7 0.3 9.2 0.3 1.8 0 3.6 0 5.3-0.1 1.7-0.1 3.6-0.2 5.6-0.3 2-0.1 3.7-0.3 4.9-0.3 0.2 0.4 0.3 1.1 0.2 2.3 0 1.1-0.2 1.7-0.5 1.7 -0.9 0-2.6 0.3-4.9 1 -2.4 0.6-3.7 1.3-3.8 1.9 -0.8 3.2-1.2 7.5-1.2 12.8v20.4l0.3 0.4c9 0.2 15.9 0.3 20.8 0.3 5.3 0 12.1-0.1 20.3-0.3 0.2-0.2 0.3-0.4 0.3-0.5v-20.8c0-5.7-0.3-9.7-1-12.2 -0.3-0.7-1.6-1.4-3.9-2 -2.3-0.6-4.1-0.9-5.3-0.9 -0.4 0-0.5-0.6-0.5-1.7 0-1.1 0.2-1.9 0.5-2.3 1.1 0.1 3.5 0.3 7.3 0.5 3.7 0.2 6.9 0.3 9.3 0.3 1.7 0 3.5 0 5.2-0.1 1.7-0.1 3.6-0.2 5.6-0.3 2-0.1 3.6-0.3 4.9-0.3 0.2 0.5 0.3 1.2 0.3 2.1 0 1.3-0.2 1.9-0.5 1.9 -0.9 0-2.6 0.3-4.9 1 -2.4 0.6-3.7 1.3-3.8 1.9 -0.7 2.8-1.1 7.1-1.1 12.8v52.1c0 5.7 0.4 9.9 1.1 12.8 0.2 0.6 1.5 1.3 3.8 1.9 2.4 0.6 4 0.9 4.9 0.9 0.4 0 0.5 0.7 0.5 2.1 0 0.7-0.1 1.4-0.3 1.9 -9.1-0.5-14.4-0.7-15.6-0.7 -0.5 0-6.1 0.2-16.6 0.7 -0.4-0.4-0.5-1.1-0.5-2.3 0-1.1 0.2-1.7 0.5-1.7 1.2 0 2.9-0.3 5.3-0.8s3.6-1.2 3.9-1.9C744.1 251.7 744.4 247.6 744.4 242z"/><path d="M790.7 248.3c-8.5-9.1-12.8-20-12.8-32.8 0-12.8 4.3-23.7 12.8-32.8 8.5-9.1 18.9-13.6 30.9-13.6 12.1 0 22.4 4.5 31 13.6 8.6 9.1 12.9 20 12.9 32.8 0 12.8-4.3 23.7-12.9 32.8 -8.6 9-18.9 13.6-31 13.6C809.5 261.9 799.2 257.3 790.7 248.3zM819.5 174.8c-8.7 0-15.5 3.8-20.6 11.4 -5 7.6-7.5 16.4-7.5 26.3 0 7.3 1.2 14.2 3.6 20.7 2.4 6.5 6.1 11.9 11.1 16.2 5 4.3 10.9 6.5 17.7 6.5 5.8 0 11-1.9 15.4-5.7 4.4-3.8 7.6-8.5 9.7-14.1s3.1-11.6 3.1-18c0-7.3-1.2-14.2-3.6-20.6 -2.4-6.4-6.1-11.8-11.1-16.2C832.2 177 826.3 174.8 819.5 174.8z"/><path d="M893.7 170.5c1.8 0 3.6 0 5.3-0.1 1.7-0.1 3.6-0.2 5.6-0.3 2-0.1 3.7-0.3 4.9-0.3 0.2 0.5 0.3 1.2 0.3 2.1 0 1.3-0.2 1.9-0.5 1.9 -0.9 0-2.6 0.3-4.9 1 -2.4 0.6-3.7 1.3-3.8 1.9 -0.8 3.2-1.2 7.5-1.2 12.8V241c0 4.8 0.4 8.9 1.2 12.1 0.3 0.9 3.4 1.4 9.3 1.4h6.6c8.5 0 14.3-0.8 17.3-2.3 1.4-0.7 2.9-2.4 4.6-4.9 1.7-2.5 3-5.5 4-9 0.2-0.5 0.8-0.8 1.9-0.8 1.7 0 2.9 0.3 3.4 0.8 -0.5 1.2-1.2 3.1-2.1 5.7 -1 2.6-1.7 4.7-2.3 6.3 -0.5 1.6-1.1 3.5-1.8 5.6 -0.6 2.1-1.1 3.8-1.2 5.2 -4.8 0-12.2-0.1-22.3-0.4 -10.1-0.3-18.3-0.4-24.5-0.4l-16.6 0.4c-0.3-0.3-0.4-1-0.4-2.2 0-1.2 0.1-1.8 0.4-1.8 1.3 0 3.1-0.3 5.3-0.8 2.3-0.5 3.7-1.2 4.1-2.1 0.6-1.1 1-5.4 1-12.9v-51.8c0-5.8-0.3-10-1-12.5 -0.3-0.7-1.6-1.4-3.9-2 -2.3-0.6-4.1-0.9-5.3-0.9 -0.4 0-0.5-0.6-0.5-1.8 0-1.1 0.2-1.8 0.5-2.2 1.2 0.1 3.6 0.3 7.3 0.5C888.2 170.4 891.2 170.5 893.7 170.5z"/><path d="M965.4 188.8c0-5.7-0.3-9.7-1-12.2 -0.3-0.7-1.6-1.4-3.9-2 -2.3-0.6-4.1-0.9-5.3-0.9 -0.4 0-0.5-0.6-0.5-1.8 0-1.1 0.2-1.8 0.5-2.2 10.5 0.5 16 0.7 16.5 0.7 1.5 0 6.8-0.2 15.9-0.7 0.2 0.5 0.3 1.2 0.3 2.1 0 1.3-0.2 1.9-0.5 1.9 -0.9 0-2.6 0.3-4.9 1 -2.4 0.6-3.7 1.3-3.8 1.9 -0.8 3.2-1.2 7.5-1.2 12.8v52.1c0 5.3 0.4 9.6 1.2 12.8 0.2 0.6 1.5 1.3 3.8 1.9 2.4 0.6 4 0.9 4.9 0.9 0.4 0 0.5 0.7 0.5 2.1 0 0.7-0.1 1.4-0.3 1.9 -9.1-0.5-14.4-0.7-15.9-0.7 -0.5 0-5.9 0.2-16.5 0.7 -0.4-0.4-0.5-1-0.5-2.1 0-1.3 0.2-1.9 0.5-1.9 1.2 0 2.9-0.3 5.3-0.8s3.6-1.2 3.9-1.9c0.6-2.5 1-6.5 1-12.2V188.8z"/><path d="M1080 235.4c0 1-0.6 4.5-1.9 10.5 -1.3 6-2.2 9.1-2.7 9.4 -6.7 4-17.6 6-32.8 6 -12.1 0-22.3-4.4-30.8-13.3 -8.5-8.9-12.7-19.4-12.7-31.7 0-13 4.3-24.1 13-33.4 8.7-9.3 19.3-13.9 31.9-13.9 10.8 0 21.9 1.1 33.3 3.4 -0.2 12.3-0.3 18.8-0.3 19.7 0 1.4-1 2.1-2.9 2.1 -0.9 0-1.5-0.2-1.8-0.7 -0.3-1.2-0.6-2.4-1-3.6 -0.4-1.2-1.3-2.8-2.6-4.8 -1.3-2-2.9-3.7-4.8-5.1 -1.9-1.4-4.5-2.7-8-3.7 -3.4-1-7.3-1.6-11.6-1.6 -9 0-16.6 4-22.9 11.9 -6.3 7.9-9.5 16.8-9.5 26.8 0 7.4 1.3 14.2 3.8 20.4 2.6 6.2 6.6 11.4 12.1 15.4 5.5 4.1 12.1 6.1 19.7 6.1 9 0 16-2.7 21-8 1.3-1.4 2.4-3.2 3.4-5.4 1-2.2 1.7-4.1 2.2-5.6 0.5-1.5 0.9-2.3 1.2-2.3 0.5 0 1.2 0.1 2 0.3 0.8 0.2 1.4 0.4 1.9 0.5L1080 235.4z"/><path d="M1130.4 240.9v-51.8c0-5.4-0.3-9.3-1-11.8 -0.3-0.7-1.6-1.4-4-2.1 -2.4-0.6-4.2-1-5.4-1 -0.4 0-0.5-0.5-0.5-1.6 0-1.2 0.2-2 0.5-2.3 4.8 0.2 10.2 0.3 16.3 0.3 4.7 0 8.5 0 11.4-0.1 3 0 5.6-0.1 7.9-0.1 2.4 0 4.8 0.2 7.3 0.6 2.5 0.4 5 1.2 7.6 2.3 2.6 1.1 4.9 2.5 6.9 4.1 2 1.6 3.7 3.8 4.9 6.5 1.3 2.7 1.9 5.7 1.9 9 0 3.3-1.1 6.4-3.2 9.2 -2.1 2.8-4 4.8-5.8 5.9 -1.8 1.1-3.3 1.9-4.6 2.3 -0.7 0.3-1 0.5-0.7 0.8 3.6 0.6 7.8 3.2 12.8 7.7 4.9 4.5 7.4 9.9 7.4 16 0 7.9-3.2 14.1-9.5 18.7 -6.4 4.6-14.8 6.9-25.3 6.9h-18.8l-16.6 0.4c-0.3-0.3-0.4-1-0.4-2.2 0-1.2 0.1-1.8 0.4-1.8 1.2 0 2.9-0.3 5.3-1 2.3-0.6 3.7-1.4 4.2-2.2C1130 252.7 1130.4 248.4 1130.4 240.9zM1159 208.9c3.7-0.4 6.9-1.7 9.4-3.9 2.5-2.2 3.8-5.2 3.8-9 0-6.3-1.6-11.2-4.7-14.7 -3.2-3.5-7.8-5.3-14.1-5.3 -4.2 0-7.5 0.3-9.7 1 -0.5 0.1-0.8 0.5-0.8 1.2l-0.5 13.8v16.3c0 0.6 3 1 9 1C1154.3 209.3 1156.8 209.2 1159 208.9zM1177.1 236.4c0-5.8-2-10.9-5.9-15 -3.9-4.2-10.1-6.2-18.5-6.2 -2 0-5.3 0.2-9.9 0.5 -0.4 1.1-0.5 2.6-0.5 4.5v20c0 6.9 0.7 11 2.2 12.2 1.4 1.3 3.8 1.9 7.4 1.9 2.3 0 4.5-0.2 6.8-0.5 2.2-0.4 4.9-1.1 8-2.1 3.1-1 5.6-2.9 7.5-5.5C1176.2 243.6 1177.1 240.3 1177.1 236.4z"/><path d="M1211.5 188.8c0-5.7-0.3-9.7-1-12.2 -0.3-0.7-1.6-1.4-3.9-2 -2.3-0.6-4.1-0.9-5.3-0.9 -0.4 0-0.5-0.6-0.5-1.8 0-1.1 0.2-1.8 0.5-2.2 10.5 0.5 16 0.7 16.5 0.7 1.5 0 6.8-0.2 15.9-0.7 0.2 0.5 0.3 1.2 0.3 2.1 0 1.3-0.2 1.9-0.5 1.9 -0.9 0-2.6 0.3-4.9 1 -2.4 0.6-3.7 1.3-3.8 1.9 -0.8 3.2-1.2 7.5-1.2 12.8v52.1c0 5.3 0.4 9.6 1.2 12.8 0.2 0.6 1.5 1.3 3.8 1.9 2.4 0.6 4 0.9 4.9 0.9 0.4 0 0.5 0.7 0.5 2.1 0 0.7-0.1 1.4-0.3 1.9 -9.1-0.5-14.4-0.7-15.9-0.7 -0.5 0-5.9 0.2-16.5 0.7 -0.4-0.4-0.5-1-0.5-2.1 0-1.3 0.2-1.9 0.5-1.9 1.2 0 2.9-0.3 5.3-0.8s3.6-1.2 3.9-1.9c0.6-2.5 1-6.5 1-12.2V188.8z"/><path d="M1247.6 193.3c0-7 2.7-12.8 8.1-17.3 5.4-4.5 11.7-6.8 18.8-6.8 2 0 3.9 0.1 5.7 0.3 1.8 0.2 3.2 0.5 4.4 0.8 1.1 0.3 2.8 0.7 4.9 1.3 2.1 0.6 4 1.1 5.7 1.4 1.1 4.8 1.6 11.4 1.6 19.6 0 0.6-0.5 1-1.4 1 -2.2 0-3.4-0.5-3.6-1.4 -0.5-4-2.4-7.9-5.8-11.7 -3.4-3.8-7.6-5.7-12.5-5.7 -5.5 0-9.3 1.4-11.6 4.1 -2.2 2.7-3.4 6.1-3.4 10.1 0 1.7 0.3 3.4 1 5 0.6 1.6 1.3 2.9 1.9 4 0.6 1.1 1.8 2.3 3.5 3.6 1.7 1.4 2.9 2.3 3.7 2.9 0.8 0.5 2.3 1.6 4.7 3 2.3 1.5 3.8 2.4 4.5 2.7 0.5 0.3 2.1 1.3 4.8 2.9 2.7 1.7 4.6 2.9 5.6 3.6 1 0.7 2.6 1.9 4.7 3.7 2.1 1.8 3.7 3.4 4.7 4.7 1 1.4 1.9 3.1 2.7 5.1 0.9 2.1 1.3 4.2 1.3 6.4 0 7.3-2.9 13.3-8.6 18 -5.7 4.7-12.4 7.1-20.1 7.1 -2.2 0-4.5-0.2-7-0.5 -2.5-0.3-4.5-0.6-6.2-1 -1.6-0.3-3.7-0.8-6.2-1.4 -2.5-0.6-4.3-1-5.3-1.2 -2.3-11.2-3.4-18.5-3.4-21.8 0-0.5 0.7-0.8 2.2-0.8 1.6 0 2.8 0.4 3.4 1.2 3.1 13.2 10.7 19.7 22.8 19.7 4.6 0 8.5-1.4 11.7-4.1 3.2-2.7 4.8-6.6 4.8-11.7 0-1.8-0.3-3.5-0.8-5.1 -0.5-1.6-1.1-2.8-1.7-3.8 -0.6-1-1.6-2.1-3.2-3.2 -1.5-1.1-2.7-2-3.5-2.5 -0.8-0.5-2.3-1.4-4.5-2.6 -2.2-1.2-3.7-2-4.5-2.5 -2.7-1.6-4.5-2.7-5.6-3.3 -1.1-0.6-2.8-1.8-5.2-3.4 -2.4-1.6-4.2-3-5.3-4.3 -1.1-1.2-2.4-2.7-3.8-4.5 -1.5-1.8-2.5-3.7-3.1-5.7C1247.9 197.6 1247.6 195.5 1247.6 193.3z"/><path d="M1376.1 242v-24.1l-0.3-0.5c-8.6-0.2-15.4-0.3-20.3-0.3 -14.1 0-21.1 0.2-21.1 0.7v23.7c0 5.3 0.4 9.6 1.2 12.8 0.2 0.6 1.5 1.3 3.8 1.9 2.4 0.6 4 0.9 4.9 0.9 0.3 0 0.4 0.5 0.5 1.6 0 1.1 0 1.9-0.2 2.3 -9.1-0.5-14.4-0.7-15.9-0.7 -0.5 0-5.9 0.2-16.5 0.7 -0.4-0.4-0.5-1-0.5-2.1 0-1.3 0.2-1.9 0.5-1.9 1.2 0 2.9-0.3 5.3-0.8s3.6-1.2 3.9-1.9c0.6-2.5 1-6.5 1-12.2v-53.2c0-5.7-0.3-9.7-1-12.2 -0.3-0.7-1.6-1.4-3.9-2 -2.3-0.6-4.1-0.9-5.3-0.9 -0.4 0-0.5-0.6-0.5-1.8 0-1.1 0.2-1.8 0.5-2.2 1.2 0.1 3.6 0.3 7.3 0.5 3.7 0.2 6.7 0.3 9.2 0.3 1.8 0 3.6 0 5.3-0.1 1.7-0.1 3.6-0.2 5.6-0.3 2-0.1 3.7-0.3 4.9-0.3 0.2 0.4 0.3 1.1 0.2 2.3 0 1.1-0.2 1.7-0.5 1.7 -0.9 0-2.6 0.3-4.9 1 -2.4 0.6-3.7 1.3-3.8 1.9 -0.8 3.2-1.2 7.5-1.2 12.8v20.4l0.3 0.4c9 0.2 15.9 0.3 20.8 0.3 5.3 0 12.1-0.1 20.3-0.3 0.2-0.2 0.3-0.4 0.3-0.5v-20.8c0-5.7-0.3-9.7-1-12.2 -0.3-0.7-1.6-1.4-3.9-2 -2.3-0.6-4.1-0.9-5.3-0.9 -0.4 0-0.5-0.6-0.5-1.7 0-1.1 0.2-1.9 0.5-2.3 1.1 0.1 3.5 0.3 7.3 0.5 3.7 0.2 6.9 0.3 9.3 0.3 1.7 0 3.5 0 5.2-0.1 1.7-0.1 3.6-0.2 5.6-0.3 2-0.1 3.6-0.3 4.9-0.3 0.2 0.5 0.3 1.2 0.3 2.1 0 1.3-0.2 1.9-0.5 1.9 -0.9 0-2.6 0.3-4.9 1 -2.4 0.6-3.7 1.3-3.8 1.9 -0.7 2.8-1.1 7.1-1.1 12.8v52.1c0 5.7 0.4 9.9 1.1 12.8 0.2 0.6 1.5 1.3 3.8 1.9 2.4 0.6 4 0.9 4.9 0.9 0.4 0 0.5 0.7 0.5 2.1 0 0.7-0.1 1.4-0.3 1.9 -9.1-0.5-14.4-0.7-15.6-0.7 -0.5 0-6.1 0.2-16.6 0.7 -0.4-0.4-0.5-1.1-0.5-2.3 0-1.1 0.2-1.7 0.5-1.7 1.2 0 2.9-0.3 5.3-0.8s3.6-1.2 3.9-1.9C1375.8 251.7 1376.1 247.6 1376.1 242z"/><path d="M1422.4 248.3c-8.5-9.1-12.8-20-12.8-32.8 0-12.8 4.3-23.7 12.8-32.8 8.5-9.1 18.9-13.6 30.9-13.6s22.4 4.5 31 13.6c8.6 9.1 12.9 20 12.9 32.8 0 12.8-4.3 23.7-12.9 32.8 -8.6 9-18.9 13.6-31 13.6S1430.9 257.3 1422.4 248.3zM1451.2 174.8c-8.7 0-15.5 3.8-20.6 11.4 -5 7.6-7.5 16.4-7.5 26.3 0 7.3 1.2 14.2 3.6 20.7 2.4 6.5 6.1 11.9 11.1 16.2 5 4.3 10.9 6.5 17.7 6.5 5.8 0 11-1.9 15.4-5.7 4.4-3.8 7.6-8.5 9.7-14.1s3.1-11.6 3.1-18c0-7.3-1.2-14.2-3.6-20.6 -2.4-6.4-6.1-11.8-11.1-16.2C1463.9 177 1458 174.8 1451.2 174.8z"/><path d="M1525.8 170.5c2.7 0 6-0.1 9.7-0.3 3.7-0.2 6.9-0.3 9.6-0.3 3 0 6.1 0.5 9.1 1.4 3.1 0.9 6 2.3 8.9 4.1 2.9 1.8 5.2 4.4 7.1 7.8 1.8 3.4 2.7 7.3 2.7 11.8 0 2.7-0.6 5.5-1.7 8.6 -1.1 3.1-2.8 6-5 8.9 -2.2 2.9-5.1 5.3-8.8 7.1 -3.7 1.9-7.8 2.8-12.4 2.8 -5.1 0-8.6-1.3-10.6-3.8 -0.5-0.6-0.7-1.7-0.4-3.2 0.1-0.4 0.2-0.5 0.4-0.4 2.7 1 5.8 1.5 9.2 1.5 4.6 0 8.5-1.9 11.8-5.8 3.3-3.8 4.9-8.4 4.9-13.7 0-6.5-1.4-11.6-4.3-15.4 -2.8-3.8-7.2-5.7-13.2-5.7 -4.1 0-7.3 0.3-9.6 1 -0.5 0.1-0.8 0.4-1 1 -0.2 0.6-0.3 2-0.5 4.2 -0.1 2.2-0.2 5.5-0.2 9.9v49c0 6.1 0.4 10.1 1.1 11.9 0.5 1.2 2.1 2.1 4.9 2.9 2.8 0.7 4.8 1.1 6 1.1 0.4 0 0.5 0.6 0.5 1.9 0 0.8-0.1 1.5-0.3 2.1 -9.1-0.5-15.1-0.7-17.8-0.7l-16.7 0.7c-0.3-0.3-0.4-1.1-0.4-2.5 0-1.2 0.1-1.8 0.4-1.8 1.3 0 3.1-0.3 5.3-0.8 2.3-0.5 3.7-1.2 4.1-2.1 0.6-1.1 1-5.4 1-12.9v-51.8c0-5.4-0.3-9.3-1-11.8 -0.3-0.7-1.6-1.4-4-2.1 -2.4-0.6-4.2-1-5.4-1 -0.4 0-0.5-0.5-0.5-1.6 0-1.2 0.2-2 0.5-2.3L1525.8 170.5z"/><path d="M1586.4 193.3c0-7 2.7-12.8 8.1-17.3 5.4-4.5 11.7-6.8 18.8-6.8 2 0 3.9 0.1 5.7 0.3 1.8 0.2 3.2 0.5 4.4 0.8 1.1 0.3 2.8 0.7 4.9 1.3 2.1 0.6 4 1.1 5.7 1.4 1.1 4.8 1.6 11.4 1.6 19.6 0 0.6-0.5 1-1.4 1 -2.2 0-3.4-0.5-3.6-1.4 -0.5-4-2.4-7.9-5.8-11.7 -3.4-3.8-7.6-5.7-12.5-5.7 -5.5 0-9.3 1.4-11.6 4.1 -2.2 2.7-3.4 6.1-3.4 10.1 0 1.7 0.3 3.4 1 5 0.6 1.6 1.3 2.9 1.9 4 0.6 1.1 1.8 2.3 3.5 3.6 1.7 1.4 2.9 2.3 3.7 2.9 0.8 0.5 2.3 1.6 4.7 3 2.3 1.5 3.8 2.4 4.5 2.7 0.5 0.3 2.1 1.3 4.8 2.9 2.7 1.7 4.6 2.9 5.6 3.6 1 0.7 2.6 1.9 4.7 3.7 2.1 1.8 3.7 3.4 4.7 4.7 1 1.4 1.9 3.1 2.7 5.1 0.9 2.1 1.3 4.2 1.3 6.4 0 7.3-2.9 13.3-8.6 18 -5.7 4.7-12.4 7.1-20.1 7.1 -2.2 0-4.5-0.2-7-0.5 -2.5-0.3-4.5-0.6-6.2-1 -1.6-0.3-3.7-0.8-6.2-1.4 -2.5-0.6-4.3-1-5.3-1.2 -2.3-11.2-3.4-18.5-3.4-21.8 0-0.5 0.7-0.8 2.2-0.8 1.6 0 2.8 0.4 3.4 1.2 3.1 13.2 10.7 19.7 22.8 19.7 4.6 0 8.5-1.4 11.7-4.1 3.2-2.7 4.8-6.6 4.8-11.7 0-1.8-0.3-3.5-0.8-5.1 -0.5-1.6-1.1-2.8-1.7-3.8 -0.6-1-1.6-2.1-3.2-3.2 -1.5-1.1-2.7-2-3.5-2.5 -0.8-0.5-2.3-1.4-4.5-2.6 -2.2-1.2-3.7-2-4.5-2.5 -2.7-1.6-4.5-2.7-5.6-3.3 -1.1-0.6-2.8-1.8-5.2-3.4 -2.4-1.6-4.2-3-5.3-4.3 -1.1-1.2-2.4-2.7-3.8-4.5 -1.5-1.8-2.5-3.7-3.1-5.7C1586.7 197.6 1586.4 195.5 1586.4 193.3z"/></g></svg>