<svg id="Layer_1" data-name="Layer 1" xmlns="http://www.w3.org/2000/svg" xmlns:xlink="http://www.w3.org/1999/xlink" viewBox="0 0 58.95 75.58"><defs><clipPath id="clip-path"><rect width="58.95" height="75.58" style="fill:none"/></clipPath></defs><title>bell</title><g style="clip-path:url(#clip-path)"><path d="M34.46,67.88a5,5,0,1,1-9.51-2.08H34a5,5,0,0,1,.45,2.08M8.51,52.4V29.17a21,21,0,0,1,42,0V52.39L54.9,63.09H4.07ZM28.16,4.08a1.36,1.36,0,1,1,1.36,1.36,1.36,1.36,0,0,1-1.36-1.36M58.95,65.8,53.25,51.86V29.17a23.77,23.77,0,0,0-20-23.44,4.08,4.08,0,1,0-7.44,0,23.77,23.77,0,0,0-20,23.44V51.86L0,65.8H22.07a7.7,7.7,0,1,0,14.83,0Z" style="fill:#fff"/><path d="M13.39,24l2.59.83a14.21,14.21,0,0,1,6.43-8L21.05,14.5A16.92,16.92,0,0,0,13.39,24" style="fill:#fff"/></g></svg>