<svg class="svg-icon svg-icon__mpa-android" xmlns="http://www.w3.org/2000/svg" xmlns:xlink="http://www.w3.org/1999/xlink" viewBox="0 0 38.45 43.29"><defs><clipPath id="clip-path-mpa-android-1"><rect width="38.45" height="43.29" style="fill:none"/></clipPath><clipPath id="clip-path-mpa-android-2"><rect width="38.45" height="43.29" style="fill:none"/></clipPath><clipPath id="clip-path-mpa-android-3"><rect x="-17" y="-1" width="72.45" height="45.29" style="fill:none"/></clipPath></defs><g style="clip-path:url(#clip-path-mpa-android-1)"><g style="clip-path:url(#clip-path-mpa-android-2)"><g style="opacity:0.8500059843063354"><g style="clip-path:url(#clip-path-mpa-android-3)"><path d="M13.84,43.29c-.2-.09-.4-.16-.59-.26A2.72,2.72,0,0,1,11.79,41a4.75,4.75,0,0,1-.06-.79c0-1.75,0-3.5,0-5.26,0-.13,0-.27,0-.43l-.45,0c-.7,0-1.41,0-2.11,0a2.18,2.18,0,0,1-1.52-.55A2.66,2.66,0,0,1,7,33.22a2.75,2.75,0,0,1-.25-.78,2.41,2.41,0,0,1,0-.52V14.61a2.44,2.44,0,0,1,.33-.08c.13,0,.27,0,.4,0H31.13c.55,0,.55,0,.55.51q0,4.67,0,9.34,0,3.72,0,7.43a5.43,5.43,0,0,1,0,.83,2.3,2.3,0,0,1-1,1.44,1.84,1.84,0,0,1-1.18.38c-.74,0-1.48,0-2.22,0h-.44c0,.19,0,.35,0,.5,0,1.74,0,3.48,0,5.22a4.09,4.09,0,0,1-.07.93,2.72,2.72,0,0,1-2.06,2.15l-.06,0h-1l-.13-.06a2.62,2.62,0,0,1-1.8-1.57,3.36,3.36,0,0,1-.25-1.35q0-2.63,0-5.26c0-.17,0-.34,0-.5a34.55,34.55,0,0,0-4.17,0c0,.21,0,.42,0,.64,0,1.73,0,3.46,0,5.19a3,3,0,0,1,0,.62,2.76,2.76,0,0,1-2,2.23s0,0-.05,0Z" style="fill:#732222"/><path d="M25.13,9.31c.55,0,1.17-.58,1.12-1.07a1.14,1.14,0,0,0-2.28,0,1.2,1.2,0,0,0,1.16,1M14.49,8.23a1.11,1.11,0,0,0-1.16-1.08,1.12,1.12,0,0,0-1.12,1.13,1.13,1.13,0,0,0,1.14,1,1.12,1.12,0,0,0,1.14-1.07M27.15,0a.39.39,0,0,1,0,.48L25.84,2.67l-.55.89a2,2,0,0,0-.1.24l.62.36A12.08,12.08,0,0,1,29.31,7a9.9,9.9,0,0,1,1.87,3.44,9.56,9.56,0,0,1,.41,2.31c0,.12,0,.25,0,.39a3,3,0,0,1-.31,0H7.39c-.55,0-.58,0-.53-.55a9.93,9.93,0,0,1,.63-2.86A10.15,10.15,0,0,1,8.91,7.3a9.64,9.64,0,0,1,2.14-2.1c.7-.49,1.43-.94,2.2-1.43a2.63,2.63,0,0,0-.14-.29L11.35.57c-.11-.19-.21-.37-.05-.57h.29l.18.26,1.85,3c.06.1.15.2.22.29.57-.18,1.1-.38,1.65-.53a12.67,12.67,0,0,1,2.63-.45,15.51,15.51,0,0,1,3.58.16,15.56,15.56,0,0,1,2.58.7c.39.14.4.13.6-.21l2-3.24Z" style="fill:#732222"/><path d="M5.35,22.33q0,2.51,0,5a3.28,3.28,0,0,1-.17,1.23,2.72,2.72,0,0,1-2,1.75A2.4,2.4,0,0,1,1.28,30,2.77,2.77,0,0,1,0,27.77c0-.13,0-.25,0-.38q0-5.07,0-10.13a4.22,4.22,0,0,1,.1-1.06,2.59,2.59,0,0,1,1.71-1.87,2.46,2.46,0,0,1,2.56.5,2.7,2.7,0,0,1,1,2.15v5.36Z" style="fill:#732222"/><path d="M38.45,22.31c0,1.71,0,3.41,0,5.12A3.09,3.09,0,0,1,38,29.11a2.63,2.63,0,0,1-2.89,1.18,2.79,2.79,0,0,1-2-2.7q0-5.32,0-10.65a2.68,2.68,0,0,1,1.34-2.39,2.34,2.34,0,0,1,1.88-.31,2.64,2.64,0,0,1,2.06,2.14,3.5,3.5,0,0,1,.07.68c0,1.75,0,3.5,0,5.25" style="fill:#732222"/></g></g></g></g></svg>