<svg class="svg-icon svg-icon__social-facebook" xmlns="http://www.w3.org/2000/svg" xmlns:xlink="http://www.w3.org/1999/xlink" viewBox="0 0 32.38 32.38"><defs><clipPath id="clip-path-facebook"><rect width="32.38" height="32.38" style="fill:none"/></clipPath></defs><g style="clip-path:url(#clip-path-facebook)"><path d="M28,0H4.36A4.36,4.36,0,0,0,0,4.36V28a4.36,4.36,0,0,0,4.36,4.36H16l0-11.57H13a.71.71,0,0,1-.71-.71V16.37a.71.71,0,0,1,.71-.71h3v-3.6c0-4.18,2.55-6.46,6.28-6.46h3.06a.71.71,0,0,1,.71.71V9.45a.71.71,0,0,1-.71.71H23.5c-2,0-2.42,1-2.42,2.38v3.12h4.46a.71.71,0,0,1,.7.79l-.44,3.73a.71.71,0,0,1-.7.63h-4l0,11.57H28A4.36,4.36,0,0,0,32.38,28V4.36A4.36,4.36,0,0,0,28,0" style="fill:#732222"/></g></svg>