<svg class="svg-icon svg-icon__social-mpa" xmlns="http://www.w3.org/2000/svg" xmlns:xlink="http://www.w3.org/1999/xlink" viewBox="0 0 32.41 32.41"><defs><clipPath id="clip-path-mpa"><rect width="32.41" height="32.41" style="fill:none"/></clipPath></defs><g style="clip-path:url(#clip-path-mpa)"><path d="M26.16,22.81a9,9,0,0,1-7,3.61,4.81,4.81,0,0,1-3.63-1.51,7.68,7.68,0,0,1-1.69-3.67,20.51,20.51,0,0,1-.35-4.63,25.67,25.67,0,0,1-3.24-.34.86.86,0,0,1-.81-.94c0-.86.76-2.32,1.78-2.27.51,0,1,.16,1.53.22l.81.09c.21,0,.14-.08.16-.26s0-.26,0-.39c.06-.52.13-1,.2-1.55a6.71,6.71,0,0,1,.17-1,2.46,2.46,0,0,1,1-1.25c.31-.21.8-.46,1.16-.23s.25,1.2.19,1.66c-.15,1.05-.3,2.1-.4,3.16a14.57,14.57,0,0,0,3.13-.38,10,10,0,0,0,1.51-.49,7.73,7.73,0,0,1,1-.46c1.12-.29.76,1.41.53,1.94a2.14,2.14,0,0,1-1,1.13,12.24,12.24,0,0,1-2.88,1,16.11,16.11,0,0,1-1.6.27l-.75.07c-.19,0-.12.08-.12.25s0,.24,0,.35A11.35,11.35,0,0,0,16.44,20a6.36,6.36,0,0,0,1.29,2.32,2.81,2.81,0,0,0,2,.93,5.91,5.91,0,0,0,4.06-1.15c2.34-1.84,2.53-5.34,1.83-8a9.88,9.88,0,0,0-5.82-6.57,10.69,10.69,0,0,0-9,.52A7.45,7.45,0,0,0,8.89,20.29c1.24,1.12,2.75,1.91,3.54,3.44a3.84,3.84,0,0,1,.3,3.22,3.67,3.67,0,0,1-3.18,1.88c-.49,0-1.45.18-1.81-.3s.11-.72.36-.92c.48-.39,1.19-.46,1.47-1.07a1.57,1.57,0,0,0-.46-1.71A11.25,11.25,0,0,0,8,24a12.73,12.73,0,0,1-1.12-1,10,10,0,0,1-1.74-2.35A9.69,9.69,0,0,1,4,15.36a12.35,12.35,0,0,1,4-8.15,14.09,14.09,0,0,1,8.4-3.63,11.2,11.2,0,0,1,8.52,3.1A12.16,12.16,0,0,1,28.44,15a12.07,12.07,0,0,1-2.28,7.86M26.52,0H5.41C1.06,0,0,1.69,0,6V26.52c0,4.36,1.53,5.89,5.89,5.89H26.52c4.36,0,5.89-1.53,5.89-5.89V5.89C32.41,1.53,30.88,0,26.52,0" style="fill:#732222"/></g></svg>